<svg version="1.2" xmlns="http://www.w3.org/2000/svg" width="378" height="125"><defs><clipPath clipPathUnits="userSpaceOnUse" id="cp1"><path d="M16.31 11.69h345.33v102.57H16.31z"/></clipPath></defs><style>.s0{fill:#6d1e7e}.s1{fill:#fab700}</style><g clip-path="url(#cp1)"><path class="s0" d="m330.8 103.7-1.6 1.6-1.4-1.4q-.3-.7-.8-1.3l-1-1.2-1.2-1q-.7-.5-1.3-.9l-10.9-10.8q.1-.3.3-.5.2-.2.3-.5l.4-.4q.1-.2.3-.4zM337.1 97.4l-1.6 1.6-16.9-16.9 1.6-1.5zM319 98.2h-1.9q-.3.1-.5.1-.3.1-.6.1l-5.5-5.5.2-.6q.1-.2.3-.5l.2-.6q.1-.3.2-.5zM346.1 87.5c-.3.8-.5 1.2-.6 1.4l-.2.2v.2h-.1v.1l-.2.2-16.9-16.9 1.5-1.6zM343.4 91.2l-1.6 1.5-16.9-16.9 1.6-1.5zM334.4 66.4l1.5-1.6 7.6 7.6c2.1 2.1 3.1 4.4 3.5 6.6zM313.7 99.2q-.6.2-1.1.5-.5.3-1 .7-.4.3-.9.7-.4.4-.8.9-.1-.8-.2-1.7-.1-.8-.1-1.6t.1-1.7q0-.8.2-1.6zM347.2 82.4q-.1 1.4-.4 2.7l-15.6-15.6 1.6-1.5zM340.2 94.3l-1.5 1.6L321.8 79l1.6-1.6zM323.3 16.8c0 1.4-.5 2.7-1.4 3.7-1 1-2.3 1.5-3.7 1.5-1.4 0-2.7-.5-3.7-1.5-.9-1-1.4-2.3-1.4-3.7 0-1.3.6-2.6 1.5-3.5 1-.9 2.3-1.5 3.6-1.5 1.3 0 2.6.6 3.6 1.5.9.9 1.5 2.2 1.5 3.5z"/><path class="s1" d="M348.7 85.9c1.2-2 2.3-9.8-3.6-15.7l-14-14s-3.2-3.3-4.2-8.6c-1.3-6.9 1.5-14.2 8.3-21.1l19.3 19.3c.1.1 7.1 7.2 6.7 17.6-.3 7.9-4.1 15.1-12.5 22.5z"/><path class="s0" d="M287.9 40.1c-1.1 2.1-2.2 9.8 3.7 15.7l13.9 14c.1 0 3.2 3.3 4.3 8.6 1.3 6.9-1.6 14.2-8.3 21.1l-19.3-19.3c-.1-.1-7.2-7.1-6.7-17.6.3-7.8 4.1-15 12.4-22.5z"/><path class="s1" d="M326.9 25.6q.1.8.1 1.7 0 .8-.1 1.6 0 .9-.2 1.7c-1 5.3-4.2 8.6-4.2 8.6l-21.8 21.9-7.6-7.7c-6.7-6.6-2.3-15.8-2-16.4.1-.1.1-.3.2-.3v-.1h.1v-.1L307.9 20c.6 1.9 1.7 3.5 3.1 4.9 1.5 1.3 3.2 2.2 5.2 2.6 1.9.4 3.9.2 5.7-.4 1.9-.6 3.5-1.7 4.8-3.2q.1.8.2 1.7zM323.3 109.2c0 1.3-.5 2.6-1.5 3.6-.9.9-2.2 1.5-3.6 1.5-1.3 0-2.6-.6-3.6-1.5-.9-1-1.5-2.3-1.5-3.6 0-1.4.6-2.7 1.5-3.7 1-.9 2.3-1.4 3.6-1.4 1.4 0 2.7.5 3.6 1.4 1 1 1.5 2.3 1.5 3.7z"/><path class="s0" d="M205.8 61.5h-2.5V44.2h2.5zM189.4 45.5c0 .4-.2.7-.4 1-.3.2-.6.4-.9.4-.4 0-.7-.2-1-.4-.2-.3-.4-.6-.3-1 0-.7.5-1.3 1.3-1.3.7 0 1.3.6 1.3 1.3zM155.4 65.4q0 .3-.1.5t-.3.4q-.1.2-.4.3-.2.1-.5.1-.2 0-.5-.1-.2-.1-.4-.3-.2-.2-.3-.4-.1-.2-.1-.5c0-.7.6-1.3 1.3-1.3q.3 0 .5.1.3.1.4.3.2.2.3.4.1.2.1.5zM151.4 65.4q0 .3-.1.5t-.3.4q-.1.2-.4.3-.2.1-.5.1c-.3 0-.6-.1-.9-.4-.2-.2-.4-.6-.4-.9 0-.3.2-.7.4-.9.3-.3.6-.4.9-.4q.3 0 .5.1.3.1.4.3.2.2.3.4.1.2.1.5zM136.5 45.5c0 .4-.2.7-.4 1-.3.2-.6.3-.9.3-.4 0-.7-.1-1-.3-.2-.3-.3-.6-.3-1 0-.7.5-1.3 1.3-1.3.7 0 1.3.6 1.3 1.3zM132.5 45.5c0 .4-.2.7-.4 1-.3.2-.6.3-.9.3-.4 0-.7-.1-.9-.3-.3-.3-.4-.6-.4-1 0-.7.6-1.3 1.3-1.3.7 0 1.3.6 1.3 1.3zM193.3 45.5c0 .4-.1.7-.3 1-.3.2-.6.3-1 .3-.3 0-.6-.1-.9-.3-.2-.3-.4-.6-.4-1 0-.7.6-1.3 1.3-1.3.8 0 1.3.6 1.3 1.3zM181.1 44.3q.2.1.4.3.2.2.3.4.1.3.1.5c0 .4-.2.7-.4 1-.2.2-.6.4-.9.4-.4 0-.7-.2-1-.4-.2-.3-.3-.6-.3-1q0-.2.1-.5.1-.2.3-.4.1-.2.4-.3.2-.1.5-.1.2 0 .5.1z"/><path fill-rule="evenodd" class="s0" d="M200.8 44.2v11.3q0 1.2-.4 2.3-.5 1.1-1.3 1.9-.9.9-2 1.3-1.1.5-2.3.5-.7 0-1.4-.2-.6-.1-1.2-.4-.7-.3-1.2-.7l-1-1c-.5.7-1.2 1.3-2.1 1.7-.8.4-1.7.6-2.6.6-.9 0-1.8-.2-2.6-.6-.9-.4-1.6-1-2.1-1.7-.6.7-1.3 1.3-2.1 1.7-.9.4-1.8.6-2.7.6-.9 0-1.8-.2-2.6-.6-.8-.4-1.6-1-2.1-1.7-1.1 1.4-2.8 2.3-4.8 2.3q-.6 0-1.3-.2-.7-.1-1.3-.4-.6-.3-1.1-.7-.6-.5-1-1c-1.1 1.4-2.8 2.3-4.7 2.3q-.7 0-1.4-.2-.7-.1-1.3-.4-.6-.3-1.1-.7l-1-1q-.4.5-.9 1-.6.4-1.2.7-.6.3-1.3.4-.6.2-1.3.2-.7 0-1.4-.2-.6-.1-1.2-.4-.7-.3-1.2-.7-.5-.5-.9-1c-1.2 1.4-2.9 2.3-4.8 2.3h-9.5q-1.2 0-2.3-.5-1.1-.4-1.9-1.3-.9-.8-1.3-1.9-.5-1.1-.5-2.3 0-1.2.5-2.3.4-1.1 1.3-2 .8-.8 1.9-1.3 1.1-.5 2.3-.5h12.9v-2.6h2.6v8.7q0 .7.3 1.3.3.6.8 1.1.4.5 1.1.7.6.3 1.3.3.7 0 1.3-.3.6-.2 1.1-.7.5-.5.8-1.1.2-.6.2-1.3v-6.1h2.6v6.1c.1.9.4 1.7 1.1 2.3.6.7 1.5 1 2.4 1 .9 0 1.7-.3 2.4-1 .6-.6 1-1.4 1-2.3 0-1.6.7-3.1 1.8-4.2s2.7-1.7 4.2-1.7c1.6 0 3.1.6 4.3 1.7 1.1 1.1 1.8 2.6 1.8 4.2 0 .9.4 1.7 1 2.4.7.6 1.5.9 2.4.9.9 0 1.8-.3 2.4-.9.7-.7 1.1-1.5 1.1-2.4v-6.1h2.6v6.1q0 .7.2 1.3.3.6.8 1.1.5.5 1.1.7.6.3 1.3.3.7 0 1.3-.3.7-.2 1.1-.7.5-.5.8-1.1.2-.6.3-1.3v-6.1h2.5v6.1c.1.9.4 1.7 1.1 2.4.6.6 1.5.9 2.4.9.9 0 1.8-.3 2.4-.9.6-.7 1-1.5 1-2.4V44.2zm-31.3 12.6c.6-1.3.3-2.8-.7-3.8s-2.5-1.2-3.8-.7c-1.2.5-2.1 1.8-2.1 3.2q0 .7.3 1.3.3.6.7 1.1.5.5 1.1.7.7.3 1.4.3c1.4 0 2.6-.8 3.1-2.1zM141.4 52h-12.9q-.7 0-1.4.3-.6.2-1.1.7-.5.5-.7 1.1-.3.7-.3 1.4t.3 1.3q.2.6.7 1.1.5.5 1.1.7.7.3 1.4.3h9.4q.7 0 1.3-.3.7-.2 1.2-.7.4-.5.7-1.1.3-.7.3-1.3z"/><path class="s0" d="M230.9 46.8V49h-2.3c-.5 0-1 .4-1 1 0 .5.5.9 1 .9h2.3v2.2h-7.2v-2.2h2q-.2-.4-.2-.9 0-.7.3-1.2.2-.6.6-1 .5-.5 1-.7.6-.3 1.2-.3zM256.6 65.4q0 .3-.1.5t-.3.4q-.1.2-.4.3-.2.1-.5.1c-.7 0-1.3-.6-1.3-1.3 0-.7.6-1.3 1.3-1.3q.3 0 .5.1.3.1.4.3.2.2.3.4.1.2.1.5zM251.9 45.5q0 .3-.1.5-.1.3-.3.5l-.4.2q-.2.1-.5.1c-.3 0-.7-.1-.9-.3-.3-.3-.4-.6-.4-1 0-.3.1-.6.4-.9.2-.2.6-.3.9-.3.7-.1 1.3.5 1.3 1.2z"/><path class="s0" d="M261.4 49.4v6.1q0 1.2-.5 2.3-.5 1.1-1.3 1.9-.9.9-2 1.3-1.1.5-2.3.5-.7 0-1.3-.2-.7-.1-1.3-.4-.6-.3-1.2-.7-.5-.5-.9-1c-1.1 1.4-2.8 2.3-4.7 2.3q-.7 0-1.4-.2-.7-.1-1.3-.4-.6-.3-1.1-.7-.6-.5-1-1c-1.1 1.4-2.8 2.3-4.7 2.3h-19q-1.2 0-2.3-.5-1.1-.4-2-1.3-.8-.8-1.3-1.9-.4-1.1-.4-2.3h2.6q0 .7.2 1.3.3.6.8 1.1.5.5 1.1.7.6.3 1.3.3h19q.7 0 1.3-.3.6-.2 1.1-.7.5-.5.8-1.1.2-.6.2-1.3V44.2h2.6v11.3c0 .9.4 1.8 1 2.4.7.6 1.5 1 2.5 1 .9 0 1.7-.4 2.4-1 .6-.6 1-1.5 1-2.4v-6.1h2.6v6.1c0 .9.4 1.8 1 2.4.6.7 1.5 1 2.4 1 .9 0 1.8-.3 2.5-1 .6-.6 1-1.5 1-2.4v-6.1zM49.3 65.4q0 .3-.1.5l-.2.4q-.2.2-.5.3-.2.1-.5.1c-.3 0-.6-.2-.9-.4-.2-.2-.3-.6-.3-.9 0-.3.1-.7.3-.9.3-.3.6-.4.9-.4q.3 0 .5.1.3.1.5.3l.2.4q.1.2.1.5zM45.3 65.4q0 .3-.1.5 0 .2-.2.4t-.5.3q-.2.1-.4.1c-.4 0-.7-.1-1-.4-.2-.2-.3-.6-.3-.9 0-.3.1-.7.3-.9.3-.3.6-.4 1-.4q.2 0 .4.1.3.1.5.3l.2.4q.1.2.1.5zM30.4 45.5c0 .4-.2.7-.4 1-.2.2-.6.3-.9.3-.4 0-.7-.1-.9-.3-.3-.3-.4-.6-.4-1 0-.7.6-1.3 1.3-1.3.7 0 1.3.6 1.3 1.3zM26.4 45.5q0 .3-.1.5-.1.3-.3.5l-.4.2q-.2.1-.5.1t-.5-.1l-.4-.2q-.2-.2-.3-.5-.1-.2-.1-.5c0-.7.6-1.3 1.3-1.3.7 0 1.3.6 1.3 1.3zM116.9 61.5h-2.6V44.2h2.6z"/><path fill-rule="evenodd" class="s0" d="M111.8 44.2v11.3q0 1.2-.4 2.3-.5 1.1-1.3 1.9-.9.9-2 1.3-1.1.5-2.3.5-.7 0-1.4-.2-.6-.1-1.2-.4-.7-.3-1.2-.7-.5-.5-.9-1l-1 1q-.5.4-1.1.7-.7.3-1.3.4-.7.2-1.4.2t-1.3-.2q-.7-.1-1.3-.4-.6-.3-1.2-.7-.5-.5-.9-1-.4.5-1 1-.5.4-1.1.7-.6.3-1.3.4-.7.2-1.4.2-.6 0-1.3-.2-.7-.1-1.3-.4-.6-.3-1.1-.7-.6-.5-1-1-.4.5-1 1-.5.4-1.1.7-.6.3-1.3.4-.7.2-1.3.2H60.3q-.7 0-1.4-.2-.7-.1-1.3-.4-.6-.3-1.1-.7l-1-1c-.5.7-1.3 1.3-2.1 1.7-.8.4-1.7.6-2.6.6-.9 0-1.8-.2-2.6-.6-.9-.4-1.6-1-2.1-1.7-.6.7-1.3 1.3-2.2 1.7-.8.4-1.7.6-2.6.6-.9 0-1.8-.2-2.6-.6-.8-.4-1.6-1-2.1-1.7l-1 1q-.5.4-1.1.7-.6.3-1.3.4-.7.2-1.4.2h-9.5q-1.2 0-2.3-.5-1.1-.4-1.9-1.3-.9-.8-1.3-1.9-.5-1.1-.5-2.3 0-1.2.5-2.3.4-1.2 1.3-2 .8-.8 1.9-1.3 1.1-.5 2.3-.5h13v-2.6h2.6v8.7c0 .9.4 1.7 1 2.4.6.6 1.5.9 2.4.9.9 0 1.8-.3 2.4-.9.7-.7 1-1.5 1.1-2.4v-6.1h2.5v6.1q.1.7.3 1.3.3.6.8 1.1.4.5 1.1.7.6.3 1.3.3.7 0 1.3-.3.6-.2 1.1-.7.5-.5.8-1.1.2-.6.2-1.3V44.2h2.6v11.3c0 1.9 1.6 3.4 3.5 3.4h17.1c.9 0 1.7-.4 2.3-1 .6-.7 1-1.5 1-2.4 0-.9-.4-1.8-1-2.4-.6-.7-1.4-1-2.3-1.1H62v-2.6h15.4q1.2 0 2.3.5 1.1.5 1.9 1.3.9.9 1.3 2 .5 1.1.5 2.3c0 .9.4 1.8 1 2.4.7.6 1.5 1 2.4 1 1 0 1.8-.4 2.5-1 .6-.6 1-1.5 1-2.4q0-1.2.4-2.3.5-1.1 1.4-2 .8-.8 1.9-1.3 1.1-.5 2.3-.5 1.2 0 2.3.5 1.1.5 2 1.3.8.9 1.3 2t.5 2.3c0 .9.4 1.7 1 2.3.6.7 1.5 1 2.4 1 .9 0 1.8-.3 2.4-1 .6-.6 1-1.4 1-2.3V44.2zM35.3 52H22.4q-.7 0-1.4.3-.6.2-1.1.7-.5.5-.7 1.2-.3.6-.3 1.3 0 .7.3 1.3.2.6.7 1.1.5.5 1.1.7.7.3 1.4.3h9.4q.7 0 1.4-.3.6-.2 1.1-.7.5-.5.7-1.1.3-.6.3-1.3zm64.5 3.4c0-.9-.4-1.8-1-2.4-.7-.7-1.6-1-2.5-1-.9 0-1.8.3-2.4 1-.7.6-1 1.5-1 2.4 0 .9.4 1.8 1 2.4.7.6 1.5 1 2.4 1 .9 0 1.8-.4 2.4-1 .7-.6 1.1-1.5 1.1-2.4zM16.3 71.7h3.6c1.6 0 3.5.4 3.5 2.5 0 1.1-.7 1.8-1.7 2.1v.1c1.3.1 2.1 1.1 2.1 2.3 0 2.1-1.9 2.8-3.6 2.8h-3.9zm2.1 3.9h1.5c.7 0 1.4-.3 1.4-1.1s-.8-1-1.5-1h-1.4zm0 4h1.9c.7 0 1.4-.3 1.4-1.1 0-1-1-1.1-1.7-1.1h-1.6zM27.8 71.7h1.8l4.1 9.8h-2.3l-.9-2.1h-3.7l-.8 2.1h-2.3zm.8 2.8-1.1 3h2.3z"/><path class="s0" d="M34.3 71.7h2.9l4.1 6.8v-6.8h2.1v9.8h-2.8l-4.1-7h-.1v7h-2.1z"/><path fill-rule="evenodd" class="s0" d="M55.4 81.5h-5.8c-2.9 0-5.1-1.9-5.1-5.1 0-2.9 2.2-5 5.1-5 2.8 0 5.1 2.1 5.1 5 0 1.4-.6 2.8-1.9 3.4h2.6zm-5.8-2c1.6 0 2.9-1.3 2.9-3s-1.3-3-2.9-3c-1.6 0-2.9 1.3-2.9 3s1.3 3 2.9 3z"/><path class="s0" d="M64.2 77.7c0 2.3-1.4 4-4 4-2.7 0-4.1-1.7-4.1-4v-6h2.1v5.9c0 1.2.8 2.1 2 2.1 1.1 0 1.9-.9 1.9-2.1v-5.9h2.1zM65.8 71.7h6.5v2h-4.4v1.8h4.2v2h-4.2v2h4.7v2h-6.8z"/><path fill-rule="evenodd" class="s0" d="M77.6 71.7h3.1c3.1 0 5.7 1.3 5.7 4.9 0 3.2-2.6 4.9-5.4 4.9h-3.4zm2.1 7.7h1.1c1.9 0 3.4-.7 3.4-2.9 0-2-1.5-2.9-3.3-2.9h-1.2z"/><path class="s0" d="M87.5 71.7H94v2h-4.4v1.8h4.2v2h-4.2v2h4.7v2h-6.8z"/><path fill-rule="evenodd" class="s0" d="M99.2 71.7h3.2c3.1 0 5.6 1.3 5.6 4.9 0 3.2-2.5 4.9-5.3 4.9h-3.5zm2.1 7.7h1.1c2 0 3.5-.7 3.5-2.9 0-2-1.5-2.9-3.3-2.9h-1.3z"/><path class="s0" d="M109.2 71.7h6.5v2h-4.4v1.8h4.1v2h-4.1v2h4.6v2h-6.7zM116.3 71.7h2.4l2.4 6.4 2.4-6.4h2.3l-4 9.8h-1.6zM126.5 71.7h6.5v2h-4.4v1.8h4.1v2h-4.1v2h4.6v2h-6.7zM134.7 71.7h2.1v7.8h3.8v2h-5.9z"/><path fill-rule="evenodd" class="s0" d="M146.1 71.4c3 0 5.1 2 5.1 5.2 0 3.1-2.1 5.1-5.1 5.1-3 0-5.1-2-5.1-5.1 0-3.2 2.1-5.2 5.1-5.2zm0 8.3c1.8 0 3-1.3 3-3.1s-1.2-3.2-3-3.2-3 1.4-3 3.2c0 1.8 1.2 3.1 3 3.1zM152.3 71.7h3.6c2 0 3.6.6 3.6 3 0 2.2-1.5 3-3.5 3h-1.6v3.8h-2.1zm2.1 4.1h1.4c.8 0 1.5-.3 1.5-1.2 0-1-1-1.1-1.8-1.1h-1.1zM160.5 71.7h3.5c2 0 3.7.6 3.7 3 0 2.2-1.6 3-3.6 3h-1.5v3.8h-2.1zm2.1 4.1h1.4c.7 0 1.5-.3 1.5-1.2 0-1-1-1.1-1.8-1.1h-1.1z"/><path class="s0" d="M168.7 71.7h6.5v2h-4.4v1.8h4.2v2h-4.2v2h4.6v2h-6.7zM176.8 71.7h3.2l2.2 6.4 2.2-6.4h3.2v9.8h-2.1V74h-.1l-2.5 7.5h-1.6l-2.4-7.5v7.5h-2.1zM189.2 71.7h6.5v2h-4.4v1.8h4.2v2h-4.2v2h4.7v2h-6.8zM197.3 71.7h2.9l4 6.8v-6.8h2.1v9.8h-2.7l-4.2-7v7h-2.1zM209.8 73.6h-2.7v-1.9h7.5v1.9h-2.7v7.9h-2.1zM219.1 71.7h2.1v7.8h3.9v2h-6z"/><path fill-rule="evenodd" class="s0" d="M230.5 71.4c3 0 5.2 2 5.2 5.2 0 3.1-2.2 5.1-5.2 5.1s-5.1-2-5.1-5.1c0-3.2 2.1-5.2 5.1-5.2zm0 8.3c1.8 0 3-1.3 3-3.1s-1.2-3.2-3-3.2-2.9 1.4-2.9 3.2c0 1.8 1.1 3.1 2.9 3.1z"/><path class="s0" d="M243 74.2c-.4-.5-1-.8-1.8-.8-1.6 0-2.8 1.4-2.8 3.2 0 1.8 1.2 3.1 2.7 3.1.9 0 1.6-.4 2-1l1.7 1.3c-.8 1.2-2.1 1.7-3.4 1.7-3 0-5.2-2-5.2-5.1 0-3.2 2.2-5.2 5.2-5.2 1.1 0 2.4.4 3.2 1.5z"/><path fill-rule="evenodd" class="s0" d="M248.8 71.7h1.7l4.2 9.8h-2.4l-.8-2.1h-3.7l-.8 2.1h-2.3zm.8 2.8-1.2 3h2.3z"/><path class="s0" d="M255.4 71.7h2.1v7.8h3.9v2h-6z"/></g></svg>