<?xml version="1.0" standalone="no"?>
<!DOCTYPE svg PUBLIC "-//W3C//DTD SVG 20010904//EN"
 "http://www.w3.org/TR/2001/REC-SVG-20010904/DTD/svg10.dtd">
<svg version="1.0" xmlns="http://www.w3.org/2000/svg"
 width="700.000000pt" height="700.000000pt" viewBox="0 0 700.000000 700.000000"
 preserveAspectRatio="xMidYMid meet">
<metadata>
Created by potrace 1.14, written by Peter Selinger 2001-2017
</metadata>
<g transform="translate(0.000000,700.000000) scale(0.100000,-0.100000)"
fill="#000000" stroke="none">
<path d="M3215 6739 c-38 -4 -98 -9 -133 -13 -526 -52 -1113 -266 -1570 -575
-84 -56 -260 -186 -272 -200 -3 -3 -34 -31 -70 -61 -245 -206 -519 -535 -701
-841 -141 -239 -293 -595 -348 -815 -35 -142 -50 -204 -56 -239 -5 -22 -10
-47 -11 -55 -8 -38 -36 -243 -42 -310 -9 -101 -9 -486 1 -585 9 -97 12 -119
33 -245 33 -192 121 -507 178 -635 8 -16 24 -55 37 -85 83 -198 210 -422 353
-625 200 -283 508 -587 814 -804 207 -146 499 -305 707 -385 55 -21 114 -44
130 -51 139 -60 453 -137 730 -181 220 -35 724 -39 946 -9 50 7 208 32 254 41
825 150 1620 639 2130 1309 77 101 215 309 265 400 34 62 120 233 120 239 0 2
12 30 27 62 15 33 28 61 29 64 0 3 6 19 13 35 46 116 90 254 126 395 19 74 20
77 40 185 25 139 28 155 44 320 19 183 2 595 -34 810 -28 173 -91 414 -150
580 -172 479 -450 915 -810 1270 -67 66 -133 129 -146 140 -223 188 -379 298
-579 412 -96 54 -312 163 -324 163 -3 0 -29 11 -58 24 -184 84 -534 186 -758
221 -19 3 -60 10 -90 15 -59 10 -113 16 -255 29 -106 10 -470 10 -570 0z m495
-163 c115 -7 156 -10 240 -22 25 -3 56 -8 70 -9 14 -2 41 -6 60 -10 19 -3 49
-8 65 -11 197 -33 498 -125 716 -220 866 -376 1531 -1101 1814 -1976 67 -208
121 -459 139 -648 3 -30 8 -82 11 -115 7 -67 7 -389 0 -450 -2 -22 -7 -69 -10
-105 -4 -36 -8 -72 -10 -80 -2 -8 -6 -35 -9 -60 -3 -25 -8 -56 -11 -70 -21
-107 -28 -139 -36 -166 -5 -17 -12 -41 -14 -54 -17 -87 -101 -328 -162 -465
-111 -248 -252 -479 -424 -695 -116 -145 -362 -392 -504 -505 -27 -22 -52 -43
-55 -46 -10 -10 -176 -125 -255 -176 -161 -102 -303 -175 -540 -278 -114 -49
-410 -139 -565 -171 -41 -9 -84 -18 -95 -20 -11 -2 -33 -6 -50 -9 -137 -20
-178 -25 -235 -30 -36 -3 -87 -8 -115 -11 -59 -6 -424 -6 -475 0 -19 3 -71 7
-115 11 -44 3 -89 8 -100 10 -11 3 -38 7 -60 10 -22 3 -62 10 -90 15 -27 5
-61 12 -75 14 -404 74 -859 261 -1215 499 -90 60 -252 180 -290 214 -11 10
-41 36 -65 57 -378 329 -704 788 -870 1226 -18 47 -36 94 -40 105 -14 35 -38
108 -50 150 -26 92 -40 145 -44 167 -2 12 -11 55 -19 93 -9 39 -18 90 -22 115
-3 25 -8 56 -10 70 -5 31 -14 110 -20 175 -7 65 -7 409 -1 460 3 22 8 70 11
107 3 37 7 75 9 85 2 10 7 41 10 68 35 263 142 609 273 885 92 192 256 461
352 576 14 18 33 41 41 51 115 149 339 374 505 507 92 74 305 220 420 289 39
24 329 167 380 189 194 81 507 173 680 201 17 3 59 10 95 16 36 5 85 13 110
16 25 3 61 8 80 10 19 3 91 8 160 11 69 4 126 7 127 8 3 2 172 -3 283 -8z"/>
<path d="M4418 5406 c-3 -9 -2 -3608 1 -3643 1 -19 661 -19 662 0 3 34 4 3624
1 3638 -3 13 -43 15 -332 16 -232 0 -330 -3 -332 -11z"/>
<path d="M2528 4515 c-2 -2 -28 -5 -58 -8 -270 -27 -544 -160 -746 -363 -165
-166 -283 -378 -345 -619 -26 -99 -25 -93 -44 -230 -10 -72 -7 -318 5 -410 32
-241 115 -466 242 -657 57 -85 211 -252 268 -291 223 -154 325 -201 530 -243
90 -19 317 -25 420 -12 284 38 554 181 736 389 17 20 35 38 40 41 5 4 9 -72 8
-190 0 -109 3 -199 7 -202 6 -4 509 -5 555 -1 9 1 12 352 12 1376 l0 1375
-288 0 -287 0 1 -191 c0 -105 0 -192 -2 -194 -2 -1 -38 33 -80 76 -173 175
-391 292 -622 333 -19 3 -46 9 -60 12 -25 5 -287 13 -292 9z m325 -500 c31 -3
67 -9 80 -14 12 -5 24 -8 27 -8 16 1 95 -31 160 -64 193 -99 335 -271 409
-495 37 -112 46 -175 46 -334 0 -165 -9 -234 -46 -342 -97 -288 -301 -489
-569 -561 -312 -84 -637 23 -846 279 -82 99 -156 264 -189 419 -4 17 -9 98
-12 181 -5 131 -2 166 16 252 84 393 359 653 730 691 68 7 96 6 194 -4z"/>
</g>
</svg>
