<svg xmlns="http://www.w3.org/2000/svg" width="258.809" height="87" id="svg2" version="1.1"><g id="g6756"><path style="fill:#e20c1a" d="M228.357 19.658c-16.79 0-30.451 10.245-30.451 22.881 0 12.636 13.66 22.881 30.451 22.881s30.452-10.245 30.452-22.88c-.057-12.637-13.66-22.882-30.452-22.882m28.744 20.718v.171h-.057c-.17 0-1.195.057-2.106.057h-.227c-.342 0-.911 0-1.196-.057h-.455c-.114 0-.228 0-.342-.057-.113 0-.17 0-.227-.057-11.612-1.764-17.645-18.1-29.996-18.612.113 0 7-1.822 15.937.683.341.114.683.17.967.284 8.14 2.505 16.45 9.05 17.702 17.588m-.341 5.749c-2.277 9.164-12.807 15.254-21.402 17.132-3.87.968-8.993.968-12.863 0 12.522-.512 18.555-17.246 30.394-18.669v-.057.057s1.594-.284 3.814-.114h.341c.057 0 0 .513-.284 1.651m.341-2.732H207.81c0 .284 0 .626.057.91.056.74.284 1.537.626 2.277.341.74.683 1.366 1.024 1.879 1.537 2.504 3.984 4.553 5.863 6.944 5.464-4.27 10.644-9.221 17.303-10.587-5.92 4.781-11.782 12.522-19.01 15.539-7.116-1.765-13.149-9.278-13.889-16.222-.057-.512-.057-.968-.057-1.48s.057-1.025.057-1.537c.797-6.944 6.773-14.457 13.888-16.222 7.229 3.074 13.091 10.815 19.011 15.596-6.66-1.423-11.839-6.375-17.303-10.587-1.594 1.992-3.643 3.814-5.18 5.863-.398.455-1.594 2.106-2.163 4.041v.057c-.17.626-.284 1.309-.227 1.935H257.1v1.594z" class="st5" id="XMLID_10_"/><path transform="matrix(.56919 0 0 .56919 -13.262 -100.156)" style="fill:#e20c1a" class="st5" id="XMLID_41_" d="m216.9 214.6-5.1 24.6h6.9l4.7-24.6z"/><path transform="matrix(.56919 0 0 .56919 -13.262 -100.156)" style="fill:#e20c1a" class="st5" id="XMLID_40_" d="m337.6 214.6-5 24.7h6.9l4.7-24.7z"/><path transform="matrix(.56919 0 0 .56919 -13.262 -100.156)" style="fill:#e20c1a" class="st5" id="XMLID_39_" d="m124.9 214.6-5.1 24.6h6.9l4.7-24.6z"/><path transform="matrix(.56919 0 0 .56919 -13.262 -100.156)" style="fill:#e20c1a" class="st5" id="XMLID_38_" d="m81.9 214.6-5.1 24.6h7l4.6-24.6z"/><path transform="matrix(.56919 0 0 .56919 -13.262 -100.156)" style="fill:#e20c1a" class="st5" id="XMLID_37_" d="m320 217.4-1.2 5.8h6.7l1-5.8H320z"/><path transform="matrix(.56919 0 0 .56919 -13.262 -100.156)" style="fill:#e20c1a" class="st5" id="XMLID_36_" d="m196 241-1.1 5.6h6.7l1-5.6H196z"/><path transform="matrix(.56919 0 0 .56919 -13.262 -100.156)" style="fill:#e20c1a" class="st5" id="XMLID_35_" d="m103.8 241-1.1 5.7h6.7l1-5.7h-6.6z"/><path transform="matrix(.56919 0 0 .56919 -13.262 -100.156)" style="fill:#e20c1a" class="st5" id="XMLID_34_" d="m94.2 224.4-1.1 6h6.7l1-6.1h-6.6z"/><path style="fill:#e20c1a" d="M135.808 27.626h-4.042l1.025-5.578h-3.984l-1.196 5.578h-4.155l-1.138 5.01h-4.098l-.683 3.414H134.1l1.708-8.424zm-5.237 5.18h-3.813l.341-1.594h3.757l-.285 1.594z" class="st5" id="XMLID_11_"/><path transform="matrix(.56919 0 0 .56919 -13.262 -100.156)" style="fill:#e20c1a" class="st5" id="XMLID_31_" d="M51.3 241H38l-1.1 5.6h13.3z"/><path transform="matrix(.56919 0 0 .56919 -13.262 -100.156)" style="fill:#e20c1a" class="st5" id="XMLID_30_" d="m27.8 215.1-1.3 5.9h15l1.3-5.9z"/><path transform="matrix(.56919 0 0 .56919 -13.262 -100.156)" style="fill:#e20c1a" class="st5" id="XMLID_29_" d="m67.4 221.1-.5 2.8h7.9l1.1-5.9h3.4v-3.3h-8.7l-1.3 6.4z"/><path style="fill:#e20c1a" d="m104.56 22.048-1.025 5.522h-3.472l-.683 3.585h3.415l-.285 1.366h-7.115l.911-4.951H87.37l-1.594 8.367h5.18l-.285 1.081h-8.31l-.626 3.187h12.01l.797-4.268h11.383l2.846-13.889h-4.212zM91.467 32.692H89.42l.285-1.594h2.106l-.342 1.594z" class="st5" id="XMLID_12_"/><path transform="matrix(.56919 0 0 .56919 -13.262 -100.156)" style="fill:#e20c1a" class="st5" id="XMLID_26_" d="M81.9 246.6h14.2l1.5-7.5h19.7l5-24.5h-6.7l-1.9 9.8H107l-1.2 6.1h6.3v-.1h.5l-.6 2.7h-.1v.1H92.7l-1.5 7.8H83z"/><path style="fill:#e20c1a" d="M13.888 28.48h-.284l-.854 4.098h.17-3.927l1.252-5.862H1.651L0 34.57h4.497l-.228 1.423H16.05l1.48-7.513h-3.643zm-9.391.683h2.276l-.398 1.879H4.098l.399-1.879z" class="st5" id="XMLID_13_"/><path transform="matrix(.56919 0 0 .56919 -13.262 -100.156)" style="fill:#e20c1a" class="st5" id="XMLID_23_" d="M166.1 241h-13.3l-1.1 5.6H165z"/><path transform="matrix(.56919 0 0 .56919 -13.262 -100.156)" style="fill:#e20c1a" class="st5" id="XMLID_22_" d="m142.7 215-1.3 5.8h15l1.3-5.8z"/><path style="fill:#e20c1a" d="M79.344 28.423h-.284l-.854 4.098h.114-3.927l1.252-5.862H67.05l-1.65 7.855h4.496l-.228 1.423H81.45l1.48-7.514h-3.586zm-7.57 2.562h-2.276l.341-1.879h2.277l-.342 1.879z" class="st5" id="XMLID_14_"/><path style="fill:#e20c1a" d="m173.715 21.991-1.081 5.579h-4.554l-.683 3.472h4.44l-.285 1.536H163.3l.911-5.008h-3.7l1.025-5.579h-3.984l-1.025 5.579h-4.497l-.796 5.008h-3.131l.797-5.008h-8.993l-1.65 8.423h5.35l-.171.968h-8.766l-.057.285-.569 2.96h12.522l.057.056.797-4.269h27.435l2.732-14.002h-3.87zM144.46 32.806h-1.878l.285-1.65h1.935l-.342 1.65zm14.97 0h-3.7l.285-1.65h3.7l-.285 1.65z" class="st5" id="XMLID_15_"/><path transform="matrix(.56919 0 0 .56919 -13.262 -100.156)" style="fill:#e20c1a" class="st5" id="XMLID_16_" d="m74.2 239.1 2.5-13.1h-7l-1.4 7.1h-5.9l-1.5 7.9h-7.6v.1l-1.1 5.5h14.3l1.3-7.5z"/><path style="fill:#e20c1a" d="M102.51 63.144s.057 0 0 0z" class="st5" id="XMLID_53_"/><path transform="matrix(.56919 0 0 .56919 -13.262 -100.156)" style="fill:#e20c1a" class="st5" id="XMLID_54_" d="m336.7 285.8 1.8-7.1H320l.7-3.5h16.7l1.6-6.5h-16.5l1-3.8h18.8l1.9-7.7h-28l-7.8 28.6z"/><path transform="matrix(.56919 0 0 .56919 -13.262 -100.156)" style="fill:#e20c1a" class="st5" id="XMLID_55_" d="M293 285.8h9.5l7.5-28.6h-9.7z"/><path transform="matrix(.56919 0 0 .56919 -13.262 -100.156)" style="fill:#e20c1a" class="st5" id="XMLID_56_" d="M60.6 285.8h9.5l7.5-28.6H68z"/><path style="fill:#e20c1a" d="M58.455 62.517h5.635l2.448-3.244h5.52v3.244h5.465l.398-16.221h-8.253L58.455 62.517zM72.4 55.346h-3.244l3.244-4.724v4.724z" class="st5" id="XMLID_57_"/><path style="fill:#e20c1a" d="M0 62.517h5.635l2.447-3.244h5.522v3.244h5.464l.398-16.221h-8.31L0 62.517Zm13.945-7.171h-3.244l3.244-4.724v4.724z" class="st5" id="XMLID_60_"/><path transform="matrix(.56919 0 0 .56919 -13.262 -100.156)" style="fill:#e20c1a" class="st5" id="XMLID_63_" d="m171.2 257.2-7.3 28.6h23.2l2-7.2h-13.7l5.4-21.4z"/><path style="fill:#e20c1a" d="M43.543 46.239H34.15L29.882 62.46h5.35l1.651-5.692 4.952 5.692h6.432l-5.123-5.75s6.375.228 6.66-4.951c0 0 .854-5.521-6.261-5.521m.74 5.692s.057 1.65-2.79 1.764h-3.756l.74-3.187h4.497c-.057 0 1.48 0 1.309 1.423" class="st5" id="XMLID_64_"/><path style="fill:#e20c1a" d="M146.394 46.239h-9.391l-4.326 16.222h5.35l1.651-5.692 4.952 5.692h6.432l-5.123-5.75s6.375.228 6.66-4.951c.057 0 .91-5.521-6.204-5.521m.683 5.692s.056 1.65-2.79 1.764h-3.756l.74-3.187h4.496s1.537 0 1.31 1.423" class="st5" id="XMLID_67_"/><path transform="matrix(.56919 0 0 .56919 -13.262 -100.156)" style="fill:#e20c1a" class="st5" id="XMLID_70_" d="M258.2 257.3h-7.6l1.8-2.6h-10.8l-2.4 2.6H231l-7.5 28.5H251l1.8-7.1h-18.3l.9-3.7h17l1.7-6.6H237l.9-3.7h18.7z"/><path style="fill:#e20c1a" d="M103.933 51.248c3.472-1.594 9.79.057 9.79.057l1.139-4.156s-4.952-1.024-9.961-.512c-1.765.228-3.188.74-3.53.91-1.422.627-3.073 1.765-4.097 3.587-.456.91-.91 1.992-1.252 3.358 0 0-2.106 7.798 4.895 8.538 0 0 4.951.74 10.188-1.139l1.935-7.684h-5.92l-1.138 4.44s-3.073 1.537-4.61-.114l-.057-.057a.122.122 0 0 0-.114-.114c-.227-.284-.284-.683-.341-.967v-.399s-.057-1.821 1.138-3.813c.285-.512.968-1.423 1.935-1.935" class="st5" id="XMLID_71_"/></g><style type="text/css" id="style3">.st5{fill:#e20c1a}</style></svg>