<svg xmlns="http://www.w3.org/2000/svg" width="676" height="798.857" xml:space="preserve"><path fill="#F8F7F7" d="m438.079 102.12 88.084 207.2h58.681C575 215.76 517.32 137.4 438.079 102.12z"/><path fill="#00A1E6" d="M343.48 16C175.32 16 39 160.16 39 338s136.32 322 304.48 322S648 515.84 648 338 511.64 16 343.48 16zm241.36 293.32h-58.681l-88.084-207.2C517.32 137.4 575 215.76 584.84 309.32zM343.64 82c4.96 0 9.84.16 14.72.48l-88.52 293.04L248.32 318h-146.6c9.56-132 114.24-236 241.92-236zm-241.6 279.64 64.76-.12 91.24 215.6c-85.04-33.8-147.28-116.44-156-215.48zm241.6 231.881c-9.08 0-18.04-.521-26.84-1.561l77.2-337.8 44.199 99.72 147.601.56c-8.16 133.48-113.44 239.081-242.16 239.081z"/><path fill="#F5F5F7" d="M258.04 577.12c-85.04-33.8-147.28-116.44-156-215.48l64.76-.12 91.24 215.6z"/><path fill="#F2F3F7" d="m358.36 82.48-88.52 293.04L248.32 318h-146.6c9.56-132 114.24-236 241.92-236 4.96 0 9.84.16 14.72.48z"/><path fill="#F7F7F9" d="M584.84 309.32h-58.681l-88.084-207.2C517.32 137.4 575 215.76 584.84 309.32z"/><path fill="#F5F5F7" d="M585.8 354.44c-8.16 133.484-113.44 239.081-242.16 239.081-9.08 0-18.04-.521-26.84-1.561l77.2-337.8 44.199 99.72 147.601.56z"/><g fill="#00A1E6"><path d="M110.608 775.28H79.56v-27.876h31.048c3.704 7.584 10.681 11.376 20.933 11.376 7.407 0 11.111-1.876 11.111-5.624 0-1.96-1.292-3.584-3.867-4.876-2.776-1.416-8.633-3.376-17.561-5.88-11.244-3.208-19.508-5.977-24.8-8.313-4.96-2.124-9.192-5.063-12.696-8.812-3.504-3.708-5.256-7.813-5.256-12.313 0-8.084 4.168-14.4 12.5-18.936 8.264-4.544 18.452-6.813 30.552-6.813 12.104 0 22.353 2.164 30.752 6.5v-5.376h31.248v24.752h-30.852c-3.769-6.832-10.452-10.252-20.04-10.252-6.748 0-10.12 1.813-10.12 5.437 0 1.752.96 3.063 2.876 3.936 1.853.916 7.836 2.936 17.956 6.064 13.556 4.252 22.62 7.355 27.18 9.312 2.316.96 4.677 2.304 7.093 4.032 2.411 1.731 4.416 3.512 6 5.344 3.636 4.084 5.455 8.504 5.455 13.252 0 7.288-4.3 13.456-12.896 18.5-8.596 5.124-19.444 7.688-32.536 7.688-12.168 0-23.18-2.269-33.036-6.813v5.688h.004zM260.604 775.28H203.96v-20.813h12.104v-45.315H203.96V688.34h65.372l50.195 45.437v-24.624H308.32V688.34h55.652v20.813h-12v67.252h-45.439L248.4 723.84v30.628h12.204v20.812z"/><path d="M469.82 776.032h-52.956l-44.044-66.88H362.6V688.34h74.204v20.813h-11.708l20.536 37.067 21.523-37.067h-11.304V688.34H511.5v20.813h-.221l-41.459 66.879zM609 775.28h-78.668v-20.813h12.699v-45.315h-12.699V688.34H609v20.813h-12.6v45.315H609v20.812z"/></g></svg>