<svg xmlns="http://www.w3.org/2000/svg" viewBox="0 0 1012.7 411.6"><path d="M31.4.9C18.1 3.7 7.2 12.1 2.8 23.1l-2.4 6-.3 142 .8 148c2.3 11.8 10.3 22.8 20 27.3 6.1 2.8 27 2.1 60.5-2.2l52-6.1 31.5-3.5c82.3-9.9 79.1-9.3 89.5-15.4 6.3-3.7 14.1-11.8 17.1-17.8 5.4-10.7 5.4-8.8 5.4-134.3 0-127 .1-123.2-5.9-136.2-3.5-7.4-10.8-15-17.6-18.2-7.7-3.6-15.2-4.9-32-5.5l-49-2.1-72.5-3-51-2c-7.1-.2-13.8.1-17.5.8zM141.8 81c11.5 4.3 17.7 13.8 23.6 36.1l14.4 54.5 5.3 20.2c.6 2.7 1.5 4.8 2 4.8.4 0 .8-.3.8-.7 0-.3 2.3-9.4 5.1-20.2l18-69.6 6-23.3 1.1-3.2H235c14.5 0 16.9.2 16.9 1.5 0 .9-4.7 19-10.5 40.3l-32.5 119.7-8.9 32.1c-.9 2-2 2.3-12.8 3l-12.8.9c-.5 0-1.3-1.4-1.7-3l-17.8-66.5-21.6-78.1c-2-3.9-7.1-5.9-15.3-5.9h-7.1v79.5c0 62.9-.3 79.5-1.2 79.5-.7 0-8.5.7-17.3 1.5l-16.7 1.5c-.5 0-.9-36.3-1-80.8l-.3-80.7-24 .4-24 .3.3-23.2.3-23.2 55.2.4c48 .5 55.8.7 59.6 2.2z" fill="#fb7f1e"/><path d="M322.2 17c-11.8 4.4-19.9 12.1-24.5 23.3l-2.3 5.8v237l2.3 6.6c4.4 12.7 12.4 21.4 23.9 26.1l5.8 2.3 320 .3 326.8-.8c8.2-1.2 19.1-6.5 25.1-12.1 5.4-4.9 10.1-13.6 11.6-21.4 1.6-8.4 2.8-225 1.2-230.3L1009 43c-3.7-12.9-12.5-22.3-24.5-26.4-6-2-8-2-331-1.9H328.4l-6.2 2.3zm608.2 28.7c1 2.9-1.3 78.1-2.6 88.7-2.8 23.5-22.3 55-37.5 60.8-3.7 1.4-5.1 1.5-8.2.5-7.5-2.3-10.7-6.8-12.7-17.9-1.5-8.8-3.5-13.6-6-14.6-4.4-1.7-11.5-.5-18 2.8-7.1 3.8-19.5 12.5-19.5 13.8 0 .4 2.2.8 4.9.8 7.5 0 17.6 3.5 22.3 7.8 5.1 4.6 6.8 8.5 6.8 16 0 15.6-8.3 24.6-29 31.6-19.1 6.4-42.7 7.2-62.5 2.2-11.9-3-24.6-7.1-29.8-9.8l-3.7-1.9-10.3 3c-21.9 6.4-39.1 10.1-59.7 13-40.5 5.7-71.5 6-110.9 1-41.5-5.2-58.4-11.2-73.7-26.1-8.1-8-10.8-12.1-13.8-20.9-2.5-7.8-3.8-21-3.2-33.6.3-6.5.9-33.2 1.2-59.5.7-54.3-.5-47.9 10.3-55.2 3.9-2.6 5.7-3.4 6.5-2.6s1.2 15.9 1.3 48.3c.1 51 1 63.8 4.9 75.6 4.4 13.1 10.7 19.9 26.2 27.9 22.5 11.7 45.1 15.8 101.8 18.2 48.1 2.1 84.2-2.8 100.8-13.7 5.9-3.9 5.5-3.4 14.9-20.3 13.1-23.7 19.2-31.1 29.1-35.5 21.7-9.9 36.4 4.7 27.1 26.9-3.1 7.3-2.5 7.1 26.5-12.2 11.8-7.8 27.1-17.1 34-20.5 11.8-5.8 12.9-6.1 19.6-6.1 11.5 0 14.8 3.2 16.5 16.5 1.6 12.9 2.6 15.8 5.4 16.5 5.4 1.3 12.4-2.7 16.7-9.6 5.2-8.4 6-14.8 6.7-57 .5-33.8.8-38.9 2.4-41.7 1.9-3.6 12.5-15.3 13.7-15.3.5 0 1.2 1 1.5 2.1zm-45.7 30.8c15.7 8 11.8 28.3-6.1 31.6-15.6 2.9-27.1-14.8-17.5-27 4.8-6.1 16.3-8.3 23.6-4.6zm89.6 82.3c1.4 14.3 1.8 22 1.7 43.8 0 37.8-2.2 56.3-8 67.9-3 5.8-11.9 16.1-14 16.1-1 0-1.5-1.6-1.4-4.7 0-.7.6-20.7 1.2-44.5 1.4-51.9 1.9-56.5 7.1-67.3 3.6-7.6 10.1-16.5 12-16.5.5 0 1.1 2.4 1.4 5.2zm-520.4 21.1c0 19.6-5.1 54.1-10.2 69.2-7.6 22.4-21.7 32.6-51.1 37.1-18.4 2.8-53.7.5-53.7-3.5 0-1.1 0-1.1 21-8.3 18.8-6.4 48.1-20.5 64.2-31 7.6-5 8.6-6 11.8-12.2l3.4-6.9.7-18.1c.8-22.4 2.2-28.4 8.3-34.9 4.8-5.2 5.6-4 5.6 8.6zm302-10.9c-5.9 1.5-13.5 6.8-16.5 11.4-1.3 2-3.3 6.1-4.4 9-1.8 4.5-1.9 5.3-.6 5.8 2.3.9 14.8-2.2 20.3-5 8.7-4.4 20.2-16.4 18.4-19.2-2.2-3.4-9.1-4.2-17.2-2zm50.5 33.3-10 1.9c-8.7 1.6-24.7 8.7-28 12.4-1.9 2.1-1.9 2.2-.2 3.5 7.7 5.6 46.7 7.8 62.4 3.6 7.2-2 13.1-8.8 11.9-13.7-1.3-5.1-11.3-8.4-25.1-8.3-4.9.1-9.9.3-11 .6zm67.5 173.4-19.8 35c-.2.5 2 .9 5 .9h5.3l4.6-8.3 19.7-34.7 15.2-26.7c0-.2-2.4-.3-5.3-.3h-5.2l-19.5 34.1zm50.8-29.8c-8.1 2.3-15.5 9.6-17.8 17.6l-.9 3.2 8.2-.3c7.6-.3 8.1-.4 8.7-2.7.8-3.5 5.2-6.5 8.4-5.7 4.2 1 5.2 4.6 3.1 10.3-1.9 5-8.1 11.8-26 28.1l-8.9 8.2h46l1-6 1-6h-8.8c-4.8 0-8.8-.4-8.8-.9s2.2-2.5 4.8-4.5c7-5.1 13.7-12.7 15.2-17 .7-2.1 1-6.4.8-9.7-.4-4.8-1-6.5-3.4-9-1.6-1.7-4.1-3.7-5.5-4.4-3.9-2.1-11.8-2.6-17.1-1.2zm-170.8.6c-7.2 2.2-12.8 7.1-15.4 13.3-1.8 4.3-2.1 12-.6 14.9 1.2 2.1 6.3 4.9 12.5 6.9 7.4 2.3 9.4 6.1 5.5 10-2.9 2.9-9.7 2.7-14.4-.5-2-1.4-4-2.5-4.4-2.5-1.4.1-7.3 10.2-6.8 11.6 1.2 3.1 9.7 5.9 18.1 5.9 8.1 0 13.8-1.9 18.9-6.4 4.9-4.3 8-16.3 5.6-22-1.4-3.6-3.6-5.1-11.5-8-7-2.6-8.5-3.7-8.5-6.1 0-4.5 9-6.8 13.8-3.4 1.3.9 2.5 1.4 2.8 1.1.2-.2 2-2.6 3.9-5.3 3.3-4.5 3.4-5 1.8-6.2-4.5-3.3-15.6-5-21.3-3.3zm-229.5 4.3-8.5 53.3c0 .3 3.4.5 7.5.5s7.5-.2 7.5-.3c0-2.2 5-33 5.4-33.5.8-.7-.4-2.4 11.5 17.1l10.3 16.8 7.6-.3 7.6-.3 3.7-22.5 4.3-28.3.7-5.7h-7c-8.2 0-7.1-1.7-10.1 17-1.2 7.4-2.5 14.4-2.9 15.4-.6 1.6-1.8.3-6.5-7.5l-8-12.9c-1.3-1.9-3.5-5.4-4.9-7.8l-2.7-4.2H525l-.6 3.2zm74.1-.5c-.7 3.7-3 18.5-5.6 36.3l-2.6 16.2c-.5 1.7.7 1.8 15.9 1.8h16.4l1-6 1-6h-8.9c-9.7 0-9.6.1-8.2-6.9l.7-3.1h8.3c4.5 0 8.5-.3 8.7-.8.3-.4.8-3.3 1.1-6.5l.7-5.7h-16.1v-2.8c0-6.9.4-7.2 10-7.2h8.7l1-6 1-6h-32.5l-.6 2.7zm43.7 1.5c.4 2.4 2.2 15 4.2 28.2l3.5 24.2c0 .2 3.5.4 7.8.4l7.7-.1 7.8-16.2c5.5-11.3 8.1-15.7 8.7-14.7.4.8 1.5 7.1 2.4 14 2.5 18.9 1.4 17.1 10.3 16.8l7.6-.3 13.4-27.9 13.3-28.3c0-.2-3.4-.3-7.6-.1l-7.6.3-8.1 17.8c-4.4 9.7-8.4 17.4-8.7 17-.4-.5-1.2-5.1-1.9-10.3-.6-5.2-1.7-13-2.3-17.3l-1.1-7.7h-12.2l-8.9 18.3-8.9 18.2-.7-4.5c-.4-2.5-1.3-10.1-2-17s-1.5-13.1-1.7-13.8c-.4-.8-2.9-1.2-8-1.2h-7.6l.6 4.2zm171.6-3c0 .7-.4 3.4-.8 6l-.8 4.8h11.2c6.1 0 11.4.2 11.7.5s-6.6 10.1-15.3 21.8l-15.9 21.9c0 .5 3.5.8 7.8.8h7.8l16.4-22.6 20.8-28.5 4.4-5.9h-23.6c-18.2 0-23.6.3-23.7 1.2zm161.6 6.5c-21.2 27.4-21.8 28.2-22.3 33.4l-.5 4.9h13.7c15.1 0 14.5-.4 12.7 7.1l-.8 3.7 4.5.6c8.7 1.2 8.9 1.1 9.6-4.2 1.1-7.8 1.4-8.2 5-8.2 2.9 0 3.4-.4 4-3.1 1.2-6 .8-6.9-2.4-6.9-2.3 0-3-.4-3-2s2.8-20.3 4.5-30.3l.5-2.7h-19.5l-6 7.7z" fill="#12459a"/></svg>