<svg version="1.2" xmlns="http://www.w3.org/2000/svg" width="476" height="202"><defs><clipPath clipPathUnits="userSpaceOnUse" id="cp1"><path d="M-48-38h595.28v265.49H-48z"/></clipPath></defs><style>.s0{fill:#ec2b2d}.s1{fill:#2db55f}.s2{fill:#a1ce51}</style><g clip-path="url(#cp1)"><path fill-rule="evenodd" class="s0" d="M202.3 85.9c-14.2.3-29.3 1.3-44.7 2.1-15 .8-31.3 5-44.1 2.9-5.3-.9-9.6-4.8-14.4-5-11.8-.7-19.2 6.5-25.3 12.2-8.8 3.7-34.8 2.3-39 11.6-3.6 8.1 4.3 29.1 6.5 37.5 2.3 8.7 5.6 29.9 13 31.8 3.8 1 13.5-2.8 21-4.3 94.3-19.3 225.2-17.1 319.1 2.1 7.5 1.6 16 4.9 21 3.7 8.5-2.3 11.2-21.9 13.7-31.8 3.1-12.6 9.9-28.5 7.2-36.1-3.1-8.8-23.2-10-35.4-12.3-39.7-7.4-87.2-9.6-128.5-14.4 4.6-4 8-9.2 8.8-12.2.5-1.8 15 1.4 22.2 2 35.3 3.4 64.7 7.3 97.5 14.5 16.3 3.6 40.7 4.8 41.9 20.9.9 12.8-6.6 29.7-10.1 41.9-2.9 10.2-6.7 32-17.3 33.9-4.2.8-13.8-2.3-21-3.6-20.9-3.5-45.4-4.9-67.1-6.5-60.7-4.2-127-5.6-188.5-1.4-30.3 2.1-59.5 6.1-88.1 7.9-7.7-8.7-9.2-21.9-13-35.3-4.5-16.1-14.6-38.4-3.6-49.1 6.6-6.5 22.5-7.6 33.2-10.2 34-8.2 75.8-12.3 114.1-15.1 1.3-.1 7.5-.3 8.9-.4 5.5-.8 6.1 1.6 7.7 6 1.3 3.5 2.5 3.6 4.3 6.7z"/><path fill-rule="evenodd" class="s0" d="M106.3 90.2c-.2 2.2-2.8 2-2.9 4.3 5.9 18.7 17.3 47 5.8 67.9-25.8 6.4-31.5-19.4-44.8-30.3-.2 12.1 14.8 36.3-4.3 35.4-7.3-16.3-8.5-38.7-14.5-56.4 16.4-8.5 25.7 7.5 34.7 18.1 7.6 8.9 13.4 17.6 20.2 22.4.6-9.3-2.5-18-6.5-28.2-3.5-9.1-12.1-16-11.5-24.5.5-8.5 11.4-11.4 23.8-8.7zm8.7 24.5c-1.7-3.3 2-6.9 2.1-10.8.6-4.2-3.6-3.6-2.9-7.9 15.7-2.6 17.9 17.4.8 18.7zm64.2-9.3c-1.3 4.1-6.4 7.2-10.1 7.2-4.6 0-8.6-5.1-13.7-5.1-24-.1-13.9 54.4 13 41.2v-14.5c3.6-2.6 8.7-3.8 14.4-4.3 1.9 6.4 2.9 16.5 1.5 23.8-26.5 17.1-68.5-4.7-59.2-36.1 5.4-18.3 39.1-27 54.1-12.2zm73 51.2c-18.3 6.2-17.9-3.9-25.3-14.4h-16.6c-6.1 11.7-8.4 19.1-23.1 14.4 8.3-19.9 17.8-39.2 26-58.5 2.9.5 7.6-.9 9.4.8 10.9 16.5 17.9 36.5 29.6 57.7zm-39-21.6c4.2-.1 7.5-.5 10.8 0-1.2-5.3-2.8-11.7-6-15-1.9 4.8-4.2 9.4-4.8 15zM276 98.9c16.5-2.5 30.3 4.7 35.4 11.5 6.4 8.6 5.8 24.2 1.4 32.5-13.8 26.5-55.4 18.6-65-3.6-8.8-20.6 8.4-37.6 28.2-40.4zm-6.5 46.9c9.2 8 23.5 5.1 28.2-4.3 7.2-14.8-3.1-36.5-20.3-32.5-12 2.7-18.7 27.3-7.9 36.8zm69.5-38.4c0 13.7-12.1 39.6 1.3 45.6 4.6 2.1 11.5 1.1 14.4-.7 10.6-6.5 3.7-36.8 12.3-45.5 3.7-1.8 10.6-1.9 15.1-.7-2.7 18.9-2.4 41.5-14.4 52.7-12.1 11.3-39.7 5.7-46.2-7.2-6.6-13.1-1.3-36.1 2.1-49.1 5.9-2.2 13.6.6 15.4 4.9zm39.5 53.6v-10.9c7.5 3.2 23.2 15.9 28.2 2.2-4.2-12.7-19.3-12.8-21-25.3-.9-7.2 3.8-14.2 7.3-16.6 6.3-4.4 33.6-3.5 33.9 5.1.4 13.1-26.1-6.8-26.7 7.2-.4 7.6 14.8 10 18.8 18 11.7 23.5-25.2 37.1-40.5 20.3zm75.1-69.4c10.7 9.5-9.3 19.4-11.5 8-1.2-6 3.9-10.8 11.5-8zm-10.8 5.1c-1.2 9.5 14.4 10.1 13 0-.5-3.3-4-6.9-9.4-5.1-3.2 1.1-3.5 4.3-3.6 5.1z"/><path fill-rule="evenodd" class="s0" d="M452.2 101c-1.8 2.4-1.4-3.3-3.6-2.9-2.1-.1.8 4.8-2.2 3.6v-7.9h5.1c-.1 1.3.8 1.5.7 2.9-2.4.3-1 3.4 0 4.3zm-4.4-6.5v2.9h2.9q.9-3.7-2.9-2.9z"/><path class="s1" d="M237.4 66.3s-23.5-29 28.4-53.9c0 0-10 32.1-5.3 34.9 0 0-18.1.8-23.1 19zm-8.3 14.6c-1.3 1.2-12.3 10.7-19.7 4.1-7.8-7-16.4-29-25.1-34.6 19.5 2 38.4 22.7 44.8 30.5z"/><path class="s2" d="M289.7 56.2c-2.6 3.2-17.1 21.7-19.7 26.6-2.8 5.3-16.2 18.1-30.7 2.8 0 0-.1-.3-.1-.8 6.4-7.4 20.3-18.2 50.5-28.6z"/><path class="s1" d="m290.1 55.7-.4.5c-30.2 10.4-44.1 21.2-50.5 28.6-1-5.8-4.6-42 50.9-29.1z"/><path class="s2" d="m229.3 80.8-.2.1c-6.4-7.8-25.3-28.5-44.8-30.5 0 0 50.8-13.7 45 30.4z"/></g></svg>