<svg xmlns="http://www.w3.org/2000/svg" xml:space="preserve" width="457.56" height="567.867"><path d="M2065.21 3633.96 1009.32 1972.47l2065.22-2.58 357.15-529.25H0l1693.04 2818.32 372.17-625" style="fill:#ed1f23;fill-opacity:1;fill-rule:nonzero;stroke:none" transform="matrix(.13333 0 0 -.13333 0 567.867)"/><path d="M2065.21 3633.96 1009.32 1972.47l2065.22-2.58Z" style="fill:#838687;fill-opacity:1;fill-rule:nonzero;stroke:none" transform="matrix(.13333 0 0 -.13333 0 567.867)"/><path d="M2259.32 3684.43 1242.24 2104.45h2018.64zM621.773 774.012c-53.839 0-102.828 5.207-146.933 15.617-44.121 10.43-82.082 26.172-113.856 47.223-32.156 21.289-56.078 46.207-71.781 74.769-15.703 28.559-23.555 60.981-23.555 97.269 0 71.92 31.774 129.14 95.336 171.71 32.536 21.28 70.672 37.18 114.411 47.72 43.746 10.52 92.539 15.8 146.378 15.8 42.618 0 81.317-3.09 116.094-9.25 34.766-6.16 66.735-15.85 95.899-29.07 34.765-15.24 60.558-32.59 77.39-52.07 16.824-19.5 27.481-41.68 31.965-66.55H796.746c-2.996 12.78-9.07 24.31-18.223 34.61-9.168 10.31-21.222 19.04-36.175 26.21-14.961 7.17-32.528 12.66-52.719 16.47-20.188 3.8-42.617 5.71-67.301 5.71-31.035 0-59.355-3.52-84.961-10.58-25.613-7.06-47.484-17.42-65.613-31.08-18.141-13.66-32.16-30.53-42.066-50.58-9.915-20.04-14.864-43.06-14.864-69.05 0-25.761 4.86-48.671 14.586-68.71 9.715-20.051 23.457-36.91 41.219-50.578 17.75-13.661 39.348-24.024 64.777-31.082 25.418-7.051 53.84-10.59 85.242-10.59 50.473 0 90.946 7.57 121.418 22.691 30.473 15.129 48.696 37.008 54.68 65.688h145.25c-4.863-25.989-15.418-49.047-31.683-69.227-16.258-20.152-38.973-37.293-68.141-51.391-29.539-14.351-62.348-24.871-98.422-31.589-36.082-6.723-76.742-10.09-121.977-10.09M1717.73 781.742h-146.38l-338.73 327.628 3.92-161.632V781.742H1099.7v454.638h146.94l338.74-327.618-3.92 161.968v165.65h136.27V781.742M2482.8 781.742h-578.77v454.638h561.94v-74.26h-416.68v-111.23h389.21v-74.261h-389.21V855.672h433.51v-73.93M2785.2 1023h127.57c9.16 0 18.23.23 27.21.67 24.68.46 45.61 2.29 62.8 5.55 17.2 3.25 31.22 7.9 42.07 13.95 10.84 6.04 18.79 13.5 23.83 22.35 5.05 8.84 7.57 19.08 7.57 30.73 0 7.4-1.49 14.51-4.48 21.34-2.99 6.84-7.21 13.05-12.61 18.66-5.44 5.59-12.07 10.36-19.92 14.28-7.85 3.92-16.27 6.76-25.24 8.56-13.83 2.47-32.24 4.15-55.23 5.05-23 .88-48.33 1.34-76 1.34h-97.57zm-145.27 213.38h290.52c31.02 0 59.44-.79 85.23-2.36 25.8-1.55 49.45-4.53 70.95-8.9 21.5-4.36 40.57-10.25 57.2-17.63 16.64-7.4 31.31-17.04 44.03-28.91 13.08-11.65 22.52-24.08 28.32-37.3 5.78-13.22 8.7-27.21 8.7-42 0-24.19-6.45-45.43-19.35-63.68-12.9-18.25-31.98-33.59-57.2-46.03-25.25-12.429-56.46-21.781-93.67-28.05-37.2-6.282-79.91-9.411-128.15-9.411H2785.2V781.742h-145.27v454.638M417.781 231.699h104.676c35.301 0 61.566 6.121 78.809 18.321 17.242 12.23 25.863 30.941 25.863 56.16 0 13.14-1.926 24.441-5.75 33.89-3.836 9.461-10.055 17.2-18.68 23.25-8.617 6.051-20.043 10.5-34.269 13.399-14.235 2.883-31.61 4.34-52.125 4.34h-98.524zm0 232.5h100.571c31.195 0 54.183 5.18 68.961 15.571 14.777 10.371 22.164 28.039 22.164 53 0 11.031-1.719 20.679-5.129 28.96-3.426 8.27-8.965 15.098-16.621 20.481-7.668 5.379-17.594 9.461-29.766 12.219-12.18 2.761-27.156 4.14-44.949 4.14h-95.231zm318.117-158.41c0-50.18-17.304-88.93-51.918-116.25-34.628-27.32-86.406-40.98-155.363-40.98h-216.32v533.152h210.98c29.555 0 56.164-3.152 79.836-9.461 23.664-6.309 43.719-15.359 60.141-27.191 16.41-11.821 28.934-26.071 37.547-42.739 8.625-16.699 12.933-35.539 12.933-56.558 0-26.543-6.64-49.453-19.906-68.75-13.277-19.321-33.457-35.012-60.547-47.102 17.516-4.199 32.633-10.308 45.356-18.32 12.73-8.008 23.398-17.34 32.015-27.969 8.625-10.652 14.989-22.601 19.094-35.859 4.098-13.274 6.152-27.262 6.152-41.973M1095.96 326.281h-40.22c-43.24 0-75.529-5.332-96.877-15.953-21.34-10.648-32.015-28.047-32.015-52.219 0-18.121 6.429-31.597 19.289-40.39 12.867-8.797 29.968-13.199 51.308-13.199 9.855 0 19.565 1.109 29.145 3.351 9.58 2.231 18.61 5.25 27.09 9.059 8.48 3.808 16.35 8.531 23.61 14.191 7.24 5.641 13.47 11.871 18.67 18.719zm.82-142.261c-17.79-14.961-37.9-26.129-60.33-33.489-22.45-7.351-47.895-11.019-76.352-11.019-19.703 0-38.043 2.418-55 7.277-16.973 4.859-31.68 12.012-44.129 21.481-12.453 9.46-22.309 21.199-29.551 35.269-7.258 14.043-10.883 30.27-10.883 48.66 0 89.321 80.184 133.973 240.535 133.973h34.89c0 20.219-.69 35.066-2.05 44.527-1.37 6.313-3.28 12.082-5.75 17.34-2.46 5.25-6.02 9.859-10.67 13.801-4.92 6.82-12.72 11.742-23.4 14.781-10.67 3-23.53 4.52-38.58 4.52-27.088 0-47.545-4.801-61.365-14.379-13.825-9.602-21.688-23.84-23.602-42.762h-93.586c5.469 79.332 66.223 119.012 182.243 119.012 28.19 0 53.02-2.114 74.51-6.313 21.48-4.199 40.84-11.687 58.07-22.457 16.15-9.992 28.19-24.031 36.13-42.16 7.93-18.133 11.9-42.832 11.9-74.09V148.559h-103.03v35.461M1420.72 485.469c36.67 38.363 78.12 57.543 124.37 57.543 91.67 0 137.51-47.422 137.51-142.25V148.559h-104.26v244.32c0 19.703-2.46 35.121-7.39 46.293-4.92 11.168-13 18.726-24.22 22.668-11.77 3.672-25.18 4.449-40.22 2.359-27.65-2.109-55.28-18.519-82.92-49.25v-266.39h-104.26V534.34h101.39v-48.871M2055.81 434.242c-24.63 23.656-53.1 35.469-85.39 35.469-27.08 0-48.09-10.91-63-32.699-14.92-21.813-22.37-54.653-22.37-98.512 0-42.039 6.77-73.43 20.32-94.18 13.55-20.761 33.59-31.129 60.13-31.129 16.7 0 32.56 4.719 47.62 14.18 15.04 9.457 29.26 23.379 42.69 41.77zM2159.65 0h-103.84v69.75c0 20.23.14 40.59.4 61.082.27 20.488.68 41.77 1.23 63.828-13.4-14.98-27.98-26.531-43.71-34.672-15.74-8.136-32.22-13.129-49.46-14.968-10.68-2.098-21.01-3.02-31-2.77-9.98.27-20.18 1.461-30.56 3.551-20.53 3.679-38.46 10.847-53.78 21.488-15.34 10.633-28.19 24.082-38.6 40.383-10.4 16.277-18.26 35.387-23.59 57.328-5.34 21.941-8 46.441-8 73.5 0 28.109 3.55 54.57 10.67 79.398 7.11 24.832 17.72 46.493 31.81 65.012 14.09 18.52 31.74 33.16 52.95 43.942 21.2 10.757 45.76 16.16 73.68 16.16 22.71 0 42.89-3.09 60.54-9.262 17.65-6.18 34.41-15.711 50.29-28.578v29.168h100.97V0M2540.63 197.82c-18.06-19.449-37.55-34.031-58.49-43.738-20.93-9.723-42.89-14.57-65.88-14.57-91.4 0-137.1 47.539-137.1 142.629V534.34h103.86V290.02c0-19.7 2.6-35.129 7.79-46.282 5.2-11.187 13.41-18.738 24.63-22.679 10.94-3.93 24.49-4.719 40.63-2.348 29.01 2.098 56.38 18.508 82.1 49.238V534.34h103.84V148.559h-101.38v49.261M3034.93 381.059c-4.11 33.613-14.3 58.703-30.58 75.261-16.28 16.551-37.29 24.821-63 24.821-25.46 0-46.33-8.27-62.6-24.821-16.29-16.558-26.48-41.648-30.59-75.261zm-87.84-241.547c-33.13 0-62.46 4.66-88.05 13.98-25.58 9.328-47.15 22.656-64.65 39.988-17.51 17.352-30.92 38.481-40.23 63.45-9.3 24.941-13.95 53.07-13.95 84.32 0 31.781 4.58 60.148 13.75 85.109 9.17 24.973 22.38 46.11 39.6 63.45 17.25 17.332 38.25 30.55 63.02 39.601 24.76 9.059 53.01 13.602 84.77 13.602 30.37 0 57.8-4.332 82.29-13.012 24.49-8.668 45.42-21.469 62.81-38.422 17.36-16.937 30.7-37.828 40.01-62.648 9.3-24.828 13.96-53.129 13.96-84.91v-24.04h-293.08c.82-20.242 3.9-37.628 9.24-52.21 5.34-14.59 12.38-26.54 21.13-35.86 8.75-9.328 19.03-16.23 30.8-20.691 11.75-4.477 24.62-6.699 38.58-6.699 21.61 0 39.94 4.468 55 13.39 15.05 8.942 26 24.301 32.84 46.121h97.28c-3.84-19.972-11.02-37.711-21.56-53.199-10.53-15.512-23.8-28.582-39.8-39.211-16.02-10.641-34.48-18.66-55.42-24.039-20.94-5.383-43.71-8.07-68.34-8.07" style="fill:#040606;fill-opacity:1;fill-rule:nonzero;stroke:none" transform="matrix(.13333 0 0 -.13333 0 567.867)"/><path d="M3395.05 1290.6c0-53.05-42.95-95.99-95.99-95.99-53.04 0-95.99 42.94-95.99 95.99s42.95 95.99 95.99 95.99c53.04 0 95.99-42.94 95.99-95.99z" style="fill:none;stroke:#040606;stroke-width:10;stroke-linecap:butt;stroke-linejoin:miter;stroke-miterlimit:10;stroke-dasharray:none;stroke-opacity:1" transform="matrix(.13333 0 0 -.13333 0 567.867)"/><text transform="matrix(1.33333 0 0 1.33333 433.053 402.333)" style="font-variant:normal;font-weight:700;font-size:14.4947px;font-family:Arial;-inkscape-font-specification:Arial-BoldMT;writing-mode:lr-tb;fill:#040606;fill-opacity:1;fill-rule:nonzero;stroke:#040606;stroke-width:.25;stroke-linecap:butt;stroke-linejoin:miter;stroke-miterlimit:10;stroke-dasharray:none;stroke-opacity:1"><tspan x="0" y="0">R</tspan></text></svg>