<svg xmlns="http://www.w3.org/2000/svg" width="213.84" height="46.978" xml:space="preserve"><path fill="#007481" d="M0 0h46.978v46.978H0z"/><path fill="#FFF" d="M42.774 43.6c-.647-.591-1.512-2.132-2.596-4.622L23.92 1.363h-.005a.673.673 0 0 0-.642-.416.679.679 0 0 0-.644.416h-.008L9.028 33.923c-2.038 4.883-3.474 7.868-4.313 8.959S2.618 44.616.941 44.808v1.23h12.93v-1.23c-1.528-.129-2.565-.322-3.117-.582-.893-.428-1.338-1.203-1.338-2.32 0-.559.166-1.316.495-2.272.33-.956 1.343-3.604 3.034-7.946l1.107-2.689 7.513-18.272 7.477 18.272 1.102 2.689 2.61 6.381c.386.905.681 1.764.891 2.58.215.818.321 1.388.321 1.711 0 .966-.276 1.574-.826 1.819-.552.248-1.783.458-3.689.63v1.23h16.591v-1.23c-1.531-.217-2.622-.62-3.268-1.209"/><path fill="#FFF" d="M46.978 0h-.533c-1.748 9.856-7.021 18.519-14.625 24.981C37.655 18.07 40.983 9.504 42.3 0h-.551c-1.473 10.498-5.584 19.836-12.512 27.024C21.212 32.94 11.068 36.583 0 37.02v.551c9.984-.396 19.23-3.364 26.877-8.26A49.201 49.201 0 0 1 0 41.686v.546a49.678 49.678 0 0 0 29.59-14.787C38.654 20.75 45.011 11.179 46.977.136V0z"/><path fill="#555759" d="M67.05 28.466H49.411v-.825h.587c.469 0 .886-.203 1.251-.609.365-.405.651-.858.86-1.356a2.72 2.72 0 0 0 .176-.589c.039-.21.059-.394.059-.551V4.049c0-.603-.221-1.126-.665-1.573-.444-.445-.964-.668-1.564-.668h-.586V.943h8.839v.865h-.588c-.599 0-1.122.216-1.564.648a2.14 2.14 0 0 0-.665 1.593v20.683c.053.577.307 1.107.763 1.592.456.485.983.728 1.583.728l5.241.039c.887 0 1.708-.339 2.464-1.022.756-.682 1.316-1.427 1.682-2.24.079-.13.144-.268.196-.413a2.78 2.78 0 0 0 .117-.412l.782.196-1.329 5.266zM89.304 28.466H71.665v-.825h.586c.47 0 .887-.203 1.252-.609.365-.405.652-.858.86-1.356.079-.184.137-.38.176-.589.039-.21.059-.394.059-.551V4.049c0-.603-.222-1.126-.665-1.573-.443-.445-.964-.668-1.564-.668h-.587V.943H80.62v.865h-.587c-.6 0-1.121.216-1.564.648a2.14 2.14 0 0 0-.665 1.593v20.683c.052.577.306 1.107.763 1.592.456.485.983.728 1.583.728l5.241.039c.887 0 1.708-.339 2.464-1.022.756-.682 1.316-1.427 1.682-2.24.079-.13.144-.268.196-.413a2.78 2.78 0 0 0 .117-.412l.783.196-1.329 5.266zM98.398 28.466h-4.479l-.039-.825h.548c.468 0 .905-.21 1.309-.629.405-.419.697-.878.88-1.376.052-.156.098-.32.137-.492.039-.17.059-.334.059-.491V4.049c0-.603-.222-1.126-.665-1.573-.443-.445-.964-.668-1.564-.668h-.587V.943h8.8v.865h-.586c-.601 0-1.122.223-1.565.668-.443.446-.665.97-.665 1.573v20.603c0 .157.02.321.059.491.04.172.084.336.137.492.183.498.469.957.86 1.376s.835.629 1.33.629h.548v.825h-4.517zM117.816 4.6l-3.48 12.624h7.51L117.816 4.6zm5.242 23.866v-.825h.587c.26 0 .508-.06.742-.178s.417-.268.549-.451a.814.814 0 0 0 .175-.255.733.733 0 0 0 .059-.295c.026-.054.04-.1.04-.139v-.137a1.505 1.505 0 0 0-.079-.472l-2.582-6.682h-8.84l-1.838 5.464c-.026.079-.045.15-.059.216-.014.064-.02.138-.02.217a.686.686 0 0 0-.039.215v.218c0 .444.123.864.372 1.257.247.394.618.682 1.113.865.157.027.333.059.528.098s.398.06.607.06v.825h-8.214v-.825h.586c.13 0 .274-.021.43-.06.157-.039.313-.098.47-.176.364-.185.729-.439 1.095-.768s.678-.674.939-1.041c.129-.184.24-.367.332-.551s.162-.354.215-.511L117.345.943h2.502l8.214 23.592c.079.157.169.334.274.53.104.196.234.387.391.57.26.314.554.623.881.924.325.301.67.557 1.035.768.182.078.365.15.548.215a1.6 1.6 0 0 0 .548.099h.586v.825h-9.266zM164.007 1.809c-.495 0-.945.21-1.35.628-.403.42-.698.879-.88 1.377-.053.156-.098.313-.137.471s-.059.314-.059.472v23.708h-1.252L141.752 5.739v18.915c0 .156.021.32.06.49.039.172.083.335.136.492.183.498.471.957.861 1.376s.821.63 1.291.63h1.447v.824H136.826v-.824h.939c.469 0 .898-.211 1.29-.63s.678-.878.86-1.376c.053-.157.098-.32.137-.492.04-.17.059-.334.059-.49V4.01a8.424 8.424 0 0 0-2.326-1.611 6.466 6.466 0 0 0-2.758-.59V.944h7.235l17.757 21.665V4.757c0-.158-.014-.314-.039-.472a1.65 1.65 0 0 0-.156-.471 4.068 4.068 0 0 0-.861-1.377c-.391-.418-.834-.628-1.329-.628h-1.408V.944h8.995v.865h-1.214zM186.828 27.442c-1.426.572-2.886.9-4.38.982a2.87 2.87 0 0 1-.469.041h-.427c-3.641-.027-6.92-1.33-9.84-3.91s-4.38-5.849-4.38-9.808c0-3.985 1.474-7.282 4.421-9.889 2.946-2.606 6.32-3.911 10.123-3.911.951 0 1.902.089 2.854.267.95.177 1.887.457 2.811.839a1.571 1.571 0 0 0 .489.083c.163 0 .325-.021.489-.062.162-.041.298-.103.407-.184.108-.082.204-.184.285-.307.081-.124.135-.239.163-.349l.855.123v6.634h-.938c-.271-.792-.652-1.467-1.141-2.027a8.715 8.715 0 0 0-1.629-1.454 8.862 8.862 0 0 0-1.814-.859 9.794 9.794 0 0 0-1.935-.45 8.559 8.559 0 0 0-.57-.063 8.378 8.378 0 0 0-.571-.02c-3.068 0-5.548 1.208-7.434 3.624-1.889 2.416-2.833 5.084-2.833 8.005v.123c.026 2.867.985 5.495 2.872 7.883 1.889 2.388 4.353 3.583 7.395 3.583 1.767 0 3.348-.396 4.747-1.188 1.398-.791 2.519-1.952 3.36-3.48h.938v3.521a14.766 14.766 0 0 1-3.848 2.253M212.51 28.466h-17.639v-.825h.586c.47 0 .9-.21 1.291-.629s.678-.878.859-1.376c.053-.156.1-.32.139-.492.039-.17.059-.334.059-.491V4.049c0-.629-.215-1.16-.646-1.593a2.15 2.15 0 0 0-1.585-.648h-.586V.943h17.209v4.442h-.859c0-.759-.263-1.401-.783-1.926-.521-.523-1.16-.785-1.916-.785h-7.627v11.034h6.727c.756 0 1.395-.268 1.916-.806a2.645 2.645 0 0 0 .783-1.907h.82v7.156h-.82c0-.761-.262-1.409-.783-1.946a2.567 2.567 0 0 0-1.916-.806h-6.727v8.428c0 .105.006.204.02.295.012.092.033.191.059.295.131.603.442 1.146.938 1.631.496.485 1.136.729 1.918.729h4.653c1.017 0 1.956-.394 2.815-1.18.861-.787 1.408-1.651 1.645-2.594l.781.196-1.331 5.267zM91.32 36.87h.37c.156 0 .292.066.415.203.13.145.227.305.293.484.023.049.041.1.049.15.008.053.013.105.013.158v3.955c0 .932-.239 1.739-.711 2.403-.465.657-1.199.989-2.183.989-.982 0-1.717-.332-2.183-.989-.472-.664-.709-1.473-.709-2.403v-3.955c0-.053.004-.105.013-.159a.6.6 0 0 1 .052-.157c.063-.172.161-.332.29-.477a.54.54 0 0 1 .415-.203h.356v-.488h-3.518v.488h.284c.156 0 .295.066.422.203.134.145.234.305.3.484a.533.533 0 0 1 .048.15c.01.053.013.105.013.158v4.604c0 1.053.4 1.896 1.187 2.507.779.604 1.646.955 2.589 1.043.074 0 .145.002.216.008a4.06 4.06 0 0 0 .453 0c.069-.006.14-.008.222-.008.934-.088 1.802-.439 2.58-1.043.788-.611 1.187-1.454 1.187-2.507v-4.604c0-.053.004-.105.013-.159a.581.581 0 0 1 .053-.157c.062-.172.161-.331.295-.477a.562.562 0 0 1 .423-.203h.298v-.488H91.32v.49zM108.315 37.284h1.056c.566 0 1.035.199 1.393.59.359.395.541.838.541 1.324 0 .232-.045.465-.134.689a1.72 1.72 0 0 1-.426.616c-.298.288-.628.457-.981.499a8.032 8.032 0 0 1-1.154.05h-.294v-3.768zm5.351 7.684a12.35 12.35 0 0 1-1.075-1.358c-.02-.028-.035-.055-.05-.079a.665.665 0 0 0-.072-.096l-.063-.086a1.045 1.045 0 0 1-.065-.109 10.632 10.632 0 0 1-.378-.583 9.234 9.234 0 0 0-.422-.641 2.34 2.34 0 0 0-.416-.44c.459-.203.848-.51 1.161-.91.348-.445.524-.964.524-1.541 0-.808-.313-1.475-.932-1.982-.615-.499-1.306-.754-2.055-.754h-4.04v.498h.219c.052 0 .102-.003.182-.01.021 0 .042.004.078.01a.679.679 0 0 1 .489.237.737.737 0 0 1 .204.515v6.874a.684.684 0 0 1-.02.163c-.014.061-.03.12-.047.174a1.418 1.418 0 0 1-.304.485.575.575 0 0 1-.435.208h-.291v.483h3.556v-.483h-.307c-.153 0-.291-.068-.42-.209a1.43 1.43 0 0 1-.304-.482 1.623 1.623 0 0 1-.048-.176.688.688 0 0 1-.021-.163V41.86l.233-.004a.158.158 0 0 1 .053-.01h.301c.073 0 .143.004.214.014.458.027.853.26 1.173.688a12.088 12.088 0 0 1 .976 1.544c.015.022.026.044.04.068a2.252 2.252 0 0 1 .114.2c.17.314.347.615.522.895.183.295.376.545.575.745l.025.025h2.436v-.483h-.086c-.46 0-.873-.193-1.224-.574M131.895 41.643h-2.553l1.184-3.548 1.369 3.548zm3.64 3.874c-.065-.023-.131-.051-.189-.074a2.073 2.073 0 0 1-.37-.275 3.395 3.395 0 0 1-.321-.34 1.048 1.048 0 0 1-.135-.197l-.098-.189-3.084-8.059h-1.057l-2.674 8.063a1.5 1.5 0 0 1-.193.375 2.113 2.113 0 0 1-.338.376c-.129.116-.261.21-.389.274a.624.624 0 0 1-.297.08h-.305v.484h3.236v-.484h-.087a1.08 1.08 0 0 1-.208-.02 3.23 3.23 0 0 0-.186-.034.72.72 0 0 1-.372-.289.774.774 0 0 1-.125-.425v-.08c0-.016.003-.034.015-.081 0-.023.002-.046.004-.064l.021-.07.665-1.99h3.176l.94 2.445c.008.025.014.053.019.076.004.024.006.05.006.074l-.015.104a.179.179 0 0 1-.016.076.227.227 0 0 1-.056.079.438.438 0 0 1-.174.142.498.498 0 0 1-.237.058h-.306v.484h3.631v-.484h-.306a.611.611 0 0 1-.175-.035M154.753 36.887h.61c.161 0 .303.067.434.208.137.147.238.311.306.494a.605.605 0 0 1 .051.152c.008.055.014.109.014.163v5.625l-6.47-7.113-.025-.028h-2.82v.499h.086c.354 0 .688.071.99.213.297.137.57.327.818.562v6.858a.713.713 0 0 1-.02.165 2.256 2.256 0 0 1-.048.173 1.41 1.41 0 0 1-.303.485c-.13.141-.267.209-.419.209h-.436v.484h3.424v-.484h-.626c-.151 0-.289-.068-.418-.209a1.416 1.416 0 0 1-.302-.484 1.589 1.589 0 0 1-.049-.174.707.707 0 0 1-.02-.165v-6.021l6.775 7.509.025.029h.59v-8.132c0-.051.008-.104.02-.155a1.366 1.366 0 0 1 .358-.652c.135-.143.279-.21.441-.21h.537v-.499h-3.524v.498zM177.152 43.577c-.281.513-.66.907-1.127 1.173-.469.267-1.006.4-1.598.4-1.02 0-1.857-.407-2.488-1.209-.637-.807-.965-1.708-.974-2.677h-.083l.083-.043c0-.986.323-1.9.96-2.719.633-.812 1.474-1.223 2.502-1.223a2.455 2.455 0 0 1 .382.029c.218.026.438.076.651.151.213.072.417.169.605.286.198.138.384.303.548.49.16.184.287.412.378.674l.019.057h.467v-2.455l-.441-.063-.019.074a.289.289 0 0 1-.046.094.343.343 0 0 1-.078.087.302.302 0 0 1-.111.048.543.543 0 0 1-.285-.002 4.924 4.924 0 0 0-.986-.296 5.382 5.382 0 0 0-1-.095c-1.328 0-2.522.463-3.551 1.376-1.031.914-1.554 2.087-1.554 3.485 0 1.391.519 2.553 1.54 3.459 1.018.902 2.18 1.365 3.451 1.375h.148a.995.995 0 0 0 .166-.015 4.805 4.805 0 0 0 1.539-.347 5.136 5.136 0 0 0 1.35-.793l.031-.023v-1.344h-.457l-.022.046zM195.969 43.871c-.083.334-.281.646-.589.928-.305.278-.641.419-.997.419h-1.745c-.272 0-.487-.08-.658-.248a1.11 1.11 0 0 1-.327-.57.777.777 0 0 1-.028-.2v-2.695h2.435c.262 0 .476.09.656.275s.269.404.269.668v.088h.481v-2.855h-.481v.087a.896.896 0 0 1-.269.653.866.866 0 0 1-.656.275h-2.435v-3.492h2.772a.88.88 0 0 1 .656.268.892.892 0 0 1 .268.66v.088h.496v-1.84h-6.624v.5h.308c.212 0 .386.07.532.217a.722.722 0 0 1 .216.535v6.879a.795.795 0 0 1-.019.164 2.413 2.413 0 0 1-.049.174c-.064.176-.168.34-.305.485-.13.14-.268.209-.42.209h-.307v.483h6.766l.537-2.125-.463-.115-.02.085zM72.473 42.707a2.62 2.62 0 0 0-.302-.659 2.241 2.241 0 0 0-.698-.723 8.227 8.227 0 0 0-.846-.459c-.038-.018-.079-.039-.122-.058-.041-.017-.079-.036-.115-.054a7.417 7.417 0 0 0-.43-.199 7.354 7.354 0 0 1-.452-.209 5.439 5.439 0 0 1-1.053-.656 1.14 1.14 0 0 1-.401-.599c-.084-.326-.019-.661.033-.845.114-.348.3-.617.564-.787.302-.196.631-.3.975-.309h.133c.381.025.745.17 1.081.431.332.257.54.613.618 1.058l.013.068h.432V36.38h-.458v.205a.359.359 0 0 1-.167.086 1.572 1.572 0 0 1-.53.02l-.395-.057c-.043-.006-.084-.014-.121-.021l-.034-.006a11.39 11.39 0 0 1-.354-.056 1.542 1.542 0 0 0-.286-.029c-.795 0-1.448.271-1.941.805-.492.532-.751 1.129-.77 1.772v.046c0 .396.105.783.311 1.149.207.367.544.682 1.006.932.233.121.469.244.707.365.238.123.479.24.711.347a.997.997 0 0 0 .092.054.337.337 0 0 0 .095.033c.085.049.173.094.263.136l.272.132c.332.164.621.395.86.688.233.289.351.594.351.908 0 .166-.04.336-.118.507a1.45 1.45 0 0 1-.385.485 1.702 1.702 0 0 1-.621.354 2.34 2.34 0 0 1-.736.115h-.042a2.464 2.464 0 0 1-1.386-.448c-.415-.286-.634-.679-.67-1.2l-.006-.077h-.454v2.319l.436-.023.019-.052a.436.436 0 0 1 .147-.206.386.386 0 0 1 .347-.057c.044.012.087.03.127.053.182.107.377.19.585.25.203.055.413.094.63.113.042 0 .083.002.124.008.046.004.088.008.128.008.381 0 .757-.066 1.118-.195.363-.13.688-.322.964-.57.278-.252.492-.541.635-.863a2.447 2.447 0 0 0 .116-1.703M213.738 42.681a2.507 2.507 0 0 0-.303-.656 2.212 2.212 0 0 0-.696-.719 8.15 8.15 0 0 0-.847-.458l-.121-.059a9.694 9.694 0 0 0-.546-.251 7.646 7.646 0 0 1-.451-.208 5.526 5.526 0 0 1-1.053-.653 1.12 1.12 0 0 1-.401-.597c-.082-.324-.02-.659.033-.842.115-.346.3-.612.563-.783a1.88 1.88 0 0 1 .976-.308h.134c.382.025.745.171 1.08.43.331.256.539.61.618 1.053l.012.068h.434v-2.316h-.459v.202a.34.34 0 0 1-.168.085 1.575 1.575 0 0 1-.531.021l-.395-.056-.12-.022-.034-.006c-.129-.019-.248-.036-.354-.056a1.626 1.626 0 0 0-.287-.029c-.794 0-1.447.27-1.94.802-.491.53-.751 1.124-.77 1.766v.046c0 .395.104.779.312 1.144.206.366.544.677 1.005.928l.707.364c.237.121.478.238.711.344.03.021.062.039.093.054a.265.265 0 0 0 .094.033c.086.048.174.093.264.136.089.042.179.086.272.132.331.161.62.392.858.684.234.287.353.591.353.905 0 .164-.04.334-.118.504s-.207.33-.386.482a1.72 1.72 0 0 1-.62.354 2.4 2.4 0 0 1-.736.115h-.041c-.5-.01-.968-.16-1.387-.446-.414-.287-.634-.679-.67-1.196l-.005-.076h-.454v2.309l.436-.022.02-.052a.447.447 0 0 1 .146-.207.392.392 0 0 1 .347-.055.445.445 0 0 1 .127.055c.182.104.378.188.587.246.203.056.411.094.63.113.042 0 .083.002.124.007a.952.952 0 0 0 .127.007c.381 0 .758-.064 1.118-.192a2.92 2.92 0 0 0 .964-.567c.278-.25.492-.54.635-.861a2.417 2.417 0 0 0 .113-1.696M55.051 42.707a2.656 2.656 0 0 0-.302-.659 2.251 2.251 0 0 0-.698-.723 8.333 8.333 0 0 0-.846-.459c-.038-.018-.079-.039-.122-.058-.041-.017-.079-.036-.115-.054a7.74 7.74 0 0 0-.43-.199 7.09 7.09 0 0 1-.452-.209 5.439 5.439 0 0 1-1.053-.656 1.14 1.14 0 0 1-.401-.599c-.084-.325-.019-.661.033-.845.114-.348.3-.617.563-.787.302-.196.631-.3.976-.309h.133c.381.025.745.17 1.081.431.332.257.54.613.618 1.058l.013.068h.432V36.38h-.458v.205a.369.369 0 0 1-.167.086 1.574 1.574 0 0 1-.53.02l-.395-.057c-.043-.006-.084-.014-.121-.021l-.035-.006a11.888 11.888 0 0 1-.354-.056 1.544 1.544 0 0 0-.287-.029c-.794 0-1.447.271-1.941.806-.491.531-.751 1.128-.769 1.771v.046c0 .396.104.783.311 1.149.207.367.544.682 1.005.932.233.121.469.244.707.365.238.123.479.24.711.347a.997.997 0 0 0 .092.054.327.327 0 0 0 .095.033c.086.049.173.094.264.136l.272.132c.332.164.621.395.859.688.234.289.352.594.352.908 0 .166-.04.336-.118.507a1.453 1.453 0 0 1-.386.485 1.69 1.69 0 0 1-.62.354 2.34 2.34 0 0 1-.736.115h-.042a2.467 2.467 0 0 1-1.387-.448c-.415-.286-.635-.679-.67-1.2l-.005-.077h-.454v2.319l.436-.023.019-.052a.441.441 0 0 1 .146-.206.387.387 0 0 1 .347-.057.55.55 0 0 1 .128.053c.182.107.377.19.585.25.203.055.413.094.63.113.042 0 .083.002.124.008.044.004.088.008.127.008a3.31 3.31 0 0 0 1.118-.195c.363-.13.688-.322.964-.57.278-.252.492-.541.635-.863a2.463 2.463 0 0 0 .118-1.703"/></svg>