<svg version="1.1" id="Layer_1" xmlns="http://www.w3.org/2000/svg" x="0" y="0" viewBox="0 0 1941.9 591" xml:space="preserve"><style>.st0{fill:#010202}.st2{fill:#a81217}.st3{fill:#fff}</style><path class="st0" d="M1443.3 0h-130.4v445.6h130.4V0zM1117.1 0v340.8H1008V170.4H877.5v170.4H765V0H634.5v340.8H360.7v104.9h886.9V0h-130.5z"/><path class="st0" d="M572.4 35.8H459.8v249h112.6v-249zM277.1 172.5c-12.3-7.2-25.9-12-40.1-13.8l-144.2.3.3 89.1 77.2.1h19.6l6.5 13.2v79H0v105.3h299.9V208.3c-4-13.8-12-26.3-22.8-35.8z"/><path d="M852.5 506.3c0 22.5 8.9 44 24.8 59.9a84.61 84.61 0 0059.9 24.8c22.5 0 44-8.9 59.9-24.8a84.61 84.61 0 0024.8-59.9H852.5z" fill="#d90e15"/><path class="st2" d="M1896.6 166.4c0 27.5.4 57.4-.2 84.8-3.1.3-6.3.7-9.8.8-36.9 1.6-52.5 2.7-87.9 13.6-38.2 11.8-72.9 29.1-95.4 64.1-19.7 30.5-22.7 62.6-8.2 96 2.6 5.9 10.4 17.9 10.8 17.9 5.4 0 9-.1 16.5-.1 60.4 0 120.6.1 181.3.1 4.8 0 9.6 0 14.4-.4 16.6-1.2 22.4-6 23.3-22.7 1-19.9.4-40 .4-59.9 0-69.2.1-138.4.1-207.6 0-60.1-38.9-99.4-98.7-99.6-84-.2-168.1-.5-252.1-.7-8 0-16 .4-23.9 1.6-16.3 2.2-19.6 13-10.9 24.7 55.3 73.9 127.9 114.3 221.7 112.3 44.2-.9 65.3-2.4 105.8-19.7 2.6-1.1 5.2-2.1 7.8-3.1 1.2-.3 3-1 5-2.1zM1836 357.3c-.1 17.8-14.2 32-31.9 32.2-18.2.2-33-14.4-32.9-32.5 0-17.7 14.3-32 32.1-32.1 18.5-.1 32.8 14 32.7 32.4z"/><path class="st2" d="M1690.9 259.1c-51.3-10.8-97.9-30.3-139.5-60.8.1 5.1 0 10.3 0 13.4 0 48.8-.1 97.6.3 146.4.3 31.8 15.9 55.2 43.6 74.1 1.4-74.6 20.3-138.4 95.6-173.1z"/><path class="st3" d="M1554.7 75.2c2.3 4.1 25.1 34.7 46.9 52.2 21.8 17.6 51.6 41 87.8 50.6 36.2 9.6 67.6 14.9 104.8 12.8 37.3-2.1 65.6-12.3 84.1-18.3 18.4-6 21.5-8.9 21.5-8.9v89.7s-27.3-.7-57.1 3.6-44.7 8-74.5 21.8c-29.8 13.8-48 30.6-59.4 45.9-11.4 15.3-17.1 28.9-19.8 47.1-2.7 18.2 1.5 37.4 5.1 46.8 3.6 9.4 13.1 25.2 13.1 25.2s-16.2 1.3-59.3-1.5c-43.1-2.8-52.6-10.2-52.6-10.2s-1-7.7.7-27.8 6.1-45.6 16-65.7 14.8-31.7 37.2-53.4c22.4-21.7 41.9-25.7 41.9-25.7s-30.9-7.2-46.2-12.8c-15.3-5.6-40.7-14.1-62.7-27.4-22-13.3-30.7-20.9-30.7-20.9l.3-129.8c-.1 0 .5 2.6 2.9 6.7z"/><circle class="st3" cx="1803.2" cy="358" r="33.8"/></svg>