<?xml version="1.0" encoding="utf-8"?>
<!-- Generator: Adobe Illustrator 24.1.2, SVG Export Plug-In . SVG Version: 6.00 Build 0)  -->
<svg version="1.1" id="Layer_1" xmlns="http://www.w3.org/2000/svg" xmlns:xlink="http://www.w3.org/1999/xlink" x="0px" y="0px"
	 viewBox="0 0 150 190" style="enable-background:new 0 0 150 190;" xml:space="preserve">
<style type="text/css">
	.st0{fill:#ED8D22;}
	.st1{fill:none;}
</style>
<path class="st0" d="M45.4,72.7c-3.9,0-3.8-3.6,0.4-3.6h83.9v-25H26.4c0,0-6.2,0-6.1,6.9s0,37.3,0,37.3c-0.1,6.9,6.1,6.9,6.1,6.9
	h78.5c4.2,0,4.1,3.6,0.1,3.6H20.3v25.1h43.9v5.4H20.3v24h109.3v-24H86v-5.4h37.6c0,0,6.1,0,6-6.9c0,0-0.1-30.5,0-37.4s-6-7-6-7
	L45.4,72.7L45.4,72.7z"/>
<path d="M25.8,168.6c0-0.2-0.1-0.8-1-0.8c-0.4-0.1-0.8,0.2-0.9,0.7c0,0,0,0,0,0.1c0,0.6,0.8,0.9,1.6,1.2c1.8,0.5,3.7,1,3.7,3.4
	s-2,3.6-4.4,3.6c-1.6,0-4.1-0.7-4.4-3.6h3.2c0.1,0.6,0.6,1,1.2,1c0.5,0,1.1-0.3,1.1-0.8c0-0.8-0.8-0.9-2.9-1.8
	c-1.4-0.4-2.6-1.4-2.6-2.9c0-2.1,2-3.6,4.2-3.6c1.4,0,3.9,0.6,4.1,3.4L25.8,168.6L25.8,168.6z"/>
<path d="M37.4,173.7c1.5,0.1,2.8-1.1,2.8-2.6c0.1-1.5-1.1-2.8-2.6-2.8c-1.5-0.1-2.8,1.1-2.8,2.6v0.1c-0.1,1.4,1,2.6,2.4,2.7
	C37.3,173.7,37.3,173.7,37.4,173.7 M37.4,165.3c3.1,0,5.7,2.6,5.6,5.8c0,3.1-2.6,5.7-5.8,5.6c-3.1,0-5.6-2.6-5.6-5.7
	c-0.1-3.1,2.4-5.6,5.4-5.7C37.1,165.3,37.3,165.3,37.4,165.3"/>
<path d="M46.2,165.6h3v1.2h0.1c0.6-1,1.7-1.6,2.9-1.5c1,0,2,0.3,2.8,0.9c0.6,0.5,1.2,1.4,1.2,3.5v6.7H53v-5.9c0-0.7,0-2.3-1.7-2.3
	s-1.8,1.7-1.8,2.3v5.9h-3.2L46.2,165.6L46.2,165.6z"/>
<path d="M65.1,173.8c1.5,0,2.7-1.2,2.7-2.7V171c0.1-1.4-1.1-2.6-2.5-2.7c-0.1,0-0.1,0-0.2,0c-1.5,0-2.6,1.2-2.6,2.6v0.1
	c-0.1,1.4,1,2.6,2.5,2.7C65,173.8,65.1,173.8,65.1,173.8 M71,176.4h-3.2v-1.2h-0.1c-0.7,1-1.9,1.6-3.1,1.5c-3.4,0-5.4-2.7-5.4-5.8
	c-0.2-3,2.2-5.6,5.2-5.8c0.1,0,0.1,0,0.2,0c1.2-0.1,2.4,0.5,3.1,1.5h0.1v-1.2H71V176.4z"/>
<polygon points="78.5,165.6 80.1,165.6 80.1,168.1 78.5,168.1 78.5,176.4 75.3,176.4 75.3,168.1 73.8,168.1 73.8,165.6 75.3,165.6 
	75.3,162.1 78.5,162.1 "/>
<path d="M82.7,165.6h3v1.2l0,0c0.5-1,1.6-1.7,2.7-1.5v3.2c-1.5,0-2.6,0.4-2.6,2v5.9h-3.2L82.7,165.6L82.7,165.6z"/>
<path d="M96.4,173.8c1.5,0,2.7-1.1,2.7-2.6c0-0.1,0-0.1,0-0.2c0.1-1.4-1.1-2.6-2.5-2.7c-0.1,0-0.1,0-0.2,0c-1.5,0-2.6,1.2-2.6,2.6
	v0.1c-0.1,1.4,1,2.6,2.5,2.7C96.3,173.8,96.4,173.8,96.4,173.8 M102.3,176.4h-3.2v-1.2l0,0c-0.7,1-1.9,1.6-3.1,1.5
	c-3.4,0-5.4-2.7-5.4-5.8c-0.2-3,2.2-5.6,5.2-5.8c0.1,0,0.2,0,0.2,0c1.2-0.1,2.4,0.5,3.1,1.5l0,0v-1.2h3.2V176.4z"/>
<path d="M116.7,172.3c-0.7,3.1-3.9,5-7,4.3c-2.6-0.6-4.4-2.9-4.4-5.6c0-3.2,2.7-5.7,5.9-5.7c2.7,0,5,1.9,5.5,4.5h-3.3
	c-0.4-1-1.3-1.6-2.3-1.5c-1.4,0-2.5,1-2.6,2.4c0,0.1,0,0.2,0,0.3c-0.1,1.4,1,2.6,2.4,2.7c0.1,0,0.1,0,0.2,0c1,0,1.9-0.6,2.3-1.5
	L116.7,172.3L116.7,172.3z"/>
<path d="M119.7,162.1h3.2v4.6h0.1c0.6-0.9,1.7-1.5,2.8-1.4c1.1,0,2.2,0.4,2.9,1.2c0.9,1.1,1,2,1,3.9v6h-3.2v-5.8
	c0-0.5,0-2.3-1.8-2.3c-1,0-1.8,0.7-1.9,1.7c0,0.1,0,0.3,0,0.4v6h-3.2L119.7,162.1L119.7,162.1z"/>
<path d="M93.5,15c0,1-0.7,1.9-1.7,1.9s-1.9-0.7-1.9-1.7s0.7-1.9,1.7-1.9h0.1C92.6,13.2,93.5,14,93.5,15"/>
<path d="M46,30.5V15c-0.1-1-0.9-1.7-1.9-1.6c-0.9,0.1-1.6,0.8-1.6,1.6v15.5c0,0.9,0.8,1.7,1.7,1.7l0,0c0.9,0,1.7-0.7,1.8-1.6
	C46,30.6,46,30.5,46,30.5 M70.5,28.8H62c4.6-3.3,9.1-6.2,10.3-6.4c0.9,0,1.8,0.1,1.8,2.8c0.1,1.9-1.4,3.5-3.3,3.6
	C70.7,28.8,70.6,28.8,70.5,28.8 M72.2,19c-1.6,0-5.8,2.6-10.4,5.8V15c-0.1-1-0.9-1.7-1.9-1.6c-0.9,0.1-1.6,0.8-1.6,1.6v12.3
	c-0.7,0.5-1.4,1-2.1,1.6h-2.8V21c-0.1-1-0.9-1.7-1.9-1.6c-0.9,0.1-1.6,0.8-1.6,1.6v8.8c-0.1,0.2-0.1,0.4-0.2,0.7v0.1
	c-0.2,0.6-0.5,1.2-1,1.7c-0.7,0.8-1.7,1.4-2.8,1.6c-0.9,0.1-1.5,1-1.4,1.9l0,0c0.2,0.9,1.1,1.6,2,1.4c1.8-0.4,3.4-1.3,4.7-2.6
	c0.7-0.7,1.3-1.5,1.6-2.4h17.6c3.8,0.1,6.9-2.9,7-6.7c0-0.1,0-0.2,0-0.3C77.5,20.2,74.6,19,72.2,19 M101.7,27.4
	c-1.4,0-2.5-1.1-2.5-2.5s1.1-2.5,2.5-2.5l0,0c1.4,0,2.5,1.1,2.5,2.5S103.1,27.4,101.7,27.4 M128.1,18.5c-0.9,0-1.7,0.7-1.7,1.7l0,0
	v8.3c-0.4,0.2-0.8,0.3-1.2,0.4c-0.8-0.1-1.6-0.3-2.3-0.6v-8c0-1-0.8-1.8-1.8-1.8s-1.8,0.8-1.8,1.8v8.2c-0.6,0.3-1.3,0.5-2,0.5
	c-0.6,0-1.1-0.1-1.6-0.4v-8.4c0-1-0.8-1.8-1.8-1.8s-1.8,0.8-1.8,1.8v8c-0.8,0.4-1.6,0.6-2.4,0.7c-0.7-0.1-1.4-0.2-2.1-0.5v-3.2l0,0
	V25c0.1-3.3-2.5-6.2-5.8-6.3s-6.2,2.5-6.3,5.8s2.5,6.2,5.8,6.3c0.1,0,0.2,0,0.2,0c0.9,0,1.7-0.2,2.5-0.5c-0.1,0.8-0.5,1.5-1.1,2
	c-0.7,0.8-1.7,1.4-2.8,1.6c-0.9,0.1-1.5,1-1.4,1.9l0,0c0.2,0.9,1.1,1.6,2,1.4c1.8-0.4,3.4-1.3,4.7-2.6c0.8-0.8,1.4-1.8,1.8-2.8
	c0.8,0.3,1.7,0.4,2.6,0.4c1.4-0.1,2.7-0.4,3.9-1c1.1,0.6,2.3,1,3.5,1c1.4,0,2.7-0.3,3.9-1c1.2,0.6,2.6,0.9,3.9,1
	c1.6,0,3.2-0.7,4.2-1.9c0.3-0.3,0.4-0.7,0.4-1.1v-9c0.1-0.8-0.4-1.5-1.2-1.7C128.4,18.5,128.3,18.5,128.1,18.5 M91.7,18.5
	c-0.9,0-1.7,0.7-1.8,1.7l0,0v7.7c-0.8,0.7-1.9,1.1-3,1c-1.2,0-2.3-0.4-3.1-1.2V15c-0.1-1-0.9-1.7-1.9-1.6c-0.9,0.1-1.6,0.8-1.6,1.6
	v12.8c0,2.7,3.9,4.4,6.7,4.4c3.1,0,6.5-1.5,6.5-4.4v-7.6C93.5,19.2,92.7,18.5,91.7,18.5L91.7,18.5 M34.1,17.8
	c1.7-0.6,3.4-0.9,5.2-0.8c0.9,0.1,1.8-0.7,1.8-1.6l0,0c0.1-0.9-0.6-1.7-1.5-1.7c0,0,0,0-0.1,0c-2.3-0.1-4.7,0.3-6.9,1.2
	c-2.9,1.2-5.7,4.2-5.7,5.9c0,2.3,2.1,2.8,3.9,3.3c1.3,0.3,2.6,0.8,3.7,1.4c2.8,1.5,3,2.3,3,2.4s-0.2,1-0.7,1H25.9
	c-0.9,0-2.2-0.5-2.2-1v-1.5c-0.1-1-0.9-1.7-1.9-1.6c-0.9,0.1-1.6,0.8-1.6,1.6v1.5c0,3,3.4,4.4,5.7,4.4h10.9c2.3-0.1,4.1-2.1,4.1-4.4
	c0-1.8-1.5-3.5-4.8-5.3c-1.4-0.8-2.9-1.3-4.5-1.7c-0.4-0.1-0.7-0.2-1-0.3C31.6,19.4,32.7,18.4,34.1,17.8"/>
<rect x="10.5" y="7" class="st1" width="129" height="176"/>
</svg>
