<svg version="1.2" xmlns="http://www.w3.org/2000/svg" width="258" height="258"><style>.s0{fill:#231f20}</style><path class="s0" d="M40.7 173.5H11.3v-5.9c3.8 0 4.2-1.3 4.2-10.3v-57.1c0-8.8-.4-10.2-4.2-10.2v-5.9h15.4V90c-3.7 0-3.9 1.2-3.9 10.3v60.6c0 5.1.3 5.6 1.7 5.6h10.4c2.8 0 3.4-.9 4.8-16.4h2.9zM50.8 100.2c0-8.9-.3-10.2-5.1-10.2v-5.9h17.5V90c-4.8 0-5.1 1.3-5.1 10.2v57.3c0 8.8.3 10.1 5.1 10.1v5.9H45.7v-5.9c4.8 0 5.1-1.3 5.1-10.1z"/><path fill-rule="evenodd" class="s0" d="M66.8 84.1h15c6.7 0 9.8.9 12.7 5.4 1.9 3.1 3.2 8.1 3.2 14.7 0 5.5-.8 10.8-2.7 14.7-1.9 3.7-4.6 6.1-8.7 7v.3c4.1.2 7.3 2.1 9.7 5.8 2.3 3.4 3.9 9 3.9 16.3 0 6.7-.8 12.7-2.9 17.3-2.2 4.9-5.7 7.9-12.2 7.9h-18v-5.9c3.8 0 4.2-1.3 4.2-10.3v-56.9c0-9.1-.4-10.4-4.2-10.4zm11.4 39.1h3.6c2.7 0 5-1.4 6.5-4.6 1.2-2.7 2-6.7 2-12.6 0-3.9-.5-7.8-1.6-10.6-1.1-2.5-2.8-4.3-5.4-4.3h-3.2c-1.7 0-1.9 1.1-1.9 5.3zm0 37.1c0 5 .4 6.1 2.2 6.1h4.1c2.5 0 4.5-1.4 6-5.1 1.1-2.9 1.8-7.2 1.8-13.7 0-5.7-.8-10.1-2.3-13-1.6-3-4-4.4-7.4-4.4h-4.4z"/><path class="s0" d="M103.9 173.5v-5.9c3.9 0 4.3-1.3 4.3-10.1v-57.3c0-8.9-.4-10.2-4.3-10.2v-5.9h29.4l1.6 21.3H132c-1.3-13.7-2-14.3-4.5-14.3h-10.3c-1.6 0-1.7 1-1.7 6v26.5h7.9c2.2 0 2.6-1.5 2.6-12.1h2.8v32.1H126c0-11.8-.4-12.9-2.5-12.9h-8v30.6c0 4.7.4 5.2 1.4 5.2h11.8c2.8 0 3.5-.7 4.9-15.2h2.9l-1.8 22.2z"/><path fill-rule="evenodd" class="s0" d="M171.1 159.4c2.2 7.4 3.1 8.2 5.2 8.2v5.9h-9.9l-10.7-39.8h-4.2v23.8c0 9.2.2 10.1 4 10.1v5.9h-15.6v-5.9c3.9 0 4.3-1.3 4.3-10.1v-57.3c0-8.9-.4-10.2-4.3-10.2v-5.9h16.6c6.1 0 9.5 1.5 12.4 5.9 2.5 3.9 4 9.7 4 17 0 6.2-1 11.9-2.9 16.4-1.6 3.9-4.3 6.7-7.3 7.8zm-19.6-32.7h4.2c3.3 0 5.7-1.8 7.3-5.1 1.6-3.3 2.3-7.8 2.3-13.5 0-4.8-.6-9.3-2.1-12.3-1.3-2.9-3.3-4.6-6.5-4.6h-3.8c-1.3 0-1.4 1.1-1.4 7.2z"/><path class="s0" d="M197.6 157.6c0 8.9.3 10.2 4.6 10.2v5.7h-16.5v-5.7c4.3 0 4.6-1.3 4.6-10.2V91.3h-5.8c-2.9 0-3.4.9-4.5 15.3h-2.5l1.2-22.5h30.5l1.2 22.5h-2.5c-1.1-14.4-1.6-15.3-4.5-15.3h-5.8zM213.1 173.5v-5.9c3.9 0 4.3-1.3 4.3-10.1v-57.3c0-8.9-.4-10.2-4.3-10.2v-5.9h29.4l1.6 21.3h-2.9c-1.3-13.7-1.9-14.3-4.5-14.3h-10.3c-1.6 0-1.7 1-1.7 6v26.5h7.9c2.2 0 2.6-1.5 2.6-12.1h2.8v32.1h-2.8c0-11.8-.4-12.9-2.5-12.9h-8v30.6c0 4.7.4 5.2 1.4 5.2h11.8c2.8 0 3.5-.7 4.9-15.2h2.9l-1.8 22.2z"/></svg>