<?xml version="1.0" encoding="utf-8"?>
<!-- Generator: Adobe Illustrator 24.1.2, SVG Export Plug-In . SVG Version: 6.00 Build 0)  -->
<svg version="1.1" id="Layer_1" xmlns="http://www.w3.org/2000/svg" xmlns:xlink="http://www.w3.org/1999/xlink" x="0px" y="0px"
	 viewBox="0 0 600 650" style="enable-background:new 0 0 600 650;" xml:space="preserve">
<style type="text/css">
	.st0{fill:none;}
	.st1{fill:#171717;}
	.st2{fill:url(#SVGID_1_);}
</style>
<path class="st0" d="M24-64V43.3H-80V-64H24z"/>
<path class="st0" d="M680-64V43.3H576V-64H680z"/>
<path class="st0" d="M24,606.7V714H-80V606.7H24z"/>
<path class="st0" d="M680,606.7V714H576V606.7H680z"/>
<g id="YASSIR_Wordmark">
	<path class="st1" d="M75.5,463l28.5-44.2h24.3v0.9l-42.7,62V526H65.4v-44.3l-41.2-62v-0.9h24L75.5,463z"/>
	<path class="st1" d="M200.9,505.7h-56l-9.2,20.2h-21.9l48-107.1h22l48,107.1h-22L200.9,505.7z M172.9,441.3L153,486.9h39.8
		L172.9,441.3z"/>
	<path class="st1" d="M305.6,444.7c-3.7-6.1-13.8-11.9-25.4-11.9c-15,0-22.2,6.3-22.2,14.2c0,9.3,11,11.9,23.9,13.5
		c22.3,2.8,43.1,8.5,43.1,34.1c0,23.9-21.1,34.1-45,34.1c-21.9,0-38.7-6.7-46.7-26.3l16.8-8.7c4.7,11.8,17.1,17,30.1,17
		c12.7,0,24.6-4.4,24.6-16.1c0-10.1-10.6-14.2-24.8-15.8c-21.9-2.6-42.1-8.4-42.1-32.4c0-22,21.7-31.1,41.5-31.2
		c16.7,0,34,4.7,42.1,21.3L305.6,444.7z"/>
	<path class="st1" d="M406.7,444.7c-3.7-6.1-13.8-11.9-25.4-11.9c-15,0-22.2,6.3-22.2,14.2c0,9.3,11,11.9,23.9,13.5
		c22.3,2.8,43.1,8.6,43.1,34.1c0,23.9-21.1,34.1-45,34.1c-21.9,0-38.7-6.7-46.7-26.3l16.8-8.7c4.7,11.8,17.1,17,30.1,17
		c12.7,0,24.6-4.4,24.6-16.1c0-10.1-10.6-14.2-24.8-15.8c-21.9-2.6-42.1-8.4-42.1-32.4c0-22,21.7-31.1,41.5-31.2
		c16.7,0,34,4.7,42.1,21.3L406.7,444.7z"/>
	<path class="st1" d="M441.9,525.9V418.8h20v107.1H441.9z"/>
	<path class="st1" d="M575.9,525.9h-24l-31.2-35.8h-19.4v35.8h-20.2V418.7c17,0,34,0.1,51,0.1c25.3,0.1,38.6,17,38.6,35.5
		c0,14.7-6.7,29.5-27.1,33.7l32.4,36.6L575.9,525.9z M501.3,437.6v34.3H532c12.8,0,18.4-8.6,18.4-17.1s-5.7-17.1-18.4-17.1
		L501.3,437.6z"/>
</g>
<g id="Logo_Symbol">
	<path class="st1" d="M315.1,308.6c-9.7,3.5-20.4,3.5-30.1,0l-125.4-45.6v53.6L285,362.2c9.7,3.5,20.4,3.5,30.1,0l125.4-45.6v-53.6
		L315.1,308.6z"/>
	
		<linearGradient id="SVGID_1_" gradientUnits="userSpaceOnUse" x1="306.5219" y1="395.1606" x2="235.0019" y2="624.2606" gradientTransform="matrix(1 0 0 -1 0 652)">
		<stop  offset="0" style="stop-color:#FF8500"/>
		<stop  offset="1" style="stop-color:#FEB60F"/>
	</linearGradient>
	<path class="st2" d="M318.4,53c-6.7-10.1-20.4-12.9-30.5-6.2c-2.4,1.6-4.5,3.7-6.2,6.2L159.6,236.1L285,281.8
		c9.7,3.5,20.4,3.5,30.1,0l125.4-45.6L318.4,53z"/>
</g>
</svg>
