<svg xmlns="http://www.w3.org/2000/svg" width="1244.232" height="853" viewBox="0 0 622.166 426.5" xml:space="preserve"><g fill="#228D44"><path d="M63.046 352.458c-3.766 1.312-10.894 3.116-18.021 3.116-9.852 0-16.979-2.542-21.945-7.463-4.967-4.756-7.689-11.973-7.609-20.09.08-18.369 13.135-28.864 30.836-28.864 6.968 0 12.334 1.395 14.979 2.706l-2.563 10.004c-2.963-1.313-6.647-2.378-12.575-2.378-10.172 0-17.86 5.903-17.86 17.877 0 11.397 6.968 18.122 16.979 18.122 2.803 0 5.046-.328 6.007-.82v-11.563h-8.33v-9.758h20.104v29.111zM72.571 300.47c3.926-.655 9.771-1.147 16.26-1.147 8.01 0 13.615 1.229 17.46 4.347 3.204 2.624 4.966 6.478 4.966 11.562 0 7.053-4.886 11.892-9.531 13.612v.246c3.766 1.558 5.847 5.248 7.208 10.332 1.683 6.231 3.364 13.448 4.405 15.58h-12.495c-.881-1.558-2.163-6.067-3.764-12.874-1.442-6.888-3.766-8.773-8.73-8.855h-3.684V355H72.571v-54.53zm12.095 23.78h4.806c6.087 0 9.691-3.116 9.691-7.954 0-5.084-3.364-7.626-8.971-7.708-2.963 0-4.646.246-5.525.41l-.001 15.252zM169.159 326.792c0 18.122-10.732 29.11-26.512 29.11-16.019 0-25.39-12.383-25.39-28.127 0-16.563 10.332-28.946 26.271-28.946 16.58 0 25.631 12.711 25.631 27.963zm-39.006.737c0 10.824 4.967 18.449 13.136 18.449 8.25 0 12.975-8.035 12.975-18.776 0-9.923-4.645-18.45-13.055-18.45-8.25 0-13.056 8.036-13.056 18.777zM189.337 299.73v31.816c0 9.512 3.523 14.35 9.771 14.35 6.407 0 9.932-4.592 9.932-14.35V299.73h12.174v30.996c0 17.058-8.41 25.176-22.506 25.176-13.616 0-21.625-7.709-21.625-25.34V299.73h12.254zM231.78 300.47c3.766-.655 9.052-1.147 16.5-1.147 7.528 0 12.896 1.477 16.499 4.429 3.444 2.787 5.768 7.38 5.768 12.792s-1.762 10.004-4.966 13.12c-4.165 4.019-10.332 5.821-17.541 5.821-1.603 0-3.043-.082-4.165-.246V355H231.78v-54.53zm12.095 25.093c1.041.246 2.322.328 4.084.328 6.487 0 10.492-3.363 10.492-9.021 0-5.085-3.444-8.118-9.531-8.118-2.483 0-4.165.246-5.046.491l.001 16.32zM310.427 331.63h-19.863v13.12h22.187V355h-34.44v-55.27h33.319v10.25h-21.065v11.48h19.863v10.17zM337.653 342.126c3.284 1.722 8.33 3.444 13.536 3.444 5.606 0 8.569-2.379 8.569-5.986 0-3.443-2.563-5.412-9.05-7.79-8.972-3.198-14.817-8.282-14.817-16.317 0-9.431 7.688-16.646 20.424-16.646 6.087 0 10.572 1.313 13.775 2.788l-2.724 10.086c-2.163-1.065-6.007-2.623-11.293-2.623s-7.85 2.46-7.85 5.329c0 3.525 3.044 5.085 10.012 7.79 9.531 3.608 14.018 8.692 14.018 16.481 0 9.268-6.969 17.14-21.785 17.14-6.168 0-12.255-1.642-15.298-3.362l2.483-10.334zM393.073 340.813 389.229 355h-12.655l16.499-55.27h16.021L425.831 355h-13.136l-4.164-14.188h-15.458zm13.696-9.347-3.364-11.727c-.961-3.279-1.922-7.38-2.723-10.659h-.16c-.801 3.279-1.602 7.462-2.483 10.659l-3.202 11.727h11.932zM445.288 299.73V355h-12.254v-55.27h12.254zM455.858 300.47c4.485-.737 10.332-1.147 16.499-1.147 10.252 0 16.9 1.886 22.106 5.904 5.605 4.264 9.13 11.069 9.13 20.827 0 10.578-3.765 17.876-8.971 22.386-5.688 4.84-14.337 7.136-24.908 7.136-6.327 0-10.813-.41-13.856-.82V300.47zm12.254 45.1c1.042.246 2.725.246 4.245.246 11.053.08 18.262-6.15 18.262-19.354.08-11.48-6.486-17.548-16.979-17.548-2.725 0-4.485.245-5.527.491l-.001 36.165zM522.891 340.813 519.047 355h-12.655l16.499-55.27h16.02L555.65 355h-13.136l-4.164-14.188h-15.459zm13.696-9.347-3.364-11.727c-.961-3.279-1.922-7.38-2.724-10.659h-.159c-.802 3.279-1.603 7.462-2.483 10.659l-3.203 11.727h11.933zM562.853 299.73h12.254v44.772h21.466V355h-33.72v-55.27z"/></g><path fill="#228D44" d="M508.666 21H144.727l-28.77 62.93.68 1.07 72.75 114h-79.83l-29.26 64h372.369l28-64-70.359-114h70.359l28-64zm-322.45 64h117.7l-67.771 78.24L186.216 85zm238.94 114H258.967l93.439-114 72.75 114z"/><g fill="#2A276A"><path d="M20.857 367.531v35.05H12.9v-35.05h7.957zM27.616 385.266c0-3.174-.104-5.877-.208-8.113h6.863l.364 3.484h.156c1.04-1.611 3.641-4.057 7.853-4.057 5.2 0 9.102 3.432 9.102 10.92v15.081H43.84v-14.093c0-3.275-1.146-5.512-4.004-5.512-2.185 0-3.484 1.508-4.004 2.963-.208.469-.313 1.248-.313 1.977v14.665h-7.903v-17.315zM82.736 365.66v29.328c0 2.859.104 5.877.208 7.593h-7.02l-.364-3.744h-.104c-1.612 2.86-4.681 4.315-7.956 4.315-6.032 0-10.868-5.147-10.868-13.053-.052-8.58 5.304-13.521 11.388-13.521 3.12 0 5.564 1.092 6.708 2.86h.104v-13.78l7.904.002zm-7.904 22.256c0-.416-.053-.986-.104-1.402-.468-2.133-2.185-3.9-4.628-3.9-3.588 0-5.46 3.224-5.46 7.229 0 4.315 2.132 7.021 5.408 7.021 2.288 0 4.107-1.562 4.576-3.797.155-.572.208-1.145.208-1.82v-3.331zM113.052 394.417c0 3.328.104 6.032.208 8.164h-6.864l-.363-3.588h-.156c-.988 1.56-3.38 4.159-7.956 4.159-5.148 0-8.944-3.225-8.944-11.076v-14.924h7.956v13.676c0 3.691 1.196 5.929 3.952 5.929 2.184 0 3.432-1.508 3.952-2.756.208-.468.26-1.093.26-1.716v-15.133h7.957l-.002 17.265zM119.342 395.665c1.456.884 4.472 1.924 6.813 1.924 2.393 0 3.381-.832 3.381-2.132 0-1.301-.78-1.924-3.744-2.912-5.252-1.77-7.28-4.629-7.229-7.645 0-4.732 4.058-8.32 10.35-8.32 2.964 0 5.615.676 7.176 1.456l-1.404 5.46c-1.145-.624-3.328-1.456-5.513-1.456-1.924 0-3.017.78-3.017 2.08 0 1.196.988 1.819 4.108 2.912 4.836 1.663 6.864 4.108 6.917 7.853 0 4.732-3.744 8.217-11.024 8.217-3.327 0-6.292-.729-8.217-1.769l1.403-5.668zM150.802 369.872v7.28h5.668v5.824h-5.668v9.203c0 3.068.729 4.473 3.12 4.473.988 0 1.769-.104 2.34-.207l.052 5.979c-1.04.416-2.912.678-5.147.678-2.548 0-4.681-.886-5.929-2.186-1.455-1.508-2.184-3.952-2.184-7.54v-10.399h-3.38v-5.824h3.38v-5.514l7.748-1.767zM161.045 385.523c0-3.744-.104-6.188-.208-8.371h6.813l.261 4.68h.208c1.3-3.691 4.42-5.252 6.863-5.252.729 0 1.093 0 1.664.104v7.438a11.322 11.322 0 0 0-2.132-.208c-2.912 0-4.888 1.562-5.408 4.004a9.35 9.35 0 0 0-.155 1.769v12.896h-7.904l-.002-17.06zM188.969 370.08c0 2.184-1.664 3.952-4.264 3.952-2.496 0-4.16-1.769-4.108-3.952-.052-2.288 1.612-4.004 4.16-4.004s4.16 1.716 4.212 4.004zm-8.164 32.501v-25.429h7.904v25.429h-7.904zM201.136 392.389c.26 3.276 3.484 4.836 7.176 4.836 2.704 0 4.889-.363 7.021-1.039l1.04 5.355c-2.601 1.04-5.772 1.561-9.204 1.561-8.632 0-13.572-4.992-13.572-12.949 0-6.447 4.004-13.571 12.844-13.571 8.216 0 11.336 6.396 11.336 12.688 0 1.353-.155 2.547-.26 3.119h-16.381zm9.309-5.409c0-1.924-.832-5.148-4.473-5.148-3.328 0-4.68 3.018-4.888 5.148h9.361zM233.012 385.682c0-3.328-.104-6.188-.208-8.529h6.864l.364 3.537h.104c1.872-2.705 4.784-4.108 8.477-4.108 5.564 0 10.557 4.836 10.557 12.948 0 9.257-5.876 13.625-11.544 13.625-3.068 0-5.46-1.248-6.604-2.912h-.104v12.636h-7.904l-.002-27.197zm7.905 5.978c0 .625.052 1.195.156 1.664.52 2.133 2.34 3.744 4.628 3.744 3.432 0 5.46-2.859 5.46-7.176 0-4.058-1.82-7.125-5.356-7.125-2.236 0-4.212 1.664-4.731 4.004a6.127 6.127 0 0 0-.156 1.404v3.485h-.001zM264.108 365.66h7.904v14.508h.104c.831-1.092 1.871-1.924 3.119-2.6 1.146-.625 2.652-.988 4.108-.988 5.044 0 8.893 3.484 8.893 11.129v14.872h-7.903v-13.988c0-3.327-1.146-5.616-4.108-5.616-2.08 0-3.38 1.353-3.952 2.756-.208.521-.26 1.197-.26 1.769v15.081h-7.904l-.001-36.923zM309.036 402.581l-.468-2.548h-.156c-1.664 2.027-4.265 3.119-7.279 3.119-5.148 0-8.217-3.743-8.217-7.801 0-6.604 5.929-9.775 14.925-9.724v-.364c0-1.353-.729-3.275-4.628-3.275-2.602 0-5.356.884-7.021 1.924l-1.456-5.096c1.77-.988 5.252-2.236 9.88-2.236 8.478 0 11.182 4.992 11.182 10.973v8.84c0 2.444.104 4.784.363 6.188h-7.125zm-.936-12.013c-4.16-.053-7.384.937-7.384 4.004 0 2.027 1.352 3.017 3.12 3.017 1.976 0 3.588-1.3 4.106-2.912.104-.415.156-.884.156-1.353l.002-2.756zM322.035 385.523c0-3.744-.104-6.188-.208-8.371h6.813l.26 4.68h.208c1.301-3.691 4.42-5.252 6.864-5.252.729 0 1.093 0 1.664.104v7.438a11.322 11.322 0 0 0-2.132-.208c-2.912 0-4.89 1.562-5.408 4.004a9.346 9.346 0 0 0-.156 1.769v12.896h-7.904l-.001-17.06zM341.794 385.266c0-3.174-.104-5.877-.208-8.113h6.655l.364 3.433h.156c1.092-1.61 3.328-4.004 7.696-4.004 3.274 0 5.876 1.664 6.968 4.315h.104c.937-1.301 2.08-2.34 3.275-3.067 1.404-.832 2.965-1.248 4.837-1.248 4.888 0 8.58 3.433 8.58 11.024v14.977h-7.696V388.75c0-3.69-1.196-5.824-3.744-5.824-1.819 0-3.12 1.248-3.641 2.757-.207.571-.313 1.403-.313 2.028v14.872h-7.695v-14.249c0-3.224-1.146-5.408-3.642-5.408-2.026 0-3.224 1.562-3.69 2.86-.261.624-.313 1.354-.313 1.977v14.82h-7.696v-17.316h.003zM400.971 402.581l-.469-2.548h-.155c-1.664 2.027-4.266 3.119-7.28 3.119-5.147 0-8.217-3.743-8.217-7.801 0-6.604 5.929-9.775 14.925-9.724v-.364c0-1.353-.728-3.275-4.628-3.275-2.601 0-5.355.884-7.021 1.924l-1.456-5.096c1.768-.988 5.252-2.236 9.881-2.236 8.476 0 11.18 4.992 11.18 10.973v8.84c0 2.444.104 4.784.364 6.188h-7.124zm-.937-12.013c-4.159-.053-7.384.937-7.384 4.004 0 2.027 1.353 3.017 3.12 3.017 1.976 0 3.588-1.3 4.108-2.912.104-.415.154-.884.154-1.353l.002-2.756zM433.055 401.957c-1.404.624-4.058 1.145-7.072 1.145-8.217 0-13.469-4.992-13.469-13 0-7.438 5.097-13.521 14.561-13.521 2.08 0 4.368.363 6.032.988l-1.248 5.875c-.936-.416-2.34-.779-4.42-.779-4.16 0-6.864 2.965-6.813 7.125 0 4.68 3.119 7.124 6.969 7.124 1.872 0 3.328-.313 4.523-.78l.937 5.823zM442.934 392.389c.261 3.276 3.484 4.836 7.177 4.836 2.704 0 4.888-.363 7.021-1.039l1.04 5.355c-2.602 1.04-5.772 1.561-9.204 1.561-8.633 0-13.573-4.992-13.573-12.949 0-6.447 4.005-13.571 12.845-13.571 8.217 0 11.336 6.396 11.336 12.688 0 1.353-.154 2.547-.26 3.119h-16.382zm9.308-5.409c0-1.924-.832-5.148-4.472-5.148-3.328 0-4.681 3.018-4.889 5.148h9.361zM488.28 394.417c0 3.328.104 6.032.207 8.164h-6.863l-.363-3.588h-.156c-.988 1.56-3.38 4.159-7.956 4.159-5.148 0-8.944-3.225-8.944-11.076v-14.924h7.956v13.676c0 3.691 1.196 5.929 3.952 5.929 2.186 0 3.434-1.508 3.952-2.756.208-.468.26-1.093.26-1.716v-15.133h7.957l-.002 17.265zM503.462 369.872v7.28h5.668v5.824h-5.668v9.203c0 3.068.728 4.473 3.119 4.473.988 0 1.769-.104 2.341-.207l.052 5.979c-1.04.416-2.912.678-5.147.678-2.549 0-4.681-.886-5.929-2.186-1.456-1.508-2.185-3.952-2.185-7.54v-10.399h-3.381v-5.824h3.381v-5.514l7.749-1.767zM521.869 370.08c0 2.184-1.664 3.952-4.264 3.952-2.496 0-4.16-1.769-4.107-3.952-.053-2.288 1.611-4.004 4.159-4.004s4.161 1.716 4.212 4.004zm-8.164 32.501v-25.429h7.904v25.429h-7.904zM544.698 399.409h-.104c-1.612 2.392-4.16 3.743-7.54 3.743-5.513 0-10.558-4.836-10.558-12.947 0-9.102 5.824-13.625 11.232-13.625 3.276 0 5.668 1.195 7.072 3.536h.104l.208-2.964h7.646c-.053 2.443-.156 4.992-.156 7.645v28.08h-7.904v-13.468zm0-11.596c0-.416-.053-.883-.156-1.299-.416-2.029-2.132-3.797-4.523-3.797-3.64 0-5.46 3.067-5.46 7.176 0 4.265 2.028 7.021 5.355 7.021 2.235 0 4.057-1.51 4.576-3.589.155-.521.208-1.195.208-1.716v-3.796zM582.865 394.417c0 3.328.104 6.032.207 8.164h-6.862l-.364-3.588h-.156c-.988 1.56-3.38 4.159-7.956 4.159-5.147 0-8.944-3.225-8.944-11.076v-14.924h7.956v13.676c0 3.691 1.196 5.929 3.952 5.929 2.186 0 3.434-1.508 3.952-2.756.208-.468.26-1.093.26-1.716v-15.133h7.957l-.002 17.265zM595.291 392.389c.262 3.276 3.484 4.836 7.178 4.836 2.704 0 4.888-.363 7.021-1.039l1.04 5.355c-2.601 1.04-5.771 1.561-9.204 1.561-8.633 0-13.572-4.992-13.572-12.949 0-6.447 4.005-13.571 12.845-13.571 8.217 0 11.336 6.396 11.336 12.688 0 1.353-.155 2.547-.26 3.119h-16.384zm9.309-5.409c0-1.924-.832-5.148-4.472-5.148-3.328 0-4.682 3.018-4.89 5.148h9.362z"/></g></svg>