<?xml version="1.0" encoding="utf-8"?>
<!-- Generator: Adobe Illustrator 19.2.1, SVG Export Plug-In . SVG Version: 6.00 Build 0)  -->
<svg version="1.1" id="layer" xmlns="http://www.w3.org/2000/svg" xmlns:xlink="http://www.w3.org/1999/xlink" x="0px" y="0px"
	 viewBox="0 0 652 652" style="enable-background:new 0 0 652 652;" xml:space="preserve">
<style type="text/css">
	.st0{fill:#75C044;}
</style>
<path class="st0" d="M350.7,250.4c18.5-10,31.4-28.8,33.1-50.7c0-0.9-0.7-1.6-1.6-1.6h-28.5c-0.9,0-1.5,0.7-1.6,1.6
	c-2.3,15.5-15.8,27.4-32.1,27.4c-16.3,0-29.7-11.9-32.1-27.4c-0.1-0.9-0.7-1.6-1.6-1.6H258c-0.9,0-1.6,0.7-1.6,1.6
	c1.6,21.9,14.6,40.7,33.1,50.7c-19.4,10.5-32.6,30.7-33.2,53.9c0,0.9,0.7,1.6,1.6,1.6h28.3c0.9,0,1.6-0.7,1.6-1.6
	c0.9-17,15-30.5,32.4-30.5c17.4,0,31.6,13.5,32.4,30.5c0,0.9,0.7,1.6,1.6,1.6h28.3c0.9,0,1.6-0.7,1.6-1.6
	C383.4,281,370.1,260.9,350.7,250.4 M258,191.7h28.5c0.9,0,1.5-0.7,1.6-1.6c2.3-15.5,15.8-27.4,32.1-27.4
	c16.3,0,29.8,11.9,32.1,27.4c0.1,0.9,0.8,1.6,1.7,1.6h28.4c0.9,0,1.6-0.7,1.6-1.6c-2.4-32.7-30-58.5-63.7-58.5
	c-33.7,0-61.2,25.8-63.7,58.5C256.4,191,257.1,191.7,258,191.7 M476.1,226.4c0,85.3-69.8,154.5-156,154.5
	c-86.1,0-156-69.2-156-154.5c0-85.3,69.8-154.5,156-154.5C406.3,71.9,476.1,141,476.1,226.4"/>
<path class="st0" d="M150,484.3c0-9.3-9.6-12.5-15.3-12.5c-5.6,0-15.3,3.2-15.3,12.5v50.6c0,9.3,9.6,12.4,15.3,12.4
	c5.6,0,15.3-3.1,15.3-12.4V484.3z M174.7,482.4v54.4c0,16.1-12.7,35-39.9,35.1c-27.3-0.1-39.9-19-39.9-35.1v-54.4
	c0-16.1,12.7-35,39.9-35.1C162,447.4,174.7,466.3,174.7,482.4"/>
<polygon class="st0" points="307.3,569.7 307.3,522.3 345.1,522.3 345.1,498 307.5,498 307.5,473.9 351.2,473.9 351.2,449.5 
	282.7,449.5 282.7,569.7 "/>
<path class="st0" d="M384.4,524.8h19.9l-9.8-37.8L384.4,524.8z M410.4,548.4h-32.1l-5.7,21.3h-24.7l31.7-120.1h28.8l32.2,120.1
	h-24.6L410.4,548.4z"/>
<polygon class="st0" points="519.8,449.5 498.1,495.7 476.1,449.5 450.9,449.5 450.9,569.7 475,569.7 475,501.3 490.4,533.3 
	505.8,533.3 521.3,501.4 521.3,569.7 545.4,569.7 545.4,449.5 "/>
<polygon class="st0" points="238.9,509.5 270.3,449.5 241.8,449.5 224.6,484.5 207.4,449.5 178.9,449.5 210.3,509.5 178.7,569.7 
	207.6,569.7 224.6,534.8 241.6,569.7 270.4,569.7 "/>
</svg>
