<svg version="1.2" xmlns="http://www.w3.org/2000/svg" width="266" height="149"><style>.s0{fill:#00adef}.s15{fill:#fff}.s16{fill:#128043}.s17{fill:#21873f}.s18{fill:#308e3c}.s19{fill:#3f9338}.s20{fill:#4f9b34}.s21{fill:#5da131}.s22{fill:#6da82c}.s23{fill:#7cb029}.s24{fill:#8eb822}.s25{fill:#9cbf1e}.s26{fill:#aec719}.s27{fill:#bed114}.s28{fill:#fff200}.s29{fill:#cdd90f}.s30{fill:#e1e20a}.s31{fill:#f2ec04}.s33{fill:#85b424}.s41{fill:#231f20}</style><path class="s0" d="M89.6 45.7c0 11.9-15.3 21.6-34.2 21.6-18.9 0-34.2-9.7-34.2-21.6 0-12 15.3-21.7 34.2-21.7 18.9 0 34.2 9.7 34.2 21.7z"/><path class="s0" d="M84.2 45.5c0 5.8-1.8 11.1-4.8 15.6-6.2 3.8-14.6 6.2-24 6.2S37.5 64.9 31.3 61c-2.9-4.5-4.7-9.8-4.7-15.5 0-5.5 1.7-10.6 4.5-15 6.2-4 14.8-6.5 24.3-6.5s18.1 2.5 24.3 6.4c2.8 4.4 4.5 9.6 4.5 15.1z"/><path d="M82.7 45.5c0 6.6-2.4 12.6-6.3 17.3-5.8 2.8-13.1 4.5-21 4.5-7.8 0-15.1-1.7-20.9-4.5-4-4.7-6.4-10.7-6.4-17.3 0-6.3 2.3-12.2 6.1-16.8C40 25.8 47.4 24 55.4 24c8.1 0 15.5 1.8 21.3 4.7 3.8 4.6 6 10.5 6 16.8z" style="fill:#12b3f0"/><path d="M81.3 45.5c0 7.5-3.2 14.1-8.4 18.8-5.1 1.9-11.1 3-17.5 3-6.3 0-12.3-1.1-17.4-3-5.2-4.7-8.4-11.4-8.4-18.8 0-7.2 3-13.7 7.9-18.3 5.3-2 11.4-3.2 17.9-3.2 6.6 0 12.7 1.2 17.9 3.2 4.9 4.6 8 11.1 8 18.3z" style="fill:#24b9f1"/><path d="M79.8 45.5c0 8.4-4.4 15.8-11.1 20.1-4 1.1-8.5 1.7-13.3 1.7-4.7 0-9.3-.6-13.4-1.8-6.6-4.2-11-11.6-11-20 0-8.1 4.1-15.2 10.4-19.6 4.3-1.2 9-1.9 14-1.9s9.7.7 13.9 1.9c6.4 4.3 10.5 11.5 10.5 19.6z" style="fill:#36bef2"/><path d="M78.4 45.5c0 9.8-6.3 18.1-15.1 21.2q-3.8.6-7.9.6-4 0-7.8-.6c-8.8-3.1-15.1-11.4-15.1-21.2 0-9.3 5.8-17.3 14.1-20.7q4.2-.8 8.8-.8 4.7 0 8.9.8c8.3 3.4 14.1 11.4 14.1 20.7z" style="fill:#47c4f3"/><path d="M76.9 45.5c0 11.7-9.6 21.1-21.5 21.1-11.8 0-21.4-9.4-21.4-21.1 0-11.6 9.6-21.1 21.4-21.1 11.9 0 21.5 9.5 21.5 21.1z" style="fill:#59caf5"/><path d="M75.4 45.5c0 10.9-9 19.7-20 19.7-11.1 0-20-8.8-20-19.7 0-10.8 8.9-19.6 20-19.6 11 0 20 8.8 20 19.6z" style="fill:#6bcff6"/><path d="M74 45.5c0 10.1-8.3 18.3-18.6 18.3-10.2 0-18.5-8.2-18.5-18.3 0-10 8.3-18.2 18.5-18.2 10.3 0 18.6 8.2 18.6 18.2z" style="fill:#7dd5f7"/><path d="M72.6 45.5c0 9.3-7.7 16.9-17.2 16.9-9.4 0-17.1-7.6-17.1-16.9 0-9.2 7.7-16.8 17.1-16.8 9.5 0 17.2 7.6 17.2 16.8z" style="fill:#8cdaf8"/><path d="M71.1 45.5c0 8.5-7.1 15.4-15.7 15.4-8.7 0-15.7-6.9-15.7-15.4 0-8.4 7-15.3 15.7-15.3 8.6 0 15.7 6.9 15.7 15.3z" style="fill:#9ee0f9"/><path d="M69.6 45.5c0 7.7-6.3 14-14.2 14-7.8 0-14.2-6.3-14.2-14s6.4-13.9 14.2-13.9c7.9 0 14.2 6.2 14.2 13.9z" style="fill:#b0e6fa"/><path d="M68.2 45.5c0 7-5.7 12.6-12.8 12.6-7 0-12.7-5.6-12.7-12.6 0-6.9 5.7-12.5 12.7-12.5 7.1 0 12.8 5.6 12.8 12.5z" style="fill:#bfeafb"/><path d="M66.7 45.5c0 6.2-5.1 11.1-11.3 11.1-6.2 0-11.3-4.9-11.3-11.1 0-6.1 5.1-11 11.3-11 6.2 0 11.3 4.9 11.3 11z" style="fill:#d1f0fc"/><path d="M65.3 45.5c0 5.4-4.4 9.7-9.9 9.7-5.4 0-9.8-4.3-9.8-9.7 0-5.3 4.4-9.6 9.8-9.6 5.5 0 9.9 4.3 9.9 9.6z" style="fill:#e0f5fd"/><path d="M63.8 45.5c0 4.6-3.7 8.3-8.4 8.3-4.6 0-8.3-3.7-8.3-8.3 0-4.5 3.7-8.2 8.3-8.2 4.7 0 8.4 3.7 8.4 8.2z" style="fill:#f2fbfe"/><path class="s15" d="M62.3 45.5c0 3.8-3.1 6.8-6.9 6.8-3.8 0-6.9-3-6.9-6.8 0-3.7 3.1-6.8 6.9-6.8 3.8 0 6.9 3.1 6.9 6.8z"/><path class="s16" d="M38.5 46.6c.2.4.2.6 0 .4-.2-.1-.4-.4-.4-.7 0-.2.1-.1.3.3h.1z"/><path class="s16" d="M38.5 46.6c.2.4.2.6 0 .4-.2-.1-.4-.4-.4-.7 0-.2.1-.1.3.3h.1z"/><path class="s17" d="M38.5 46.6c.2.4.2.6 0 .4-.2-.1-.4-.4-.4-.7 0-.2.1-.1.3.3h.1z"/><path class="s18" d="M38.5 46.6c.2.4.2.6 0 .4-.2-.1-.4-.4-.4-.7 0-.2.1-.1.3.3h.1z"/><path class="s19" d="M38.5 46.6c.2.4.2.6 0 .4-.2-.1-.4-.4-.4-.7 0-.2.1-.1.3.3h.1z"/><path class="s20" d="M38.5 46.6c.2.4.2.6 0 .4-.2-.1-.4-.4-.4-.7 0-.2.1-.1.3.3h.1z"/><path class="s21" d="M38.5 46.6c.2.4.2.6 0 .4-.2-.1-.4-.4-.4-.7 0-.2.1-.1.3.3h.1z"/><path class="s16" d="M38.2 48.1c0 .2-.3.3-.6.2q-.1-.1-.2-.1c-.4-.1-.6-.4-.6-.6.1-.3.3-.4.6-.2q.2 0 .3.1c.3.1.6.4.5.6z"/><path class="s16" d="M38.2 48.1c0 .2-.3.3-.6.2q-.1-.1-.2-.1c-.4-.1-.6-.4-.6-.6.1-.3.3-.4.6-.2q.2 0 .3.1c.3.1.6.4.5.6z"/><path class="s17" d="M38.2 48.1c0 .2-.3.3-.6.2q-.1-.1-.2-.1c-.4-.1-.6-.4-.6-.6.1-.3.3-.4.6-.2q.2 0 .3.1c.3.1.6.4.5.6z"/><path class="s18" d="M38.2 48.1c0 .2-.3.3-.6.2q-.1-.1-.2-.1c-.4-.1-.6-.4-.6-.6.1-.3.3-.4.6-.2q.2 0 .3.1c.3.1.6.4.5.6z"/><path class="s19" d="M38.2 48.1c0 .2-.3.3-.6.2q-.1-.1-.2-.1c-.4-.1-.6-.4-.6-.6.1-.3.3-.4.6-.2q.2 0 .3.1c.3.1.6.4.5.6z"/><path class="s20" d="M38.2 48.1c0 .2-.3.3-.6.2q-.1-.1-.2-.1c-.4-.1-.6-.4-.6-.6.1-.3.3-.4.6-.2q.2 0 .3.1c.3.1.6.4.5.6z"/><path class="s21" d="M37.7 48.3q-.1-.1-.1-.2v-.5q0-.1-.1-.2.1.1.2.1c.3.1.6.4.5.6 0 .2-.2.3-.5.2z"/><path class="s16" d="M32.2 57.4c.1.2.2.4.3.5-.1.1-.2 0-.4-.1-.2-.2-.3-.4-.3-.5 0-.1.2-.1.4.1zm36-1.3c.1 0 .1.4 0 .7-.3.6-.5 1.1-.7 1.6-.2.3-.5.4-.8.3q0-.1-.1-.2c-.3-.1-.4-.5-.2-.8v-.1c.1-.3.5-.8.8-1q.1-.1.3-.2c.3-.3.6-.4.7-.3z"/><path class="s16" d="M68.2 56.1c.1 0 .1.4 0 .7-.3.6-.5 1.1-.7 1.6-.2.3-.5.4-.8.3q0-.1-.1-.2c-.3-.1-.4-.5-.2-.8v-.1c.1-.3.5-.8.8-1q.1-.1.3-.2c.3-.3.6-.4.7-.3z"/><path class="s17" d="M68.2 56.1c.1 0 .1.4 0 .7-.3.6-.5 1.1-.7 1.6-.2.3-.5.4-.8.3q0-.1-.1-.2c-.3-.1-.4-.5-.2-.8v-.1c.1-.3.5-.8.8-1q.1-.1.3-.2c.3-.3.6-.4.7-.3z"/><path class="s18" d="M68.2 56.1c.1 0 .1.4 0 .7-.3.6-.5 1.1-.7 1.6-.2.3-.5.4-.8.3q0-.1-.1-.2c-.3-.1-.4-.5-.2-.8v-.1c.1-.3.5-.8.8-1q.1-.1.3-.2c.3-.3.6-.4.7-.3z"/><path class="s19" d="M68.2 56.1c.1 0 .1.4 0 .7-.3.6-.5 1.1-.7 1.6-.2.3-.5.4-.8.3q0-.1-.1-.2c-.3-.1-.4-.5-.2-.8v-.1c.1-.3.5-.8.8-1q.1-.1.3-.2c.3-.3.6-.4.7-.3z"/><path class="s20" d="M68.2 56.1c.1 0 .1.4 0 .7-.3.6-.5 1.1-.7 1.6-.2.3-.5.4-.8.3q0-.1-.1-.2c-.3-.1-.4-.5-.2-.8v-.1c.1-.3.5-.8.8-1q.1-.1.3-.2c.3-.3.6-.4.7-.3z"/><path class="s21" d="M68.2 56.1c.1 0 .1.4 0 .7-.3.6-.5 1.1-.7 1.6-.2.3-.5.4-.8.3q0-.1-.1-.2c-.3-.1-.4-.5-.2-.8v-.1c.1-.3.5-.8.8-1q.1-.1.3-.2c.3-.3.6-.4.7-.3z"/><path class="s22" d="M68.2 56.1c.1 0 .1.4 0 .7-.3.6-.5 1.1-.7 1.6-.2.3-.5.4-.8.3q0-.1-.1-.2c-.3-.1-.4-.5-.2-.8v-.1c.1-.3.5-.8.8-1q.1-.1.3-.2c.3-.3.6-.4.7-.3z"/><path class="s23" d="M67.5 58.2q-.2.3-.4.5h-.4q0-.1-.1-.2c-.3-.1-.4-.5-.2-.8v-.1c.1-.3.5-.8.8-1q.1-.1.3-.2c.3-.3.6-.4.7-.3.1 0 .1.4 0 .7l-.7 1.4z"/><path class="s16" d="M52.6 33.4c-.4.3-.8.2-1-.1l-.4-.6c-.2-.3 0-.7.4-.8l.8-.2c.4-.1.9 0 1.1.2.3.3.3.7-.1.9l-.8.6z"/><path class="s16" d="M52.6 33.4c-.4.3-.8.2-1-.1l-.4-.6c-.2-.3 0-.7.4-.8l.8-.2c.4-.1.9 0 1.1.2.3.3.3.7-.1.9l-.8.6z"/><path class="s17" d="M52.6 33.4c-.4.3-.8.2-1-.1l-.4-.6c-.2-.3 0-.7.4-.8l.8-.2c.4-.1.9 0 1.1.2.3.3.3.7-.1.9l-.8.6z"/><path class="s18" d="M52.6 33.4c-.4.3-.8.2-1-.1l-.4-.6c-.2-.3 0-.7.4-.8l.8-.2c.4-.1.9 0 1.1.2.3.3.3.7-.1.9l-.8.6z"/><path class="s19" d="M52.6 33.4c-.4.3-.8.2-1-.1l-.4-.6c-.2-.3 0-.7.4-.8l.8-.2c.4-.1.9 0 1.1.2.3.3.3.7-.1.9l-.8.6z"/><path class="s20" d="M52.6 33.4c-.4.3-.8.2-1-.1l-.4-.6c-.2-.3 0-.7.4-.8l.8-.2c.4-.1.9 0 1.1.2.3.3.3.7-.1.9l-.8.6z"/><path class="s21" d="M52.6 33.4c-.4.3-.8.2-1-.1l-.4-.6c-.2-.3 0-.7.4-.8l.8-.2c.4-.1.9 0 1.1.2.3.3.3.7-.1.9l-.8.6z"/><path class="s22" d="M52.6 33.4c-.4.3-.8.2-1-.1l-.4-.6c-.2-.3 0-.7.4-.8l.8-.2c.4-.1.9 0 1.1.2.3.3.3.7-.1.9l-.8.6z"/><path class="s23" d="M52.6 33.4c-.4.3-.8.2-1-.1l-.4-.6c-.2-.3 0-.7.4-.8l.8-.2c.4-.1.9 0 1.1.2.3.3.3.7-.1.9l-.8.6z"/><path class="s24" d="M52.6 33.4c-.4.3-.8.2-1-.1l-.4-.6c-.2-.3 0-.7.4-.8l.8-.2c.4-.1.9 0 1.1.2.3.3.3.7-.1.9l-.8.6z"/><path class="s25" d="M52.6 33.4c-.4.3-.8.2-1-.1l-.4-.6c-.2-.3 0-.7.4-.8l.8-.2c.4-.1.9 0 1.1.2.3.3.3.7-.1.9l-.8.6z"/><path class="s26" d="M52.6 33.4c-.4.3-.8.2-1-.1l-.4-.6c-.2-.3 0-.7.4-.8l.8-.2c.4-.1.9 0 1.1.2.3.3.3.7-.1.9l-.8.6z"/><path class="s27" d="M51.5 33.1q.3-.1.5-.2.3-.2.6-.3.3-.1.5-.2.3-.1.6-.1 0 .3-.3.5l-.8.6c-.4.3-.8.2-1-.1z"/><path class="s16" d="M31.1 56.3c.2.3.4.4.3.5-.1.1-.2 0-.4-.2s-.3-.5-.3-.6c0-.2.1-.1.3.2l.1.1zm10.4-6.5c-.1 0-.5 0-.9-.2l-1.2-.6c-.3-.2-.5-.4-.5-.6 0-.1.3-.1.6.1l1.6.8c.4.2.5.4.4.5z"/><path class="s16" d="M41.5 49.8c-.1 0-.5 0-.9-.2l-1.2-.6c-.3-.2-.5-.4-.5-.6 0-.1.3-.1.6.1l1.6.8c.4.2.5.4.4.5z"/><path class="s17" d="M41.5 49.8c-.1 0-.5 0-.9-.2l-1.2-.6c-.3-.2-.5-.4-.5-.6 0-.1.3-.1.6.1l1.6.8c.4.2.5.4.4.5z"/><path class="s18" d="M41.5 49.8c-.1 0-.5 0-.9-.2l-1.2-.6c-.3-.2-.5-.4-.5-.6 0-.1.3-.1.6.1l1.6.8c.4.2.5.4.4.5z"/><path class="s19" d="M41.5 49.8c-.1 0-.5 0-.9-.2l-1.2-.6c-.3-.2-.5-.4-.5-.6 0-.1.3-.1.6.1l1.6.8c.4.2.5.4.4.5z"/><path class="s20" d="M41.5 49.8c-.1 0-.5 0-.9-.2l-1.2-.6c-.3-.2-.5-.4-.5-.6 0-.1.3-.1.6.1l1.6.8c.4.2.5.4.4.5z"/><path class="s21" d="M41.5 49.8c-.1 0-.5 0-.9-.2l-1.2-.6c-.3-.2-.5-.4-.5-.6 0-.1.3-.1.6.1l1.6.8c.4.2.5.4.4.5z"/><path class="s22" d="M39 48.7v-.4q.1-.1.5.2l1.6.8c.4.2.5.4.4.5-.1 0-.5 0-.9-.2l-1.2-.6q-.2-.1-.4-.3z"/><path class="s23" d="m40.6 49.6-.2-.6q.4.2.7.3c.4.2.5.4.4.5-.1 0-.5 0-.9-.2z"/><path class="s16" d="M26.1 45.1v.5V45.3c-.1-.3-.1-.4 0-.3v.1zm1.9-9.2c-.1.1 0 0 0 .1q-.1.1-.1.2c-.1.1 0 .1-.2.3v.1c0-.1-.1 0 0 0l-.1.1c0 .2-.2 0-.4 0-.3 0-.6 0-.7.1-.2.1-.1.3 0 .4.2.2.1.4-.2.5q-.1 0-.2.1c-.3 0-.5-.1-.5-.4v-2.1c0-.3.2-.4.4-.3q.6.2 1.1.4.2.1.5.3c.2 0 .5 0 .4.2z"/><path class="s16" d="M28 35.9c-.1.1 0 0 0 .1q-.1.1-.1.2c-.1.1 0 .1-.2.3v.1c0-.1-.1 0 0 0l-.1.1c0 .2-.2 0-.4 0-.3 0-.6 0-.7.1-.2.1-.1.3 0 .4.2.2.1.4-.2.5q-.1 0-.2.1c-.3 0-.5-.1-.5-.4v-2.1c0-.3.2-.4.4-.3q.6.2 1.1.4.2.1.5.3c.2 0 .5 0 .4.2z"/><path class="s28" d="M27.3 35.6q.1.1.1.2v.3q0 .2-.1.3 0 .2-.1.3c-.3 0-.6 0-.7.1-.1.1-.1.2 0 .4H26q-.1 0-.2-.1h-.2v-1.8c0-.3.2-.4.4-.3q.6.2 1.1.4z"/><path class="s16" d="M53.9 37.2c-.2-.1-.2-.6-.1-.9.2-.3.5-.4.7-.1.3.3.3.7.1 1-.2.2-.5.3-.7 0z"/><path class="s16" d="M53.9 37.2c-.2-.1-.2-.6-.1-.9.2-.3.5-.4.7-.1.3.3.3.7.1 1-.2.2-.5.3-.7 0z"/><path class="s17" d="M53.9 37.2c-.2-.1-.2-.6-.1-.9.2-.3.5-.4.7-.1.3.3.3.7.1 1-.2.2-.5.3-.7 0z"/><path class="s18" d="M53.9 37.2c-.2-.1-.2-.6-.1-.9.2-.3.5-.4.7-.1.3.3.3.7.1 1-.2.2-.5.3-.7 0z"/><path class="s19" d="M53.9 37.2c-.2-.1-.2-.6-.1-.9.2-.3.5-.4.7-.1.3.3.3.7.1 1-.2.2-.5.3-.7 0z"/><path class="s20" d="M53.9 37.2c-.2-.1-.2-.6-.1-.9.2-.3.5-.4.7-.1.3.3.3.7.1 1-.2.2-.5.3-.7 0z"/><path class="s21" d="M53.9 37.2c-.2-.1-.2-.6-.1-.9.2-.3.5-.4.7-.1.3.3.3.7.1 1-.2.2-.5.3-.7 0z"/><path class="s22" d="M53.9 37.2c-.2-.1-.2-.6-.1-.9.2-.3.5-.4.7-.1.3.3.3.7.1 1-.2.2-.5.3-.7 0z"/><path class="s23" d="M53.9 37.2c-.2-.1-.2-.6-.1-.9.2-.3.5-.4.7-.1.3.3.3.7.1 1-.2.2-.5.3-.7 0z"/><path class="s24" d="M53.9 37.2c-.2-.1-.2-.6-.1-.9.2-.3.5-.4.7-.1.3.3.3.7.1 1-.2.2-.5.3-.7 0z"/><path class="s25" d="M53.9 37.2c-.2-.1-.2-.6-.1-.9.2-.3.5-.4.7-.1.3.3.3.7.1 1-.2.2-.5.3-.7 0z"/><path class="s26" d="M53.9 37.2c-.2-.1-.2-.6-.1-.9.2-.3.5-.4.7-.1.3.3.3.7.1 1-.2.2-.5.3-.7 0z"/><path class="s27" d="M53.9 37.2c-.2-.1-.2-.6-.1-.9.2-.3.5-.4.7-.1.3.3.3.7.1 1-.2.2-.5.3-.7 0z"/><path class="s29" d="M53.9 37.2c-.2-.1-.2-.6-.1-.9.2-.3.5-.4.7-.1.3.3.3.7.1 1-.2.2-.5.3-.7 0z"/><path class="s30" d="M53.9 37.2c-.2-.1-.2-.6-.1-.9.2-.3.5-.4.7-.1.3.3.3.7.1 1-.2.2-.5.3-.7 0z"/><path class="s31" d="M53.7 36.8q.5-.2 1-.3c.1.2 0 .5-.1.7-.2.2-.5.3-.7 0q-.2-.1-.2-.4z"/><path class="s16" d="M27.3 47.2c.1.2.2.6.2.8 0 .1-.1.1-.2-.1q-.1-.1-.1-.2c-.1-.2-.2-.3-.3-.2-.1.1-.2.1-.2-.1q-.2-.3-.3-.6c0-.2-.1-.5-.1-.6q0-.2.1 0c.1.2.2.3.3.5q.1.2.2 0c.1-.1.2 0 .3.3q.1.1.1.2z"/><path class="s16" d="M27.3 47.2c.1.2.2.6.2.8 0 .1-.1.1-.2-.1q-.1-.1-.1-.2c-.1-.2-.2-.3-.3-.2-.1.1-.2.1-.2-.1q-.2-.3-.3-.6c0-.2-.1-.5-.1-.6q0-.2.1 0c.1.2.2.3.3.5q.1.2.2 0c.1-.1.2 0 .3.3q.1.1.1.2z"/><path class="s28" d="M27.3 47.2c.1.2.2.6.2.8 0 .1-.1.1-.2-.1q-.1-.1-.1-.2c-.1-.2-.2-.3-.3-.2-.1.1-.2.1-.2-.1q-.2-.3-.3-.6c0-.2-.1-.5-.1-.6q0-.2.1 0c.1.2.2.3.3.5q.1.2.2 0c.1-.1.2 0 .3.3q.1.1.1.2z"/><path class="s16" d="M27.7 36.6c0-.1-.1 0 0 0zm27.5-.8c-.3-.3-.3-.7-.1-1 .2-.2.5-.1.6.2.1.3.4.7.7 1 .3.2.4.6.4.9 0 .2-.3.5-.8.5-.4 0-.7-.3-.5-.5.1-.3 0-.8-.3-1.1z"/><path class="s16" d="M55.2 35.8c-.3-.3-.3-.7-.1-1 .2-.2.5-.1.6.2.1.3.4.7.7 1 .3.2.4.6.4.9 0 .2-.3.5-.8.5-.4 0-.7-.3-.5-.5.1-.3 0-.8-.3-1.1z"/><path class="s17" d="M55.2 35.8c-.3-.3-.3-.7-.1-1 .2-.2.5-.1.6.2.1.3.4.7.7 1 .3.2.4.6.4.9 0 .2-.3.5-.8.5-.4 0-.7-.3-.5-.5.1-.3 0-.8-.3-1.1z"/><path class="s18" d="M55.2 35.8c-.3-.3-.3-.7-.1-1 .2-.2.5-.1.6.2.1.3.4.7.7 1 .3.2.4.6.4.9 0 .2-.3.5-.8.5-.4 0-.7-.3-.5-.5.1-.3 0-.8-.3-1.1z"/><path class="s19" d="M55.2 35.8c-.3-.3-.3-.7-.1-1 .2-.2.5-.1.6.2.1.3.4.7.7 1 .3.2.4.6.4.9 0 .2-.3.5-.8.5-.4 0-.7-.3-.5-.5.1-.3 0-.8-.3-1.1z"/><path class="s20" d="M55.2 35.8c-.3-.3-.3-.7-.1-1 .2-.2.5-.1.6.2.1.3.4.7.7 1 .3.2.4.6.4.9 0 .2-.3.5-.8.5-.4 0-.7-.3-.5-.5.1-.3 0-.8-.3-1.1z"/><path class="s21" d="M55.2 35.8c-.3-.3-.3-.7-.1-1 .2-.2.5-.1.6.2.1.3.4.7.7 1 .3.2.4.6.4.9 0 .2-.3.5-.8.5-.4 0-.7-.3-.5-.5.1-.3 0-.8-.3-1.1z"/><path class="s22" d="M55.2 35.8c-.3-.3-.3-.7-.1-1 .2-.2.5-.1.6.2.1.3.4.7.7 1 .3.2.4.6.4.9 0 .2-.3.5-.8.5-.4 0-.7-.3-.5-.5.1-.3 0-.8-.3-1.1z"/><path class="s23" d="M55.2 35.8c-.3-.3-.3-.7-.1-1 .2-.2.5-.1.6.2.1.3.4.7.7 1 .3.2.4.6.4.9 0 .2-.3.5-.8.5-.4 0-.7-.3-.5-.5.1-.3 0-.8-.3-1.1z"/><path class="s24" d="M55.2 35.8c-.3-.3-.3-.7-.1-1 .2-.2.5-.1.6.2.1.3.4.7.7 1 .3.2.4.6.4.9 0 .2-.3.5-.8.5-.4 0-.7-.3-.5-.5.1-.3 0-.8-.3-1.1z"/><path class="s25" d="M55.2 35.8c-.3-.3-.3-.7-.1-1 .2-.2.5-.1.6.2.1.3.4.7.7 1 .3.2.4.6.4.9 0 .2-.3.5-.8.5-.4 0-.7-.3-.5-.5.1-.3 0-.8-.3-1.1z"/><path class="s26" d="M55.2 35.8c-.3-.3-.3-.7-.1-1 .2-.2.5-.1.6.2.1.3.4.7.7 1 .3.2.4.6.4.9 0 .2-.3.5-.8.5-.4 0-.7-.3-.5-.5.1-.3 0-.8-.3-1.1z"/><path class="s27" d="M55.2 35.8c-.3-.3-.3-.7-.1-1 .2-.2.5-.1.6.2.1.3.4.7.7 1 .3.2.4.6.4.9 0 .2-.3.5-.8.5-.4 0-.7-.3-.5-.5.1-.3 0-.8-.3-1.1z"/><path class="s29" d="M55.2 35.8c-.3-.3-.3-.7-.1-1 .2-.2.5-.1.6.2.1.3.4.7.7 1 .3.2.4.6.4.9 0 .2-.3.5-.8.5-.4 0-.7-.3-.5-.5.1-.3 0-.8-.3-1.1z"/><path class="s30" d="M55 35q.3-.1.7-.1v.1c.1.3.4.7.7 1 .3.2.4.6.4.9 0 .2-.3.5-.8.5-.4 0-.7-.3-.5-.5.1-.3 0-.8-.3-1.1-.2-.3-.3-.6-.2-.8z"/><path class="s31" d="M55.5 36.3H56.7c.1.2.1.4.1.6 0 .2-.3.5-.8.5-.4 0-.7-.3-.5-.5q.1-.3 0-.6z"/><path class="s16" d="M80.1 57.9zm4.4-17c.2.2.2.6.2.9q-.1.4-.2.9c-.1.3-.3.6-.4.8q-.2.2-.4.5c-.2.1-.4.1-.5-.1 0-.2 0-.5.2-.6l.4-.6c.1-.1.3-.5.3-.9q.1-.3.1-.7c0-.3.1-.4.3-.3v.1z"/><path fill-rule="evenodd" class="s16" d="M85.5 37.1h-.2c-.1-.1-.1.1 0 .3 0 .3.1.6.1.8v.9q0 .4-.2-.1 0-.3-.1-.6c-.1-.4-.2-.8-.2-1v-.1c0-.2 0-.4-.1-.4q-.3-.1-.6-.1c-.1 0-.2.1-.3.2l-.2.2c-.1.2-.2.4-.2.6 0 .2.1.4.3.3.1 0 .3.2.3.5q.1.3.1.6c.1.3.1.6-.1.6 0 0-.1.2-.2.5 0 .2-.1.5-.2.7q-.1.2-.3.5c-.1.2-.2.5-.2.7.1.2 0 .6-.1.8H83c-.1.2-.3.1-.4-.2v-.2c-.1-.3-.2-.5-.3-.4-.1.1-.2.5-.2.9v1.5c.1.4-.1.8-.3 1-.5.5-.9 1-1.5 1.5-.2.2-.3.6-.2.9q.1.1.1.2c.1.3 0 .7-.2 1q-.2.1-.3.2c-.2.2-.5.1-.6-.2 0-.3-.2-.6-.2-.5-.1 0-.1.3-.1.7 0 .4.2.8.3 1q.1 0 .1.1c.2.1.2.4.1.5-.1.1-.2.2-.4.2-.1-.1-.2 0-.2.2 0 .1.1.3.2.3s.3.2.3.6c0 .3.1.6.3.7q.2 0 .3.1c.2.1.3.3.3.4 0 .2-.2.3-.4.3q-.2-.1-.5-.1c-.2 0-.4-.2-.5-.4q-.5-.9-1-2c-.1-.3-.1-.5.2-.5.2 0 .3-.2.3-.6-.2-.8-.4-1.7-.6-2.6-.1-.3-.2-.9-.1-1.2 0-.3-.1-.5-.2-.6-.1.1-.2.3-.3.6-.1.3-.3.7-.6 1q-.2.3-.5.5c-.3.3-.5.8-.5 1.2-.1.4-.3.8-.6.9h-.1c-.3.1-.6-.1-.7-.4l-.2-1.2c-.1-.4-.3-.7-.4-.8-.1 0-.2-.4-.2-.9.1-.4-.2-.8-.5-.9-1.1-.2-2.2-.4-3.4-.7-.3-.1-.4.2-.3.5.1.1.1.2.1.2.2.4.5.6.8.5.2-.1.5.1.8.4.2.3.2.8 0 1.1l-.1.1c-.2.4-.7.8-1 .9q-.5.2-.9.4c-.4.2-.8 0-.9-.3-.5-1.2-1-2.4-1.6-3.7-.1-.4-.4-.7-.6-.7h-.1c-.1-.2-.4-.4-.6-.6l.2-.2c.1-.1.2-.5.2-1 0-.4-.2-.4-.4-.1 0 .1-.1.2-.1.2-.3.4-.6.4-.9 0l-.4-.6c-.3-.4-.4-.3-.4.1q0 .2.1.4c0 .4-.2.6-.5.3h-.1c-.3-.3-.6-.9-.7-1.3 0-.4-.3-1-.6-1.4q-.2-.3-.5-.7c-.3-.3-.5-.5-.6-.4-.1.1 0 .4.3.8q.2.3.3.5c.3.4.3 1 .1 1.3-.2.4-.5.3-.6-.1-.1-.4-.4-1-.7-1.2 0-.1-.1-.1-.2-.2-.3-.2-.7-.3-1-.1-.2.2-.4.3-.6.3-.1-.1-.4.1-.7.4l-1.5 1.5c-.3.3-.7.3-.8-.2l-.4-1.2c-.2-.5 0-.8.5-.8q.1.1.3.1c.4 0 .8-.2.9-.4.1-.3 0-.6-.2-.8-.2-.2-.1-.6.2-.9.4-.2.8-.5.9-.5.2 0 .6-.3.9-.6l.2-.2c.3-.3.4-.7.3-1-.1-.2 0-.5.2-.6.1-.1.4 0 .5.2.1.2.6.3 1 .3h.7c.4-.1.7-.2.7-.4.1-.2.4-.4.7-.6l1-.4c.4-.1.6-.3.4-.5-.1-.1-.5-.2-.8 0h-.2c-.3.1-.7 0-.9-.3-.1-.2 0-.6.3-.9.3-.2.4-.5.2-.7-.2-.2-.5-.1-.7.2q-.3.3-.5.7c-.2.3-.3.6-.2.8.2.1.3.4.3.8-.1.3-.4.7-.7.8h-.1c-.3.1-.7 0-.8-.3-.1-.2-.5-.4-.9-.3h-.1c-.4 0-.7-.2-.6-.6 0-.4.2-.9.4-1.3.6-.7 1-1.4 1.5-2.1.3-.3.7-.6 1.1-.7l1.2-.2c.4-.1.9-.1 1.3 0 .8.3 1.7.5 2.5.7.4.2.5.4.4.7-.2.3-.6.5-1 .4h-.1c-.4 0-.5.2-.2.4 0 .1.1.1.1.1.3.3.7.4 1 .2.6-.4 1.1-.8 1.6-1.1.3-.2.8-.3 1.1-.3h.6c.3.1.4-.1.1-.4L69 30c-.3-.3-.3-.7-.1-.9q.2-.2.4-.5c.2-.2.5-.4.8-.5l.6-.2c.3 0 .5 0 .7.2.1.2 0 .3-.3.4-.2 0-.4.1-.6.1-.2.1-.6.3-.8.5q0 .1-.1.2c-.2.3-.1.6.2.8.4.3.8.5 1.2.8.3.2.4.2.3 0-.1-.2-.1-.5.1-.7q.2-.1.3-.3c.2-.2.6-.2.9-.1l1 .4c.3.1.6.1.6-.1.1-.2.3-.4.5-.4.7-.2 1.3-.4 1.9-.5.2-.1.6 0 .8.1l1.2.6c.2.2.3.3.2.4q-.3.2-.5.3c-.1.1 0 .3.2.3 1.2.5 2.3 1 3.1 1.5.2.1.3 0 .4-.1v-.2c0-.1.1 0 .3.2.1.3.4.5.5.6q.4.3.7.6c.1.1.2.3.4.4.1.2.2.3.2.3l.2.2c.1.2.1.3.3.5q.4.9.7 1.8.1.2.2.3c0 .1.1.2 0 .1zm-18.1 3.6v-.1c-.2-.4-.6-.8-.8-.8-.2-.1-.4 0-.3.2 0 .2-.1.4-.3.4-.2 0-.5-.1-.6-.4-.2-.2-.5-.1-.8.2 0 .1 0 .1-.1.1-.2.4-.4.9-.3 1.2 0 .2.3.2.5 0 .3-.2.6-.4.8-.4.2.1.7.1 1.1.1q.3.1.5.1c.4 0 .6-.2.3-.6zm3.4 1.7v-.2c-.2-.4-.2-.9-.1-1.2.2-.2.2-.5.1-.6-.1-.2-.3-.1-.4 0-.2.2-.3.7-.2 1.1v1.1c.1.4.3.7.5.7.2-.1.3-.5.1-.9zm2.1-1.4c-.1-.2-.2-.4-.4-.4-.1 0-.2.2-.2.5.1.3.2.5.4.5.1-.1.2-.3.2-.6z"/><path fill-rule="evenodd" class="s16" d="M81.6 44.7v1.2c-.4.4-.8.8-1.3 1.2-.2.2-.3.6-.2.9q.1.1.1.2c.1.3 0 .7-.2 1q-.2.1-.3.2c-.2.2-.5.1-.6-.2 0-.3-.2-.6-.2-.5-.1 0-.1.3-.1.7 0 .4.2.8.3 1q.1 0 .1.1c.2.1.2.4.1.5-.1.1-.2.2-.4.2-.1-.1-.2 0-.2.2 0 .1.1.3.2.3s.3.2.3.6c0 .3.1.6.3.7q.2 0 .3.1c.2.1.3.3.3.4 0 .2-.2.3-.4.3q-.2-.1-.5-.1c-.2 0-.4-.2-.5-.4q-.5-.9-1-2c-.1-.3-.1-.5.2-.5.2 0 .3-.2.3-.6-.2-.8-.4-1.7-.6-2.6-.1-.3-.2-.9-.1-1.2 0-.3-.1-.5-.2-.6-.1.1-.2.3-.3.6-.1.3-.3.7-.6 1q-.2.3-.5.5c-.3.3-.5.8-.5 1.2-.1.4-.3.8-.6.9h-.1c-.3.1-.6-.1-.7-.4l-.2-1.2c-.1-.4-.3-.7-.4-.8-.1 0-.2-.4-.2-.9.1-.4-.2-.8-.5-.9-1.1-.2-2.2-.4-3.4-.7-.3-.1-.4.2-.3.5.1.1.1.2.1.2.2.4.5.6.8.5.2-.1.5.1.8.4.2.3.2.8 0 1.1l-.1.1c-.2.4-.7.8-1 .9q-.5.2-.9.4c-.4.2-.8 0-.9-.3-.5-1.2-1-2.4-1.6-3.7-.1-.4-.4-.7-.6-.7h-.1c-.1-.2-.4-.4-.6-.6l.2-.2c.1-.1.2-.5.2-1 0-.4-.2-.4-.4-.1 0 .1-.1.2-.1.2-.3.4-.6.4-.9 0l-.4-.6c-.3-.4-.4-.3-.4.1q0 .2.1.4c0 .4-.2.6-.5.3h-.1c-.3-.3-.6-.9-.7-1.3 0-.4-.3-1-.6-1.4l-.1-.1q-.1-.1-.1-.2l-.2-.2q0-.1-.1-.2c-.3-.3-.5-.5-.6-.4-.1.1 0 .4.3.8q.2.3.3.5c.3.4.3 1 .1 1.3-.2.4-.5.3-.6-.1-.1-.4-.4-1-.7-1.2 0-.1-.1-.1-.2-.2-.3-.2-.7-.3-1-.1-.2.2-.4.3-.6.3-.1-.1-.4.1-.7.4l-.4.4-.4.4q-.2.1-.4.3-.1.2-.3.4c-.3.3-.7.3-.8-.2l-.4-1.2c-.2-.5 0-.8.5-.8q.1.1.3.1c.4 0 .8-.2.9-.4.1-.3 0-.6-.2-.8-.2-.2-.1-.6.2-.9.4-.2.8-.5.9-.5.2 0 .6-.3.9-.6l.2-.2c.3-.3.4-.7.3-1-.1-.2 0-.5.2-.6.1-.1.4 0 .5.2.1.2.6.3 1 .3h.7c.4-.1.7-.2.7-.4.1-.2.4-.4.7-.6l1-.4c.4-.1.6-.3.4-.5-.1-.1-.5-.2-.8 0h-.2c-.3.1-.7 0-.9-.3-.1-.2 0-.6.3-.9.3-.2.4-.5.2-.7-.2-.2-.5-.1-.7.2q-.3.3-.5.7c-.2.3-.3.6-.2.8.2.1.3.4.3.8-.1.3-.4.7-.7.8h-.1c-.3.1-.7 0-.8-.3-.1-.2-.5-.4-.9-.3h-.1c-.4 0-.7-.2-.6-.6 0-.4.2-.9.4-1.3.6-.7 1-1.4 1.5-2.1.3-.3.7-.6 1.1-.7l1.2-.2c.4-.1.9-.1 1.3 0 .8.3 1.7.5 2.5.7.4.2.5.4.4.7-.2.3-.6.5-1 .4h-.1c-.4 0-.5.2-.2.4 0 .1.1.1.1.1.3.3.7.4 1 .2.6-.4 1.1-.8 1.6-1.1.3-.2.8-.3 1.1-.3h.6c.3.1.4-.1.1-.4L69 30c-.3-.3-.3-.7-.1-.9q.2-.2.4-.5c.2-.2.5-.4.8-.5l.6-.2c.3 0 .5 0 .7.2.1.2 0 .3-.3.4-.2 0-.4.1-.6.1-.2.1-.6.3-.8.5q0 .1-.1.2c-.2.3-.1.6.2.8.4.3.8.5 1.2.8.3.2.4.2.3 0-.1-.2-.1-.5.1-.7q.2-.1.3-.3c.2-.2.6-.2.9-.1l1 .4c.3.1.6.1.6-.1.1-.2.3-.4.5-.4.7-.2 1.3-.4 1.9-.5.2-.1.6 0 .8.1l.4.2q.3.5.5 1.1c-.1.1 0 .3.2.3v.1c2 4 3.1 8.7 3.1 13.7zm-14.2-4v-.1c-.2-.4-.6-.8-.8-.8-.2-.1-.4 0-.3.2 0 .2-.1.4-.3.4-.2 0-.5-.1-.6-.4-.2-.2-.5-.1-.8.2 0 .1 0 .1-.1.1-.2.4-.4.9-.3 1.2 0 .2.3.2.5 0 .3-.2.6-.4.8-.4.2.1.7.1 1.1.1q.3.1.5.1c.4 0 .6-.2.3-.6zm3.4 1.7v-.2c-.2-.4-.2-.9-.1-1.2.2-.2.2-.5.1-.6-.1-.2-.3-.1-.4 0-.2.2-.3.7-.2 1.1v1.1c.1.4.3.7.5.7.2-.1.3-.5.1-.9zm2.1-1.4c-.1-.2-.2-.4-.4-.4-.1 0-.2.2-.2.5.1.3.2.5.4.5.1-.1.2-.3.2-.6z"/><path fill-rule="evenodd" class="s17" d="M80.3 44.7q0 1.3-.1 2.5c-.1.2-.2.6-.1.8q0 .1.1.1l-.2 1v.1q-.2.1-.3.2c-.2.2-.5.1-.6-.2 0-.3-.2-.6-.2-.5-.1 0-.1.3-.1.7 0 .4.2.8.3 1q.1 0 .1.1c.2.1.2.4.1.5-.1.1-.2.2-.4.2-.1-.1-.2 0-.2.2 0 .1.1.3.2.3s.3.2.3.6q0 .2.1.4 0 .1-.1.3v.2q-.1.1-.1.2t-.1.3c-.1-.1-.3-.3-.3-.4q-.5-.9-1-2c-.1-.3-.1-.5.2-.5.2 0 .3-.2.3-.6-.2-.8-.4-1.7-.6-2.6-.1-.3-.2-.9-.1-1.2 0-.3-.1-.5-.2-.6-.1.1-.2.3-.3.6-.1.3-.3.7-.6 1q-.2.3-.5.5c-.3.3-.5.8-.5 1.2-.1.4-.3.8-.6.9h-.1c-.3.1-.6-.1-.7-.4l-.2-1.2c-.1-.4-.3-.7-.4-.8-.1 0-.2-.4-.2-.9.1-.4-.2-.8-.5-.9-1.1-.2-2.2-.4-3.4-.7-.3-.1-.4.2-.3.5.1.1.1.2.1.2.2.4.5.6.8.5.2-.1.5.1.8.4.2.3.2.8 0 1.1l-.1.1c-.2.4-.7.8-1 .9q-.5.2-.9.4c-.4.2-.8 0-.9-.3-.5-1.2-1-2.4-1.6-3.7-.1-.4-.4-.7-.6-.7h-.1c-.1-.2-.4-.4-.6-.6l.2-.2c.1-.1.2-.5.2-1 0-.4-.2-.4-.4-.1 0 .1-.1.2-.1.2-.3.4-.6.4-.9 0l-.4-.6c-.3-.4-.4-.3-.4.1q0 .2.1.4c0 .4-.2.6-.5.3h-.1c-.3-.3-.6-.9-.7-1.3 0-.4-.3-1-.6-1.4l-.1-.1q-.1-.1-.1-.2l-.2-.2q0-.1-.1-.2c-.3-.3-.5-.5-.6-.4-.1.1 0 .4.3.8q.2.3.3.5c.3.4.3 1 .1 1.3-.2.4-.5.3-.6-.1-.1-.4-.4-1-.7-1.2 0-.1-.1-.1-.2-.2-.3-.2-.7-.3-1-.1-.2.2-.4.3-.6.3-.1-.1-.4.1-.7.4l-.4.4-.4.4q-.2.1-.4.3-.1.2-.3.4c-.3.3-.7.3-.8-.2l-.4-1.2c-.2-.5 0-.8.5-.8q.1.1.3.1c.4 0 .8-.2.9-.4.1-.3 0-.6-.2-.8-.2-.2-.1-.6.2-.9.4-.2.8-.5.9-.5.2 0 .6-.3.9-.6l.2-.2c.3-.3.4-.7.3-1-.1-.2 0-.5.2-.6.1-.1.4 0 .5.2.1.2.6.3 1 .3h.7c.4-.1.7-.2.7-.4.1-.2.4-.4.7-.6l1-.4c.4-.1.6-.3.4-.5-.1-.1-.5-.2-.8 0h-.2c-.3.1-.7 0-.9-.3-.1-.2 0-.6.3-.9.3-.2.4-.5.2-.7-.2-.2-.5-.1-.7.2q-.3.3-.5.7c-.2.3-.3.6-.2.8.2.1.3.4.3.8-.1.3-.4.7-.7.8h-.1c-.3.1-.7 0-.8-.3-.1-.2-.5-.4-.9-.3h-.1c-.4 0-.7-.2-.6-.6 0-.4.2-.9.4-1.3.6-.7 1-1.4 1.5-2.1.3-.3.7-.6 1.1-.7l1.2-.2c.4-.1.9-.1 1.3 0 .8.3 1.7.5 2.5.7.4.2.5.4.4.7-.2.3-.6.5-1 .4h-.1c-.4 0-.5.2-.2.4 0 .1.1.1.1.1.3.3.7.4 1 .2.6-.4 1.1-.8 1.6-1.1.3-.2.8-.3 1.1-.3h.6c.3.1.4-.1.1-.4L69 30c-.3-.3-.3-.7-.1-.9q.2-.2.4-.5c.2-.2.5-.4.8-.5l.6-.2c.3 0 .5 0 .7.2.1.2 0 .3-.3.4-.2 0-.4.1-.6.1-.2.1-.6.3-.8.5q0 .1-.1.2c-.2.3-.1.6.2.8.4.3.8.5 1.2.8.3.2.4.2.3 0-.1-.2-.1-.5.1-.7q.2-.1.3-.3c.2-.2.6-.2.9-.1l1 .4c.3.1.6.1.6-.1.1-.2.3-.4.5-.4q.2-.1.4-.1.1-.1.3-.1.2-.1.4-.1.2-.1.4-.1c2.6 4.4 4.1 9.7 4.1 15.4zm-12.9-4v-.1c-.2-.4-.6-.8-.8-.8-.2-.1-.4 0-.3.2 0 .2-.1.4-.3.4-.2 0-.5-.1-.6-.4-.2-.2-.5-.1-.8.2 0 .1 0 .1-.1.1-.2.4-.4.9-.3 1.2 0 .2.3.2.5 0 .3-.2.6-.4.8-.4.2.1.7.1 1.1.1q.3.1.5.1c.4 0 .6-.2.3-.6zm3.4 1.7v-.2c-.2-.4-.2-.9-.1-1.2.2-.2.2-.5.1-.6-.1-.2-.3-.1-.4 0-.2.2-.3.7-.2 1.1v1.1c.1.4.3.7.5.7.2-.1.3-.5.1-.9zm2.1-1.4c-.1-.2-.2-.4-.4-.4-.1 0-.2.2-.2.5.1.3.2.5.4.5.1-.1.2-.3.2-.6z"/><path fill-rule="evenodd" class="s18" d="M79.1 44.7c0 2.6-.4 5.1-1 7.5q0-.2-.1-.3 0-.1-.1-.2t-.1-.2-.1-.2c-.1-.3-.1-.5.2-.5.2 0 .3-.2.3-.6-.2-.8-.4-1.7-.6-2.6-.1-.3-.2-.9-.1-1.2 0-.3-.1-.5-.2-.6-.1.1-.2.3-.3.6-.1.3-.3.7-.6 1q-.2.3-.5.5c-.3.3-.5.8-.5 1.2-.1.4-.3.8-.6.9h-.1c-.3.1-.6-.1-.7-.4l-.2-1.2c-.1-.4-.3-.7-.4-.8-.1 0-.2-.4-.2-.9.1-.4-.2-.8-.5-.9-1.1-.2-2.2-.4-3.4-.7-.3-.1-.4.2-.3.5.1.1.1.2.1.2.2.4.5.6.8.5.2-.1.5.1.8.4.2.3.2.8 0 1.1l-.1.1c-.2.4-.7.8-1 .9q-.5.2-.9.4c-.4.2-.8 0-.9-.3-.5-1.2-1-2.4-1.6-3.7-.1-.4-.4-.7-.6-.7h-.1c-.1-.2-.4-.4-.6-.6l.2-.2c.1-.1.2-.5.2-1 0-.4-.2-.4-.4-.1 0 .1-.1.2-.1.2-.3.4-.6.4-.9 0l-.4-.6c-.3-.4-.4-.3-.4.1q0 .2.1.4c0 .4-.2.6-.5.3h-.1c-.3-.3-.6-.9-.7-1.3 0-.4-.3-1-.6-1.4l-.1-.1q-.1-.1-.1-.2l-.2-.2q0-.1-.1-.2c-.3-.3-.5-.5-.6-.4-.1.1 0 .4.3.8q.2.3.3.5c.3.4.3 1 .1 1.3-.2.4-.5.3-.6-.1-.1-.4-.4-1-.7-1.2 0-.1-.1-.1-.2-.2-.3-.2-.7-.3-1-.1-.2.2-.4.3-.6.3-.1-.1-.4.1-.7.4l-.4.4-.4.4q-.2.1-.4.3-.1.2-.3.4c-.3.3-.7.3-.8-.2l-.4-1.2c-.2-.5 0-.8.5-.8q.1.1.3.1c.4 0 .8-.2.9-.4.1-.3 0-.6-.2-.8-.2-.2-.1-.6.2-.9.4-.2.8-.5.9-.5.2 0 .6-.3.9-.6l.2-.2c.3-.3.4-.7.3-1-.1-.2 0-.5.2-.6.1-.1.4 0 .5.2.1.2.6.3 1 .3h.7c.4-.1.7-.2.7-.4.1-.2.4-.4.7-.6l1-.4c.4-.1.6-.3.4-.5-.1-.1-.5-.2-.8 0h-.2c-.3.1-.7 0-.9-.3-.1-.2 0-.6.3-.9.3-.2.4-.5.2-.7-.2-.2-.5-.1-.7.2q-.3.3-.5.7c-.2.3-.3.6-.2.8.2.1.3.4.3.8-.1.3-.4.7-.7.8h-.1c-.3.1-.7 0-.8-.3-.1-.2-.5-.4-.9-.3h-.1c-.4 0-.7-.2-.6-.6 0-.4.2-.9.4-1.3.6-.7 1-1.4 1.5-2.1.3-.3.7-.6 1.1-.7l1.2-.2c.4-.1.9-.1 1.3 0 .8.3 1.7.5 2.5.7.4.2.5.4.4.7-.2.3-.6.5-1 .4h-.1c-.4 0-.5.2-.2.4 0 .1.1.1.1.1.3.3.7.4 1 .2.6-.4 1.1-.8 1.6-1.1.3-.2.8-.3 1.1-.3h.6c.3.1.4-.1.1-.4L69 30c-.3-.3-.3-.7-.1-.9q.2-.2.4-.5c.2-.2.5-.4.8-.5l.6-.2c.3 0 .5 0 .7.2.1.2 0 .3-.3.4-.2 0-.4.1-.6.1-.2.1-.6.3-.8.5q0 .1-.1.2c-.2.3-.1.6.2.8.4.3.8.5 1.2.8.3.2.4.2.3 0-.1-.2-.1-.5.1-.7q.2-.1.3-.3c.2-.2.6-.2.9-.1l1 .4c.3.1.6.1.6-.1.1-.2.3-.4.5-.4l.1-.1c2.7 4.3 4.3 9.5 4.3 15.1zm-11.7-4v-.1c-.2-.4-.6-.8-.8-.8-.2-.1-.4 0-.3.2 0 .2-.1.4-.3.4-.2 0-.5-.1-.6-.4-.2-.2-.5-.1-.8.2 0 .1 0 .1-.1.1-.2.4-.4.9-.3 1.2 0 .2.3.2.5 0 .3-.2.6-.4.8-.4.2.1.7.1 1.1.1q.3.1.5.1c.4 0 .6-.2.3-.6zm3.4 1.7v-.2c-.2-.4-.2-.9-.1-1.2.2-.2.2-.5.1-.6-.1-.2-.3-.1-.4 0-.2.2-.3.7-.2 1.1v1.1c.1.4.3.7.5.7.2-.1.3-.5.1-.9zm2.1-1.4c-.1-.2-.2-.4-.4-.4-.1 0-.2.2-.2.5.1.3.2.5.4.5.1-.1.2-.3.2-.6z"/><path fill-rule="evenodd" class="s19" d="M77.7 44.7q0 1.5-.1 2.9c-.1-.4-.2-.9-.1-1.2 0-.3-.1-.5-.2-.6-.1.1-.2.3-.3.6-.1.3-.3.7-.6 1q-.2.3-.5.5c-.3.3-.5.8-.5 1.2-.1.4-.3.8-.6.9h-.1c-.3.1-.6-.1-.7-.4l-.2-1.2c-.1-.4-.3-.7-.4-.8-.1 0-.2-.4-.2-.9.1-.4-.2-.8-.5-.9-1.1-.2-2.2-.4-3.4-.7-.3-.1-.4.2-.3.5.1.1.1.2.1.2.2.4.5.6.8.5.2-.1.5.1.8.4.2.3.2.8 0 1.1l-.1.1c-.2.4-.7.8-1 .9q-.5.2-.9.4c-.4.2-.8 0-.9-.3-.5-1.2-1-2.4-1.6-3.7-.1-.4-.4-.7-.6-.7h-.1c-.1-.2-.4-.4-.6-.6l.2-.2c.1-.1.2-.5.2-1 0-.4-.2-.4-.4-.1 0 .1-.1.2-.1.2-.3.4-.6.4-.9 0l-.4-.6c-.3-.4-.4-.3-.4.1q0 .2.1.4c0 .4-.2.6-.5.3h-.1c-.3-.3-.6-.9-.7-1.3 0-.4-.3-1-.6-1.4l-.1-.1q-.1-.1-.1-.2l-.2-.2q0-.1-.1-.2c-.3-.3-.5-.5-.6-.4-.1.1 0 .4.3.8q.2.3.3.5c.3.4.3 1 .1 1.3-.2.4-.5.3-.6-.1-.1-.4-.4-1-.7-1.2 0-.1-.1-.1-.2-.2-.3-.2-.7-.3-1-.1-.2.2-.4.3-.6.3-.1-.1-.4.1-.7.4l-.4.4-.4.4q-.2.1-.4.3-.1.2-.3.4c-.3.3-.7.3-.8-.2l-.4-1.2c-.2-.5 0-.8.5-.8q.1.1.3.1c.4 0 .8-.2.9-.4.1-.3 0-.6-.2-.8-.2-.2-.1-.6.2-.9.4-.2.8-.5.9-.5.2 0 .6-.3.9-.6l.2-.2c.3-.3.4-.7.3-1-.1-.2 0-.5.2-.6.1-.1.4 0 .5.2.1.2.6.3 1 .3h.7c.4-.1.7-.2.7-.4.1-.2.4-.4.7-.6l1-.4c.4-.1.6-.3.4-.5-.1-.1-.5-.2-.8 0h-.2c-.3.1-.7 0-.9-.3-.1-.2 0-.6.3-.9.3-.2.4-.5.2-.7-.2-.2-.5-.1-.7.2q-.3.3-.5.7c-.2.3-.3.6-.2.8.2.1.3.4.3.8-.1.3-.4.7-.7.8h-.1c-.3.1-.7 0-.8-.3-.1-.2-.5-.4-.9-.3h-.1c-.4 0-.7-.2-.6-.6 0-.4.2-.9.4-1.3.6-.7 1-1.4 1.5-2.1.3-.3.7-.6 1.1-.7l1.2-.2c.4-.1.9-.1 1.3 0 .8.3 1.7.5 2.5.7.4.2.5.4.4.7-.2.3-.6.5-1 .4h-.1c-.4 0-.5.2-.2.4 0 .1.1.1.1.1.3.3.7.4 1 .2.6-.4 1.1-.8 1.6-1.1.3-.2.8-.3 1.1-.3h.6c.3.1.4-.1.1-.4L69 30c-.3-.3-.3-.7-.1-.9q.2-.2.4-.5c.2-.2.5-.4.8-.5l.6-.2c.3 0 .5 0 .7.2.1.2 0 .3-.3.4-.2 0-.4.1-.6.1-.2.1-.6.3-.8.5q0 .1-.1.2c-.2.3-.1.6.2.8.4.3.8.5 1.2.8.3.2.4.2.3 0-.1-.2-.1-.5.1-.7q.2-.1.3-.3c.2-.2.6-.2.9-.1q.5.2.9.4c2.7 4 4.2 9.1 4.2 14.5zm-10.3-4v-.1c-.2-.4-.6-.8-.8-.8-.2-.1-.4 0-.3.2 0 .2-.1.4-.3.4-.2 0-.5-.1-.6-.4-.2-.2-.5-.1-.8.2 0 .1 0 .1-.1.1-.2.4-.4.9-.3 1.2 0 .2.3.2.5 0 .3-.2.6-.4.8-.4.2.1.7.1 1.1.1q.3.1.5.1c.4 0 .6-.2.3-.6zm3.4 1.7v-.2c-.2-.4-.2-.9-.1-1.2.2-.2.2-.5.1-.6-.1-.2-.3-.1-.4 0-.2.2-.3.7-.2 1.1v1.1c.1.4.3.7.5.7.2-.1.3-.5.1-.9zm2.1-1.4c-.1-.2-.2-.4-.4-.4-.1 0-.2.2-.2.5.1.3.2.5.4.5.1-.1.2-.3.2-.6z"/><path fill-rule="evenodd" class="s20" d="M76.5 44.7q0 1.4-.1 2.8-.3.2-.5.4c-.3.3-.5.8-.5 1.2-.1.4-.3.8-.6.9h-.1c-.3.1-.6-.1-.7-.4l-.2-1.2c-.1-.4-.3-.7-.4-.8-.1 0-.2-.4-.2-.9.1-.4-.2-.8-.5-.9-1.1-.2-2.2-.4-3.4-.7-.3-.1-.4.2-.3.5.1.1.1.2.1.2.2.4.5.6.8.5.2-.1.5.1.8.4.2.3.2.8 0 1.1l-.1.1c-.2.4-.7.8-1 .9q-.5.2-.9.4c-.4.2-.8 0-.9-.3-.5-1.2-1-2.4-1.6-3.7-.1-.4-.4-.7-.6-.7h-.1c-.1-.2-.4-.4-.6-.6l.2-.2c.1-.1.2-.5.2-1 0-.4-.2-.4-.4-.1 0 .1-.1.2-.1.2-.3.4-.6.4-.9 0l-.4-.6c-.3-.4-.4-.3-.4.1q0 .2.1.4c0 .4-.2.6-.5.3h-.1c-.3-.3-.6-.9-.7-1.3 0-.4-.3-1-.6-1.4l-.1-.1q-.1-.1-.1-.2l-.2-.2q0-.1-.1-.2c-.3-.3-.5-.5-.6-.4-.1.1 0 .4.3.8q.2.3.3.5c.3.4.3 1 .1 1.3-.2.4-.5.3-.6-.1-.1-.4-.4-1-.7-1.2 0-.1-.1-.1-.2-.2-.3-.2-.7-.3-1-.1-.2.2-.4.3-.6.3-.1-.1-.4.1-.7.4l-.4.4-.4.4q-.2.1-.4.3-.1.2-.3.4c-.3.3-.7.3-.8-.2l-.4-1.2c-.2-.5 0-.8.5-.8q.1.1.3.1c.4 0 .8-.2.9-.4.1-.3 0-.6-.2-.8-.2-.2-.1-.6.2-.9.4-.2.8-.5.9-.5.2 0 .6-.3.9-.6l.2-.2c.3-.3.4-.7.3-1-.1-.2 0-.5.2-.6.1-.1.4 0 .5.2.1.2.6.3 1 .3h.7c.4-.1.7-.2.7-.4.1-.2.4-.4.7-.6l1-.4c.4-.1.6-.3.4-.5-.1-.1-.5-.2-.8 0h-.2c-.3.1-.7 0-.9-.3-.1-.2 0-.6.3-.9.3-.2.4-.5.2-.7-.2-.2-.5-.1-.7.2q-.3.3-.5.7c-.2.3-.3.6-.2.8.2.1.3.4.3.8-.1.3-.4.7-.7.8h-.1c-.3.1-.7 0-.8-.3-.1-.2-.5-.4-.9-.3h-.1c-.4 0-.7-.2-.6-.6 0-.4.2-.9.4-1.3.6-.7 1-1.4 1.5-2.1.3-.3.7-.6 1.1-.7l1.2-.2c.4-.1.9-.1 1.3 0 .8.3 1.7.5 2.5.7.4.2.5.4.4.7-.2.3-.6.5-1 .4h-.1c-.4 0-.5.2-.2.4 0 .1.1.1.1.1.3.3.7.4 1 .2.6-.4 1.1-.8 1.6-1.1.3-.2.8-.3 1.1-.3h.6c.3.1.4-.1.1-.4L69 30c-.3-.3-.3-.7-.1-.9q.2-.2.4-.5c.2-.2.5-.4.8-.5h.2q.2.2.4.5h-.2c-.2.1-.6.3-.8.5q0 .1-.1.2c-.2.3-.1.6.2.8.4.3.8.5 1.2.8.3.2.4.2.3 0-.1-.2-.1-.5.1-.7q.2-.1.3-.3h.1c2.9 4 4.7 9.2 4.7 14.8zm-9.1-4v-.1c-.2-.4-.6-.8-.8-.8-.2-.1-.4 0-.3.2 0 .2-.1.4-.3.4-.2 0-.5-.1-.6-.4-.2-.2-.5-.1-.8.2 0 .1 0 .1-.1.1-.2.4-.4.9-.3 1.2 0 .2.3.2.5 0 .3-.2.6-.4.8-.4.2.1.7.1 1.1.1q.3.1.5.1c.4 0 .6-.2.3-.6zm3.4 1.7v-.2c-.2-.4-.2-.9-.1-1.2.2-.2.2-.5.1-.6-.1-.2-.3-.1-.4 0-.2.2-.3.7-.2 1.1v1.1c.1.4.3.7.5.7.2-.1.3-.5.1-.9zm2.1-1.4c-.1-.2-.2-.4-.4-.4-.1 0-.2.2-.2.5.1.3.2.5.4.5.1-.1.2-.3.2-.6z"/><path fill-rule="evenodd" class="s21" d="M75.2 44.7q0 2.8-.6 5.3c-.3.1-.5-.1-.6-.4l-.2-1.2c-.1-.4-.3-.7-.4-.8-.1 0-.2-.4-.2-.9.1-.4-.2-.8-.5-.9-1.1-.2-2.2-.4-3.4-.7-.3-.1-.4.2-.3.5.1.1.1.2.1.2.2.4.5.6.8.5.2-.1.5.1.8.4.2.3.2.8 0 1.1l-.1.1c-.2.4-.7.8-1 .9q-.5.2-.9.4c-.4.2-.8 0-.9-.3-.5-1.2-1-2.4-1.6-3.7-.1-.4-.4-.7-.6-.7h-.1c-.1-.2-.4-.4-.6-.6l.2-.2c.1-.1.2-.5.2-1 0-.4-.2-.4-.4-.1 0 .1-.1.2-.1.2-.3.4-.6.4-.9 0l-.4-.6c-.3-.4-.4-.3-.4.1q0 .2.1.4c0 .4-.2.6-.5.3h-.1c-.3-.3-.6-.9-.7-1.3 0-.4-.3-1-.6-1.4l-.1-.1q-.1-.1-.1-.2l-.2-.2q0-.1-.1-.2c-.3-.3-.5-.5-.6-.4-.1.1 0 .4.3.8q.2.3.3.5c.3.4.3 1 .1 1.3-.2.4-.5.3-.6-.1-.1-.4-.4-1-.7-1.2 0-.1-.1-.1-.2-.2-.3-.2-.7-.3-1-.1-.2.2-.4.3-.6.3-.1-.1-.4.1-.7.4l-.4.4-.4.4q-.2.1-.4.3-.1.2-.3.4c-.3.3-.7.3-.8-.2l-.4-1.2c-.2-.5 0-.8.5-.8q.1.1.3.1c.4 0 .8-.2.9-.4.1-.3 0-.6-.2-.8-.2-.2-.1-.6.2-.9.4-.2.8-.5.9-.5.2 0 .6-.3.9-.6l.2-.2c.3-.3.4-.7.3-1-.1-.2 0-.5.2-.6.1-.1.4 0 .5.2.1.2.6.3 1 .3h.7c.4-.1.7-.2.7-.4.1-.2.4-.4.7-.6l1-.4c.4-.1.6-.3.4-.5-.1-.1-.5-.2-.8 0h-.2c-.3.1-.7 0-.9-.3-.1-.2 0-.6.3-.9.3-.2.4-.5.2-.7-.2-.2-.5-.1-.7.2q-.3.3-.5.7c-.2.3-.3.6-.2.8.2.1.3.4.3.8-.1.3-.4.7-.7.8h-.1c-.3.1-.7 0-.8-.3-.1-.2-.5-.4-.9-.3h-.1c-.4 0-.7-.2-.6-.6 0-.4.2-.9.4-1.3.6-.7 1-1.4 1.5-2.1.3-.3.7-.6 1.1-.7l1.2-.2c.4-.1.9-.1 1.3 0 .8.3 1.7.5 2.5.7.4.2.5.4.4.7-.2.3-.6.5-1 .4h-.1c-.4 0-.5.2-.2.4 0 .1.1.1.1.1.3.3.7.4 1 .2.6-.4 1.1-.8 1.6-1.1.3-.2.8-.3 1.1-.3h.6c.3.1.4-.1.1-.4L69 30c-.3-.3-.3-.7-.1-.9l.2-.2.5.5c-.2.2 0 .5.2.7q.4.2.7.5c2.9 3.7 4.7 8.7 4.7 14.1zm-7.8-4v-.1c-.2-.4-.6-.8-.8-.8-.2-.1-.4 0-.3.2 0 .2-.1.4-.3.4-.2 0-.5-.1-.6-.4-.2-.2-.5-.1-.8.2 0 .1 0 .1-.1.1-.2.4-.4.9-.3 1.2 0 .2.3.2.5 0 .3-.2.6-.4.8-.4.2.1.7.1 1.1.1q.3.1.5.1c.4 0 .6-.2.3-.6zm3.4 1.7v-.2c-.2-.4-.2-.9-.1-1.2.2-.2.2-.5.1-.6-.1-.2-.3-.1-.4 0-.2.2-.3.7-.2 1.1v1.1c.1.4.3.7.5.7.2-.1.3-.5.1-.9zm2.1-1.4c-.1-.2-.2-.4-.4-.4-.1 0-.2.2-.2.5.1.3.2.5.4.5.1-.1.2-.3.2-.6z"/><path fill-rule="evenodd" class="s22" d="M73.9 44.7q0 1.7-.2 3.3c-.1-.2-.2-.4-.3-.4-.1 0-.2-.4-.2-.9.1-.4-.2-.8-.5-.9-1.1-.2-2.2-.4-3.4-.7-.3-.1-.4.2-.3.5.1.1.1.2.1.2.2.4.5.6.8.5.2-.1.5.1.8.4.2.3.2.8 0 1.1l-.1.1c-.2.4-.7.8-1 .9q-.5.2-.9.4c-.4.2-.8 0-.9-.3-.5-1.2-1-2.4-1.6-3.7-.1-.4-.4-.7-.6-.7h-.1c-.1-.2-.4-.4-.6-.6l.2-.2c.1-.1.2-.5.2-1 0-.4-.2-.4-.4-.1 0 .1-.1.2-.1.2-.3.4-.6.4-.9 0l-.4-.6c-.3-.4-.4-.3-.4.1q0 .2.1.4c0 .4-.2.6-.5.3h-.1c-.3-.3-.6-.9-.7-1.3 0-.4-.3-1-.6-1.4l-.1-.1q-.1-.1-.1-.2l-.2-.2q0-.1-.1-.2c-.3-.3-.5-.5-.6-.4-.1.1 0 .4.3.8q.2.3.3.5c.3.4.3 1 .1 1.3-.2.4-.5.3-.6-.1-.1-.4-.4-1-.7-1.2 0-.1-.1-.1-.2-.2-.3-.2-.7-.3-1-.1-.2.2-.4.3-.6.3-.1-.1-.4.1-.7.4l-.4.4-.4.4q-.2.1-.4.3-.1.2-.3.4c-.3.3-.7.3-.8-.2l-.4-1.2c-.2-.5 0-.8.5-.8q.1.1.3.1c.4 0 .8-.2.9-.4.1-.3 0-.6-.2-.8-.2-.2-.1-.6.2-.9.4-.2.8-.5.9-.5.2 0 .6-.3.9-.6l.2-.2c.3-.3.4-.7.3-1-.1-.2 0-.5.2-.6.1-.1.4 0 .5.2.1.2.6.3 1 .3h.7c.4-.1.7-.2.7-.4.1-.2.4-.4.7-.6l1-.4c.4-.1.6-.3.4-.5-.1-.1-.5-.2-.8 0h-.2c-.3.1-.7 0-.9-.3-.1-.2 0-.6.3-.9.3-.2.4-.5.2-.7-.2-.2-.5-.1-.7.2q-.3.3-.5.7c-.2.3-.3.6-.2.8.2.1.3.4.3.8-.1.3-.4.7-.7.8h-.1c-.3.1-.7 0-.8-.3-.1-.2-.5-.4-.9-.3h-.1c-.4 0-.7-.2-.6-.6 0-.4.2-.9.4-1.3.6-.7 1-1.4 1.5-2.1.3-.3.7-.6 1.1-.7l1.2-.2c.4-.1.9-.1 1.3 0 .8.3 1.7.5 2.5.7.4.2.5.4.4.7-.2.3-.6.5-1 .4h-.1c-.4 0-.5.2-.2.4 0 .1.1.1.1.1.3.3.7.4 1 .2.6-.4 1.1-.8 1.6-1.1.3-.2.8-.3 1.1-.3h.3c3 3.6 4.8 8.5 4.8 13.8zm-6.5-4v-.1c-.2-.4-.6-.8-.8-.8-.2-.1-.4 0-.3.2 0 .2-.1.4-.3.4-.2 0-.5-.1-.6-.4-.2-.2-.5-.1-.8.2 0 .1 0 .1-.1.1-.2.4-.4.9-.3 1.2 0 .2.3.2.5 0 .3-.2.6-.4.8-.4.2.1.7.1 1.1.1q.3.1.5.1c.4 0 .6-.2.3-.6zm3.4 1.7v-.2c-.2-.4-.2-.9-.1-1.2.2-.2.2-.5.1-.6-.1-.2-.3-.1-.4 0-.2.2-.3.7-.2 1.1v1.1c.1.4.3.7.5.7.2-.1.3-.5.1-.9zm2.1-1.4c-.1-.2-.2-.4-.4-.4-.1 0-.2.2-.2.5.1.3.2.5.4.5.1-.1.2-.3.2-.6z"/><path fill-rule="evenodd" class="s23" d="M72.7 44.7q0 .6-.1 1.1c-1-.2-2.1-.5-3.3-.7-.3-.1-.4.2-.3.5.1.1.1.2.1.2.2.4.5.6.8.5.2-.1.5.1.8.4.2.3.2.8 0 1.1l-.1.1c-.2.4-.7.8-1 .9q-.5.2-.9.4c-.4.2-.8 0-.9-.3-.5-1.2-1-2.4-1.6-3.7-.1-.4-.4-.7-.6-.7h-.1c-.1-.2-.4-.4-.6-.6l.2-.2c.1-.1.2-.5.2-1 0-.4-.2-.4-.4-.1 0 .1-.1.2-.1.2-.3.4-.6.4-.9 0l-.4-.6c-.3-.4-.4-.3-.4.1q0 .2.1.4c0 .4-.2.6-.5.3h-.1c-.3-.3-.6-.9-.7-1.3 0-.4-.3-1-.6-1.4l-.1-.1q-.1-.1-.1-.2l-.2-.2q0-.1-.1-.2c-.3-.3-.5-.5-.6-.4-.1.1 0 .4.3.8q.2.3.3.5c.3.4.3 1 .1 1.3-.2.4-.5.3-.6-.1-.1-.4-.4-1-.7-1.2 0-.1-.1-.1-.2-.2-.3-.2-.7-.3-1-.1-.2.2-.4.3-.6.3-.1-.1-.4.1-.7.4l-.4.4-.4.4q-.2.1-.4.3-.1.2-.3.4c-.3.3-.7.3-.8-.2l-.4-1.2c-.2-.5 0-.8.5-.8q.1.1.3.1c.4 0 .8-.2.9-.4.1-.3 0-.6-.2-.8-.2-.2-.1-.6.2-.9.4-.2.8-.5.9-.5.2 0 .6-.3.9-.6l.2-.2c.3-.3.4-.7.3-1-.1-.2 0-.5.2-.6.1-.1.4 0 .5.2.1.2.6.3 1 .3h.7c.4-.1.7-.2.7-.4.1-.2.4-.4.7-.6l1-.4c.4-.1.6-.3.4-.5-.1-.1-.5-.2-.8 0h-.2c-.3.1-.7 0-.9-.3-.1-.2 0-.6.3-.9.3-.2.4-.5.2-.7-.2-.2-.5-.1-.7.2q-.3.3-.5.7c-.2.3-.3.6-.2.8.2.1.3.4.3.8-.1.3-.4.7-.7.8h-.1c-.3.1-.7 0-.8-.3-.1-.2-.5-.4-.9-.3h-.1c-.4 0-.7-.2-.6-.6 0-.4.2-.9.4-1.3.6-.7 1-1.4 1.5-2.1.3-.3.7-.6 1.1-.7l1.2-.2c.4-.1.9-.1 1.3 0 .8.3 1.7.5 2.5.7.4.2.5.4.4.7-.2.3-.6.5-1 .4h-.1c-.4 0-.5.2-.2.4 0 .1.1.1.1.1.3.3.7.4 1 .2.5-.4 1-.7 1.5-1.1 2.4 2.6 4.1 6 4.7 9.9l.1.1q0 .5.1.9t.1.9v.8q.1.5.1.9zm-5.3-4v-.1c-.2-.4-.6-.8-.8-.8-.2-.1-.4 0-.3.2 0 .2-.1.4-.3.4-.2 0-.5-.1-.6-.4-.2-.2-.5-.1-.8.2 0 .1 0 .1-.1.1-.2.4-.4.9-.3 1.2 0 .2.3.2.5 0 .3-.2.6-.4.8-.4.2.1.7.1 1.1.1q.3.1.5.1c.4 0 .6-.2.3-.6zm3.4 1.7v-.2c-.2-.4-.2-.9-.1-1.2.2-.2.2-.5.1-.6-.1-.2-.3-.1-.4 0-.2.2-.3.7-.2 1.1v1.1c.1.4.3.7.5.7.2-.1.3-.5.1-.9z"/><path fill-rule="evenodd" class="s24" d="M71.3 44.7v.8q-.9-.2-2-.4c-.3-.1-.4.2-.3.5.1.1.1.2.1.2.2.4.5.6.8.5.2-.1.5.1.8.4.2.3.2.8 0 1.1l-.1.1c-.2.4-.7.8-1 .9q-.5.2-.9.4c-.4.2-.8 0-.9-.3-.5-1.2-1-2.4-1.6-3.7-.1-.4-.4-.7-.6-.7h-.1c-.1-.2-.4-.4-.6-.6l.2-.2c.1-.1.2-.5.2-1 0-.4-.2-.4-.4-.1 0 .1-.1.2-.1.2-.3.4-.6.4-.9 0l-.4-.6c-.3-.4-.4-.3-.4.1q0 .2.1.4c0 .4-.2.6-.5.3h-.1c-.3-.3-.6-.9-.7-1.3 0-.4-.3-1-.6-1.4l-.1-.1q-.1-.1-.1-.2l-.2-.2q0-.1-.1-.2c-.3-.3-.5-.5-.6-.4-.1.1 0 .4.3.8q.2.3.3.5c.3.4.3 1 .1 1.3-.2.4-.5.3-.6-.1-.1-.4-.4-1-.7-1.2 0-.1-.1-.1-.2-.2-.3-.2-.7-.3-1-.1-.2.2-.4.3-.6.3-.1-.1-.4.1-.7.4l-.4.4-.4.4q-.2.1-.4.3-.1.2-.3.4c-.3.3-.7.3-.8-.2l-.4-1.2c-.2-.5 0-.8.5-.8q.1.1.3.1c.4 0 .8-.2.9-.4.1-.3 0-.6-.2-.8-.2-.2-.1-.6.2-.9.4-.2.8-.5.9-.5.2 0 .6-.3.9-.6l.2-.2c.3-.3.4-.7.3-1-.1-.2 0-.5.2-.6.1-.1.4 0 .5.2.1.2.6.3 1 .3h.7c.4-.1.7-.2.7-.4.1-.2.4-.4.7-.6l1-.4c.4-.1.6-.3.4-.5-.1-.1-.5-.2-.8 0h-.2c-.3.1-.7 0-.9-.3-.1-.2 0-.6.3-.9.3-.2.4-.5.2-.7-.2-.2-.5-.1-.7.2q-.3.3-.5.7c-.2.3-.3.6-.2.8.2.1.3.4.3.8-.1.3-.4.7-.7.8h-.1c-.3.1-.7 0-.8-.3-.1-.2-.5-.4-.9-.3h-.1c-.4 0-.7-.2-.6-.6 0-.4.2-.9.4-1.3.6-.7 1-1.4 1.5-2.1.3-.3.7-.6 1.1-.7l1.2-.2c.4-.1.9-.1 1.3 0q.1.1.2.1h.1q.1.1.2.1h.2q1 .7 1.8 1.5-.2.2-.6.1h-.1c-.4 0-.5.2-.2.4 0 .1.1.1.1.1.3.3.7.4 1 .2q.2-.1.3-.3c3 3.2 4.9 7.7 4.9 12.7zm-3.9-4v-.1c-.2-.4-.6-.8-.8-.8-.2-.1-.4 0-.3.2 0 .2-.1.4-.3.4-.2 0-.5-.1-.6-.4-.2-.2-.5-.1-.8.2 0 .1 0 .1-.1.1-.2.4-.4.9-.3 1.2 0 .2.3.2.5 0 .3-.2.6-.4.8-.4.2.1.7.1 1.1.1q.3.1.5.1c.4 0 .6-.2.3-.6zm3.4 1.7v-.2c-.2-.4-.2-.9-.1-1.2.2-.2.2-.5.1-.6-.1-.2-.3-.1-.4 0-.2.2-.3.7-.2 1.1v1.1c.1.4.3.7.5.7.2-.1.3-.5.1-.9z"/><path fill-rule="evenodd" class="s25" d="M70.1 44.7q0 .3-.1.5l-.7-.1c-.3-.1-.4.2-.3.5.1.1.1.2.1.2.2.4.5.6.8.5h.1q0 .3-.1.7 0 .3-.1.6 0 .3-.1.6t-.1.6q-.5.2-.9.4c-.4.2-.8 0-.9-.3-.5-1.2-1-2.4-1.6-3.7-.1-.4-.4-.7-.6-.7h-.1c-.1-.2-.4-.4-.6-.6l.2-.2c.1-.1.2-.5.2-1 0-.4-.2-.4-.4-.1 0 .1-.1.2-.1.2-.3.4-.6.4-.9 0l-.4-.6c-.3-.4-.4-.3-.4.1q0 .2.1.4c0 .4-.2.6-.5.3h-.1c-.3-.3-.6-.9-.7-1.3 0-.4-.3-1-.6-1.4l-.1-.1q-.1-.1-.1-.2l-.2-.2q0-.1-.1-.2c-.3-.3-.5-.5-.6-.4-.1.1 0 .4.3.8q.2.3.3.5c.3.4.3 1 .1 1.3-.2.4-.5.3-.6-.1-.1-.4-.4-1-.7-1.2 0-.1-.1-.1-.2-.2-.3-.2-.7-.3-1-.1-.2.2-.4.3-.6.3-.1-.1-.4.1-.7.4l-.4.4-.4.4q-.2.1-.4.3-.1.2-.3.4c-.3.3-.7.3-.8-.2l-.4-1.2c-.2-.5 0-.8.5-.8q.1.1.3.1c.4 0 .8-.2.9-.4.1-.3 0-.6-.2-.8-.2-.2-.1-.6.2-.9.4-.2.8-.5.9-.5.2 0 .6-.3.9-.6l.2-.2c.3-.3.4-.7.3-1-.1-.2 0-.5.2-.6.1-.1.4 0 .5.2.1.2.6.3 1 .3h.7c.4-.1.7-.2.7-.4.1-.2.4-.4.7-.6l1-.4c.4-.1.6-.3.4-.5-.1-.1-.5-.2-.8 0h-.2c-.3.1-.7 0-.9-.3-.1-.2 0-.6.3-.9.3-.2.4-.5.2-.7-.2-.2-.5-.1-.7.2q-.3.3-.5.7c-.2.3-.3.6-.2.8.2.1.3.4.3.8-.1.3-.4.7-.7.8h-.1c-.3.1-.7 0-.8-.3-.1-.2-.5-.4-.9-.3h-.1c-.4 0-.7-.2-.6-.6 0-.4.2-.9.4-1.3.6-.7 1-1.4 1.5-2.1.3-.3.7-.6 1.1-.7h.2c5.2 2.2 9 8 9 14.7zm-2.7-4v-.1c-.2-.4-.6-.8-.8-.8-.2-.1-.4 0-.3.2 0 .2-.1.4-.3.4-.2 0-.5-.1-.6-.4-.2-.2-.5-.1-.8.2 0 .1 0 .1-.1.1-.2.4-.4.9-.3 1.2 0 .2.3.2.5 0 .3-.2.6-.4.8-.4.2.1.7.1 1.1.1q.3.1.5.1c.4 0 .6-.2.3-.6z"/><path fill-rule="evenodd" class="s26" d="M68.8 44.7q0 2.4-.6 4.6-.3-.1-.4-.4c-.5-1.2-1-2.4-1.6-3.7-.1-.4-.4-.7-.6-.7h-.1c-.1-.2-.4-.4-.6-.6l.2-.2c.1-.1.2-.5.2-1 0-.4-.2-.4-.4-.1 0 .1-.1.2-.1.2-.3.4-.6.4-.9 0l-.4-.6c-.3-.4-.4-.3-.4.1q0 .2.1.4c0 .4-.2.6-.5.3h-.1c-.3-.3-.6-.9-.7-1.3 0-.4-.3-1-.6-1.4l-.1-.1q-.1-.1-.1-.2l-.2-.2q0-.1-.1-.2c-.3-.3-.5-.5-.6-.4-.1.1 0 .4.3.8q.2.3.3.5c.3.4.3 1 .1 1.3-.2.4-.5.3-.6-.1-.1-.4-.4-1-.7-1.2 0-.1-.1-.1-.2-.2-.3-.2-.7-.3-1-.1-.2.2-.4.3-.6.3-.1-.1-.4.1-.7.4l-.4.4-.4.4q-.2.1-.4.3-.1.2-.3.4c-.3.3-.7.3-.8-.2l-.4-1.2c-.2-.5 0-.8.5-.8q.1.1.3.1c.4 0 .8-.2.9-.4.1-.3 0-.6-.2-.8-.2-.2-.1-.6.2-.9.4-.2.8-.5.9-.5.2 0 .6-.3.9-.6l.2-.2c.3-.3.4-.7.3-1-.1-.2 0-.5.2-.6.1-.1.4 0 .5.2.1.2.6.3 1 .3h.7c.4-.1.7-.2.7-.4.1-.2.4-.4.7-.6l1-.4c.4-.1.6-.3.4-.5-.1-.1-.5-.2-.8 0h-.2c-.3.1-.7 0-.9-.3-.1-.2 0-.6.3-.9.2-.1.3-.3.3-.5 3.9 2.4 6.5 7.1 6.5 12.5zM59.7 31q.2.1.5.2l.6.2q.2.1.5.2.3.2.5.3-.2.1-.3.3-.3.3-.5.7c-.2.3-.3.6-.2.8.2.1.3.4.3.8-.1.3-.4.7-.7.8h-.1c-.3.1-.7 0-.8-.3-.1-.2-.5-.4-.9-.3h-.1c-.4 0-.7-.2-.6-.6 0-.4.2-.9.4-1.3.5-.6.9-1.2 1.4-1.8zm7.7 9.7v-.1c-.2-.4-.6-.8-.8-.8-.2-.1-.4 0-.3.2 0 .2-.1.4-.3.4-.2 0-.5-.1-.6-.4-.2-.2-.5-.1-.8.2 0 .1 0 .1-.1.1-.2.4-.4.9-.3 1.2 0 .2.3.2.5 0 .3-.2.6-.4.8-.4.2.1.7.1 1.1.1q.3.1.5.1c.4 0 .6-.2.3-.6z"/><path class="s27" d="M67.5 44.7q0 1.5-.3 2.8-.5-1.1-1-2.3c-.1-.4-.4-.7-.6-.7h-.1c-.1-.2-.4-.4-.6-.6l.2-.2c.1-.1.2-.5.2-1 0-.4-.2-.4-.4-.1 0 .1-.1.2-.1.2-.3.4-.6.4-.9 0l-.4-.6c-.3-.4-.4-.3-.4.1q0 .2.1.4c0 .4-.2.6-.5.3h-.1c-.3-.3-.6-.9-.7-1.3 0-.4-.3-1-.6-1.4l-.1-.1q-.1-.1-.1-.2l-.2-.2q0-.1-.1-.2c-.3-.3-.5-.5-.6-.4-.1.1 0 .4.3.8q.2.3.3.5c.3.4.3 1 .1 1.3-.2.4-.5.3-.6-.1-.1-.4-.4-1-.7-1.2 0-.1-.1-.1-.2-.2-.3-.2-.7-.3-1-.1-.2.2-.4.3-.6.3-.1-.1-.4.1-.7.4l-.4.4-.4.4q-.2.1-.4.3-.1.2-.3.4c-.3.3-.7.3-.8-.2l-.4-1.2c-.2-.5 0-.8.5-.8q.1.1.3.1c.4 0 .8-.2.9-.4.1-.3 0-.6-.2-.8-.2-.2-.1-.6.2-.9.4-.2.8-.5.9-.5.2 0 .6-.3.9-.6l.2-.2c.3-.3.4-.7.3-1-.1-.2 0-.5.2-.6.1-.1.4 0 .5.2.1.2.6.3 1 .3h.7c.4-.1.7-.2.7-.4.1-.2.4-.4.7-.6q.4-.1.9-.3c1.5 1.4 2.8 3.2 3.5 5.3-.2-.1-.4 0-.3.2 0 .2-.1.4-.3.4-.2 0-.5-.1-.6-.4-.2-.2-.5-.1-.8.2 0 .1 0 .1-.1.1-.2.4-.4.9-.3 1.2 0 .2.3.2.5 0 .3-.2.6-.4.8-.4.2.1.7.1 1.1.1q.3.1.5.1.4 1.6.4 3.4zm-8.7-12.5q.2.1.5.2t.5.2l.6.2q.2.1.5.2c-.2.3-.2.6-.1.7.2.1.3.4.3.8-.1.3-.4.7-.7.8h-.1c-.3.1-.7 0-.8-.3-.1-.2-.5-.4-.9-.3h-.1c-.4 0-.7-.2-.6-.6 0-.4.2-.9.4-1.3zm3 1.3.1.1q.1.1.2.1l.2.2q.1 0 .1.1c-.2 0-.5-.1-.6-.3v-.2z"/><path class="s29" d="M66.2 44.7v.4c-.2-.4-.4-.6-.6-.6h-.1c-.1-.2-.4-.4-.6-.6l.2-.2c.1-.1.2-.5.2-1 0-.4-.2-.4-.4-.1 0 .1-.1.2-.1.2-.3.4-.6.4-.9 0l-.4-.6c-.3-.4-.4-.3-.4.1q0 .2.1.4c0 .4-.2.6-.5.3h-.1c-.3-.3-.6-.9-.7-1.3 0-.4-.3-1-.6-1.4l-.1-.1q-.1-.1-.1-.2l-.2-.2q0-.1-.1-.2c-.3-.3-.5-.5-.6-.4-.1.1 0 .4.3.8q.2.3.3.5c.3.4.3 1 .1 1.3-.2.4-.5.3-.6-.1-.1-.4-.4-1-.7-1.2 0-.1-.1-.1-.2-.2-.3-.2-.7-.3-1-.1-.2.2-.4.3-.6.3-.1-.1-.4.1-.7.4l-.4.4-.4.4q-.2.1-.4.3-.1.2-.3.4c-.3.3-.7.3-.8-.2l-.4-1.2c-.2-.5 0-.8.5-.8q.1.1.3.1c.4 0 .8-.2.9-.4.1-.3 0-.6-.2-.8-.2-.2-.1-.6.2-.9.4-.2.8-.5.9-.5.2 0 .6-.3.9-.6l.2-.2c.3-.3.4-.7.3-1-.1-.2 0-.5.2-.6.1-.1.4 0 .5.2.1.2.6.3 1 .3h.7c.4-.1.7-.2.7-.4l.2-.2c1.5 1.1 2.8 2.8 3.6 4.8-.2-.2-.4-.1-.7.2 0 .1 0 .1-.1.1-.2.4-.4.9-.3 1.2 0 .2.3.2.5 0 .3-.2.6-.4.8-.4l.2.1q.5 1.6.5 3.5zM58 33.5q1.6.4 3 1.2c-.1.3-.4.5-.6.6h-.1c-.3.1-.7 0-.8-.3-.1-.2-.5-.4-.9-.3h-.1c-.4 0-.7-.2-.6-.6q0-.3.1-.6z"/><path class="s30" d="M58.8 35.3h.1l.2.2c.1.2.5.3.9.3 1.9 1 3.4 2.8 4.3 5.1q-.1.3-.1.6.1.2.3.1.1.2.1.3.1.2.1.3v.3q.1.1.1.3c-.3.4-.6.4-.9 0l-.4-.6c-.3-.4-.4-.3-.4.1q0 .2.1.4c0 .4-.2.6-.5.3h-.1c-.3-.3-.6-.9-.7-1.3 0-.4-.3-1-.6-1.4l-.1-.1q-.1-.1-.1-.2l-.2-.2q0-.1-.1-.2c-.3-.3-.5-.5-.6-.4-.1.1 0 .4.3.8q.2.3.3.5c.3.4.3 1 .1 1.3-.2.4-.5.3-.6-.1-.1-.4-.4-1-.7-1.2 0-.1-.1-.1-.2-.2-.3-.2-.7-.3-1-.1-.2.2-.4.3-.6.3-.1-.1-.4.1-.7.4l-.4.4-.4.4q-.2.1-.4.3-.1.2-.3.4c-.3.3-.7.3-.8-.2l-.4-1.2c-.2-.5 0-.8.5-.8q.1.1.3.1c.4 0 .8-.2.9-.4.1-.3 0-.6-.2-.8-.2-.2-.1-.6.2-.9.4-.2.8-.5.9-.5.2 0 .6-.3.9-.6l.2-.2c.3-.3.4-.7.3-1-.1-.2 0-.5.2-.6h.2zm6.1 8.5v.1z"/><path class="s31" d="M58.3 36.6c2.3.8 4.2 2.8 4.9 5.3q-.1 0-.1.4 0 .2.1.4c0 .4-.2.6-.5.3h-.1c-.3-.3-.6-.9-.7-1.3 0-.4-.3-1-.6-1.4l-.1-.1q-.1-.1-.1-.2l-.2-.2q0-.1-.1-.2c-.3-.3-.5-.5-.6-.4-.1.1 0 .4.3.8q.2.3.3.5c.3.4.3 1 .1 1.3-.2.4-.5.3-.6-.1-.1-.4-.4-1-.7-1.2 0-.1-.1-.1-.2-.2-.3-.2-.7-.3-1-.1-.2.2-.4.3-.6.3-.1-.1-.4.1-.7.4l-.4.4-.4.4q-.2.1-.4.3-.1.2-.3.4c-.3.3-.7.3-.8-.2l-.4-1.2c-.2-.5 0-.8.5-.8q.1.1.3.1c.4 0 .8-.2.9-.4.1-.3 0-.6-.2-.8-.2-.2-.1-.6.2-.9.4-.2.8-.5.9-.5.2 0 .6-.3.9-.6l.2-.2q.1-.1.2-.3z"/><path class="s28" d="M56.8 37.8c1.3.1 2.4.6 3.4 1.5 0 .2.1.4.3.7q.2.3.3.5c.3.4.3 1 .1 1.3-.2.4-.5.3-.6-.1-.1-.4-.4-1-.7-1.2 0-.1-.1-.1-.2-.2-.3-.2-.7-.3-1-.1-.2.2-.4.3-.6.3-.1-.1-.4.1-.7.4l-.4.4-.4.4q-.2.1-.4.3-.1.2-.3.4c-.3.3-.7.3-.8-.2l-.4-1.2c-.2-.5 0-.8.5-.8q.1.1.3.1c.4 0 .8-.2.9-.4.1-.3 0-.6-.2-.8-.2-.2-.1-.6.2-.9.3-.2.5-.3.7-.4z"/><path class="s16" d="M59.7 42.3c-.2-.1-.2-.3-.1-.6.1-.2.3-.1.3.2.1.3 0 .4-.2.4z"/><path class="s16" d="M59.7 42.3c-.2-.1-.2-.3-.1-.6.1-.2.3-.1.3.2.1.3 0 .4-.2.4z"/><path class="s17" d="M59.7 42.3c-.2-.1-.2-.3-.1-.6.1-.2.3-.1.3.2.1.3 0 .4-.2.4z"/><path class="s18" d="M59.7 42.3c-.2-.1-.2-.3-.1-.6.1-.2.3-.1.3.2.1.3 0 .4-.2.4z"/><path class="s19" d="M59.7 42.3c-.2-.1-.2-.3-.1-.6.1-.2.3-.1.3.2.1.3 0 .4-.2.4z"/><path class="s20" d="M59.7 42.3c-.2-.1-.2-.3-.1-.6.1-.2.3-.1.3.2.1.3 0 .4-.2.4z"/><path class="s21" d="M59.7 42.3c-.2-.1-.2-.3-.1-.6.1-.2.3-.1.3.2.1.3 0 .4-.2.4z"/><path class="s22" d="M59.7 42.3c-.2-.1-.2-.3-.1-.6.1-.2.3-.1.3.2.1.3 0 .4-.2.4z"/><path class="s23" d="M59.7 42.3c-.2-.1-.2-.3-.1-.6.1-.2.3-.1.3.2.1.3 0 .4-.2.4z"/><path class="s24" d="M59.7 42.3c-.2-.1-.2-.3-.1-.6.1-.2.3-.1.3.2.1.3 0 .4-.2.4z"/><path class="s25" d="M59.7 42.3c-.2-.1-.2-.3-.1-.6.1-.2.3-.1.3.2.1.3 0 .4-.2.4z"/><path class="s26" d="M59.7 42.3c-.2-.1-.2-.3-.1-.6.1-.2.3-.1.3.2.1.3 0 .4-.2.4z"/><path class="s27" d="M59.7 42.3c-.2-.1-.2-.3-.1-.6.1-.2.3-.1.3.2.1.3 0 .4-.2.4z"/><path class="s29" d="M59.7 42.3c-.2-.1-.2-.3-.1-.6.1-.2.3-.1.3.2.1.3 0 .4-.2.4z"/><path class="s30" d="M59.7 42.3c-.2-.1-.2-.3-.1-.6.1-.2.3-.1.3.2.1.3 0 .4-.2.4z"/><path class="s31" d="M59.7 42.3c-.2-.1-.2-.3-.1-.6.1-.2.3-.1.3.2.1.3 0 .4-.2.4z"/><path class="s28" d="M59.7 42.3c-.2-.1-.2-.3-.1-.6.1-.2.3-.1.3.2.1.3 0 .4-.2.4z"/><path class="s16" d="M84.6 45c0 .3 0 .6-.1.7-.1.2-.2 0-.2-.3v-.6c-.1-.4-.1-.6 0-.6l.2.6q0 .1.1.2zm.7-5.1c0 .1 0 .3-.1.5l-.1.1c-.1.1-.2.1-.3 0 0-.2 0-.4.1-.5l.1-.1q.2-.2.3 0zm-1.6 12.2v.1c-.1.3-.2.5-.3.5q-.4 0-1-.1c-.1 0-.2-.3-.1-.6v-.2c.1-.3.3-.5.4-.5.4.1.7.2.9.3.1 0 .2.2.1.5z"/><path class="s16" d="M83.7 52.1v.1c-.1.3-.2.5-.3.5q-.4 0-1-.1c-.1 0-.2-.3-.1-.6v-.2c.1-.3.3-.5.4-.5.4.1.7.2.9.3.1 0 .2.2.1.5z"/><path class="s28" d="M83.2 51.9q.1.1.1.2.1.1.1.2l.1.1v.2l-.1.1q-.4 0-1-.1c-.1 0-.2-.3-.1-.6v-.2l.2-.4q.5.1.7.5z"/><path class="s16" d="M82.1 55.8q-.6.8-1.2 1.4c-.2.2-.4.5-.5.6-.1.1 0 0-.2 0l-.1.1.1-.1q-.1-.2-.2-.3c0-.1-.1-.1-.2 0 0 .1-.2.3-.4.4q-.5.3-1.2.7-.3.1 0-.3v-.1c.2-.2.3-.4.2-.5 0 0 0-.2.1-.5q.1-.1.1-.3c.2-.2.4-.6.7-.8.8-.8 1.5-1.5 2.3-2.2.1-.2.4-.3.5-.2q.1.2.1.3c.1.1.2 0 .3-.2.2-.3.3-.5.4-.6 0 0 .1.1 0 .3 0 .6-.2 1.1-.4 1.6 0 .2-.2.5-.4.7z"/><path class="s16" d="m79.5 57-.2-.2-.1-.1q0-.1-.1-.2 0-.1-.1-.2.2-.1.3-.2c.8-.8 1.5-1.5 2.3-2.2.1-.2.4-.3.5-.2q.1.2.1.3c.1.1.2 0 .3-.2q.2-.3.3-.4.1 0 .2.1h-.1c0 .6-.2 1.1-.4 1.6 0 .2-.2.5-.4.7q-.6.8-1.2 1.4c-.1.2-.3.4-.4.5q-.2-.1-.5-.3-.1 0-.2-.1l-.1-.1-.1-.1q-.1 0-.1-.1z"/><path class="s28" d="M80.3 56.3q-.4-.3-.4-.8.8-.8 1.6-1.5c.4 0 .8.1 1 .5l.2.2-.2.4c0 .2-.2.5-.4.7l-.8 1c-.4 0-.8-.2-1-.5z"/><path class="s16" d="M81.2 50.6c0 .3 0 .7-.2 1q-.1.3-.2.5c-.2.3-.5.5-.7.5q0-.1-.1-.1c-.2 0-.3-.3-.2-.6.1-.4.3-.8.5-1.1q.2-.2.3-.4c.2-.3.4-.3.5 0q0 .1.1.2z"/><path class="s16" d="M81.1 50.3q-.2 1-.4 1.9c-.2.2-.4.4-.6.4v-.1H80c-.2 0-.3-.3-.2-.6.1-.4.3-.8.5-1.1q.2-.2.3-.4c.2-.3.4-.3.5-.1z"/><path class="s17" d="M81.1 50.3q-.2 1-.4 1.9c-.2.2-.4.4-.6.4v-.1H80c-.2 0-.3-.3-.2-.6.1-.4.3-.8.5-1.1q.2-.2.3-.4c.2-.2.4-.3.5-.1z"/><path class="s18" d="M81 50.2q-.1.3-.1.5-.1.3-.1.6-.1.3-.1.5l-.2.6q-.2.2-.4.2v-.1H80c-.2 0-.3-.3-.2-.6.1-.4.3-.8.5-1.1q.2-.2.3-.4.2-.3.4-.2z"/><path class="s19" d="M81 50.2q-.1.3-.1.5-.1.3-.1.6l-.2.6q0 .2-.1.5-.2.2-.4.2v-.1H80c-.2 0-.3-.3-.2-.6.1-.4.3-.8.5-1.1q.2-.2.3-.4.2-.2.4-.2z"/><path class="s20" d="m80.9 50.2-.4 2.2q-.2.2-.4.2v-.1H80c-.2 0-.3-.3-.2-.6.1-.4.3-.8.5-1.1q.2-.2.3-.4.2-.2.3-.2z"/><path class="s21" d="M80.8 50.2q0 .3-.1.6 0 .3-.1.6 0 .3-.1.5l-.2.6q-.1.1-.2.1v-.1H80c-.2 0-.3-.3-.2-.6.1-.4.3-.8.5-1.1q.2-.2.3-.4l.2-.2z"/><path class="s22" d="M80.8 50.2q-.1.3-.1.6-.1.3-.1.6-.1.3-.1.6-.1.2-.2.5-.1.1-.2.1v-.1H80c-.2 0-.3-.3-.2-.6.1-.4.3-.8.5-1.1q.2-.2.3-.4l.2-.2z"/><path class="s23" d="M80.7 50.3q0 .3-.1.5 0 .3-.1.6 0 .3-.1.6t-.1.5l-.1.1h-.1v-.1H80c-.2 0-.3-.3-.2-.6.1-.4.3-.8.5-1.1q.2-.2.3-.4l.1-.1z"/><path class="s24" d="M80.6 50.4q0 .3-.1.5 0 .3-.1.6 0 .2-.1.5t-.1.6h-.1v-.1H80c-.2 0-.3-.3-.2-.6.1-.4.3-.8.5-1.1q.2-.2.3-.4z"/><path class="s25" d="M80.5 50.5q0 .3-.1.5 0 .3-.1.5 0 .3-.1.5 0 .3-.1.5H80c-.2 0-.3-.3-.2-.6.1-.4.3-.8.5-1.1q.1-.2.2-.3z"/><path class="s26" d="M80.4 50.7q-.1.9-.4 1.8c-.2 0-.3-.3-.2-.6.1-.4.3-.8.5-1.1l.1-.1z"/><path class="s27" d="M80.4 50.7q-.2 1-.4 1.8c-.2-.1-.3-.3-.2-.6.1-.4.3-.8.5-1.1z"/><path class="s29" d="M80.3 50.8q0 .2-.1.4v.5q-.1.2-.1.4l-.2.4c-.1-.1-.2-.3-.1-.6s.3-.8.5-1.1z"/><path class="s30" d="M80.2 51q0 .2-.1.4v.3q-.1.2-.1.4-.1.2-.1.3-.2-.2-.1-.5c.1-.3.2-.6.4-.9z"/><path class="s31" d="M80.1 51.1v.3q-.1.2-.1.3 0 .2-.1.4 0 .1-.1.3-.1-.2 0-.5c.1-.2.2-.5.3-.8z"/><path class="s28" d="m80 51.4-.2.8v-.3q.1-.3.2-.5z"/><path class="s16" d="M81.2 51.9q.1-.1.2-.3c.1-.4.3-.6.4-.5.1 0 .1.3-.1.6q0 .2-.1.3c-.2.3-.4.5-.5.5-.1 0 0-.2.1-.6zm2.1 4.9v.6l-.2.9q-.2.3-.5.6c-.1.2-.3.4-.5.3-.1 0-.2-.2-.3-.4 0-.2.1-.6.3-.8l.6-.8c.1-.2.2-.5 0-.8-.1-.2-.1-.5-.1-.6.1-.2.3-.1.4.1.1.2.3.6.3.9z"/><path class="s16" d="M82.8 56.8q.1 0 .2.1h.1q0 .1.1.1l.1.1v.3l-.2.9q-.2.3-.5.6c-.1.2-.3.4-.5.3-.1 0-.2-.2-.3-.4 0-.2.1-.6.3-.8l.6-.8q.1-.1.1-.4z"/><path class="s28" d="M83 58.1q.1.1.1.2-.2.3-.5.6c-.1.2-.3.4-.5.3-.1 0-.2-.2-.3-.4 0-.2.1-.6.3-.8l.4-.5c.3.1.5.3.5.6z"/><path class="s16" d="M49.5 66.9s1.1-.5 2-.9c.8-.3 1.5.5 2.5.1.9-.3 1.3-1.5 2.6-1.6.6 0 2 0 2 .3s1.9.6 1.9.6 1.9-.4 2.3 0c.2.1 1.5.1 2 .6.7.2 1.1.2 1.1.2s-3.3.9-8.2 1c-4.4.2-8.2-.3-8.2-.3z"/><path class="s16" d="M51.4 66.7v-.6l.1-.1c.8-.3 1.5.5 2.5.1.9-.3 1.3-1.5 2.6-1.6.6 0 2 0 2 .3s1.9.6 1.9.6 1.9-.4 2.3 0c.2.1 1.5.1 2 .6.7.2 1.1.2 1.1.2s-3.3.9-8.2 1c-2.4.1-4.7 0-6.2-.1q0-.2-.1-.4z"/><path class="s19" d="M52.8 66.6v-.5c.4.1.7.2 1.2 0 .9-.3 1.3-1.5 2.6-1.6.6 0 2 0 2 .3s1.9.6 1.9.6 1.9-.4 2.3 0c.2.1 1.5.1 2 .6.7.2 1.1.2 1.1.2s-3.3.9-8.2 1c-1.8.1-3.5 0-4.8 0V67q-.1 0-.1-.1V66.6z"/><path class="s22" d="M54.2 66.6V66c.8-.4 1.2-1.4 2.4-1.5.6 0 2 0 2 .3s1.9.6 1.9.6 1.9-.4 2.3 0c.2.1 1.5.1 2 .6.7.2 1.1.2 1.1.2s-3.3.9-8.2 1c-1.2.1-2.4.1-3.4 0V66.9q-.1-.1-.1-.2v-.1z"/><path class="s25" d="M55.5 66.4v-.8q0-.2.1-.4v-.3c.3-.2.6-.3 1-.4.6 0 2 0 2 .3s1.9.6 1.9.6 1.9-.4 2.3 0c.2.1 1.5.1 2 .6.7.2 1.1.2 1.1.2s-3.3.9-8.2 1q-1.1.1-2 0 0-.1-.1-.2v-.4q-.1-.1-.1-.2z"/><path class="s29" d="M56.9 66.3q-.1-.9.2-1.8c.7 0 1.5.1 1.5.3 0 .3 1.9.6 1.9.6s1.9-.4 2.3 0c.2.1 1.5.1 2 .6.7.2 1.1.2 1.1.2s-3.3.9-8.2 1h-.6q-.1-.1-.1-.2v-.2q-.1-.1-.1-.2v-.3z"/><path class="s28" d="M58.3 66.2q-.1-.8.3-1.5v.1c0 .3 1.9.6 1.9.6s1.9-.4 2.3 0c.2.1 1.5.1 2 .6h.1v.4q-.1 0-.1.1c-1.2.2-3.4.5-6.2.7q-.1-.1-.1-.3-.1-.1-.1-.2t-.1-.3v-.2z"/><path class="s16" d="M65.8 25.1c-1 .5-.9-.2-1.9.2-.9.4-1.6-.4-2.5-.1-1 .4-1.3 1.5-2.7 1.6-.5 0-2 0-1.9-.3 0-.3-2-.6-2-.6s-1.8.4-2.3.1c-.2-.2-1.4-.2-2-.7-.6-.2-1.3-.9-1.3-.9s1.9-.4 6.9-.4c4.3-.1 9.7 1.1 9.7 1.1z"/><path class="s16" d="M63.9 24.7v.6c-.9.4-1.6-.4-2.5-.1-1 .4-1.3 1.5-2.7 1.6-.5 0-2 0-1.9-.3 0-.3-2-.6-2-.6s-1.8.4-2.3.1c-.2-.2-1.4-.2-2-.7-.6-.2-1.3-.9-1.3-.9s1.9-.4 6.9-.4c2.7 0 5.8.4 7.8.7z"/><path class="s19" d="M62.5 24.7q0 .3.1.5c-.4-.1-.8-.2-1.2 0-1 .4-1.3 1.5-2.7 1.6-.5 0-2 0-1.9-.3 0-.3-2-.6-2-.6s-1.8.4-2.3.1c-.2-.2-1.4-.2-2-.7-.6-.2-1.3-.9-1.3-.9s1.9-.4 6.9-.4c2.1 0 4.5.2 6.4.5z"/><path class="s22" d="M61.2 24.8v.5c-.8.4-1.2 1.4-2.5 1.5-.5 0-2 0-1.9-.3 0-.3-2-.6-2-.6s-1.8.4-2.3.1c-.2-.2-1.4-.2-2-.7-.6-.2-1.3-.9-1.3-.9s1.9-.4 6.9-.4c1.6 0 3.4.1 5 .3q0 .2.1.5z"/><path class="s25" d="M59.8 24.9V26.1q-.1.2-.1.4-.4.2-1 .3c-.5 0-2 0-1.9-.3 0-.3-2-.6-2-.6s-1.8.4-2.3.1c-.2-.2-1.4-.2-2-.7-.6-.2-1.3-.9-1.3-.9s1.9-.4 6.9-.4c1.1 0 2.4 0 3.6.2q.1.3.1.7z"/><path class="s29" d="M58.4 25q.1.9-.2 1.8c-.6 0-1.5-.1-1.4-.3 0-.3-2-.6-2-.6s-1.8.4-2.3.1c-.2-.2-1.4-.2-2-.7-.5-.2-1.1-.7-1.3-.8v-.1c.5-.1 2.5-.4 6.9-.4h2.1q.1.2.1.3 0 .1.1.2v.5z"/><path class="s28" d="M57.1 25.1q0 .8-.3 1.5v-.1c0-.3-2-.6-2-.6s-1.8.4-2.3.1c-.2-.2-1.4-.2-2-.7q0-.6.2-1.1c1.1-.1 2.9-.2 5.4-.2h.7q0 .1.1.2 0 .2.1.3v.3q.1.1.1.3z"/><path class="s16" d="m37 50.6-.4.8-.2-.4h-.1c-.1-.4-.4-.7-.6-.7-.2 0-.5-.1-.8-.3q-.7-.6-1.3-1.2c-.3-.2-.6-.7-.8-1v-.1c-.2-.3-.5-.6-.7-.6-.2 0-.5-.3-.7-.6-.5-1.1-.9-2.1-1.3-3.2-.1-.3-.2-.9-.2-1.3q.1-.3.1-.7c.1-.4.1-.9 0-1.2q-.1-.2-.1-.4c-.1-.3-.2-.5-.3-.4-.1.1-.2-.1-.2-.4-.1-.2 0-.4.1-.4v-.4l-.2-.6c0-.2-.2-.4-.3-.4h-.2c-.1 0-.3.1-.5.3-.5.7-.9 1.4-1.3 2q-.1.3 0-.1.2-.4.3-.7c.1-.3.2-.6.2-.8 0-.2.1-.5.2-.8q.2-.8.6-1.6c.1-.2.3-.6.4-.7q.1-.3.3-.5c.1-.2.3-.4.3-.4.6-.4 1.5-.7 3-.8.1-.1.2-.2.1-.3l-.2-.4c0-.1 0-.4.2-.7l.2-.4c.2-.3.5-.6.7-.8 1.8-1.4 4-2.7 6.3-3.9.3-.1.8-.3 1-.4q.9-.1 1.9-.3c.2 0 .3.1 0 .4-.9.7-1.8 1.6-2.7 2.5-.3.2-.3.6-.2.7q1 1 2.3 2.2c.2.3.2.6-.1 1q-.3.3-.5.6c-.3.3-.8.5-1.1.5q-.6-.1-1.1-.2c-.3 0-.4-.3-.3-.7q0-.2.1-.3c.1-.4.1-.7-.1-.7-.2.1-.5.4-.7.7-.1.3-.2.8-.2 1 0 .3-.3.5-.6.5-.1 0-.3.1-.5 0-.3.1-.7.3-.9.6l-.2.4c-.3.3-.3.7-.2.9.1.2.4.4.7.4q0 .1.1.1c.2.1.6.3.7.6q.2.3.3.6c.2.3.5.2.6-.2q.1-.2.1-.3c.2-.4.2-.8.2-.9-.1-.1-.1-.5 0-.9v-.2c.1-.4.3-.7.6-.6q.8 0 1.6.1c.3.1.7.3.9.6.5.8.9 1.5 1.4 2.3.2.3.1.8-.2 1-.8.6-1.6 1.1-2.4 1.7-.3.3-.6.7-.6 1.1 0 .4-.2.6-.3.6-.2 0-.4.1-.6.3-.1.2-.2.6-.2.9 0 .3-.2.7-.4 1l-.4.4c-.2.3-.3.9-.3 1.3q.1 0 .1.1c.1.4 0 .7-.1.7-.2 0-.5-.2-.6-.5-.2-.3-.5-.6-.8-.6h-.7c-.4 0-.7.3-.8.7 0 .1-.1.2-.1.4-.2.3-.1.8.1 1.1.2.2.4.5.5.5.1 0 .3-.1.4-.3.2-.1.4-.2.6-.1.1.1.1.5.1.8 0 .4.2.7.3.8.2 0 .4.3.5.7q.1.3.2.5z"/><path class="s16" d="M35.8 47.8h-.3q.2-.1.3 0zm-1.4-.1q-1.4-.2-2.8-.9-.1-.1-.2-.3c-.5-1.1-.9-2.1-1.3-3.2-.1-.3-.2-.9-.2-1.3q.1-.3.1-.7c.1-.4.1-.9 0-1.2q-.1-.2-.1-.4c-.1-.3-.2-.5-.3-.4-.1.1-.2-.1-.2-.4-.1-.2 0-.4.1-.4v-.4l-.2-.6c0-.2-.2-.4-.3-.4h-.2c-.1 0-.3.1-.5.3q-.2.3-.4.5-.1.3-.3.5-.1.3-.3.5-.2.3-.3.5-.1.3 0-.1.2-.4.3-.7c.1-.3.2-.6.2-.8 0-.2.1-.5.2-.8q.2-.8.6-1.6c.1-.2.3-.6.4-.7q.1-.3.3-.5c.1-.2.3-.4.3-.4.6-.4 1.5-.7 3-.8.1-.1.2-.2.1-.3l-.2-.4c0-.1 0-.4.2-.7l.2-.4c.2-.3.5-.6.7-.8q.5-.4 1-.7c2.4-.4 4.9.1 7 1.3l.6.6c.2.3.2.6-.1 1q-.3.3-.5.6c-.3.3-.8.5-1.1.5q-.6-.1-1.1-.2c-.3 0-.4-.3-.3-.7q0-.2.1-.3c.1-.4.1-.7-.1-.7-.2.1-.5.4-.7.7-.1.3-.2.8-.2 1 0 .3-.3.5-.6.5-.1 0-.3.1-.5 0-.3.1-.7.3-.9.6l-.2.4c-.3.3-.3.7-.2.9.1.2.4.4.7.4q0 .1.1.1c.2.1.6.3.7.6q.2.3.3.6c.2.3.5.2.6-.2q.1-.2.1-.3c.2-.4.2-.8.2-.9-.1-.1-.1-.5 0-.9v-.2c.1-.4.3-.7.6-.6q.8 0 1.6.1c.3.1.7.3.9.6.5.8.9 1.5 1.4 2.3.2.3.1.8-.2 1-.8.6-1.6 1.1-2.4 1.7-.3.3-.6.7-.6 1.1 0 .4-.2.6-.3.6-.2 0-.4.1-.6.3-.1.2-.2.6-.2.9 0 .3-.2.7-.4 1l-.4.4c-.2.3-.3.9-.3 1.3q.1 0 .1.1c.1.4 0 .7-.1.7-.2 0-.5-.2-.6-.5-.2-.3-.5-.6-.8-.6h-.7c-.4 0-.7.3-.8.7 0 .1-.1.2-.1.4-.2.3-.1.8.1 1.1z"/><path d="M37.4 46.2h-.1q-.1 0-.2.1H36.8q-.1-.1-.1-.2c-.2-.3-.5-.6-.8-.6h-.7c-.4 0-.7.3-.8.7-1.4-.3-2.8-.9-3.9-1.9l-.4-1c-.1-.3-.2-.9-.2-1.3q.1-.3.1-.7c.1-.4.1-.9 0-1.2q-.1-.2-.1-.4c-.1-.3-.2-.5-.3-.4-.1.1-.2-.1-.2-.4-.1-.2 0-.4.1-.4v-.4l-.2-.6c0-.2-.2-.4-.3-.4h-.2c-.1 0-.3.1-.5.3l-.4.6c.2-1.7.9-3.3 2.1-4.6q.9-.3 2.3-.4c.1-.1.2-.2.1-.3l-.2-.4c0-.1 0-.2.1-.4 3-1.5 6.6-1 9.1 1.1l-.1.2c-.3.3-.8.5-1.1.5q-.6-.1-1.1-.2c-.3 0-.4-.3-.3-.7q0-.2.1-.3c.1-.4.1-.7-.1-.7-.2.1-.5.4-.7.7-.1.3-.2.8-.2 1 0 .3-.3.5-.6.5-.1 0-.3.1-.5 0-.3.1-.7.3-.9.6l-.2.4c-.3.3-.3.7-.2.9.1.2.4.4.7.4q0 .1.1.1c.2.1.6.3.7.6q.2.3.3.6c.2.3.5.2.6-.2q.1-.2.1-.3c.2-.4.2-.8.2-.9-.1-.1-.1-.5 0-.9v-.2c.1-.4.3-.7.6-.6q.8 0 1.6.1c.3.1.7.3.9.6.5.8.9 1.5 1.4 2.3.2.3.1.8-.2 1-.8.6-1.6 1.1-2.4 1.7-.3.3-.6.7-.6 1.1 0 .4-.2.6-.3.6-.2 0-.4.1-.6.3-.1.2-.2.6-.2.9 0 .3-.2.7-.4 1l-.4.4c-.2.3-.3.9-.3 1.3q.1 0 .1.1v.3z" style="fill:#4b9835"/><path fill-rule="evenodd" class="s33" d="M42.1 36.5q.1.2.1.4.1.3.2.5 0 .3.1.6v.5c-.8.6-1.6 1.1-2.4 1.7-.3.3-.6.7-.6 1.1 0 .4-.2.6-.3.6-.2 0-.4.1-.6.3-.1.2-.2.6-.2.9 0 .3-.2.7-.4 1l-.4.4q-.1.1-.1.2c-2.6.6-5.5-.4-7-2.7q-.1-.1-.1-.2l-.2-.2q0-.1-.1-.2 0-.1-.1-.2c.1-.4 0-.8 0-1.1q-.1-.2-.1-.4c-.1-.3-.2-.5-.3-.4h-.1v-1.1c.2-1.9 1.2-3.7 3-4.7 1.7-1.1 3.7-1.2 5.5-.7-.1.3-.1.6-.1.7 0 .3-.3.5-.6.5-.1 0-.3.1-.5 0-.3.1-.7.3-.9.6l-.2.4c-.3.3-.3.7-.2.9.1.2.4.4.7.4q0 .1.1.1c.2.1.6.3.7.6q.2.3.3.6c.2.3.5.2.6-.2q.1-.2.1-.3c.2-.4.2-.8.2-.9-.1-.1-.1-.5 0-.9v-.2c.1-.4.3-.7.6-.6q.8 0 1.6.1c.3.1.7.3.9.6q.4.6.8 1.3zm-3.4-3.4q.2 0 .3.1.1.1.2.1.1.1.3.2.1 0 .2.1-.3 0-.6-.1c-.3 0-.4-.2-.4-.4z"/><path d="M40.1 36.2c.8 1.1 1 2.4.7 3.5q-.4.3-.7.5c-.3.3-.6.7-.6 1.1 0 .4-.2.6-.3.6-.2 0-.4.1-.6.3-.1.2-.2.4-.2.5-2.3 1.3-5.2.6-6.6-1.5-1.5-2.2-.8-5.1 1.5-6.5 1.1-.6 2.3-.8 3.5-.7-.3.1-.7.3-.9.6l-.2.4c-.3.3-.3.7-.2.9.1.2.4.4.7.4q0 .1.1.1c.2.1.6.3.7.6q.2.3.3.6c.2.3.5.2.6-.2q.1-.2.1-.3c.2-.4.2-.8.2-.9-.1-.1-.1-.5 0-.9v-.2q0-.3.2-.5 1.1.6 1.7 1.6z" style="fill:#c3d412"/><path class="s28" d="M38.9 37c1 1.5.5 3.5-1.1 4.4-1.6 1-3.7.5-4.7-1s-.5-3.5 1.1-4.4q.1-.1.3-.2.1 0 .3-.1.1 0 .3-.1.2 0 .3-.1 0 .3.1.4c.1.2.4.4.7.4q0 .1.1.1c.2.1.6.3.7.6q.2.3.3.6c.2.3.5.2.6-.2q.1-.2.1-.3c.1-.4.2-.7.2-.8q.1 0 .2.1t.1.2l.2.2.2.2z"/><path class="s16" d="M50.2 27.6c.2.1.1.3-.1.5 0 0-.1 0-.1.1-.2.1-.4.4-.5.7q0 .3-.1.7c-.1.3-.2.7-.4.9-.3.4-.6.8-.9 1.3-.2.2-.6.5-.8.6q-.7.2-1.3.4c-.3.2-.6.5-.8.7q-.1.2-.1.4c-.2.3-.5.6-.8.6-.2-.1-.5-.3-.7-.5-.1-.3-.3-.6-.4-.9-.1-.3-.2-.7-.2-.9v-1.3c0-.2-.1-.5-.3-.6q0-.1-.1-.1c-.1-.1-.4-.1-.7 0-.3.1-.5.1-.6-.1 0-.1 0-.4.2-.6.4-.4.8-.7 1.2-1.1.2-.1.5-.3.7-.4 1.7-.4 3.4-.7 5.2-1 .3 0 .6 0 .8.1q.4.2.8.5z"/><path class="s16" d="M44.1 33.5q-.6-.5-1.1-1.1v-1.5c0-.2-.1-.5-.3-.6q0-.1-.1-.1c-.1-.1-.4-.1-.6 0q-.1-.2-.1-.3v-.7l.8-.8c.2-.1.5-.3.7-.4 1.7-.4 3.4-.7 5.2-1 .3 0 .6 0 .8.1q.4.2.8.5c.2.1.1.3-.1.5 0 0-.1 0-.1.1-.2.1-.4.4-.5.7q0 .3-.1.7c-.1.3-.2.7-.4.9-.3.4-.6.8-.9 1.3-.2.2-.6.5-.8.6q-.7.2-1.3.4c-.3.2-.6.5-.8.7q-.1.2-.1.4l-.1.1q-.1-.1-.2-.1-.1-.1-.2-.1-.1-.1-.3-.2-.1 0-.2-.1z"/><path class="s33" d="M45 32.3c-1.5-1-2-2.8-1.5-4.3 1.7-.4 3.3-.7 5.1-1 .3 0 .6 0 .8.1q.4.2.8.5c.2.1.1.3-.1.5 0 0-.1 0-.1.1-.2.1-.4.4-.5.7q0 .3-.1.7c-.1.3-.2.7-.4.9-.3.4-.6.8-.9 1.3-.2.2-.6.5-.8.6q-.7.2-1.3.4-.1 0-.3-.1-.1 0-.2-.1-.2 0-.3-.1l-.2-.2z"/><path class="s28" d="M45.9 31.2c-1.2-.8-1.4-2.4-.6-3.4l.2-.2.8-.2q.3-.1.7-.1l.8-.2q.3 0 .7-.1.1 0 .1.1h.1l.1.1q.1 0 .1.1.7.4.9 1l-.3.6q0 .3-.1.7c-.1.3-.2.7-.4.9l-.8 1c-.7.3-1.6.2-2.3-.3z"/><path class="s16" d="M47.6 58.1v.5c-.1.4-.2.8-.4 1.1-1.5 1.6-2.7 2.9-3.6 3.9-.1.2-.1.5.1.7 0 0 .1.1.2.4-.1 0-.1 0-.2.1s0 .3.2.4c.3.2.4.4.3.4-.1.1-.3 0-.6-.2q-.4-.2-.7-.5c-.3-.1-.6-.4-.7-.6l-.6-1c-.1-.2-.2-.6-.3-.9-.2-1-.4-2.1-.5-3.5 0-.3-.3-.7-.6-.9q-.1 0-.1-.1c-.3-.1-.8-.6-.9-.9-.5-.8-.8-1.6-1.2-2.5-.2-.3-.3-.8-.2-1.1.1-.3.2-.7.1-1 0-.3-.3-.6-.6-.6l-.1-.1c-.2 0-.4-.1-.6-.3l.4-.8c.2.1.4.3.5.3h.1c.4 0 .8-.1 1.1-.2q.1-.1.2-.1c.3-.2.7-.2 1-.1.2.2.7.3 1.1.4h.5c.4 0 .7.4.8.8.1.4.4.8.8.8h.2c.3 0 .7.4.8.8v.1c.1.5.4.8.7.8.3.1.8.3 1.1.5.6.5 1.2.9 1.8 1.3.3.2.4.6.2.9-.2.3-.3.8-.3 1.2z"/><path class="s16" d="M37.4 51.8q.3-.2.7-.4l.8-.2q.3-.2.7-.3.4-.1.8-.1.3 0 .6.1h.5c.4 0 .7.4.8.8.1.4.4.8.8.8h.2c.3 0 .7.4.8.8v.1c.1.5.4.8.7.8.3.1.8.3 1.1.5.6.5 1.2.9 1.8 1.3.3.2.4.6.2.9-.2.3-.3.8-.3 1.2v.5c-.1.4-.2.8-.4 1.1-1.5 1.6-2.7 2.9-3.6 3.9-.1.2-.1.5.1.7 0 0 .1.1.2.4-.1 0-.1 0-.2.1s0 .3.2.4c.3.2.4.4.3.4-.1.1-.3 0-.6-.2q-.4-.2-.7-.5c-.3-.1-.6-.4-.7-.6l-.6-1c-.1-.2-.2-.6-.3-.9-.2-1-.4-2.1-.5-3.5 0-.3-.3-.7-.6-.9q-.1 0-.1-.1c-.3-.1-.8-.6-.9-.9-.5-.8-.8-1.6-1.2-2.5-.2-.3-.3-.8-.2-1.1.1-.3.2-.7.1-1 0-.3-.3-.6-.5-.6z"/><path class="s19" d="M37.9 53.1c1.3-.7 2.9-1.1 4.5-1.1.1.3.4.5.7.5h.2c.3 0 .7.4.8.8v.1c.1.5.4.8.7.8.3.1.8.3 1.1.5.6.5 1.2.9 1.8 1.3.3.2.4.6.2.9-.2.3-.3.8-.3 1.2v.5c-.1.4-.2.8-.4 1.1-1.5 1.6-2.7 2.9-3.6 3.9-.1.2-.1.5.1.7 0 0 .1.1.2.4-.1 0-.1 0-.2.1s0 .3.2.4c.3.2.4.4.3.4-.1.1-.3 0-.6-.2q-.4-.2-.7-.5c-.3-.1-.6-.4-.7-.6l-.6-1c-.1-.2-.2-.6-.3-.9-.2-1-.4-2.1-.5-3.5 0-.3-.3-.7-.6-.9q-.1 0-.1-.1c-.3-.1-.8-.6-.9-.9-.5-.8-.8-1.6-1.2-2.5-.2-.3-.3-.8-.2-1.1q.1-.1.1-.3z"/><path class="s22" d="M42.8 53.5q.7 0 1.4.2c.1.3.3.5.6.5.3.1.8.3 1.1.5.6.5 1.2.9 1.8 1.3.3.2.4.6.2.9-.2.3-.3.8-.3 1.2v.5c-.1.4-.2.8-.4 1.1-1.5 1.6-2.7 2.9-3.6 3.9-.1.2-.1.5.1.7 0 0 .1.1.2.4-.1 0-.1 0-.2.1s0 .3.2.4c.3.2.4.4.3.4-.1.1-.3 0-.6-.2q-.4-.2-.7-.5c-.3-.1-.6-.4-.7-.6l-.6-1c-.1-.2-.2-.6-.3-.9-.2-1-.4-2.1-.5-3.5 0-.3-.3-.7-.6-.9q-.1 0-.1-.1c-.3-.1-.8-.6-.9-.9q-.6-1.1-1.1-2.2c1.3-.9 2.9-1.3 4.7-1.3z"/><path class="s25" d="M42.7 54.9c2 .1 3.8.9 5.1 2.3-.1.3-.2.6-.2.9v.5c-.1.4-.2.8-.4 1.1-1.5 1.6-2.7 2.9-3.6 3.9-.1.2-.1.5.1.7 0 0 .1.1.2.4-.1 0-.1 0-.2.1s0 .3.2.4c.3.2.4.4.3.4-.1.1-.3 0-.6-.2q-.4-.2-.7-.5c-.3-.1-.6-.4-.7-.6l-.6-1c-.1-.2-.2-.6-.3-.9-.2-1-.4-2.1-.5-3.5 0-.3-.3-.7-.6-.9q-.1 0-.1-.1c-.3-.1-.8-.6-.9-.9q-.1-.1-.2-.3 0-.1-.1-.2 0-.1-.1-.2 0-.1-.1-.2c1.1-.8 2.5-1.2 4-1.2z"/><path class="s29" d="M42.7 56.5c2.1 0 3.8 1.2 4.7 2.8l-.2.4c-1.5 1.6-2.7 2.9-3.6 3.9-.1.2-.1.5.1.7 0 0 .1.1.2.4-.1 0-.1 0-.2.1s0 .3.2.4c.3.2.4.4.3.4-.1.1-.3 0-.6-.2q-.4-.2-.7-.5c-.3-.1-.6-.4-.7-.6l-.6-1c-.1-.2-.2-.6-.3-.9-.2-1-.4-2.1-.5-3.5 0-.3-.3-.7-.6-.9q-.1 0-.1-.1c-.2-.1-.4-.3-.6-.5.9-.6 2-1 3.2-.9z"/><path class="s28" d="M42.7 57.9c1.7 0 3.2 1.2 3.6 2.8-1.1 1.2-2 2.1-2.7 2.9-.1.2-.1.5.1.7 0 0 .1.1.2.4-.1 0-.1 0-.2.1q-.1 0-.2.1h-.4q-.1 0-.2.1v-.1c-.3-.1-.6-.4-.7-.6l-.6-1c-.1-.2-.2-.6-.3-.9-.2-1-.4-2.1-.5-3.5q0-.2-.2-.5c.6-.3 1.3-.5 2.1-.5z"/><path class="s16" d="M65.5 44.5c-.1.1-.2.3-.3.5 0 .3.1.8.3 1.2.3.8.6 1.5.9 2.2.1.4.5.9.8 1.1v.1c.3.2.8.4 1.2.4q.2-.1.4-.1c.3 0 .4.2.2.6-.9 1.3-1.7 2.6-2.6 3.9-.3.3-.4.6-.3.8.1.1.2.5.2.8v.2c-.1.4-.3.8-.5 1-.3.2-.6.6-.6.9-.1.3-.4.7-.6 1l-1.7 1.7c-.3.2-.7.4-1.1.4h-.5c-.3 0-.7-.3-.8-.5-.3-.9-.7-1.9-1.1-3-.1-.3-.1-.7.1-.9.1-.2.3-.7.3-1 0-.4-.2-.9-.4-1.2q-.1-.1-.2-.1-.1-.1-.1-.2l-.2-.2q-.1-.1-.1-.2c-.3-.3-.3-.7-.2-.8.2-.1.1-.4-.2-.6q-.2-.1-.3-.2c-.4-.2-.9-.4-1.3-.5h-1.6c-.4 0-1-.3-1.3-.6q-.3-.3-.7-.6c-.3-.3-.6-.9-.6-1.3q0-1.1-.1-2.2c0-.5.2-1 .5-1.4 1-.9 1.9-1.8 2.9-2.8.3-.3.9-.6 1.3-.6q.4-.1.8-.1c.4 0 .9.1 1 .3.2.2.3.5.2.7 0 .1.3.4.7.5l.4.2c.4.1.9 0 1.1-.2.3-.3.6-.3.8-.1.2.1.6.3 1 .3q.5 0 1 .1c.2 0 .5-.1.7-.1.2.2.5.4.6.6z"/><path class="s16" d="M65.5 44.5c-.1.1-.2.3-.3.5 0 .3.1.8.3 1.2.3.8.6 1.5.9 2.2.1.4.5.9.8 1.1v.1c.3.2.8.4 1.2.4q.2-.1.4-.1c.3 0 .4.2.2.6-.9 1.3-1.7 2.6-2.6 3.9-.3.3-.4.6-.3.8.1.1.2.5.2.8v.2c-.1.4-.3.8-.5 1-.3.2-.6.6-.6.9-.1.3-.4.7-.6 1l-1.7 1.7c-.3.2-.7.4-1.1.4h-.5c-.3 0-.7-.3-.8-.5-.3-.9-.7-1.9-1.1-3-.1-.3-.1-.7.1-.9.1-.2.3-.7.3-1 0-.4-.2-.9-.4-1.2q-.1-.1-.2-.1-.1-.1-.1-.2l-.2-.2q-.1-.1-.1-.2c-.3-.3-.3-.7-.2-.8.2-.1.1-.4-.2-.6q-.2-.1-.3-.2c-.4-.2-.9-.4-1.3-.5h-1.6c-.4 0-1-.3-1.3-.6q-.3-.3-.7-.6c-.3-.3-.6-.9-.6-1.3q0-1.1-.1-2.2c0-.5.2-1 .5-1.4 1-.9 1.9-1.8 2.9-2.8.3-.3.9-.6 1.3-.6q.4-.1.8-.1c.4 0 .9.1 1 .3.2.2.3.5.2.7 0 .1.3.4.7.5l.4.2c.4.1.9 0 1.1-.2.3-.3.6-.3.8-.1.2.1.6.3 1 .3q.5 0 1 .1c.2 0 .5-.1.7-.1.2.2.5.4.6.6z"/><path d="M65.5 44.5c-.1.1-.2.3-.3.5 0 .3.1.8.3 1.2.3.8.6 1.5.9 2.2.1.4.5.9.8 1.1v.1c.3.2.8.4 1.2.4q.2-.1.4-.1c.3 0 .4.2.2.6-.9 1.3-1.7 2.6-2.6 3.9-.3.3-.4.6-.3.8.1.1.2.5.2.8v.2c-.1.4-.3.8-.5 1-.3.2-.6.6-.6.9-.1.3-.4.7-.6 1l-1.7 1.7c-.3.2-.7.4-1.1.4h-.5c-.3 0-.7-.3-.8-.5-.3-.9-.7-1.9-1.1-3-.1-.3-.1-.7.1-.9.1-.2.3-.7.3-1 0-.4-.2-.9-.4-1.2q-.1-.1-.2-.1-.1-.1-.1-.2l-.2-.2q-.1-.1-.1-.2c-.3-.3-.3-.7-.2-.8.2-.1.1-.4-.2-.6q-.2-.1-.3-.2c-.4-.2-.9-.4-1.3-.5h-1.6c-.4 0-1-.3-1.3-.6q-.3-.3-.7-.6c-.3-.3-.6-.9-.6-1.3q0-1.1-.1-2.2c0-.5.2-1 .5-1.4 1-.9 1.9-1.8 2.9-2.8.3-.3.9-.6 1.3-.6q.4-.1.8-.1c.4 0 .9.1 1 .3.2.2.3.5.2.7 0 .1.3.4.7.5l.4.2c.4.1.9 0 1.1-.2.3-.3.6-.3.8-.1.2.1.6.3 1 .3q.5 0 1 .1c.2 0 .5-.1.7-.1.2.2.5.4.6.6z" style="fill:#328f3c"/><path d="M53.3 50.6c-.1-3.1 1.2-6.1 3.5-8.2q.2-.1.4-.1.4-.1.8-.1c.4 0 .9.1 1 .3.2.2.3.5.2.7 0 .1.3.4.7.5l.4.2c.4.1.9 0 1.1-.2.3-.3.6-.3.8-.1.2.1.6.3 1 .3q.5 0 1 .1c.2 0 .5-.1.7-.1.2.2.5.4.6.6-.1.1-.2.3-.3.5 0 .3.1.8.3 1.2.3.8.6 1.5.9 2.2.1.4.5.9.8 1.1v.1c.3.2.8.4 1.2.4q.2-.1.4-.1c.3 0 .4.2.2.6-.9 1.3-1.7 2.6-2.6 3.9-.3.3-.4.6-.3.8.1.1.2.5.2.8v.2c-.1.4-.3.8-.5 1-.3.2-.6.6-.6.9-.1.3-.4.7-.6 1l-.4.4-.4.4q-.3.2-.5.4t-.4.5c-.3.2-.7.4-1.1.4h-.3q-.2-.1-.3-.1-.1 0-.2-.1-.1 0-.2-.1h-.2q-.1-.1-.1-.2c-.3-.9-.7-1.9-1.1-3-.1-.3-.1-.7.1-.9.1-.2.3-.7.3-1 0-.4-.2-.9-.4-1.2q-.1-.1-.2-.1-.1-.1-.1-.2l-.2-.2q-.1-.1-.1-.2c-.3-.3-.3-.7-.2-.8.2-.1.1-.4-.2-.6q-.2-.1-.3-.2c-.4-.2-.9-.4-1.3-.5h-1.6c-.4 0-1-.3-1.3-.6l-.6-.6z" style="fill:#519b34"/><path d="M54.9 51.7c-.5-3.6 1.1-7.1 4.1-9.2.2.2.3.5.2.7 0 .1.3.4.7.5l.4.2c.4.1.9 0 1.1-.2.3-.3.6-.3.8-.1.2.1.6.3 1 .3q.5 0 1 .1c.2 0 .5-.1.7-.1.2.2.5.4.6.6-.1.1-.2.3-.3.5 0 .3.1.8.3 1.2.3.8.6 1.5.9 2.2.1.4.5.9.8 1.1v.1c.3.2.8.4 1.2.4q.2-.1.4-.1c.3 0 .4.2.2.6-.9 1.3-1.7 2.6-2.6 3.9-.3.3-.4.6-.3.8.1.1.2.5.2.8v.2c-.1.4-.3.8-.5 1-.3.2-.6.6-.6.9-.1.3-.4.7-.6 1q-.6.5-1.1 1.1l-1-.2q-.4-.1-.9-.3-.4-.2-.9-.4-.4-.2-.9-.4l-.4-1.2c-.1-.3-.1-.7.1-.9.1-.2.3-.7.3-1 0-.4-.2-.9-.4-1.2q-.1-.1-.2-.1-.1-.1-.1-.2l-.2-.2q-.1-.1-.1-.2c-.3-.3-.3-.7-.2-.8.2-.1.1-.4-.2-.6q-.2-.1-.3-.2c-.4-.2-.9-.4-1.3-.5h-1.6q-.2 0-.3-.1z" style="fill:#75ad2b"/><path d="M56.5 51.8c-.6-3.1.7-6.2 3.3-8.1h.1l.4.2c.4.1.9 0 1.1-.2.3-.3.6-.3.8-.1.2.1.6.3 1 .3q.5 0 1 .1c.2 0 .5-.1.7-.1.2.2.5.4.6.6-.1.1-.2.3-.3.5 0 .3.1.8.3 1.2.3.8.6 1.5.9 2.2.1.4.5.9.8 1.1v.1c.3.2.8.4 1.2.4q.2-.1.4-.1c.3 0 .4.2.2.6-.9 1.3-1.7 2.6-2.6 3.9-.3.3-.4.6-.3.8.1.1.2.5.2.8v.2c-.1.4-.3.8-.5 1-.3.2-.6.6-.6.9-.1.2-.2.5-.4.8-2-.1-3.9-.9-5.4-2.1h.1c.1-.2.3-.7.3-1 0-.4-.2-.9-.4-1.2q-.1-.1-.2-.1-.1-.1-.1-.2l-.2-.2q-.1-.1-.1-.2c-.3-.3-.3-.7-.2-.8.2-.1.1-.4-.2-.6q-.2-.1-.3-.2c-.4-.2-.9-.4-1.3-.5h-.3z" style="fill:#97bc1f"/><path d="M58.1 52.3c-1-3.5.9-7.2 4.5-8.5q.3.1.6.1.5 0 1 .1c.2 0 .5-.1.7-.1.2.2.5.4.6.6-.1.1-.2.3-.3.5 0 .3.1.8.3 1.2.3.8.6 1.5.9 2.2.1.4.5.9.8 1.1v.1c.3.2.8.4 1.2.4q.2-.1.4-.1c.3 0 .4.2.2.6-.9 1.3-1.7 2.6-2.6 3.9-.3.3-.4.6-.3.8.1.1.2.5.2.8v.2c-.1.4-.3.8-.5 1l-.2.2c-3 .1-5.8-1.5-7.1-4.1q0-.1.1-.2c.2-.1.1-.4-.2-.6q-.1-.1-.3-.2z" style="fill:#b8cd15"/><path d="M59.6 52c-.9-2.9.8-6 3.9-7q.2 0 .4-.1.3 0 .5-.1h.9v.1h-.1v.1c0 .3.1.8.3 1.2.3.8.6 1.5.9 2.2.1.4.5.9.8 1.1v.1c.3.2.8.4 1.2.4q.2-.1.4-.1c.3 0 .4.2.2.6-.9 1.3-1.7 2.6-2.6 3.9-.3.3-.4.6-.3.8.1.1.2.3.2.7-2.9.4-5.8-1.2-6.7-3.9z" style="fill:#dee10a"/><path class="s28" d="M61.1 51.6c-.7-2.2.5-4.5 2.8-5.2q.2 0 .4-.1h.4q.2-.1.4-.1h.4c.3.8.6 1.5.9 2.2.1.4.5.9.8 1.1v.1c.3.2.8.4 1.2.4q.2-.1.4-.1c.3 0 .4.2.2.6-.9 1.3-1.7 2.6-2.6 3.9-2.3.5-4.6-.7-5.3-2.8z"/><path class="s41" d="M216.4 24.4h29.3v98.1s-.3-10.9-17.9-15.1V36.3s1.5-9.7-11.4-11.9zm-23 11.9s.7-9.9-11.4-11.9h29.2v98.1s-1.5-11.6-14.1-14.3c0 0-2.5-.3-5.7.4 0 0-7.9 1.8-14.4-1.9V122s-2.2-7.9-11.9-10.6c0 0-6.7-1.5-14.4.5 0 0-34.4 11.1-62.9-8.5v10.9s-1.5-8.4-9.4-9.9c0 0-4.5-.5-7.7 2s-9.2 7.5-19.3 1.3V122s-8.6-7.9-19.5-2.7c0 0-9.4 5.8-16.5.7 0 0-5.2-3.2-3.8-10.3 0 0 7.7 9.5 17.2-.9 3.7-4 3.9-10.7 3.9-10.7v-14s-.1-6.5-9.6-6.7h28v16.3s.6 3.8 5.8 5.1c0 0 10.9 2.8 12.2-9 0 0 2.9-12-10.3-12.4h28.7v15.2s8.7 11.5 30.8 6.5c0 0 2.6-.2 7.7-2.2 0 0 11.6-4.5 15.5-3.2 0 0-16.4-17.7-39.7-13.5 0 0 19.4-16.7 55.6 4.2 0 0 12.7 8.7 19.7 8.9 0 0 15.5 2.8 16.2-16.7z"/><path fill-rule="evenodd" class="s15" d="M225.3 27v-.1l-1.2-1h20.4v89.9l-1-1.1c-1.7-2.1-4.4-4.3-8.4-6.1q-.4-.1-.7-.3l-.6-.2q-.3-.1-.6-.3-.3-.1-.7-.2-.3-.1-.7-.2-.3-.2-.7-.3-.3-.1-.7-.2-.3-.1-.7-.2l-.4-.1V36.5c.1-.7.2-3.4-1.3-6.3q-.1-.2-.3-.4l-.2-.4q-.2-.2-.3-.4-.2-.2-.3-.4-.7-.9-1.6-1.6zm1.7 0q.4.4.7.9l.4.4q.1.2.3.5.1.2.3.4.1.3.2.5c1.6 3.1 1.5 6 1.5 6.9v69.2l.6.2.6.2q.4.1.7.2l.6.2q.3.1.7.2.3.1.6.3l.6.2q.4.2.7.3c3.5 1.6 6.1 3.4 7.9 5.3V27zm-32.6 5.8c-.6-1.8-1.6-4.1-3.8-5.9l-1-1h20.5v90.3l-.9-1.3c-1.2-1.6-2.7-3.2-4.5-4.6-1.9-1.4-4.3-2.6-7.1-3.2h-.2c-.4-.1-2.6-.2-5.5.4q-.3 0-.6.1c-.1 0-3.4.7-7.3.1q-1.3-.1-2.5-.5-1.3-.3-2.6-.9-.1-.1-.3-.1l-.2-.2q-.1 0-.3-.1l-.2-.2-2-1.1V117l-.9-1c-1-1.1-2.2-2.2-3.8-3.2-1.5-1-3.3-1.8-5.5-2.5h-.1c-.1 0-1.9-.4-4.6-.5-2.8-.1-6.4 0-10.4 1h-.1c-.2.1-17.6 5.6-37.5 1.7-3.9-.7-7.9-1.8-11.9-3.4-4-1.6-8-3.6-11.9-6.2l-.5-.3-2-1.4v7.1l-1-1.1c-.7-.8-1.7-1.7-2.8-2.3-1.2-.7-2.5-1.2-4.1-1.5h-.1c-.1-.1-1.3-.2-3 0-1.7.3-3.8.8-5.6 2.2l-.2.2h-.1c-3.3 2.6-8.4 6.5-17.5 1l-2-1.3v14.1l-.9-.5c-1.8-1-4.3-2.1-7.4-2.5-3-.4-6.6-.1-10.4 1.7l-.1.1h-.1c-.1.1-4.4 2.6-9.1 2.6q-1.5 0-2.9-.4-1.5-.4-2.8-1.3-.1 0-.2-.1l-.1-.1c-.1 0-.8-.5-1.5-1.3-.7-.9-1.5-2.1-1.8-3.9l-.2-1.2 1 .7c1.1.6 2.4 1.3 3.9 1.6h.2q.1.1.2.1h.4q.2.1.3.1h.7q3.9.1 7.6-2.6l1.4-1.2.4-.4q.2-.1.3-.3l.4-.4q.2-.2.3-.4h.1c2-2.1 3-4.9 3.6-7.2.6-2.3.6-4.1.6-4.3V84.3c0-.1 0-1.2-.7-2.6q0-.1-.1-.3 0-.1-.1-.2 0-.1-.1-.2t-.1-.2l-.2-.2q-.1-.2-.1-.3l-.2-.2-.2-.2v-.1l-.8-.9H50V94.2c0 .1.4 2.3 2.6 4.1q.7.6 1.6 1 1 .5 2.2.9H56.7q0 .1.1.1c.1 0 1.4.3 3.2.3 1.8 0 4.1-.4 6.1-1.8q2.7-1.9 3.9-5.4 0-.2.1-.4 0-.2.1-.4 0-.2.1-.3 0-.2.1-.4l.2-1.6v-.1c.1-.4.7-3.2-.1-6.2q0-.3-.1-.5l-.2-.4q0-.3-.1-.5l-.2-.4q-.4-.9-1-1.7l-.1-.1-.4-.4-.1-.2-.8-.9h18.9v14.4l.3.4c.3.3 5 6.3 16 7.9 2.1.3 4.5.4 7.2.3 2.6-.1 5.5-.5 8.7-1.2h.1c.3-.1 1.1-.2 2.4-.5 1.4-.4 3.2-.9 5.6-1.8l.1-.1c4.6-1.8 12.5-4.9 18.6-2.3l-2.8-3c-.4-.5-7-7.4-17.7-11.6-2.1-.8-4.3-1.5-6.7-2-2.4-.5-4.9-.8-7.5-.9h-.1l-2.9-.1 2.8-1c6.1-2.1 15.9-3.5 29.3.6q3.9 1.2 8.1 3.1 4.3 1.9 9 4.6h.1c.8.6 7.1 4.9 13.4 7.4q1.8.7 3.5 1.2 1.7.4 3.2.5h.1c.6.1 3.8.5 7.3-.7l.6-.2q.2-.1.5-.2.2-.1.5-.2.2-.1.5-.3.3-.1.5-.3.3-.1.5-.3.3-.2.5-.3.3-.2.5-.4l.1-.1c2.7-2.2 4.6-5.4 5.5-9.5q.3-1.3.4-2.6.2-1.4.3-2.8V37.2v.1-.8c0-.4 0-1.8-.5-3.7zm-2.1-5.8c1.7 1.8 2.6 3.8 3.1 5.5.4 1.4.5 2.6.5 3.3h.1v41.1q-.1 1.5-.3 2.9-.1 1.4-.4 2.7c-1 4.4-3 7.8-5.9 10.2h-.1q-.3.2-.5.4l-.6.4q-.2.2-.5.4-.3.1-.6.3-.3.1-.5.3l-.6.2-.6.2q-.2.2-.5.2c-3.7 1.3-7.1.9-7.8.8q-1.7-.1-3.5-.6t-3.6-1.2c-6.4-2.6-12.8-6.9-13.6-7.5q-4.7-2.6-8.9-4.5-4.2-1.8-8.1-3c-11.1-3.5-19.7-3-25.7-1.5q.6.1 1.2.1l1.2.2q.6.1 1.1.2.6.1 1.2.3c2.5.5 4.8 1.2 6.9 2 10.9 4.2 17.7 11.4 18.1 11.9l5 5.4 2.4 2.5-3-1.7-2.6-1.4c-5.6-2.6-13.5.5-18 2.2l-.1.1c-2.4.9-4.3 1.5-5.7 1.8-1.3.4-2.2.5-2.5.5l-.1.1c-3.2.7-6.2 1-8.9 1.2-2.7.1-5.2-.1-7.4-.4-11.4-1.6-16.4-7.9-16.7-8.3l-.3-.5-.1-.1V80H69.9l.2.4q.2.2.3.5l.2.4q.2.2.3.4.4 1 .7 2c.8 3.2.2 6.2.1 6.7q0 .3-.1.5v.4q-.1.2-.1.4t-.1.4-.1.4-.1.4-.1.4-.1.4q-1.3 3.9-4.3 6c-2.2 1.5-4.7 1.9-6.7 2-2 0-3.4-.4-3.5-.4q-.2 0-.4-.1-1.3-.4-2.3-.9-1.1-.5-1.8-1.2c-2.6-2-3-4.6-3.1-4.8V80h-15q0 .1.1.2t.1.3l.2.2q0 .1.1.3.1.1.1.2c.8 1.7.8 3.1.8 3.1v14.1c0 .2-.1 2.1-.6 4.5-.6 2.5-1.8 5.4-3.9 7.7l-.1.1q-.7.8-1.5 1.5l-.3.3q-.2.2-.4.3-.2.2-.4.3-.2.2-.4.3-3.9 3-8.2 2.9H18.9q-.1 0-.2-.1h-.5q-.2 0-.3-.1h-.2q-.2 0-.3-.1c-1.1-.2-2.1-.6-3-1q.1.2.3.5l.2.6q.2.2.4.5.1.2.3.5c.6.7 1.1 1 1.2 1.1h.1l.1.1.2.1.6.4q.3.1.6.3l.6.2q.4.2.7.2 1.3.4 2.6.4c4.4.1 8.5-2.4 8.6-2.4l.1-.1h.1c4.1-2 7.8-2.3 11.1-1.9 2.8.4 5.1 1.3 7 2.3v-14.2l.8.5 2.8 1.7c8.5 5.2 13.2 1.6 16.4-.8v-.1l.2-.2c2-1.5 4.3-2.1 6.1-2.3 1.8-.3 3.2-.1 3.3-.1h.2c1.7.3 3.2.9 4.4 1.6l.6.4.6.4q.2.2.5.4.2.2.5.4v-6.4l.8.6 3 2 .4.3c3.8 2.6 7.7 4.6 11.7 6.1 3.9 1.5 7.8 2.6 11.7 3.4 19.6 3.7 36.7-1.6 37-1.7h.2c4-1.1 7.8-1.2 10.6-1.1 2.8.1 4.6.5 4.8.6h.2c2.3.6 4.2 1.6 5.8 2.6q.4.2.8.5l.8.6q.3.3.7.6.4.3.7.7v-11.6l.8.5 2.8 1.6q.5.3 1 .5 1.1.6 2.3.9 1.2.3 2.4.5c3.7.5 6.7-.1 7-.2q.2 0 .6-.1c3-.6 5.4-.4 5.8-.4H197.8c3 .7 5.5 1.9 7.5 3.4 1.5 1.1 2.7 2.3 3.7 3.6V27z"/><path class="s41" d="M68.8 115.4c0-4.4 3.6-7.9 7.9-7.9 4.4 0 7.9 3.5 7.9 7.9 0 4.3-3.5 7.8-7.9 7.8-4.3 0-7.9-3.5-7.9-7.8z"/><path fill-rule="evenodd" class="s15" d="M76.7 122.3c-1.9 0-3.6-.8-4.9-2.1a6.8 6.8 0 0 1-2-4.8c0-2 .8-3.7 2-4.9 1.3-1.3 3-2.1 4.9-2.1 1.9 0 3.7.8 4.9 2.1 1.3 1.2 2 2.9 2 4.9 0 1.9-.7 3.6-2 4.8-1.2 1.3-3 2.1-4.9 2.1zm0-1.1c1.6 0 3.1-.7 4.1-1.7 1.1-1.1 1.8-2.5 1.8-4.1 0-1.7-.7-3.1-1.8-4.2-1-1-2.5-1.7-4.1-1.7-1.6 0-3 .7-4.1 1.7-1.1 1.1-1.7 2.5-1.7 4.2 0 1.6.6 3 1.7 4.1 1.1 1 2.5 1.7 4.1 1.7z"/><path class="s41" d="M118.9 63.7c0-4.3 3.5-7.9 7.9-7.9 4.3 0 7.9 3.6 7.9 7.9 0 4.4-3.6 7.9-7.9 7.9-4.4 0-7.9-3.5-7.9-7.9z"/><path fill-rule="evenodd" class="s15" d="M126.8 70.4c-1.9 0-3.6-.7-4.9-2-1.2-1.2-2-3-2-4.9 0-1.9.8-3.6 2-4.9 1.3-1.2 3-2 4.9-2 1.9 0 3.7.8 4.9 2 1.3 1.3 2 3 2 4.9q0 .7-.1 1.4-.1.6-.4 1.3l-.6 1.2q-.4.5-.9 1c-1.2 1.3-3 2-4.9 2zm0-1.1c1.6 0 3.1-.6 4.1-1.7 1.1-1 1.7-2.5 1.8-4.1h-.1.1c0-1.6-.7-3.1-1.8-4.1-1-1.1-2.5-1.7-4.1-1.7-1.6 0-3.1.6-4.1 1.7-1.1 1-1.7 2.5-1.7 4.1 0 1.6.6 3.1 1.7 4.1 1 1.1 2.5 1.7 4.1 1.7z"/><path fill-rule="evenodd" class="s0" d="M96.5 120.1c0 .5 0 .6.5.6h.7c.9 0 1-1 1.2-1 .1 0 .2 0 .2.3l.1 1.9c0 .1 0 .5-.2.5-.4 0-.1-1.1-1.2-1.1H97c-.5 0-.5.1-.5.7v1.5c0 .6 0 1 .8 1 2.7 0 2.5-1.4 2.9-1.4.1 0 .2 0 .2.2 0 .9-.7 1.8-1.6 1.8-1.6 0-2.3-.1-2.9-.1-.3 0-.8.1-1.4.1q-.2 0-.2-.1c0-.5.9.1.9-1.3v-5.1c0-1-1.3-.7-1.3-1.1 0-.1.1-.2.3-.2.4 0 1.2.1 2.9.1.8 0 1.5-.1 2.5-.1.1 0 .2.1.2.2l.1 1.1c0 .2 0 .5-.2.5-.6 0 .3-1.3-1.8-1.3-1.3 0-1.4 0-1.4.8zm6.7 3.3c0 .7 0 1.1.8 1.1 2.7 0 2.6-1.4 3-1.4 0 0 .1 0 .1.2 0 .9-.7 1.8-1.6 1.8-1.6 0-2.3-.1-2.8-.1-.4 0-.8.1-1.4.1q-.2-.1-.2-.2c0-.5.8.1.8-1.2v-5.2c0-.9-1.2-.6-1.2-1 0-.1.1-.2.3-.2h2.7c.3 0 .3 0 .3.1 0 .4-.8 0-.8.9zm11.6-3.3c0 .1-.2.3-.2.4 0 .1.1.2.3.4l2.1 2.8c.8 1.2 1.3.9 1.3 1.2 0 0 0 .1-.1.1h-1.6c-.2 0-.3 0-.5-.3l-2.2-3c-.2-.2-.2-.3-.3-.3-.1 0-.3.2-.5.4s-.2.3-.2.6v1.4c0 1 1.1.7 1.1 1.1 0 .1 0 .1-.3.1H111.1c-.2 0-.4 0-.4-.1 0-.5.9.2.9-1.5v-4.7c0-1.4-1.2-.8-1.2-1.3q.1-.2.3-.2c.2 0 .5.1 1.3.1.6 0 1.3-.1 1.5-.1.1 0 .2 0 .2.2 0 .4-.8-.2-.8 1v2.5c0 .1 0 .3.1.3s.1-.1.3-.2l1.4-1.4c.3-.3 1.4-1.2 1.4-1.7 0-.3-.7-.2-.7-.5 0-.1.1-.2.3-.2.1 0 .8.1 1.2.1.3 0 .5-.1 1-.1.1 0 .3 0 .3.2 0 .3-.4 0-1.4 1zm11.4 3.3c0 1.4 1.1 1 1.1 1.4 0 .1-.1.1-.2.1h-2.9q-.2 0-.2-.1c0-.4.8-.1.8-1.2v-1.9c0-.5 0-.6-.4-.6h-3c-.5 0-.5.1-.5.6v1.7c0 1.4 1.3 1 1.3 1.4 0 0 .1.1-.3.1h-3.1c-.1 0-.2 0-.2-.1 0-.5.9-.1.9-1.5v-4.8c0-1.2-1.2-.8-1.2-1.2 0-.1.3-.1.5-.1h2.7q.2 0 .2.1c0 .4-.8 0-.8 1v1.8c0 .3 0 .4.3.4h3.2c.3 0 .4-.3.4-.5v-1.5c0-1.2-1.2-.9-1.2-1.2 0-.2.1-.1.3-.1h2.8c.2 0 .2 0 .2.1 0 .4-.7-.1-.7 1zm3.9-1.1c-.2 0-.4 0-.6.7-.1.2-.3.6-.3.9 0 .8 1.2.6 1.2.9 0 .2-.3.2-.6.2s-.6-.1-1-.1c-.3 0-.6.1-1 .1-.1 0-.3 0-.3-.2s.6-.2.8-.8l3-6.6c.1-.2.2-.4.3-.4.1 0 .1 0 .3.4l2.9 6.7c.4.8 1 .3 1 .7 0 .2-.1.2-.4.2-.4 0-.7-.1-1.4-.1-.5 0-.9.1-1.3.1-.1 0-.3 0-.3-.2 0-.3.8-.2.8-.8 0-.3-.1-.5-.2-.8-.4-.8-.4-.9-.7-.9zm1.8-.6c.2 0 .4 0 .4-.1 0-.2-.1-.3-.2-.4l-.9-2v-.1c-.1 0-.1 0-.2.1l-.8 2c-.1.1-.1.2-.1.4 0 .1.1.1.3.1zm5.2-2.9c0-1.5-1.2-.9-1.2-1.5 0-.1.1-.1.2-.1h3.4c2.7 0 2.7 1.6 2.7 1.9 0 .7-.4 1.3-1.2 1.5 1.4.4 1.8 1 1.8 2 0 1.4-1 2.4-2.8 2.4-1.6 0-2.2-.1-2.7-.1-.3 0-.6.1-.8.1-.3 0-.4-.1-.4-.2 0-.4 1-.1 1-1.2zm1.3 1.2c0 .6.1.6.8.6h.6c.9 0 1.2-.4 1.2-1.2 0-1-.8-1.7-1.8-1.7-.8 0-.8.4-.8 1zm0 3.2c0 1.1.3 1.4 1.4 1.4 1 0 1.6-.7 1.6-1.8 0-.6-.3-1.6-2.3-1.6-.7 0-.7.2-.7.8zm7.5-.9c-.1 0-.4 0-.6.8-.1.2-.3.6-.3.8 0 .8 1.2.7 1.2.9 0 .3-.3.2-.5.2h-2c-.2 0-.4 0-.4-.1 0-.3.6-.2.9-.8l2.9-6.7c.1-.1.2-.3.3-.3.1 0 .1 0 .3.3l2.9 6.7c.4.8 1 .4 1 .7 0 .2-.1.2-.4.2H148.6c-.2 0-.4 0-.4-.1 0-.3.8-.2.8-.9 0-.2-.1-.4-.2-.7-.3-.9-.4-1-.7-1zm1.8-.6c.2 0 .4 0 .4-.1s-.1-.3-.1-.4l-.9-2-.1-.1s-.1 0-.1.2l-.9 1.9c0 .1-.1.3-.1.4 0 .1.1.1.3.1zm5.3-3.1c0-1.2-1.2-.8-1.2-1.2 0-.1.1-.2.2-.2.5 0 .6.1 1.3.1.7 0 1.5-.1 2.2-.1 2.4 0 2.6 1.6 2.6 2.1 0 .7-.3 1.1-.6 1.4-.3.2-.6.3-.6.4 0 .1.9 1.7 1.7 3.1.1.1.3.1.4.1h.3q.2 0 .2.1c0 .4-.8.6-1.2.6-.9 0-1.2-.7-1.6-1.3l-.9-1.8c-.2-.4-.4-.5-1-.5s-.5 0-.5.4v1.9c0 1.2 1.1.7 1.1 1.1 0 .1-.1.2-.3.2h-2.7c-.1 0-.3 0-.3-.2 0-.3.9 0 .9-1.4zm1.3 2c0 .3.4.3.7.3 1.7 0 1.8-.6 1.8-1.3 0-1.1-.6-1.9-1.7-1.9-.4 0-.8 0-.8.7z"/><path fill-rule="evenodd" class="s41" d="M34.9 62.9s1.3-.7 3.7-1.4c-1.8-1.9-3.7-4.2-5.1-7.1-4.7 1.2-7.3 2.3-7.3 2.3l-.1-.2s2.6-1.2 7.2-2.4c-1.1-2.3-1.8-5.1-1.9-8.1H21.3v-.3h10.1v-.3c0-3.3.6-6.2 1.5-8.6-4.4-1.2-6.8-2.2-6.8-2.2l.1-.3s2.5 1.1 6.8 2.2c1.2-3.1 3-5.5 4.6-7.2-1.6-.5-2.5-1-2.5-1l.1-.2s.9.4 2.6.9c2.2-2.2 4.2-3.3 4.2-3.3l.1.3s-1.8 1-4 3.2c1.4.4 3.2.9 5.4 1.3 3.3-4.4 7.1-6.4 7.1-6.4l.2.2c-.1.1-3.7 2-7 6.2 1.9.4 4.1.7 6.5.9 2.1-4.5 4.5-7.2 4.5-7.2l.3-.3v.1l.1-.1s2.8 2.9 5.2 7.5c2.6-.2 4.9-.6 6.8-1-3.2-4.1-6.8-6-6.8-6l.2-.2s3.7 1.9 7 6.2c2.3-.5 4-1.1 5.3-1.5-2-2-3.6-2.8-3.6-2.8l.2-.3s1.7.9 3.7 3c1.2-.5 1.9-.9 1.9-.9l.1.3s-.6.3-1.8.8q.7.7 1.3 1.5.7.8 1.2 1.6.6.9 1 1.8.5.9.9 1.8c3.8-1.4 5.7-2.6 5.7-2.6l.2.3s-2 1.2-5.8 2.6c1.1 2.6 1.8 5.7 1.8 9.4v.3h10v.3h-10c-.1 3.4-.9 6.4-2.2 8.9 4 1.4 6.2 2.7 6.2 2.7l-.2.3s-2.1-1.3-6.1-2.7c-1.4 2.7-3.1 4.8-4.8 6.5 1.7.6 2.6 1.1 2.6 1.1l-.1.3s-1-.5-2.8-1.1c-2.9 2.8-5.6 4.2-5.6 4.2l-.2-.3c.1 0 2.6-1.3 5.5-4-1.3-.5-3-1-5.1-1.4-3.7 4.5-7.8 6.8-7.9 6.8l-.1-.3s4-2.2 7.7-6.5q-2.7-.6-6.1-.8c-2.3 4.6-4.9 7.4-4.9 7.5l-.2-.2V67.6l-.2-.3c-.1 0-2.6-2.9-4.8-7.6q-3.3.2-6 .7c3.5 4.4 7.4 6.5 7.4 6.5l-.1.3S47.6 65 44 60.5c-1.8.3-3.5.7-4.8 1.1 3.2 3 6.1 4.5 6.2 4.5l-.2.3s-3.1-1.6-6.3-4.7c-2.5.8-3.8 1.4-3.8 1.4zm-3.3-17.2h6.9v-.4c0-2.6.3-4.9.9-7-2.3-.4-4.5-.9-6.3-1.3-.9 2.4-1.5 5.2-1.5 8.5zm7.2 0h8.1v-.2c0-2.2.3-4.3.7-6.2-2.9-.2-5.5-.6-7.9-1-.6 2.1-.9 4.4-.9 7v.4zm8.5 0h7.6l-.1-6.1q-3.6 0-6.9-.3c-.4 2-.6 4-.6 6.2zm7.9 0h8.5v-.3c0-2.2-.3-4.2-.7-6.2q-3.5.4-7.6.4h-.3zm8.9 0h8.2v-.4c0-2.8-.4-5.2-1.1-7.3-2.3.5-4.9.9-7.8 1.2.4 2 .7 4.1.7 6.3zm8.5 0h6.8v-.3c0-3.7-.7-6.8-1.8-9.3-1.7.6-3.7 1.2-6.1 1.8.7 2.1 1.1 4.6 1.1 7.3v.5zm6.8.3h-6.8c-.1 2.6-.6 5-1.4 7.2 2.3.5 4.3 1.1 6 1.6 1.3-2.5 2.1-5.4 2.2-8.8zm-7.1 0h-8.2c-.1 2-.3 4-.8 5.9 2.8.3 5.3.7 7.6 1.2.8-2.1 1.3-4.5 1.4-7.1zm-8.5 0h-8.5v5.5h.1q4.1 0 7.6.3c.5-1.8.7-3.8.8-5.8zm-8.9 0h-7.6c.1 2 .3 3.9.7 5.7q.9 0 1.7-.1.9 0 1.8-.1H55zM47 46h-8.2c.1 2.4.5 4.7 1.2 6.7q3.5-.6 7.6-.9c-.4-1.9-.6-3.8-.6-5.8zm-8.5 0h-6.9c.1 3 .9 5.7 2 8.1 1.7-.5 3.8-.9 6.1-1.3-.7-2.1-1.2-4.4-1.2-6.8zm.4 15.4c1.3-.4 2.9-.8 4.9-1.2-1.6-2-3-4.3-4-7.1q-3.5.6-6.1 1.2c1.4 2.9 3.3 5.3 5.2 7.1zm5.2-1.2c1.8-.4 3.8-.7 6.1-.8-1-2.2-1.9-4.6-2.5-7.3q-4.2.3-7.6.9c1 2.8 2.4 5.2 4 7.2zm6.4-.9q2.1-.1 4.5-.1l-.1-7.5q-3.6.1-6.9.3c.6 2.8 1.5 5.2 2.5 7.3zm4.8-.1h.1q2.6 0 4.9.1c1-2 2-4.5 2.6-7.2q-3.5-.3-7.5-.4h-.2zm.1.4h-.1l.1 7.4c.4-.5 2.7-3.2 4.8-7.3q-2.2-.1-4.8-.1zm-.4 0q-2.2 0-4.3.1c1.8 3.7 3.7 6.3 4.4 7.2zm5.6-.1c2.3.2 4.4.5 6.1.8 1.6-1.9 3-4.2 4-6.8-2.2-.5-4.7-1-7.5-1.2-.6 2.6-1.6 5.1-2.6 7.2zm6.5.9c2.1.4 3.8.9 5.1 1.3 1.7-1.6 3.4-3.8 4.8-6.5-1.7-.6-3.7-1.1-6-1.7-1 2.7-2.4 5-3.9 6.9zM50.6 31.5q2 .2 4.2.2l-.1-6.9c-.6.8-2.5 3.2-4.1 6.7zm4.5.2h.3q2.5 0 4.6-.2c-2.1-3.9-4.4-6.5-5-7.1zm.3.3h-.3l.1 7.4h.2q4.1 0 7.6-.3c-.7-2.8-1.7-5.2-2.8-7.3q-2.2.2-4.8.2zm-.6 0q-2.3 0-4.3-.2c-1 2.1-1.9 4.6-2.5 7.3q.9.1 1.7.2h1.7q.9.1 1.8.1h1.7zm-4.7-.2c-2.5-.2-4.7-.5-6.6-.8-1.4 1.9-2.8 4.3-3.7 7.1 2.4.4 5 .8 7.8 1 .6-2.7 1.5-5.2 2.5-7.3zm-6.9-.9c-2.2-.4-4-.9-5.4-1.4-1.6 1.7-3.3 4.1-4.6 7.2 1.8.5 3.9 1 6.3 1.4.9-2.9 2.2-5.3 3.7-7.2zM73 29.3c-1.2.4-3 1-5.3 1.5 1.4 1.8 2.7 4.1 3.6 6.9 2.4-.6 4.4-1.2 6.1-1.8q-.3-.9-.8-1.8t-1.1-1.7q-.5-.9-1.1-1.6-.7-.8-1.4-1.5zm-5.6 1.6c-2 .4-4.3.7-6.9.9 1.1 2.1 2.1 4.5 2.7 7.2 2.9-.3 5.5-.7 7.8-1.2-.9-2.8-2.2-5.1-3.6-6.9z"/><path class="s41" d="M37.4 28.8h.8v.8h-.8zm5.7 1.4h.8v.7h-.8zm6.9 1.1h.8v.8H50zm4.6.1h.8v.8h-.8zm5.3-.2h.8v.8h-.8zm7.2-1h.8v.8h-.8zm5.7-1.6h.8v.8h-.8zm4.6 6.9h.8v.8h-.8zm-6.5 1.8h.8v.8h-.8zm-8.1 1.4h.8v.8h-.8zm-8.2.4h.8v.7h-.8zm-7.2-.3h.8v.8h-.8zm-8.2-1.1h.8v.8h-.8zm-6.5-1.4h.8v.8h-.8zm-1.5 9.2h.8v.7h-.8zm7.1 0h.8v.8h-.8zm8.5 0h.8v.8h-.8zm7.9 0h.8v.8h-.8zm8.9 0h.8v.8h-.8zm8.5 0h.8v.8h-.8zm7 0h.8v.8h-.8zm-2.2 9.3h.8v.8h-.8zM70.6 53h.8v.7h-.8zm-7.8-1.2h.8v.8h-.8zm-8-.5h.8v.8h-.8zm-7.3.3h.8v.8h-.8zm-7.9 1h.8v.8h-.8zm-6.4 1.3h.8v.8h-.8zm5.3 7.3h.8v.8h-.8zm5.2-1.3h.8v.8h-.8zm6.4-.7h.8v.8h-.8zm4.7-.3h.8v.8h-.8zm5.3.3h.8v.8h-.8zm6.4.8h.8v.8h-.8zm5.4 1.4h.8v.8h-.8z"/></svg>