<svg xmlns="http://www.w3.org/2000/svg" viewBox="0 0 200 160"><path d="M100 155c37.6 0 71.7-4.1 97.1-10.7-23.2 8.7-58.1 14.2-97.1 14.2S26.1 153 2.9 144.3C28.3 151 62.4 155 100 155m85.3-24.1c1.3-1.6 2-4 2-7 0-2.6-.4-4.7-1.1-6.3-.7-1.6-1.8-2.6-3.3-3.2-1-.4-2.2-.6-3.6-.6-2.4 0-4.2.8-5.5 2.3s-2.1 3.9-2.1 7.2c0 2.5.4 4.6 1.2 6.2s1.9 2.7 3.4 3.3c1 .4 2.2.7 3.5.7 2.4-.1 4.2-1 5.5-2.6m3.5-17.6c2.2 2.5 3.4 6 3.4 10.1 0 4.2-1.1 7.9-3.3 10.5-2.2 2.7-5.5 4.2-9.6 4.2-3.4 0-6.5-1.3-8.8-3.7s-3.7-6-3.7-10.3c0-4.2 1.1-7.9 3.3-10.5s5.5-4.2 9.6-4.2c3.8-.1 7 1.4 9.1 3.9m-29.9-2.2c1.3 1.1 2 2.5 2 3.8v2h-1.3l-.2-.3c-.7-1-1.6-1.7-2.6-2.1s-2.2-.6-3.4-.6c-2.7 0-4.9 1-6.5 2.5-1.6 1.6-2.5 3.8-2.5 6.5 0 3.5 1 6.1 2.6 7.8s3.9 2.6 6.5 2.6c2.7 0 4.6-.9 5.9-2.4l.2-.2h1.1v1.8c0 1.5-.8 2.9-2.2 3.9s-3.3 1.6-5.8 1.6c-3.7 0-7-1.5-9.4-4-2.4-2.6-3.9-6.2-3.9-10.4 0-3.7 1.2-7.2 3.6-9.9 2.4-2.7 5.9-4.4 10.2-4.4 2.5 0 4.4.7 5.7 1.8M125 121.5c.8-.4 1.5-.9 1.9-1.6.3-.5.4-1.1.4-1.9s-.1-1.5-.4-2c-.2-.5-.6-.9-1-1.2-.8-.6-2-.9-3.4-.9h-2c-.7 0-1.6.1-2.6.3v7.4c1.5.2 2.8.3 4.2.3 1.1.1 2.1-.1 2.9-.4m8.1 13.9c.2.4.4.7.6.8l.2.2v1l-.6.1s-.4.1-.8.1-.9.1-1.2.1c-.8 0-1.6-.2-2.2-.6-.6-.4-1-1-1.3-1.8l-2-4.8c-.6-1.4-1.1-2.4-1.6-3-.5-.6-.9-.8-1.3-1-.3-.1-.6-.1-1-.2-1.3-.1-2.8-.3-3.8-.4v11.6h-2c-.9 0-1.6-.2-2.2-.8-.5-.5-.8-1.3-.7-2.2v-23.8l.4-.2c.9-.3 2-.6 3.3-.9 1.3-.2 2.6-.4 3.7-.4h2.4c2.8 0 5.1.7 6.8 2.1s2.6 3.4 2.6 5.9c0 2.3-.8 4.1-2 5.3-.8.8-1.8 1.4-3 1.8.6.4 1.1.9 1.5 1.4.7.9 1.1 1.9 1.4 2.6l2.4 5.7c0 .7.2 1.1.4 1.4m-44.2-24.6c.7-.7 1.6-1.1 2.6-1.1H106v2.1c0 .6-.2 1.3-.8 1.8-.6.5-1.4.7-2.5.7H92.3c-.4 1.9-.7 4.4-.8 6.8H103v1.8c0 .7-.2 1.4-.8 1.8-.5.5-1.3.7-2.2.7h-8.6v1.3c0 2 .3 3.4.8 4.3.5.9 1.3 1.5 2.6 1.9.9.2 1.9.3 3.2.3h2c1.9 0 3.6-.4 4.8-.7l.8-.2v1.9c0 .6 0 1.1-.3 1.6-.2.5-.6 1-1.2 1.3-.4.2-.9.4-1.4.5-.7.2-1.6.2-2.7.2h-3.3c-1.7 0-3.2-.2-4.6-.8-1.3-.5-2.4-1.3-3.3-2.3-1.7-2-2.5-5-2.5-8.7v-4.8c0-2.3.4-5.4.9-7.4.6-1.2 1-2.3 1.7-3m-16.9 20c1.4-1.6 2.1-4 2.1-6.8 0-3.5-.8-5.9-2.3-7.5-1.4-1.6-3.5-2.4-6.2-2.4h-1.5c-.7 0-1.8.1-2.6.2v16.3c0 .6.1 1 .2 1.3.1.3.3.6.5.8.5.4 1.2.6 2.4.6H66c2.7 0 4.7-.9 6-2.5m-5.4-21.3c3.4 0 6.5 1.4 8.8 3.8s3.7 5.9 3.7 10.1c0 4.3-1.3 7.9-3.5 10.4-2.2 2.6-5.4 4-9.1 4h-2.4c-2.4 0-4.2-.6-5.5-1.7-1.3-1.1-2-2.8-1.9-4.6v-21.1l.5-.1c1.6-.4 4.3-.8 6.1-.8h3.3m-23.7 16.9c-1.2-4.2-2.6-7.9-4.5-11.5-2 3.8-3.3 7.3-4.5 11.5h9zm3.9-3.1c1.5 4.4 2.9 9.3 3.6 13.6l.1.8h-2.1c-.9 0-1.6-.2-2.1-.6-.6-.4-.9-1.1-1-1.8-.3-1.6-.8-3.3-1.1-4.6H32.8c-.5 1.9-1.1 4.5-1.5 6.5l-.1.5h-1.9c-.5 0-1-.1-1.4-.3s-.7-.7-.8-1.1c-.1-.3-.1-.6-.1-1 0-.8.2-1.9.5-3.4.3-1.4.8-3.2 1.4-5 1.2-3.7 2.7-7.9 4.3-11.3 1.1-2.3 2.2-4.3 3.3-5.6l.2-.2h1.5c.9 0 1.7.3 2.4.9s1.2 1.4 1.8 2.4c1.2 2 2.9 5.8 4.4 10.2m-36.5-13.4c.6-.1 1.2-.2 2-.2h12.6v2.2c0 .5-.2 1.1-.7 1.6s-1.2.8-2.1.8h-9.4v6.4h10.4v1.8c0 .8-.3 1.5-.8 2s-1.3.7-2.1.7h-7.5v12.4h-2c-.6 0-1.2-.1-1.7-.4-.5-.3-.9-.7-1-1.3-.1-.4-.2-.8-.2-1.2v-21.2c0-1 .1-1.8.6-2.4.3-.6 1-1 1.9-1.2m89.6-96.3c-1.6-5.5-3.8-9.1-6.5-9.1-5.3-.1-9.7 15.7-7 31.6 0 0 .3 1 .1 1 .6.1.8-1.2 1.3-3.8 2.4-11.3 7.9-19.4 12.1-19.7m8.9 48.3-.6 1.1c.4.4 1.6-.5 3.8-2 11-7.4 20.6-8.4 25.1-5.5 1-4.7.7-8.4-1.1-10.2-7.2-7-22.7 9.2-27.2 16.6m24.3-19.6c1.7.2 3.1.8 4 1.9 4.4 5 2 16.6-8 31.4-10.7 15.8-25.8 22.7-26 22.8h-.2c.6 1.2 21.1-1.1 35.5-18.6 19.8-24.2 3.5-37.5-5.3-37.5M83.4 61c2.2 1.5 3.3 2.3 3.8 2l-.6-1.1C82 54.5 66.4 38.3 59.4 45.3c-1.8 1.8-2.1 5.5-1.1 10.2 4.5-2.9 14.1-1.9 25.1 5.5m8.8 37.3c-.3-.2-15.4-7.1-26-22.8-10-14.8-12.4-26.3-8-31.4.9-1 2.3-1.7 4-1.9-8.8.1-25.2 13.3-5.3 37.5 14.4 17.5 34.9 19.8 35.5 18.6-.1.1-.1 0-.2 0m6.1-96.8c-3.5 0-6.5 1.2-7.8 3 1-.9 2-1.4 3.1-1.4 5.8.1 10.2 12.9 9.9 30.7-.3 19-9.7 30.9-9.8 31.2 0 .1-.1.1-.2.1 1 .9 18-9.5 21.1-33.7 3-23-8-29.9-16.3-29.9" style="fill:#0047ba"/></svg>