<svg version="1.2" xmlns="http://www.w3.org/2000/svg" width="665" height="233"><style>.s0{fill:#102694}</style><path class="s0" d="M615 281.6v-6.5h6.3v6.5H615zM615.5 271.7c-.2-8.7-.5-17.5-.7-26.3h6.5c-.3 8.7-.5 17.4-.7 26.1-1.7.1-3.4.2-5.1.2zM455.3 121.6c0 8.1.1 16.1.2 24.3-20.7-30-49.8-1.4-43.6 29.6 11.1 33.7 43.3 26.8 48.7-6.5.1-30.1-.2-59.4-.1-89.4 7.4-3.7 15.3-5.8 22.8-5.4-.1 32.1.3 63.4.3 95.6-.9 6.2-.9 6.2-1.9 10.1-6.6 17.3-15.9 26.6-33.2 32.7-84.9 15.8-79.4-115.2 6.8-91z"/><path fill-rule="evenodd" class="s0" d="M245.7 122.9c55.5 30.1 18 106-35.2 89.3-61.4-19.2-31.2-116 35.2-89.3zm-.9 22c-26.9-33-64.2 16.3-36.5 45.5 24.6 25.8 55.8-14.6 36.5-45.5z"/><path class="s0" d="M141.6 212.7c-7-.9-7-.9-12.1-1.8-98.7-29.7-32.7-156.4 48.1-111.3.8 3.1-5.9 10.4-8.1 12.7-2.1-1.3-4.1-2.6-6.1-3.8-75.6-27.1-77.7 114.6-1.5 87.7 2.3-.8 5.6-4.2 8-4.2 2.5 2.9 7.2 7.7 8 12.1-8.2 4.8-16 7.1-25.1 8.2-3.7.1-7.5.3-11.2.4zM284.8 211.2c0-18.2-1.3-38 1.1-56.1 2.1-7.2 4.4-13.5 8.5-18.9 17.8-23.5 53.2-25.3 73.2.5 12.5 16.2 7.2 39.8 8.4 68.7-8.4 4-14.5 6-23 5.6-.1-15.9-.1-32.3-.1-48.2-3.3-40.1-43-37.9-45.9-.3-1.1 15.2.5 32.7.9 42.3-7.9 4-14.7 6.1-23.1 6.4zM600.3 211.1c0-15.4.4-31.5.5-46.9 3.2-32 34-51.8 64.1-41.1-3.9 8.7-4.4 9.3-6.6 14.8-20.7-5.9-32.4 7.4-34.5 27.3-.1 13.1-.3 26.2-.3 39.4-6.5 4.9-14.6 5.9-23.2 6.5zM78.6 192.8c-7.9-3.7-7.9-3.7-15.7-7.8-10.5-6.9-18.8-13.4-27.1-21.9-8.5-9.6-13.7-18.4-19-29.2-3-8-7.6-18.8-7.6-26.8 6.7 14 15.4 23.9 27.9 34.2 8.8 6 17.8 10.9 28.2 15.7 1.2 9.5 3.3 17.3 7.8 26.6 2 3 4 6.1 6 9.2h-.5z"/><path class="s0" d="M64.7 148.6c-2.7-1.2-5.4-2.4-8.1-3.7-20.2-11-33.3-23.2-43.6-42.9-2.2-4.9-4.2-9.4-5.7-13.9-1-3.8-2-7.5-3-11.2-1.2-7.7-1.8-15-1.8-21.9 1.3 3 2.6 5.9 3.8 8.9C15.1 80.6 25.2 94 40.9 106c7.5 5 14.8 9.1 23.8 13 2.4.7 4.9 1.5 7.3 2.4v.7c-4.7 7.7-6 17.3-6.8 26.5h-.5z"/><path class="s0" d="M76.3 114.1c-14.7-4.9-25.7-11.1-37.6-19.8-4.8-4.4-4.8-4.4-9.9-9.5C14.2 67.5 5.6 49.6 2 27.9 1 18.2.6 9.4 1.4.1h.5C5 24.9 20 46 39 62c6.4 4.9 6.4 4.9 12.6 9.1 15.4 9.1 31.5 15.7 49.6 20.3-10.9 6.2-17.3 13-24.9 22.7z"/><path class="s0" d="M182.8 87.9c-5.1-1.8-5.1-1.8-11.8-3.7-21.2-5.1-40.7-7-60.7 2.4-12.4-1.1-26.2-8-36.9-12.6 0-.2 0-.4.1-.6 4.6-2 10.1-4.2 15.1-5.8 10.3-2.4 19.6-3.4 30.6-3.6 3.6.3 7.2.6 10.8 1 11 2 21 4.8 32.1 9.5 6.9 3.6 13.8 8 20.8 13.1-.1 0-.1.2-.1.3z"/><path fill-rule="evenodd" class="s0" d="M562.5 122.9c55.5 30.1 18 106-35.2 89.3-61.4-19.2-31.2-116 35.2-89.3zm-.9 22c-26.9-33-64.2 16.3-36.5 45.5 24.6 25.8 55.8-14.6 36.5-45.5z"/><text style="transform:matrix(1,0,0,1,280.804,279.826)"><tspan x="0" y="0" style="font-size:43px;line-height:43px;fill:#2c2e35;font-family:&quot;Eras IT C&quot;;white-space:pre">Prenez votre envol
</tspan></text></svg>