<svg version="1.2" xmlns="http://www.w3.org/2000/svg" width="358" height="230"><style>.s0{fill:#036}</style><path fill-rule="evenodd" class="s0" d="M268.1 161.4v1.7c0 3-.4 3.1-10.2 3.3l-9.2.2-3.3 12.8-3.3 12.7h-5.5c-2.9 0-5.4-.2-5.4-.4 0-.3 1.7-5.9 3.7-12.4 2-6.6 3.7-12.2 3.7-12.5 0-.3-4.2-.5-9.3-.5-8.6 0-9.3-.1-8.8-1.1.2-.6.5-1.7.7-2.4l.3-1.4zm55 0c-2.6 0-6.1.1-9.9.2-15.9.4-21.1 1.2-26.7 4.1-5.9 3.2-6.8 4.6-9.4 15.1-1.2 5-2.4 9.6-2.6 10.2-.3 1 .2 1.1 5.2 1.1h5.6l2-6.1 2-6.2h16.8c15.5 0 16.8-.1 16.8-1.1 0-.6.1-1.7.4-2.4l.3-1.4h-16.7c-15.5 0-16.6-.1-16.6-1.1 0-2.9 3.8-5.6 9.7-6.8 1.8-.4 8.2-.7 14.3-.7h11.1l.9-2.1c.5-1.2.9-2.4.9-2.6 0-.1-1.6-.2-4.1-.2zM154.9 134.1l-5.5.5c-21.9 1.6-43.1 14-57.7 33.7-4.1 5.5-10.7 17.3-12.3 21.8-.6 1.8-.9 2-3.1 2-1.7 0-2.5-.2-2.5-.8 0-1.8 9.1-18.8 12.9-24.1 6.1-8.4 16.6-19 22.7-22.7.5-.4 1.1-.8 1.3-1.1.7-.9 10.5-6.4 15-8.3 7.9-3.4 18.4-5.7 26-5.7h3.2zm30.7 27.2c16.7.1 21.5.6 24.6 2.9 2.9 2.2 2.9 3.3.1 16.1l-2.7 11.8h-6.3c-4.4 0-6.4-.3-6.4-.7 0-.4 1.3-5 2.8-10.2 2.7-9 2.8-9.6 1.8-11-1.4-2.3-3.3-2.7-11.3-2.7H181l-1.1 3.5c-.5 2-2 7.4-3.3 12.2l-2.4 8.6-5.9.1c-3.3.1-6 0-6-.3 0-.5 5.4-22.3 6.8-28l.7-2.3zm-30.7.5c0 .3-.1 1.4-.4 2.5l-.3 1.9-15.8.1c-13.6 0-16.1.1-17.9 1-2.7 1.4-3.2 3.8-1.1 5.3 1.1.8 3.1 1 10.2 1 11.5 0 20.6 1.8 22.9 4.6 1.9 2.3 0 7.6-3.4 9.4-1 .5-2.3 1.2-2.8 1.5-4.6 2.6-4.4 2.6-25.4 2.8l-20.1.2.9-2.3c.5-1.2 1-2.3 1-2.4 0-.2 7.1-.3 15.9-.3 13.2 0 16.2-.1 17.8-.9 3.7-1.9 3.9-4.5.5-6.3-1.6-.9-4.3-1.1-14.9-1.4-15.5-.4-16.6-.7-18.3-6.2-.9-2.8 3.3-7.4 8.6-9.3 3.3-1.2 5.1-1.4 23.1-1.6 11.9-.1 19.5 0 19.5.4zM79.3 27.4l3 5.9c2.1 4.3 4.9 9.4 6.2 11.2 1.3 1.9 3.4 4.8 4.5 6.5 1.2 1.7 4.3 5.1 6.9 7.7 2.7 2.5 5.8 5.6 7.1 6.8 1.9 1.9 3.3 2.9 8.9 6.3.7.4 2.8 1.7 4.8 3 3.1 1.9 6.3 3 9.6 4.2 7.9 3.1 16.3 3.7 24.6 4.9v5.5L143 88.1c-13.2-2.8-21.9-6.2-29.6-11.3-2-1.4-5.3-3.7-7.3-5.1-2.1-1.4-5.6-4.5-7.9-7-9.9-11.2-19-23-24-37.3z"/><path fill-rule="evenodd" class="s0" d="M49.5 27.4c.9 3.7 5.6 15.5 8.9 22.3 9.8 20 21.9 34.8 38.8 47.3l2.2 1.6 6.9-3.5c3.7-1.9 6.8-3.6 6.8-3.8C95.8 79 79.1 66 69.9 46.4c-1.5-2.7-4.8-10.8-7.2-17.7l-.5-1.3h5.3L68 29c.6 1.9 2.5 6.4 4.3 10 1.8 3.5 3.3 6.8 3.3 7.2 0 .9 7 11.7 8.3 12.8.4.3 2.7 3 5.2 6 2.5 2.9 4.7 5.3 4.9 5.3.2 0 2 1.6 4.1 3.5 6 5.2 12.3 9.9 19.4 13.5 1.8 1.1 4.4 2.3 5.8 2.7 2.1.7 4.2 1.6 6.1 2.7l-8.6 2.9c-4.7 1.6-11.3 4.2-14.7 5.7-3.3 1.6-6.4 2.9-6.7 2.9-.4-.1-1.7-.7-3-1.4-8.8-5.3-16.1-12.9-23-20.6-12.2-14-21.1-30.5-26.9-48.1-1.1-3.2-1.9-5.6-2.3-6.7zM155 102.2l-7.3.7c-4.1.4-9.7 1.3-12.5 1.9-7 1.7-14.3 4.3-13.6 5 11 3.8 22.8 6.3 34.3 7.1.1 1.1.1 3.3.1 4.8l-5.5-.4c-2.5 0-6.7-.4-9.4-.8-8.4-1.4-19.8-4.6-27-7.6-4.2-1.8-7.2-3.3-7-3.5.1-.1 3.9-1.9 8.5-4 11.3-5.2 21.7-7.8 34.6-8.9l4.8-.4z"/><path fill-rule="evenodd" class="s0" d="M37.3 27.4c3 12.5 8.1 24 14.3 35 .6.8 2.1 3.4 3.3 5.6 2.4 4.6 3.7 6.5 5.9 9 .8.9 1.9 2.3 2.4 3.2 8 11.7 18.1 21.3 29.7 29.4l-4.2 2.9c-6.8 4.9-14.3 12-20.5 19.4-3.2 3.9-6.3 7.7-6.9 8.6-.6.8-1.8 2.6-2.8 4-6.7 9.6-15.5 28.4-19.5 41.6l-1.8 6h-5.1l1.5-5.2c5.9-21 16.8-41.8 30.1-57.5 4.7-5.7 13.9-14.7 17.6-17.5 1.3-.9 2.3-2 2.3-2.4 0-.4-1.9-2.3-4.2-4.3-13.5-11.4-26.3-28-35.7-46.5-3.3-6.4-8.7-21.1-10.5-28.3q-.5-1.8-.8-3zm62 86.4c-.6.1-1.3.5-2.6 1.2-6 3.4-16.5 12.7-22.9 20.2-12.8 15.1-21 30-28.1 50.9l-2 6h5.2l1.4-4.4c3.1-9.5 9.5-23.3 15-32.1 8.3-13.3 20.6-26.8 30.9-33.8l3.3-2.3 6.8 3.4c3.7 1.9 6.8 3.7 6.8 4 0 .3-.6.7-1.3 1-3.8 1.2-14.8 9.6-21.8 16.5-12.2 12.3-20.9 26.1-26.7 42.6l-1.8 5.1h5.3l1.3-3.6c2.1-5.6 7.3-15.9 11-21.6 11.1-17 23.1-27.9 39.9-36.3 4.8-2.4 9.1-4.3 9.5-4.3 1.8 0-.5-1.1-3.7-1.8-3.1-.6-20.5-8.1-23.8-10.3-.7-.4-1.1-.5-1.7-.4zM32.3 198.1v1.3q-.7-.3-1.4-.5t-1.3-.2q-1.1 0-1.7.4-.6.4-.6 1.2 0 .7.4 1 .4.3 1.5.6l.8.1q1.5.3 2.2 1 .7.7.7 1.9 0 1.5-.9 2.2-1 .8-2.8.8-.7 0-1.5-.2t-1.7-.5v-1.3q.9.4 1.6.6.8.3 1.6.3 1.1 0 1.7-.5.6-.4.6-1.3 0-.7-.4-1.1-.4-.4-1.5-.6l-.8-.2q-1.5-.3-2.1-.9-.7-.6-.7-1.8 0-1.3.9-2 .9-.8 2.6-.8.7 0 1.4.1l1.4.4zm5.5 2q1.6 0 2.5 1 .9 1 .9 2.9 0 1.8-.9 2.8-.9 1.1-2.5 1.1t-2.5-1.1q-.9-1-.9-2.8 0-1.9.9-2.9t2.5-1zm0 1q-.9 0-1.5.8-.6.7-.6 2.1 0 1.3.6 2.1.6.7 1.5.7 1 0 1.6-.7.5-.8.5-2.1t-.5-2.1q-.6-.8-1.6-.8zm10.8-.6v1.2q-.5-.3-1.1-.4-.5-.2-1-.2-1.2 0-1.9.8-.6.7-.6 2.1 0 1.3.6 2.1.7.7 1.9.7.5 0 1-.1.6-.2 1.1-.4v1.1q-.5.2-1.1.3-.5.2-1.1.2-1.7 0-2.7-1.1-1-1-1-2.8 0-1.8 1-2.9 1-1 2.7-1 .6 0 1.1.1.6.1 1.1.3zm2.1-.2h1.2v7.4h-1.2zm0-2.9h1.2v1.5h-1.2zm10.1 6.3v.6h-5.6q.1 1.2.7 1.9.7.7 1.9.7.7 0 1.4-.2.6-.2 1.3-.5v1.1q-.7.3-1.3.4-.7.2-1.4.2-1.8 0-2.8-1-1.1-1.1-1.1-2.8 0-1.8 1-2.9 1-1.1 2.6-1.1 1.5 0 2.4 1 .9.9.9 2.6zm-1.2-.4q-.1-1-.6-1.6-.5-.5-1.4-.5-1.1 0-1.7.5-.6.6-.7 1.6zm-1.1-6.4h1.3l-2.2 2.5h-1zm5.6 1.3v2.1h2.5v.9h-2.5v4.1q0 .9.2 1.1.3.3 1 .3h1.3v1h-1.3q-1.4 0-1.9-.5-.5-.6-.5-1.9v-4.1H62v-.9h.9v-2.1zm10.4 5.5v.6h-5.6q.1 1.2.8 1.9.7.7 1.9.7.7 0 1.3-.2.7-.2 1.3-.5v1.1q-.6.3-1.3.4-.7.2-1.4.2-1.8 0-2.8-1-1.1-1.1-1.1-2.8 0-1.9 1-2.9 1-1.1 2.7-1.1 1.5 0 2.3 1 .9.9.9 2.6zm-1.2-.4q0-1-.6-1.6-.5-.6-1.4-.6-1 0-1.6.6-.7.6-.7 1.6zm-1.2-6.4h1.3l-2.1 2.5h-1.1zm8.8.9h1.8l4.3 8.3v-8.3h1.3v9.9h-1.8l-4.3-8.3v8.3h-1.3zm15.8 5.6v4.2h-1.2v-1.1q-.4.7-1 1-.6.3-1.5.3-1.2 0-1.8-.6-.7-.6-.7-1.7 0-1.3.8-1.9.9-.6 2.5-.6h1.7v-.1q0-.9-.5-1.3-.6-.5-1.6-.5-.6 0-1.2.1-.6.2-1.2.5v-1.1q.7-.3 1.3-.4.6-.1 1.2-.1 1.6 0 2.4.8.8.8.8 2.5zm-2.4.5q-1.5 0-2 .4-.6.3-.6 1.1 0 .7.4 1 .5.4 1.2.4 1 0 1.6-.7.6-.7.6-1.9v-.3zm6.2-5.8v2.1h2.5v1h-2.5v4q0 .9.2 1.2.2.2 1 .2h1.3v1h-1.3q-1.4 0-1.9-.5-.6-.5-.6-1.9v-4h-.9v-1h.9v-2.1zm4.1 2.1h1.3v7.4h-1.3zm0-2.8h1.3v1.5h-1.3zm6.7 2.7q1.5 0 2.5 1 .9 1.1.9 2.9 0 1.8-.9 2.8-1 1.1-2.5 1.1-1.6 0-2.5-1.1-.9-1-.9-2.8 0-1.8.9-2.9.9-1 2.5-1zm0 1q-1 0-1.6.8-.6.8-.6 2.1t.6 2.1q.6.7 1.6.7.9 0 1.5-.7.6-.8.6-2.1t-.6-2.1q-.6-.8-1.5-.8zm11.5 2.1v4.5h-1.2v-4.4q0-1.1-.4-1.6t-1.2-.5q-1 0-1.6.6-.6.6-.6 1.7v4.2h-1.2v-7.4h1.2v1.1q.5-.6 1.1-1 .6-.3 1.3-.3 1.3 0 2 .8.6.8.6 2.3zm8.2.3v4.2h-1.2v-1.1q-.4.6-1 1-.6.3-1.5.3-1.2 0-1.8-.7-.7-.6-.7-1.7 0-1.2.8-1.9.9-.6 2.5-.6h1.7v-.1q0-.8-.5-1.3-.6-.5-1.6-.5-.6 0-1.2.2-.6.1-1.2.4v-1.1q.7-.2 1.3-.4.7-.1 1.2-.1 1.7 0 2.4.8.8.9.8 2.6zm-2.4.5q-1.5 0-2 .3-.6.3-.6 1.1 0 .7.4 1.1.5.4 1.2.4 1 0 1.6-.8.6-.7.6-1.9v-.2zm5-6.6h1.2v10.3h-1.2zm10 6.3v.6h-5.5q0 1.2.7 1.9.7.6 1.9.6.7 0 1.4-.1.6-.2 1.3-.6v1.2q-.7.3-1.4.4-.7.2-1.4.2-1.7 0-2.8-1.1-1-1-1-2.8 0-1.8 1-2.8.9-1.1 2.6-1.1 1.5 0 2.4.9.8 1 .8 2.7zm-1.2-.4q0-1-.5-1.6-.6-.6-1.5-.6-1 0-1.6.6-.6.6-.7 1.6zm12.4-1.9v-4h1.2v10.3h-1.2v-1.1q-.4.6-1 .9-.6.4-1.4.4-1.3 0-2.2-1.1-.8-1.1-.8-2.8 0-1.8.8-2.8.9-1.1 2.2-1.1.8 0 1.4.3.6.3 1 1zm-4.2 2.6q0 1.3.6 2.1.5.7 1.5.7t1.5-.7q.6-.8.6-2.1 0-1.4-.6-2.1-.5-.8-1.5-.8t-1.5.8q-.6.7-.6 2.1zm14.2-.3v.6h-5.6q.1 1.2.8 1.9.7.6 1.9.6.7 0 1.3-.1.7-.2 1.3-.6v1.2q-.6.3-1.3.4-.7.2-1.4.2-1.8 0-2.8-1.1-1-1-1-2.8 0-1.8 1-2.8.9-1.1 2.6-1.1 1.5 0 2.4 1 .8.9.8 2.6zm-1.2-.4q0-1-.5-1.6-.6-.6-1.5-.6-1 0-1.6.6-.6.6-.7 1.6zm7.9-2.8v1.1q-.5-.2-1.1-.4-.5-.1-1.1-.1-.9 0-1.4.3-.4.3-.4.8 0 .4.3.7.3.2 1.3.4l.4.1q1.3.3 1.9.8.5.5.5 1.4 0 1.1-.8 1.7-.8.6-2.3.6-.6 0-1.2-.1-.6-.2-1.4-.4v-1.3q.7.4 1.4.6.6.1 1.3.1.8 0 1.3-.2.5-.3.5-.9 0-.5-.4-.7-.3-.3-1.4-.5l-.5-.1q-1.1-.3-1.6-.8t-.5-1.3q0-1.1.7-1.6.8-.6 2.1-.6.7 0 1.3.1.6.1 1.1.3zm5.3-2.7h8.4v1.1h-3.5v8.8h-1.4v-8.8h-3.5zm13.9 3.6q-.2-.1-.4-.1-.3-.1-.6-.1-1 0-1.6.7-.5.6-.5 1.9v3.9h-1.2v-7.4h1.2v1.1q.4-.6 1-1 .6-.3 1.5-.3h.3q.1.1.3.1zm7.1 2v4.2h-1.2v-1.1q-.5.7-1.1 1-.6.3-1.5.3-1.1 0-1.8-.6t-.7-1.7q0-1.3.9-1.9.8-.6 2.5-.6h1.7v-.1q0-.9-.6-1.3-.5-.5-1.5-.5-.7 0-1.3.2-.6.1-1.1.4v-1.1q.6-.3 1.3-.4.6-.1 1.2-.1 1.6 0 2.4.8.8.8.8 2.5zm-2.4.5q-1.5 0-2.1.4-.6.3-.6 1.1 0 .7.5 1 .4.4 1.1.4 1 0 1.7-.7.6-.7.6-1.9v-.3zm11-.7v4.4h-1.2v-4.4q0-1-.4-1.5-.4-.6-1.2-.6-1 0-1.6.7-.5.6-.5 1.7v4.1h-1.2v-7.3h1.2v1.1q.4-.7 1-1 .6-.3 1.4-.3 1.2 0 1.9.8.6.8.6 2.3zm7.2-2.7v1.1q-.5-.2-1.1-.4-.5-.1-1.1-.1-.9 0-1.4.3-.4.2-.4.8 0 .4.3.7.3.2 1.3.4l.4.1q1.3.3 1.9.8.5.5.5 1.4 0 1-.8 1.6-.8.6-2.3.6-.6 0-1.2-.1t-1.4-.3v-1.3q.7.4 1.4.5.6.2 1.3.2.8 0 1.3-.3t.5-.8q0-.5-.4-.8-.3-.2-1.4-.5l-.5-.1q-1.1-.2-1.6-.7-.5-.5-.5-1.3 0-1.1.7-1.7.8-.5 2.1-.5.7 0 1.3.1.6.1 1.1.3zm3.5 6v4h-1.2v-10.2h1.2v1.1q.4-.7 1-1 .6-.3 1.4-.3 1.3 0 2.2 1 .8 1.1.8 2.9 0 1.7-.8 2.8-.9 1-2.2 1-.8 0-1.4-.3-.6-.3-1-1zm4.2-2.5q0-1.4-.6-2.1-.5-.8-1.5-.8t-1.5.8q-.6.7-.6 2.1 0 1.3.6 2.1.5.7 1.5.7t1.5-.7q.6-.8.6-2.1zm6.1-3.9q1.6 0 2.5 1 .9 1 .9 2.9 0 1.8-.9 2.8-.9 1-2.5 1t-2.5-1q-.9-1-.9-2.8 0-1.9.9-2.9t2.5-1zm0 1q-1 0-1.5.8-.6.7-.6 2.1 0 1.3.5 2 .6.8 1.6.8t1.5-.8q.6-.7.6-2 0-1.4-.6-2.1-.5-.8-1.5-.8zm9.7.3q-.2-.1-.5-.2h-.5q-1 0-1.6.6-.5.7-.5 2v3.8h-1.2v-7.3h1.2v1.1q.4-.7 1-1 .6-.3 1.5-.3H237.1zm2.5-3.2v2.1h2.5v.9h-2.5v4.1q0 .9.2 1.1.3.3 1 .3h1.3v1h-1.3q-1.4 0-1.9-.5t-.5-1.9v-4.1h-.9v-.9h.9v-2.1zm8.8 2.3v1.2q-.5-.3-1.1-.4-.5-.2-1.1-.2-.9 0-1.4.3-.5.3-.5.9 0 .4.4.6.3.3 1.3.5l.4.1q1.3.2 1.8.7.6.6.6 1.5 0 1-.8 1.6-.9.6-2.3.6-.6 0-1.2-.1-.7-.1-1.4-.4v-1.2q.7.3 1.3.5.7.2 1.3.2.9 0 1.4-.3.4-.3.4-.8t-.3-.8q-.3-.3-1.5-.5l-.4-.1q-1.1-.3-1.6-.7-.5-.5-.5-1.4 0-1 .7-1.6.8-.6 2.1-.6.7 0 1.3.1.6.1 1.1.3zm6.7-2.7h5.6v1.2h-4.3v2.9h3.9v1.1h-3.9v4.7h-1.3zm14 5.9v.6h-5.5q0 1.2.7 1.9.7.6 1.9.6.7 0 1.4-.1.6-.2 1.3-.6v1.2q-.7.3-1.4.4-.7.2-1.4.2-1.7 0-2.8-1.1-1-1-1-2.8 0-1.8 1-2.8 1-1.1 2.6-1.1 1.5 0 2.4.9.8 1 .8 2.7zm-1.2-.4q0-1-.5-1.6-.6-.6-1.5-.6-1 0-1.6.6-.6.6-.7 1.6zm7.5-1.9-.4-.2h-.6q-1 0-1.6.6-.5.7-.5 2v3.9h-1.2v-7.4h1.2v1.1q.4-.7 1-1 .6-.3 1.5-.3h.3q.1 0 .3.1zm5.6 0q-.2-.2-.5-.2-.2-.1-.5-.1-1 0-1.6.7-.5.7-.5 1.9v3.9h-1.3v-7.4h1.3v1.2q.3-.7 1-1 .6-.4 1.4-.4.2 0 .3.1h.4zm4.1-1.3q1.6 0 2.5 1 .9 1.1.9 2.9 0 1.8-.9 2.8-.9 1.1-2.5 1.1t-2.5-1.1q-.9-1-.9-2.8 0-1.8.9-2.9.9-1 2.5-1zm0 1q-1 0-1.5.8-.6.8-.6 2.1t.6 2.1q.5.7 1.5.7t1.6-.7q.5-.8.5-2.1t-.5-2.1q-.6-.8-1.6-.8zm4.5-.8h1.3l2.3 6.2 2.4-6.2h1.2l-2.7 7.4h-1.7zm8.9 0h1.2v7.4h-1.2zm0-2.9h1.2v1.5h-1.2zm9.5 6.1v4.2h-1.2v-1.1q-.4.7-1 1-.6.3-1.5.3-1.2 0-1.8-.6-.7-.7-.7-1.7 0-1.3.8-1.9.9-.7 2.5-.7h1.7v-.1q0-.8-.5-1.3-.6-.4-1.6-.4-.6 0-1.2.1-.6.2-1.2.5v-1.2q.7-.2 1.3-.3.7-.2 1.2-.2 1.7 0 2.4.9.8.8.8 2.5zm-2.4.5q-1.5 0-2 .3-.6.4-.6 1.2 0 .6.4 1 .5.4 1.2.4 1 0 1.6-.7.6-.7.6-1.9v-.3zm5-3.7h1.2v7.4h-1.2zm0-2.9h1.2v1.6h-1.2zm8 4-.4-.2h-.6q-1 0-1.6.6-.5.7-.5 2v3.9h-1.2v-7.4h1.2v1.1q.4-.7 1-1 .6-.3 1.5-.3h.6zm7.6 2.3v.6h-5.6q.1 1.2.8 1.9.7.7 1.9.7.7 0 1.3-.2.7-.2 1.3-.5v1.1q-.6.3-1.3.4-.7.2-1.4.2-1.8 0-2.8-1-1-1.1-1-2.8 0-1.8.9-2.9 1-1.1 2.7-1.1 1.5 0 2.3 1 .9.9.9 2.6zm-1.2-.4q0-1-.6-1.6-.5-.5-1.4-.5-1 0-1.6.5-.6.6-.7 1.6zm7.9-2.8v1.2q-.5-.3-1.1-.4-.5-.2-1.1-.2-.9 0-1.4.3-.4.3-.4.9 0 .4.3.6.3.3 1.3.5l.4.1q1.3.3 1.8.8.6.5.6 1.4 0 1-.8 1.6-.8.6-2.3.6-.6 0-1.2-.1-.7-.1-1.4-.4v-1.2q.7.3 1.4.5.6.2 1.3.2.8 0 1.3-.3.4-.3.4-.8t-.3-.8q-.3-.3-1.5-.5l-.4-.1q-1.1-.2-1.6-.7-.5-.5-.5-1.4 0-1 .7-1.6.8-.6 2.1-.6.7 0 1.3.1.6.1 1.1.3z"/></svg>