<svg xmlns="http://www.w3.org/2000/svg" viewBox="0 0 1057 263" xml:space="preserve"><path fill="#FFDD12" d="M150.1 106c21 62.4 23.5 126.1 23.8 148.4 0-160.7 96.1-194 96.1-194V1.7C215.1 16.5 176.6 59.3 150.1 106z"/><path fill="#004F9E" d="M135.1 135.2c26.5 57.4 36.8 113.5 38.8 125.2v-6.1c-.3-22.4-2.8-86-23.8-148.4-5.5 9.7-10.5 19.6-15 29.3z"/><path fill="#FFDD12" d="M173.9 261c-1.1-11.7-12.2-69.5-38.8-127-8.7-18.8-19.1-37.7-31.6-55.3-.2-.3-.5-.7-.7-1-.7-1-1.4-1.9-2.1-2.9C75.8 40.3 43.2 11.6 0 0v58.7s19.3 6.7 40.6 28.4c28.6 34.1 52.2 87.6 55.8 172 0 .7 0 1.4.1 2.1h77.3s.1.8.1-.2z"/><g fill="#004F9E"><path d="M323.3 227.6c18.6 0 33.9-7.4 45.7-22.1l24.3 25c-19.3 21.7-42 32.6-68.2 32.6-26.2 0-47.7-8.3-64.6-24.8-16.9-16.5-25.4-37.4-25.4-62.6s8.6-46.2 25.9-63.1c17.3-16.8 38.4-25.3 63.3-25.3 27.9 0 51.2 10.6 70 31.8L370.7 146c-12-14.9-26.9-22.4-44.7-22.4-14.3 0-26.4 4.7-36.6 14-10.1 9.3-15.2 21.9-15.2 37.7s4.8 28.5 14.3 38c9.6 9.5 21.2 14.3 34.8 14.3zM594.7 261.1l-51.8-131h37.9l32.6 82.4 32.6-82.4h37.9l-51.8 131h-37.4zM738.3 261.1h-36.4V130.4h36.4v130.7zM1056.7 261.1h-36.4V80.8h36.4v180.3z"/></g><path fill="#004F9E" d="M701.8 80.5H739v35.8h-37.2z"/><path fill="#FFDD12" d="M150.1 106c21 62.4 23.5 126.1 23.8 148.4 0-160.7 96.1-194 96.1-194V1.7C215.1 16.5 176.6 59.3 150.1 106z"/><path fill="#004F9E" d="M135.1 135.2c26.5 57.4 36.8 113.5 38.8 125.2v-6.1c-.3-22.4-2.8-86-23.8-148.4-5.5 9.7-10.5 19.6-15 29.3z"/><path fill="#FFDD12" d="M173.9 261c-1.1-11.7-12.2-69.5-38.8-127-8.7-18.8-19.1-37.7-31.6-55.3-.2-.3-.5-.7-.7-1-.7-1-1.4-1.9-2.1-2.9C75.8 40.3 43.2 11.6 0 0v58.7s19.3 6.7 40.6 28.4c28.6 34.1 52.2 87.6 55.8 172 0 .7 0 1.4.1 2.1h77.3s.1.8.1-.2z"/><g fill="#004F9E"><path d="M323.3 227.6c18.6 0 33.9-7.4 45.7-22.1l24.3 25c-19.3 21.7-42 32.6-68.2 32.6-26.2 0-47.7-8.3-64.6-24.8-16.9-16.5-25.4-37.4-25.4-62.6s8.6-46.2 25.9-63.1c17.3-16.8 38.4-25.3 63.3-25.3 27.9 0 51.2 10.6 70 31.8L370.7 146c-12-14.9-26.9-22.4-44.7-22.4-14.3 0-26.4 4.7-36.6 14-10.1 9.3-15.2 21.9-15.2 37.7s4.8 28.5 14.3 38c9.6 9.5 21.2 14.3 34.8 14.3zM594.7 261.1l-51.8-131h37.9l32.6 82.4 32.6-82.4h37.9l-51.8 131h-37.4zM738.3 261.1h-36.4V130.4h36.4v130.7zM1056.7 261.1h-36.4V80.8h36.4v180.3z"/></g><path fill="#004F9E" d="M701.8 80.5H739v35.8h-37.2zM846.7 222c-4.7 6.2-10.5 9.2-17.3 9.2-3.6 0-6.6-1.4-9.2-4.3-2.6-2.8-3.9-6.8-3.9-11.8v-58.6h31.6v-26.2h-31.6V80.7h-36.7v49.7h-15.3v26.2h27.2c-6.6.6-11.8 6.2-11.9 13v47.3c0 14.3 4.3 25.5 13 33.8 8.7 8.3 19.3 12.4 31.8 12.4 12.6 0 24.5-5.2 35.8-15.6L846.7 222z"/><g><path fill="none" d="M442.6 182.7c0-.1 0-.1 0 0 0-.1 0-.1 0 0z"/><path fill="#FFF" d="M460 208.6c.1 0 .1.1 0 0h13.7H460zM442.6 182.6c0-.2.1-.3.1-.5 0 .1 0 .3-.1.5z"/><path fill="#004F9E" d="M455.4 182.6c0 .1 0 .1 0 0h35-35z"/><path fill="#FFF" d="M442.4 186.7z"/><path fill="#004F9E" d="M455.4 182.7s0-.1 0 0h-.1.1zM455.4 182.7z"/><path fill="none" d="M442.6 182.7c0-.1 0-.1 0 0 0-.1 0-.1 0 0z"/><path fill="#FFF" d="M442.4 186.7v8.1c.1-1.2.3-2.3.7-3.4"/><path fill="#004F9E" d="M537.7 208.7v-19.4c0-19-6.3-33.9-18.8-44.7-12.6-10.9-27.8-16.3-45.8-16.3-18 0-33.6 6.1-46.8 18.2-13.2 12.2-19.8 28.5-19.8 49.1s6.5 37 19.4 49.2c13 12.2 29.4 18.3 49.2 18.3 19.8 0 37.1-7 51.9-20.9l-20.4-22.1c-8.3 8.6-18.8 12.9-31.6 12.9-7.9 0-15.1-2.3-21.4-6.8-6.3-4.5-10-10.4-11.2-17.5h95.3zm-82.3-26h-.2c-3.7 0-7 1.6-9.3 4.1-1.3 1.3-2.2 3-2.9 4.7-.4 1.1-.6 2.2-.7 3.4V186c0-1.1.1-2.2.2-3.3v-.1c0-.2.1-.3.1-.5 1.1-7.2 5.3-12.9 11.2-17.2 6-4.4 12.6-6.6 19.8-6.6s13.3 2.1 18.3 6.3c5 4.2 7.9 10.2 8.7 18h-45.2z"/></g><path fill="#004F9E" d="M975.7 140.1c-10-7.9-23-11.9-38.9-11.9-22 0-41.6 6.2-58.8 18.7l16.3 23.6c4.9-3.7 10.8-6.8 17.9-9.4 7-2.5 13.7-3.8 20-3.8 14.7 0 22.1 7 22.1 20.9v.7h-27.2c-16.9 0-30.1 3.3-39.9 10-9.7 6.6-14.6 16.6-14.6 30s4.7 24.1 14.1 32.1c9.4 8 21 12 34.9 12 13.8 0 25.5-5.9 34.9-17.7v15.8h34.3v-83.3c0-17.2-5-29.7-15.1-37.7zm-21.6 71.2c0 6.6-2.5 11.9-7.4 15.9s-10.7 6-17.1 6c-6.5 0-11.5-1.3-14.9-3.8-3.5-2.5-5.2-6.1-5.2-10.8 0-9.1 7.3-13.6 21.9-13.6h10c7-.1 12.7-5.7 12.9-12.7l-.2 19z"/></svg>