<svg id="Calque_1" data-name="Calque 1" xmlns="http://www.w3.org/2000/svg" viewBox="0 0 126 166.67"><defs><style>.cls-1{fill:#ef910f;}.cls-2,.cls-3{fill:#2a89ca;}.cls-3{fill-rule:evenodd;}</style></defs><title>Plan de travail 1</title><rect class="cls-1" x="8.08" y="33.25" width="111.6" height="106" rx="9"/><polygon class="cls-2" points="92.97 77.67 64.92 131.34 44.23 131.34 62.87 95.67 15.73 95.67 43.78 42 64.47 42 45.83 77.67 92.97 77.67"/><path class="cls-3" d="M109.28,43c.28,0,.43.05.48.24-5.6,10.64-10.85,21.62-16.32,32.4h-7c-.9,0-2.44-1.06-3.18-1.54a8.54,8.54,0,0,1-2.41-2.38,12.75,12.75,0,0,1-2.19-7.85c.22-3.6,1.71-7.67,5.14-9.35C93.94,49.58,94.28,49.41,109.28,43Z"/><path class="cls-3" d="M86.53,43c.28,0,.43.05.48.24-5.6,10.64-10.85,21.62-16.32,32.4h-7c-.9,0-2.44-1.06-3.18-1.54a8.54,8.54,0,0,1-2.41-2.38A12.75,12.75,0,0,1,56,63.88c.22-3.6,1.71-7.67,5.14-9.35C71.19,49.58,71.53,49.41,86.53,43Z"/><path class="cls-2" d="M27.09,157.74l2.33-.34a1.62,1.62,0,0,0,.6,1,2.06,2.06,0,0,0,1.27.34,2.42,2.42,0,0,0,1.36-.32.71.71,0,0,0,.3-.59.57.57,0,0,0-.16-.42,1.88,1.88,0,0,0-.78-.3A13.14,13.14,0,0,1,28.45,156a2.17,2.17,0,0,1-1-1.9,2.3,2.3,0,0,1,.9-1.84,4.37,4.37,0,0,1,2.79-.74,5,5,0,0,1,2.68.56,2.9,2.9,0,0,1,1.2,1.67l-2.19.38a1.32,1.32,0,0,0-.53-.75,2,2,0,0,0-1.12-.26,2.67,2.67,0,0,0-1.31.24.54.54,0,0,0-.26.46.5.5,0,0,0,.23.4,8.81,8.81,0,0,0,2.16.63,6.61,6.61,0,0,1,2.59,1,2,2,0,0,1,.73,1.65,2.5,2.5,0,0,1-1,2,4.55,4.55,0,0,1-3,.84,5.06,5.06,0,0,1-2.83-.7A3.25,3.25,0,0,1,27.09,157.74Z"/><path class="cls-2" d="M36.77,155.82a4.41,4.41,0,0,1,.57-2.15A3.91,3.91,0,0,1,39,152.08a5,5,0,0,1,2.33-.54,4.46,4.46,0,0,1,3.26,1.24,4.18,4.18,0,0,1,1.27,3.13,4.27,4.27,0,0,1-1.28,3.17,4.43,4.43,0,0,1-3.23,1.26,5.27,5.27,0,0,1-2.3-.53,3.68,3.68,0,0,1-1.66-1.53A4.92,4.92,0,0,1,36.77,155.82Zm2.38.12a2.71,2.71,0,0,0,.62,1.92,2.08,2.08,0,0,0,3,0,2.77,2.77,0,0,0,.62-1.94,2.7,2.7,0,0,0-.62-1.9,2.06,2.06,0,0,0-3,0A2.67,2.67,0,0,0,39.15,155.94Z"/><path class="cls-2" d="M55.6,160.15H53.28v-4.3a6.26,6.26,0,0,0-.15-1.76,1.27,1.27,0,0,0-.48-.63,1.48,1.48,0,0,0-.81-.22,1.93,1.93,0,0,0-1.08.32,1.59,1.59,0,0,0-.65.84,6.87,6.87,0,0,0-.18,1.93v3.82H47.61v-8.42h2.15V153a3.56,3.56,0,0,1,2.89-1.42,3.71,3.71,0,0,1,1.4.26,2.43,2.43,0,0,1,1,.68,2.56,2.56,0,0,1,.45.94,6.33,6.33,0,0,1,.13,1.49Z"/><path class="cls-2" d="M63,157.47l2.31.37a3.65,3.65,0,0,1-1.4,1.86,4.32,4.32,0,0,1-2.41.64,4,4,0,0,1-3.38-1.44,4.65,4.65,0,0,1-.87-2.9,4.53,4.53,0,0,1,1.14-3.28,3.82,3.82,0,0,1,2.88-1.18,4,4,0,0,1,3.09,1.24,5.37,5.37,0,0,1,1.08,3.8H59.65a2.21,2.21,0,0,0,.56,1.54,1.78,1.78,0,0,0,1.34.55,1.45,1.45,0,0,0,.91-.28A1.71,1.71,0,0,0,63,157.47Zm.13-2.25a2,2,0,0,0-.52-1.47,1.59,1.59,0,0,0-1.2-.51,1.65,1.65,0,0,0-1.25.53,2,2,0,0,0-.49,1.45Z"/><path class="cls-2" d="M67.35,160.15V148.52h2.31v11.63Z"/><path class="cls-2" d="M71.83,160.7l2.64.31a.87.87,0,0,0,.31.61,1.79,1.79,0,0,0,1,.24,2.85,2.85,0,0,0,1.36-.26,1.11,1.11,0,0,0,.46-.57,3.22,3.22,0,0,0,.11-1v-1.23a3.17,3.17,0,0,1-2.62,1.37,3.27,3.27,0,0,1-2.8-1.44,4.7,4.7,0,0,1-.81-2.82,4.53,4.53,0,0,1,1.06-3.24,3.51,3.51,0,0,1,2.64-1.11,3.24,3.24,0,0,1,2.68,1.37v-1.18h2.17v7.55a7.22,7.22,0,0,1-.26,2.23,2.83,2.83,0,0,1-.71,1.16,3.31,3.31,0,0,1-1.24.66,7,7,0,0,1-2,.23,5.21,5.21,0,0,1-3.16-.73,2.27,2.27,0,0,1-.93-1.86C71.82,160.9,71.82,160.81,71.83,160.7Zm2.07-4.94a2.92,2.92,0,0,0,.54,2,1.68,1.68,0,0,0,1.33.63,1.88,1.88,0,0,0,1.43-.64,2.68,2.68,0,0,0,.59-1.89,2.88,2.88,0,0,0-.56-1.94,1.81,1.81,0,0,0-1.42-.64,1.75,1.75,0,0,0-1.37.62A2.85,2.85,0,0,0,73.9,155.76Z"/><path class="cls-2" d="M84.09,154.3l-2.1-.37a3.16,3.16,0,0,1,1.22-1.81,4.63,4.63,0,0,1,2.57-.58,5.72,5.72,0,0,1,2.32.35,2.24,2.24,0,0,1,1.06.9,4.35,4.35,0,0,1,.31,2l0,2.6a8.26,8.26,0,0,0,.11,1.64,4.26,4.26,0,0,0,.42,1.13h-2.3c-.06-.15-.13-.37-.22-.66l-.08-.26a4.34,4.34,0,0,1-1.27.83,3.71,3.71,0,0,1-1.45.28,3.06,3.06,0,0,1-2.13-.71,2.29,2.29,0,0,1-.78-1.78,2.33,2.33,0,0,1,.36-1.28,2.24,2.24,0,0,1,1-.85,7.92,7.92,0,0,1,1.84-.52,13.35,13.35,0,0,0,2.26-.55v-.22a1.08,1.08,0,0,0-.34-.91,1.94,1.94,0,0,0-1.24-.28,1.72,1.72,0,0,0-1,.24A1.6,1.6,0,0,0,84.09,154.3Zm3.11,1.8a13.16,13.16,0,0,1-1.42.34,4.94,4.94,0,0,0-1.26.39.93.93,0,0,0-.45.79,1.09,1.09,0,0,0,.36.81,1.33,1.33,0,0,0,.93.34,2,2,0,0,0,1.19-.4,1.36,1.36,0,0,0,.55-.74,3.7,3.7,0,0,0,.1-1.08Z"/><path class="cls-2" d="M90.83,160.15v-1.74l3.28-3.62c.54-.59.94-1,1.2-1.26l-1.07,0-3.09,0v-1.85h7.24v1.57L95,157l-1.18,1.22,1.2-.05h3.59v2Z"/><path class="cls-2" d="M35.89,12.44,37,10.49,34.26,8.9l-.12.23c-.27.53-.57,1.07-.88,1.64l-.12.2,2.3,1.47Z"/><path class="cls-2" d="M36.33,14.55,36,14.33l-.58,3,.12.1c2.18,1.67,2.5,2.4,2.5,2.69,0,.94-.7,2.09-2.08,3.41s-2.55,2-3.5,2A4.53,4.53,0,0,1,30.85,25l-.91-.39,0-.11h-.9v.74l0,.07a5.35,5.35,0,0,0,2.4,1.3,9,9,0,0,0,2.73.65c1.32,0,2.56-.88,3.68-2.61a8.29,8.29,0,0,0,1.47-4.41A6.64,6.64,0,0,0,36.33,14.55Z"/><path class="cls-2" d="M52.85,13l.22.13,1.24-2.22L51.45,9.35,50.37,11.5l.21.12C51.6,12.21,52.36,12.65,52.85,13Z"/><path class="cls-2" d="M71.58,22.8a15.49,15.49,0,0,1,.32-1.64,9,9,0,0,0,.23-1.74,7.53,7.53,0,0,0-.45-2.36A6.65,6.65,0,0,0,70.62,15l-.25-.29-1.29,2.51.07.11a8.16,8.16,0,0,1,1.32,3.23H64.91c-.46-5.71-.78-9.87-.95-12.7l0-.63L61.7,9.89l1.41,10.64H60v-.05H55.81l-.25.06H55a1,1,0,0,1-.44-.14l.09,0h.09l.06-.08a6.44,6.44,0,0,0,1.08-2.2l0-.07,0-.07a3.18,3.18,0,0,0-1.43-1.64,3.85,3.85,0,0,0-2.06-.82,1.51,1.51,0,0,0-1.23.42,10,10,0,0,0-.92,1.45c-.63,1.12-.72,1.42-.72,1.58s.09.73.87.73a6.59,6.59,0,0,1,.88,0c.06,0,.18.11.36.44a7.57,7.57,0,0,1-2.33.43h0c-.32,0-.93,0-2.12,0-1,0-2.11-.13-2.23-.79a50.51,50.51,0,0,1-.77-6.66c-.21-3.39-.39-5.66-.53-6.75l-.07-.56-.36.43c-1.38,1.61-1.5,2-1.5,2.14,0,1.88.15,4.32.43,7.24.23,2.4.46,4.81.7,7.21l0,.23h6.42A6.16,6.16,0,0,0,52.79,22a3.29,3.29,0,0,0,.75.64,2.08,2.08,0,0,0,1.14.43h8.08l.06,0a2.3,2.3,0,0,0,.51-.48l.05.52h8.17Z"/><path class="cls-2" d="M69.62,11.69c.46-.83.79-1.46,1-1.85l.11-.22L67.94,8.2l-.12.2c-.44.73-.75,1.29-.94,1.66l-.1.21,2.71,1.65Z"/><path class="cls-2" d="M96.26,16.73a11.15,11.15,0,0,0-1.68,2l-.06.1,0,.1a13.29,13.29,0,0,1,.41,1.6l-1.25.06a3.92,3.92,0,0,1-.58,0l-.36,0,.85-4-.56.49a10,10,0,0,0-1.62,1.54A3.71,3.71,0,0,0,91,20.55c-.52,0-1.13,0-1.8,0a22.25,22.25,0,0,1-3.41-.16,4.61,4.61,0,0,0,.51-1.62c0-.29.11-.94.19-1.92l0-.65-.47.45c-.66.63-1.29,1.26-1.86,1.87l-.06.08v.09a3.09,3.09,0,0,1-.28,1.68,1.07,1.07,0,0,1-.93.35c-.12,0-.44,0-1.28-.1v-.13H81.4c-.57,0-.93-.1-1-.26-.45-3.4-1.33-5-2.7-5-.81,0-1.55.69-2.25,2.12a7.21,7.21,0,0,0-.9,3.07,2.22,2.22,0,0,0,1.64,2.36,21.32,21.32,0,0,0,2.57.23,8,8,0,0,1-2.21,2.74,5.56,5.56,0,0,1-3.39,1.63A5.21,5.21,0,0,1,71.73,27a5.45,5.45,0,0,0-1.6-.35c-.22,0-.39.2-.51.38l-.11.16.13.15c.2.21.69.56,2.69,1.16a12.13,12.13,0,0,0,2.83.61c1.32,0,2.52-.78,3.55-2.33A11.61,11.61,0,0,0,80.36,23h2.9c.16,0,.38-.07.88-.55l.39.55h6c.08,0,.17,0,.57-.26l.33-.19a6.14,6.14,0,0,0,2.48.58,8.31,8.31,0,0,0,.9,0l.87-.08h.13l.06-.11a5.06,5.06,0,0,0,.82-2.56v-4Zm-18.92,1.4a1.21,1.21,0,0,1,1,.73,2.61,2.61,0,0,1,.41,1.34A4.07,4.07,0,0,1,76.89,20c-.67-.2-.9-.41-.9-.54s0-.2.48-.75.62-.6.62-.6Z"/></svg>