<svg version="1.2" baseProfile="tiny" xmlns="http://www.w3.org/2000/svg" width="272.388" height="41.102" overflow="visible" tabindex="-1"><path fill="#474E5E" d="M96.43 32.618c-4.625 0-8.122-1.205-10.49-3.615-2.369-2.411-3.553-6.012-3.553-10.805s1.184-8.395 3.553-10.805c2.368-2.41 5.865-3.616 10.49-3.616s8.121 1.206 10.49 3.616c2.368 2.411 3.553 6.012 3.553 10.805s-1.185 8.395-3.553 10.805c-2.369 2.41-5.866 3.615-10.49 3.615zm0-4.919c2.578 0 4.561-.75 5.949-2.249 1.387-1.5 2.081-3.917 2.081-7.253 0-3.335-.687-5.753-2.06-7.253-1.374-1.499-3.363-2.249-5.97-2.249-2.579 0-4.562.75-5.949 2.249-1.388 1.5-2.081 3.917-2.081 7.253 0 3.336.687 5.753 2.06 7.253 1.373 1.499 3.363 2.249 5.97 2.249zm49.305 4.457c-3.392 0-5.949-.862-7.673-2.586-1.724-1.724-2.586-4.281-2.586-7.673s.862-5.949 2.586-7.673c1.724-1.724 4.281-2.586 7.673-2.586h7.61v4.247h-6.895c-1.766 0-3.042.315-3.826.946-.785.631-1.248 1.577-1.387 2.838h11.941v4.204h-11.941c.056 1.234.476 2.208 1.261 2.922.785.715 2.102 1.072 3.952 1.072h7.063v4.288h-7.778zm48.968 0-7.946-9.964v9.964h-5.634V4.238h5.634v15.767l7.357-8.367h6.559l-8.409 9.166 9.165 11.352h-6.726zm39.485 0v-4.247h10.637c1.317 0 1.976-.658 1.976-1.976 0-1.289-.659-1.934-1.976-1.934h-4.246c-1.991 0-3.532-.533-4.625-1.598s-1.639-2.593-1.639-4.583c0-1.99.539-3.517 1.618-4.582 1.079-1.065 2.614-1.598 4.604-1.598h10.889v4.289h-9.376c-1.345 0-2.018.631-2.018 1.892 0 1.29.673 1.934 2.018 1.934h4.247c2.018 0 3.559.533 4.625 1.598 1.065 1.066 1.598 2.593 1.598 4.583 0 2.018-.533 3.56-1.598 4.625-1.066 1.066-2.606 1.598-4.625 1.598h-12.109zm19.869 0v-4.247h10.637c1.317 0 1.976-.658 1.976-1.976 0-1.289-.659-1.934-1.976-1.934h-4.246c-1.991 0-3.532-.533-4.625-1.598s-1.639-2.593-1.639-4.583c0-1.99.539-3.517 1.618-4.582 1.079-1.065 2.614-1.598 4.604-1.598h10.889v4.289h-9.376c-1.345 0-2.018.631-2.018 1.892 0 1.29.673 1.934 2.018 1.934h4.247c2.018 0 3.559.533 4.625 1.598 1.065 1.066 1.598 2.593 1.598 4.583 0 2.018-.533 3.56-1.598 4.625-1.066 1.066-2.606 1.598-4.625 1.598h-12.109zm-32.778-18.5c-1.346-1.346-3.504-2.018-6.475-2.018h-8.939a2.54 2.54 0 0 0-2.539 2.539v17.979h5.634V16.053h4.667c1.429 0 2.459.315 3.09.946.631.631.946 1.661.946 3.09v12.067h5.634V20.131c0-2.97-.672-5.129-2.018-6.475zm-50.188-9.418v7.4h-4.877c-3.392 0-5.949.862-7.673 2.586-1.724 1.724-2.586 4.282-2.586 7.673s.862 5.949 2.586 7.673c1.724 1.724 4.281 2.586 7.673 2.586h7.972a2.54 2.54 0 0 0 2.539-2.539V4.238h-5.634zm0 23.629h-3.363c-2.102 0-3.63-.469-4.583-1.409-.953-.939-1.429-2.459-1.429-4.561s.476-3.63 1.429-4.583c.953-.952 2.481-1.429 4.583-1.429h3.363v11.982zm-43.854-16.229v16.103h-4.499c-1.429 0-2.46-.315-3.09-.946s-.946-1.66-.946-3.09V11.638h-5.634v12.025c0 2.971.679 5.129 2.039 6.475 1.359 1.345 3.525 2.018 6.496 2.018h8.729a2.54 2.54 0 0 0 2.539-2.539V11.638h-5.634zm98.674 20.518V11.638h5.634v20.518h-5.634zm2.816-27.924a2.817 2.817 0 1 0 0 5.633 2.817 2.817 0 0 0 0-5.633z"/><path fill="#FBBC05" d="M18.32.029C8.202.029 0 8.231 0 18.348c0 8.926 6.423 16.413 15.25 18.138 1.237.242.863.762.77 1.4-.214 1.463.056 3.401 2.931 3.201 8.79-.611 17.689-13.023 17.689-22.739C36.64 8.231 28.438.029 18.32.029zm-.03 27.339a9.181 9.181 0 1 1 9.181-9.181c.001 5.07-4.11 9.181-9.181 9.181z"/><path fill="#4285F4" d="M42.669 35.809a2.29 2.29 0 0 0 2.938-.854l.163-.267a31.836 31.836 0 0 0 2.908-6.354l.097-.297a2.291 2.291 0 0 1 3.815-.967l8.976 8.911a2.291 2.291 0 0 0 3.239 0l3.242-3.255a2.291 2.291 0 0 0 0-3.239l-7.982-7.973a4.58 4.58 0 0 1 0-6.478l7.892-7.882a2.291 2.291 0 0 0 0-3.239L64.714.672a2.291 2.291 0 0 0-3.239 0L52.589 9.54a2.291 2.291 0 0 1-3.802-.922l-.083-.259a31.782 31.782 0 0 0-2.885-6.354l-.189-.311a2.283 2.283 0 0 0-2.906-.899l-4.322 1.959a2.29 2.29 0 0 0-1.006 3.315l.195.306a22.555 22.555 0 0 1 3.39 11.928c0 4.381-1.243 8.472-3.396 11.939l-.223.342a2.29 2.29 0 0 0 .993 3.263l4.314 1.962z"/></svg>