<svg id="Calque_1" data-name="Calque 1" xmlns="http://www.w3.org/2000/svg" viewBox="0 0 109 112"><defs><style>.cls-1{fill:#e20613;}.cls-2{fill:#fff;}</style></defs><path class="cls-1" d="M14.2,108.29a5.74,5.74,0,0,1-5.75-5.75V9.46a5.73,5.73,0,0,1,8.62-5L97.67,51a5.75,5.75,0,0,1,0,10l-80.6,46.54a5.77,5.77,0,0,1-2.87.77"/><path class="cls-2" d="M15.83,63.54h4.89c4.51,0,6.4-2.59,6.4-6.3v-2c0-3.78-2.14-6-6.57-6H15.83Zm2.46-2.06V51.32h2.26c2.67,0,4.06,1.31,4.06,4.06v1.73c0,2.83-1.2,4.37-3.89,4.37Z"/><path class="cls-2" d="M28.84,63.54h2c2.8,0,4.44-1.64,4.44-4.4V49.27H29.44v2h3.44v7.82c0,1.53-.7,2.34-2.11,2.34H28.84Z"/><path class="cls-2" d="M42.35,63.54H47.3V61.48H42.81c-1.2,0-1.73-.59-1.73-2V57.17h5.5V55.09h-5.5V51.32h6.11v-2H38.62V59.68c0,2.54,1.26,3.86,3.73,3.86"/><path class="cls-2" d="M49.3,63.54H59.52V61.48H52.68a71.55,71.55,0,0,0,6.74-11.07V49.27h-9.8v2h6.64c-1.18,2.84-4.95,8.39-7,11Z"/><path class="cls-2" d="M61.09,63.54H71.31V61.48H64.48a72.34,72.34,0,0,0,6.74-11.07V49.27h-9.8v2h6.64c-1.18,2.84-5,8.39-7,11Z"/><polygon class="cls-2" points="76.98 63.54 79.41 63.54 79.41 57.84 84.08 49.42 84.08 49.27 81.72 49.27 78.29 55.81 74.94 49.27 72.42 49.27 72.42 49.42 76.98 57.93 76.98 63.54"/><rect class="cls-2" x="18.84" y="80.94" width="1.67" height="1.69"/><rect class="cls-2" x="21.71" y="80.94" width="1.67" height="1.69"/><path class="cls-2" d="M31.37,72.63v3.18c0,2.74-1.21,3.87-3.82,3.87V78.23a1.88,1.88,0,0,0,2.12-2.16V72.63Zm0-1.4H29.68V69.54h1.67Z"/><path class="cls-2" d="M37.41,77.16h-2a2.32,2.32,0,0,1-1.88-.78,3,3,0,0,1-.61-2V69.73h1.69v4c0,.74.16,1.23.48,1.45a2.36,2.36,0,0,0,1.31.26h1Z"/><path class="cls-2" d="M47.48,76.1v1.06H36.78V75.43h8.86A3.76,3.76,0,0,0,44.85,73a3.17,3.17,0,0,0-2.61-1.15,3.49,3.49,0,0,0-1.28.28,3.73,3.73,0,0,0-1.36,1c-.17-.32-.44-.76-.83-1.34A5.83,5.83,0,0,1,40.4,70.7a5.26,5.26,0,0,1,4.92.4c1.44,1,2.16,2.62,2.16,5m-4.27,4H41.54V78.38h1.67Z"/><path class="cls-2" d="M26.26,75.9V74.28H22.51a2.67,2.67,0,0,1,1.25-1.43,4.51,4.51,0,0,1,1.91-.32V71c-3.27,0-5.12,1.75-5.12,5h5.71Z"/><path class="cls-2" d="M24.77,74.28c-.19,2.36-1.42,3.78-3.62,3.78A3.36,3.36,0,0,1,18.49,77a3.85,3.85,0,0,1-.91-2.69v-1.5h-1.7v1.68a5,5,0,0,0,1.5,3.71,5.15,5.15,0,0,0,3.72,1.48h.11a5.08,5.08,0,0,0,3.7-1.48A4.8,4.8,0,0,0,26.24,76a7.43,7.43,0,0,0,.26-1.7Z"/></svg>