<svg version="1.2" xmlns="http://www.w3.org/2000/svg" width="475" height="373"><defs><clipPath clipPathUnits="userSpaceOnUse" id="cp1"><path d="M0 0h474.52v372.37H0z"/></clipPath><clipPath clipPathUnits="userSpaceOnUse" id="cp2"><path d="M241.26 32.33c110.66 0 200.37 67.55 200.37 150.89 0 83.33-89.71 150.89-200.37 150.89-110.66 0-200.37-67.56-200.37-150.89 0-83.34 89.71-150.89 200.37-150.89z"/></clipPath><clipPath clipPathUnits="userSpaceOnUse" id="cp3"><path d="M161.93 234.23h205.38v55.67H161.93z"/></clipPath><clipPath clipPathUnits="userSpaceOnUse" id="cp4"><path d="M0 0h474.52v372.37H0z"/></clipPath><clipPath clipPathUnits="userSpaceOnUse" id="cp5"><path d="M241.26 30.2c110.66 0 200.37 67.56 200.37 150.89 0 83.34-89.71 150.9-200.37 150.9-110.66 0-200.37-67.56-200.37-150.9 0-83.33 89.71-150.89 200.37-150.89z"/></clipPath></defs><style>.s0{fill:#7cbd28}.s5{fill:#fff}.s6{fill:#87cfeb}.s7{fill:#61b2e7}.s8{fill:#0268b3}.s9{fill:#001f5b}.s12{fill:#d4edfb}</style><g clip-path="url(#cp1)"><path class="s0" d="M195.5 37.3q-.3.2-.7.4-.3-.1-.6-.3.7 0 1.3-.1z"/><path class="s0" d="M194 37.3q.4-.3.8-.7.4.4.8.7h-.1q-.6.1-1.3.1-.1-.1-.2-.1z"/><path fill-rule="evenodd" d="M241.3 32.3c114.2 0 206.9 68.2 206.9 152.3 0 84.1-92.7 152.2-206.9 152.2-114.3 0-206.9-68.1-206.9-152.2S127 32.3 241.3 32.3z" style="fill:#00a1e2"/><path fill-rule="evenodd" d="M241.3 32.3c110.6 0 200.3 67.6 200.3 150.9 0 83.4-89.7 150.9-200.3 150.9-110.7 0-200.4-67.5-200.4-150.9 0-83.3 89.7-150.9 200.4-150.9z" style="fill:#33b5e8"/></g><g clip-path="url(#cp2)"><path fill-rule="evenodd" d="M230.7 39c106.6-3.2 197.6 58.3 203.4 137.4 5.9 79.1-75.8 145.8-182.3 148.9C145.3 328.5 54.2 267 48.4 187.9c-5.8-79 75.8-145.7 182.3-148.9z" style="fill:#8fd3f5"/><path fill-rule="evenodd" d="M231.8 40.1c99.6-2.4 184.6 56.7 189.8 131.9 5.3 75.2-71.3 138.1-170.9 140.5-99.6 2.4-184.6-56.7-189.8-131.9-5.2-75.2 71.3-138.1 170.9-140.5z" style="fill:#c7e8fa"/><path fill-rule="evenodd" class="s5" d="M221.7 47.7c92-8 175.2 40.7 186 108.8 10.8 68.1-55 129.7-146.9 137.7s-175.2-40.7-186-108.8C64 117.3 129.8 55.7 221.7 47.7z"/><path class="s5" d="M87.6 278.7s8.2-5.1 18.4-5.6c0 0 4.4-1.8 6.5-2.8 2.1-1 1.8-.8 3.6-1.4 1.8-.7 2.3-2.2 4.5-3.1 2.3-1 3.4-.8 3.6-1.5.2-.6-.6-1.6 1.3-2.6 2-1 2.3-.6 4.7-3.4 2.4-2.7 3.1-3.7 4.1-3.9.9-.1 1.1-.1 1.9-.1.8 0 1.6 0 2.1-.4.5-.3.5.2 1.5-.1 1-.4 1.1 0 1.8-.8.6-.8 2.6-2.3 2.6-2.3l2.4-2s1.6-.6 2.9-.8c1.3-.1 1.8-.3 2.6-.6s-.2.6 3.2-2.4c3.5-3.1 4.3-3.3 5.6-3.1 1.3.1 2.2 0 3.7-.5s1.3-.3 2.9-.7c1.6-.3 3.6-1.1 4.9-2.1 1.3-.9 2.7-1.9 2.7-1.9l2.6-1.8 3.3-1.3s1.4-.2 2.2-.2c.9 0 1.5.4 2.6.2l1.2-.2h2.1l1.4.8c1.5.7 1.8.2 2.8.2 1 0 0-.2 1 0 .9.2 1.6.5 2.1.7.5.1 1.3.4 1.3.4s0-.1 1.3.7c1.3.8 3.7 2.8 5.2 3.4 1.4.6 2.2.2 2.9 1.6.6 1.5 3.4 6.2 3.4 6.2s1.4-.2 1.9-1.3 1.3-1.6 2-1.3c.6.3.6.8 1.6.5 1-.3 2.1.1 2.4 1.1l.4 1 .1 1.1s4.1-2.6 5 .5c0 0 1 2.6 2 3.9 1 1.3 1 2.6 1.5 2.9.4.3.4-.5 1.9-.5s1.6-.1 2.6.5c1 .7 1.5 1.2 2.1 1.3.7.2 1.1-.3 1.6-.5.5-.1 1.4-.2 1.8.2l1.1 1.1 1.2 1.2s1.4-1.8 1.8-2.6c.3-.8.1-3.3.9-3.3s1.8.2 2.3.7c.5.5.5.5 1.6.5 1.2 0 2-.7 2.8-.5.8.1 2.7.9 3.9 3.2 0 0 1.3 2 2.9 1.5l1.1 1.3s1.2 1.6 3.1-.7c0 0 0-2.9 1.8-7.1 0 0-.7-1.6-.3-2.3.3-.6 1.1-1.4 1.1-1.4 1.3-1.3 1.6-2 2.1-2.1.5-.2 1.3-.5 2 .1.6.7-.2.2 1.7 1 2 .8 2.8.5 3.3 1.1.5.7.3 1.2 1.1 2s.5 1.4 1.5 2.6c1 1.1 1.3 1.1 1.6 2.4.3 1.3 2.1 4.7 1.6-.7 0 0-.8-3.7.7-6 0 0 .5-1.6.8-2.2.3-.7.2-1.5.5-2.3.3-.8.6-1.6 1.1-1.8.5-.1.8-.1 1.6-.5.8-.3 1-.8 1.8-1.3s.8-1.1 1.6-1.7c.8-.7 1.8-1.5 1.8-1.5s.8-.7 1.3-1c.5-.3.5-.5 1.8-.8 1.3-.3 3.2-.8 3.2-.8s1.2-.2 1.7-.2h1.8c.6 0 1.6.2 2.5-.1 1-.4 1.5-.5 2-.5s.6-.7 1.5.1c.8.9 0-.3.8.9.8 1.1.8 2.6 2.1 2.7 1.3.2 1.3-.3 2.6-.1 1.3.1 1.3.3 2.1.8s1.4.8 2.2.6c.9-.1 2.3 0 2.3 0s.8 0 1.5-.1c.6-.2 1.4-.5 1.9-.4.5.2.3.4 1.3 0l1-.3s1.3.8 1.8.7c.5-.2-1 .1.5-.2 1.4-.3.8-.3 2.4.2 1.6.4 2.1.4 2.9.4h2.6s1 .7 1 1.3c0 .7 3.9 10.6 7.9 11.7 0 0 3.3.3 5.4 10.6 0 0 9.9 14.9 22.4 13.4 0 0 2.4 0 3.5.2 1.2.1 2.9.5 3.9.5s14.2.8 14.7 1.2c1.7 1.2 18.3 3.1 20.5 4.5 1.5 1 10.7.9 10.7.9s-37.1 47.3-114.3 65.2c-93.7 21.7-163.1-12-175-17C92.7 315.3 60.5 280 60.5 280s8.6 4.4 27.1-1.3z"/><path class="s6" d="M233.8 267.5c-1.2.9 7.8 5.6 2.7 6.2-5.5.6-6.8 5.2-6.8 7.5s3.9 1.8 2.5 4.2c-2.5 4.2.5 6.8.5 6.8s1.8.1 1.4 2.8c-.4 2.8 0 4.7-1 2.1-.6-1.4-1.2.1-3.4-3.1s-4.9-1.8-3.7-4.5c1.2-2.7 1.4-4.3-1.1-4.4-2.6-.1-6.2 1-5.4-1.8.7-2.8 2.7-19.6 2.7-19.6l6.4-5.5 5.8 4.4s5 .6-.6 4.9zM250.8 283.7c.1-2.4 1.4-1.8 1.9-3.8.5-1.9 1.7-6 .7-7.5-2.3-3.5 1.1-4.6.4-5.7-3.4-4.8.5-4.2.5-4.2l5.3-2.6 5.7 1.7s-.7 3.7 3 4.6c2.5.5-6.6-3.2-5.1 13.2.2 2-8.5 5.1-8.1 7.6.3 2.6-2.9 2.8-5.2 5-2.3 2.3-2.5 2-3.1 3.2-.6 1.2.6-1.2.9-3.6.3-2.4.6-2.4.6-2.4M198 243.6h5.5l5.2 4.8 3.1 4.1-2.6 5.8-.3 4s-.5.9-.6 1.9c-.2.9 0 1.7 0 1.7s-.5 1.1-.9 2.1c-.4.9-.6 1.8.2 4.1s.5.9.9 2.3 0 0-.5 1.4c-.6 1.3-1.4 2.5-1.5 3.4-.2.8 2.2 1.5 2.2 1.5s-.4.6-.4 1.2c0 .5.4 1.2.8 2s.5.8.9 1.7c.4.8.7.5 1.4.9s.8 1.2.9 2.3c.2 1.1 1.1 2.6 1.1 2.6s.4 2 .4 2.9c0 .8.3 1.7 1 3.1.7 1.3.7 1.2.7 3.7.1 1-.2 1.3-.2 1.3s-1.6-.8-2-1.5c-.4-.7-.4-.8-1-2-.5-1.2-.5-1.2-1.6-2.3-1.1-1.1-.7-1.1-.9-1.9-.3-.9-.6-.9-.9-1.4-.2-.5-.2-.9-.6-2-.5-1.1-.5-.8-1.3-1.5s-.9-1-2-1.8-1-.4-1.9-1c-1-.5-.7-.8-1.2-1.3-.6-.6-1.1-1-2-1.4-.8-.4 0-.9 0-1.7 0-.9-.4-1.1-.8-1.9-.5-.9-.5-1-.1-2 .3-.9-.5-.6-.1-1.2.4-.5-.6-.8-.6-1.5s.2-.9 0-1.3c-.1-.4-.3-1.3-.7-1.7-.4-.4-.4-1.1-.1-1.5.3-.4.3-1.9.7-3.2.4-1.4 0-2.5 0-3.3 0-.8-.2-1.2.4-2.3.5-1.1.1-3.3 0-4.5-.1-1.2-.6-1.1-1-2.1-.4-.9-.4-1.7-1.6-3.2-1-1.3-1.3-1.5-1.5-2.3q-.1-.3-.1-.6z"/><path fill-rule="evenodd" class="s7" d="M333.9 282.2v.1h-.1zm2.8 0c.3 0 .6-.1.9.2.4.3.5 1.8 1 .8.4-.6 2.1-1.2.7-2.9-.8-1-2.8-2.2-1.3-4.4-1.3.2-1.6 1.5-2.7 1.4.3.6 1.4-.1 1.1.7-.1.5-.5 1.4-1.5 1.1-1.4-.6-2.7 0-3.8.6-.7.3-1.1.4-1.7.1-.9-.4-.9-.4-2.1.4.6.8 2.1-.3 2.3 1.2-.5.1-1.1.1-1.6.2-.9.3-1.9 1.1-1.4-1 .4-1.3-1-.5-1.5-.7.1-.5.5-1 .9-1 1.5.3 1.4-.7 1.4-1.8 1.1.9 2.2 1.1 3.4.5.3-.1.4-.1.4-.5 0-1.2.7-1.6 1.7-1.1 1.2.7 4.2-.6 4.5-1.8.1-.1.1-.3.1-.3-1.4-.5-1.5-2.6-3.3-2.6-.6 0-2.3 0-1.2-1.6.3-.4-.1-1-.5-1.2-1.4-.5-2.8-1-4.4-.7-.7.1-1.3.7-1.4 1.5-.1.5-.5.9-.9.7-1.8-.8-3.2.5-4.7 1-.4.1-.7.6-1.1 0-.3-.4-.4-1.1.1-1.4 1.1-.7 0-1.2-.2-1.1-.7 0-1.4.6-1.7-.4-.3-1 .9-.9 1.2-1.5-.6-.8-1.9-.8-2.1-1.9-.2-.7-.2-1.2.7-.7.5.8 1.3 1 2.1 1.4.6.4 1.1.8.2 1.2-.8.5-.2.6 0 .8.5.6.9.3 1-.1.3-1.5 1.4-1.2 2.4-1.2.7 0 1.5.2 1.5-1-.6.2-1.2.7-1.8.1-.6-.5-.2-1.1-.2-2.1-1.6 1.6-3.4 0-5 .7.1-.5-.6-.8-.3-1.3.4-.1.9.2 1.4-.4-.7-.4-1.2-1.1-1.7.1-1.6 1-3.5 1.6-5 2.8-.6.5-.4 1.3-1.1 1.6-.4-1.7-.4-1.7 1.3-3.7-1.7-.6-1.9 1.9-3.4 1.6-.4.7 1.1 1 .3 1.7-.6.5-1.2.1-1.8-.1-.2-.1-.5-.2-.5-.2-.8.8-1.5 1-2.7 1-2-.1-3.4 1.4-4.6 3.4.6 0 1.6-.7 1.4.7-.1.3.2.4.6.2.8-.4 1.7-.1 2.6-.2-.6 2.2-2.9 1.9-4.3 3.1.7.3 1.3.2 2 .1-3.2 2.9-5.8 6.6-10.4 7.8 0-.7-.4-1.3-1.5-1.2-.5.1-1.3-2.1-.9-2.4 1.4-1 1.6-2.8 2.5-4.1.7-1 1.7-2 1.5-3.5-.1-.5.4-.9.9-1.1.5-.1.3.4.4.7.3.7.7.1.8-.1.3-.4.2-.8 0-1.2-.3-.5-1-.6-1.2-.4-1.2 1.3-3.2.3-4.5 1.6-1 .9-1.7.5-1.6-.8.1-.8-.5-.5-.6-.4-1.4.2-2.4 1.5-2.2 3 .1.3 0 .5-.2.7-.6.6-1 1.2-1 2.1 0 .5-.5.7-.8 1-.2.1-.5.2-.7.3-.8.3-.6 2.2-1.7 1.5-.7-.4-1.4-.8-2.1-1.4.1.6-.3 1.4.3 1.5 1.9.5.5.9-.1 1.5 1.5.4 2.1.9.4 1.9-.7.3.1 1 0 1.7-.6-1.1-1.2-1.1-2.1-.5-.5.4-1.3-.4-2.1-.1-1.1.4-2.1.9-2.9 1.8-1.1 1.3-2.8 1.7-3.9 3-.2.4-.7.5-1 .1-.2-.3-.1-.7.3-.9.5-.3.9-.6 1.3-1 .2-.2.5-.5.1-.8-.2-.1-.6-.2-.8.2-1 1.9-2.6.7-3.9.7-.5 0-.3-.5-.3-.8.2-1-.4-1.5-1.5-1.2-.4.1-1.2.5-1.1-.5 0-1-.7-1-1.3-1.2-.7-.2-1.4-.4-1.5-1.5 0-1.2-1.3-2-2.6-1.7.7-.9.6-2.1 1.8-2.6.4-.2.2-.5.3-.8 0-.5-.1-1 .3-1.4 1.1-1.3.4-2-.8-2.7-.6-.3-1.1-1 .1-1.3.6-.1.2-.6.4-.9.3-.8-.5-1.9.8-2.4.1 0 .2-.4.1-.5-1.4-1.5-.1-2.9-.2-4.4 1.2.3.9 2.1 2.4 2q-.8-1.8-1.5-3.4c-1-2.2.3-4.1.9-6.1.2-.8.5-1.6.6-2.4 0-.6-.8-2 1.1-1.4.3 0 .3-.4.3-.6v-.8c.2-1 .7-2 1.6-2.1 1.1-.2 2.1.4 2.8 1.1.5.5.9 1.1 1.7 1.2.7.1.6.8.5 1.1-.2.4-.7 0-1-.1-1.7-.2-3-1.2-4.4-2.2-.2-.2-.5 0-.7.3-.2.4.3.3.5.4.7.5 1.5.9 2.2 1.5 1.5 1.5 2.6 1.5 4.2 0 .5-.4.8-.3.9.2.7 2.1 1.9 3.8 3.6 5.2.6.5.8 1.4 1 2.2.1.4.3.9.8.8.5-.1.4-.6.5-.9.2-1.8-.4-3.5.1-5.2.6-1.7.3-3.7 1.6-5.2.3-.4.3-.8.3-1.3 0-1.8.5-1.9 2.3-2.1.8-.1 1.8-1.1 2.4-2 .8-1.3 2.4-1.8 3.1-3.2.1-.1.1-.2.2-.1 1.7.7 1-1 1.4-1.5.6.2.8.9 1.5 1 .5-.5-.5-1.6 0-1.5 1.2.2 1.9-1.3 3.1-.8.5.2.9.5 1.3-.1.2-.2.6-.3.8-.2 1.6 1 3.1.3 4.5-.2 1-.4.8.6 1.1.9.9.2.1-1.4 1.2-1 .8.3 1 1 1.1 1.8 0 .9 1 1.4 1.1 2.3 0 .2 1.3.1.1.5-.2.1-.4.6-.3.7.2.3.7.3.8.1.5-1 2-.5 2.5-1.8.3-1 2.7-.2 3 1.1.3.8.7 1.6 1.5.9 1.1-1 2.1-.9 3.2-.7 1 .2 1.6-1.2 2.7-.6.1.1.8-.2 1.2.3.3.3.8.5 1 .1.7-1.5 1.4-.7 2.1 0 .3.2.8.3.9 0 .3-1.7.9-.4 1.3-.2.5.3 1.5.4 1.6.5 1.4 1.1 2.9 0 4.3.4.7.3 1.2.8 1.1 1.6-.1.3-.2.8-.1 1 2.5 3.1 2.9 7.7 6.5 9.9 3.7 2.4 5 6 6.1 9.8.2.9.8 1.4 1.3 2.1 2 2.5 4 5 6.1 7.5 2.3 2.7 5.3 4.2 8.9 4.7 2 .3 4 1 6.1.9.7 0 1 .4 1.1.8.1.6-.5.9-.9 1.1-.3.2-1-.2-1 .4.2 1.8-1.6 2-2.4 3-.5-.5-1.1-.4-1.9-.4 1.2 1.4 1.8 3.3 4.2 2.8.1.2-7.9 1-6.8.3 1.1-.7.7-1.6.5-2.4-.2-.6-.7-.2-1.2.1-1.1.9-2.3 1.9-3.9 1.8-1-.1-1.4.9-2.5.8.7.8 1.5.7 2.2 1.2.8.7.8 1.1.1 1.7-.3.2-.3.6-.6.8-.4.5-.7 1.2-1.4.2s-2.4-1-2.3-2.7c0-.6-.7-.1-1.1 0-.8.4-1.5.6-1.6-.7-.1-.8-.6-.8-1.2-.7-.5.1-1.2.5-1.4-.3-.2-.6.3-.8 1-.9.9-.2.7-1.1.5-1.7-.2-.6-.7-.3-1.1.1-.2.2-.5.4-.8.1-.5-.7-.9-.8-1.6-.1-.3.4-.5-.1-.7-.4-.1-.5.5-1.3-.5-1.3-.8 0-1 .8-1 1.3 0 1.2-.8 1.6-1.6 1.9-.4.2-.8.7-1.3.3-.5-.4.5-.7.1-1.1-.9-.3-1.4 1.3-2.2.6-.6-.5-1.3-1.3-1-2.3h2.8zm-11.6-2.3-.1-.1q0 .1.1.1zm-1.1-16.8c1.1-.1.1-1 .6-1.4.3-.2 0-.5-.3-.5-.5 0-1 .3-.8.7.2.4 0 1 .5 1.2zm-40.4-7c-1-.2-2-.6-2.4-.3-.9.7.9.9.6 1.7-.1.2-.1.5 0 .6.2.3.4.3.8.2.6-.3.3-.4.1-.6-.9-1-.5-1.4.9-1.6zm-3.9 4.4c2.5-.1.6 1.3.8 2 .9-.5.8-.5 1-2.1.1-.6.4-1.1-.2-1.4-.8-.5-.4.8-1 .9-.2 0-.3.3-.6.6zm35-17c-.4 0-1 .1-1.4-.1-1.1-.3-1.6.7-2.2 1.1-.3.2-.3.9 0 1.2.1.1.7 0 .7-.1.5-1.4 2-1.3 2.9-2.1zm-19-4.6c.9-.2 1.8-.2 2.6.2.4.2 1.3.5 1.4-.2.2-1 .5-1.9 1.2-2.8-1.3.2-1.9 1.7-2.7 1.4-1.6-.8-1.9.5-2.5 1.4zm-28.6 17.4c.2-.9-.6-1.6-.5-2.4 0-.3-.3-.6-.7-.6-.3.1-.2.5-.2.7 0 .3-.1.7 0 1 .4 1.7-.1 3.2-.7 4.7-.3.6.3.9.1 1.3.2.1.4.2.5.1.7-.2-.1-.5 0-.8.2-.3.4-.5.6-.8.5-1 .4-2.2.9-3.2zm34.4 10.3c-1-1-2.6-1-3.4-2.1 0-.1-.1-.1-.1 0-.6.1-2.1 2.5-2 3.3.9-.3 1.3-1.5 2.4-.9.9.4-.2 1 .3 1.5 1.2-.1.9-2.4 2.8-1.8zm.9-11.1c.3-.5 1.1.2 1.1-.5 0-1-.8-1.5-1.7-1-2.2 1.1-2.8 3.6-4.6 5.1-.2.2.1.7.3.5.6-.6 1.8-.5 2.2-1.5.4-.8 1-1.9 1.6-2 .9-.1.6 1.3 1.1 1.9l.1.1c1.4-.9.1-1.8-.1-2.6zm-5.6-9.1c-.5.4-1 .4-1.3.9q-1.2 1.8-2.7 3.4c-1.6 1.5-1.6 1.5.3 2.5.3-.5-.8-1.1.1-1.5.6-.2 1.3-.2 1.6.6.1.3.6.6.7.1.2-1.4.6-.2.8-.1.4.2.5.8 1.1.6-.5-.8-.2-1.5.3-2.2.1-.2.6-.3.2-.8-.4-.4-.6.2-.8.2-.5 0-.7 1.1-1.3.3-.5-.5-.3-1.1 0-1.8.2-.7 1-1.2 1-2.2zm2.3 30.4c.2-1 1.7-1.5.5-2.4-.8-.7-1.4-1.5-2-2.4-.3-.5-.7-1.2-1.5-1-.8.2-1 .9-1.1 1.8.8-.5 1.5-.9 2-.1.5.9-.7.8-1 1.3-.1.2-.4.4-.6.5-.3.4-.7 1-1.3.7-.7-.3.5-.8-.1-1.2-.9.2-1.1 1.1-1.5 1.8-.5.8 0 .9.5.8.9-.4 1.8-.3 2.8-.1.7.2 1.5-.1 1.7-1.2.2-1 .6-.5 1.1-.1.4.4.1.8.5 1.6zm1.2-15.4c.9-1 2.2-.8 3.5-1.3-.5.6-.4 1.1-.4 1.6 0 .6-.6.6-.9.9-.3.3-.9.5-.5 1.4.8-1.2 2.1-.6 3-1.1-.1-.8-1.5.1-1.2-.9.3-.8 1-.3 1.5-.3.7.1 1.2.8 2.3.1-2.5-.2-2.3-1.1-.9-2.3v-.3q-.2-1.5 1.3-1.3c.5.1.8-.2 1-.7.1-.4-.2-.8-.5-.9-1-.2-.7-1-.9-1.6-1.3.4-2.2 1.2-2.9 2.1-.6.8-1.6 1.3-2.1 2-.8.9-2.2 1-2.5 2.3-.4.3-.4.7-.4 1.1.5-.1.3-.6.6-.8zm-1.4 1.1c-.4 0-.5.2-.4.4 0 .1.3.2.4.2.1-.1.2-.3.3-.5q-.2-.1-.3-.1zM196.8 257.3zm.1 0c1.4-.8 3.2-1.1 3.5-3.1-1.1-.4-2.3-1-3.5.1-.4.3-1.2.2-1.8-.3-1.1-1-2.7-.7-3.4.7-.6 1-1.4 1.4-2.5 1.3-.4 0-.9.3-1.1-.5-.1-.9.1-1.7.6-2.3.3-.4.7.3.9.5.6.5 1 .5 1.4 0 .3-.3.8-.6.1-1-.5-.2-.3-1.8-1.4-.9-.9.9-2 .2-3 .6-.5.1-.4-.3-.5-.6-.3-.8-.9-1.2-1.7-1-.8.3-1.7.1-2.4.4-2.4.8-1.3-.7-1.2-1.7-1 .1-1.4.9-1.9 1.5-.2.4-.5.9-.9 1.1-.3.1-.9.1-.7-.5.2-.4.6-1 0-1.1-.5-.1-1-.3-1.6 0-1.4.4-1.9 2.1-3.6 2.1.1 1-.6 1.8-1.1 2.6-.4.7-.7 1.6-2.2.9.8.8 1.3.4 1.7.7-.2 2-2.1.7-3 1.7.2-1.3 1.1-2 1.5-3.1-.8.9-1.7.8-2.5.2-.4-.3-.8-.3-1.1-.2-1.6.5-2.3-1.1-3.6-1.5-.1-.1-.3-.2-.1-.5.4-.5.9-.9 1.6-.9 1.3-.1 2.3-.9 2-2-.5-1.4 1.6-.6 1.2-1.7-.3-1 0-1.6 1-1.9.6-.2 1.5.5 2-.5.1-.2.7.4.9.8.2.4-.5.7-.3 1.2 1.1.2.8-.8 1.1-1.3.2-.4.5-.8 1.1-.5.4.3.5.6 0 1.1q-.7.7.1 1.3c.6-.3.5-1.9 1.7-.9.2.2.5 0 .5-.2-.1-1.2 1-.9 1.7-1.3-2.2.4-2.6-1.5-3.5-2.5-.4-.5-.1-1 .5-1.2.7-.1 1.5-.2 2.3-.3.5-.1.9-.1 1.2.4.2.3.1.5-.1.7-.4.3-.6.8-1.2.3-.3-.2-.6-.2-.9.1 1.5 1 2.9.8 4.2-1.4.9-1.4 1.8-1.5 3.1-1.2-.4-.9-1.1-1.8.8-1.6.5.1 1 .2 1.3-.3.6-.8-.5-.9-.5-1.6.7.3 1.4.3 2.2.3.5 0 1.1-.1 1-.7-.2-.8-.8.4-1.2-.1.1-1.1.9-1.7 1.7-2.3 1-.8 2.7-.3 3 .9.1.3-.3.7-.5 1.1q-.6.7-.1 1.5c.4.6.9.1 1.2-.1.8-.3 1.6-.3 2.5-.3-.9-1.1-.8-1.8.7-1.6 1.2.1.9-.6.7-1.3.5.5 1.5.4 1.5 1.1.1.9-.8 1.2-1.5 1.7.2.5 1 .4.8 1.5-.1 1.1 1.4 0 2.1.4.1.1.3-.2.6 0 .2.7-.6.7-.9.8-.3 0-.7-.4-1 .2-.1.4.2.7.4 1 .2.3.8.3 1.1.1.8-1 1.4-.6 2.1.2.2.3.4.2.7 0 .3-.2.2-.4 0-.7-.5-.6-.1-1.8-1.5-1.8-.4 0-.3-.7 0-.9.5-.4 1.1-.9 1.7-.3 1.2 1.3 2.7 2.1 4.2 2.9.3.2.6.5.8.8 1.7 2.7 3.3 5.4 4.9 8.1.2.4.2.9.7.4.4-.5.6-1.2 1.3-.5.8.8-.5.9-.5 1.3-.1.5.2.4.3.4 1.6-.4 3 .2 4.5.6.5.1.9 0 1.1-.4.3-.5-.1-.6-.4-.9-.6-.4-1.1-.9-1.8-1.1-.3-.2-.7-.3-.9 0-1 1.9-1.5.3-1.7-.5-.3-.7-2.1-.6-1.1-1.9.3-.1.5.2.8.4.4.3.9.3 1.3 0l.3-.3c-.3-.5-.7-.5-1.2-.5-.4 0-.7-.6-1.2-.4.7-.4 1.3-.8 1.5-1.5.7.2 1.1 1.7 2 .4.4.2.9.4 1 .7.1.9 1.3.9 1.2 1.9.7 0 1.5.1 2.1-.1 1.5-.6 3.2.2 3.3 1.8.1 1 .4 1.7 1.1 2.4.5.4.8.9.9 1.6.2 2.3 1.8 3 3.7 1.8.3-.2.6-.2.9 0 .9 1.1 2.4.9 3.5 1.6 1 .6 1.5.2 1.8-.9-.3 1.6.7 2.6 1.4 3.8.4.7.7 1 1.4.1.8-1.1 1.8-1 2.7.1q.1-.1.1-.2c.5-1.3.5-2.2-1.5-1.2.5-1.8 1.9-3 2.1-4.8.1-.7.9-1 1.6-.3 1.3 1.1 2.8.8 4.2.3.8-.3 1.1-.2 1.7.3 1.3 1.1 2.2 2.6 3.5 3.8 0 0 .2.1.2.2.5 2.2 1.2.5 1.9.2 1 .5.6 2.4 2.5 2.2-.4.3-.7.7-1 .8-2.1.3-1.4 1.1-.4 1.9-1 1.1-2.2 1.3-2.8.5-.3-.4-.1-.8.7-1.5-2-.7-3.3 1-5 1.4-.6.2-1.1 1.5-.5 2.4.4.7.3.9-.5 1-.7.2-1 .9-1.6 1.4-.2.1-.4.4-.6.2-.2-.1-.6-.4-.4-.6.6-.9-.1-1.9.5-2.8-1-.1-.9.5-.9 1.1 0 .6.2 1.2-.4 1.6-.3.2-.1.9-.7.7-.3-.1-.6-.3-.6-.7.1-.4-.2-.8-.4-.8-.4.1-.6.5-.5.9 0 .5.1 1-.5 1.2-.7-1.5.3-3.8-1.9-4.7-.2-.1-.3-.3-.5-.3-1.4 0-1.4 0-.9-1.2.2-.3.1-.9 0-.8-.8.3-1.1-1.2-1.8-.5s-1.2.8-2 .1c-.4-.2-1.1-.1-1.3.6-.1.6-.1 1.1.8 1.1.6-.1 1.1.2.6 1q-.3.5.2 1c.2.2.4.4 0 .7-.2.3-.5.5-.9.5-1.2.1-2 2.1-3.5.6-.3.5 1.1 2.5-1 1 .4 2.6 2.9 1.5 4.2 2.6-.3.7-.9.3-1.3.4-.9.2-1.6.5-1.3 1.6.1.2.3.6.1.7-1.6.5-2.1 2.5-3.9 2.6-.3 0-.8-.2-.9.4 0 .5.2.7.6.9 1.5.7.9 1.2-.2 1.8-.8.4-1.6.7-2.6.6-.8-.1-1.2-.4-1-1.7-1.7 2.2-3.9 2.9-5.9 3.8-1.3.6-2.8.9-4.3-.1-.4-.3-2-1.6-3 0-.1.3-.5.3-.7.2-.4-.1-.3-.5-.2-.7.9-1.6.2-3.7 1.4-5.3.4-.4-.1-1.1-.6-1.4-2-1.3-2.1-1.3-1.3-3.4.8.9 1.8.8 1.7-.1 0-.3-.4-.5-.5-.7-.1-.3-.1-.7-.1-1 .8.2 1 .7 1 1.4 0 .3-.2.7.3.7.2 0 .6-.1.6-.2 0-.3.6-.6.1-.9-.3-.2-.2-.7-.4-.8-1.1-1.1.1-2.6-.8-3.9-.7-.8-1.3-.9-2.1-.9-.3 0-.5.3-.6-.1-.1-.3.1-.6.4-.6.9-.1 1.4-.7 1.9-1.5-.9-.5-1.6-.2-2.2.1-.5.3-.8.7-1.4.6-.6-.1-.7.3-.8.8-.2 1.8.1 3.6-1.1 5.3-.3.5.4 1.9.9 2.9.4.8.4 1.4-.7 1.5-.4 0-.6 0-.7.5-.3 1.7-1.2 3.3-1 5.1.2 1.2-1 1.6-1.3 2.5-.1.2-.6.2-.6-.2-.1-1-1.4-1.7-.9-2.9.2-.5-.1-.6-.3-.7-1.5-.6-.2-.8.2-1.2-.8-.5-1.8-.8-.8-2.1.4-.5-.3-1.8-.4-2.7-.2-1-.5-2 .5-2.7.4-.3.3-.5.1-1-.9-2.3-.4-4.9-.4-7.3 0-.8-1.1-2.4-1.8-2.3-1.6 0-1.8-.3-1.1-1.6.2-.3.4-.5.6-.7q.1-.1.2-.1zM182 241.5v.1-.1zm-.9 6.1c.7-.8 1.6-.2 2.4-.5.2-.7-1.3-1.4-.3-1.8 1-.4 1.3.8 1.7 1.5.1.2-.1.5 0 .7.3.5.8.8 1.5.6.3-.1-.8-1 .4-.6.7.2.9.6.4 1.3-.1.2.2.4.5.6.3.2.6-.1.6-.3.2-1 1.1-1.1 1.8-1.2 1.4-.2 1.4-1.1 1.5-2 0-1.6-1-1.6-2.3-1.1.3-.6.8-1.1.4-1.4-.6-.5-.8.1-1.1.5-.2.3-.5.3-.8.3-1.1.3-2.2-.1-3.1.1-1.1.3-1.7-.4-1.9-.9-.5-.8.7-.8 1.1-1.1.4-.3.8-.9.6-1.1-.4-.6-.9-.2-1.2.2-.4.5-.8.7-1.3.2-.4 1.9.1 4-.9 6zm59.7 13.2zm3.3-.8c.2-.1.5-.6.8-.2.2.4 0 .8-.4 1-.4.3-1 .3-.8 1.1 1.6-.1 2.7-.5 2.7-2.5-.1-.5.1-1.5 1.2-1.5.3 0 .8-.3.5-.8-.2-.4-.6-.5-1-.4-.4.1-.5.9-1.2.5-.3-.5 1.3-1.4.1-1.3-.7 0-2.6-.1-2.6 1.7.6 0 1.2.1 2.1.2-1.4 1.7-3.3 1.8-4.7 3 1.3.4 2.2-.6 3.3-.8zm-55.3-19.8c.4.1-.8.8.3.7.5 0 1-.1 1-.7 0-.3-.4-.6-.8-.8 0 .3-1.1 0-.5.8zm-19.3 9.5c-1.6-.1-2.1 1.4-3.6 1.8 2.3 1 2.5-1.1 3.6-1.8zm43 26.5c.9-.5 1.6-1.5 2.5-.5.1.1.5 0 .6-.1.2-.2 0-.4-.1-.6-.2-.4-.3-1.1-.9-.9-.8.4-2.1.4-2.1 2.1zm-31.8-28.5c-.9-.4-1.7.4-2.6-.1 0 0-.7.5-.7.8.1.6.9.7 1.1 1.3.1.3.7-.1.8-.4.1-.8 1-.9 1.4-1.6zm12.4 3c-.7-.4-1.5-1-.8-1.4.9-.6 1.1-1.5 1.8-2 1-.8 1.4-2.6 3.3-2.1.2 0 .4-.3.3-.5-.3-.4.5-1-.1-1.1-.9 0-2.5.2-2.6.5-.2 1.3-1 1.6-1.9 2.2-.5.3-1.7 1.1-1.4 1.4.7.8.2 1.4 0 1.9-.2 1.2.2 1.4 1.4 1.1zm21.7 18.8c-.9.2-2.5 2.4-2.3 3 .1.3.5.9.8.5 1-1.5 2.5-1.1 3.9-1.2.4 0 1 .2 1.1 0 .2-.4-.2-.8-.5-1.1-.4-.3-.7-.7-.4-1.1.3-.3.7 0 1.1.1.5.2 1.5.3 1.1-.6-.6-1.2.6-1.9.4-3 0-.4-.3-1.6.5-2.2.5-.4.7-1 .4-1.4-.2-.5-.9-.2-1.4-.2-.3 0-.7.7-.8-.1-.1-.8.1-2.1.9-2.1 1.4-.1 1.6-1.2 2.3-2-.4-.1-.8-.2-1.3-.3.8-.7 2-.9 1.5-2.5-.2-.9-.7-.8-1.1-1.2-.3.5-1.4-.2-1.4 1s-1.4 1.9-2.5 1.5c-1-.4-1.8-1.4-3-.6-.1 0-.6-.3-.6-.5.1-.7-1-.9-.8-1.7.1-.4-.3-.5-.5-.3s-.6.1-.6.5c0 1.6-.6 2.9-1.7 4.3h4.3c.6 0 .8.5 1.1.9 0 0-.3.4-.4.4-1.2-.2-2.4.5-3.5-.4-.9-.7-1.6.5-2.3.8-.8.3.3.7.3 1.1 0 1 1.3.5 1.4 1.3.3 1.7 1.2.8 1.9.4.3-.1.4-.5.7-.7.3-.2.6-.5 1.1-.3.7.5-.4 1.5.5 2-.2.1-.5.4-.6.4-1.8-.2-1.8 1.3-2.7 2.4.5-.1.8 0 .9-.1.5-.4 1-.5 1.3 0 .2.5-.4.7-.6 1-.7.7-1.8 1-2 2.4 1.7-.6 3-1.4 3.8-3 .3-.7.8-1.5 1.7-1 .4.2.5 1.3.3 1.9-.2.8-1 .6-1.9.2.6 1.2.9 2 0 2.8-.2.2-.3.7-.8.4-.4-.2-.4-.7-.1-1.1.1-.2.2-.3.5-.6zm4.4-16-.2.2c.1.2.2.2.3.3 0 0 .1-.1.1-.2s-.1-.2-.2-.3z"/><path fill-rule="evenodd" class="s7" d="M180.4 253.3c-.9.3-1.5.5-2.2.7-.3 0-.7.2-.8-.2 0-.4-.3-.9.4-1.1.8-.3 1.5-.6 2.4-.7.9 0 1.8.1 2.7-.2 1.4-.5 2 .3 1.8 2.1.4 0 .6-.4.8-.6.3-.3.5-.3.8 0 .3.3.4.7.2.9-.6.5-1.1 1.3-2.1 1.1-.3-.1-.5-.7-.7-.2-.2.5.2.6.5.6s.7-.1.7.4c.1.4-.1.7-.4.8-1 .3-1.7 1.2-2.7 1.7-.7.3-1.3.8-2.2.2-.7-.4-1.3.6-2.1.6-1.5-.1-2-.4-1.8-1.8.1-.3.1-.5.1-.7-2 0-2.5 2.6-4.6 2.8.2-.8.7-1.4.6-2.1-.1-1.2 1.5-1 1.8-2.1.4-1.5 1.5-.4 2.3-.1 1.8.7 3.4 0 4.5-2.1zm3.1 1.5c.3-.6 0-.9-.6-1.1 0 0-.2.1-.2.2 0 .5.3.8.8.9zM323 277c-.6-.5-1.4-.3-2.1-1.1q1.8-.8 3.5-1.5c.3-.1.7.1.9-.3.2-.6.4-.4.8-.1.4.4 0 .5-.3.8-.7.7-1.2 1.6-2.7 1.5 1.4 1.1 2.2.6 2.8-.3.3-.3.4-.7.8-.6.3.1.4.5.5.8.1.4-.2.7-.6.8-.8.1-1.4.8-2.4.7-.8-.1-1.1.7-1.5 1.2-.7.7-1 2.1-2.5 1.4-.4-.2-.6.3-.9.5-.6.7-1.5.7-2.3.8-1.7.1-.2-1.9-1.5-1.9.1-.7.6-.6 1-.8 1.1-.4 2-1.4 3.3-.6.7-1.5 2.1-1 3.2-1.3zM196.8 257.3c-.9-.3-1.3.4-1.8.9-1.8 1.7-3.8 2.2-6.1 1.6-.8-.3-1.2.3-1.7.6s-1.1 1-1.6.2c-.4-.4-1.2-.9-.9-1.5.3-.6.8-1.2 1.7-1.1.6 0 1-.1 1.4-.7.4-.6 1.1-.5 1.6.1 1 1.3 2.3 1.7 3.5.8.6-.5 1.4-.7 1.8-1.4.3-.5.6-1.2 1.2-1.1.7.2.8 1 .9 1.6zM316.8 268.6c.1 1.2-.4 1.9-1.9 1.5-.4-.1-.5 0-.3.7 0 .3-1.5 3.2-1.7 3.4-.3.2-.7.3-.9.1-.4-.4 0-.7.2-.8 1.3-.5.3-1.8 1.1-2.5.3-.3-.4-.5-.8-.6-.8-.3-.9-.8-.1-1.2.7-.5 1.3-1.1 2-1.5.7-.3 1.5-.1 2.3-.1-.1.3.5.5.1 1zM314.7 277.9c-.7.1-1.2-.1-1.5-.5-.2-.3.4-.5.5-.9.9-1.8 2.9-2 4.3-3.1.4-.3 1-.8 1.5 0 .5.7-.4.9-.7 1.3-.3.5-.9.2-1.3.3-.4.2-1.2.2-1 1 .5 1.9-1.6 1.1-1.8 1.9zM333.9 282.2c-1.8.4-3.6.8-4.9 2.1-.8.8-1.4.7-2-.3.9-.1 1.3-.7 1.9-1.2.4-.5.9-.8 1.5-1 .7-.2 1.4-.2 1.8-1 .3-.4 1.1-.3 1.6-.1 1 .4-.4 1.1 0 1.6zM154 250c.3-.2 1-.5.6.3-.6 1.2-1.3 2.3-2.5 3.1-.4.2-1 .7-1.2 0-.2-.5-.3-1.3.5-1.7.4-.1 1 .3 1-.4 0-.5-.6-.6-1.1-.6 1.5-2.2 1.7-2.3 2.4-1-.3.1-.3.3-.2.6q.2-.1.5-.3zM155.6 245.9c.1.5.3.9.3 1.2-.1.4-.8.6-.2 1.1.3.3.6.3 1 .1.5-.2.8-.5.7-1.2 0-.6-.2-1.2.7-1.5.9-.3 1.4 0 1.8.7-.7.3-1.4.8-1.5 1.4-.2 2-1.8 1.2-2.8 1.6-.2.1-1-.6-.8-1 .4-.7-.1-1.6.8-2.4zM253.5 266.8c1.1.1 1.6.7 2.2 1 .2.1-2.1 2.4-2.3 2.3-.4-.3-1.1-.9-.9-1.1 1-.5-.2-2.1 1-2.2zM287.2 279.9c-.9.1-1.4-.3-1.2-1 .2-1.3 1.4-1.4 2.3-1.9.2-.1.8 0 .5.5-.5.8.5 2.8-1.6 2.4zM341 286.8c-.8.1-1.4-.1-1.2-.8.1-.8.7-1.5 1.6-1.4.8 0 1.8.6 1.7 1.2-.2 1-1.5.8-2.1 1zM252.2 266.1c-.1.4-.4.7-.7.9-.8.3-1.2 1-1.9 1.5-.2.2-.3.8-.8.3-.4-.3-.4-1-.2-1.1 1-.6 1.6-1.8 2.7-2.1.5-.2.9-.2.9.5zM157.1 259.5c.2-1.8 1.5-1.6 2.7-1.5-.8 1.7-.8 1.7-2.7 1.5zM331.2 274.3c-.3 1.9-1.8.8-2.6 1.3-.2.2-.3-.1-.3-.4-.1-.3 0-.4.3-.5.9-.4 1.7-.1 2.6-.4zM149.7 252.6c-.8 2.2-2.5 0-3.5 1-.1.2-.3-.3-.1-.5.3-.5.9-.5 1.3-.3.7.3 1.4.1 2.3-.2zM255.8 275.6c-.1-1 1.1-1.5 1-2.5 1.2 1.1 1 1.7-1 2.5zM325 279.9c0 .5-.2 1.1.4 1.7-.9-.2-1.6-.7-2.1.2-.2.2-.4.2-.6 0-.1-.2 0-.5.2-.6.8-.2 1.1-1.3 2.1-1.2zM304.2 268.4c.8-.5 1.7.3 2.4-.2.2-.2.3.1.3.4.1.4-.2.7-.6.8-.2.1-.7.5-.7 0-.1-.8-1.1-.4-1.4-1zM185.5 234.4c-.9 1.8-1.9.4-2.8.3.9-.5 1.8-.3 2.8-.3zM305.6 270.1c0 .4 0 .7-.4.6-.2 0-.2-.3-.2-.5-.1-.3.1-.5.4-.5.1 0 .2.3.2.4zM263.7 284.2c-.1-.1-.2-.1-.3-.2q.2-.1.3-.2c.1 0 .2.1.2.1q-.1.2-.2.3zM219.2 253.4c.1.2.2.3.3.4l-.2.2c-.1-.1-.2-.2-.2-.3 0 0 .1-.2.1-.3z"/><g clip-path="url(#cp3)"><path fill-rule="evenodd" class="s8" d="M359 285.7c.4-.2.7-.7.7-1.2.1-.5.4-1.3-.2-1.6-.5-.3-1.1 0-1.8.4-1 .7-2.1 1.6-3.4 1.5-.6 0-1.1.3-1.5.6-.4.3-1.3.1-1.2 1 .1.8.9.1 1.2.4.4.4 1.4.7 1.3 1.3-.1.7-.7 1.4-1.3 1.7-.4.3-1.3-.3-1.4-.8-.6-1.8-1.5-2.7-3.5-1.9-.6.2-.6-.3-.6-.7-.1-1.2-1-1-1.7-1-.2 0-.4.6-.6.1-.1-.2-.1-.6.2-.7.6-.1.6-.6.8-1 .8-1.5-.3-1.6-.9-1.2-1.1.6-2.1-1.3-3 .2-.1-.2-.4-.4-.4-.5.6-1.1-.5-1.1-.8-1.6-1.1-1.5-3.4-2.5-2.5-5 .1-.4-.3-.5-.7-.4-.4.1-.7.4-1.1.6q-.1-.2-.2-.3c.4-.5.9-1 1.3-1.5.5-.4.4-.8-.1-1-.6-.4-1.1-.6-1.3-1.5-.1-.6-1.3-.9-2.2-1-.9 0-.8-.1-.5-1 .4-1.2-.7-1.5-1.4-1.9-1.7-.8-3.4-.1-5.1 0-2.6 0-.3 1.1-.7 1.6-1.8-.4-3.6.1-5.2 1.2-.2.1-.6.2-.7.1-.3-.2-.3-.8-.2-.9 1.1-.6.9-1.8 1.3-2.7.7-1.5 1.9-1.7 3.3-.5.1.2.2.3.4.2.1-.1.3-.4.2-.4-.8-.7.3-1.1.5-1.7-.7-.5-1.2.4-1.7.1-.3-.1-.8.2-1-.2-.2-.5.1-1 .5-1.1 1.6-.4.8-2.1 1.7-2.8 0-.1-.2-.5-.4-.7-.2-.2-.5-.1-.5.2-.2.8-2 .7-1.2 2.1.1.2-1.5 1.4-2.3 1.1-.7-.4-1.2-.5-2-.2-.2 0-.7.1-.8-.3-.1-.5.1-.7.6-.7.3 0 .5-.3.7-.5-.2-.1-.4-.4-.6-.5-.5 0-.8-.1-.7-.6q.1-.7.8-.7c.4 0 .9.1.9-.6-.1-.3.1-.6-.3-.7-.5-.1-.8.2-1.2.4-2.5 1.3-3.6 4.1-5.9 5.5-.2.1-.4.5-.9.2.1-.7.8-1 1.1-1.5.2-.2.5-.5.4-.6-.1-.4-.8-.6-.9-.4-.4 1-1.9-1.1-1.8.7 0 .4.2.8-.3.9-2 .1-.9 1-.4 1.7-.4.5-.9.4-1.2.2-1.2-.7-2.2-.5-3.3.2-.9.5-1.7 1-2.9 1-.7.1-1.3 1.3-1.9 2.1-.4.6-.8 1.2-1.5 1.4-.4.1-.5.2-.4.6 0 .5.3.7.6.9.4.2.6-.2.8-.4.3-.3.5-.7.8-1.2.8 2 2.4.2 3.5.9-.4 1.4-2 1.1-2.9 1.8-.1.1-.2 0-.3 0-.7 0 .5-1.1-.4-.8-.4.1-.6.8-.9 1.1-.3.2-.7.3-.9-.2-.6-1.2-1.3-2.3-2.7-2.7-.5-.2 0-.4 0-.6.2-.7-.1-1.4-.8-1.6-.6-.1-1.5-.6-1.9.5 0 .1-.2.2-.2.2-1.9-.7-3.1 1.3-4.9 1.2.5-2.4 1-4.6 4.1-4.3-.2-.6-.2-1.1-1.2-.9-1.2.3-2 1.5-3.4 1.6-.1 0-.2.3-.2.4.1 1.6-1.1 2.4-2 3.3-.4.5-.4 1.1-.5 1.6-.4 1.3-.7 2.8-1.8 3.7-.3.2-.8.3-1.1.2-1.4-.8-3.5 0-4.4-2-.1 1.1.4 1.9.8 2.7.4.6.3 1.6 0 1.7-1.2.6-.8 1.1-.2 1.8.9 1.2-.5 1.6-.8 2.5-.6-1.3-1.1-1.4-2.2-.7-1.5 1-3.2 1.4-4.1 3.2-.3.4-1.1.5-1.6.7-.4-.4 0-.6 0-.8 0-.6 1.2-.6.7-1.3-.4-.7-.8.1-1.3.2-.6.1-.1-.7-.3-.7-1.3-.1-1.1-.9-.6-1.5.6-.8-.1-1.8.5-2.5.5-.7.7-.9-.3-1.1-.5-.1.1-1.2-.9-1.4.1 2.1-.3 4.2-.7 6.3 0 .3 0 .6-.1.8-.5.4-1 1.5-1.6 1.2-.7-.4.2-1 .3-1.6.2-.8 0-1.6.7-2.2.2-.2 0-.9-.3-.6-1 .9-1.4-.8-2.3-.5-.4.2-.3-.4-.3-.7.1-.5.2-1 .7-1.2.3-.1.6 0 .7.5.1 1 .5.1.5 0 .3-1.4.6-2.8.8-4.2-1.1.2-1.1.2-.7 1 .4.6-.1 1.2-.6 1.4-1.5.7-2.3 2-3.1 3.2-.8-.4-1.2-1.9-2.5-.7 0 0-.4-.5-.7-.7q.2-.1.3-.2 2-1.2 3.6-2.9c1.2.1.9-1.2 1.4-1.7l-.1.1c.4-.6.8-.9 1.7-.9-1.5-1.3-2.7-2.6-4.7-1.1.8-.9.8-2.4 2.4-1.6.9.4 1.3-.5 1.3-1.3.1-.5-.3-1.1.7-1.1.6-.1.6-.7.6-1.2 0-.6.2-1.1.3-1.7.1-.8.6-1.2 1.2-1.3.6 0 .4.8.6 1.3 0 .2.2.3.4.5s.4.6.7.3c.2-.1.1-.4 0-.7q-.3.1-.5.1v-1.4c-.1-1.8-.1-1.8-1.6-1-.2-1-.1-1.7.7-2.5.8-.9.9-2.2 1.6-3.3.4-.6-.4-.7-.8-.6-.5.2-.8.2-.9-.4-.2-1.1-.9-2.3-.8-3.1.1-1.4-.8-1.6-1.5-2.2-.2-.2-.4-.4-.9-.6 1.4 2.3 2.1 4.6.4 7-.7-.2-.5-.6-.5-.9-.1-.3.1-.7-.3-.8-.3-.1-.6 0-.8.2-.3.3-.4.7-.1 1 .3.4.7.7.5 1.2-.2.4-.6 1-1.1.8-.6-.2-1-1-.8-1.6.4-1.1.4-2.5 1.3-3.5.7-.3.4 1.5 1.4.7.5-.5 0-1-.2-1.2-.4-.4-1-.9-1.7-.3-.3.3-.5.8-1.2.6.4-.9.7-1.8.5-2.8-.1-.3 0-.8.4-.7 1 .5 1.2.1 1-.8 0-.5.3-.6.8-.3.7.4 1.8.6 2.1 1.2 1.1 1.8 2.7 1.1 4.1 1.3.1.1.2.1.2.1.1-.2.1-.3.1-.5q.2-.7.5-1.3c.7.2.8.9 1 1.4.5 1.4 1.2 2.6 2.4 3.5q1.3 1 1.7 2.7c.1.5.2 1.1.8 1.1.7 0 .6-.7.6-1.2-.4-2.6.2-5.2.6-7.9.1-.6.3-1 .6-1.5.5-.7 1-1.4.8-2.4-.1-.1 0-.3 0-.5.3-.6.6-1.6 1.3-1.4.7.2 1.1 1.1.2 1.8-.3.2-.1.4.1.6.3.2.7.4.9-.2.2-.5.9-.8.7-1.6.5.2.8.4 1.2.6.3.1.5-.2.7-.4.1-.2.2-.4-.1-.5-1.6-1-.4-1.7.2-2.5.5-.6 1.1-1.1 1.6-1.6.7-.8 1.3-1.3 2.5-.7.9.4 1.8-.9 2-1.5.8-1.7 1.1-.1 1.6.2.2-.9.9-1.4 1.5-1.8.6-.3 1.6-.6 2.5-.1.5.4 1.2-.4 1.8-.3.6.1 1.2.3 1.9.5-.6.7-1 1.4-2.4.9-1-.5-2.2.8-1.8 1.7q.1.3.2.5c1-.4 1.8.2 2.8.3 1 .1 1.6-.6 1.8-1.8 0-.5.8-1 1.1-1.7.2-.5.5-1.2 1.1-.8.6.5.8 1.4.7 2.1-.1.3-.5.3-.7.2-1.2-.7-1.3.3-1.8 1 1.7-.9 2.3.2 2.5 1.4.3 1.4 1.1 1.1 1.9.7.2-.1.2-.2.4-.3 1.9-1.2 2.3-1.1 3.2.8.6-1.2 1.4-1.4 2-.6.6.7 1.3-.2 1.7.5v-.1c-.3.3-.7.6-.9 1-.4.6-1.5.6-1.4 1.1.3.8 1.3-.3 1.8.4.1.6-.6.6-.8.7-.8.3-.4.8-.4 1.2-.1.5.3.8.8.8.5.1.7-.1.9-.6.3-.6.5-1.2 1.5-.9.4.2 1.1-.5 1.4-1.2-.9-.5-1.8 0-2.6-.4.4-2.2 1.8-3.2 4.1-2.9.5.2-.5 1.3.7 1.4 1.3.1.2-1.4 1.2-1.5-.1 1 1 1.3 1.2 2.2.2.8 1 1.3.1 2.1-.3.2-.1.5.2.5.7.1 2-1.4 1.6-1.7-2.1-1.7.2-2 .8-3.2.3 1.1-.5 2.1.5 2.9.3.2.5.4.7.3.5-.1.4-.5.3-.8-.5-.9-.8-1.9-.6-2.9.6 0 .8.6 1.2.9.1.1.2.3.2.4 1.7-.9 3.3.8 5 .2.9-.3 1.7 0 1.4 1.3 0 .3-.1.7 0 .8 2.8 4 3.7 9.4 8.8 11.6.6.3.8.8 1 1.3 1.1 2.4 2.6 4.6 2.9 7.3.1.7.8 1.2 1.3 1.7 2 2.5 4 5.1 6 7.5 2.4 2.8 5.4 4.2 9 4.7 2 .3 4 1 6 1 .7 0 .8.5.9.9.1.5-.4.7-.9.7q-1.1 0-2 .6c-.2.1-.6 0-.6.4 0 .1.1.2.2.3.3.1.4-.2.6-.4.8-.4.4.4.4.6.1.6-.4 1-.9 1.1q-.9.3-1.9.4c-.8 0-1.1.4-.6.9 1 1.1 1.6 2.9 3.6 2.7.4 0-7.9.9-6.2-.1zm-96.7-10.4.1-.1-.1.1zm6.5-10.4zm.8-.1c.4-.3 1.2.4 1.3-.6 0-.2 0-.6-.1-.6-.5 0-.9.3-1.3.7l-.2.2q-.2.2-.5.4c.3.2.6.3.8-.1zm-5.2 10.8c0-.1-.1-.3-.1-.3-.2-.1-.3.1-.3.2s.1.2.1.3q.2-.1.3-.2zm60.2-8.6c-.2 0-.4.2-.3.4 0 .1.2.3.3.3.3 0 .3-.3.3-.5 0-.1-.1-.3-.3-.2zm9.2-16.2c0 .4.2.5.4.4.1 0 .2-.3.2-.4-.1-.1-.3-.2-.5-.3q-.1.2-.1.3zm-7.3-5.4c-.3.5-1 1-.6 1.4 1 1.1.8 2.5 1.2 4.2.8-2.3-.4-3.9-.6-5.6zm-38.3-4.3c-.3.4-.6.8-.9 1.1-.6.6-.3 1.1.4 1.3.9.3 1.9.5 2.9.8-.4-.7-.2-2.1-1.6-1.3-.4.2-.9 0-.5-.7.3-.4.2-.8-.3-1.2zm44.6 11.8c.6-1 0-2.1.9-2.9.4-.4-.3-1.5-1-1.7-.9-.2-.3.7-.6 1-1.2 1.5.6 2.3.7 3.6zm-10.2-5.2v-1.2c-.1-1-1-1.2-1.7-1.1-.8.1-.7.9-.5 1.5.3.7.6 1.3.8 1.9.2.6-.2 1.7.6 1.6.7-.1.6-1.2.8-1.9v-.8zm13 7.6c.5 0 1-.1 1.5-.1.2 0 .7-.2.4.3-.7 1.4.7 1.8 1.3 2.6.4.5 1 .6 1.4.2.4-.3.3-.9.1-1.4-.9-1.5-2.3-2.6-4-3.9 1.1 1.5.2 1.8-.7 2.3zm-34.4 11.4c.3.1.9-.4.6-.9-.4-.6-.6-1.4-1.1-2-.8-.8-1-.3-1.4.4-.1.3-.8-1.5-1.7-.4-.5.7-1.1 1.3-1.6 2-.2.5-.8 1-.2 1.6.7.7.9-.2 1.3-.4.5-.3 1.2-.6 1.4.1 0 .3-.4 1 .2 1.1.4.1 1.1-.2 1.2-1 .1-.2.1-1.1 1.3-.5zm27.5-11.5c-.1 1.3.1 2 1.1 2.7.8.6 1.3 1.2.9 2.1-.2.6.1.7.4.7.3.1.7.1.7-.4.1-.7-.4-1.8.8-1.8 1.1.1.3 1.3.5 1.9.2.3.4.8.7 1 .2.2.6 0 .8-.3.3-.5.2-.8-.2-1.2-.4-.4-.5-1-.1-1.4 1.2-1.1 1.3-1.1 0-2.3-.1.1-.2.3-.2.4.1.9-.5 1.1-1.1 1.2-.3 0-.8.2-.8-.3s-.5-1.3.7-1.4c.4 0 .3-1-.3-1.8-.4 2.2-1.5 2.4-3.9.9zm-43.4 2.4c.2-1.1-1.3-2.1.1-3l-.2-.4c-.2.1-.5.1-.6.3-.6.9-1.6.8-2.5.6-1.4-.2-2.7-.5-3.5 1.1-.2.4-1 .1-.7.8.2.7.9.6 1.3.7.7 0 .3-.6.3-.9 0-.4.6-1 .8-.8.5.3 1 .6 1.1 1.3.2 1-.9 1.3-1.3 1.9-.5.7-.6-.2-.8-.4-.4-.4-.8-.6-1.1-.1-.2.3-.1.8.3 1 .8.2 1.4.9 2.2.9.1.7-.9.9-.5 1.3.6.6 1.2 0 1.7-.4.6-.3.8-.7.4-.9-1.3-.7-.1-2-.1-2 1.3-.5 1.2-1.4.6-2.4.7-.1.8.5 1.2.6.4.2.7.5 1.3.8zm14-10.4q-.2-.1-.4-.1l-1.7 1.7c-.3.5-.4 1.4-1.3.9-.8-.5-.1-1.3.2-1.7q1.5-2 2.6-4.3c.1-.3.4-.8 0-1-.4-.2-.7.2-.8.6-.1 1-.8 1.7-1.3 2.2-1.8 1.8-3.1 3.9-4.9 5.6-.6.5-.9 1.1.2 1.5.7.2.3.6 0 .8-1.2.5-.9 1.9-1.5 2.8-.3.3 0 .7.4.9.5.2.5-.2.5-.6.1-.5.5-.4.8-.3 1.2.1 1.1-1 .8-1.4-.6-.7-.4-1.2.2-1.5.5-.2.4-.6.5-.9.2-.3-.6-.6.1-.8.3-.1.6.1.8.4.9 1 2.1-.1 3.1.5.3.1-.2-.4 0-.6.4-.5-.3-2.1 1.4-1.4.1 0 1.3.1 1.6-.9-2.7.6-1.9-1-1.3-2.4zm5.3 6.1c-.3.1-.6.9-1 .4-.3-.4-.1-.7.4-.9.4-.2.6-.7.7-1.1.1-.3.8-.7.2-1.1-.4-.2-.9.1-1.1.6-.8 2-2.5 2.8-4.5 3-1.1 0-1.6 1.1-1.3 1.4 1 1.5-.1 2.1-.9 2.9-.3.2-.3.6-.1.8.2.2.8.2.9.1.6-.8 2.2-.5 2.3-2 0-.3.6-1.2 1.3-1 .6.2.7 2.5.1 2.7-1.3.3-1.6 1.6-2.5 2.3q-.1-.2-.3-.3c0-1.1-.4-1.3-1.2-.5-.6.6-.9 1.3-1.4 1.9-.6.9-.4 1.3.3 1.9.3-1.1 1-1.4 2-1.3.8.1 1.4-.3 1.7-1.1.2-.4.4-.8.7-1.1.6-.7 1.7-.8 2.2-.2.4.5-.3 1.1-.9 1.4-.1 0-.2.1-.3.1-.6.5-.6 1.1-.1 1.6.5.6.8.1 1-.4.1-.2.3-.3.5-.3.9-.2 2.3.6 2.3-1.3 0-.1.5-.1.8.1.4.2 1.1.5 1.3-.1.3-.9-.6-.8-1.1-1-.2-.1-.5 0-.5-.5.8-.2 1.1-.8 1-1.6-.2-.8-.2-1.5 1-1.1.5.2.9-.2 1.2-.5.2-.3.2-1 0-1.1-1.9-.3-1-1.5-.9-2.4 1.7 0 2.7.9 2.7 2.5-.1.6.1 1.2-.2 1.8-.2.5.2 1.6.5 1.6.8-.2.9-.2.9.4.1.8.3 1.2 1.2 1.2.8 0 1.3-.3 1.5-1.1.1-.8.5-1.2 1.3-1.4.2 0 .7 0 .6-.5 0-.4-.3-.6-.8-.6-.3 0-.6-.1-.8.5-.4 1.1-.5 1.1-1.3.3-.2-.1-.5-.2-.6-.1-.9.1-.9-.4-1.2-1-.6-1.4-.9-2.7-.5-4.2.1-.5.2-1.1-.3-1.5-.5.3-.3.7-.4 1.1 0 .2-.2.3-.5.3-.2 0-.4-.1-.4-.4.1-.7-.5-1.9 1-1.9.9 0 .3-.6.3-.8-.2-.4-.6-.7-1.1-.5-.4.2-1.1.6-.8 1 .8 1.6-.6 2.1-1.3 3-.9 1.1-2.6 1.2-3.2 2.8-.1.1-.4.2-.7.3-.6.2-.9-.1-1.2-.7-.5-1 .5-.3.6-.5.5-.5 1.1-.9 1.1-1.6.6-.1 1.1 0 1.3-.7.1-.2-.1-.3-.4-.4-.6-.1-.9.3-1.1.8zm-25.6-4.8c.6-.5 1-.3 1.5.3.4.6.9 1.3 1.7 1.1.8-.3 1-1.1.9-1.9-.1-.8.2-1.4.5-2 .1-.4.1-.6-.2-.8-.2-.3-.5-.3-.7 0-.8 1.7-2.9 1.6-3.9 3-.3.1-.4.3-.3.6q.3-.1.5-.3zm58.3 9.7q-.3-.1-.5-.3c-.1.3-.1.5.2.6.4.6-.8 1.3.2 1.9.7.4.4-.9 1.1-.5 0 .2.1.5.1.7-.1.5.1.8.6 1 .3.1.4 0 .5-.1.4-.4.2-.8-.1-1.2-.5-.9-1.1-1.7-2.1-2.1zm-28.9-14.8v-.1.1zm-.7-1c-.7-.1-1 .5-1.4 1.2.8-.4 1.5-.2 2.1-.3.1-.6-.2-.9-.7-.9zm1.6 3.6c.2-1.1.2-2.1-.9-2.6-.3 1-.4 2 .9 2.6zm-13-4c.8.1.7-1 1.5-1.1.3-.1-.1-.5-.4-.6-.3-.1-.7-.6-.8.1 0 .6-.2 1-.6 1.4q-.2.2-.3.5c.3.1.5 0 .6-.3zm24.5 13.8c.4-.5 1.2-.3 1.5-1.1-.9-.2-1.6-.4-1.7.8-.5.1-.2.7-.4.9-.2.2-.4.5-.1.7.1.1.3 0 .4 0 .2-.2.5-.3.2-.6-.2-.3-.1-.5.1-.7zm10.7-8.8c.3.3.6.6 1.2.5 0 0 .1-.1.1-.2-.1-.7-.9-.1-1.1-.5-.5-.3-.3-1.3-1.2-1.2.1.6.1 1.3 1 1.4zm-1-1.4v-.1.2-.1zm-.4-3.3c-.8 2.2-.8 2.2.4 3.2-.1-1.1 1.2-2.3-.4-3.2zM265.7 272q.1-.1.2-.1-.1-.2-.2-.3c-.1-.1-.3-.3-.4-.1-.1.2 0 .5.4.5zm63.9-30.2-.2-.4-.2.2c0 .2.1.3.2.4l.2-.2zM191 253.3c0-.5 1.4-.9.4-1.2-.8-.2-.7-2.8-2.3-.9-.7.8-1.6.3-2.4-.1.7-.6 1.2-1.5 1.5-2.4.3-1 1.2-1.2 2-1.4.5-.1 1.5-.1 1.1 1.2-.7 2.2-.6 2.2 1.8 2 .2-.5-.1-.7-.5-.9-.7-.3-.6-.6-.1-1 1-.7 1.7-1.7 2.4-2.7.4-.6.8-1.6 1.9-.9.3.1.9-.2.8-.4-.2-2.1 1.9-1.7 2.9-2.5.8-.7 1-.9.2-1.7-.5-.6-.9-1.3-1.7-1.6 1.3-.8 1.2-.7 2.2.1.9.8 2.1 1.3 3.1 1.8.6.3 1.1.5 1.3 1 1.4 2.9 3.9 5.2 4.7 8.4.2.9.9.3 1.3.4q.1.2.3.3c-.3.5-.6 1.3.3 1 1.8-.4 3.4.6 5.1.4 1.2-.1 1.1-.7.7-1.3-.8-1-1.8-1.8-3.3-1.4-.6.2-1.2.2-1.4-.6-.2-.8.5-.6.9-.6.5-.1.9-.5 1-.9 0-.2-.5-.4-.9-.5-.5-.1-1-.5-1.5-.7.3-.4.6-.7 1.1-.4.7.4 1.3.8 2.1.1.4-.4 1.7 1.6 1.6 2.3-.1.3-.6.6-.2 1.1.8-.7 1.8-1 2.8-1.2 1.9-.5 2.9.1 3.2 1.9v.2c1 1.9 1.9 3.8 2.9 5.6.3.5 1.3 1.1 1.7.6 1.7-1.8 2.7.2 4 .5.4.2.8.6 1.3.6 2.4-.3 2.6 2 3.7 3.2.3.3 0 .6-.1.6-.8-.1-.9 1.5-2 .9-.7-.5-1.4-.7-2.1.2 0 .2-.2.3-.3.3-.5.3-.8-1.1-1.3-.2-.1.2.5.8.5 1.2-.3 1.2-1.4 2-1.5 3.3-.1.2-.9 0-1.4-.2-.4 1.4.3 2.7 0 4.1-.4 1.9-.4 2-2.2 1.5-.4.5.6 1 .1 1.4-.5.4-.8-.5-1.4-.1 0 .2.1.6.2.8.7.7.1 1.2-.4 1.6-.5.4-1.1.4-1.6-.1-.9-.7-1.8-1.4-2.9-1.6-.1.3-.2.7.1.9.9.5 1.8.9.2 1.9-.4.2.2 1 .6 1.5.4.4.4.7 0 1-1.8 1.3-3.7 2.3-5.8 2.8-.8.1-1.9.4-2.6-.8-.3-.4-1.6-.2-2.5-.2-.5 0-1.1 0-1.2-.5-.2-.7.6-.8 1-1 .8-.3 1.8-.2 2.5.3.5.4 1.2.9 1.5.4.4-.6.9-1.5.5-2.2-.3-.6.1-1.9-1.3-1.8-.4 0-.4-.8-.3-1.2.2-.4.6-.2 1-.1.9.5 1.9-.5 2.9.2.2.1.3-.2.3-.5.1-.2-.1-.3-.3-.5-.5-.4-1.1-.2-1.6-.4 0-.6.3-.8.8-.9.2-.1.5-.2.6-.4.8-1.1.8-1.1 1.8-.6.1-1.4-1-2.2-1.7-3 .7-.6.9.1 1.3.1.3.1.7.4.8 0 .5-1 1-2.1 1.2-3.2.1-.5.1-2.3.2-2.7.3-.6 1-1.1.3-1.9-.6-.5-.6-.6-2.1-.2.4-.7.5-1.4 1.4-1.7 1.3-.4 1.9-2.7 2-4.1.2-1.7-.3-2.3-1.9-2.1-.8.1-.7-1.5-1.6-.8-.8.6.6 1.1.5 1.8-.1.7-.4 1.2-1 1.3-1 .2-2-.1-2.7-.9.4-.6.8-.3 1.1-.4.4-.1 1 .3.9-.5 0-.6-.4-.9-1-.8-.7.2-1.1.3-1.8-.5-1-1.1-3.5.3-3.8 1.8-.1.9-.1 1.9-1.3 2.6-2 1.3-1.7 3.1.3 4.4.1.1.3.3.3.4-.1.2-.3.5-.4.5-1.5-.4-2.6 1.3-4.1 1-.6-.1-1.1.3-.9.8.3 1.2-1 2.2-.1 3.3.1.3-.1.5-.3.7-.5.2-.3-.3-.4-.5-.8-.8-2.1-1.4-2.1-2.9 0 0-1-.7-1.4-.7-2 .5-.9-1.1-.8-1.3.7-2.1-.8-3.8-2.8-3.7-.4 0-.9.2-1-.2-.2-.5-.1-.9.3-1.3 1-1.1 2.1-2 3.9-1-.7-1.3-.2-2.3 1-3.2-1.5-.1-2.6-1.7-3.9 0-.2.3-1.2.4-1.6-.1-.4-.4.3-.8.5-1.2.5-1 1.7-1.8 1.3-3.2-1 .5-1.8 1.1-1.9 2.3-.1.5-.5.8-1 1q-1.6.7-3.3 1.4-.1-.1-.2-.3zm6.4-4.4v-.1.1zm1.9-1c.4-.4 1.1-1 .7-1.3-1.1-.7.1-1.2.1-1.8-1-.4-1.4-.1-1.4.9 0 .7.4 1.2.4 1.9-.7.3-1.7.1-1.7 1.2.9.3 1.2-.7 1.9-.9zm22.9 15.6c.2.8.9 1.6 1.3 1.5 1.2-.6 1.8.1 2.6.7.2.1.6-.1.9-.1.1 0 .1-.4 0-.4-.8-.5-1.6-1.5-2.3-1.3-.9.1-1.6.1-2.5-.4z"/><path fill-rule="evenodd" class="s8" d="M186 239.4c.4-.4 1.5-.3.5-1.4-.5-.6.5-.9 1-1.1-.5-.9-1.2-.3-1.9-.3.4-1.6 2-1.6 3.1-2.4.2-.1 1.1 1.3.9 1.6-1 1.7-1.1 3.9-2.6 5.3-.2.3 0 .6.2.7.5.3 1.3.4 1.3 0 .1-1 .8-1.1 1.4-1.4.4-.2.4-.5.3-.8-.2-1.3.7-1.5 1.6-1.6.7-.1 1.4.1 2-.5.1 0 1 .5 1.2.9.2.6-.4 1.1-.8 1.4-.3.3-1 .4-.6.9.1.3.6.5 1 .6.7.2.5-.5.7-.9.6.8 1.1 1.6 2.2 1.9-2 .3-3.1 1.7-4.4 3-.8.8-1.6.5-1.6-.9.1-.4.1-.8-.5-.7-.7.1-1.1-.1-1.2-.9-.1-.5-.9-.8-1.2-.2-.3.8-1 .5-1.5.8-1.7.9-3-.3-4.5-.7.6-.7 1.6-.5 1.7-1.5.1-.2.5-.5.6-.5 2.2 1 1.3-.4 1.1-1.3zM245.6 264c-.2-2.2.7-4.1 1.5-5.9.3-.7 1-1.7 1.4-2.6.4-.8 1.5-.6 2.1.4.3.5.6 1 1 1.4.5.5 1.2 1.1-.2 1.2-.3 0-.7.4-.5.8.1.3.4.3.7.2 1-.1 2.1.5 2.9-.6.3-.3.6.1.7.4.4.4.3 1.1 1 1.4.5.2 0 .5-.2.6-.9.3-1.8.8-2.7.7-1.1-.1-1.9.4-2.8.9-1 .5-1.9 1-3.1.3-.8-.5-1.1.5-1.8.8zM172.2 246.5c-.5.8-1.3 1.5-.3 2.4.6.7-.2 1-.6 1.2-.3.1-1-.6-1.1.2 0 .6.3 1.5.7 1.8.6.3.6.7.5 1.2-.1.5-.6.1-1 .2h-.1c-2 1.6-4.4 0-6.3 1.1-.5-.2-.3-.4-.2-.5l.3-.3c.1-.2.5-.3.2-.6-.2-.3-.5-.4-.8-.1-.2.2-.4.4-.6.4-.4-.1-.8-.3-.9-.5-.2-.6.5-.7.7-.7.7.1 1.2.2 1.8-.4.2-.3.3.1.4.3.2.4.6 1 .9.5.8-1.4 2.6-1.3 3.3-2.6.2-.4 1-.5.5-1.2-.3-.4-.7-.3-1.2-.1-.6.4-1.3.6-1.8 1.2-.3.3-.7.4-1 .1-.3-.3.2-.6.4-.8.3-.3.4-.6.6-1.1.1-.4-1-1 0-1.2.8-.2 1.6-.5 2.3.2 1.4 1.4 1.4 1.4 2.3-.3.1-.3.3-.7 1-.4zM180.9 251.9c.5-.4 1.2-.2 1.7-.5 1-.5 1.5.2 1.6.8.2.7-.6.7-1.2.7-.3 0-.8-.2-1 .2-.2.4.1.8.4 1 1.1.7-.1 1.5 0 2 .5 1.6-1.1 2-1.6 1.9-1.3-.3-2.5.5-3.8.5-.6-.1-1.4.2-1.5-.8 0-.7.2-1.4.8-1.9.8-.6 1.9-.2 2.4-1 .5-.7 2.7-.8 1.1-2.5-.3-.3.3-1 1.1-.4z"/><path fill-rule="evenodd" class="s8" d="M172.2 252.3c0-.9-.4-1.4.4-1.8.7-.3 1.4-.8.9-1.9-.2-.4.1-.5.5-.7.7-.3 1.5-.1 2.1-.9.1-.3.7-.4.6-.8-.1-.4-.5-.6-.9-.6-1.6.2-1.9-1.5-3-2.2-.1-.1-.2-.6.3-.7.5-.1 1.3 0 1.2.4-.7 1.7 1.1.9 1.4 1.5.9-.7 2-.2 3-.6 1-.4 1.9-.7.8-2-.3-.3-.1-.6.2-.8.5-.4.9 0 1.3.2.4.1.7.3.6.9-.3 1.4-1.2 2.5-1.4 3.9-.1.7-.9 1-1.8.6-.4-.2-.8-.5-1.1.3-.8 2.4-3.3 3.2-5.1 5.2zM180.2 250.6c.6-1.3 1.6-2.1 1.2-3.4-.1-.3.4-.6.8-.6 1.8 0 3 1.3 4.5 2 .3.1.3.6.1.9-.2.3-.6.9-.9.7-1.4-.7-2.5.2-3.7.4-.6.1-1.2 0-2 0zM203.1 272.5c0-.3-.1-.5 0-.7.1-.4-.4-1.1.4-1.1.7-.1.9.5.9 1.1v.3c.1.6 1.2 1.5.2 1.6-.9.1-2.7 1.3-3.1-.7-.3-1.3-1.2-.8-1.6-.6-.6.3-.9.1-1-.3-.2-.8-.4-1.7.5-2.2.3-.2.6-.8 1.2-.3.5.5 1 1.1 1.1 1.8.1.8.7.9 1.4 1.1zM336.6 275.9c-.3.2-.6.5-1 .7-.7.4-2 .3-1.8 1.7l-.1.1c-1.4-.4-2.3.9-3.6.9-.2 0-.4-.1-.6-.1-1.5.3-2-.4-1.6-1.8 2 1.4 3.8 0 5.2-.9 1.1-.6 2.1-.8 3.3-.9q.1.1.2.3zM262.4 275.2c-.4 0-.9.2-1.2 0-.5-.3-.8-.8-1 .3 0 .4-.6.5-1.1.4-.6 0-.4-.5-.4-.8-.1-2.2.5-2.7 2.8-1.8.5-.3-.3-1.6 1-1.4 1 .3 1 1 1.1 1.8l.1-.1c-1.1 0-.8 1.2-1.4 1.7zM264.8 261.3c-.3.8 0 1.6-1.1 1.9-.5.1-.8 1.4-1 2.3-.2.6-.5.9-1 1.2-.2.1-.7 0-.9-.1-.3-.2-.2-.6.1-.9 1.2-1.4.9-3.6 2.4-5 .2-.2.2-1 .8-.8.7.2.5 1 .7 1.4zM295.4 279.9c-.4-.8.8-1.9-.4-2.5-.4-.1-.7-.5-1.1-.2-.4.2-.3.6-.3 1 0 .1.2.3.2.4-.1.6 1 1.4.1 1.7-.8.3-1-.8-1.2-1.4-.2-.7-1.1-1.5-.1-2 .7-.5 1.6-1.2 2.6-.3.1.2.2.3.4.3.5.1 1.2-1.2 1.6-.2.6 1.5-.5 2.5-1.8 3.2zM189.5 259.5c-.2 0-.5-.1-.7-.3-.6-.7-1.1-.4-1.6.1s-1.1 1.1-1.8.6c-.3-.2-1-.7-.7-1.3.2-.4.6-.9 1.3-.8.2 0 .5.1.6 0 1.4-1.1 2.4-1.4 3 .8 0 .1 1.1 0 1.7-.2.4-.1.7-.2.7.2.1.3-.2.5-.6.5h-1c-.3.1-.6.2-.9.4zM171.7 259c-.5-2.2 1.3-2.8 1.9-4.1.4-.9 1.3-.2 1.8.1.7.6-.2.9-.4 1.1-1.4.6-2.3 1.8-3.3 2.9zM327.7 284.1c1.3-1.2 2.1-2.6 3.9-2.6.5 0 .7-.2.9-.6.2-.7.8-.2 1.2-.3.1-.1.3.1.4.2 0 .5-.5.6-.9.8-1.5.8-3.3 1-4.5 2.5-.1.1-.5 0-1 0zM214.2 261.2c0 .9.4 1.8-.6 2-.9.3-1.4 1.9-2.7.9-.3-.2-.6-.4-.5-.8 0-.3.4-.2.6-.2 1.4.1 2-1.1 3.2-1.9zM247.7 263.7c.5 1.1-.6 2 .1 3 .1.2-.9.7-1.4.8-.6-1.6-.9-3.1 1.3-3.8zM186 239.4c-1.3-.3-2.1.6-3 1.1-.3.2-.5.7-1 .4-.4-.3-.4-.8-.3-1.2.2-.7.6 0 .8-.1.6-.2 1.6 0 1.6-.7.2-1 .8-.9 1.4-.8 1 .1-.1 1 .5 1.3zM191.2 253.6c-.1 1.8-1.7 1.5-2.8 1.8-.4 0-.7-.6-.2-1 .6-.4.4-.9.1-1.6 1 .2 1.6 1.9 2.7.5q.1.2.2.3zM208.1 272.7c.5.4 1.1.9 1.6 0 .3-.4.8-.6 1.3-.2.5.5-.1.9-.3 1.1-.4.6-.9 1.4-1.7.9-.5-.3-1.1-.8-.9-1.8zM337.7 282.6c-.5.8-1.6.8-2.1 1.5-.5-.5-1.3-.8-1.1-1.7 0-.1.1-.3.1-.5 1 .5 1.9.2 2.9.3.2 0 .2.2.2.4zM316.9 269.4c-1.5-.2-2.8-.4-4.3.7 1.8-2.9 2.3-3 4.3-.7zM268.1 248.4l-.4.2c-.3.2-.5.9-.8.4-.6-.9-1.9-.8-2.2-1.7-.2-.6.8-.1 1.1-.5.3.8 1.2.7 1.8 1 .3 0 .4.4.5.6zM291.8 276.4c-2.2 1.7-2.2 1.7-1.1 3.4 1.1-.9 1-2.2 1-3.5zM292.9 273.6c1.3-1 1.2-2.5 1.3-4.2 1.2 2.1.8 3.3-1.3 4.2zM211.8 274.4c.5-1.4 1.7-1.6 2.4-2.4.1-.1.5-.1.7.2-.6.2 0 .9-.7 1.1-.7.2-1.4.6-2.4 1.1z"/><path fill-rule="evenodd" class="s8" d="M291.7 276.3c.3-.7 1.3-1.3.8-2.5-.4.9-1.3 1.5-.7 2.6l-.1-.1zM246.2 267.8c0 .5-.2.7-.5.7-.2.1-.1-.2-.1-.4-.1-.4.2-.5.5-.5 0-.1.1.2.1.2zM165.1 251.7l-.2-.2c.1-.1.2-.2.3-.2 0-.1.1.1.2.1q-.1.2-.3.3zM211.6 250.5c.1-.3.3-.3.6-.2q-.2.2-.3.5l-.3-.3zM312.5 240.4l-.2-.2q.2-.1.3-.1-.1.1-.1.3zM296.3 242c-.1.3-.3.4-.6.3q.1-.3.3-.5.1.1.3.2zM329.6 241.8l-.2.2c-.1-.1-.2-.2-.2-.4l.2-.2.2.4zM337 258.5c-.3-.1-.3-.3-.2-.6q.2.2.5.3-.2.1-.3.3zM299.1 261.4q-.3.1-.5.3c-.1-.3-.1-.5.2-.6q.2.1.3.3z"/></g><path fill-rule="evenodd" class="s9" d="M302.8 242.4h.1-.1zm1.4-1.7c.5.1 1.2-1 2-1.2.7-.1 1.6-1 1.3.7 0 .5.9.6.9 1.3.6-.2.5-.7.6-1.1.2-.7.7-1.3 1.3-.3.5.9 1.3-.1 1.8.5h-.1c-.6.5-1.1 1-1.7 1.4-.4.2-.9.4-.7.9.3.6.8.3 1.1 0 .1-.1.3 0 .8 0-1.1.8-1.8 1.9-1.1 2.6.8.8.5 1.3.5 2.2 0 .9-.4 1.2-.9 1.3-1 .3-1.4 1.4-1.3 1.9.6 2.1-1.4 2.4-2.4 3.3-.4.4-1 .7-1.4 1.3-.2.5-.7.8-1.3.9-.3.1-.7 0-.8-.4-.1-.3-.2-.7.3-.7 1.3 0 1.2-1.8 2.5-1.8.2 0 .2-.7-.4-.9-1.3-.3-.7-1-.3-1.6.2-.3.6-.5.7-.9.2-.5.2-1.1.3-1.6-1 0-.3.9-.6 1.1-2 1.3-2.9 4-5.4 4.4-1.2.2-2.2.3-2.5 1.6-.1.2-.3.4-.2.5 1.4 1 .4 1.5-.3 2.2q-1 .8.5 1.5c-.4.8-.7 1.8-1.9 1.1-1.7-.9-2.2-2.5-1.7-3.7.3-1 1.4-1.9.5-3.2-.3-.4-.2-1.1.7-1h1.6c.6 0 1-.2.8-.9-.3-1 .1-1.4 1.1-1.4.2 0 .5 0 .6-.2.3-.3 1.1.2 1-.5-.1-.5-.6-.7-1.1-.6-.2 0-.5 0-.7-.1-.3-.6.2-.8.5-1 .6-.5.2-.8-.2-1.2-.4-.5-.5 0-.8.2-.5.3-.8.8-.9 1.3-.1.8-.6 1.3-1.2 1-1-.4 0-1 .2-1.5.6-1.3 2-2.2 2.2-3.8.2-1.7 1.6-2.7 2.3-4.2.1-.2.5-.4 0-.7-.3-.3-.6-.1-.8.2-.2.3-.3.7-.6.9-.3.1-.8 1.8-1.3-.1 0-.3-.9-.5-1.4-.7-.1.4-.4.8-.4 1.1.1 1-.8 1-1.4 1.3.9 1 1.7.7 2.3-.1.3-.6.6-.5 1-.3.5.3.2.6 0 1-1.1 2.7-3 5.1-5.1 6.8-1.4 1.2-2.2 2.5-2.1 3.9 0 1.2-.7 2-.6 3 .1 1.3-.3 2.2-1.4 2.8-.5.3.1.5.1.8 0 .9-.1 1.6-1.3 1.6 1.8 1.6 1.9 2.1.9 3.1-.3.2-.5.5-.9.4-1.3-.1-1.7 0-2.7.3.1.3.3.3.5.4.7.1 1.7-.5 2.1.6.4 1.1-.3 2-.9 2.6-.8.9-2 1.3-1.5 3.1.1.5-.8 2.2-1.8 3-.6.4-3-.1-3.1-.9-.1-1.3-1.6-1.4-1.8-1.4-1.4-.1-1.8-1.1-2.3-2.1-.3-.5-.6-.3-.9-.3-.4 0-.7.2-.7.7-.1.4.1.7.5.9 2.1 1 2.5 1.6 2.4 3.8 0 .1.1.3.1.4 2.2.4 1 1.3.3 2.1-.2.4-.2 1 .2 1.4.5.4.5.8.1 1.2-.4.5-.6.2-.9-.1-.2-.1-.3-.3-.5-.1-1.7 1.2-4 1.6-5.2 3.5-.2.2-.4.4-.5.6-.3.3-.7.5-1 .2-.4-.4.1-.6.3-.8.2-.5.4-.7-.1-1.5-.8-1.2-2.5-2.6-.7-4.4.1-.2.1-.7-.4-.7-1.6 0-.9-1.2-.8-1.9.4-1.7.1-3.6 1-5.2-.6.1-1 .4-1.1.8q-.5 3.2-1 6.3c0 .4.1.8-.2 1.1-.5.3-.8 1.1-1.5.8-.5-.3-.3-1.1-.2-1.5.8-2.4 1-4.8 1-7.3 0-1 .7-1.9-.5-2.7-.4-.3-.4-1 .2-1.4.5-.5.7.2 1 .4l.9 1.2c.9-1.4.7-3.2 2.8-3.5 1-.2-.1-1.1 0-1.8-.2 1-1.3.9-1.7 1.8-.1.4-.8.1-.8-.6v-5.2c0-1.2 1.5-1.7.9-3 1.1.1 1.4 1.6 2.6.8.2-.1.7.8.6 1-.3.6.2 1.6-.7 1.8-1.4.3-.6 1.2-.7 1.9-.3.8.5.6.9.8 1.2.7.9 2.2 1.6 3.1-1.9 2.1.9 1.1 1.2 1.8-.6-1.7.5-3.8-1.4-5-.1-.1-.1-.6 0-.8.2-.1.5-.1.8-.1.5-.1.7.7 1.3.6.2-1 .3-2-.4-2.9-.8-1-.3-2.6-1.9-3.3-.3-.1-.3-.7-.9-.2-.4.4-.9-.1-1.3-.4-.9-.9-2-1.7-2.6-3-.5.4-.1 1.3-.9 1.2-.6-.1-.7-.6-.7-1.2-.1-1.4-1.9-1.2-2.1-2.6 1.3-.1 1.7 1.3 2.7 1.8.4.2.5.8 1.2 0 .6-.8 1.4.3 2 .8.2-.8-.6-1.8.7-2.4.6 2.3 2.1 4.1 3.8 5.7.5.4.7 1.1.8 1.7.1.5.2 1.1.8 1.1.7 0 .6-.7.6-1.2.1-1.7-.3-3.4.1-5.1.3-1 .8-2 .5-3.1 1.2.6 3-.5 3.5 1.6-2.1-.3-2.4 1.2-2.9 2.7-.2.4.1.6.2.9.3-.2.6-.4.5-.7-.1-.6.3-1 .4-1.4.3-.7.8 0 1.2-.1.4 0 .5.3.3.5-.9 1-.2 1.8.2 2.9-1.6-.8-2 1.1-3.3 1.1-.1 0-.2.7.2 1.1.2.4.8.3 1 .8-.3.5-1.5.7-.9 1.4s1.5 1.2 2.6 1.1c-.7 1.3 0 2.6 1.3 2.9 1.1.2 2.1.5 2.8-.7.5-.8 1.6.4 2-.4.5-1.1-1.1-.1-1.4-1.2-.3-1.4-.7-2.5.5-3.7.2-.3.4-.8.7-.5.7.4 1 .2 1.1-.4 0-.4 1.1-1.1-.2-1.4-.6-.1-.4-1-.2-1.4.4-.6 0-.8-.2-1.1-.4-.5-.9-.1-1.1.1-1.2 1-1.4.6-2.3-.7-1.6-2.1-.6-4-.3-6 .1-.8-.2-2 1.3-.9.2-.7-.8-1.6.6-1.8.5 0 .8-.5.6-1-.2-.4-.7-.2-1.1-.2-.3 0-.6.7-.8 0-.1-.3-.2-.8.4-1.1.5-.2 1-.7 1.3-1.4.1-.2.6-.4.6-.4.8 1 1.5-1 2.3-.2.6-.6 1.3-1.2 1.9-1.9.1-.1-.1-.6.3-.5.4 0 .6.3.7.6 0 .4-.1.9 0 1.3 0 .3-.3.9.3.9.4 0 .5-.5.4-1.1-.2-1.4.6-2.6 2-2.7 1.4-.2 2.8-.1 4.2-.1.4 0 .9.2.8.6 0 .4-.8.7-1 .6-1.2-.6-2.2.4-3.4.2-.1.6.5.9.2 1.4-.1.3-.2.6.2.5 1.6-.6 3.5 1.5 5.1-.5.2-.4 1.7-.7 2.3.3.5.9.6 1.7-.2 2.5-.9 1-.5 1.3.6 1.2.2-.8-.4-2.1 1.4-1.7zm-6.8 19.1h.1-.1zm-26.9 3.1zm30-16.6c2-1 2.7-2.3 2.3-3.9-.8 1.3-1.3 2.8-2.3 3.9zm-14.4 2.9c.1.7-.5 1-.5 1.7.1.2-.3.5.2.4.3 0 .6.6.9.2.2-.2.5-.6.2-.7-1-.3-.3-1.1-.8-1.6zm-1.7 17c-.6.7-.8 1.1-1.1 1.5-.3.5.2.5.5.7.9.8 1.4-.2 2.1-.4.2-.1.2-.5.1-.7-.2-.3-.4.1-.5.1-.7.1-1.3 0-1.1-1.2zm2.9-21.6c-.9.1-.3 1.3-1.1 1.4-1 .2-.7 1.2-1.2 1.7s.2.7.5.9c.3.3.5.1.5-.4.1-.6.4-.7 1-.8.3 0 .9-.3.4-.7-.8-.7-.1-1.4-.1-2.1zm.5-1.5c1.8-.9.4-1.5.1-2.1-1.7 2.3-1.7 2.3 1 3.2.2 0 .4.2.6.2.7.2.9-.1.7-.7-.4-1.3-1.3-.8-2.4-.6zm18.7 2c.9.1 1.8 0 1.2 1.2-.2.6-.2 1.2-.6 1.6-.1.1-.1.6 0 .7.3.3.5 0 .7-.2 1.6-1.2 1.8-3.2.3-5.2-.2-.4-.2-1.3-1.2-.8-.8.3-1.1.8-.7 1.7.4-.3.9-1 1.3-.4.6.7-.4 1-1 1.4zm-.4 2c0-.6.7-1.1.4-1.8-.8.8-.8.8-.4 1.8zM336.7 274.7c.9-.7 1.9-1.4 0-1.8-.3 0-.7-.4-.7-.6-.2-1.5-1.3-1.4-2.2-1.6-.8-.2-.6-.2-.4-1.1.2-1-.8-1.4-1.5-1.8-.3-.3-.9-.3-1.3-.4-.4-.1-.6-.3-.7-.7 0-1.1-.4-1.3-1.9-1 .1.8 1 0 1.3.8-.8.9-2.2.6-3.1 1.2-.3.2-.5.1-.8.2.5 1.9-1.3 1.2-1.9 1.3-1 .3-1.9.9-2.9 1.2-.2.1-.5.4-.7.2-.2-.2-.2-.9-.1-.9 1.4-.5.7-2.1 1.6-2.9.6-.7 2.2-1.1 2.9-.4.2.1.1.5.5.4.2-.1.3-.4.1-.6-.4-.8.9-.8.7-1.6-.4-.2-.8-.2-1.3 0-.5.3-1.1.4-1.4-.2-.2-.5.4-.8.8-1.1 1.3-1 1.6-2.6.6-4.2-.4.5-.3 1.4-1.1 1.6-.6.1-.6.8-.4 1.2.2.5.1.9-.3.8-.7-.1-1.2-.2-1.5.7-.9-1-2.2-.1-3.4-.7.7-.3 1.4-.2 1.5-.8.2-.9-.6-.6-.9-.8-.2-.2-.5-.4-.4-.7.2-.3.4-.5.8-.5s.9.1.8-.6c0-.3.1-.6-.2-.7-.4-.1-.8 0-1.2.2-2.2 1.2-3.4 3.3-5.2 4.9-.3.3-.6.7-.9 1.1-.7-.8 0-1.1.4-1.5.5-.6 1.4-1.3-.3-1.5-.4 0-.4-.2-.4-.5.1-.7.4-.1.6-.1 1.3.1 2.4 0 2.6-1.5.2-1.2 1.8-.6 1.9-1.7-1.9-2.1-1.7 1.1-2.9 1.2-.2-.6-.4-1.2-.7-1.8-.1-.3-.2-1.3-1-.5-.2.1-.4 0-.6-.2-.7-1 .2-2.1-.1-3.2-.2-.5.5-1.1 1.5-.7-.2-.6-.5-.8-.9-.8-.3 0-.4-.2-.4-.5s.1-.4.5-.5c.8-.2 1.1-.5.3-1.3-.6-.6-1.3-1.3.4-1.7.6-.1.1-1 .2-1.6 0-.6-.9 0-1.3-.4.4-1 .9-1.6 2.1-1.7.3 0 .9-.2 1-.7.1-.3-.1-.8.5-.8.3.1.5.1.5.3 0 .5.3 1.1-.2 1.3-.5.3-.7.5-1 1 3.3-.3 1.6 2.7 2.7 4.1.5-1.9-.1-3.5-.4-5.1-.3-1.4.2-2.3 1.2-2.2.9 0 1.2.8 1.3 1.4 0 .7.3 1.4.1 2.2-.2.7 0 1.4.3 2.1q.8 1.9 1.4 3.8c.2.6.6.3.9.3 1.3.1 1.7.7 1.8 2 0 .6.5 1.3 1 1.5.9.4.8 1 .4 1.6-.5.9.1 1.3.6 1.5 1.9.7 3.5 1.7 4.8 3.2.1.1.4.3.4.3 1.2-1.1 2.7.4 3.6-.3 1.4-1 2.3-.9 3.6 0 .9.5.9-.7.8-1.2-.2-.8-1.1-1.7.5-2.1.4-.1.3-1 .1-1.4-.8-1.1-1.3-2.5-2.8-3.2-2.6-1.2-3.7-3.6-4.3-6.3-.1-.4-.3-.6-.7-.8-1-.5-1.3-1.9-.5-2.6.2-.2.4-.3.6 0 .3.5.7.9.8 1.4.9 3.7 3.2 6.4 6.4 8.4.7.5 1.2 1.1 1.6 1.9 1 2.2 2.4 4.3 2.7 6.8.1.8.8 1.3 1.3 1.9 2 2.5 4 5 6.1 7.4 2.2 2.7 5.3 4.1 8.7 4.6 2.1.3 4.2 1 6.4 1.2-.9.5-1.9.4-2.6 1.1-1 1-1 1.6.8 2.2-1.5.5-2.5 1.2-3.8 1 .3 1.8 1.6 2.8 2.8 3.5 1.1.7-4.2-.3-3.8-.6 1.1-.9.1-1.7-.8-2.3-.6-.3-.9-.3-1.3.1-.8.9-2.1.9-3 1.8-.5.5-1.7.3-2.6.8-.5.3-.9.4-.8 1 .1.5.4.7 1.1.5.3-.1 1 .7 1.5 1.1-.4.5-.8 1.1-1.3 1.5-.5.3-.7-.7-1.2-.5.6-1.4-1.1-1.3-1.5-2.1-.3-.7-1-.7-1.6-.3-.8.6-1.3.9-1.3-.4 0-.5-.3-.8-.6-.9-.8-.4-.8-.8-.5-1.5.2-.6.3-1.4-.2-1.4-1.1-.1-2.2-.4-3.4 0-.2.1-.8.1-.7-.1.7-1.4-.6-1.5-1.1-1.9-1.2-.9-1.3-2.5-2.6-3.3-.1-.1-.1-.5 0-.6.7-1 0-1.5-.8-1.8zm-14.5-20.1c-.1 0-.4-.2-.6-.2-.4-.1-.8-.2-1.2.1-.8.6-.8 1.5-1.2 2.2-.1.3-.3.8.3.9.5 0 1.4-.4 1.2-.7-.7-1.1.3-1 .7-1.3.3-.2.5-.3.8-1zm2.2 12.7c-.1-.1-.1-.4-.3-.3-.2 0-.4.2-.4.4.1.1.2.3.3.3.3 0 .3-.2.4-.4zM218.3 269.7c1.1.1 1.8-.1 1.5-1.5 0-.1-.1-.2-.2-.2 2-1.2.1-3.6 1.5-5 .1-.1.2-.5.1-.7-.4-.9-.7-1.7.7-2 .2-.1.5-.8.5-.9-1.5-1.4.2-2.9 0-4.3-.1-1.7-1.2-1.6-1.9-1.7-.7 0-1 0-.9-.7q1.1-.2 1.6-1.2c0-.1-.1-.4-.2-.4-.7.1-1 .8-1.5 1.2q-.1 0-.1.1c-.3.5-.8 0-1.1.2.2-.7-.6-1.6.5-2.1.2 0 .1-.4-.2-.4-.5 0-.9-.2-.7-.8.3-.5.6-.9 1.3-.9.6.1 1.2 0 1.9-.4.1.7.1 1.4.2 2 .5.1.7-.2.9-.6.1-.3-.3-1 .4-.9.6 0 .6.6.6 1 .1 1.3.6 2.3 1.5 3.1.4.4.5.8.5 1.4.1 1.6 1.1 2.6 2.6 3 .4.2.2-.4.5-.6.6-.5.9-1.4 2-.3.8.9 2.3 1.2 3.4 1.7.8.4 1.1-.3 1.6-1 .1 1.2.4 2.1 1 2.9.2.4 1 1 .3 1.5-.5.5-1 1.5-2 .8-.5-.3-1.2-.3-1.4-.1-.8.9-1.3.5-1.9-.2-.1.2-.3.4-.3.5 1 1.6-.5 2.7-.7 4.1-.1.8-.8.5-1.1.4-.8-.5-1-.1-.7.6.4 1.2.3 2.5.2 3.8 0 1.2-.6 1.5-1.5 1.1-.9-.3-1.3-.4-1 .7.1.2.2.3 0 .4h-.5c-.3.2-.9.5-.4 1 .7.8.1 1.2-.4 1.7-.7.7-1.4.1-1.8-.3-.8-.9-1.8-1.2-2.8-1.6-.1 1.2 1 2.3.3 3.6-.1.1 0 .5.2.6 1.5 1.2.3 1.7-.6 2.2-1.3.6-2.6 1.1-3.8 1.8-1 .4-1.3-.3-1.1-.8.5-1-.6-2 .3-2.8-1-.7-.2-1.4-.2-2.1-.2-1.2.3-1.3 1.2-1 .3 0 .8.2 1-.3.1-.5-.2-.8-.6-1-.9-.4-.9-.6-.1-1.2.9-.7.8-.9 2-.2.2 0 .3 0 .7.1-.8-1.1-.8-2.3-1.6-3.1q.1-.1.3-.2zm0-17.1v.1l-.1-.1h.1zm9.1 13.1c0-.5-.3-.7-.5-.9-1.2-1.1-2.8-.7-4.2-1.3-.2-.1-.5 0-.5.2-.1.3-.1.6.3.8 1.3.7 2.8.8 4.2 1.3.2 0 .5-.1.7-.1zM193.8 251.1c.1-1.1-.8-1.3-1.5-1.9 1.5-.7 1.9-2.3 3-3.4.2-.2.3-.6.5-.6 2.3.4 2.7-2.6 4.7-2.9.4 0 .8-.3 1.1-.7.6-.8 1.1-1.5 2.3-.4.3.3 1.7 0 1.9 1 .6 2.9 3.4 4.4 4.2 7 .5 1.5 1.8 2.1 2.6 3.3-.6.3-1.6.2-1.7 1.3 0 .2-.8.6-.9.5-1.2-1.1-1.2.3-1.6.7-.7 1-3.3 1.9-4.3 1.3-.7-.4-1.3-.1-1.7.1-.6.3 0 .9.1 1.3.7 1.5.2 1.7-1.4 2-1.2.3-1.8-.1-2.7-.7-.2-.2-.7-.1-1.1-.1-.4.1-1 .7-1.3.1-.3-.6.4-1 .8-1.4.8-.8 1.4-1.9 2.8-1 .2.1.8 0 .6-.3-1-1.5 1.2-1.9.9-3.2-.4-.4-1.4.3-1.8-.7-.1-.3-1.1 0-1.5.5-.3.5-.7.9-1.3.7-.5-.1-1.1-.1-.5-.8.7-1 1.5-1.9 1.7-3.2.1-.5.9-.9 1.4-1.2.9-.4 1.5-1 .9-2-.2-.4 0-.6.2-.8.5-.4.4-.8-.1-1-.5-.3-.8.2-1.2.5v.3c.1 1.2 0 2.2-1.2 3-1 .7-1.9 1.7-2.4 3-.4 1.3-3.3 1.4-4.2.4-.2-.2-.4-.6-.3-.9 0-.3.4-.2.7-.2.8 0 1.6-.1 2.3.4zM309.1 265.3c-.4.1-.6.2-.7.1-1.9-1-3.4-.3-4.7 1.2-.3.3-.8.3-1 .1-.6-.4-.9.1-1.1.4-.4 1.1-1.5 1.5-2.1 2.4-.7 1.1-1.6.4-2.8-.1 2-.7 2.9-2.3 4.4-3 .7-.4 1-1.7 2.4-1.3-.2-.4-.3-.5-.3-.7-.2-.3-.9-.2-.7-.7.1-.5.5-.6 1-.6.7 0 1.5.4 1.7-.8 0-.6.6-.1 1-.1.5-.1 1.5.1 1.1-.7-.6-.9-.4-1.8-.6-2.7-.2-.7-.1-1 .7-.9 1.1 0 1.7-.3 1.6-1.4-.1-.5-.1-.9.6-.9.8 0 .7.5.7 1 0 1.5-.1 3.1 0 4.7 0 .9-.6 1.8-1.2 2.1-1.7.6-.7 1.1 0 1.9z"/><path fill-rule="evenodd" class="s9" d="M331.5 249.3c-.3.6-.9 1.4-.3 2.4-1.1.3-1.3 1.7-2.4 1.9-.2.1-.5 0-.5-.2.2-1.2-.9-1.8-1.2-2.7-.1-.4-.2-1-.1-1.3 1-2 .5-3.6-.8-5.2-.7-.9-1.1-1.9-1.5-2.9-.2-.5.1-.9.6-1.1.3-.1.7-.5 1 .2 0 .1.1.4.1.4 3.1-1.1 1.9 1.7 2.1 2.6.5 1.8 1.1 3.2 2.5 4.3.4.3.7.7.5 1.6zM197.3 242.4c-.5.6-1 .8-1.6.8-.8-.1-1.4-.1-1.5 1.2 0 .7-1.2.9-1.8 1-.7 0-.4-.8-.2-1.1.2-.5.7-.8 1.1-1.2.2-.3.6-.5.2-.9-.5-.6-.6 0-.9.2-.2.2-.4.5-.6.7-.9.8-1.2 1.1-2.2-.2-1.2-1.4-.4-1.7.4-2.3.2-.2.2-.5.2-.7-.2-1.2.7-1.4 1.6-1.6.5-.2 1.1 0 1.7-.2.3-.1.8.4 1.2.7 0 0-.3.6-.5.8-.5.4-1.5.7-1 1.4.5.8 1.7 1.2 2.5 1 .7-.2.9.5 1.4.4zM252.3 261.7c-1.9 1.6-4.1 2-6.5 1.4 0-1.3.5-2.5 1.3-3.8.1-.2-.2-.8-.3-1.3 3-.5 3.8 2.3 5.5 3.7zM175.4 245.3c1.1-.2 1.3-1 2-1.2.5.3 0 .9.4 1.3.7-.4.9-1.3 2-1.4.7 0 .6-1.2.3-1.6-.3-.4-.8-.6-.1-1 .6-.5 1.3 0 1.4.4.3.6.4 1.5-.1 2.1-.6.7-1 1.4-1.1 2.3-.2.6-.8 1.4-1.7.6-.5-.5-1.1-.1-1.1.2-.6 2.3-2.9 3-4.1 4.6-.3.3-.5.4-.8.1-.3-.4 0-.7.2-.8.8-.5 1.7-.8 1.1-2.1-.3-.6.7-.9 1.3-1 .4 0 .5.2 1-.1 1.8-1.2.7-1.7-.7-2.4zM183.8 243c.6-1 .8-2.4 2.5-1.8.4.1.7-.4.5-.6-1-.8 1.2-1.7-.1-2.7-.2-.1 1-.3 1.8-.3-.6-.8-1.1-1.4-1.9-1.4.2-1.2 1.5-1.1 2.3-1.6.5-.4.3.7.8.8.4.1.4.3.1.6-1.1 1.2-1.3 2.8-1.7 4.3-.1.3 0 .5-.4.6-1.1.4-.8.9 0 1.4.4.2.9.3.7.9-.3.7-.7-.1-.8 0-1.3 1.2-2.5.1-3.8-.2zM292.8 260.9c1.9 0 2.4.5 2.4 2.4v.3c1.6 1.4-.2 2.7 0 4.1 0 .6-.7.4-1 .3-.5-.1-.4-.7-.1-.9.9-.9.3-1.4-.4-1.9-.6-.5-1.4-.6-1.1-1.7 0-.1-.2-.3-.3-.3-.7-.1-1.7.2-1.3-1.1.3-.9.8-1.5 1.8-1.2zM185.6 250c-1.3-.7-2.6.7-4 .5-.2 0-.5.3-.8 0-.4-.5.2-.5.3-.8.2-.7 1.3-1.1.5-2.2-.3-.4.7-.6.7-.6 1.6.6 3.3.8 4.5 2 .2.2.4.4.3.7-.4.5-.9.5-1.5.4zM291.4 266.1c.2.1.8-.2.8.3 0 .6-.2 1.9-.4 1.9-1.1 0-1.4 1.2-2.3 1.4-.3.1-.6.5-1 .3-.5-.4 0-.8.2-1 .7-.7-.1-2.2 1.3-2.6.4-.1.8-.4 1.4-.3zM179.7 252.1c1.3-.2 2.4 0 3.4-.4.4-.2 1 .1 1 .7 0 .4-.3.5-.8.6-.4.1-.7-.8-1-.1-.3.6 0 1.1.5 1.5.7.6.4 1-.2 1.2-.3.1-.7.1-.7-.4 0-.9-.7-.5-1.1-.5-.3 0-.6.6-.9 0-.1-.3.1-.6.3-.9.6-.7.6-.8-.5-1.7zM215.9 248.1c.1-.5-.2-.6-.2-.9-.2-.5 0-.9.4-1 .4-.2.7.2.8.6.3.6 1 1 .6 1.8-.3.7-.5 1.6-1.6.9q-.1 0-.3-.1c-.7-.2-1.6.4-2.2-.5.8-.2 1.2-1.6 2.3-.7.1 0 .2-.1.2-.1zM327.5 277.6c1.8 1.3 3.7.1 5-.7 1.2-.7 2.4-.9 4-1.5-1.4 1.3-3.1 1.2-3.7 2.7-1.7-.5-2.7 2-4.6.8-.7-.4-.9-.2-.7-1.3zM321.5 240.9c.7.6 1.2 1.5 1.4 2.5.1.3-.3 1 .1 1.5 0 .2-.2.7-.5.8-.7.4-1-.5-1.6-.7-.3 0-.5-.3-.2-.7.6-.7.9-1.5.1-2.4-.2-.2-.4-1 .7-1zM218.2 252.6c0 .4.3.7.3.9.1.6 1.3 1 .3 1.7-.8.6-1.7.5-2.6.2-.2-.1-.3-.4-.6-.7.3 0 .5 0 .7-.1.5-.1 1.3.5 1.3-.6s-.9-.5-1.3-.7c-.5-.1-1.2.6-1.3-.3 0-.8.8-.7 1.4-.6.6 0 1.2.2 1.9.3zM177.8 258.7c-.3-1-2 .3-1.8-1.2.1-.9.5-2 1.8-1.9 1 .1 1.1 1.3 1.7 1.9-.6.4-1.1.8-1.7 1.2zM254.5 261.5c-.9.1-2.1-.3-2.1-1.1s1.4-.7 2.1-1.2c.1-.1 1.7 1.7 1.6 1.9-.3.6-1 .4-1.6.4zM313.4 242.8c-.4 0-1 .2-.8-.5.3-1 .8-2 2-2.2.4 0 1.2.1 1.2.9.1 1-1 1.8-2.4 1.8zM297.5 259.8c.3-.2.4-.9 1-.7.9.3 1.3-.5 1.2-1-.1-1 1-.8 1.1-1.6.1-.4.4 0 .4.1.6 1 .1 2.6-.9 2.9-.9.3-.8 1.1-1.4 1.6 0-1.1-.7-1.3-1.5-1.3zM172 258.6c-.4-1.9 1.7-2.3 2-3.7.2-.7.9.1 1.3.3.4.1.5.7.1.8-1.5.5-2.2 1.8-3.4 2.6zM299.2 263c1.9-2.2 1.9-2.2 3.5-2.1.1.6-.2.8-.7 1-.3.1-.8.3-.8.5 0 2.7-1.2.9-2 .6zM190.3 247.7c.5.1 1.3-.1 1 .6-.3.7.2 2-1 2-.7 0-1.4-1-1.5-1.6-.1-1.1 1.2-.4 1.5-1zM210.6 263.3c1.6-.2 1.6-.2 3.5-1.4-.4 1.8-2 2.6-3.5 1.4zM302.9 236.4c-.1.3 0 .8-.4.7-.6-.1-1.2-.4-1.4-.8-.2-.3.1-1 .9-1 .7 0 .7.6.9 1.1zM166 250.6c.4-1.3 1.5-1.9.8-3-.1-.2 0-.5.3-.5s.6.3.6.5c.4 1.3 0 2.3-1.7 3z"/><path fill-rule="evenodd" class="s9" d="M330.7 243.2c-.4-.6-.9-1-1.3-1.4-.3-.2-.6-.4-.4-.8.2-.3.5-.5.8-.4q.7.1.8.7c.1.6-.2 1.2.1 1.9zM218 269.9q-.2-.2-.3-.5c.3-.1.5 0 .6.3q-.2.1-.3.2zM300.6 237.3q-.2.1-.3.2c-.1-.1-.2-.2-.2-.3.1-.2.2-.3.3-.2.1 0 .1.1.2.3zM312.1 240.6q-.1-.1-.2-.3.1 0 .2-.1-.1.2-.1.4h.1z"/></g><g clip-path="url(#cp4)"><path fill-rule="evenodd" class="s9" d="M380 196.1c.1.9.3 1.3.4 1.4h-1c-.2-.1-.3-.7-.4-1.4-.1-.8-.5-1.1-1.3-1.1h-.6v2.5h-.9v-5.8c.4 0 .9-.1 1.6-.1.9 0 1.5.2 1.8.4q.5.4.5 1.2c0 .8-.5 1.3-1.1 1.5.5.1.9.6 1 1.4zm-.8-2.8c0-.5-.4-1-1.4-1q-.5 0-.7.1v1.9h.7c.7 0 1.4-.2 1.4-1z"/><path fill-rule="evenodd" class="s9" d="M382.8 194.6c0 2.9-2.2 5.2-5.1 5.2-2.8 0-5.2-2.3-5.2-5.2 0-2.9 2.4-5.3 5.2-5.3 2.9 0 5.1 2.4 5.1 5.3zm-.9 0c0-2.5-1.9-4.4-4.2-4.4-2.3 0-4.2 1.9-4.2 4.4 0 2.4 1.9 4.4 4.2 4.4 2.3 0 4.2-2 4.2-4.4z"/><path class="s9" d="M210.8 125.9c0 .4.1 3.9 0 7.4 0 7.4 4.1 6.7 4.1 6.7h13.6c2.7-.1 5 1.3 5.1 4.9.2 4.7-1.6 6.8-5.1 6.6h-12c-2.7-.2-4.1 1.2-4.8 2.5-.6 1.1-.6 3.4-.6 3.4v2.7h.1V198l-.1.1c.1 13.7 6.4 11.2 7.9 14.4 1.2 2.3-1.7 4.7-3.7 4.7-4.8 0-8.5-.1-17.9-.1H193c-9.4 0-13.1.1-17.9.1-2 0-4.9-2.4-3.8-4.7 1.6-3.2 7.9-.7 7.9-14.4V156.8s-.3-5.1-4.9-5c-.8.1-3.2 0-3.2 0-3.8.2-5.8-1.1-5.8-3.6s2.3-5 6.3-6.3l4.1-1.3s3.4-.7 3.3-3.9c-.1-3.5.1-9.2.2-9.7 1.7-13.1 6.6-22.9 14.8-29.6 10.6-8.5 23.7-10.4 32.7-10.4 9.8 0 20.5 5 20.5 12.2 0 8.1-6.2 14.9-10.8 14.9-3.8 0-8-2.8-10.1-6.1-2.6-3.9-4.6-9.3-7.6-9.3-5 0-8.6 4.2-7.9 27.2zM329.5 114.8c-2.4-8.3 3.2-17 12.8-19.9 9.7-2.9 19.2 1.3 21.7 9.5 2.4 8.3-3.2 16.9-12.9 19.8-9.7 2.9-19.1-1.2-21.6-9.4zM371.7 212.5c1.1 2.3-1.8 4.7-3.8 4.7-4.8 0-6.4-.1-15.8-.1h-4.5c-9.3 0-13 .1-17.8.1-2 0-4.9-2.4-3.8-4.7 1.6-3.2 7.9-.7 7.9-14.4v-35.2h.1v-.5c0-3.9.4-8.4-3.3-10-3.8-1.6-4.9-2.4-4.9-5 0-3.5 2.2-3.7 14.2-8.9 10.9-4.6 13.1-10.5 20.3-10.1 2.1.1 3.7 1.9 3.7 4.3 0 2.5-.2 9.4-.2 20.4V198.1c0 13.7 6.3 11.2 7.9 14.4zM118.3 114.8c-2.5-8.3 3.1-17 12.8-19.9 9.7-2.9 19.1 1.3 21.6 9.5 2.5 8.3-3.1 16.9-12.8 19.8-9.7 2.9-19.1-1.2-21.6-9.4zM158.4 212.5c1.1 2.3-1.8 4.7-3.8 4.7-4.8 0-6.4-.1-15.8-.1h-4.4c-9.4 0-13.1.1-17.9.1-2 0-4.9-2.4-3.8-4.7 1.6-3.2 7.9-.7 7.9-14.4v-35.2h.1v-.5c0-3.9.4-8.4-3.3-10-3.8-1.6-4.9-2.4-4.9-5 0-3.5 2.2-3.7 14.3-8.9 10.8-4.6 13.1-10.5 20.2-10.1 2.1.1 3.7 1.9 3.7 4.3 0 2.5-.2 9.4-.2 20.4V198.1c0 13.7 6.3 11.2 7.9 14.4zM321.4 143.9c0 10.4-10.6 15.8-16.5 15.8-12.2 0-14.7-11.4-20.2-11.1-2.9.1-5.4 3.6-6.1 13.5l.1 13.2h-.1v22.8c0 13.7 6.3 11.2 7.9 14.4 1.1 2.3-1.7 4.7-3.7 4.7-4.9 0-6.5-.1-15.8-.1h-4.5c-9.4 0-13.1.1-17.9.1-2 0-4.9-2.4-3.7-4.7 1.5-3.2 7.9-.7 7.9-14.4l-.1-.1v-35.1h.1v-.5c0-3.9.5-8.4-3.3-10-3.8-1.6-4.9-2.4-4.9-5 0-3.5 2.2-3.7 14.3-8.9 10.8-4.6 13.1-10.5 20.3-10.1 2 .1 3.6 1.9 3.6 4.3v.6l.1 6.9c4.4-4.6 15.1-10.3 21.2-11.9 8-2.2 21.3.4 21.3 15.6z"/></g><g clip-path="url(#cp5)"><path class="s0" d="M84.7 289.3s24.6-19.3 100.1 21.3c0 0 77.3 41 153.4 4.4l-92.8 48.2-94.5-15.1s-80.2-29.3-80.2-31.3c-.1-2 14-27.5 14-27.5z"/><path d="M246.9 334.4q2.2.2 4.6.4c-14.8.9-30.1.7-45.8-1-47.2-5.2-88.5-22.1-117.4-45.5 5.8-.6 11.7-.7 17.7-.2h.1c23.7 2.1 45.1 13 65.7 23.6 4.3 2.2 8.4 4.3 12.5 6.3 18.3 9 38.8 14.3 62.6 16.4z" style="fill:#14ab39"/><path d="M246.9 334q3.6.3 7.4.5-.6.1-1.3.2c-23.8-1.5-46.8-6.2-68.5-16.8-28.5-14-60.1-34-96.4-29.7l-.2-.2c5.9-.8 11.9-.8 18.1-.3 24.1 2.1 45.5 13.1 66.2 23.7 4.4 2.2 8.4 4.3 12.5 6.3 18.2 8.9 38.5 14.2 62.2 16.3z" style="fill:#c3e5f9"/><path class="s5" d="M106 288.1h.1c23.7 2.1 45.1 13 65.7 23.6 4.3 2.2 8.4 4.3 12.5 6.3 18.3 9 38.8 14.3 62.6 16.4q2.2.2 4.6.4.7-.1 1.5-.1c-23.8-1.5-46.8-6.2-68.5-16.8-28.5-14-60.1-34-96.4-29.7q.1 0 .2.1c5.8-.7 11.7-.7 17.7-.2z"/><path class="s12" d="M70 319.7v-.4zM70 319.7v-.4l.1-.1z"/></g></svg>