<?xml version="1.0" encoding="utf-8"?>
<!-- Generator: Adobe Illustrator 24.1.2, SVG Export Plug-In . SVG Version: 6.00 Build 0)  -->
<svg version="1.1" id="Layer_1" xmlns="http://www.w3.org/2000/svg" xmlns:xlink="http://www.w3.org/1999/xlink" x="0px" y="0px"
	 viewBox="0 0 720.1 154.9" style="enable-background:new 0 0 720.1 154.9;" xml:space="preserve">
<style type="text/css">
	.st0{fill:#006CAF;}
	.st1{fill:#2FA27F;}
</style>
<g id="Groupe_68" transform="translate(0 0)">
	<g id="Groupe_33" transform="translate(0 0)">
		<g id="Groupe_3" transform="translate(0 8.258)">
			<g id="Groupe_1" transform="translate(167.596)">
				<path id="Tracé_1" class="st0" d="M47.4,110.1c-11.6,0-20.7-3.4-27.3-10.2c-6.6-6.8-9.8-16.1-9.8-28c0-12.2,3-21.8,9.1-28.8
					c6.1-7,14.4-10.5,25.1-10.5c9.9,0,17.7,3,23.4,9c5.7,6,8.6,14.2,8.6,24.7v8.6H26.6c0.2,7.3,2.2,12.8,5.9,16.7s8.9,5.8,15.6,5.8
					c4.1,0,8.3-0.4,12.3-1.2c4.2-1,8.3-2.4,12.3-4.2V105c-3.7,1.8-7.7,3.1-11.8,3.9C56.5,109.7,51.9,110.1,47.4,110.1z M44.4,44.7
					c-5,0-9.1,1.6-12.1,4.8c-3,3.2-4.9,7.9-5.4,14h33.9c-0.1-6.2-1.6-10.8-4.5-14C53.5,46.3,49.5,44.7,44.4,44.7L44.4,44.7z"/>
				<path id="Tracé_2" class="st0" d="M143.6,108.7h-16V62.6c0-5.7-1.1-10-3.2-12.8c-2.2-2.8-5.5-4.2-10.1-4.2
					c-6.1,0-10.6,2-13.5,6c-2.9,4-4.3,10.6-4.3,19.9v37.2H80.6V34h12.4l2.2,9.8h0.8c2.1-3.6,5.3-6.5,9-8.2c4.1-2,8.5-3,13-2.9
					c11.5,0,19.1,3.9,22.8,11.8h1.1c2.2-3.7,5.5-6.7,9.3-8.6c4.3-2.1,9-3.2,13.8-3.1c8.9,0,15.4,2.3,19.5,6.8s6.1,11.4,6.1,20.6
					v48.7h-15.9V62.6c0-5.7-1.1-10-3.3-12.8c-2.2-2.8-5.6-4.2-10.2-4.2c-6.2,0-10.7,1.9-13.6,5.8c-2.9,3.9-4.3,9.8-4.3,17.7V108.7z"
					/>
				<path id="Tracé_3" class="st0" d="M237,110.1c-9.5,0-16.8-3.4-22-10.2H214c0.6,6.3,0.9,10.1,0.9,11.5V142h-15.9V34h12.8
					c0.4,1.4,1.1,4.7,2.2,10h0.8c5-7.6,12.4-11.4,22.3-11.4c9.3,0,16.6,3.4,21.8,10.1c5.2,6.8,7.8,16.2,7.8,28.5
					c0,12.2-2.6,21.7-7.9,28.6C253.7,106.7,246.3,110.1,237,110.1z M233.2,45.6c-6.3,0-10.9,1.8-13.8,5.5c-2.9,3.7-4.4,9.6-4.4,17.7
					v2.4c0,9.1,1.4,15.7,4.3,19.8s7.6,6.1,14.1,6.1c5.1,0.2,10-2.4,12.7-6.8c3-4.5,4.5-10.9,4.5-19.3c0-8.4-1.5-14.7-4.4-19
					C243.2,47.8,238.9,45.6,233.2,45.6L233.2,45.6z"/>
				<path id="Tracé_4" class="st0" d="M287.4,108.7h-15.9V3.6h15.9V108.7z"/>
				<path id="Tracé_5" class="st0" d="M362.5,71.2c0,12.2-3.1,21.7-9.4,28.6c-6.3,6.8-15,10.3-26.2,10.3
					c-6.5,0.1-12.9-1.5-18.5-4.7c-5.4-3.2-9.7-7.9-12.4-13.6c-3-6.4-4.5-13.5-4.3-20.5c0-12.1,3.1-21.6,9.3-28.4
					c6.2-6.8,15-10.2,26.3-10.2c10.8,0,19.4,3.5,25.7,10.4C359.4,50,362.5,59.4,362.5,71.2z M308.1,71.2c0,17.3,6.4,25.9,19.1,25.9
					c12.6,0,18.9-8.6,18.9-25.9c0-17.1-6.4-25.6-19.1-25.6c-6.7,0-11.5,2.2-14.5,6.6C309.6,56.7,308.1,63,308.1,71.2L308.1,71.2z"/>
				<path id="Tracé_6" class="st0" d="M366,14.2c-0.2-2.4,0.7-4.8,2.3-6.6c1.8-1.6,4.2-2.5,6.7-2.3c2.4-0.1,4.7,0.7,6.5,2.3
					c1.6,1.8,2.5,4.1,2.3,6.6c0.1,2.4-0.7,4.7-2.3,6.4c-1.8,1.6-4.1,2.5-6.5,2.3c-2.4,0.2-4.8-0.7-6.7-2.3
					C366.7,18.9,365.9,16.5,366,14.2z M382.8,108.7h-15.9V34h15.9V108.7z"/>
				<path id="Tracé_7" class="st0" d="M422.9,97.3c3.9,0,7.9-0.6,11.6-1.8v12c-2.2,0.9-4.5,1.5-6.8,1.9c-2.8,0.5-5.7,0.8-8.6,0.8
					c-15.1,0-22.6-7.9-22.6-23.8V46h-10.2v-7l10.9-5.8l5.4-15.8h9.8V34h21.3v12h-21.3v40c0,3.8,1,6.7,2.9,8.5
					C417.4,96.4,420.2,97.4,422.9,97.3z"/>
				<path id="Tracé_8" class="st0" d="M438.1,14.2c-0.2-2.4,0.7-4.8,2.3-6.6c1.8-1.6,4.2-2.5,6.7-2.3c2.4-0.1,4.7,0.7,6.5,2.3
					c1.6,1.8,2.5,4.1,2.3,6.6c0.1,2.4-0.7,4.7-2.3,6.4c-1.8,1.6-4.1,2.5-6.5,2.3c-2.4,0.2-4.9-0.7-6.7-2.3
					C438.8,18.9,438,16.5,438.1,14.2z M454.9,108.7H439V34h15.9V108.7z"/>
				<path id="Tracé_9" class="st0" d="M493.9,110.1c-11.3,0-19.9-3.3-25.8-9.9c-5.9-6.6-8.8-16.1-8.8-28.4c0-12.6,3.1-22.2,9.2-29
					c6.2-6.8,15-10.1,26.7-10.1c7.3-0.1,14.6,1.4,21.3,4.4l-4.8,12.8c-6.7-2.6-12.3-3.9-16.6-3.9c-12.9,0-19.4,8.6-19.4,25.7
					c0,8.4,1.6,14.7,4.8,18.9c3.2,4.2,7.9,6.3,14.2,6.3c7,0,13.9-1.8,20.1-5.3v13.9c-2.8,1.7-5.9,2.9-9.1,3.6
					C501.8,109.8,497.9,110.2,493.9,110.1z"/>
				<path id="Tracé_10" class="st0" d="M519.5,100.3c0-3.3,0.9-5.8,2.6-7.6s4.2-2.6,7.4-2.6c3.3,0,5.8,0.9,7.5,2.7
					c1.8,2.1,2.7,4.7,2.6,7.5c0.1,2.8-0.8,5.5-2.6,7.6c-1.7,1.9-4.2,2.8-7.5,2.8c-3.2,0-5.7-0.9-7.4-2.8
					C520.3,105.8,519.3,103.1,519.5,100.3z"/>
			</g>
			<g id="Groupe_2" transform="translate(0 10.09)">
				<path id="Tracé_11" class="st1" d="M138.9,59.1c-0.2-0.8-0.5-1.6-0.9-2.4c-0.3-0.8-0.7-1.5-1.2-2.2c-0.4-0.7-0.9-1.3-1.5-2l0,0
					c-0.2-0.3-0.4-0.5-0.7-0.8c-0.3-0.4-0.7-0.7-1-1c-0.3-0.3-0.6-0.5-0.9-0.8c-0.1-0.1-0.2-0.1-0.3-0.2c-0.2-0.2-0.4-0.3-0.6-0.5
					c-0.6-0.5-1.3-0.8-1.9-1.2c-0.3-0.2-0.7-0.3-1-0.5c-0.2-0.1-0.4-0.1-0.6-0.2c-0.2-0.1-0.3-0.1-0.5-0.2c-0.7-0.2-1.3-0.3-2-0.4
					l-17.1-1.3l7.9-11.5c0.7-1,1.1-2.2,1.2-3.4c0.1-0.7,0-1.3,0-2c0-0.2-0.1-0.4-0.1-0.6c-0.1-0.5-0.2-1-0.3-1.5
					c-0.1-0.3-0.2-0.7-0.3-1c-0.1-0.3-0.3-0.7-0.4-1v0l0,0c0,0,0-0.1,0-0.1c-0.1-0.3-0.3-0.6-0.5-0.9c-0.2-0.3-0.4-0.7-0.6-1
					c-0.4-0.7-0.9-1.4-1.4-2c-0.5-0.7-1.1-1.3-1.7-1.9l-0.9-0.8l-1-0.7l-1-0.6c-0.3-0.2-0.7-0.4-1-0.6c-0.4-0.2-0.9-0.4-1.3-0.6
					l-0.8-0.3l-1-0.3c-0.4-0.1-0.7-0.2-1.1-0.2l-1-0.1c-0.3,0-0.6,0-0.9,0c-0.6,0-1.2,0.1-1.8,0.3c-0.6,0.2-1.1,0.4-1.5,0.7
					l-0.7,0.5L98,16.3L85,31.5l1,0.9l8.4,7.8l4.5,4.2c0.8,0.8,1.6,1.6,2.4,2.5c0.7,0.8,1.3,1.7,1.9,2.7c0.6,0.9,1.1,1.9,1.5,2.9
					c0,0.1,0.1,0.1,0.1,0.2l0.5,1.2c0.2,0.5,0.4,0.9,0.5,1.4c0.1,0.2,0.2,0.5,0.2,0.7L106,56l0,0.1l0,0.1l0,0.1
					c0,0.1,0.1,0.2,0.1,0.3l0,0.2c0,0.1,0.1,0.3,0.1,0.4l0,0l0,0.1c0,0.2,0.1,0.3,0.1,0.5v0l0,0c0,0.1,0,0.1,0,0.2
					c0.2,1.1,0.3,2.1,0.3,3.2c0,1.1-0.1,2.1-0.3,3.2c-0.2,1.1-0.5,2.2-0.9,3.2c-0.4,1-0.9,2-1.5,2.9l-2.1,3.1l-6.3,9.4l-1,1.5
					l25.7,23.2c0.7,0.6,1.5,1.2,2.2,1.7l1.2,0.7l1.2,0.5c0.8,0.3,1.6,0.5,2.4,0.6l1.2,0.1l1.2-0.1c0.7-0.1,1.4-0.3,2.1-0.5
					c0.7-0.3,1.3-0.6,1.8-1.1c0.3-0.2,0.6-0.5,0.8-0.7l0.7-0.8l0.6-1l0.5-1.1c0.2-0.4,0.3-0.8,0.4-1.2c0.1-0.4,0.3-0.8,0.3-1.2l0,0
					c0.1-0.4,0.1-0.8,0.2-1.3c0.1-0.4,0.1-0.9,0.1-1.3s0-0.9,0-1.3c0-0.1,0-0.2,0-0.2c0-0.4-0.1-0.7-0.1-1.1v0l-0.1-0.5
					c0-0.3-0.1-0.6-0.1-0.8c-0.1-0.5-0.2-0.9-0.3-1.3c-0.2-0.7-0.5-1.5-0.8-2.2c0-0.1-0.1-0.3-0.2-0.4l0,0v0c0,0-0.1-0.1-0.1-0.1
					c-0.3-0.8-0.8-1.6-1.2-2.4c-0.4-0.7-0.9-1.4-1.4-2.1c-0.1-0.1-0.1-0.1-0.2-0.2l0,0l0,0c-0.6-0.7-1.2-1.4-1.9-2.1l-16.6-15.3
					l18.4,0.1c0.7,0,1.3-0.1,1.9-0.2l0,0c0.1,0,0.2-0.1,0.3-0.1c0.5-0.1,0.9-0.3,1.4-0.6c0.5-0.3,0.9-0.7,1.3-1.1v0
					c0.4-0.4,0.7-0.9,1-1.5c0.3-0.5,0.5-1.1,0.6-1.7l0-0.1h0v0c0.2-0.7,0.2-1.3,0.3-2C139.6,62.1,139.4,60.5,138.9,59.1z"/>
				<path id="Tracé_12" class="st0" d="M100.9,58.9l-0.1-0.2l0-0.2l0-0.2l0-0.2l-0.1-0.2l0-0.2l-0.1-0.2l0-0.2c0,0,0-0.1,0-0.1
					l0-0.1l0-0.1l0-0.1l0-0.1v0l0,0l0,0c-0.1-0.4-0.2-0.8-0.4-1.2l0,0l-0.5-1.2c-0.3-0.8-0.7-1.5-1.2-2.2c-0.4-0.7-0.9-1.4-1.5-2.1
					c-0.6-0.7-1.1-1.3-1.8-1.9l-4.6-4.2l-8.4-7.8L52.3,9l-0.6-0.6L51,7.9l-0.7-0.5l-0.7-0.5L49,6.5L48.3,6l-0.8-0.4l-0.8-0.4L46.1,5
					l-0.6-0.2l-0.6-0.2l-0.6-0.2l-0.6-0.2L43.1,4l-0.6-0.1l-0.6-0.1l-1.4-0.2l-1.4-0.1l-1.3,0.1l0,0c-0.4,0-0.9,0.1-1.3,0.2
					c-1.6,0.3-3.2,1-4.5,2c-0.6,0.4-1.1,0.9-1.5,1.5c-0.1,0.1-0.1,0.2-0.2,0.2l0,0c-0.5,0.6-0.9,1.3-1.1,2.1
					c-0.1,0.4-0.3,0.8-0.4,1.1c-0.1,0.2-0.1,0.5-0.1,0.8c0,0.1-0.1,0.3-0.1,0.4l0,0c0,0.3-0.1,0.6-0.1,1c0,0.1,0,0.2,0,0.3
					c0,0.4,0,0.8,0.1,1.2v0.1c0.1,0.8,0.3,1.7,0.5,2.5l0,0.1v0l0,0v0l0.1,0.1c0.1,0.4,0.3,0.8,0.4,1.2c0.2,0.4,0.4,0.9,0.6,1.3
					c1,1.8,2.4,3.5,3.9,4.9l11.1,10l7.1,6.4l-16-1.2L26.5,39c-1.1-0.1-2.2-0.1-3.3,0h0c-1,0.1-2,0.3-3,0.6l-0.1,0h0v0l-0.2,0.1
					c-0.9,0.3-1.8,0.7-2.6,1.1h0v0c-1.7,0.9-3.2,2.2-4.4,3.8c0,0-0.1,0.1-0.1,0.1l0,0l0,0c-0.6,0.8-1.1,1.7-1.5,2.6
					c-0.4,0.9-0.7,1.9-0.9,2.9l0,0l0,0c-0.1,0.5-0.1,0.9-0.1,1.4c0,0.1,0,0.2,0,0.2c0,0.5,0,1.1,0,1.7c0.1,1.1,0.3,2.2,0.6,3.3l0,0
					c0.3,1.1,0.8,2.1,1.3,3.1c1.1,2.1,2.6,3.9,4.3,5.4c2.7,2.3,6,4,9.5,4.7h0c0.1,0,0.2,0,0.2,0c0.5,0.1,1,0.2,1.5,0.2
					c0.6,0.1,1.2,0.1,1.8,0.1L40,70.5l17.9,0.1L41.8,89.9c-0.7,0.9-1.4,1.8-1.9,2.8l0,0l0,0c-0.3,0.5-0.5,1-0.7,1.5l0,0
					c-0.2,0.5-0.4,1.1-0.5,1.6c-0.2,0.6-0.3,1.1-0.4,1.7c-0.1,0.5-0.2,1-0.2,1.6c0,0,0,0.1,0,0.1l0,0v0l0,0c-0.1,1.2-0.1,2.3,0,3.5
					c0.1,1.1,0.4,2.2,0.7,3.3c0,0.1,0,0.1,0.1,0.2v0l0,0c0.1,0.4,0.3,0.8,0.4,1.2c0.3,0.7,0.6,1.5,0.9,2.2c0.6,1.1,1.3,2.1,2,3.1
					l0,0c0.2,0.2,0.3,0.4,0.5,0.6c0.2,0.3,0.5,0.6,0.7,0.9s0.6,0.6,0.9,0.8c0.2,0.2,0.3,0.3,0.5,0.5l0,0l1.5,1.1l1.5,1l1.6,0.8
					L51,119c1.1,0.3,2.2,0.6,3.3,0.7c0.6,0.1,1.1,0.1,1.7,0.1l0,0l1.7-0.1l0.7-0.1l0.7-0.1l0.7-0.2l0.7-0.2l0.7-0.2l0.7-0.3l0.6-0.3
					l0.6-0.3l0.8-0.5l0.8-0.5l0.7-0.6l0.7-0.6l0.7-0.6l0.6-0.7l0.5-0.7l0.5-0.7l0,0l22.4-33.3l6.3-9.4l2.1-3.1
					c0.4-0.6,0.7-1.2,1-1.9c0.3-0.7,0.5-1.4,0.6-2.1c0.1-0.7,0.2-1.5,0.2-2.2C101.1,60.4,101,59.7,100.9,58.9z"/>
			</g>
		</g>
	</g>
</g>
</svg>
