<svg xmlns="http://www.w3.org/2000/svg" width="142" height="110"><path style="fill:#00a9ed;fill-opacity:1;stroke:#00a9ed;stroke-width:1.07999051;stroke-linecap:butt;stroke-linejoin:miter;stroke-miterlimit:4;stroke-opacity:1;stroke-dasharray:none;stroke-dashoffset:0" d="M79.252 130.373a51.412 49.99 0 1 1-102.824 0 51.412 49.99 0 1 1 102.824 0z" transform="matrix(.9091 0 0 .94309 59.792 -74.1)"/><path style="fill:#fff;stroke:#fff;stroke-width:1px;stroke-linecap:butt;stroke-linejoin:miter;stroke-opacity:1" d="M104.435 49.766c1.327 1.694 3.742 2.556 5.893 2.641 1.616.065 3.338-.58 4.572-1.625 1.33-1.127 2.54-4.572 2.54-4.572s7.467-6.877 7.722-11.482c.283-5.112-7.112-13.615-7.112-13.615-10.087-9.407-17.765-12.678-32.31-14.225-7.531.66-14.525.065-23.573 4.268-4.101 2.93-7.659 5.96-5.893 9.957l7.672 4.55c.728.71 2.065.345 3.098 1.546l11.786 2.642-.203 5.893-15.038-.61s-4.766-5.512-6.604-7.62c-.735-.842-2.705-.91-3.353 0-3.302 4.637-7.113 16.155-7.113 16.155l1.22 10.77s-.274 1.904 3.454 2.54c2.369.405 4.674-3.555 4.674-3.555l2.439.406.813 9.957 5.283 3.861 1.016 15.546 7.925.305c1.905.073 3.886-2.689 7.52-9.348 0 0 .695-8.753 2.234-12.802 1.374-3.61 6.097-9.856 6.097-9.856l1.829-5.995 12.599-.203s-.122 3.278.813 4.47zM121.301 64.397h-2.438s.91-4.404-.102-6.706c-.622-1.414-2.157-2.48-3.658-2.845-1.807-.44-3.152-.521-4.369.508-1.744 1.476-1.117 6.401-1.117 6.401l4.572 1.423s1.528 1.932 1.422 3.048c-.142 1.497-2.641 3.658-2.641 3.658s-2.704-.365-3.658.406c-1 .808-1.22 3.658-1.22 3.658l1.423 6.503 6.706 4.064 11.278-14.123-.711-4.674z"/><path style="fill:#fff;stroke:#fff;stroke-width:1px;stroke-linecap:butt;stroke-linejoin:miter;stroke-opacity:1" d="M91.632 69.07c-.884-.504-2.095-.56-3.048-.202-1.793.673-4.064 4.064-4.064 4.064l.305 4.775 3.556.508s2.867-1.518 3.658-2.845c.422-.708.233-1.632.406-2.438.14-.65.508-1.93.508-1.93s-.643-1.545-1.32-1.931z"/><path d="m129.714 14.389-3.88 12.5c2.507 2.824 3.77 6.565 3.593 9.772l-71.415 5.604 2.874 9.052 79.462-6.466c-.099-16.29-6.171-22.352-10.634-30.462z" style="fill:#01398e;fill-opacity:1;stroke:#01398e;stroke-width:1px;stroke-linecap:butt;stroke-linejoin:miter;stroke-opacity:1"/><path style="fill:#01398e;stroke:#01398e;stroke-width:1px;stroke-linecap:butt;stroke-linejoin:miter;stroke-opacity:1;fill-opacity:1" d="m51.138 43.162 2.945 9.197-16.116 2.549c.19 3.779 1.758 10.018 3.926 14.55 2.532 5.289 6.345 10.632 10.352 14.222 4.491 4.024 9.077 7.362 14.407 9.548 6.032 2.473 13.377 3.908 19.195 3.75 6.356-.173 13.558-1.505 20.152-4.76 4.901-2.42 9.715-6.303 13.35-9.967 4.618-4.654 8.33-10.738 10.632-17.268 1.683-4.772 2.496-9.212 2.81-13.888l8.004-.617c1.102 4.82-.741 12.071-2.795 17.67-2.532 6.901-6.386 13.522-11.458 18.843-5.409 5.675-12.235 10.191-19.488 13.167-6.747 2.768-14.217 3.862-21.508 4.013-6.77.14-13.673-.79-20.109-2.898-4.69-1.537-8.99-4.184-13.064-6.97-3.89-2.658-7.71-5.584-10.729-9.203-4.181-5.014-7.356-10.89-9.876-16.914a62.97 62.97 0 0 1-4.347-16.1c-.302-2.315.035-7.006.035-7.006z"/><text xml:space="preserve" style="font-size:36px;font-style:normal;font-variant:normal;font-weight:700;font-stretch:normal;text-align:start;line-height:125%;letter-spacing:0;word-spacing:0;writing-mode:lr-tb;text-anchor:start;fill:#01398e;fill-opacity:1;stroke:none;font-family:Times New Roman;-inkscape-font-specification:'Times New Roman, Bold'" x="2.299" y="25.509"><tspan x="2.299" y="25.509">BEA</tspan></text><path style="fill:#01398e;fill-opacity:1;fill-rule:nonzero;stroke:#01398e;stroke-width:1;stroke-linecap:butt;stroke-linejoin:miter;stroke-miterlimit:4;stroke-opacity:1;stroke-dasharray:none;stroke-dashoffset:0" d="M168.237 71.546a3.605 3.472 0 1 1-7.21 0 3.605 3.472 0 1 1 7.21 0z" transform="translate(-45.664 -9.88)"/></svg>