<svg version="1.2" xmlns="http://www.w3.org/2000/svg" viewBox="0 0 852 730" width="852" height="730"><defs><linearGradient id="P" gradientUnits="userSpaceOnUse"/><radialGradient id="g1" cx="531.6" cy="262.5" r="423.3" href="#P"><stop stop-color="#ff9300"/><stop offset="1" stop-color="#ff1b00"/></radialGradient></defs><style>tspan{white-space:pre}.s0{fill:url(#g1)}.s1{fill:#ffffff}</style><path class="s0" d="m363.6 728.4c-111-9.1-220.5-83-292-201.8c-41.1-78.2-71.4-142.6-71.6-232.3c0-37.9 6.1-66.2 20.5-95.3c33.2-67.4 95.5-117.8 187.4-151.9c66.2-24.5 141.7-38.7 243.1-45.8c25.5-1.7 135.5-1.7 154 0c90.9 8.8 150.5 30.5 190.8 69.7c27 26.2 42.2 55.9 48.9 95.4c2.7 16.4 2.5 55.6-0.6 75.1c-10.8 70-42.8 144.7-96.5 225c-59.8 89.6-142.1 174.9-209.5 217.3c-14.7 9.3-44.4 24.1-58.5 29.2c-36.3 13.4-76.6 18.7-116 15.4z" /><path fill-rule="evenodd" class="s1" d="m188.2 227.1c14.3 0.5 22.5 2 41 7.2c9.7 2.8 10.7 2.8 33.5 2.8c17.8 0 25.2-0.4 30.5-1.6c3.8-0.8 7.3-1.3 7.7-1.1c1.2 0.7 0.9 29.1-0.2 29.8c-0.6 0.4-7.4 0.1-15.3-0.5c-7.8-0.6-16.6-1-19.5-0.8l-5.3 0.3l3.7 5.4c8.6 12.7 13 29.4 12.1 45.6c-1 18.6-7.4 33.2-20.2 46.1c-17.9 18.2-38.8 25.6-72.5 25.8c-16.2 0.1-17.9 0.3-22.3 2.5c-13.6 6.6-18.7 22.9-9.7 30.5c5.5 4.6 11.5 5.6 45.5 7.7c46.6 2.8 56 4.3 71.8 11.7c20.6 9.8 30.7 25.1 30.8 46.7c0 11.7-1.4 18.2-6.2 28.2c-13.1 27.5-45.3 42.3-95.9 44c-22.3 0.8-42.7-1.3-66.4-6.7c-63.3-25.8-101.7-56.6-109.4-67.5c-8-11.4-14.4-44.9-3.4-70.7c35.6 85 107.4 124.8 198.7 116.2c23.4-2.2 34.9-6.3 44-15.4c11.7-11.7 11.2-30.1-1-38.5c-7.9-5.5-17.5-7.1-54-9.1c-33.7-1.8-56.7-3.8-63-5.5c-14.2-3.7-26-12.7-31.7-24.1c-4-8.3-5-19.3-2.4-27.3c3.6-10.8 12.5-20.7 25.5-28.3l4.4-2.6l-6-3c-26.5-13.4-42.8-41.9-41-71.6c1-16.2 5.3-28.7 14.1-41c15.9-22.4 43.1-35 75.5-35.3q3.3-0.1 6.6 0.1zm-18 24.4c-17.7 3.7-31.1 16.9-35.3 35.1c-1.9 8.1-1.9 22.7 0 32c4.3 20.9 19 36.9 38.7 42.2c7.2 2 23.8 2 31.3 0c20.8-5.4 33.5-24.4 33.5-50.4c0-29.9-15.6-52.7-40.1-58.5c-3.8-0.9-9-1.4-14.1-1.5c-5.2 0-10.3 0.3-14 1.1z" /><path class="s1" d="m670.8 461.6c-14.4-3.9-25.6-11.3-40.2-26.2c-5-5.2-24.4-27.8-43.2-50.2l-34-40.9v34.4c0 40 1.1 60.3 3.9 70.7c1.1 4.1 1.7 7.8 1.5 8.3c-0.3 0.4-12.7 0.8-27.6 0.8h-27.1l0.6-3.3c0.4-1.8 1.3-5.7 2.2-8.7c3.1-11.4 3.6-36.4 3.2-158c-0.4-107.2-0.6-120.4-2.1-128c-0.9-4.6-2.6-10.4-3.7-12.8c-1-2.5-1.9-5-1.9-5.6c0-1 46.4-13.7 49.7-13.7c1 0.1 1.3 20.4 1.5 96.8l0.3 96.6l37.5-35c20.6-19.3 40.8-39 44.9-43.7l7.3-8.6h28.7c16.9 0.1 27.8 0.5 26.6 1c-1.9 0.8-1.9 0.8-0.2 0.9c1.1 0-0.5 1.3-3.6 3c-12.2 6.4-22.3 15-67.9 57.9c-30.6 28.6-35.6 33.8-34.5 35.1c3.3 4.3 34.5 40.1 51.8 59.6c21.8 24.5 35.1 37.7 45 44.7c12.7 9.1 27.1 14.4 35.5 13.1c2.3-0.4 3-0.1 3 1c0 2-13.1 8.1-21.6 10.2c-10.8 2.6-27.2 2.9-35.6 0.6z" /><path class="s1" d="m370.8 466c-14-1.8-26.2-4.5-39.4-9l-13.6-4.5l-0.3-17.8c-0.1-11.9 0.1-17.7 0.8-17.7c0.6 0 3.6 1.3 6.8 2.9c13 6.5 32.2 12.8 47.7 15.7c12.6 2.3 34.5 1.6 42.9-1.4c11.9-4.3 18-10.5 19.4-19.8c2.1-13.8-4.2-25.4-19.5-35.7c-3.8-2.5-18-10-31.5-16.6c-28.2-13.9-39.7-21.1-49.1-31.1c-10.8-11.4-15.7-23.4-15.7-38.5c0.1-24.7 13-43.8 37.5-55.6c28.7-13.9 70.9-12.9 101.5 2.4l6.5 3.2l0.3 16.7c0.3 19.4 0.5 19.1-8.6 12.9c-26-16.8-87.7-32.2-95.3 11.1c0.1 11.5 7.2 21.3 22.6 31.4c4.4 2.8 18.9 10.8 32.2 17.7c28.1 14.5 39.7 22.1 49.1 32.2c11.5 12.3 16.1 24.8 14.9 40.8c-2.7 36.7-35.6 59.8-87.2 61.2c-8.2 0.2-18.1 0-22-0.5z" /><text style="transform: matrix(1,0,0,1,799.018,601.706)" ></text></svg>