<svg xmlns="http://www.w3.org/2000/svg" xmlns:xlink="http://www.w3.org/1999/xlink" width="85" height="91"><defs><radialGradient xlink:href="#a" id="b" cx="68.014" cy="149.635" fx="68.014" fy="149.635" r="35.884" gradientTransform="matrix(.55862 .57763 -.56343 .54488 77.11 -84.82)" gradientUnits="userSpaceOnUse"/><linearGradient id="a"><stop style="stop-color:#fcfeff;stop-opacity:1" offset="0"/><stop style="stop-color:#fcfeff;stop-opacity:0" offset="1"/></linearGradient></defs><path style="fill:none;stroke:#004a86;stroke-width:2;stroke-linecap:butt;stroke-linejoin:miter;stroke-miterlimit:4;stroke-opacity:1;stroke-dasharray:none;stroke-dashoffset:0;fill-opacity:1" d="M.533.139h84.46v90.327H.533z"/><path style="fill:#004a86;stroke:#004a86;stroke-width:0;stroke-linecap:butt;stroke-linejoin:miter;stroke-opacity:1;fill-opacity:1;stroke-miterlimit:4;stroke-dasharray:none" d="M76.903 82.999H6.223c1.571-46.294 35.18-71.89 70.769-73.88z"/><path d="M74.388 82.999H3.708c1.572-46.294 35.18-71.89 70.769-73.88z" style="fill:url(#b);fill-opacity:1;stroke:#004a86;stroke-width:0;stroke-linecap:butt;stroke-linejoin:miter;stroke-miterlimit:4;stroke-opacity:1;stroke-dasharray:none"/><g style="font-size:36px;font-style:normal;font-variant:normal;font-weight:400;font-stretch:normal;text-align:start;line-height:125%;letter-spacing:0;word-spacing:0;writing-mode:lr-tb;text-anchor:start;fill:#fff;fill-opacity:1;stroke:none;font-family:IrisUPC;-inkscape-font-specification:IrisUPC"><path d="m99.478 76.926 2.393-5.555c2.775-6.347 5.025-11.881 6.75-16.601.114.008.247.024.397.049.15.024.305.046.464.067.159.02.291.03.397.03.179 0 .374-.018.586-.055.211-.036.415-.067.61-.091l.256.55a625.63 625.63 0 0 0 8.497 21.203l.195.341v.306a98.538 98.538 0 0 1-1.392-.086c-.61-.04-1.078-.06-1.404-.06-.903 0-1.802.048-2.697.146-.936-2.979-1.689-5.196-2.259-6.653-.398 0-.996-.016-1.794-.049s-1.4-.049-1.807-.049c-.838 0-2.152.033-3.943.098l-.146.451a901.65 901.65 0 0 0-1.13 3.156 30.468 30.468 0 0 0-.92 3.046 8.016 8.016 0 0 0-3.053 0zm6.092-8.362h5.957c-.708-1.986-1.677-4.517-2.905-7.593a123.804 123.804 0 0 0-2.942 7.3zM139.493 59.823c-1.49-2.132-3.621-3.198-6.396-3.198-2.67 0-4.806 1.148-6.409 3.443-1.196 1.782-1.794 4.016-1.794 6.701 0 1.367.246 2.714.738 4.04.492 1.327 1.21 2.381 2.155 3.162.594.472 1.09.798 1.489.977.399.179 1.005.37 1.819.574.732.13 1.298.195 1.696.195.586 0 1.319-.081 2.198-.244.138 0 .376-.045.714-.134.338-.09.535-.163.592-.22.016-.016.032-.071.049-.165.016-.094.032-.14.048-.14v-2.49c0-1.23-.069-2.914-.207-5.054.806.097 1.623.146 2.454.146.887 0 1.753-.049 2.6-.146-.163 1.497-.244 3.263-.244 5.298 0 .838.032 2.054.097 3.65-3.393.935-6.225 1.403-8.496 1.403-1.741 0-3.396-.221-4.962-.665-1.567-.443-2.956-1.121-4.169-2.032a9.529 9.529 0 0 1-2.844-3.437c-.684-1.38-1.025-2.984-1.025-4.815 0-1.945.34-3.677 1.019-5.194.68-1.518 1.634-2.788 2.862-3.81 1.23-1.02 2.66-1.783 4.291-2.288 1.632-.504 3.388-.757 5.268-.757 2.897 0 5.497.647 7.8 1.941-.456 1.408-.753 2.494-.891 3.26zM153.116 65.414c1.546 0 2.897.5 4.053 1.502 1.196 1.058 1.794 2.36 1.794 3.906 0 1.628-.581 3.076-1.745 4.346-.765.846-2.08 1.465-3.943 1.855-.562.098-1.298.147-2.21.147a84.5 84.5 0 0 1-2.356-.05 84.783 84.783 0 0 0-2.392-.048c-.627 0-1.575.033-2.844.098.13-1.001.228-2.503.293-4.505a584.4 584.4 0 0 0 .097-8.899c0-.976-.081-3.926-.244-8.85 1.66.065 2.877.098 3.65.098.537 0 1.327-.016 2.368-.049a82.154 82.154 0 0 1 2.332-.049c1.18 0 2.254.163 3.222.489.969.325 1.748.864 2.338 1.617.59.753.885 1.735.885 2.948 0 1.44-.506 2.61-1.52 3.51-1.013.899-2.272 1.462-3.778 1.69zm-.89-1.648c.927-.789 1.39-1.904 1.39-3.344 0-.464-.099-1.001-.298-1.612-.2-.61-.45-1.025-.751-1.245-.7-.561-1.518-.842-2.454-.842-.659 0-1.176.032-1.55.098a141.859 141.859 0 0 0-.098 4.394v3.357c.904 0 1.632-.047 2.185-.14a3.818 3.818 0 0 0 1.575-.666zm-2.162 11.548c1.343 0 2.312-.48 2.906-1.44.602-.936.903-1.888.903-2.857 0-3.068-1.436-4.602-4.309-4.602-.464 0-.83.017-1.099.05-.032 1.033-.048 2.6-.048 4.699 0 .447.008 1.127.024 2.038.016.912.024 1.6.024 2.063.188 0 .46.008.818.025.358.016.619.024.781.024z" style="font-size:50px;font-weight:700;fill:#fff;font-family:IrisUPC;-inkscape-font-specification:IrisUPC Bold" transform="translate(-88.905 1.422)"/></g></svg>