<svg xmlns="http://www.w3.org/2000/svg" width="410" height="415"><path style="fill:#005f27;fill-opacity:1;fill-rule:nonzero;stroke:#005f27;stroke-width:1;stroke-linecap:butt;stroke-linejoin:miter;stroke-miterlimit:4;stroke-opacity:1;stroke-dasharray:none;stroke-dashoffset:0" d="M242.922 54.98c0 9.506-7.74 17.211-17.287 17.211-9.547 0-17.286-7.705-17.286-17.21 0-9.506 7.739-17.211 17.286-17.211s17.287 7.705 17.287 17.21z" transform="translate(-22.65 -33.003)"/><path style="fill:#005f27;fill-opacity:1;stroke:#005f27;stroke-width:1px;stroke-linecap:butt;stroke-linejoin:miter;stroke-opacity:1" d="m219.07 58.374-5.414.018s-14.8 6.44-21.078 11.373c-6.97 5.478-13.12 12.23-17.804 19.757-4.32 6.942-7.806 14.706-9.098 22.78-.82 5.124-.518 10.568.973 15.54 1.723 5.747 4.826 11.256 8.946 15.618 3.834 4.06 8.78 7.26 14.036 9.143 3.756 1.345 11.894 1.32 11.894 1.32l-.455 56.864 29.72.152 1.138-57.016s8.379.987 12.13-.53c7.669-3.101 14.43-9.296 18.576-16.453 3.623-6.253 4.855-14.017 4.398-21.229-.497-7.84-3.83-15.381-7.658-22.29-3.767-6.803-9.241-12.895-14.784-18.349-4.32-4.25-9.177-7.821-14.482-10.993-3.48-2.081-11.038-5.705-11.038-5.705z" transform="translate(-15.067 -9.651)"/><path style="fill:#fff;fill-opacity:1;fill-rule:nonzero;stroke:#005f27;stroke-width:.98045415;stroke-linecap:butt;stroke-linejoin:miter;stroke-miterlimit:4;stroke-opacity:1;stroke-dasharray:none;stroke-dashoffset:0" d="M230.184 107.371c0 6.448-5.058 11.676-11.297 11.676-6.239 0-11.297-5.228-11.297-11.676s5.058-11.676 11.297-11.676c6.24 0 11.297 5.228 11.297 11.676z" transform="matrix(1.04027 0 0 1 -25.55 -11.319)"/><path style="fill:#005f27;fill-opacity:1;fill-rule:nonzero;stroke:#005f27;stroke-width:1;stroke-linecap:butt;stroke-linejoin:miter;stroke-miterlimit:4;stroke-opacity:1;stroke-dasharray:none;stroke-dashoffset:0" d="M242.922 54.98c0 9.506-7.74 17.211-17.287 17.211-9.547 0-17.286-7.705-17.286-17.21 0-9.506 7.739-17.211 17.286-17.211s17.287 7.705 17.287 17.21z" transform="translate(68.53 97.304)"/><path style="fill:#005f27;fill-opacity:1;fill-rule:nonzero;stroke:#005f27;stroke-width:1;stroke-linecap:butt;stroke-linejoin:miter;stroke-miterlimit:4;stroke-opacity:1;stroke-dasharray:none;stroke-dashoffset:0" d="M242.922 54.98c0 9.506-7.74 17.211-17.287 17.211-9.547 0-17.286-7.705-17.286-17.21 0-9.506 7.739-17.211 17.286-17.211s17.287 7.705 17.287 17.21z" transform="translate(80.538 116.175)"/><path style="fill:#005f27;fill-opacity:1;fill-rule:nonzero;stroke:#005f27;stroke-width:1;stroke-linecap:butt;stroke-linejoin:miter;stroke-miterlimit:4;stroke-opacity:1;stroke-dasharray:none;stroke-dashoffset:0" d="M242.922 54.98c0 9.506-7.74 17.211-17.287 17.211-9.547 0-17.286-7.705-17.286-17.21 0-9.506 7.739-17.211 17.286-17.211s17.287 7.705 17.287 17.21z" transform="translate(-125.116 121.322)"/><path style="fill:#005f27;fill-opacity:1;stroke:#005f27;stroke-width:1px;stroke-linecap:butt;stroke-linejoin:miter;stroke-opacity:1" d="m191.972 216.019-.152-48.903c-13.555 13.373-13.464 19.177-44.808 34.042l.075 8.87 6.066-.075c3.55 1.696 6.436 4.718 6.975 12.434 0 0-.415 8.563 0 12.814.403 4.126 4.44 7.95 8.264 9.932 2.837 1.47 6.71 2.214 9.553.758 8.642-4.427 29.342-16.756 29.342-16.756-2.521-3.916-5.846-7.658-10.69-11.07z" transform="translate(-15.067 -9.651)"/><path style="fill:#005f27;fill-opacity:1;stroke:#005f27;stroke-width:1px;stroke-linecap:butt;stroke-linejoin:miter;stroke-opacity:1" d="M237.392 165.366c14.805 21.014 34.414 24.122 53.505 29.165-6.88 3.017-12.78 7.291-16.835 13.94v28.413l-73.019 36.992.215 74.145c-1.002.25-20.136-3.739-28.832-7.37-9.498-3.967-19.18-7.948-27.567-13.914-10.011-7.119-18.919-15.948-26.485-25.626-5.444-6.964-9.532-14.947-13.295-22.946-2.807-5.965-5.219-12.165-6.863-18.55-1.613-6.265-2.297-12.75-2.895-19.192-1.123-12.108-1.286-36.456-1.286-36.456 8.25 18.056 24.415 26.52 45.998 28.414-4.764 5.325-8.49 10.65-10.83 15.976 0 0-1.14 8.915-.106 13.189 1.592 6.588 5.249 12.682 9.435 18.013 8.103 10.317 29.54 26.002 29.54 26.002l-.107-45.731 71.014-39.338z" transform="translate(-15.067 -9.651)"/><path style="fill:#005f27;fill-opacity:1;stroke:#005f27;stroke-width:1px;stroke-linecap:butt;stroke-linejoin:miter;stroke-opacity:1" d="m225.332 266.438 33.208-16.68 7.506-.152c7.406 2.095 10.62 7.047 11.752 13.42l.228 35.104h1.97s12.599-10.021 17.515-16.301c5.293-6.761 10.218-14.243 12.51-22.518 1.829-6.604 1.655-13.764.682-20.547-.321-2.239-2.123-6.445-2.123-6.445s-3.212.349-4.549-.379c-.981-.534-1.697-1.592-2.047-2.653-.225-.684-.224-1.492.044-2.16.493-1.227 1.225-2.79 2.686-2.92 21.699-1.947 37.468-25.818 38.894-29.418 0 0 1.202 24.895.38 37.303-.707 10.649-1.665 21.417-4.55 31.692-3.07 10.933-7.506 21.618-13.42 31.313-4.421 7.249-10.046 13.813-16.225 19.637-6.448 6.078-13.794 11.242-21.456 15.694-7.375 4.286-15.345 7.523-23.352 10.463-6.127 2.25-18.803 5.46-18.803 5.46l-.32-70.33z" transform="translate(-15.067 -9.651)"/><path style="fill:#005f27;fill-opacity:1;stroke:#005f27;stroke-width:1px;stroke-linecap:butt;stroke-linejoin:miter;stroke-opacity:1" d="m207.799 299.824 6.218.108c11.08-4.45 15.438-9.851 21.123-18.443.909-1.372 4.076 1.142 4.075 2.788-.016 21.174.107 65.299.107 65.299s-7.511 7.172-12.009 9.65c-2.316 1.276-4.881 2.246-7.505 2.573-5.196.649-16.173-1.11-15.655-1.286 6.743-2.286 10.25-7.163 11.151-9.222l-.429-39.243z" transform="translate(-15.067 -9.651)"/><g><path style="fill:#005f27;fill-opacity:1;stroke:#005f27;stroke-width:.05;stroke-linecap:butt;stroke-linejoin:miter;stroke-miterlimit:4;stroke-opacity:1;stroke-dasharray:none" d="M486.74 483.266s-17.484.68-26.27 1.287c-2.981.205-4.616 3.834-7.185 5.361-9.91 5.893-31.416 14.475-31.416 14.475-.262-.031 6.465 4.774 19.193 5.254 4.673.176 9.54-1.863 13.96-3.647 5.013-2.023 9.543-3.964 14.24-6.432 6.006-3.157 12.787-6.23 16.512-11.902.824-1.254.965-4.396.965-4.396z" transform="translate(-165.553 -116.64)"/><path style="fill:#feff00;fill-opacity:1;stroke:#feff00;stroke-width:.05;stroke-linecap:butt;stroke-linejoin:miter;stroke-miterlimit:4;stroke-opacity:1;stroke-dasharray:none" d="M482.83 481.116s-17.484.68-26.27 1.287c-2.981.206-4.616 3.834-7.184 5.361-9.911 5.893-31.417 14.475-31.417 14.475-.262-.031 6.465 4.774 19.193 5.254 4.673.176 9.54-1.863 13.96-3.647 5.013-2.023 9.543-3.963 14.24-6.432 6.006-3.156 12.787-6.23 16.512-11.902.824-1.253.965-4.396.965-4.396z" transform="translate(-165.553 -116.64)"/><path d="M369.065 529.841h6.434s7.283-10.184 11.64-14.645c3.41-3.49 7.152-6.71 11.24-9.373 1.892-1.232 3.89-2.416 6.07-3.002 4.776-1.286 9.89-.434 14.805-.986 6.064-.68 12.388-.661 18.079-2.861 2.923-1.13 5.79-2.806 7.86-5.16 4.88-5.548 9.699-19.933 9.699-19.933s-13.984-.93-20.635.847c-5.22 1.396-10.616 3.617-14.368 7.506-3.685 3.82-6.862 14.368-6.862 14.368s-6.697 1.828-9.865 3.217c-5.773 2.531-11.237 5.774-16.495 9.253-4.978 3.295-14.17 10.952-14.17 10.952s-8.047-6.81-12.387-9.787c-4.124-2.828-8.522-5.245-12.918-7.63-2.444-1.327-4.839-2.815-7.471-3.71-2.357-.8-7.326-1.437-7.326-1.437s-5.044-11.306-9.436-15.44c-3.771-3.552-8.697-6.04-13.724-7.292-6.936-1.728-21.445 0-21.445 0s6.073 13.835 11.58 18.657c4.262 3.731 10.067 5.355 15.495 6.975 4.143 1.237 8.501 1.692 12.812 2.032 3.278.258 6.682-.825 9.865 0 4.322 1.12 8.157 3.801 11.708 6.51 3.362 2.564 5.963 5.996 8.875 9.062 3.707 3.903 10.94 11.877 10.94 11.877z" style="fill:#005f27;fill-opacity:1;stroke:#005f27;stroke-width:.05;stroke-linecap:butt;stroke-linejoin:miter;stroke-miterlimit:4;stroke-opacity:1;stroke-dasharray:none" transform="translate(-165.553 -116.64)"/><path d="M366.05 525.728h6.433s7.284-10.184 11.641-14.645c3.409-3.49 7.152-6.711 11.24-9.373 1.891-1.232 3.89-2.416 6.07-3.002 4.776-1.286 9.89-.435 14.805-.986 6.063-.68 12.388-.661 18.078-2.861 2.924-1.13 5.791-2.806 7.861-5.16 4.88-5.548 9.698-19.933 9.698-19.933s-13.984-.93-20.634.847c-5.22 1.396-10.617 3.617-14.368 7.506-3.685 3.82-6.863 14.368-6.863 14.368s-6.697 1.828-9.864 3.216c-5.774 2.532-11.238 5.775-16.495 9.254-4.979 3.295-14.171 10.952-14.171 10.952s-8.047-6.811-12.386-9.787c-4.125-2.829-8.523-5.246-12.919-7.63-2.443-1.327-4.838-2.815-7.47-3.71-2.357-.8-7.326-1.437-7.326-1.437s-5.045-11.306-9.436-15.44c-3.772-3.552-8.698-6.04-13.725-7.292-6.936-1.728-21.444 0-21.444 0s6.073 13.835 11.58 18.657c4.261 3.731 10.067 5.355 15.494 6.975 4.144 1.237 8.502 1.692 12.813 2.032 3.278.258 6.681-.826 9.864 0 4.323 1.12 8.158 3.8 11.708 6.509 3.362 2.564 5.964 5.997 8.876 9.063 3.706 3.903 10.94 11.877 10.94 11.877z" style="fill:#feff00;fill-opacity:1;stroke:#feff00;stroke-width:.05;stroke-linecap:butt;stroke-linejoin:miter;stroke-miterlimit:4;stroke-opacity:1;stroke-dasharray:none" transform="translate(-165.553 -116.64)"/><path style="fill:#005f27;fill-opacity:1;stroke:#005f27;stroke-width:.05;stroke-linecap:butt;stroke-linejoin:miter;stroke-miterlimit:4;stroke-opacity:1;stroke-dasharray:none" d="M323.003 504.338s-7.836 5.155-12.33 5.898c-6.855 1.132-14.07-.373-20.695-2.466-9.171-2.899-17.665-7.97-25.412-13.671-1.616-1.19-4.117-2.008-5.816-3.782-1.52-1.587-2.267-2.605-2.333-4.207-.033-.823.275-1.898 1.019-2.251 1.64-.778 5.262 1.4 5.262 1.4l18.756.047 16.244 12.92 1.394 1.823s8.419 2.688 12.76 3.432c3.674.63 11.151.857 11.151.857z" transform="translate(-165.553 -116.64)"/><path style="fill:#feff00;fill-opacity:1;stroke:#feff00;stroke-width:.05;stroke-linecap:butt;stroke-linejoin:miter;stroke-miterlimit:4;stroke-opacity:1;stroke-dasharray:none" d="M320.116 501.22s-7.836 5.154-12.33 5.897c-6.855 1.132-14.07-.373-20.695-2.467-9.171-2.898-17.665-7.969-25.412-13.67-1.616-1.19-4.118-2.008-5.816-3.782-1.52-1.587-2.267-2.605-2.333-4.207-.033-.823.275-1.898 1.019-2.251 1.64-.778 5.262 1.4 5.262 1.4l18.756.047 16.244 12.92 1.394 1.823s8.419 2.688 12.76 3.432c3.674.63 11.15.857 11.15.857z" transform="translate(-165.553 -116.64)"/><path style="fill:#005f27;fill-opacity:1;stroke:#005f27;stroke-width:.05;stroke-linecap:butt;stroke-linejoin:miter;stroke-miterlimit:4;stroke-opacity:1;stroke-dasharray:none" d="M369.065 529.841h6.434s7.283-10.184 11.64-14.645c3.41-3.49 7.152-6.71 11.24-9.373 1.892-1.232 3.89-2.416 6.07-3.002 4.776-1.286 9.89-.434 14.805-.986 6.064-.68 12.388-.661 18.079-2.861 2.923-1.13 5.79-2.806 7.86-5.16 4.88-5.548 9.699-19.933 9.699-19.933s-13.984-.93-20.635.847c-5.22 1.396-10.616 3.617-14.368 7.506-3.685 3.82-6.862 14.368-6.862 14.368s-6.697 1.828-9.865 3.217c-5.773 2.531-11.237 5.774-16.495 9.253-4.978 3.295-14.17 10.952-14.17 10.952s-8.047-6.81-12.387-9.787c-4.124-2.828-8.522-5.245-12.918-7.63-2.444-1.327-4.839-2.815-7.471-3.71-2.357-.8-7.326-1.437-7.326-1.437s-5.044-11.306-9.436-15.44c-3.771-3.552-8.697-6.04-13.724-7.292-6.936-1.728-21.445 0-21.445 0s6.073 13.835 11.58 18.657c4.262 3.731 10.067 5.355 15.495 6.975 4.143 1.237 8.501 1.692 12.812 2.032 3.278.258 6.682-.825 9.865 0 4.322 1.12 8.157 3.801 11.708 6.51 3.362 2.564 5.963 5.996 8.875 9.062 3.707 3.903 10.94 11.877 10.94 11.877z" transform="translate(-165.553 -116.64)"/><path style="fill:#feff00;fill-opacity:1;stroke:#feff00;stroke-width:.05;stroke-linecap:butt;stroke-linejoin:miter;stroke-miterlimit:4;stroke-opacity:1;stroke-dasharray:none" d="M366.05 525.728h6.433s7.284-10.184 11.641-14.645c3.409-3.49 7.152-6.711 11.24-9.373 1.891-1.232 3.89-2.416 6.07-3.002 4.776-1.286 9.89-.435 14.805-.986 6.063-.68 12.388-.661 18.078-2.861 2.924-1.13 5.791-2.806 7.861-5.16 4.88-5.548 9.698-19.933 9.698-19.933s-13.984-.93-20.634.847c-5.22 1.396-10.617 3.617-14.368 7.506-3.685 3.82-6.863 14.368-6.863 14.368s-6.697 1.828-9.864 3.216c-5.774 2.532-11.238 5.775-16.495 9.254-4.979 3.295-14.171 10.952-14.171 10.952s-8.047-6.811-12.386-9.787c-4.125-2.829-8.523-5.246-12.919-7.63-2.443-1.327-4.838-2.815-7.47-3.71-2.357-.8-7.326-1.437-7.326-1.437s-5.045-11.306-9.436-15.44c-3.772-3.552-8.698-6.04-13.725-7.292-6.936-1.728-21.444 0-21.444 0s6.073 13.835 11.58 18.657c4.261 3.731 10.067 5.355 15.494 6.975 4.144 1.237 8.502 1.692 12.813 2.032 3.278.258 6.681-.826 9.864 0 4.323 1.12 8.158 3.8 11.708 6.509 3.362 2.564 5.964 5.997 8.876 9.063 3.706 3.903 10.94 11.877 10.94 11.877z" transform="translate(-165.553 -116.64)"/><path style="fill:#005f27;fill-opacity:1;stroke:#005f27;stroke-width:.05;stroke-linecap:butt;stroke-linejoin:miter;stroke-miterlimit:4;stroke-opacity:1;stroke-dasharray:none" d="M447.817 465.789s10.85-.872 15.547-3.324c4.64-2.422 6.961-6.41 11.473-10.722 4.418-1.202 7.323-4.897 9.758-8.364l-2.038-2.68s-3.068 1.81-4.717 1.608c-1.9-.233-3.883-1.445-4.825-3.11-1.093-1.929-.599-4.464-.215-6.647.634-3.602 4.075-10.187 4.075-10.187s-11.836 7.999-16.513 13.296c-3.059 3.465-5.422 7.567-7.291 11.795-2.571 5.814-5.254 18.335-5.254 18.335z" transform="translate(-165.553 -116.64)"/><path style="fill:#feff00;fill-opacity:1;stroke:#feff00;stroke-width:.05;stroke-linecap:butt;stroke-linejoin:miter;stroke-miterlimit:4;stroke-opacity:1;stroke-dasharray:none" d="M443.796 463.055s10.85-.872 15.548-3.324c4.64-2.423 6.96-6.411 11.472-10.723 4.418-1.201 7.323-4.896 9.758-8.363l-2.037-2.68s-3.07 1.81-4.718 1.608c-1.9-.233-3.882-1.445-4.825-3.11-1.093-1.929-.599-4.464-.215-6.648.634-3.601 4.075-10.186 4.075-10.186s-11.836 7.998-16.513 13.296c-3.059 3.465-5.421 7.567-7.29 11.794-2.572 5.815-5.255 18.336-5.255 18.336z" transform="translate(-165.553 -116.64)"/><path style="fill:#005f27;fill-opacity:1;stroke:#005f27;stroke-width:.05;stroke-linecap:butt;stroke-linejoin:miter;stroke-miterlimit:4;stroke-opacity:1;stroke-dasharray:none" d="M484.166 454.96c-9.264 4.17-17.882 12.897-23.59 19.3-1.174 1.317 2.549 2.814 4.29 3.109 6.095 1.034 12.317 1.515 18.228.107 6.25-1.489 11.823-5.206 17.155-8.792 4.774-3.211 9.162-7.047 13.081-11.259 2.124-2.281 5.576-7.505 5.576-7.505l-14.153 6.862s-8.755-2.862-13.296-3.002c-2.46-.076-5.046.168-7.291 1.18z" transform="translate(-165.553 -116.64)"/><path style="fill:#feff00;fill-opacity:1;stroke:#feff00;stroke-width:.05;stroke-linecap:butt;stroke-linejoin:miter;stroke-miterlimit:4;stroke-opacity:1;stroke-dasharray:none" d="M481.276 451.573c-9.264 4.171-17.881 12.898-23.589 19.3-1.175 1.318 2.548 2.814 4.289 3.11 6.096 1.034 12.317 1.515 18.228.107 6.25-1.49 11.824-5.206 17.156-8.792 4.773-3.211 9.161-7.048 13.08-11.259 2.124-2.281 5.576-7.505 5.576-7.505l-14.153 6.862s-8.754-2.862-13.296-3.002c-2.46-.076-5.046.168-7.29 1.179z" transform="translate(-165.553 -116.64)"/><path style="fill:#005f27;fill-opacity:1;stroke:#005f27;stroke-width:.05;stroke-linecap:butt;stroke-linejoin:miter;stroke-miterlimit:4;stroke-opacity:1;stroke-dasharray:none" d="m539.815 410.998-17.585 3.752s-6.768 11.53-10.937 16.727c-3.843 4.791-12.885 12.116-12.867 13.189.018 1.015-.072 2.05 1.609 2.788 0 0 13.54-.768 19.086-4.182 7.572-4.662 16.834-20.694 16.834-20.694 2.327-4.581 5.11-9.477 3.86-11.58z" transform="translate(-165.553 -116.64)"/><path style="fill:#feff00;fill-opacity:1;stroke:#feff00;stroke-width:.05;stroke-linecap:butt;stroke-linejoin:miter;stroke-miterlimit:4;stroke-opacity:1;stroke-dasharray:none" d="m536.765 408.103-17.585 3.752s-6.768 11.53-10.937 16.727c-3.843 4.791-12.885 12.116-12.867 13.189.018 1.015-.072 2.05 1.609 2.788 0 0 13.54-.768 19.085-4.182 7.573-4.662 16.834-20.694 16.834-20.694 2.328-4.581 5.11-9.477 3.86-11.58z" transform="translate(-165.553 -116.64)"/><path style="fill:#005f27;fill-opacity:1;stroke:#005f27;stroke-width:.05;stroke-linecap:butt;stroke-linejoin:miter;stroke-miterlimit:4;stroke-opacity:1;stroke-dasharray:none" d="M502.072 387.516s-13.073 25.061-17.692 34.204c-2.176 4.308 3.832 8.962 4.61 13.725.589 3.597 0 10.936 0 10.936s10.74-8.146 14.262-13.724c2.111-3.345 3.182-7.344 3.752-11.259 1.814-12.44-4.022-35.096-4.932-33.882z" transform="translate(-165.553 -116.64)"/><path style="fill:#feff00;fill-opacity:1;stroke:#feff00;stroke-width:.05;stroke-linecap:butt;stroke-linejoin:miter;stroke-miterlimit:4;stroke-opacity:1;stroke-dasharray:none" d="M498.328 384.483s-13.073 25.062-17.692 34.205c-2.176 4.307 3.832 8.961 4.61 13.724.589 3.598 0 10.937 0 10.937s10.74-8.146 14.261-13.725c2.112-3.345 3.183-7.344 3.753-11.258 1.814-12.44-4.022-35.096-4.932-33.883z" transform="translate(-165.553 -116.64)"/><path style="fill:#005f27;fill-opacity:1;stroke:#005f27;stroke-width:.05;stroke-linecap:butt;stroke-linejoin:miter;stroke-miterlimit:4;stroke-opacity:1;stroke-dasharray:none" d="m514.724 345.592 14.797 20.8v24.233l-13.51 22.946-9.436-30.022.215-22.732c2.171-5.287.923-12.104 7.934-15.225z" transform="translate(-165.553 -116.64)"/><path style="fill:#feff00;fill-opacity:1;stroke:#feff00;stroke-width:.05;stroke-linecap:butt;stroke-linejoin:miter;stroke-miterlimit:4;stroke-opacity:1;stroke-dasharray:none" d="m512.258 340.98 14.797 20.802v24.233l-13.51 22.945-9.436-30.022.215-22.731c2.171-5.287.922-12.104 7.934-15.226z" transform="translate(-165.553 -116.64)"/><path style="fill:#005f27;fill-opacity:1;stroke:#005f27;stroke-width:.05;stroke-linecap:butt;stroke-linejoin:miter;stroke-miterlimit:4;stroke-opacity:1;stroke-dasharray:none" d="M558.579 355.67s-9.844 5.186-13.51 9.222c-4.088 4.499-6.33 10.419-8.793 15.976-3.37 7.605-8.198 21.379-7.72 23.696 0 0 8.079-1.133 11.259-3.43 6.276-4.538 9.535-12.27 13.402-18.98 2.436-4.225 5.205-8.502 6.112-13.295.819-4.327-.75-13.188-.75-13.188z" transform="translate(-165.553 -116.64)"/><path style="fill:#feff00;fill-opacity:1;stroke:#feff00;stroke-width:.05;stroke-linecap:butt;stroke-linejoin:miter;stroke-miterlimit:4;stroke-opacity:1;stroke-dasharray:none" d="M555.85 352.24s-9.844 5.185-13.51 9.22c-4.088 4.5-6.33 10.42-8.793 15.977-3.37 7.605-8.198 21.379-7.72 23.696 0 0 8.08-1.133 11.259-3.431 6.277-4.537 9.535-12.269 13.403-18.978 2.436-4.226 5.205-8.504 6.111-13.296.82-4.327-.75-13.189-.75-13.189z" transform="translate(-165.553 -116.64)"/><path style="fill:#005f27;fill-opacity:1;stroke:#005f27;stroke-width:.05;stroke-linecap:butt;stroke-linejoin:miter;stroke-miterlimit:4;stroke-opacity:1;stroke-dasharray:none" d="m559.616 341.037-14.406 16.528-.151-48.372c7.348.042 10.311-9.417 12.889-19.712 4.343 15.573 2.743 33.655 1.668 51.556z" transform="translate(-165.553 -116.64)"/><path style="fill:#feff00;fill-opacity:1;stroke:#feff00;stroke-width:.05;stroke-linecap:butt;stroke-linejoin:miter;stroke-miterlimit:4;stroke-opacity:1;stroke-dasharray:none" d="M555.984 339.142 541.58 355.67l-.152-48.372c7.348.041 10.312-9.418 12.89-19.713 4.342 15.573 2.743 33.656 1.667 51.557z" transform="translate(-165.553 -116.64)"/><path style="fill:#005f27;fill-opacity:1;stroke:#005f27;stroke-width:.05;stroke-linecap:butt;stroke-linejoin:miter;stroke-miterlimit:4;stroke-opacity:1;stroke-dasharray:none" d="M509.121 299.034c7.211 7.645 14.117 9.185 20.926 8.795 0 0 7.169 18.261 8.037 27.9.72 7.995-2.427 23.96-2.427 23.96s-12.733-15.5-17.135-24.414c-3.425-6.938-5.152-14.62-6.975-22.14-1.123-4.635-2.426-14.101-2.426-14.101z" transform="translate(-165.553 -116.64)"/><path style="fill:#feff00;fill-opacity:1;stroke:#feff00;stroke-width:.05;stroke-linecap:butt;stroke-linejoin:miter;stroke-miterlimit:4;stroke-opacity:1;stroke-dasharray:none" d="M506.566 295.091c7.21 7.645 14.116 9.185 20.925 8.795 0 0 7.17 18.262 8.037 27.901.72 7.995-2.426 23.959-2.426 23.959s-12.734-15.499-17.135-24.414c-3.425-6.938-5.153-14.62-6.975-22.139-1.124-4.635-2.426-14.102-2.426-14.102z" transform="translate(-165.553 -116.64)"/><path style="fill:#005f27;fill-opacity:1;stroke:#005f27;stroke-width:.05;stroke-linecap:butt;stroke-linejoin:miter;stroke-miterlimit:4;stroke-opacity:1;stroke-dasharray:none" d="M538.552 240.116s6.976 10.071 9.41 15.65c1.415 3.245 2.304 6.723 2.949 10.204 1.413 7.632 2.59 15.008 1.971 23.2-2.187 5.26-4.727 11.016-10.487 13.528 0 0-1.01-26.104-1.568-39.154-.048-1.112-.22-2.225-.152-3.336.148-2.43 1.47-4.781 1.213-7.203-.331-3.136-2.953-5.687-3.487-8.795-.232-1.346.151-4.094.151-4.094z" transform="translate(-165.553 -116.64)"/><path style="fill:#feff00;fill-opacity:1;stroke:#feff00;stroke-width:.05;stroke-linecap:butt;stroke-linejoin:miter;stroke-miterlimit:4;stroke-opacity:1;stroke-dasharray:none" d="M535.359 236.35s6.976 10.07 9.41 15.65c1.415 3.245 2.304 6.722 2.948 10.204 1.413 7.631 2.59 15.008 1.972 23.2-2.188 5.26-4.728 11.015-10.487 13.527 0 0-1.01-26.104-1.569-39.154-.047-1.112-.219-2.225-.151-3.336.148-2.43 1.469-4.781 1.213-7.202-.332-3.137-2.953-5.687-3.488-8.795-.231-1.346.152-4.094.152-4.094z" transform="translate(-165.553 -116.64)"/><path style="fill:#005f27;fill-opacity:1;stroke:#005f27;stroke-width:.05;stroke-linecap:butt;stroke-linejoin:miter;stroke-miterlimit:4;stroke-opacity:1;stroke-dasharray:none" d="M536.705 305.276c-.024-8.257-3.979-16.513-9.114-24.769l-13.832-19.515-14.475-.857-.643-1.823c-1.885-.366-2.582.117-2.466 1.18 0 0 1.115 8.253 2.573 12.116 1.956 5.18 8.15 14.475 8.15 14.475s1.836-.09 2.68.214c10.385 3.734 18.085 12.652 27.127 18.979z" transform="translate(-165.553 -116.64)"/><path style="fill:#feff00;fill-opacity:1;stroke:#feff00;stroke-width:.05;stroke-linecap:butt;stroke-linejoin:miter;stroke-miterlimit:4;stroke-opacity:1;stroke-dasharray:none" d="M532.958 301.583c-.023-8.256-3.978-16.512-9.114-24.768L510.013 257.3l-14.475-.858-.644-1.822c-1.884-.366-2.581.116-2.466 1.18 0 0 1.115 8.253 2.573 12.115 1.956 5.18 8.15 14.475 8.15 14.475s1.836-.088 2.68.215c10.385 3.734 18.085 12.652 27.127 18.978z" transform="translate(-165.553 -116.64)"/><path style="fill:#005f27;fill-opacity:1;stroke:#005f27;stroke-width:.05;stroke-linecap:butt;stroke-linejoin:miter;stroke-miterlimit:4;stroke-opacity:1;stroke-dasharray:none" d="m534.132 275.253-13.296-12.974-2.144-.107s-14.456-21.49-23.16-34.955c-.541-.836.265-2.204 1.072-2.788 1.739-1.26 4.322-.713 6.433-.321 1.998.37 3.57 2.134 5.576 2.466 3.186.527 9.65-.858 9.65-.858s6.815 12.037 9.65 18.335c2.572 5.714 5.619 11.403 6.648 17.585.745 4.48-.43 13.617-.43 13.617z" transform="translate(-165.553 -116.64)"/><path style="fill:#feff00;fill-opacity:1;stroke:#feff00;stroke-width:.05;stroke-linecap:butt;stroke-linejoin:miter;stroke-miterlimit:4;stroke-opacity:1;stroke-dasharray:none" d="m530.557 271.57-13.295-12.974-2.145-.107s-14.456-21.49-23.16-34.955c-.54-.836.266-2.204 1.072-2.788 1.74-1.26 4.322-.713 6.434-.322 1.998.37 3.57 2.135 5.575 2.467 3.186.527 9.65-.858 9.65-.858s6.815 12.037 9.65 18.335c2.572 5.714 5.619 11.403 6.648 17.585.746 4.48-.429 13.617-.429 13.617z" transform="translate(-165.553 -116.64)"/><path style="fill:#005f27;fill-opacity:1;stroke:#005f27;stroke-width:.05;stroke-linecap:butt;stroke-linejoin:miter;stroke-miterlimit:4;stroke-opacity:1;stroke-dasharray:none" d="M297.487 466.767s-10.85-.872-15.547-3.324c-4.64-2.423-6.961-6.411-11.473-10.723-4.417-1.201-7.323-4.896-9.758-8.363l2.038-2.68s3.068 1.81 4.717 1.608c1.9-.233 3.883-1.445 4.826-3.11 1.092-1.929.598-4.464.214-6.648-.634-3.601-4.075-10.186-4.075-10.186s11.836 7.998 16.513 13.296c3.059 3.465 5.422 7.567 7.291 11.794 2.571 5.815 5.254 18.336 5.254 18.336z" transform="translate(-165.553 -116.64)"/><path style="fill:#feff00;fill-opacity:1;stroke:#feff00;stroke-width:.05;stroke-linecap:butt;stroke-linejoin:miter;stroke-miterlimit:4;stroke-opacity:1;stroke-dasharray:none" d="M293.016 464.032s-10.85-.871-15.547-3.324c-4.64-2.422-6.96-6.41-11.473-10.722-4.417-1.201-7.323-4.896-9.757-8.363l2.037-2.68s3.069 1.81 4.718 1.607c1.899-.232 3.882-1.444 4.825-3.109 1.092-1.93.598-4.464.214-6.648-.633-3.602-4.074-10.186-4.074-10.186s11.835 7.998 16.512 13.296c3.06 3.464 5.422 7.567 7.291 11.794 2.572 5.815 5.254 18.335 5.254 18.335z" transform="translate(-165.553 -116.64)"/><path style="fill:#005f27;fill-opacity:1;stroke:#005f27;stroke-width:.05;stroke-linecap:butt;stroke-linejoin:miter;stroke-miterlimit:4;stroke-opacity:1;stroke-dasharray:none" d="M258.106 455.33c9.263 4.171 17.88 12.898 23.589 19.3 1.175 1.319-2.548 2.815-4.29 3.11-6.095 1.034-12.317 1.515-18.227.107-6.251-1.489-11.824-5.206-17.156-8.792-4.774-3.21-9.162-7.047-13.081-11.258-2.124-2.282-5.576-7.506-5.576-7.506l14.154 6.862s8.754-2.862 13.295-3.002c2.461-.076 5.047.169 7.292 1.18z" transform="translate(-165.553 -116.64)"/><path style="fill:#feff00;fill-opacity:1;stroke:#feff00;stroke-width:.05;stroke-linecap:butt;stroke-linejoin:miter;stroke-miterlimit:4;stroke-opacity:1;stroke-dasharray:none" d="M255.536 451.944c9.264 4.171 17.882 12.898 23.59 19.3 1.174 1.318-2.549 2.815-4.29 3.11-6.095 1.034-12.317 1.515-18.227.107-6.251-1.489-11.824-5.206-17.156-8.792-4.774-3.211-9.162-7.047-13.081-11.259-2.124-2.281-5.576-7.505-5.576-7.505l14.153 6.862s8.755-2.862 13.296-3.002c2.461-.076 5.046.168 7.291 1.18z" transform="translate(-165.553 -116.64)"/><path style="fill:#005f27;fill-opacity:1;stroke:#005f27;stroke-width:.05;stroke-linecap:butt;stroke-linejoin:miter;stroke-miterlimit:4;stroke-opacity:1;stroke-dasharray:none" d="m205.49 411.369 17.584 3.753s6.768 11.53 10.937 16.727c3.843 4.79 12.885 12.115 12.867 13.188-.017 1.016.072 2.05-1.609 2.788 0 0-13.54-.768-19.085-4.182-7.573-4.661-16.835-20.694-16.835-20.694-2.327-4.58-5.11-9.476-3.86-11.58z" transform="translate(-165.553 -116.64)"/><path style="fill:#feff00;fill-opacity:1;stroke:#feff00;stroke-width:.05;stroke-linecap:butt;stroke-linejoin:miter;stroke-miterlimit:4;stroke-opacity:1;stroke-dasharray:none" d="m201.26 409.08 17.586 3.753s6.768 11.53 10.936 16.727c3.843 4.79 12.886 12.116 12.867 13.189-.018 1.015.072 2.049-1.608 2.787 0 0-13.54-.767-19.086-4.181-7.572-4.662-16.834-20.694-16.834-20.694-2.328-4.581-5.11-9.477-3.86-11.58z" transform="translate(-165.553 -116.64)"/><path style="fill:#005f27;fill-opacity:1;stroke:#005f27;stroke-width:.05;stroke-linecap:butt;stroke-linejoin:miter;stroke-miterlimit:4;stroke-opacity:1;stroke-dasharray:none" d="M240.806 387.28s13.073 25.062 17.692 34.205c2.176 4.307-3.832 8.961-4.611 13.724-.588 3.598 0 10.937 0 10.937s-10.739-8.146-14.26-13.725c-2.112-3.344-3.183-7.344-3.753-11.258-1.814-12.44 4.022-35.096 4.932-33.882z" transform="translate(-165.553 -116.64)"/><path style="fill:#feff00;fill-opacity:1;stroke:#feff00;stroke-width:.05;stroke-linecap:butt;stroke-linejoin:miter;stroke-miterlimit:4;stroke-opacity:1;stroke-dasharray:none" d="M239.697 386.068s13.073 25.061 17.692 34.204c2.177 4.307-3.832 8.962-4.61 13.724-.588 3.598 0 10.937 0 10.937s-10.739-8.146-14.261-13.724c-2.112-3.345-3.182-7.344-3.753-11.259-1.814-12.44 4.022-35.096 4.932-33.882z" transform="translate(-165.553 -116.64)"/><path style="fill:#005f27;fill-opacity:1;stroke:#005f27;stroke-width:.05;stroke-linecap:butt;stroke-linejoin:miter;stroke-miterlimit:4;stroke-opacity:1;stroke-dasharray:none" d="m228.76 345.963-14.797 20.801v24.233l13.51 22.945 9.436-30.022-.215-22.732c-2.171-5.286-.922-12.104-7.934-15.225z" transform="translate(-165.553 -116.64)"/><path style="fill:#feff00;fill-opacity:1;stroke:#feff00;stroke-width:.05;stroke-linecap:butt;stroke-linejoin:miter;stroke-miterlimit:4;stroke-opacity:1;stroke-dasharray:none" d="m225.767 342.565-14.797 20.802v24.232l13.51 22.946 9.436-30.023-.214-22.731c-2.172-5.287-.923-12.104-7.935-15.226z" transform="translate(-165.553 -116.64)"/><path style="fill:#005f27;fill-opacity:1;stroke:#005f27;stroke-width:.05;stroke-linecap:butt;stroke-linejoin:miter;stroke-miterlimit:4;stroke-opacity:1;stroke-dasharray:none" d="M184.906 357.255s9.843 5.185 13.51 9.221c4.087 4.5 6.33 10.419 8.792 15.976 3.37 7.606 8.198 21.379 7.72 23.697 0 0-8.079-1.133-11.258-3.432-6.277-4.536-9.536-12.268-13.403-18.978-2.436-4.226-5.205-8.503-6.112-13.296-.819-4.326.75-13.188.75-13.188z" transform="translate(-165.553 -116.64)"/><path style="fill:#feff00;fill-opacity:1;stroke:#feff00;stroke-width:.05;stroke-linecap:butt;stroke-linejoin:miter;stroke-miterlimit:4;stroke-opacity:1;stroke-dasharray:none" d="M183.995 354.43s9.844 5.186 13.51 9.221c4.088 4.5 6.33 10.42 8.793 15.977 3.37 7.605 8.198 21.378 7.72 23.696 0 0-8.08-1.133-11.259-3.431-6.276-4.537-9.535-12.269-13.403-18.979-2.435-4.226-5.204-8.503-6.111-13.295-.819-4.327.75-13.189.75-13.189z" transform="translate(-165.553 -116.64)"/><path style="fill:#005f27;fill-opacity:1;stroke:#005f27;stroke-width:.05;stroke-linecap:butt;stroke-linejoin:miter;stroke-miterlimit:4;stroke-opacity:1;stroke-dasharray:none" d="m182.655 341.408 14.406 16.529.151-48.372c-7.348.04-10.311-9.418-12.889-19.713-4.342 15.573-2.743 33.656-1.668 51.556z" transform="translate(-165.553 -116.64)"/><path style="fill:#feff00;fill-opacity:1;stroke:#feff00;stroke-width:.05;stroke-linecap:butt;stroke-linejoin:miter;stroke-miterlimit:4;stroke-opacity:1;stroke-dasharray:none" d="m180.828 340.726 14.406 16.528.151-48.372c-7.348.042-10.311-9.417-12.889-19.713-4.343 15.574-2.743 33.656-1.668 51.557z" transform="translate(-165.553 -116.64)"/><path style="fill:#005f27;fill-opacity:1;stroke:#005f27;stroke-width:.05;stroke-linecap:butt;stroke-linejoin:miter;stroke-miterlimit:4;stroke-opacity:1;stroke-dasharray:none" d="M234.363 296.979c-7.21 7.645-14.116 9.185-20.926 8.795 0 0-7.169 18.261-8.036 27.9-.72 7.995 2.426 23.96 2.426 23.96s12.734-15.5 17.135-24.414c3.425-6.938 5.153-14.62 6.975-22.14 1.124-4.635 2.426-14.101 2.426-14.101z" transform="translate(-165.553 -116.64)"/><path style="fill:#feff00;fill-opacity:1;stroke:#feff00;stroke-width:.05;stroke-linecap:butt;stroke-linejoin:miter;stroke-miterlimit:4;stroke-opacity:1;stroke-dasharray:none" d="M232.673 295.462c-7.211 7.646-14.117 9.185-20.926 8.795 0 0-7.169 18.262-8.037 27.901-.72 7.995 2.427 23.959 2.427 23.959s12.733-15.499 17.135-24.414c3.425-6.937 5.152-14.619 6.975-22.138 1.123-4.636 2.426-14.103 2.426-14.103z" transform="translate(-165.553 -116.64)"/><path style="fill:#005f27;fill-opacity:1;stroke:#005f27;stroke-width:.05;stroke-linecap:butt;stroke-linejoin:miter;stroke-miterlimit:4;stroke-opacity:1;stroke-dasharray:none" d="M203.719 241.094s-6.976 10.07-9.41 15.65c-1.415 3.245-2.304 6.723-2.949 10.204-1.412 7.632-2.59 15.008-1.97 23.2 2.187 5.26 4.726 11.016 10.486 13.527 0 0 1.01-26.103 1.568-39.153.048-1.112.22-2.225.152-3.336-.148-2.43-1.47-4.782-1.213-7.203.331-3.136 2.953-5.687 3.487-8.795.232-1.346-.151-4.094-.151-4.094z" transform="translate(-165.553 -116.64)"/><path style="fill:#feff00;fill-opacity:1;stroke:#feff00;stroke-width:.05;stroke-linecap:butt;stroke-linejoin:miter;stroke-miterlimit:4;stroke-opacity:1;stroke-dasharray:none" d="M201.453 242.786s-6.975 10.071-9.409 15.65c-1.416 3.246-2.304 6.723-2.949 10.204-1.413 7.632-2.59 15.008-1.971 23.2 2.187 5.26 4.727 11.016 10.487 13.528 0 0 1.01-26.104 1.568-39.154.048-1.112.22-2.225.152-3.336-.148-2.43-1.47-4.781-1.214-7.203.332-3.136 2.954-5.686 3.488-8.795.231-1.345-.152-4.094-.152-4.094z" transform="translate(-165.553 -116.64)"/><path style="fill:#005f27;fill-opacity:1;stroke:#005f27;stroke-width:.05;stroke-linecap:butt;stroke-linejoin:miter;stroke-miterlimit:4;stroke-opacity:1;stroke-dasharray:none" d="M207.992 304.434c.024-8.256 3.98-16.513 9.114-24.769l13.832-19.514 14.475-.858.644-1.823c1.884-.366 2.581.117 2.466 1.18 0 0-1.115 8.253-2.574 12.116-1.955 5.18-8.149 14.475-8.149 14.475s-1.837-.089-2.68.214c-10.385 3.734-18.085 12.653-27.128 18.979z" transform="translate(-165.553 -116.64)"/><path style="fill:#feff00;fill-opacity:1;stroke:#feff00;stroke-width:.05;stroke-linecap:butt;stroke-linejoin:miter;stroke-miterlimit:4;stroke-opacity:1;stroke-dasharray:none" d="M206.887 303.168c.024-8.257 3.978-16.513 9.114-24.769l13.831-19.515 14.476-.857.643-1.823c1.884-.366 2.581.117 2.466 1.18 0 0-1.115 8.253-2.573 12.116-1.956 5.18-8.15 14.475-8.15 14.475s-1.836-.09-2.68.214c-10.385 3.734-18.085 12.653-27.127 18.979z" transform="translate(-165.553 -116.64)"/><path style="fill:#005f27;fill-opacity:1;stroke:#005f27;stroke-width:.05;stroke-linecap:butt;stroke-linejoin:miter;stroke-miterlimit:4;stroke-opacity:1;stroke-dasharray:none" d="m207.533 275.624 13.296-12.974 2.144-.107s14.456-21.49 23.16-34.955c.54-.836-.266-2.203-1.072-2.787-1.739-1.26-4.322-.713-6.433-.322-1.999.37-3.571 2.134-5.576 2.466-3.186.527-9.65-.858-9.65-.858s-6.815 12.037-9.65 18.335c-2.572 5.715-5.619 11.404-6.648 17.585-.746 4.48.429 13.617.429 13.617z" transform="translate(-165.553 -116.64)"/><path style="fill:#feff00;fill-opacity:1;stroke:#feff00;stroke-width:.05;stroke-linecap:butt;stroke-linejoin:miter;stroke-miterlimit:4;stroke-opacity:1;stroke-dasharray:none" d="m206.255 273.76 13.296-12.973 2.144-.107s14.456-21.49 23.16-34.955c.541-.836-.265-2.204-1.072-2.788-1.739-1.26-4.322-.713-6.433-.322-1.998.37-3.57 2.135-5.576 2.466-3.186.527-9.65-.857-9.65-.857s-6.815 12.037-9.65 18.335c-2.572 5.714-5.619 11.403-6.648 17.584-.746 4.48.43 13.618.43 13.618z" transform="translate(-165.553 -116.64)"/></g><g><path style="fill:none;stroke:#feff00;stroke-width:2.5;stroke-linecap:butt;stroke-linejoin:miter;stroke-miterlimit:4;stroke-opacity:1;stroke-dasharray:none" d="M720.577 339.526c.031 5.165-46.093-37.117-59.442-74.605-8.57-24.067-16.827-49.068-17.553-74.605-.74-26.061 3.315-53.056 13.559-77.031 13.5-31.6 34.255-61.263 61.01-83.097 24.09-19.66 58.601-35.821 84.31-39.425 3.825-.537 10.88-.785 10.88-.785" transform="translate(-635.62 27.467)"/><path style="fill:none;stroke:#005f27;stroke-width:2.5;stroke-linecap:butt;stroke-linejoin:miter;stroke-miterlimit:4;stroke-opacity:1;stroke-dasharray:none" d="M722.776 342.284c.032 5.165-46.093-37.117-59.441-74.605-8.57-24.067-16.827-49.068-17.553-74.605-.741-26.061 3.315-53.056 13.558-77.031 13.501-31.6 34.256-61.263 61.01-83.097 24.09-19.66 58.602-35.822 84.31-39.426 3.825-.536 10.881-.784 10.881-.784" transform="translate(-635.62 27.467)"/><path style="fill:none;stroke:#feff00;stroke-width:1px;stroke-linecap:butt;stroke-linejoin:miter;stroke-opacity:1" d="M816.41-2.565S801.179-1.164 793.787.683c-6.716 1.678-14.283 4.948-19.53 7.063-14.747 5.943-28.286 14.747-41.245 23.958-9.232 6.562-17.6 14.303-25.778 22.14-7.798 7.471-22.14 23.655-22.14 23.655" transform="translate(-635.62 27.467)"/><path style="fill:none;stroke:#005f27;stroke-width:2.5;stroke-linecap:butt;stroke-linejoin:miter;stroke-miterlimit:4;stroke-opacity:1;stroke-dasharray:none" d="M819.595 1.377S804.362 2.78 796.97 4.625c-6.716 1.678-14.282 4.949-19.53 7.063-14.747 5.943-28.285 14.748-41.245 23.959-9.232 6.562-17.6 14.302-25.778 22.139-7.798 7.472-22.139 23.655-22.139 23.655" transform="translate(-635.62 27.467)"/><path style="fill:none;stroke:#feff00;stroke-width:2.5;stroke-linecap:butt;stroke-linejoin:miter;stroke-miterlimit:4;stroke-opacity:1;stroke-dasharray:none" d="M813.985 8.656s-14.998 2.214-22.317 4.13c-7.07 1.852-15.203 4.78-20.748 7.09-11.17 4.655-21.4 11.453-31.237 18.5-6.819 4.885-13.107 10.515-19.106 16.377-4.762 4.653-13.344 14.86-13.344 14.86" transform="translate(-635.62 27.467)"/><path style="fill:none;stroke:#005f27;stroke-width:2.5;stroke-linecap:butt;stroke-linejoin:miter;stroke-miterlimit:4;stroke-opacity:1;stroke-dasharray:none" d="M815.804 12.447s-14.998 2.214-22.316 4.13c-7.07 1.852-15.204 4.78-20.748 7.09-11.17 4.655-21.453 11.38-31.238 18.5-6.543 4.762-12.385 10.44-18.196 16.074-4.98 4.829-14.254 15.163-14.254 15.163" transform="translate(-635.62 27.467)"/><path style="fill:none;stroke:#feff00;stroke-width:2.5;stroke-linecap:butt;stroke-linejoin:miter;stroke-miterlimit:4;stroke-opacity:1;stroke-dasharray:none" d="M807.313 19.27s-11.36 3.112-16.966 4.91c-6.028 1.932-13.24 4.27-17.91 6.311-9.25 4.043-18.043 9.178-26.385 14.86-6.355 4.33-12.282 9.302-17.894 14.558-4.228 3.96-11.827 12.737-11.827 12.737" transform="translate(-635.62 27.467)"/><path style="fill:none;stroke:#005f27;stroke-width:2.5;stroke-linecap:butt;stroke-linejoin:miter;stroke-miterlimit:4;stroke-opacity:1;stroke-dasharray:none" d="M811.255 22s-11.36 3.112-16.965 4.91c-6.028 1.932-13.24 4.27-17.911 6.31-9.249 4.044-18.042 9.179-26.385 14.861-6.355 4.329-12.281 9.301-17.893 14.557-4.229 3.961-11.828 12.738-11.828 12.738" transform="translate(-635.62 27.467)"/><path style="fill:none;stroke:#feff00;stroke-width:2.5;stroke-linecap:butt;stroke-linejoin:miter;stroke-miterlimit:4;stroke-opacity:1;stroke-dasharray:none" d="M708.446 100.547s12.214-18.944 19.712-27.294c6.362-7.083 13.47-13.592 21.23-19.106 7.523-5.347 15.817-9.618 24.261-13.344 8.892-3.924 27.598-9.402 27.598-9.402" transform="translate(-635.62 27.467)"/><path style="fill:none;stroke:#005f27;stroke-width:2.5;stroke-linecap:butt;stroke-linejoin:miter;stroke-miterlimit:4;stroke-opacity:1;stroke-dasharray:none" d="M711.478 104.49s12.214-18.945 19.713-27.295c6.361-7.083 13.469-13.591 21.23-19.106 7.523-5.346 15.817-9.618 24.261-13.344 8.891-3.923 27.598-9.401 27.598-9.401" transform="translate(-635.62 27.467)"/><path style="fill:none;stroke:#feff00;stroke-width:2.5;stroke-linecap:butt;stroke-linejoin:miter;stroke-miterlimit:4;stroke-opacity:1;stroke-dasharray:none" d="M790.026 49.597s-16.204 6.013-23.655 10.312c-8.704 5.021-16.764 11.203-24.262 17.893-4.43 3.952-8.549 8.306-12.13 13.04-3.641 4.812-9.402 15.468-9.402 15.468" transform="translate(-635.62 27.467)"/><path style="fill:none;stroke:#005f27;stroke-width:2.5;stroke-linecap:butt;stroke-linejoin:miter;stroke-miterlimit:4;stroke-opacity:1;stroke-dasharray:none" d="M793.514 53.388s-16.205 6.013-23.656 10.312c-8.704 5.021-16.763 11.203-24.261 17.893-4.43 3.952-8.55 8.306-12.131 13.04-3.64 4.812-9.402 15.467-9.402 15.467M962.297 342.066c-.031 5.164 46.093-37.118 59.441-74.606 8.57-24.067 16.827-49.068 17.553-74.605.741-26.061-3.315-53.056-13.558-77.031-13.5-31.6-34.256-61.263-61.01-83.097-24.09-19.66-58.602-35.821-84.31-39.425-3.825-.537-17.314-.785-17.314-.785" transform="translate(-635.62 27.467)"/><path style="fill:none;stroke:#feff00;stroke-width:2.5;stroke-linecap:butt;stroke-linejoin:miter;stroke-miterlimit:4;stroke-opacity:1;stroke-dasharray:none" d="M862.506-3.162s15.224 1.44 22.625 3.248c7.141 1.743 15.57 5.163 20.817 7.277 14.747 5.943 27.94 11.028 40.387 19.241 9.954 6.567 18.54 15.089 26.85 23.64 10.386 10.685 28.573 34.378 28.573 34.378" transform="translate(-635.62 27.467)"/><path style="fill:none;stroke:#005f27;stroke-width:2.5;stroke-linecap:butt;stroke-linejoin:miter;stroke-miterlimit:4;stroke-opacity:1;stroke-dasharray:none" d="M862.324-.078s8.405.197 21.338 2.605c6.806 1.268 14.283 4.949 19.53 7.063 14.748 5.943 32.404 12.72 46.821 22.243 10.287 6.795 19.27 15.51 27.708 24.498 8.946 9.527 24.07 30.947 24.07 30.947" transform="translate(-635.62 27.467)"/><path style="fill:none;stroke:#feff00;stroke-width:2.5;stroke-linecap:butt;stroke-linejoin:miter;stroke-miterlimit:4;stroke-opacity:1;stroke-dasharray:none" d="M862.359 7.415s14.998 2.214 22.317 4.131c7.07 1.852 15.203 4.78 20.748 7.09 11.17 4.655 21.285 10.406 31.237 16.784 7.625 4.888 14.748 10.549 21.68 16.377 9 7.568 25.781 24.082 25.781 24.082" transform="translate(-635.62 27.467)"/><path style="fill:none;stroke:#005f27;stroke-width:2.5;stroke-linecap:butt;stroke-linejoin:miter;stroke-miterlimit:4;stroke-opacity:1;stroke-dasharray:none" d="M865.9 11.206s14.999 2.214 22.317 4.131c7.07 1.852 15.204 4.78 20.748 7.09 11.17 4.655 21.068 11.94 31.238 18.5 8.056 5.197 16.17 10.39 23.557 16.502 7.64 6.322 21.33 20.74 21.33 20.74" transform="translate(-635.62 27.467)"/><path style="fill:none;stroke:#005f27;stroke-width:2.5;stroke-linecap:butt;stroke-linejoin:miter;stroke-miterlimit:4;stroke-opacity:1;stroke-dasharray:none" d="M870.142 22.314s11.36 3.112 16.965 4.91c6.028 1.932 13.19 4.388 17.911 6.311 9.62 3.92 20.212 9.196 27.457 15.075 5.256 4.264 10.303 7.733 15.32 11.77 6.173 4.966 18.181 15.31 18.181 15.31" transform="translate(-635.62 27.467)"/><path style="fill:none;stroke:#feff00;stroke-width:2.5;stroke-linecap:butt;stroke-linejoin:miter;stroke-miterlimit:4;stroke-opacity:1;stroke-dasharray:none" d="M970.525 102.681s-12.214-18.944-19.713-27.294c-6.36-7.083-13.468-13.592-21.229-19.106-7.523-5.347-15.817-9.618-24.261-13.344-8.892-3.924-27.598-9.402-27.598-9.402" transform="translate(-635.62 27.467)"/><path style="fill:none;stroke:#005f27;stroke-width:2.5;stroke-linecap:butt;stroke-linejoin:miter;stroke-miterlimit:4;stroke-opacity:1;stroke-dasharray:none" d="M971.132 106.624s-12.214-18.945-19.713-27.295c-6.361-7.083-13.469-13.591-21.23-19.106-7.523-5.346-15.817-9.618-24.261-13.344-8.891-3.923-27.598-9.401-27.598-9.401" transform="translate(-635.62 27.467)"/><path style="fill:none;stroke:#feff00;stroke-width:2.5;stroke-linecap:butt;stroke-linejoin:miter;stroke-miterlimit:4;stroke-opacity:1;stroke-dasharray:none" d="M888.945 48.699s16.204 6.013 23.655 10.311c8.704 5.021 16.764 11.203 24.262 17.893 4.43 3.953 8.549 8.306 12.13 13.04 3.641 4.812 9.402 15.468 9.402 15.468" transform="translate(-635.62 27.467)"/><path style="fill:none;stroke:#005f27;stroke-width:2.5;stroke-linecap:butt;stroke-linejoin:miter;stroke-miterlimit:4;stroke-opacity:1;stroke-dasharray:none" d="M892.13 53.096s16.204 6.013 23.654 10.312c8.705 5.02 16.764 11.203 24.262 17.893 4.43 3.952 8.55 8.306 12.131 13.04 3.64 4.812 9.402 15.467 9.402 15.467" transform="translate(-635.62 27.467)"/><path d="M888.945 48.699s16.204 6.013 23.655 10.311c8.704 5.021 16.764 11.203 24.262 17.893 4.43 3.953 8.549 8.306 12.13 13.04 3.641 4.812 9.402 15.468 9.402 15.468" style="fill:none;stroke:#feff00;stroke-width:2.5;stroke-linecap:butt;stroke-linejoin:miter;stroke-miterlimit:4;stroke-opacity:1;stroke-dasharray:none" transform="translate(-635.62 27.467)"/><path d="M970.525 102.681s-12.214-18.944-19.713-27.294c-6.36-7.083-13.468-13.592-21.229-19.106-7.523-5.347-15.817-9.618-24.261-13.344-8.892-3.924-27.598-9.402-27.598-9.402M867.53 19.102s11.36 3.112 16.965 4.91c6.028 1.932 13.241 4.27 17.911 6.311 9.25 4.043 18.7 7.634 27.243 12.93 6.374 3.952 11.952 9.072 17.679 13.914 5.392 4.56 15.687 14.239 15.687 14.239" style="fill:none;stroke:#feff00;stroke-width:2.5;stroke-linecap:butt;stroke-linejoin:miter;stroke-miterlimit:4;stroke-opacity:1;stroke-dasharray:none" transform="translate(-635.62 27.467)"/><path d="M862.359 7.415s14.998 2.214 22.317 4.131c7.07 1.852 15.203 4.78 20.748 7.09 11.17 4.655 21.285 10.406 31.237 16.784 7.625 4.888 14.748 10.549 21.68 16.377 9 7.568 25.781 24.082 25.781 24.082" style="fill:none;stroke:#feff00;stroke-width:2.5;stroke-linecap:butt;stroke-linejoin:miter;stroke-miterlimit:4;stroke-opacity:1;stroke-dasharray:none" transform="translate(-635.62 27.467)"/><path d="M862.506-3.162s15.224 1.44 22.625 3.248c7.141 1.743 15.57 5.163 20.817 7.277 14.747 5.943 27.94 11.028 40.387 19.241 9.954 6.567 18.54 15.089 26.85 23.64 10.386 10.685 28.573 34.378 28.573 34.378" style="fill:none;stroke:#feff00;stroke-width:2.5;stroke-linecap:butt;stroke-linejoin:miter;stroke-miterlimit:4;stroke-opacity:1;stroke-dasharray:none" transform="translate(-635.62 27.467)"/><path d="M959.497 339.093c-.031 5.165 46.093-37.117 59.441-74.605 8.57-24.067 16.827-49.068 17.554-74.605.74-26.061-3.316-53.056-13.559-77.031-13.5-31.6-34.255-61.263-61.01-83.097-24.09-19.66-58.602-35.822-84.31-39.426-3.825-.536-16.027-.784-16.027-.784" style="fill:none;stroke:#feff00;stroke-width:2.5;stroke-linecap:butt;stroke-linejoin:miter;stroke-miterlimit:4;stroke-opacity:1;stroke-dasharray:none" transform="translate(-635.62 27.467)"/></g></svg>