<svg xmlns="http://www.w3.org/2000/svg" width="228" height="217"><path style="fill:purple;fill-opacity:1;fill-rule:nonzero;stroke:none" d="M-5.168 60.516a58.278 43.944 0 1 1 116.555-.306" transform="matrix(.59012 -.83216 1.09295 .77506 17.098 58.124)"/><path style="fill:purple;fill-opacity:1;fill-rule:nonzero;stroke:none" d="M-5.168 60.516a58.278 43.944 0 1 1 116.555-.306" transform="matrix(-.59012 .83216 -1.09295 -.77506 195.25 96.238)"/><g style="fill:purple"><path style="fill:purple" d="M93.183 90.667c-4.836.282-8.156-.135-12.01-1.511-2.997-1.07-7.046-3.58-9.257-5.738-2.305-2.251-4.793-6.126-6.02-9.377-1.674-4.438-2.008-7.15-1.681-13.624.296-5.855 1.038-9.3 2.69-12.5 1.254-2.43 3.251-5.474 4.438-6.766 1.186-1.292 4.265-3.422 6.841-4.734 2.577-1.311 7.077-2.665 10-3.008 3.072-.36 7.216-.118 9.816.573 2.475.658 5.513 2.135 6.75 3.282l2.25 2.085v-2.175c0-2.05.453-2.174 8-2.174h8v54h-8c-6.363 0-8-.3-8-1.466 0-1.17-.723-1.04-3.567.638-2.365 1.395-5.82 2.236-10.25 2.495zm.117-15.67c1.54.001 4.147-.694 5.794-1.546 1.647-.851 3.873-2.989 4.946-4.75 1.074-1.76 1.954-4.822 1.956-6.803.002-2.097-.95-5.022-2.279-7-1.445-2.152-3.787-3.922-6.384-4.828-3.573-1.244-4.6-1.24-7.952.036-2.214.843-4.812 2.893-6.115 4.827C81.82 57.08 81 59.79 81 62.425c0 2.272.728 5.169 1.617 6.438.889 1.27 3.026 3.168 4.75 4.219 1.723 1.05 4.393 1.912 5.933 1.914zm212.207 15.96c-2.754-.025-6.635-.627-8.625-1.338-1.99-.71-5.192-2.265-7.116-3.455-1.925-1.189-4.614-3.85-5.976-5.913-1.363-2.063-3.042-5.466-3.731-7.562-.69-2.096-1.241-7.116-1.226-11.155.021-5.288.642-8.767 2.218-12.43 1.203-2.798 3.984-6.71 6.179-8.693 2.195-1.983 5.404-4.186 7.13-4.896 1.727-.71 5.089-1.612 7.47-2.005 2.382-.392 6.291-.419 8.687-.06 2.396.36 5.96 1.742 7.92 3.072 3.393 2.302 3.563 2.324 3.563.448 0-1.796.707-1.97 8-1.97h8v54h-8c-7.547 0-8-.123-8-2.174V84.65l-2.34 2.199c-1.287 1.209-3.871 2.637-5.743 3.174-1.872.537-5.657.956-8.41.932zm2.993-15.984c1.65.011 4.386-.826 6.08-1.859s3.832-3.462 4.75-5.397c.919-1.936 1.67-4.23 1.67-5.098 0-.868-.713-3.36-1.585-5.54-.871-2.178-2.566-4.603-3.764-5.388-1.2-.786-3.558-1.731-5.242-2.101-1.684-.37-4.377-.174-5.985.435-1.608.61-3.942 2.061-5.185 3.226-1.244 1.166-2.732 3.866-3.307 6.001-.884 3.283-.722 4.55 1.049 8.209 1.312 2.71 3.294 4.917 5.307 5.91 1.766.87 4.562 1.592 6.212 1.602zM36 89.72c-5.622.13-10.831-.282-12.761-1.009-1.794-.675-4.879-2.518-6.856-4.096-1.977-1.577-4.437-4.723-5.467-6.991-1.03-2.268-1.882-6.035-1.894-8.373L9 65h9.5c8.604 0 9.5.176 9.5 1.865 0 1.026.933 3.051 2.073 4.5C31.42 73.08 33.113 74 34.918 74c1.524 0 3.517-.823 4.427-1.829.91-1.006 1.655-2.806 1.655-4s-.807-2.978-1.794-3.965c-.987-.987-5.481-3.317-9.987-5.177-4.505-1.86-9.831-4.733-11.835-6.385-2.003-1.651-4.474-4.834-5.491-7.073-1.017-2.24-1.859-5.773-1.871-7.853-.012-2.08.677-5.455 1.531-7.5.854-2.045 2.767-4.997 4.25-6.56 1.483-1.562 4.497-3.807 6.697-4.988 3.185-1.709 5.732-2.148 12.5-2.158 7.237-.01 9.155.36 12.91 2.488 2.426 1.375 5.704 4.108 7.283 6.074 1.834 2.283 3.167 5.444 3.69 8.75L59.701 39h-9.375c-8.852 0-9.424-.128-10.247-2.291-.479-1.26-1.587-2.885-2.462-3.612-.954-.792-2.61-1.065-4.138-.681-1.4.352-3.053 1.75-3.672 3.108-.931 2.044-.796 2.838.784 4.62 1.05 1.183 5.216 3.669 9.257 5.523 4.042 1.855 9.332 4.737 11.757 6.405 2.467 1.697 5.331 4.843 6.505 7.144 1.682 3.296 2.021 5.457 1.713 10.904-.314 5.557-.924 7.56-3.353 10.998-1.634 2.312-4.77 5.144-6.97 6.293-3.111 1.625-6.111 2.138-13.5 2.308zM139.885 89H132V35h8c6.628 0 8 .271 8 1.582 0 1.364.446 1.312 3.25-.379 1.788-1.078 4.894-2.252 6.902-2.608 2.01-.357 5.55-.222 7.871.299 2.49.56 5.6 2.287 7.593 4.218l3.375 3.271 2.754-2.57c1.515-1.412 3.655-3.021 4.755-3.575 1.1-.553 3.834-1.31 6.075-1.68 2.31-.383 6.17-.148 8.909.542 3.22.81 6.08 2.465 8.57 4.953 2.72 2.72 4.036 5.137 4.84 8.89C213.504 50.78 214 61.177 214 71.05V89h-17V72.968c0-11.661-.391-16.968-1.434-19.465-.915-2.19-2.336-3.658-3.926-4.057-1.371-.344-3.763-.018-5.316.726-1.74.833-3.282 2.69-4.018 4.84-.708 2.07-1.216 9.691-1.25 18.738L181 89h-15.798l-.374-16.75c-.243-10.891-.811-17.529-1.624-18.977-.687-1.225-2.166-2.717-3.286-3.317-1.12-.599-3.374-.795-5.01-.436-1.637.36-3.739 1.818-4.671 3.242-1.379 2.103-1.768 5.736-2.082 19.413L147.769 89h-7.884zm90.615 0H222V35h17v54h-8.5zm24.934 0H247V35h8.5c6.963 0 8.5.277 8.5 1.53 0 1.265.476 1.188 2.75-.446 1.512-1.087 4.438-2.275 6.5-2.641l3.75-.666V49.824l-3.997.676c-2.199.37-5.011 1.495-6.25 2.497-2.153 1.741-2.267 2.578-2.569 18.913L263.868 89h-8.434zM230.5 30H222V18h17v12h-8.5z" transform="matrix(.62945 -.00197 0 .64865 -4.76 157.904)"/><path style="fill:purple" d="M90.5 90.95c-2.2-.02-5.64-.623-7.643-1.34-2.003-.715-5.153-2.175-7-3.244-1.846-1.069-4.807-4.096-6.58-6.728-1.773-2.63-3.683-6.438-4.244-8.46-.562-2.023-1.024-6.249-1.027-9.39-.004-3.269.846-7.99 1.984-11.033 1.22-3.26 3.64-6.908 6.25-9.42 2.343-2.256 5.215-4.59 6.383-5.186 1.168-.596 4.317-1.575 6.998-2.176 2.681-.6 7.012-.799 9.625-.44 2.613.36 6.327 1.724 8.252 3.03 3.347 2.271 3.502 2.29 3.502.407 0-1.796.707-1.97 8-1.97h8v54h-8c-7.547 0-8-.123-8-2.174V84.65l-2.25 2.079c-1.238 1.143-4.05 2.569-6.25 3.169-2.2.6-5.8 1.073-8 1.052zm2.846-15.99c2.115.022 5.091-.696 6.614-1.596 1.523-.9 3.505-2.881 4.404-4.404.9-1.523 1.63-4.5 1.621-6.614-.008-2.115-.577-4.957-1.264-6.316-.688-1.358-2.819-3.536-4.736-4.838-2.787-1.895-4.379-2.27-7.95-1.879-3.51.385-5.17 1.258-7.75 4.074C81.574 56.343 81 57.77 81 61.535c0 2.51.68 5.88 1.513 7.49.831 1.608 2.744 3.593 4.25 4.41 1.505.817 4.468 1.503 6.583 1.525zM306 90.886c-2.475-.014-6.539-.654-9.03-1.422-2.492-.768-6.445-3.035-8.785-5.038-2.34-2.002-5.075-5.28-6.078-7.283-1.003-2.004-2.15-4.993-2.549-6.643-.399-1.65-.705-5.706-.68-9.014.024-3.308.72-7.927 1.544-10.266.825-2.339 2.713-5.842 4.196-7.785 1.482-1.944 4.547-4.62 6.811-5.946 2.264-1.327 6.547-2.934 9.518-3.571 4.107-.88 6.655-.878 10.637.013 2.879.645 6.4 2.252 7.826 3.573l2.59 2.4V37.41c0-2.47.077-2.491 7.75-2.202l7.75.292v53l-7.75.292c-7.404.28-7.75.194-7.75-1.905 0-2.109-.078-2.127-1.934-.447-1.063.963-3.65 2.363-5.75 3.111-2.099.749-5.841 1.35-8.316 1.335zm3.283-16.187c3.228-.278 5.59-1.17 7.266-2.745 1.367-1.284 2.998-4.049 3.626-6.144.863-2.882.854-4.771-.04-7.756-.651-2.17-2.343-4.859-3.76-5.974-1.418-1.115-4.078-2.309-5.911-2.653-1.834-.344-4.93-.098-6.882.546s-4.417 2.391-5.48 3.883c-1.061 1.491-2.23 4.311-2.597 6.266-.432 2.305-.132 4.835.854 7.194.836 2.002 3.01 4.575 4.83 5.718 2.509 1.574 4.47 1.977 8.094 1.665zM34.5 89.951c-3.85-.022-8.688-.641-10.752-1.378-2.064-.736-5.263-2.491-7.11-3.9-1.846-1.408-4.17-4.273-5.166-6.367-.995-2.093-2.015-5.944-2.268-8.556L8.746 65h9.627c9.351 0 9.627.065 9.627 2.277 0 1.253.7 3.278 1.557 4.5C30.642 73.327 32.135 74 34.485 74c1.855 0 4.08-.707 4.944-1.571.864-.865 1.571-2.82 1.571-4.345 0-1.526-.795-3.494-1.767-4.373-.972-.88-5.684-3.24-10.47-5.243-5.35-2.24-10.185-5.082-12.553-7.38-2.448-2.376-4.32-5.409-5.135-8.32-.776-2.771-1.006-6.217-.583-8.722.385-2.279 2.12-6.002 3.854-8.274 1.735-2.272 5.404-5.282 8.154-6.689 4.043-2.068 6.44-2.56 12.527-2.57 6.125-.01 8.45.463 12.49 2.542 2.917 1.5 6.148 4.238 7.834 6.637 1.746 2.483 3.073 5.889 3.39 8.695L59.26 39h-9.064c-8.175 0-9.124-.195-9.695-1.994-.348-1.097-1.31-2.672-2.139-3.5-.828-.828-2.529-1.506-3.78-1.506-1.25 0-3.1.914-4.11 2.03-1.435 1.586-1.634 2.604-.905 4.647.707 1.984 3.416 3.872 11.21 7.81 5.653 2.856 11.671 6.502 13.373 8.103 1.703 1.6 3.715 4.358 4.472 6.128.757 1.77 1.367 5.37 1.355 8-.012 2.63-.841 6.586-1.843 8.79-1.002 2.205-3.454 5.443-5.45 7.196-1.997 1.753-5.33 3.659-7.408 4.236-2.077.577-6.927 1.032-10.777 1.01zM140 89h-8V35h7.594c6.691 0 7.654.232 8.104 1.953.504 1.926.548 1.925 3.247-.07 1.506-1.114 4.64-2.452 6.964-2.974 2.85-.64 5.57-.588 8.348.16 2.28.614 5.655 2.643 7.55 4.539l3.43 3.429 2.244-2.422c1.234-1.332 3.544-3.08 5.132-3.885 1.588-.804 4.482-1.75 6.432-2.103 2.103-.38 5.572-.039 8.528.839 3.008.893 6.21 2.777 8.084 4.757 1.707 1.802 3.71 4.402 4.45 5.777.966 1.793 1.453 8.369 1.721 23.25l.374 20.75h-17.076l-.313-18.09c-.305-17.627-.374-18.14-2.674-20-1.298-1.05-3.41-1.91-4.694-1.91-1.283 0-3.596 1.085-5.14 2.412l-2.805 2.411-.333 17.589L180.835 89H165l-.024-14.75c-.013-8.113-.423-16.471-.911-18.575-.489-2.104-1.716-4.452-2.727-5.218-1.01-.767-3.026-1.408-4.477-1.425-1.452-.018-3.611.756-4.8 1.718-1.188.963-2.577 3.55-3.087 5.75-.51 2.2-.937 10.412-.95 18.25L148 89h-8zm90.5 0H222V35h17v54h-8.5zm25.469 0c-5.561 0-8.181-.39-8.518-1.267-.268-.697-.366-12.735-.219-26.75L247.5 35.5l7.765-.292c6.088-.23 7.887.023 8.327 1.17.477 1.244 1.04 1.184 3.735-.392 1.745-1.021 4.523-1.998 6.173-2.171l3-.315.288 8.116.289 8.116-4.107.657c-2.334.373-5.156 1.706-6.538 3.088-2.38 2.38-2.432 2.786-2.432 18.978V89h-8.031zM230.5 30H222V18h17v12h-8.5z" transform="matrix(.62945 -.00197 0 .64865 -4.76 157.904)"/><path style="fill:purple" d="M90.5 90.908c-1.1-.024-4.118-.613-6.708-1.31-2.589-.697-6.414-2.46-8.5-3.916-2.085-1.457-4.838-4.196-6.116-6.085-1.278-1.89-2.965-5.568-3.75-8.175C64.642 68.815 64 64.87 64 62.657c0-2.214.736-6.649 1.635-9.854 1.059-3.773 2.986-7.363 5.463-10.177 2.267-2.576 5.946-5.26 9.029-6.585 4.226-1.818 6.623-2.173 12.787-1.89 5.876.27 8.293.853 10.723 2.586 3.111 2.22 3.14 2.222 3.668.205.483-1.847 1.203-2.006 7.863-1.737l7.332.295v53l-7.75.292c-7.267.274-7.75.163-7.75-1.78V84.94l-2.75 1.995c-1.512 1.097-4.775 2.45-7.25 3.005-2.475.556-5.4.992-6.5.968zm2.8-15.912c2.09.002 5.12-.679 6.733-1.513 1.613-.834 3.616-2.837 4.45-4.45.834-1.614 1.501-4.869 1.482-7.233-.02-2.365-.613-5.34-1.318-6.61-.705-1.27-2.602-3.18-4.214-4.244-1.613-1.063-4.643-1.936-6.733-1.94-2.09-.003-5.12.677-6.733 1.51-1.613.835-3.688 2.973-4.612 4.75-.923 1.78-1.68 5.036-1.683 7.238-.003 2.203.548 5.04 1.225 6.304.677 1.264 2.664 3.173 4.417 4.242 1.752 1.068 4.896 1.944 6.986 1.946zM305.2 90.9c-.935-.056-3.394-.5-5.466-.988-2.07-.488-5.515-1.78-7.653-2.87-2.138-1.091-5.223-3.604-6.855-5.585-1.633-1.98-3.701-5.87-4.597-8.643-.896-2.774-1.629-7.675-1.629-10.891 0-3.39.837-8.084 1.99-11.168 1.198-3.2 3.687-6.983 6.25-9.496 2.343-2.297 6.23-4.87 8.636-5.718 2.406-.847 7.273-1.541 10.815-1.541s7.423.506 8.625 1.125c1.201.619 3.197 2.047 4.434 3.174l2.25 2.05v-2.675c0-2.661.036-2.674 7.5-2.674h7.5v54h-7.5c-7.294 0-7.5-.067-7.5-2.452v-2.453l-2.574 2.386c-1.415 1.312-4.812 2.865-7.549 3.452-2.736.587-5.74 1.022-6.676.967zm2.53-15.9c2.454 0 5.761-.768 7.35-1.706 1.588-.938 3.57-3.144 4.404-4.901.834-1.757 1.516-4.748 1.516-6.646 0-1.937-1-4.936-2.28-6.835-1.254-1.86-3.392-3.945-4.75-4.633-1.359-.687-4.045-1.254-5.97-1.26-1.925-.007-4.99.897-6.81 2.007-1.82 1.11-3.958 3.568-4.75 5.464-.792 1.895-1.44 4.608-1.44 6.028s.666 3.87 1.48 5.443c.814 1.574 2.675 3.802 4.135 4.95 1.791 1.41 4.106 2.089 7.116 2.089zM36.5 89.627c-4.4.155-9.75-.208-11.891-.806-2.278-.636-5.864-3-8.65-5.704-3.062-2.97-5.15-6.043-5.854-8.617-.601-2.2-1.096-5.254-1.1-6.788L9 64.925l9.189.287 9.189.288.838 3.245c.461 1.784 1.937 3.964 3.28 4.844 1.817 1.191 3.15 1.365 5.222.681 1.53-.505 3.394-2.174 4.142-3.709 1.208-2.48 1.143-3.083-.592-5.426-1.173-1.584-5.306-4.074-10.36-6.243-4.624-1.985-10.346-5.36-12.715-7.5-2.692-2.434-4.873-5.566-5.82-8.36-.938-2.77-1.264-5.812-.858-8 .36-1.943 1.611-5.24 2.78-7.326 1.167-2.087 4.096-5.101 6.508-6.699 2.411-1.597 6.83-3.412 9.82-4.032 3.94-.818 6.814-.833 10.455-.052 2.762.593 6.237 1.714 7.722 2.492 1.485.778 4.102 2.915 5.816 4.75 1.714 1.834 3.626 4.865 4.25 6.734C58.49 32.77 59 35.356 59 36.65c0 2.29-.225 2.35-8.75 2.33l-8.75-.022-1.5-3.229c-1.153-2.481-2.223-3.298-4.625-3.532-1.896-.185-3.763.335-4.75 1.321-.894.894-1.625 2.649-1.625 3.9 0 1.25.79 2.988 1.755 3.861.965.873 5.577 3.349 10.25 5.5 4.672 2.152 10.022 5.201 11.887 6.776 1.866 1.575 4.219 4.682 5.228 6.905 1.01 2.222 1.846 5.672 1.858 7.665.012 1.994-.668 5.58-1.512 7.972-.843 2.39-2.53 5.416-3.75 6.723-1.219 1.307-4.016 3.31-6.216 4.451-2.86 1.484-6.28 2.156-12 2.357zM139.936 89H132V35h7.5c7.464 0 7.5.013 7.5 2.674v2.675l2.25-2.108c1.238-1.16 3.517-2.588 5.065-3.174C155.863 34.48 159.097 34 161.5 34c2.403 0 5.577.459 7.052 1.02 1.476.56 4 2.43 5.61 4.153l2.927 3.133 3.205-3.091c1.763-1.701 4.473-3.57 6.021-4.154 1.548-.583 5.054-1.061 7.79-1.061 2.964 0 6.524.79 8.81 1.956 2.108 1.076 4.997 3.34 6.42 5.03 1.422 1.69 2.926 4.747 3.342 6.793.416 2.047.771 12.046.79 22.221l.033 18.5-8.25.29-8.25.29V71.976c0-10.956-.413-17.892-1.15-19.29-.632-1.202-1.644-2.516-2.25-2.92-.605-.404-2.367-.741-3.916-.75-1.548-.008-3.639.426-4.645.964-1.006.538-2.326 2.405-2.934 4.15-.627 1.798-1.105 10.026-1.105 19.02V89h-16V73.15c0-8.995-.478-17.223-1.105-19.022-.608-1.744-1.928-3.61-2.934-4.15-1.006-.537-3.13-.978-4.72-.978-1.815 0-3.796.96-5.317 2.578-2.345 2.494-2.434 3.146-2.738 20L147.87 89h-7.935zm90.298-.21-8.267.291.267-26.79.266-26.791h16v53l-8.266.29zM256 89h-8V35h7.5c7.413 0 7.5.03 7.5 2.604v2.603l3.535-3.103c2.254-1.98 4.61-3.104 6.5-3.104H276v15.744l-3.967.635c-2.182.349-4.882 1.616-6 2.816C264.156 55.21 264 56.67 264 72.19V89h-8zm-25.5-59H222V18h17v12h-8.5z" transform="matrix(.62945 -.00197 0 .64865 -4.76 157.904)"/><path style="fill:purple" d="M34.568 89.967c-2.787-.018-7.537-.884-10.554-1.926-3.543-1.223-6.767-3.267-9.103-5.771-2.419-2.593-4.031-5.604-4.867-9.086-.687-2.864-.992-5.877-.678-6.696C9.81 65.331 11.84 65 18.494 65h8.556l.606 3.03c.333 1.667 1.733 3.917 3.11 5C32.143 74.115 34.129 75 35.18 75c1.051 0 3.015-1.105 4.365-2.455S42 69.232 42 68.182c0-1.05-1.08-2.988-2.398-4.307-1.319-1.319-6.086-3.906-10.593-5.749-4.507-1.843-9.795-4.755-11.751-6.473-1.956-1.717-4.164-4.577-4.907-6.355C11.608 43.519 11 40.01 11 37.5s.616-6.04 1.37-7.843c.753-1.803 3.225-4.866 5.492-6.807 2.268-1.94 5.866-4.051 7.996-4.69 2.13-.638 6.747-1.15 10.258-1.138 3.999.014 7.882.702 10.393 1.843 2.204 1.002 5.442 3.454 7.195 5.45 1.753 1.997 3.659 5.33 4.236 7.408.577 2.077 1.051 4.565 1.054 5.527.005 1.535-1.067 1.747-8.744 1.728l-8.75-.021-1.5-3.229c-1.062-2.285-2.289-3.319-4.2-3.54-1.486-.171-3.623.182-4.75.786-1.329.71-2.05 2.097-2.05 3.939 0 1.563.717 3.46 1.594 4.215.877.754 6.377 3.847 12.222 6.872 8.515 4.407 11.23 6.362 13.656 9.836 2.611 3.74 3.016 5.186 2.944 10.5-.057 4.202-.765 7.487-2.222 10.32-1.176 2.285-3.338 5.098-4.804 6.252-1.466 1.153-4.935 2.77-7.709 3.594-2.774.824-7.325 1.483-10.113 1.465zm58.099-.245c-4.713.129-9.59-.312-11.53-1.043-1.85-.696-5.171-2.783-7.382-4.64-2.237-1.878-5.036-5.626-6.314-8.456-1.263-2.796-2.597-7.167-2.964-9.714-.368-2.547-.145-7.154.496-10.24.64-3.085 2.596-7.738 4.346-10.34 1.75-2.602 5.277-6.02 7.838-7.596 3.229-1.987 6.495-3.032 10.65-3.41 3.297-.298 7.601-.241 9.564.127 1.964.368 4.933 1.817 6.6 3.219 2.925 2.461 3.029 2.477 3.029.46 0-1.933.56-2.089 7.5-2.089h7.5v53h-7.094c-6.195 0-7.158-.247-7.604-1.953-.497-1.902-.587-1.896-3.49.25-2.416 1.787-4.52 2.245-11.145 2.425zM95.5 75.326c1.65-.287 4.006-1.16 5.236-1.938 1.23-.779 3.004-2.588 3.942-4.02.99-1.51 1.706-4.55 1.704-7.236 0-2.81-.725-5.733-1.84-7.433-1.012-1.54-3.1-3.453-4.64-4.25-1.542-.797-4.513-1.447-6.602-1.445-2.09.002-5.186.849-6.88 1.882s-3.832 3.462-4.75 5.397c-.919 1.936-1.67 4.478-1.67 5.65 0 1.172.613 3.58 1.362 5.35.75 1.769 2.276 4.03 3.393 5.025 1.116.994 3.316 2.197 4.888 2.674 1.571.477 4.207.632 5.857.344zm210.816 14.63c-3.749-.024-8.504-.646-10.568-1.383-2.064-.736-5.291-2.513-7.172-3.948-1.882-1.434-4.632-5.085-6.113-8.111-1.695-3.465-2.88-7.846-3.2-11.83-.337-4.2.025-8.163 1.077-11.783.911-3.134 3.137-7.266 5.23-9.712 2.005-2.342 5.476-5.192 7.715-6.334 2.239-1.142 6.646-2.31 9.793-2.596 3.148-.285 7.33-.217 9.293.15 1.964.37 4.933 1.818 6.6 3.22 2.925 2.461 3.029 2.477 3.029.46 0-1.933.56-2.089 7.5-2.089h7.5v53h-7.5c-7.464 0-7.5-.013-7.5-2.674V83.65l-2.25 2.05c-1.238 1.127-3.233 2.555-4.434 3.174-1.202.619-5.252 1.105-9 1.081zm4.17-14.667c1.641-.303 4.027-1.234 5.3-2.069 1.274-.834 2.968-2.778 3.765-4.319.797-1.54 1.449-4.667 1.449-6.947 0-2.28-.736-5.391-1.636-6.914-.9-1.523-2.881-3.505-4.404-4.404-1.523-.9-4.776-1.636-7.23-1.636-3.009 0-5.324.68-7.115 2.088-1.46 1.149-3.321 3.377-4.135 4.95-.814 1.575-1.48 4.585-1.48 6.69 0 2.105.767 4.94 1.704 6.3.937 1.36 2.4 3.03 3.25 3.71.85.681 2.896 1.658 4.546 2.17 1.65.513 4.343.684 5.985.38zM140 89h-8V36h7.5c7.013 0 7.5.14 7.5 2.155 0 1.97.15 2.023 1.75.62.963-.843 3.19-2.263 4.95-3.154 1.76-.892 5.278-1.621 7.816-1.621 2.539 0 5.598.504 6.8 1.12 1.201.616 3.644 2.502 5.43 4.192l3.245 3.071 2.754-2.638c1.515-1.452 4.428-3.338 6.473-4.192 2.045-.854 5.645-1.543 8-1.531 2.355.012 6.082.848 8.282 1.859 2.2 1.01 4.77 2.704 5.712 3.764.941 1.06 2.404 3.585 3.25 5.61 1.21 2.897 1.538 7.952 1.538 23.755v20.074l-7.75-.292-7.75-.292-.5-17.72c-.42-14.918-.775-18.043-2.24-19.75-1.115-1.3-2.963-2.03-5.14-2.03-1.869 0-4.46.86-5.76 1.91-2.3 1.86-2.368 2.373-2.673 20L180.874 89h-15.748l-.313-17.898c-.279-15.935-.522-18.128-2.218-20-1.194-1.317-3.123-2.102-5.168-2.102-1.795 0-3.992.28-4.882.621-.89.342-2.277 1.894-3.082 3.45-1.111 2.15-1.463 6.81-1.463 19.38V89h-8zm90.667 0c-4.034 0-7.634-.3-8-.667-.367-.366-.667-12.291-.667-26.5V36h16v53h-7.333zM256 89h-8V36h7.5c7.047 0 7.5.132 7.5 2.187 0 2.124.083 2.108 2.844-.537 1.564-1.499 4.49-2.992 6.5-3.318l3.656-.594v8.131c0 8.049-.026 8.131-2.55 8.131-1.402 0-3.822.658-5.378 1.463-1.557.805-3.11 2.191-3.45 3.082-.342.89-.622 9.007-.622 18.037V89h-8zm-26-59h-8V18h16v12h-8z" transform="matrix(.62945 -.00197 0 .64865 -4.76 157.904)"/><path style="fill:purple" d="M30 90c-.733 0-1.033-.3-.667-.667a.946.946 0 0 1 1.334 0c.366.367.066.667-.667.667zm10 0c-.733 0-1.033-.3-.667-.667a.946.946 0 0 1 1.334 0c.366.367.066.667-.667.667zm44.5 0a.501.501 0 0 1-.5-.5c0-.275.225-.5.5-.5s.5.225.5.5-.225.5-.5.5zm14 0a.501.501 0 0 1-.5-.5c0-.275.225-.5.5-.5s.5.225.5.5-.225.5-.5.5zm201 0a.501.501 0 0 1-.5-.5c0-.275.225-.5.5-.5s.5.225.5.5-.225.5-.5.5zm13.5 0c-.733 0-1.033-.3-.667-.667a.946.946 0 0 1 1.334 0c.366.367.066.667-.667.667zM25.5 89a.501.501 0 0 1-.5-.5c0-.275.225-.5.5-.5s.5.225.5.5-.225.5-.5.5zm19 0a.501.501 0 0 1-.5-.5c0-.275.225-.5.5-.5s.5.225.5.5-.225.5-.5.5zm37 0a.501.501 0 0 1-.5-.5c0-.275.225-.5.5-.5s.5.225.5.5-.225.5-.5.5zm20 0a.501.501 0 0 1-.5-.5c0-.275.225-.5.5-.5s.5.225.5.5-.225.5-.5.5zm13.656-.199c-6.637.18-7.395.003-7.877-1.841-.515-1.97-.606-1.979-2.656-.257-1.537 1.29-1.433 1 .377-1.054l2.5-2.837.312 2.551c.298 2.433.649 2.568 7.5 2.896l7.188.344-7.344.198zm24.844-.15c-4.675 0-6.588-.173-4.25-.383 2.337-.21 6.162-.21 8.5 0 2.337.21.425.383-4.25.383zm33 0c-4.675 0-6.588-.173-4.25-.383 2.337-.21 6.162-.21 8.5 0 2.337.21.425.383-4.25.383zm32.719.148c-5.595.144-7.921-.163-8.278-1.093-.273-.712-.359-8.024-.19-16.25l.307-14.956.22 15.708.222 15.708 7.75.34 7.75.342-7.781.2zm25 0c-5.514.142-7.924-.168-8.268-1.066-.268-.697-.358-12.735-.2-26.75l.285-25.483.232 26.208.232 26.208 7.75.34 7.75.342-7.781.2zM256 88.65c-4.675 0-6.588-.173-4.25-.383 2.337-.21 6.162-.21 8.5 0 2.337.21.425.383-4.25.383zm39.5.349a.501.501 0 0 1-.5-.5c0-.275.225-.5.5-.5s.5.225.5.5-.225.5-.5.5zm34-.343c-4.4-.003-6.076-.18-3.724-.39 2.352-.212 5.952-.209 8 .006s.124.388-4.276.384zM22.5 88a.501.501 0 0 1-.5-.5c0-.275.225-.5.5-.5s.5.225.5.5-.225.5-.5.5zm25 0a.501.501 0 0 1-.5-.5c0-.275.225-.5.5-.5s.5.225.5.5-.225.5-.5.5zm31 0a.501.501 0 0 1-.5-.5c0-.275.225-.5.5-.5s.5.225.5.5-.225.5-.5.5zm215 0a.501.501 0 0 1-.5-.5c0-.275.225-.5.5-.5s.5.225.5.5-.225.5-.5.5zm24 0a.501.501 0 0 1-.5-.5c0-.275.225-.5.5-.5s.5.225.5.5-.225.5-.5.5zm-297-1a.501.501 0 0 1-.5-.5c0-.275.225-.5.5-.5s.5.225.5.5-.225.5-.5.5zm29 0a.501.501 0 0 1-.5-.5c0-.275.225-.5.5-.5s.5.225.5.5-.225.5-.5.5zm242 0a.501.501 0 0 1-.5-.5c0-.275.225-.5.5-.5s.5.225.5.5-.225.5-.5.5zM18.618 86c-.275 0-.778-.45-1.118-1-.34-.55-.393-1-.118-1s.778.45 1.118 1c.34.55.393 1 .118 1zm32.533 0c-.275 0 .557-1.125 1.849-2.5 1.292-1.375 2.574-2.5 2.849-2.5.275 0-.557 1.125-1.849 2.5-1.292 1.375-2.574 2.5-2.849 2.5zM75.5 86a.501.501 0 0 1-.5-.5c0-.275.225-.5.5-.5s.5.225.5.5-.225.5-.5.5zm213.155-1c-.19 0-1.202-1.012-2.25-2.25L284.5 80.5l2.25 1.905c1.238 1.048 2.25 2.06 2.25 2.25 0 .19-.155.345-.345.345zm32.845-1a.501.501 0 0 1-.5-.5c0-.275.225-.5.5-.5s.5.225.5.5-.225.5-.5.5zM13.618 81c-.275 0-.778-.45-1.118-1-.34-.55-.393-1-.118-1s.778.45 1.118 1c.34.55.393 1 .118 1zM69.5 80a.501.501 0 0 1-.5-.5c0-.275.225-.5.5-.5s.5.225.5.5-.225.5-.5.5zm214-1a.501.501 0 0 1-.5-.5c0-.275.225-.5.5-.5s.5.225.5.5-.225.5-.5.5zm-272-1a.501.501 0 0 1-.5-.5c0-.275.225-.5.5-.5s.5.225.5.5-.225.5-.5.5zm271-1a.501.501 0 0 1-.5-.5c0-.275.225-.5.5-.5s.5.225.5.5-.225.5-.5.5zm-224-1a.501.501 0 0 1-.5-.5c0-.275.225-.5.5-.5s.5.225.5.5-.225.5-.5.5zM91 76c-.733 0-1.033-.3-.667-.667a.946.946 0 0 1 1.334 0c.366.367.066.667-.667.667zm5 0c-.733 0-1.033-.3-.667-.667a.946.946 0 0 1 1.334 0c.366.367.066.667-.667.667zm210 0c-.733 0-1.033-.3-.667-.667a.946.946 0 0 1 1.334 0c.366.367.066.667-.667.667zm4.5 0a.501.501 0 0 1-.5-.5c0-.275.225-.5.5-.5s.5.225.5.5-.225.5-.5.5zm-300-1a.501.501 0 0 1-.5-.5c0-.275.225-.5.5-.5s.5.225.5.5-.225.5-.5.5zm22 0a.501.501 0 0 1-.5-.5c0-.275.225-.5.5-.5s.5.225.5.5-.225.5-.5.5zm5 0a.501.501 0 0 1-.5-.5c0-.275.225-.5.5-.5s.5.225.5.5-.225.5-.5.5zm50 0a.501.501 0 0 1-.5-.5c0-.275.225-.5.5-.5s.5.225.5.5-.225.5-.5.5zm12 0a.501.501 0 0 1-.5-.5c0-.275.225-.5.5-.5s.5.225.5.5-.225.5-.5.5zm182 0a.501.501 0 0 1-.5-.5c0-.275.225-.5.5-.5s.5.225.5.5-.225.5-.5.5zm21 0a.501.501 0 0 1-.5-.5c0-.275.225-.5.5-.5s.5.225.5.5-.225.5-.5.5zM30.622 74c-.207 0-.995-.787-1.75-1.75-1.243-1.586-1.208-1.621.378-.378.962.755 1.75 1.543 1.75 1.75 0 .208-.17.378-.378.378zM40 73.5c-.55.34-1 .393-1 .118s.45-.778 1-1.118c.55-.34 1-.393 1-.118s-.45.778-1 1.118zm26.5.5a.501.501 0 0 1-.5-.5c0-.275.225-.5.5-.5s.5.225.5.5-.225.5-.5.5zm234.118 0c-.275 0-.778-.45-1.118-1-.34-.55-.393-1-.118-1s.778.45 1.118 1c.34.55.393 1 .118 1zm14.882 0a.501.501 0 0 1-.5-.5c0-.275.225-.5.5-.5s.5.225.5.5-.225.5-.5.5zM84.622 73c-.207 0-.995-.787-1.75-1.75-1.243-1.586-1.208-1.621.378-.378.963.755 1.75 1.543 1.75 1.75 0 .208-.17.378-.378.378zM103 72.5c-.55.34-1 .393-1 .118s.45-.778 1-1.118c.55-.34 1-.393 1-.118s-.45.778-1 1.118zm177.5-.5a.501.501 0 0 1-.5-.5c0-.275.225-.5.5-.5s.5.225.5.5-.225.5-.5.5zM9.716 68.288c-.343 1.855-.393 1.809-.312-.288.094-2.458.238-2.501 8.596-2.558l8.5-.059-8.187.347c-7.528.318-8.22.524-8.597 2.558zM41.5 71a.501.501 0 0 1-.5-.5c0-.275.225-.5.5-.5s.5.225.5.5-.225.5-.5.5zm18.19-1.25c-.252.963-.458.175-.458-1.75s.206-2.712.457-1.75c.252.963.252 2.538 0 3.5zM65.5 71a.501.501 0 0 1-.5-.5c0-.275.225-.5.5-.5s.5.225.5.5-.225.5-.5.5zm232.118 0c-.275 0-.778-.45-1.118-1-.34-.55-.393-1-.118-1s.778.45 1.118 1c.34.55.393 1 .118 1zm21.882-1a.501.501 0 0 1-.5-.5c0-.275.225-.5.5-.5s.5.225.5.5-.225.5-.5.5zM27.667 68.667C27.3 69.033 27 68.733 27 68c0-.733.3-1.033.667-.667a.946.946 0 0 1 0 1.334zM81.5 69a.501.501 0 0 1-.5-.5c0-.275.225-.5.5-.5s.5.225.5.5-.225.5-.5.5zm24 0a.501.501 0 0 1-.5-.5c0-.275.225-.5.5-.5s.5.225.5.5-.225.5-.5.5zm174.167-1.333c-.367.366-.667.066-.667-.667 0-.733.3-1.033.667-.667a.946.946 0 0 1 0 1.334zM320.5 68a.501.501 0 0 1-.5-.5c0-.275.225-.5.5-.5s.5.225.5.5-.225.5-.5.5zM80.667 66.667C80.3 67.033 80 66.733 80 66c0-.733.3-1.033.667-.667a.946.946 0 0 1 0 1.334zM41.618 66c-.275 0-.778-.45-1.118-1-.34-.55-.393-1-.118-1s.778.45 1.118 1c.34.55.393 1 .118 1zm23.088-1.75c-.239 1.238-.434.225-.434-2.25s.195-3.487.434-2.25c.238 1.238.238 3.263 0 4.5zm41.96 1.417c-.366.366-.666.066-.666-.667 0-.733.3-1.033.667-.667a.946.946 0 0 1 0 1.334zm214.996-2.417c-.277.688-.504.125-.504-1.25s.227-1.938.504-1.25c.278.688.278 1.813 0 2.5zM38.5 63a.501.501 0 0 1-.5-.5c0-.275.225-.5.5-.5s.5.225.5.5-.225.5-.5.5zm20-1a.501.501 0 0 1-.5-.5c0-.275.225-.5.5-.5s.5.225.5.5-.225.5-.5.5zm-26-2a.501.501 0 0 1-.5-.5c0-.275.225-.5.5-.5s.5.225.5.5-.225.5-.5.5zm25 0a.501.501 0 0 1-.5-.5c0-.275.225-.5.5-.5s.5.225.5.5-.225.5-.5.5zm49.167-.333c-.367.366-.667.066-.667-.667 0-.733.3-1.033.667-.667a.946.946 0 0 1 0 1.334zM30.5 59a.501.501 0 0 1-.5-.5c0-.275.225-.5.5-.5s.5.225.5.5-.225.5-.5.5zm50 0a.501.501 0 0 1-.5-.5c0-.275.225-.5.5-.5s.5.225.5.5-.225.5-.5.5zm-53-1a.501.501 0 0 1-.5-.5c0-.275.225-.5.5-.5s.5.225.5.5-.225.5-.5.5zm252.167-.333c-.367.366-.667.066-.667-.667 0-.733.3-1.033.667-.667a.946.946 0 0 1 0 1.334zM295.5 58a.501.501 0 0 1-.5-.5c0-.275.225-.5.5-.5s.5.225.5.5-.225.5-.5.5zm-270-1a.501.501 0 0 1-.5-.5c0-.275.225-.5.5-.5s.5.225.5.5-.225.5-.5.5zm30.155 0c-.19 0-1.202-1.012-2.25-2.25L51.5 52.5l2.25 1.905c1.238 1.048 2.25 2.06 2.25 2.25 0 .19-.155.345-.345.345zM320.5 57a.501.501 0 0 1-.5-.5c0-.275.225-.5.5-.5s.5.225.5.5-.225.5-.5.5zm-297-1a.501.501 0 0 1-.5-.5c0-.275.225-.5.5-.5s.5.225.5.5-.225.5-.5.5zm58.5-.5c-.55.34-1 .393-1 .118s.45-.778 1-1.118c.55-.34 1-.393 1-.118s-.45.778-1 1.118zm214.5.5a.501.501 0 0 1-.5-.5c0-.275.225-.5.5-.5s.5.225.5.5-.225.5-.5.5zm-275-1a.501.501 0 0 1-.5-.5c0-.275.225-.5.5-.5s.5.225.5.5-.225.5-.5.5zm83 0a.501.501 0 0 1-.5-.5c0-.275.225-.5.5-.5s.5.225.5.5-.225.5-.5.5zm44 0a.501.501 0 0 1-.5-.5c0-.275.225-.5.5-.5s.5.225.5.5-.225.5-.5.5zm16 0a.501.501 0 0 1-.5-.5c0-.275.225-.5.5-.5s.5.225.5.5-.225.5-.5.5zm17 0a.501.501 0 0 1-.5-.5c0-.275.225-.5.5-.5s.5.225.5.5-.225.5-.5.5zm83 0a.501.501 0 0 1-.5-.5c0-.275.225-.5.5-.5s.5.225.5.5-.225.5-.5.5zm55.118 0c-.275 0-.778-.45-1.118-1-.34-.55-.393-1-.118-1s.778.45 1.118 1c.34.55.393 1 .118 1zm-300-1c-.275 0-.778-.45-1.118-1-.34-.55-.393-1-.118-1s.778.45 1.118 1c.34.55.393 1 .118 1zM65.5 54a.501.501 0 0 1-.5-.5c0-.275.225-.5.5-.5s.5.225.5.5-.225.5-.5.5zm231.755 0c-.275 0 .06-.675.745-1.5s1.47-1.5 1.745-1.5c.275 0-.06.675-.745 1.5s-1.47 1.5-1.745 1.5zM149.5 53a.501.501 0 0 1-.5-.5c0-.275.225-.5.5-.5s.5.225.5.5-.225.5-.5.5zm131 0a.501.501 0 0 1-.5-.5c0-.275.225-.5.5-.5s.5.225.5.5-.225.5-.5.5zm-231-1a.501.501 0 0 1-.5-.5c0-.275.225-.5.5-.5s.5.225.5.5-.225.5-.5.5zm146 0a.501.501 0 0 1-.5-.5c0-.275.225-.5.5-.5s.5.225.5.5-.225.5-.5.5zm72 0a.501.501 0 0 1-.5-.5c0-.275.225-.5.5-.5s.5.225.5.5-.225.5-.5.5zm49.118 0c-.275 0-.778-.45-1.118-1-.34-.55-.393-1-.118-1s.778.45 1.118 1c.34.55.393 1 .118 1zM47.5 51a.501.501 0 0 1-.5-.5c0-.275.225-.5.5-.5s.5.225.5.5-.225.5-.5.5zm19 0a.501.501 0 0 1-.5-.5c0-.275.225-.5.5-.5s.5.225.5.5-.225.5-.5.5zm20 0a.501.501 0 0 1-.5-.5c0-.275.225-.5.5-.5s.5.225.5.5-.225.5-.5.5zm14 0a.501.501 0 0 1-.5-.5c0-.275.225-.5.5-.5s.5.225.5.5-.225.5-.5.5zm62 0a.501.501 0 0 1-.5-.5c0-.275.225-.5.5-.5s.5.225.5.5-.225.5-.5.5zm107 0a.501.501 0 0 1-.5-.5c0-.275.225-.5.5-.5s.5.225.5.5-.225.5-.5.5zm-181-1a.501.501 0 0 1-.5-.5c0-.275.225-.5.5-.5s.5.225.5.5-.225.5-.5.5zm10 0a.501.501 0 0 1-.5-.5c0-.275.225-.5.5-.5s.5.225.5.5-.225.5-.5.5zm54 0a.501.501 0 0 1-.5-.5c0-.275.225-.5.5-.5s.5.225.5.5-.225.5-.5.5zm33 0a.501.501 0 0 1-.5-.5c0-.275.225-.5.5-.5s.5.225.5.5-.225.5-.5.5zm8 0a.501.501 0 0 1-.5-.5c0-.275.225-.5.5-.5s.5.225.5.5-.225.5-.5.5zm19.167-.333c-.367.366-.667.066-.667-.667 0-.733.3-1.033.667-.667a.946.946 0 0 1 0 1.334zM281.5 50a.501.501 0 0 1-.5-.5c0-.275.225-.5.5-.5s.5.225.5.5-.225.5-.5.5zm21 0a.501.501 0 0 1-.5-.5c0-.275.225-.5.5-.5s.5.225.5.5-.225.5-.5.5zm11 0a.501.501 0 0 1-.5-.5c0-.275.225-.5.5-.5s.5.225.5.5-.225.5-.5.5zM14.618 49c-.275 0-.778-.45-1.118-1-.34-.55-.393-1-.118-1s.778.45 1.118 1c.34.55.393 1 .118 1zM67.5 49a.501.501 0 0 1-.5-.5c0-.275.225-.5.5-.5s.5.225.5.5-.225.5-.5.5zm26.083-.079c-1.054.043-1.644-.193-1.312-.525.332-.332 1.195-.368 1.916-.08.798.32.561.557-.604.605zM157 49c-.733 0-1.033-.3-.667-.667a.946.946 0 0 1 1.334 0c.366.367.066.667-.667.667zm32.583-.079c-1.054.043-1.644-.193-1.312-.525.332-.332 1.195-.368 1.917-.08.797.32.56.557-.605.605zM308 49c-.733 0-1.033-.3-.667-.667a.946.946 0 0 1 1.334 0c.366.367.066.667-.667.667zM41.5 48a.501.501 0 0 1-.5-.5c0-.275.225-.5.5-.5s.5.225.5.5-.225.5-.5.5zm241 0a.501.501 0 0 1-.5-.5c0-.275.225-.5.5-.5s.5.225.5.5-.225.5-.5.5zm-243-1a.501.501 0 0 1-.5-.5c0-.275.225-.5.5-.5s.5.225.5.5-.225.5-.5.5zm29 0a.501.501 0 0 1-.5-.5c0-.275.225-.5.5-.5s.5.225.5.5-.225.5-.5.5zm-56-1a.501.501 0 0 1-.5-.5c0-.275.225-.5.5-.5s.5.225.5.5-.225.5-.5.5zm25 0a.501.501 0 0 1-.5-.5c0-.275.225-.5.5-.5s.5.225.5.5-.225.5-.5.5zm174 0a.501.501 0 0 1-.5-.5c0-.275.225-.5.5-.5s.5.225.5.5-.225.5-.5.5zm-176-1a.501.501 0 0 1-.5-.5c0-.275.225-.5.5-.5s.5.225.5.5-.225.5-.5.5zm249 0a.501.501 0 0 1-.5-.5c0-.275.225-.5.5-.5s.5.225.5.5-.225.5-.5.5zM70.151 44c-.275 0 .557-1.125 1.849-2.5 1.292-1.375 2.574-2.5 2.849-2.5.275 0-.557 1.125-1.849 2.5-1.292 1.375-2.574 2.5-2.849 2.5zM11.5 43a.501.501 0 0 1-.5-.5c0-.275.225-.5.5-.5s.5.225.5.5-.225.5-.5.5zm20.122 0c-.207 0-.995-.787-1.75-1.75-1.243-1.586-1.208-1.621.378-.378.963.755 1.75 1.543 1.75 1.75 0 .208-.17.378-.378.378zm145.315 0c-.45 0-1.14-.52-1.532-1.155-.452-.73-.274-.882.484-.413.66.407 1.966.139 2.905-.596 1.537-1.203 1.57-1.162.334.414-.755.963-1.741 1.75-2.191 1.75zm32.737-1c-.179 0-1.416-1.238-2.75-2.75L204.5 36.5l2.75 2.424c1.512 1.334 2.75 2.571 2.75 2.75 0 .18-.147.326-.326.326zm-101.981-2.269c-.254.973-.478.419-.498-1.231-.02-1.65.187-2.446.46-1.769.275.677.292 2.027.038 3zM147.19 41c-.275 0 .315-.9 1.31-2 .995-1.1 2.035-2 2.31-2 .275 0-.315.9-1.31 2-.995 1.1-2.035 2-2.31 2zM264 40.5c-.55.34-1 .393-1 .118s.45-.778 1-1.118c.55-.34 1-.393 1-.118s-.45.778-1 1.118zm57.5.5a.501.501 0 0 1-.5-.5c0-.275.225-.5.5-.5s.5.225.5.5-.225.5-.5.5zM290 39.5c-.55.34-1 .393-1 .118s.45-.778 1-1.118c.55-.34 1-.393 1-.118s-.45.778-1 1.118zM28.662 38.25c-.277.688-.504.125-.504-1.25s.227-1.938.504-1.25c.278.688.278 1.813 0 2.5zM50 38.64c-5.225 0-7.362-.169-4.75-.375s6.888-.206 9.5 0 .475.375-4.75.375zm132-.14c-.55.34-1 .393-1 .118s.45-.778 1-1.118c.55-.34 1-.393 1-.118s-.45.778-1 1.118zM77.5 38a.501.501 0 0 1-.5-.5c0-.275.225-.5.5-.5s.5.225.5.5-.225.5-.5.5zm215 0a.501.501 0 0 1-.5-.5c0-.275.225-.5.5-.5s.5.225.5.5-.225.5-.5.5zm-213-1a.501.501 0 0 1-.5-.5c0-.275.225-.5.5-.5s.5.225.5.5-.225.5-.5.5zm23 0a.501.501 0 0 1-.5-.5c0-.275.225-.5.5-.5s.5.225.5.5-.225.5-.5.5zm68 0a.501.501 0 0 1-.5-.5c0-.275.225-.5.5-.5s.5.225.5.5-.225.5-.5.5zm33 0a.501.501 0 0 1-.5-.5c0-.275.225-.5.5-.5s.5.225.5.5-.225.5-.5.5zm64.5-.5c-.55.34-1 .393-1 .118s.45-.778 1-1.118c.55-.34 1-.393 1-.118s-.45.778-1 1.118zm26.5.5a.501.501 0 0 1-.5-.5c0-.275.225-.5.5-.5s.5.225.5.5-.225.5-.5.5zm23 0a.501.501 0 0 1-.5-.5c0-.275.225-.5.5-.5s.5.225.5.5-.225.5-.5.5zm-277-1a.501.501 0 0 1-.5-.5c0-.275.225-.5.5-.5s.5.225.5.5-.225.5-.5.5zm18.167-.333C58.3 36.033 58 35.733 58 35c0-.733.3-1.033.667-.667a.946.946 0 0 1 0 1.334zM81.5 36a.501.501 0 0 1-.5-.5c0-.275.225-.5.5-.5s.5.225.5.5-.225.5-.5.5zm19 0a.501.501 0 0 1-.5-.5c0-.275.225-.5.5-.5s.5.225.5.5-.225.5-.5.5zm68 0a.501.501 0 0 1-.5-.5c0-.275.225-.5.5-.5s.5.225.5.5-.225.5-.5.5zm18 0a.501.501 0 0 1-.5-.5c0-.275.225-.5.5-.5s.5.225.5.5-.225.5-.5.5zm15 0a.501.501 0 0 1-.5-.5c0-.275.225-.5.5-.5s.5.225.5.5-.225.5-.5.5zm95 0a.501.501 0 0 1-.5-.5c0-.275.225-.5.5-.5s.5.225.5.5-.225.5-.5.5zm19 0a.501.501 0 0 1-.5-.5c0-.275.225-.5.5-.5s.5.225.5.5-.225.5-.5.5zm-230-1a.501.501 0 0 1-.5-.5c0-.275.225-.5.5-.5s.5.225.5.5-.225.5-.5.5zm12 0a.501.501 0 0 1-.5-.5c0-.275.225-.5.5-.5s.5.225.5.5-.225.5-.5.5zm59.5 0c-.733 0-1.033-.3-.667-.667a.946.946 0 0 1 1.334 0c.366.367.066.667-.667.667zm9 0c-.733 0-1.033-.3-.667-.667a.946.946 0 0 1 1.334 0c.366.367.066.667-.667.667zm23.5 0a.501.501 0 0 1-.5-.5c0-.275.225-.5.5-.5s.5.225.5.5-.225.5-.5.5zm9 0a.501.501 0 0 1-.5-.5c0-.275.225-.5.5-.5s.5.225.5.5-.225.5-.5.5zm73 0a.501.501 0 0 1-.5-.5c0-.275.225-.5.5-.5s.5.225.5.5-.225.5-.5.5zm29 0a.501.501 0 0 1-.5-.5c0-.275.225-.5.5-.5s.5.225.5.5-.225.5-.5.5zm12 0a.501.501 0 0 1-.5-.5c0-.275.225-.5.5-.5s.5.225.5.5-.225.5-.5.5zM39.618 34c-.275 0-.778-.45-1.118-1-.34-.55-.393-1-.118-1s.778.45 1.118 1c.34.55.393 1 .118 1zM11.5 33a.501.501 0 0 1-.5-.5c0-.275.225-.5.5-.5s.5.225.5.5-.225.5-.5.5zm20 0a.501.501 0 0 1-.5-.5c0-.275.225-.5.5-.5s.5.225.5.5-.225.5-.5.5zm3.083-1.079c-1.054.043-1.644-.193-1.312-.525.332-.332 1.195-.368 1.917-.08.797.32.56.557-.605.605zM57.5 31a.501.501 0 0 1-.5-.5c0-.275.225-.5.5-.5s.5.225.5.5-.225.5-.5.5zm-45-1a.501.501 0 0 1-.5-.5c0-.275.225-.5.5-.5s.5.225.5.5-.225.5-.5.5zm210.223-2.75c-.221 1.788-.403.325-.403-3.25s.182-5.037.403-3.25c.222 1.788.222 4.713 0 6.5zM56.5 29a.501.501 0 0 1-.5-.5c0-.275.225-.5.5-.5s.5.225.5.5-.225.5-.5.5zM14 27.5c-.55.34-1 .393-1 .118s.45-.778 1-1.118c.55-.34 1-.393 1-.118s-.45.778-1 1.118zm41.618-.5c-.275 0-.778-.45-1.118-1-.34-.55-.393-1-.118-1s.778.45 1.118 1c.34.55.393 1 .118 1zM19.5 22a.501.501 0 0 1-.5-.5c0-.275.225-.5.5-.5s.5.225.5.5-.225.5-.5.5zm31.118 0c-.275 0-.778-.45-1.118-1-.34-.55-.393-1-.118-1s.778.45 1.118 1c.34.55.393 1 .118 1zM22.5 20a.501.501 0 0 1-.5-.5c0-.275.225-.5.5-.5s.5.225.5.5-.225.5-.5.5zm25 0a.501.501 0 0 1-.5-.5c0-.275.225-.5.5-.5s.5.225.5.5-.225.5-.5.5zm-22-1a.501.501 0 0 1-.5-.5c0-.275.225-.5.5-.5s.5.225.5.5-.225.5-.5.5zm20 0a.501.501 0 0 1-.5-.5c0-.275.225-.5.5-.5s.5.225.5.5-.225.5-.5.5zm-17-1a.501.501 0 0 1-.5-.5c0-.275.225-.5.5-.5s.5.225.5.5-.225.5-.5.5zM42 18c-.733 0-1.033-.3-.667-.667a.946.946 0 0 1 1.334 0c.366.367.066.667-.667.667z" transform="matrix(.62945 -.00197 0 .64865 -4.76 157.904)"/><path style="fill:purple" d="M30.5 90a.501.501 0 0 1-.5-.5c0-.275.225-.5.5-.5s.5.225.5.5-.225.5-.5.5zm9 0a.501.501 0 0 1-.5-.5c0-.275.225-.5.5-.5s.5.225.5.5-.225.5-.5.5zm45 0a.501.501 0 0 1-.5-.5c0-.275.225-.5.5-.5s.5.225.5.5-.225.5-.5.5zm215 0a.501.501 0 0 1-.5-.5c0-.275.225-.5.5-.5s.5.225.5.5-.225.5-.5.5zm13 0a.501.501 0 0 1-.5-.5c0-.275.225-.5.5-.5s.5.225.5.5-.225.5-.5.5zm-287-1a.501.501 0 0 1-.5-.5c0-.275.225-.5.5-.5s.5.225.5.5-.225.5-.5.5zm19 0a.501.501 0 0 1-.5-.5c0-.275.225-.5.5-.5s.5.225.5.5-.225.5-.5.5zm37 0a.501.501 0 0 1-.5-.5c0-.275.225-.5.5-.5s.5.225.5.5-.225.5-.5.5zm-59-1a.501.501 0 0 1-.5-.5c0-.275.225-.5.5-.5s.5.225.5.5-.225.5-.5.5zm25 0a.501.501 0 0 1-.5-.5c0-.275.225-.5.5-.5s.5.225.5.5-.225.5-.5.5zm246 0a.501.501 0 0 1-.5-.5c0-.275.225-.5.5-.5s.5.225.5.5-.225.5-.5.5zm24 0a.501.501 0 0 1-.5-.5c0-.275.225-.5.5-.5s.5.225.5.5-.225.5-.5.5zm-297-1a.501.501 0 0 1-.5-.5c0-.275.225-.5.5-.5s.5.225.5.5-.225.5-.5.5zm29 0a.501.501 0 0 1-.5-.5c0-.275.225-.5.5-.5s.5.225.5.5-.225.5-.5.5zm55.5-.5c-.55.34-1 .393-1 .118s.45-.778 1-1.118c.55-.34 1-.393 1-.118s-.45.778-1 1.118zM18.618 86c-.275 0-.778-.45-1.118-1-.34-.55-.393-1-.118-1s.778.45 1.118 1c.34.55.393 1 .118 1zM75.5 86a.501.501 0 0 1-.5-.5c0-.275.225-.5.5-.5s.5.225.5.5-.225.5-.5.5zm-23.31-1c-.275 0 .315-.9 1.31-2 .995-1.1 2.035-2 2.31-2 .275 0-.315.9-1.31 2-.995 1.1-2.035 2-2.31 2zm55.31-1a.501.501 0 0 1-.5-.5c0-.275.225-.5.5-.5s.5.225.5.5-.225.5-.5.5zm180.118 0c-.275 0-.778-.45-1.118-1-.34-.55-.393-1-.118-1s.778.45 1.118 1c.34.55.393 1 .118 1zm33.882 0a.501.501 0 0 1-.5-.5c0-.275.225-.5.5-.5s.5.225.5.5-.225.5-.5.5zm-308-3a.501.501 0 0 1-.5-.5c0-.275.225-.5.5-.5s.5.225.5.5-.225.5-.5.5zm56-1a.501.501 0 0 1-.5-.5c0-.275.225-.5.5-.5s.5.225.5.5-.225.5-.5.5zm214-1a.501.501 0 0 1-.5-.5c0-.275.225-.5.5-.5s.5.225.5.5-.225.5-.5.5zm-1-2a.501.501 0 0 1-.5-.5c0-.275.225-.5.5-.5s.5.225.5.5-.225.5-.5.5zm-224-1a.501.501 0 0 1-.5-.5c0-.275.225-.5.5-.5s.5.225.5.5-.225.5-.5.5zm32 0a.501.501 0 0 1-.5-.5c0-.275.225-.5.5-.5s.5.225.5.5-.225.5-.5.5zm6 0a.501.501 0 0 1-.5-.5c0-.275.225-.5.5-.5s.5.225.5.5-.225.5-.5.5zm209 0a.501.501 0 0 1-.5-.5c0-.275.225-.5.5-.5s.5.225.5.5-.225.5-.5.5zm-295-1a.501.501 0 0 1-.5-.5c0-.275.225-.5.5-.5s.5.225.5.5-.225.5-.5.5zm27 0a.501.501 0 0 1-.5-.5c0-.275.225-.5.5-.5s.5.225.5.5-.225.5-.5.5zm50 0a.501.501 0 0 1-.5-.5c0-.275.225-.5.5-.5s.5.225.5.5-.225.5-.5.5zm12 0a.501.501 0 0 1-.5-.5c0-.275.225-.5.5-.5s.5.225.5.5-.225.5-.5.5zm182 0a.501.501 0 0 1-.5-.5c0-.275.225-.5.5-.5s.5.225.5.5-.225.5-.5.5zm21 0a.501.501 0 0 1-.5-.5c0-.275.225-.5.5-.5s.5.225.5.5-.225.5-.5.5zM30.622 74c-.207 0-.995-.787-1.75-1.75-1.243-1.586-1.208-1.621.378-.378.962.755 1.75 1.543 1.75 1.75 0 .208-.17.378-.378.378zM40 73.5c-.55.34-1 .393-1 .118s.45-.778 1-1.118c.55-.34 1-.393 1-.118s-.45.778-1 1.118zm26.5.5a.501.501 0 0 1-.5-.5c0-.275.225-.5.5-.5s.5.225.5.5-.225.5-.5.5zm234 0a.501.501 0 0 1-.5-.5c0-.275.225-.5.5-.5s.5.225.5.5-.225.5-.5.5zM84.622 73c-.207 0-.995-.787-1.75-1.75-1.243-1.586-1.208-1.621.378-.378.963.755 1.75 1.543 1.75 1.75 0 .208-.17.378-.378.378zM103 72.5c-.55.34-1 .393-1 .118s.45-.778 1-1.118c.55-.34 1-.393 1-.118s-.45.778-1 1.118zm177.5-.5a.501.501 0 0 1-.5-.5c0-.275.225-.5.5-.5s.5.225.5.5-.225.5-.5.5zm-239-1a.501.501 0 0 1-.5-.5c0-.275.225-.5.5-.5s.5.225.5.5-.225.5-.5.5zm24 0a.501.501 0 0 1-.5-.5c0-.275.225-.5.5-.5s.5.225.5.5-.225.5-.5.5zm232.118 0c-.275 0-.778-.45-1.118-1-.34-.55-.393-1-.118-1s.778.45 1.118 1c.34.55.393 1 .118 1zm21.882-1a.501.501 0 0 1-.5-.5c0-.275.225-.5.5-.5s.5.225.5.5-.225.5-.5.5zm-292-1a.501.501 0 0 1-.5-.5c0-.275.225-.5.5-.5s.5.225.5.5-.225.5-.5.5zm54 0a.501.501 0 0 1-.5-.5c0-.275.225-.5.5-.5s.5.225.5.5-.225.5-.5.5zm24 0a.501.501 0 0 1-.5-.5c0-.275.225-.5.5-.5s.5.225.5.5-.225.5-.5.5zm215-1a.501.501 0 0 1-.5-.5c0-.275.225-.5.5-.5s.5.225.5.5-.225.5-.5.5zm-240-1a.501.501 0 0 1-.5-.5c0-.275.225-.5.5-.5s.5.225.5.5-.225.5-.5.5zm199 0a.501.501 0 0 1-.5-.5c0-.275.225-.5.5-.5s.5.225.5.5-.225.5-.5.5zm-238-1a.501.501 0 0 1-.5-.5c0-.275.225-.5.5-.5s.5.225.5.5-.225.5-.5.5zm65 0a.501.501 0 0 1-.5-.5c0-.275.225-.5.5-.5s.5.225.5.5-.225.5-.5.5zm215-2a.501.501 0 0 1-.5-.5c0-.275.225-.5.5-.5s.5.225.5.5-.225.5-.5.5zm-283-1a.501.501 0 0 1-.5-.5c0-.275.225-.5.5-.5s.5.225.5.5-.225.5-.5.5zm283-2a.501.501 0 0 1-.5-.5c0-.275.225-.5.5-.5s.5.225.5.5-.225.5-.5.5zm-289-1a.501.501 0 0 1-.5-.5c0-.275.225-.5.5-.5s.5.225.5.5-.225.5-.5.5zm25 0a.501.501 0 0 1-.5-.5c0-.275.225-.5.5-.5s.5.225.5.5-.225.5-.5.5zm-27-1a.501.501 0 0 1-.5-.5c0-.275.225-.5.5-.5s.5.225.5.5-.225.5-.5.5zm50 0a.501.501 0 0 1-.5-.5c0-.275.225-.5.5-.5s.5.225.5.5-.225.5-.5.5zm26 0a.501.501 0 0 1-.5-.5c0-.275.225-.5.5-.5s.5.225.5.5-.225.5-.5.5zm-79-1a.501.501 0 0 1-.5-.5c0-.275.225-.5.5-.5s.5.225.5.5-.225.5-.5.5zm170 0a.501.501 0 0 1-.5-.5c0-.275.225-.5.5-.5s.5.225.5.5-.225.5-.5.5zm82 0a.501.501 0 0 1-.5-.5c0-.275.225-.5.5-.5s.5.225.5.5-.225.5-.5.5zm16 0a.501.501 0 0 1-.5-.5c0-.275.225-.5.5-.5s.5.225.5.5-.225.5-.5.5zm-270-1a.501.501 0 0 1-.5-.5c0-.275.225-.5.5-.5s.5.225.5.5-.225.5-.5.5zm30.122 0c-.207 0-.995-.787-1.75-1.75-1.243-1.586-1.208-1.621.378-.378.963.755 1.75 1.543 1.75 1.75 0 .208-.17.378-.378.378zM320.5 57a.501.501 0 0 1-.5-.5c0-.275.225-.5.5-.5s.5.225.5.5-.225.5-.5.5zm-297-1a.501.501 0 0 1-.5-.5c0-.275.225-.5.5-.5s.5.225.5.5-.225.5-.5.5zm58 0a.501.501 0 0 1-.5-.5c0-.275.225-.5.5-.5s.5.225.5.5-.225.5-.5.5zm-60-1a.501.501 0 0 1-.5-.5c0-.275.225-.5.5-.5s.5.225.5.5-.225.5-.5.5zm127 0a.501.501 0 0 1-.5-.5c0-.275.225-.5.5-.5s.5.225.5.5-.225.5-.5.5zm116 0a.501.501 0 0 1-.5-.5c0-.275.225-.5.5-.5s.5.225.5.5-.225.5-.5.5zm55.118 0c-.275 0-.778-.45-1.118-1-.34-.55-.393-1-.118-1s.778.45 1.118 1c.34.55.393 1 .118 1zm-22.363-1c-.275 0 .06-.675.745-1.5s1.47-1.5 1.745-1.5c.275 0-.06.675-.745 1.5s-1.47 1.5-1.745 1.5zM18.5 53a.501.501 0 0 1-.5-.5c0-.275.225-.5.5-.5s.5.225.5.5-.225.5-.5.5zm262 0a.501.501 0 0 1-.5-.5c0-.275.225-.5.5-.5s.5.225.5.5-.225.5-.5.5zm-231-1a.501.501 0 0 1-.5-.5c0-.275.225-.5.5-.5s.5.225.5.5-.225.5-.5.5zm267.118 0c-.275 0-.778-.45-1.118-1-.34-.55-.393-1-.118-1s.778.45 1.118 1c.34.55.393 1 .118 1zM47.5 51a.501.501 0 0 1-.5-.5c0-.275.225-.5.5-.5s.5.225.5.5-.225.5-.5.5zm19 0a.501.501 0 0 1-.5-.5c0-.275.225-.5.5-.5s.5.225.5.5-.225.5-.5.5zm34 0a.501.501 0 0 1-.5-.5c0-.275.225-.5.5-.5s.5.225.5.5-.225.5-.5.5zm62 0a.501.501 0 0 1-.5-.5c0-.275.225-.5.5-.5s.5.225.5.5-.225.5-.5.5zm107 0a.501.501 0 0 1-.5-.5c0-.275.225-.5.5-.5s.5.225.5.5-.225.5-.5.5zm-171-1a.501.501 0 0 1-.5-.5c0-.275.225-.5.5-.5s.5.225.5.5-.225.5-.5.5zm54 0a.501.501 0 0 1-.5-.5c0-.275.225-.5.5-.5s.5.225.5.5-.225.5-.5.5zm60 0a.501.501 0 0 1-.5-.5c0-.275.225-.5.5-.5s.5.225.5.5-.225.5-.5.5zm90 0a.501.501 0 0 1-.5-.5c0-.275.225-.5.5-.5s.5.225.5.5-.225.5-.5.5zm11 0a.501.501 0 0 1-.5-.5c0-.275.225-.5.5-.5s.5.225.5.5-.225.5-.5.5zm-299-1a.501.501 0 0 1-.5-.5c0-.275.225-.5.5-.5s.5.225.5.5-.225.5-.5.5zm53 0a.501.501 0 0 1-.5-.5c0-.275.225-.5.5-.5s.5.225.5.5-.225.5-.5.5zm25 0a.501.501 0 0 1-.5-.5c0-.275.225-.5.5-.5s.5.225.5.5-.225.5-.5.5zm2 0a.501.501 0 0 1-.5-.5c0-.275.225-.5.5-.5s.5.225.5.5-.225.5-.5.5zm63 0a.501.501 0 0 1-.5-.5c0-.275.225-.5.5-.5s.5.225.5.5-.225.5-.5.5zm31 0a.501.501 0 0 1-.5-.5c0-.275.225-.5.5-.5s.5.225.5.5-.225.5-.5.5zm2 0a.501.501 0 0 1-.5-.5c0-.275.225-.5.5-.5s.5.225.5.5-.225.5-.5.5zm-149-1a.501.501 0 0 1-.5-.5c0-.275.225-.5.5-.5s.5.225.5.5-.225.5-.5.5zm-2-1a.501.501 0 0 1-.5-.5c0-.275.225-.5.5-.5s.5.225.5.5-.225.5-.5.5zm29 0a.501.501 0 0 1-.5-.5c0-.275.225-.5.5-.5s.5.225.5.5-.225.5-.5.5zm143-1a.501.501 0 0 1-.5-.5c0-.275.225-.5.5-.5s.5.225.5.5-.225.5-.5.5zm73-1a.501.501 0 0 1-.5-.5c0-.275.225-.5.5-.5s.5.225.5.5-.225.5-.5.5zM70.151 44c-.275 0 .557-1.125 1.849-2.5 1.292-1.375 2.574-2.5 2.849-2.5.275 0-.557 1.125-1.849 2.5-1.292 1.375-2.574 2.5-2.849 2.5zM11.5 43a.501.501 0 0 1-.5-.5c0-.275.225-.5.5-.5s.5.225.5.5-.225.5-.5.5zm20.122 0c-.207 0-.995-.787-1.75-1.75-1.243-1.586-1.208-1.621.378-.378.963.755 1.75 1.543 1.75 1.75 0 .208-.17.378-.378.378zM175.5 42a.501.501 0 0 1-.5-.5c0-.275.225-.5.5-.5s.5.225.5.5-.225.5-.5.5zm3.5-.5c-.55.34-1 .393-1 .118s.45-.778 1-1.118c.55-.34 1-.393 1-.118s-.45.778-1 1.118zm30.655.5c-.19 0-1.202-1.012-2.25-2.25L205.5 37.5l2.25 1.905c1.238 1.048 2.25 2.06 2.25 2.25 0 .19-.155.345-.345.345zM107.5 41a.501.501 0 0 1-.5-.5c0-.275.225-.5.5-.5s.5.225.5.5-.225.5-.5.5zm156.5-.5c-.55.34-1 .393-1 .118s.45-.778 1-1.118c.55-.34 1-.393 1-.118s-.45.778-1 1.118zm57.5.5a.501.501 0 0 1-.5-.5c0-.275.225-.5.5-.5s.5.225.5.5-.225.5-.5.5zm-173.245-1c-.275 0 .06-.675.745-1.5s1.47-1.5 1.745-1.5c.275 0-.06.675-.745 1.5s-1.47 1.5-1.745 1.5zM290 39.5c-.55.34-1 .393-1 .118s.45-.778 1-1.118c.55-.34 1-.393 1-.118s-.45.778-1 1.118zM28.5 39a.501.501 0 0 1-.5-.5c0-.275.225-.5.5-.5s.5.225.5.5-.225.5-.5.5zm153.5-.5c-.55.34-1 .393-1 .118s.45-.778 1-1.118c.55-.34 1-.393 1-.118s-.45.778-1 1.118zM77.5 38a.501.501 0 0 1-.5-.5c0-.275.225-.5.5-.5s.5.225.5.5-.225.5-.5.5zm215 0a.501.501 0 0 1-.5-.5c0-.275.225-.5.5-.5s.5.225.5.5-.225.5-.5.5zm-213-1a.501.501 0 0 1-.5-.5c0-.275.225-.5.5-.5s.5.225.5.5-.225.5-.5.5zm23 0a.501.501 0 0 1-.5-.5c0-.275.225-.5.5-.5s.5.225.5.5-.225.5-.5.5zm68 0a.501.501 0 0 1-.5-.5c0-.275.225-.5.5-.5s.5.225.5.5-.225.5-.5.5zm33 0a.501.501 0 0 1-.5-.5c0-.275.225-.5.5-.5s.5.225.5.5-.225.5-.5.5zm64 0a.501.501 0 0 1-.5-.5c0-.275.225-.5.5-.5s.5.225.5.5-.225.5-.5.5zm27 0a.501.501 0 0 1-.5-.5c0-.275.225-.5.5-.5s.5.225.5.5-.225.5-.5.5zm23 0a.501.501 0 0 1-.5-.5c0-.275.225-.5.5-.5s.5.225.5.5-.225.5-.5.5zm-289-1a.501.501 0 0 1-.5-.5c0-.275.225-.5.5-.5s.5.225.5.5-.225.5-.5.5zm30 0a.501.501 0 0 1-.5-.5c0-.275.225-.5.5-.5s.5.225.5.5-.225.5-.5.5zm42 0a.501.501 0 0 1-.5-.5c0-.275.225-.5.5-.5s.5.225.5.5-.225.5-.5.5zm68 0a.501.501 0 0 1-.5-.5c0-.275.225-.5.5-.5s.5.225.5.5-.225.5-.5.5zm18 0a.501.501 0 0 1-.5-.5c0-.275.225-.5.5-.5s.5.225.5.5-.225.5-.5.5zm15 0a.501.501 0 0 1-.5-.5c0-.275.225-.5.5-.5s.5.225.5.5-.225.5-.5.5zm95 0a.501.501 0 0 1-.5-.5c0-.275.225-.5.5-.5s.5.225.5.5-.225.5-.5.5zm19 0a.501.501 0 0 1-.5-.5c0-.275.225-.5.5-.5s.5.225.5.5-.225.5-.5.5zm-218-1a.501.501 0 0 1-.5-.5c0-.275.225-.5.5-.5s.5.225.5.5-.225.5-.5.5zm60 0a.501.501 0 0 1-.5-.5c0-.275.225-.5.5-.5s.5.225.5.5-.225.5-.5.5zm8 0a.501.501 0 0 1-.5-.5c0-.275.225-.5.5-.5s.5.225.5.5-.225.5-.5.5zm24 0a.501.501 0 0 1-.5-.5c0-.275.225-.5.5-.5s.5.225.5.5-.225.5-.5.5zm111 0a.501.501 0 0 1-.5-.5c0-.275.225-.5.5-.5s.5.225.5.5-.225.5-.5.5zM39.618 34c-.275 0-.778-.45-1.118-1-.34-.55-.393-1-.118-1s.778.45 1.118 1c.34.55.393 1 .118 1zM11.5 33a.501.501 0 0 1-.5-.5c0-.275.225-.5.5-.5s.5.225.5.5-.225.5-.5.5zm22-1a.501.501 0 0 1-.5-.5c0-.275.225-.5.5-.5s.5.225.5.5-.225.5-.5.5zm2 0a.501.501 0 0 1-.5-.5c0-.275.225-.5.5-.5s.5.225.5.5-.225.5-.5.5zm22-1a.501.501 0 0 1-.5-.5c0-.275.225-.5.5-.5s.5.225.5.5-.225.5-.5.5zm-45-1a.501.501 0 0 1-.5-.5c0-.275.225-.5.5-.5s.5.225.5.5-.225.5-.5.5zm44-1a.501.501 0 0 1-.5-.5c0-.275.225-.5.5-.5s.5.225.5.5-.225.5-.5.5zm-42-2a.501.501 0 0 1-.5-.5c0-.275.225-.5.5-.5s.5.225.5.5-.225.5-.5.5zm41.118 0c-.275 0-.778-.45-1.118-1-.34-.55-.393-1-.118-1s.778.45 1.118 1c.34.55.393 1 .118 1zM19.5 22a.501.501 0 0 1-.5-.5c0-.275.225-.5.5-.5s.5.225.5.5-.225.5-.5.5zm31 0a.501.501 0 0 1-.5-.5c0-.275.225-.5.5-.5s.5.225.5.5-.225.5-.5.5zm-25-3a.501.501 0 0 1-.5-.5c0-.275.225-.5.5-.5s.5.225.5.5-.225.5-.5.5zm3-1a.501.501 0 0 1-.5-.5c0-.275.225-.5.5-.5s.5.225.5.5-.225.5-.5.5zm13 0a.501.501 0 0 1-.5-.5c0-.275.225-.5.5-.5s.5.225.5.5-.225.5-.5.5z" transform="matrix(.62945 -.00197 0 .64865 -4.76 157.904)"/><path style="fill:purple" d="M39.5 90a.501.501 0 0 1-.5-.5c0-.275.225-.5.5-.5s.5.225.5.5-.225.5-.5.5zm260 0a.501.501 0 0 1-.5-.5c0-.275.225-.5.5-.5s.5.225.5.5-.225.5-.5.5zm13 0a.501.501 0 0 1-.5-.5c0-.275.225-.5.5-.5s.5.225.5.5-.225.5-.5.5zm-287-1a.501.501 0 0 1-.5-.5c0-.275.225-.5.5-.5s.5.225.5.5-.225.5-.5.5zm19 0a.501.501 0 0 1-.5-.5c0-.275.225-.5.5-.5s.5.225.5.5-.225.5-.5.5zm37 0a.501.501 0 0 1-.5-.5c0-.275.225-.5.5-.5s.5.225.5.5-.225.5-.5.5zm-59-1a.501.501 0 0 1-.5-.5c0-.275.225-.5.5-.5s.5.225.5.5-.225.5-.5.5zm25 0a.501.501 0 0 1-.5-.5c0-.275.225-.5.5-.5s.5.225.5.5-.225.5-.5.5zm246 0a.501.501 0 0 1-.5-.5c0-.275.225-.5.5-.5s.5.225.5.5-.225.5-.5.5zm24 0a.501.501 0 0 1-.5-.5c0-.275.225-.5.5-.5s.5.225.5.5-.225.5-.5.5zm-297-1a.501.501 0 0 1-.5-.5c0-.275.225-.5.5-.5s.5.225.5.5-.225.5-.5.5zm29 0a.501.501 0 0 1-.5-.5c0-.275.225-.5.5-.5s.5.225.5.5-.225.5-.5.5zm26-1a.501.501 0 0 1-.5-.5c0-.275.225-.5.5-.5s.5.225.5.5-.225.5-.5.5zm-58-1a.501.501 0 0 1-.5-.5c0-.275.225-.5.5-.5s.5.225.5.5-.225.5-.5.5zm34.755 0c-.275 0 .06-.675.745-1.5s1.47-1.5 1.745-1.5c.275 0-.06.675-.745 1.5S52.53 85 52.255 85zm55.245-1a.501.501 0 0 1-.5-.5c0-.275.225-.5.5-.5s.5.225.5.5-.225.5-.5.5zm214 0a.501.501 0 0 1-.5-.5c0-.275.225-.5.5-.5s.5.225.5.5-.225.5-.5.5zm-308-3a.501.501 0 0 1-.5-.5c0-.275.225-.5.5-.5s.5.225.5.5-.225.5-.5.5zm56-1a.501.501 0 0 1-.5-.5c0-.275.225-.5.5-.5s.5.225.5.5-.225.5-.5.5zm214-1a.501.501 0 0 1-.5-.5c0-.275.225-.5.5-.5s.5.225.5.5-.225.5-.5.5zm-1-2a.501.501 0 0 1-.5-.5c0-.275.225-.5.5-.5s.5.225.5.5-.225.5-.5.5zm-192-1a.501.501 0 0 1-.5-.5c0-.275.225-.5.5-.5s.5.225.5.5-.225.5-.5.5zm6 0a.501.501 0 0 1-.5-.5c0-.275.225-.5.5-.5s.5.225.5.5-.225.5-.5.5zm-86-1a.501.501 0 0 1-.5-.5c0-.275.225-.5.5-.5s.5.225.5.5-.225.5-.5.5zm27 0a.501.501 0 0 1-.5-.5c0-.275.225-.5.5-.5s.5.225.5.5-.225.5-.5.5zm50 0a.501.501 0 0 1-.5-.5c0-.275.225-.5.5-.5s.5.225.5.5-.225.5-.5.5zm12 0a.501.501 0 0 1-.5-.5c0-.275.225-.5.5-.5s.5.225.5.5-.225.5-.5.5zm182 0a.501.501 0 0 1-.5-.5c0-.275.225-.5.5-.5s.5.225.5.5-.225.5-.5.5zM40 73.5c-.55.34-1 .393-1 .118s.45-.778 1-1.118c.55-.34 1-.393 1-.118s-.45.778-1 1.118zm26.5.5a.501.501 0 0 1-.5-.5c0-.275.225-.5.5-.5s.5.225.5.5-.225.5-.5.5zm234 0a.501.501 0 0 1-.5-.5c0-.275.225-.5.5-.5s.5.225.5.5-.225.5-.5.5zM84.622 73c-.207 0-.995-.787-1.75-1.75-1.243-1.586-1.208-1.621.378-.378.963.755 1.75 1.543 1.75 1.75 0 .208-.17.378-.378.378zM103 72.5c-.55.34-1 .393-1 .118s.45-.778 1-1.118c.55-.34 1-.393 1-.118s-.45.778-1 1.118zM28.5 72a.501.501 0 0 1-.5-.5c0-.275.225-.5.5-.5s.5.225.5.5-.225.5-.5.5zm252 0a.501.501 0 0 1-.5-.5c0-.275.225-.5.5-.5s.5.225.5.5-.225.5-.5.5zm-239-1a.501.501 0 0 1-.5-.5c0-.275.225-.5.5-.5s.5.225.5.5-.225.5-.5.5zm24 0a.501.501 0 0 1-.5-.5c0-.275.225-.5.5-.5s.5.225.5.5-.225.5-.5.5zm231-1a.501.501 0 0 1-.5-.5c0-.275.225-.5.5-.5s.5.225.5.5-.225.5-.5.5zm23 0a.501.501 0 0 1-.5-.5c0-.275.225-.5.5-.5s.5.225.5.5-.225.5-.5.5zm-292-1a.501.501 0 0 1-.5-.5c0-.275.225-.5.5-.5s.5.225.5.5-.225.5-.5.5zm54 0a.501.501 0 0 1-.5-.5c0-.275.225-.5.5-.5s.5.225.5.5-.225.5-.5.5zm24 0a.501.501 0 0 1-.5-.5c0-.275.225-.5.5-.5s.5.225.5.5-.225.5-.5.5zm215-1a.501.501 0 0 1-.5-.5c0-.275.225-.5.5-.5s.5.225.5.5-.225.5-.5.5zm-240-1a.501.501 0 0 1-.5-.5c0-.275.225-.5.5-.5s.5.225.5.5-.225.5-.5.5zm199 0a.501.501 0 0 1-.5-.5c0-.275.225-.5.5-.5s.5.225.5.5-.225.5-.5.5zm-238-1a.501.501 0 0 1-.5-.5c0-.275.225-.5.5-.5s.5.225.5.5-.225.5-.5.5zm65 0a.501.501 0 0 1-.5-.5c0-.275.225-.5.5-.5s.5.225.5.5-.225.5-.5.5zm215-2a.501.501 0 0 1-.5-.5c0-.275.225-.5.5-.5s.5.225.5.5-.225.5-.5.5zm0-3a.501.501 0 0 1-.5-.5c0-.275.225-.5.5-.5s.5.225.5.5-.225.5-.5.5zm-264-1a.501.501 0 0 1-.5-.5c0-.275.225-.5.5-.5s.5.225.5.5-.225.5-.5.5zm-27-1a.501.501 0 0 1-.5-.5c0-.275.225-.5.5-.5s.5.225.5.5-.225.5-.5.5zm76 0a.501.501 0 0 1-.5-.5c0-.275.225-.5.5-.5s.5.225.5.5-.225.5-.5.5zm-81-2a.501.501 0 0 1-.5-.5c0-.275.225-.5.5-.5s.5.225.5.5-.225.5-.5.5zm295 0a.501.501 0 0 1-.5-.5c0-.275.225-.5.5-.5s.5.225.5.5-.225.5-.5.5zm-297-1a.501.501 0 0 1-.5-.5c0-.275.225-.5.5-.5s.5.225.5.5-.225.5-.5.5zm58 0a.501.501 0 0 1-.5-.5c0-.275.225-.5.5-.5s.5.225.5.5-.225.5-.5.5zm-60-1a.501.501 0 0 1-.5-.5c0-.275.225-.5.5-.5s.5.225.5.5-.225.5-.5.5zm127 0a.501.501 0 0 1-.5-.5c0-.275.225-.5.5-.5s.5.225.5.5-.225.5-.5.5zm116 0a.501.501 0 0 1-.5-.5c0-.275.225-.5.5-.5s.5.225.5.5-.225.5-.5.5zm55 0a.501.501 0 0 1-.5-.5c0-.275.225-.5.5-.5s.5.225.5.5-.225.5-.5.5zm-22-1a.501.501 0 0 1-.5-.5c0-.275.225-.5.5-.5s.5.225.5.5-.225.5-.5.5zm-279-1a.501.501 0 0 1-.5-.5c0-.275.225-.5.5-.5s.5.225.5.5-.225.5-.5.5zm281-1a.501.501 0 0 1-.5-.5c0-.275.225-.5.5-.5s.5.225.5.5-.225.5-.5.5zm-252-1a.501.501 0 0 1-.5-.5c0-.275.225-.5.5-.5s.5.225.5.5-.225.5-.5.5zm115 0a.501.501 0 0 1-.5-.5c0-.275.225-.5.5-.5s.5.225.5.5-.225.5-.5.5zm153 0a.501.501 0 0 1-.5-.5c0-.275.225-.5.5-.5s.5.225.5.5-.225.5-.5.5zm-163-1a.501.501 0 0 1-.5-.5c0-.275.225-.5.5-.5s.5.225.5.5-.225.5-.5.5zm60 0a.501.501 0 0 1-.5-.5c0-.275.225-.5.5-.5s.5.225.5.5-.225.5-.5.5zm90 0a.501.501 0 0 1-.5-.5c0-.275.225-.5.5-.5s.5.225.5.5-.225.5-.5.5zm11 0a.501.501 0 0 1-.5-.5c0-.275.225-.5.5-.5s.5.225.5.5-.225.5-.5.5zm-299-1a.501.501 0 0 1-.5-.5c0-.275.225-.5.5-.5s.5.225.5.5-.225.5-.5.5zm53 0a.501.501 0 0 1-.5-.5c0-.275.225-.5.5-.5s.5.225.5.5-.225.5-.5.5zm27 0a.501.501 0 0 1-.5-.5c0-.275.225-.5.5-.5s.5.225.5.5-.225.5-.5.5zm94 0a.501.501 0 0 1-.5-.5c0-.275.225-.5.5-.5s.5.225.5.5-.225.5-.5.5zm2 0a.501.501 0 0 1-.5-.5c0-.275.225-.5.5-.5s.5.225.5.5-.225.5-.5.5zm-149-1a.501.501 0 0 1-.5-.5c0-.275.225-.5.5-.5s.5.225.5.5-.225.5-.5.5zm-2-1a.501.501 0 0 1-.5-.5c0-.275.225-.5.5-.5s.5.225.5.5-.225.5-.5.5zm29 0a.501.501 0 0 1-.5-.5c0-.275.225-.5.5-.5s.5.225.5.5-.225.5-.5.5zm143-1a.501.501 0 0 1-.5-.5c0-.275.225-.5.5-.5s.5.225.5.5-.225.5-.5.5zm73-1a.501.501 0 0 1-.5-.5c0-.275.225-.5.5-.5s.5.225.5.5-.225.5-.5.5zm-273-2a.501.501 0 0 1-.5-.5c0-.275.225-.5.5-.5s.5.225.5.5-.225.5-.5.5zm20 0a.501.501 0 0 1-.5-.5c0-.275.225-.5.5-.5s.5.225.5.5-.225.5-.5.5zm39.755 0c-.275 0 .06-.675.745-1.5s1.47-1.5 1.745-1.5c.275 0-.06.675-.745 1.5S71.53 43 71.255 43zM175.5 42a.501.501 0 0 1-.5-.5c0-.275.225-.5.5-.5s.5.225.5.5-.225.5-.5.5zm3.5-.5c-.55.34-1 .393-1 .118s.45-.778 1-1.118c.55-.34 1-.393 1-.118s-.45.778-1 1.118zm-71.5-.5a.501.501 0 0 1-.5-.5c0-.275.225-.5.5-.5s.5.225.5.5-.225.5-.5.5zm101.118 0c-.275 0-.778-.45-1.118-1-.34-.55-.393-1-.118-1s.778.45 1.118 1c.34.55.393 1 .118 1zM264 40.5c-.55.34-1 .393-1 .118s.45-.778 1-1.118c.55-.34 1-.393 1-.118s-.45.778-1 1.118zm57.5.5a.501.501 0 0 1-.5-.5c0-.275.225-.5.5-.5s.5.225.5.5-.225.5-.5.5zm-32-1a.501.501 0 0 1-.5-.5c0-.275.225-.5.5-.5s.5.225.5.5-.225.5-.5.5zm-261-1a.501.501 0 0 1-.5-.5c0-.275.225-.5.5-.5s.5.225.5.5-.225.5-.5.5zm153 0a.501.501 0 0 1-.5-.5c0-.275.225-.5.5-.5s.5.225.5.5-.225.5-.5.5zm-104-1a.501.501 0 0 1-.5-.5c0-.275.225-.5.5-.5s.5.225.5.5-.225.5-.5.5zm215 0a.501.501 0 0 1-.5-.5c0-.275.225-.5.5-.5s.5.225.5.5-.225.5-.5.5zm-213-1a.501.501 0 0 1-.5-.5c0-.275.225-.5.5-.5s.5.225.5.5-.225.5-.5.5zm23 0a.501.501 0 0 1-.5-.5c0-.275.225-.5.5-.5s.5.225.5.5-.225.5-.5.5zm68 0a.501.501 0 0 1-.5-.5c0-.275.225-.5.5-.5s.5.225.5.5-.225.5-.5.5zm33 0a.501.501 0 0 1-.5-.5c0-.275.225-.5.5-.5s.5.225.5.5-.225.5-.5.5zm64 0a.501.501 0 0 1-.5-.5c0-.275.225-.5.5-.5s.5.225.5.5-.225.5-.5.5zm27 0a.501.501 0 0 1-.5-.5c0-.275.225-.5.5-.5s.5.225.5.5-.225.5-.5.5zm-266-1a.501.501 0 0 1-.5-.5c0-.275.225-.5.5-.5s.5.225.5.5-.225.5-.5.5zm30 0a.501.501 0 0 1-.5-.5c0-.275.225-.5.5-.5s.5.225.5.5-.225.5-.5.5zm42 0a.501.501 0 0 1-.5-.5c0-.275.225-.5.5-.5s.5.225.5.5-.225.5-.5.5zm68 0a.501.501 0 0 1-.5-.5c0-.275.225-.5.5-.5s.5.225.5.5-.225.5-.5.5zm18 0a.501.501 0 0 1-.5-.5c0-.275.225-.5.5-.5s.5.225.5.5-.225.5-.5.5zm15 0a.501.501 0 0 1-.5-.5c0-.275.225-.5.5-.5s.5.225.5.5-.225.5-.5.5zm114 0a.501.501 0 0 1-.5-.5c0-.275.225-.5.5-.5s.5.225.5.5-.225.5-.5.5zm-158-1a.501.501 0 0 1-.5-.5c0-.275.225-.5.5-.5s.5.225.5.5-.225.5-.5.5zm8 0a.501.501 0 0 1-.5-.5c0-.275.225-.5.5-.5s.5.225.5.5-.225.5-.5.5zm-154-2a.501.501 0 0 1-.5-.5c0-.275.225-.5.5-.5s.5.225.5.5-.225.5-.5.5zm27 0a.501.501 0 0 1-.5-.5c0-.275.225-.5.5-.5s.5.225.5.5-.225.5-.5.5zm-5-1a.501.501 0 0 1-.5-.5c0-.275.225-.5.5-.5s.5.225.5.5-.225.5-.5.5zm23-3a.501.501 0 0 1-.5-.5c0-.275.225-.5.5-.5s.5.225.5.5-.225.5-.5.5zm-42-2a.501.501 0 0 1-.5-.5c0-.275.225-.5.5-.5s.5.225.5.5-.225.5-.5.5zm40-1a.501.501 0 0 1-.5-.5c0-.275.225-.5.5-.5s.5.225.5.5-.225.5-.5.5zm-35-4a.501.501 0 0 1-.5-.5c0-.275.225-.5.5-.5s.5.225.5.5-.225.5-.5.5zm31 0a.501.501 0 0 1-.5-.5c0-.275.225-.5.5-.5s.5.225.5.5-.225.5-.5.5zm-25-3a.501.501 0 0 1-.5-.5c0-.275.225-.5.5-.5s.5.225.5.5-.225.5-.5.5zm3-1a.501.501 0 0 1-.5-.5c0-.275.225-.5.5-.5s.5.225.5.5-.225.5-.5.5zm13 0a.501.501 0 0 1-.5-.5c0-.275.225-.5.5-.5s.5.225.5.5-.225.5-.5.5z" transform="matrix(.62945 -.00197 0 .64865 -4.76 157.904)"/></g><text xml:space="preserve" style="font-size:16px;font-style:normal;font-variant:normal;font-weight:400;font-stretch:normal;line-height:125%;letter-spacing:0;word-spacing:0;fill:purple;fill-opacity:1;stroke:none;font-family:K26ChicoryBean;-inkscape-font-specification:K26ChicoryBean" x="209.695" y="183.739"><tspan x="209.695" y="183.739" style="font-size:23.60000038px;font-style:normal;font-variant:normal;font-weight:700;font-stretch:normal;fill:purple;font-family:Tw Cen MT;-inkscape-font-specification:Tw Cen MT Bold">tv</tspan></text></svg>