<svg id="Layer_1" data-name="Layer 1" xmlns="http://www.w3.org/2000/svg" viewBox="0 0 84 84"><defs><style>.cls-1{fill:#42c2ff;}.cls-2{fill:none;stroke:#42c2ff;stroke-width:2px;}</style></defs><path class="cls-1" d="M53,63h8V19H53Z"/><path class="cls-2" d="M83,44c0,21-18,39-41,39S1,65,1,44C1,22,19,4,42,4S83,22,83,44Z"/><path class="cls-1" d="M18,37.9A15.08,15.08,0,0,1,31.5,29.8a14.46,14.46,0,0,1,6.81,1.53A13.92,13.92,0,0,1,43,35.14v-4.8h6.9V63.4H43V58.48a13.77,13.77,0,0,1-4.74,3.9,14.67,14.67,0,0,1-6.84,1.56,14.51,14.51,0,0,1-7.8-2.19A15.46,15.46,0,0,1,18,55.63a18.83,18.83,0,0,1-2.07-8.91A18.3,18.3,0,0,1,18,37.9Zm23.58,3a10,10,0,0,0-3.69-3.84A9.93,9.93,0,0,0,28,37a9.59,9.59,0,0,0-3.69,3.78,11.7,11.7,0,0,0-1.41,5.91,12.21,12.21,0,0,0,1.41,6,9.81,9.81,0,0,0,3.72,3.93A9.49,9.49,0,0,0,32.94,58a9.71,9.71,0,0,0,4.92-1.32,9.92,9.92,0,0,0,3.69-3.87,12.25,12.25,0,0,0,1.41-6A12.08,12.08,0,0,0,41.55,40.9Z"/></svg>