<svg xmlns="http://www.w3.org/2000/svg" width="1718.34" height="2050" xml:space="preserve"><path fill="#FECC0B" d="M1300 1132.5c-201.3 131.2-375.4 211.4-522.7 251.9l-.4-111.6-213.1 64.79-.4 79.8C106.3 1423.1 44.5 933 356.7 608.3c-209.1 484.1 503.5 405 809.9 450.1 80.8 11.9 133.4 32.4 133.4 74.1z"/><path fill="#22297C" d="M1502.5 1446v59l-132.71 40.38.09-59.03zM807.5 1636.89v64.61l-30.6 9.3-105 31.99v-64.59l105-32zM650 1691.26v64.6l-86.2 26.3-49.4 15v-64.6l49.4-15z"/><path fill="#22297C" d="M1562.5 1174.3v119.45c0 22.5-20 50.84-65.47 67.22l-134.53 40.93-50 15.21v179.78c-1.25 35-28.75 52.5-51.23 61.31l-153.16 46.62-68.71 20.9s-151.47 46.21-152.82 46.5c-30.95 6.76-43.03-8.46-44.67-22.82v-122.98l197.5-60v72.14c0 21.67 68.11 16.46 68.71-13.54v-312.4l201.09-61.19v79.2c12.47 23.55 60.39 16.89 60.8-15.21v-82.5l132.5-40.3 59.99-18.32zM1315 1113.3c300-230 490-666.7-1286.7-830 1553.4-700 2093.4 270 1286.7 830z"/><path fill="#22297C" d="M1039.4 1333.5v137.4c0 14.4-13.51 34.4-38.8 41.1l-158.7 48.3-34.4 10.5-30.6 9.3-105 31.9-21.9 6.7-86.2 26.2-49.4 15.1-6.9 2.1-141.1 42.9c-32.3 5.3-63.9-5.9-68.9-30v-115.7l210-63.9v89.6c3.5 14.2 53.1 10.4 55-12.5l.9-155.1.4-79.8 213.1-64.79.4 111.6.5 112.5c1 18.69 52.8 7.2 52.6-15.3l-.4-84.41 11.9-3.59 197.5-60.11z"/><g fill="#22297C"><path d="m219.32 1994.34 33.15-97.01h16.11l33.15 97.01h-13.8l-8.92-27.11h-37.57l-8.92 27.11h-13.2zm56.07-38.12-15.19-45.74-15.12 45.74h30.31zM399.17 1994.34h-56.99v-97.01h13.08v85.55h43.92v11.46h-.01zM471.75 1996.23c-6.95 0-13.32-1.05-19.08-3.13-5.77-2.08-10.72-5.25-14.86-9.51-4.14-4.3-7.31-9.62-9.51-15.97-2.2-6.34-3.3-13.63-3.3-21.89 0-7.81 1.11-14.81 3.33-21.01 2.22-6.19 5.4-11.47 9.54-15.87 4-4.26 8.94-7.54 14.79-9.83 5.85-2.3 12.26-3.46 19.21-3.46 3.31 0 6.47.24 9.51.71 3.04.49 5.94 1.13 8.72 1.96 2.2.65 4.66 1.55 7.36 2.71 2.71 1.15 4.9 2.14 6.57 2.96v15.58h-1.12a72.465 72.465 0 0 0-5.05-4.07c-1.74-1.28-4.19-2.67-7.36-4.14-2.64-1.3-5.68-2.39-9.12-3.25-3.43-.88-7.13-1.31-11.09-1.31-9.47 0-17.11 3.52-22.95 10.56s-8.75 16.4-8.75 28.08c0 6.52.77 12.21 2.31 17.07 1.54 4.87 3.76 9 6.67 12.38 2.82 3.35 6.22 5.9 10.21 7.66 3.99 1.76 8.46 2.64 13.44 2.64 3.7 0 7.37-.25 11.03-.78 3.65-.52 6.73-1.3 9.24-2.34v-25.08h-22.71v-11.35h35.66v42.36c-1.67.73-3.91 1.67-6.7 2.79-2.8 1.13-5.41 2.02-7.83 2.68-3.22.96-6.12 1.67-8.72 2.15-2.6.48-5.74.7-9.44.7zM568.1 1908.79v26.58h45.11v11.46H568.1v36.04h48.41v11.46h-61.48v-97h19.14l9.92-21.11 8.08 5.03-8.25 16.08h32.59v11.46zM721.21 1994.34h-16.97l-31.17-38.57h-14.93v38.57h-13.08v-97.01h25.36c5.63 0 10.36.29 14.17.91 3.81.61 7.43 2.02 10.86 4.23 3.43 2.18 6.15 4.98 8.15 8.41 2 3.43 3.01 7.69 3.01 12.77 0 7.12-1.83 13.08-5.48 17.85-3.65 4.77-8.63 8.32-14.93 10.62l35.01 42.22zm-28.27-69.72c0-2.82-.51-5.33-1.52-7.53-1.02-2.19-2.58-3.98-4.69-5.37-1.85-1.21-4.01-2.07-6.47-2.58-2.47-.49-5.53-.74-9.18-.74h-12.94v36.62h11.49c3.74 0 7.11-.33 10.1-.99 2.99-.66 5.55-2 7.66-4.03 1.89-1.84 3.29-4 4.19-6.52.91-2.52 1.36-5.47 1.36-8.86zM761.88 1994.34h-13.02v-87.11l.05-9.9h13.13l-.1 9.9v77.21l-.06 9.9zM807.76 1994.34v-97.01h61.48v11.46h-48.41v26.58h45.11v11.46h-45.11v36.04h48.41v11.46h-61.48v.01z"/></g><g fill="#22297C"><path d="M1046.64 1921.21c0 4.84-.93 9.45-2.79 13.83-1.88 4.37-4.56 8.02-8.07 10.96a55.085 55.085 0 0 1-7.09 5.02c-2.58 1.53-5.43 2.83-8.54 3.91-3.13 1.07-6.5 1.91-10.16 2.52-3.66.61-7.73.9-12.27.9h-16.65v33.99h-31.76v-103.93h49.09c7.29 0 13.59.55 18.89 1.64s10.1 2.82 14.39 5.21c4.76 2.6 8.44 6.07 11.04 10.43 2.62 4.35 3.92 9.52 3.92 15.52zm-32.6.63c0-2.93-.86-5.45-2.56-7.57-1.7-2.12-3.73-3.56-6.11-4.37-3-1.06-5.87-1.68-8.61-1.85-2.75-.17-6.47-.24-11.17-.24h-4.5v31.13h2.21c3 0 5.83-.03 8.49-.08 2.66-.04 4.98-.21 6.96-.49 1.7-.23 3.5-.68 5.39-1.36 1.89-.68 3.36-1.44 4.38-2.28 2.15-1.72 3.61-3.51 4.38-5.37.75-1.84 1.14-4.36 1.14-7.52zM1188.79 1940.41c0 16.8-5.47 30.01-16.4 39.64-10.93 9.64-25.91 14.44-44.92 14.44-19.08 0-34.05-4.86-44.93-14.61-10.86-9.76-16.3-22.91-16.3-39.47 0-16.71 5.44-29.91 16.3-39.61 10.88-9.71 25.85-14.55 44.93-14.55 19.01 0 33.99 4.82 44.92 14.47 10.93 9.67 16.4 22.89 16.4 39.69zm-32.79-.08c0-6.18-.77-11.46-2.32-15.8-1.56-4.36-3.64-7.93-6.25-10.72-2.71-2.83-5.78-4.86-9.21-6.1a31.32 31.32 0 0 0-10.65-1.85c-3.91 0-7.45.57-10.63 1.71-3.16 1.14-6.22 3.17-9.16 6.1-2.62 2.7-4.72 6.29-6.33 10.75-1.62 4.46-2.42 9.79-2.42 15.99 0 6.37.76 11.66 2.29 15.88 1.53 4.21 3.63 7.73 6.29 10.57 2.71 2.89 5.8 4.94 9.26 6.18 3.46 1.23 7.01 1.85 10.7 1.85 3.73 0 7.35-.66 10.86-1.99 3.52-1.32 6.54-3.38 9.09-6.17 2.72-3.03 4.81-6.54 6.28-10.57 1.47-4.04 2.2-9.3 2.2-15.83zM1256.62 1994.22c-9.69 0-18.19-.76-25.53-2.3-7.32-1.53-14.14-3.44-20.42-5.72v-24.71h2.88c6.35 4.41 13.34 7.81 20.98 10.2 7.65 2.36 15.06 3.55 22.25 3.55 1.82 0 4.21-.16 7.19-.49 2.97-.33 5.35-.84 7.17-1.54 2.21-.78 4.08-1.89 5.61-3.31 1.53-1.42 2.29-3.29 2.29-5.62 0-2.61-1.24-4.73-3.74-6.35-2.49-1.63-5.46-2.81-8.91-3.56-4.32-.93-8.91-1.82-13.81-2.65-4.9-.84-9.47-1.87-13.71-3.08-9.79-2.84-16.82-6.65-21.05-11.45-4.26-4.79-6.38-10.79-6.38-18.01 0-9.73 5.01-17.6 15.03-23.62 10.02-6.04 22.54-9.04 37.54-9.04 7.53 0 15.02.63 22.46 1.88 7.44 1.25 14.1 2.96 20 5.1v23.73h-2.8c-4.7-3.31-10.44-6.1-17.2-8.38a64.856 64.856 0 0 0-20.85-3.42c-2.77 0-5.26.17-7.47.49s-4.53.95-6.97 1.88c-1.97.74-3.69 1.86-5.14 3.32-1.44 1.46-2.16 3.11-2.16 4.92 0 2.65 1.14 4.75 3.44 6.31 2.3 1.56 6.73 2.97 13.29 4.22 4.25.8 8.34 1.56 12.27 2.3 3.95.74 8.14 1.78 12.62 3.08 8.77 2.61 15.29 6.1 19.57 10.5 4.28 4.4 6.42 10.21 6.42 17.42 0 10.33-4.94 18.63-14.81 24.91-9.9 6.29-23.25 9.44-40.06 9.44zM1361.97 1992.33v-84.1h-37.36v-19.82h106.49v19.82h-37.36v84.1h-31.77zM1454.18 1992.33V1888.4h85.52v19.82h-53.93v18.21h49.68v19.82h-49.68v26.24h53.93v19.82h-85.52v.02z"/></g></svg>