<svg xmlns="http://www.w3.org/2000/svg" xmlns:xlink="http://www.w3.org/1999/xlink" width="138.25" height="74.107" xml:space="preserve"><defs><path id="a" d="M1.962 2.864H136.25v71.244H1.962z"/></defs><clipPath id="b"><use xlink:href="#a" overflow="visible"/></clipPath><path clip-path="url(#b)" fill-rule="evenodd" clip-rule="evenodd" fill="#0089CF" d="m9.431 48.639 10.683-13.726s6.342-2.605 16.677-2.256c0 0 18.33.955 20.24 1.04 0 0 11.728 1.391 19.979-2.171L65.892 45.25s-9.208 4.777-24.669 2.433c0 0-14.505-1.39-21.542-.694 0-.001-7.21.433-10.25 1.65M6.825 51.678s3.734-2.347 21.628-1.648c0 0 13.552 1.389 17.112 1.215 0 0 9.642.52 17.372-2.605l-4.343 5.733s-6.949 3.386-21.977 2.169c0 0-16.328-1.648-21.888-.954 0 0-9.293.521-12.77 2.345l4.866-6.255z"/><path clip-path="url(#b)" fill-rule="evenodd" clip-rule="evenodd" fill="#0F387A" d="M70.234 49.508h39.608l4.171 9.206h-51.51zM72.145 47.422h36.657l-1.825-5.039s-1.91-3.56 3.04-5.992l26.233-17.632h-31.012s-7.47 12.508-19.543 13.81L95.859 20.67s2.778-2.867.086-7.123c0 0-2.085-2.605-6.429-2.433H72.493L59.896 25.879h19.285s4.256.174 4.777 4.256c0 0 .867 2.954-1.737 5.04L72.145 47.422z"/><path clip-path="url(#b)" fill="#FFF" d="M97.161 29.268s7.563-6.339 8.606-9.555h25.185l-33.791 9.555z"/><path clip-path="url(#b)" fill-rule="evenodd" clip-rule="evenodd" fill="#0F387A" d="m74.402 9.203 5.212-6.341h19.109s6.691 1.214 4.952 7.47c0 0 .089 1.738-5.558 6.948 0 0 .781-4.688-1.044-6.254 0 0-1.91-1.91-3.474-1.736l-19.197-.087z"/><path clip-path="url(#b)" fill="#FFF" d="m76.314 8.523 4.171-4.879h17.718s4.344.521 4.692 3.909c0 0 .867 2.779-2.26 5.821l-1.389 1.04s-.435-5.472-4.69-5.905l-18.242.014z"/><g><path fill="#0F387A" d="M98.389 67.936c-.018 1.715 1.423 2.474 2.961 2.474 1.89 0 2.892-.954 2.892-2.229 0-1.577-1.558-1.898-2.063-2.024-1.743-.449-2.074-.517-2.074-1.053 0-.584.564-.788 1.052-.788.73 0 1.325.213 1.373 1.052h1.479c0-1.607-1.333-2.24-2.784-2.24-1.258 0-2.601.683-2.601 2.104 0 1.305 1.042 1.704 2.073 1.977 1.023.272 2.065.398 2.065 1.15 0 .71-.819.865-1.354.865-.818 0-1.538-.359-1.538-1.286h-1.481zm-5.867 2.308H97.8V68.96h-3.75v-1.704h3.369v-1.189H94.05v-1.489h3.672v-1.285h-5.2v6.951zm-2.872 0h1.529v-6.952H89.65v6.952zm-5.497-5.765h1.674c.684 0 1.055.292 1.055.964 0 .701-.371.993-1.055.993h-1.674v-1.957zm-1.527 5.765h1.527v-2.716h1.528c.77 0 1.054.32 1.161 1.051.076.556.057 1.227.242 1.665h1.529c-.272-.389-.264-1.208-.294-1.646-.046-.702-.262-1.432-1.012-1.626v-.02c.77-.312 1.101-.926 1.101-1.743 0-1.053-.789-1.918-2.035-1.918h-3.748v6.953zm-5.499-5.765h1.676c.682 0 1.053.292 1.053.964 0 .701-.371.993-1.053.993h-1.676v-1.957zm-1.528 5.765h1.528v-2.716h1.529c.77 0 1.053.32 1.159 1.051.079.556.058 1.227.242 1.665h1.53c-.272-.389-.262-1.208-.292-1.646-.049-.702-.262-1.432-1.014-1.626v-.02c.77-.312 1.101-.926 1.101-1.743 0-1.053-.789-1.918-2.035-1.918h-3.749v6.953zm-6.306 0h5.277V68.96h-3.749v-1.704h3.369v-1.189h-3.369v-1.489h3.672v-1.285h-5.2v6.951zm-5.772 0h1.529v-2.873h2.912v-1.188H65.05v-1.606h3.359v-1.285H63.52v6.952zm-6.822-2.064h2.933v-1.188h-2.933v1.188zm-8.855 2.064h5.279V68.96h-3.75v-1.704h3.37v-1.189h-3.37v-1.489h3.672v-1.285h-5.201v6.951zm-2.87 0h1.529v-6.952h-1.529v6.952zm-5.497-5.765h1.675c.683 0 1.052.292 1.052.964 0 .701-.369.993-1.052.993h-1.675v-1.957zm-1.529 5.765h1.528v-2.716h1.529c.769 0 1.051.32 1.159 1.051.077.556.058 1.227.243 1.665h1.528c-.272-.389-.263-1.208-.292-1.646-.049-.702-.263-1.432-1.014-1.626v-.02c.771-.312 1.101-.926 1.101-1.743 0-1.053-.788-1.918-2.035-1.918h-3.748v6.953zm-6.306 0h5.278V68.96h-3.75v-1.704h3.37v-1.189h-3.37v-1.489h3.672v-1.285h-5.201v6.951zm-2.205 0h.974v-3.758h-2.922v1.138h1.539c-.087.966-.662 1.501-1.655 1.501-1.373 0-1.889-1.17-1.889-2.329 0-1.216.516-2.384 1.889-2.384.72 0 1.295.398 1.471 1.168h1.46c-.166-1.578-1.509-2.454-2.931-2.454-2.152 0-3.418 1.606-3.418 3.67 0 2.007 1.266 3.613 3.418 3.613.672 0 1.373-.262 1.909-.954l.155.789zm-10.952 0h4.917V68.96h-3.389v-5.668h-1.529v6.952zm-4.007-5.239h.019l.877 2.552h-1.802l.906-2.552zm-3.4 5.239h1.548l.546-1.548h2.6l.526 1.548h1.587l-2.601-6.952h-1.568l-2.638 6.952z"/></g></svg>