<svg version="1.2" xmlns="http://www.w3.org/2000/svg" viewBox="0 0 143 152" width="143" height="152"><defs><clipPath clipPathUnits="userSpaceOnUse" id="cp1"><path d="m0 0h142.5v151.5h-142.5z" /></clipPath></defs><style>.s0{fill:#00aeef}</style><g clip-path="url(#cp1)"><path class="s0" d="m78 53.5c-3 0-5.5 0.4-6.6 0.6v-5.5c1.5-0.2 3.8-0.5 6.5-0.5c4.2 0 10.3 0.8 15 4.4c4.8 3.7 7.2 9.6 7.2 17.3q0 0.2 0 0.3c-0.2 25.5-23.6 32.2-28.7 33.4v-5.5c5.5-1.4 23.1-7.6 23.3-27.9c0-6.2-1.7-10.7-5.2-13.4c-2.8-2.1-6.7-3.2-11.5-3.2z" /><path class="s0" d="m84.5 86.1c-5.1 6.2-12.8 9.3-22.9 9.3c-33 0-40.2-32.9-40.8-35.8h5.6c1.2 5.3 8.3 30.4 35.2 30.4c8.5 0 14.7-2.5 18.7-7.3c7.1-8.7 4.7-22.5 4.6-23.1h5.5c0.6 4 1.7 17.2-5.9 26.5z" /><path class="s0" d="m107.3 69.2c0 32.9-33 40.1-35.9 40.7v-5.5c5.3-1.2 30.4-8.3 30.4-35.2c0-8.5-2.5-14.8-7.3-18.7c-5.2-4.3-12.1-5.1-17.1-5.1c-3.4 0-5.9 0.4-6 0.4v-5.4c1.1-0.2 3.3-0.4 6.1-0.4c5.8 0 14 1.1 20.5 6.3c6.1 5 9.3 12.7 9.3 22.9z" /><path class="s0" d="m35.5 49.9c0-32.9 32.9-40.1 35.9-40.7v5.5c-5.3 1.2-30.4 8.4-30.4 35.2c0 8.5 2.4 14.8 7.3 18.8c5.1 4.2 12.1 5 17 5c3.5 0 6-0.4 6-0.4h0.1v5.4c-1.1 0.2-3.3 0.4-6.1 0.4c-5.8 0-14.1-1-20.5-6.3c-6.1-5-9.3-12.7-9.3-22.9z" /><path class="s0" d="m64.8 66.6c3 0 5.5-0.4 6.6-0.6v5.5c-1.5 0.2-3.8 0.5-6.5 0.5c-4.2 0-10.3-0.7-15-4.4c-4.8-3.7-7.2-9.5-7.2-17.3v-0.3c0.1-25.5 23.5-32.2 28.7-33.4v5.5c-5.6 1.4-23.1 7.6-23.3 27.9c0 6.2 1.7 10.7 5.2 13.4c2.8 2.1 6.6 3.2 11.5 3.2z" /><path class="s0" d="m28.2 59.6h5.6c1.4 5.5 7.5 23.1 27.9 23.2h0.1c6.1 0 10.6-1.7 13.2-5.1c4.7-6 3.1-15.8 2.6-18.1h5.5c0.7 4.1 1.7 14.3-3.8 21.4c-3.8 4.9-9.6 7.3-17.4 7.3q-0.1 0-0.3 0c-25.4-0.2-32.2-23.6-33.4-28.7z" /><path class="s0" d="m114.5 59.6h-5.5c-1.4-5.6-7.5-23.2-27.9-23.3h-0.1c-6.1 0-10.6 1.7-13.2 5.1c-4.7 6-3.1 15.8-2.6 18.2h-5.5c-0.7-4.2-1.7-14.4 3.8-21.5c3.7-4.9 9.6-7.3 17.4-7.3h0.3c25.4 0.2 32.2 23.6 33.3 28.8z" /><path class="s0" d="m121.9 59.6h-5.5c-1.2-5.4-8.3-30.5-35.2-30.5c-8.5 0-14.8 2.5-18.7 7.3c-7.2 8.8-4.7 22.9-4.7 23.1l0.1 0.1h-5.5c-0.6-4.1-1.7-17.3 5.9-26.6c5-6.2 12.7-9.3 22.9-9.3c33 0 40.1 32.9 40.7 35.9z" /><path fill-rule="evenodd" class="s0" d="m76.1 60.1l-3.8 3.6l0.2-3.9l1.9-1.7z" /><path fill-rule="evenodd" class="s0" d="m73.6 57l-2.3 2.3l-1.8-1.5l-2.2 2.3l-0.6-0.6l4.6-4.8z" /><path fill-rule="evenodd" class="s0" d="m71.4 64.4l-3.7-3.6l0.7-0.7l2 2v-2h1.1z" /><path class="s0" d="m29.9 124.9q-0.2-0.2-0.9-0.6q-0.7-0.4-1.7-0.8q-1.1-0.4-2.3-0.8q-1.3-0.3-2.5-0.3q-1.7 0-2.6 0.5q-0.8 0.6-0.8 1.6q0 0.7 0.4 1.1q0.3 0.5 1.1 0.8q0.7 0.4 1.8 0.6q1 0.3 2.4 0.7q2 0.5 3.6 1.1q1.6 0.6 2.8 1.5q1.1 0.9 1.7 2.2q0.6 1.2 0.6 3q0 2.2-0.9 3.7q-0.8 1.5-2.3 2.4q-1.4 1-3.3 1.4q-1.9 0.4-3.9 0.4q-1.5 0-3.1-0.2q-1.6-0.2-3.1-0.7q-1.5-0.4-3-1q-1.4-0.5-2.6-1.3l2.8-5.2q0.2 0.2 1 0.7q0.9 0.5 2.1 1q1.3 0.5 2.8 0.9q1.6 0.4 3.2 0.4q3.4 0 3.4-1.9q0-0.7-0.5-1.2q-0.5-0.5-1.4-0.9q-0.9-0.3-2.1-0.7q-1.2-0.3-2.7-0.7q-1.9-0.5-3.3-1.2q-1.4-0.6-2.3-1.4q-1-0.9-1.4-2q-0.5-1.1-0.5-2.5q0-2 0.8-3.6q0.9-1.6 2.3-2.6q1.4-1.1 3.2-1.7q1.9-0.5 4-0.5q1.4 0 2.8 0.2q1.5 0.3 2.7 0.7q1.3 0.4 2.4 0.9q1.2 0.5 2.1 1z" /><path fill-rule="evenodd" class="s0" d="m34 143.1l10.6-25.8h5.2l10.7 25.8h-6.8l-2.2-5.8h-8.6l-2.1 5.8zm13.2-19.5l-3.3 9.6h6.5z" /><path class="s0" d="m63 143.1v-25.8h18.8v5.2h-12.4v5.6h10.2v4.8h-10.2v10.2z" /><path class="s0" d="m104.5 137.9v5.2h-19.4v-25.8h19.1v5.2h-12.7v5.1h10.9v4.8h-10.9v5.5z" /><path class="s0" d="m112.5 117.3l6.1 8.9l6-8.9h6.9l-9.6 13.1l9.3 12.7h-6.9l-5.7-8.5l-5.8 8.5h-6.9l9.3-12.7l-9.6-13.1z" /></g></svg>