<svg width="48" height="48" xmlns="http://www.w3.org/2000/svg"><path d="M18.738 6v11.06h3.93l1.685 6.948h-5.615v8.976c0 .733.242 1.351.73 1.853.486.502 1.067.753 1.74.753H25.7l1.685 6.948h-6.177c-1.273 0-2.47-.25-3.593-.753a9.064 9.064 0 0 1-2.92-2.055 9.979 9.979 0 0 1-1.965-3.04 9.457 9.457 0 0 1-.73-3.706V7.737L18.738 6zm13.935 23.73c2.39 0 4.327 2.006 4.327 4.48 0 2.476-1.937 4.482-4.327 4.482-2.39 0-4.327-2.006-4.327-4.481s1.937-4.482 4.327-4.482zm0-14.115c2.39 0 4.327 2.007 4.327 4.482s-1.937 4.481-4.327 4.481c-2.39 0-4.327-2.006-4.327-4.481s1.937-4.482 4.327-4.482z" fill="#FE7F4E" fill-rule="evenodd"/></svg>