<svg id="Calque_1" data-name="Calque 1" xmlns="http://www.w3.org/2000/svg" viewBox="0 0 141.73 141.73"><defs><style>.cls-1{fill:#03528c;}.cls-1,.cls-2,.cls-3,.cls-4,.cls-5{fill-rule:evenodd;}.cls-2{fill:#fff;}.cls-3{fill:#066ab3;}.cls-4{fill:#234977;}.cls-5,.cls-6{fill:#ee7e08;}</style></defs><path class="cls-1" d="M123.17,99a5.06,5.06,0,0,0,1.32,1.2c-1,1.08.17,3.65-.91,4.72h-3.71c-.4.76-.62,1.67-1.56,2a5,5,0,0,1-2.15-.64c1.25-.15,2.42-.38,2.8-1.26-2.3.11-1.45-2.82-.33-3.31.93.22.92,1.23,1.32,1.9a33.68,33.68,0,0,0,3.38-.07c.37-1.66-1-3.24-.16-4.51m-5,4.3c.1.17.34.22.58.28.36-.39-.52-.81-.58-.28"/><path class="cls-1" d="M125.31,99.17c.49,1.43,1,4.3.08,5.63-.26-1.74-1-4.12-.08-5.63"/><path class="cls-1" d="M119.62,111.91c.06,1.91-.11,4.59.09,6.62a3,3,0,0,1-1.4,0c.19-2.06,0-4.74.08-6.69.36.16,1,0,1.23.07"/><path class="cls-1" d="M126,112.05c0-.15.35,0,.49-.07a1,1,0,0,1,.25,1.27c-1,.67-1.62-.88-.74-1.2"/><path class="cls-1" d="M121.85,114.31c3.18-1.07,3.84,3.47,1.81,4.29-3.37,1.35-4.45-3.57-1.81-4.29m.74,4c1.29,0,1.22-3.86-.08-3.66-1.14.17-1.14,3.66.08,3.66"/><path class="cls-1" d="M126.79,114.38v4.22a4.31,4.31,0,0,1-1.23-.07,23.35,23.35,0,0,0,0-4,.38.38,0,0,1,.25-.21c.32,0,.78-.07,1,.07"/><path class="cls-1" d="M74.87,99a5.32,5.32,0,0,0,1.32,1.27c-.68.65-.46,1.68-.57,2.75,1-.2,1.77-1.46,3.13-1.34,2.3.2.5,3-1.24,3.24-1.16.17-2.42-.13-3.71,0-.23-.13-.52-.22-.66-.43-.45.57-2.44.62-2.88,0-.27.1-.38.34-.66.43-2.07-.17-6.26.21-8.24,0-1-.12-.94-1.21-1.57-1.76-1.09,0-1.07,2.62-2.31,2.6s-1.1-2.74-.82-3.8c.38.78,0,2.24.91,2.53,1.22-.57.94-2.43,2.72-2.53.57.38.45,1.35,1.15,1.62h4.12c2.33,0,4.56.38,5-1.06.35,0,0,.62.24.78a1.7,1.7,0,0,0,2.56-.78c.44,0,0,.45.25.71a1.55,1.55,0,0,0,1.31.35c.62-1.54-.92-3.36,0-4.58m1.24,4.51c.73.08,2.27.25,2.55-.28-.59-.71-2.11-.19-2.55.28"/><path class="cls-1" d="M21.14,99.1c.38,1.26-.09,3.82,1.24,4.51,2.7-.09,5.81.18,8.24-.14.36-.19.36-.68.66-.92.32.22.15.9.74,1.06,1.35,0,2.91.09,4.12-.07-.07-.39-.6-.38-1-.49.12-.39.26-.77.41-1.13,1.51-.57,3.27.26,2.31,1.62a29.23,29.23,0,0,0,4,.07c.75-.15.77-.78,1.4-.85.17.22-.28.39-.25.71,1,.54,1.52-.37,1.9-.78.41.17-.14.42,0,.78.93.58,1.1-.57,1.48-.92.45.07-.15.59.16.78a2.24,2.24,0,0,0,2.06.14c.53-.27.31-.91.91-.92v.64c.21.53,1.7.59,2,.07,0-1.5-.82-3.31.41-4.16.35,1.45-.69,5.36,2.23,4.37-.18-1.12,0-2.5-.66-3.24a2.58,2.58,0,0,1,.49-1.13,4.2,4.2,0,0,0,1.24,1.13c.07.41-.4.61-.5,1-.23,1.14.48,2.67-.24,3.6-1,.17-2.47.14-2.72-.57-.22.14-.25.45-.5.57-.75.11-1.91.18-2.06-.43-.38.67-2.76.74-3.13,0a1.32,1.32,0,0,1-1.73.21c-.48.5-1.26.06-2,.07-.24,0-.47.18-.74.22-1.52.21-4.16.09-4.78-.43-.54.6-5,.71-5.69,0-.32.08-.4.37-.74.43-2.5-.26-5.67.34-8,0-.33,0-.53-.22-.83-.29-.26.13-.24.5-.24.85a2.64,2.64,0,0,1-2.81,1.19c-1.86-.37-1.32-3.68-.16-4.15-.56,1-.79,2.58.66,2.75a2.1,2.1,0,0,0,1.89-.71c.12-1.91-1-4.27.25-5.49"/><path class="cls-1" d="M86.58,99.1a13.61,13.61,0,0,1,1.31,1.2c-.89,1.17.16,3.56-.82,4.65H83.36c-.56.63-.56,1.84-1.65,2a4.77,4.77,0,0,1-2.14-.64c1.24-.16,2.44-.35,2.8-1.26a4.24,4.24,0,0,1-1.23-.36,2.48,2.48,0,0,1,.9-3c1,.19.94,1.21,1.32,1.9h3.38c.45-1.66-.93-3.2-.16-4.51m-5,4.23a.83.83,0,0,0,.74.21c0-.38-.64-.7-.74-.21"/><path class="cls-1" d="M88.88,99.1c.22,1.82.91,4.08,0,5.63-.33-1.56-1.14-4.26,0-5.63"/><path class="cls-1" d="M103.31,99.1c.4.46.94.79,1.31,1.27-1.11,1,.2,3.59-.9,4.58H99.43c-1.46,0-3.23.25-4.12-.07s-.57-1.22-1.23-1.69c-1.13,0-1,2.54-2.23,2.6-1.4.07-1.09-2.84-.9-3.87.36.79,0,2.23.82,2.6,1.35-.49,1-2.44,2.8-2.53.57.38.45,1.35,1.15,1.62,2.56,0,5.33.09,7.75-.07.42-1.39-1-3.26-.16-4.44"/><path class="cls-1" d="M105.61,99.1c.4,1.45-.19,3.73,1,4.51h8.57c0-.61-1-.42-1.48-.42-2,0-4.63.27-6.1-.29.38-2.15,2.58-2.77,4.7-3.44-.27,1.64-2.82,1.34-3.63,2.53,2.51.65,7.74-1.13,7.83,1.48,0,.57-.44.82-.57,1.41-1.37.12-3.15.07-5,.07-1.64,0-4.38.28-5.11-.22a2.44,2.44,0,0,1-.58-1.33c-.2-1.43-.5-3.46.33-4.3"/><path class="cls-1" d="M37.38,99.88a1.57,1.57,0,0,1-.83.7c-.47,0-.46-.45-.82-.56.1-.36.56-.41.66-.78.53.05.59.48,1,.64"/><path class="cls-1" d="M58.14,99.67c.31,0,.38-.29.58-.43.47.07.67.37,1.07.5a2.7,2.7,0,0,1-.66.77c-.49,0-.67-.27-1-.42-.34,0-.27.37-.57.42a2.7,2.7,0,0,1-1-.49.89.89,0,0,1,1.56-.35"/><path class="cls-1" d="M92.35,99.67c.4,0,.44-.28.65-.43.51.05.64.4,1.08.5a2,2,0,0,1-.75.77c-.45,0-.6-.28-.9-.42-.29.06-.3.35-.58.42-.44-.06-.66-.33-1-.49.31-.63.91-1,1.49-.35"/><path class="cls-1" d="M47.43,99.67c.35,0,.36.39.74.42s.44-.33.74-.42c.41.1.56.41,1,.49a2,2,0,0,1-.74.85c-.38-.08-.57-.31-.91-.43s-.25.3-.49.35a1.35,1.35,0,0,1-1-.49c.12-.35.43-.52.66-.77"/><path class="cls-1" d="M73.47,100.3c.1.23-.38.5-.57.71-1.75-.13-.09-2.22.57-.71"/><path class="cls-1" d="M30.54,106.14c.34,0,.38-.33.65-.42a3.94,3.94,0,0,1,.91.49,1.42,1.42,0,0,1-.58.78c-.49,0-.65-.24-.9-.42-.34,0-.36.3-.58.42a1.57,1.57,0,0,1-1-.5c.21-.78.88-.86,1.49-.35"/><path class="cls-1" d="M69.68,106.14c.35,0,.38-.33.66-.42a2.88,2.88,0,0,1,1,.56c-.14.33-.46.5-.66.78-.43-.08-.63-.36-1-.49-.16.13-.27.33-.49.42-.5,0-.67-.33-1-.5a.83.83,0,0,1,1.48-.35"/><path class="cls-1" d="M90,111.91a56.23,56.23,0,0,0,0,6.62c-.34.11-1.3.2-1.31-.21-.29.1-.45.32-.74.42-3.49.47-2.49-6,.65-4.22a17,17,0,0,0,.09-2.61c.22,0,1.08,0,1.31,0m-2,6.27c1.15-.05,1-3.71-.25-3.31-1,.32-.79,3.35.25,3.31"/><path class="cls-1" d="M99,111.91a62.21,62.21,0,0,0,0,6.69H97.78c0-1.88,0-5,0-6.69.08,0,.15-.08.17,0Z"/><path class="cls-1" d="M78.09,111.91c-.06,2.29,0,4.63,0,6.69H76.85v-6.69Z"/><path class="cls-1" d="M60.45,113.18c-.27-.79.12-1.25.66-1.2,1.13.11.37,2.1-.66,1.2"/><path class="cls-1" d="M100.59,112.27a8.25,8.25,0,0,1,0,2.53H100c.09-.66-.68-2.64.58-2.53"/><path class="cls-1" d="M19.41,112.41c.76,2.06,1.51,4.15,2.39,6.12a6.3,6.3,0,0,1-1.48.07c-.29-.53-.36-1.24-.66-1.76H17.84a8.46,8.46,0,0,0-.74,1.76h-.74c.65-1.88,1.68-4.06,2.31-6.19ZM18,116.14a2.66,2.66,0,0,0,1.4,0c-.26-.6-.22-1.46-.82-1.76-.12.65-.45,1.12-.58,1.76"/><path class="cls-1" d="M105,112.48c-.11.33.08.5-.08.77a14.89,14.89,0,0,0-1.81-.07,4,4,0,0,0,0,1.83,6.1,6.1,0,0,0,1.81,0c.07.17.16.55,0,.7a18.07,18.07,0,0,1-1.81,0,5.76,5.76,0,0,0,0,2.19,6,6,0,0,0,1.73-.07,1,1,0,0,1,.16.77h-3.29c0-2,0-4.36,0-6.12.8,0,2.23,0,3.29,0"/><path class="cls-1" d="M46.77,112.48c1.14-.25,1.32.41,1.81,1,.81.94,1.87,2.07,2.64,2.89.43-1.08-.08-2.55.08-3.87h.75c-.18,1.87,0,4.36-.09,6.12-.76.18-1.1-.43-1.4-.77a41.7,41.7,0,0,0-2.88-3.24c-.25,1.17.08,2.84-.17,4h-.66a37,37,0,0,0-.08-6.12"/><path class="cls-1" d="M58.8,112.69a6.44,6.44,0,0,1,.09,1.62c.16.19.89-.11.82.28s-.47.26-.82.28a8.57,8.57,0,0,0,.08,3.24c.15.15.67,0,.82.14-.06.52-1,.57-1.4.49-1.27-.28-.55-2.6-.74-3.8-.11-.17-.63,0-.58-.28-.12-.39.41-.21.58-.35v-1.13c.43-.12.65-.43,1.15-.49"/><path class="cls-1" d="M57,118.53c-.44.18-1.65.32-1.65-.28-.92,1.32-3.41-.23-2.14-1.62.59-.64,1.45-.28,2-.85.25-1.31-1.43-1-1.82-.42-.26-1.2,1.5-1.32,2.15-1.12,1.43.42.69,2.36.9,3.66,0,.36.63.21.58.63m-2.39-.42c.77.06.75-1.11.58-1.76-1.17-.11-1.43,1.69-.58,1.76"/><path class="cls-1" d="M76.28,118.39c-.25.47-1.66.36-1.74-.14a1.3,1.3,0,0,1-2.3-1.2c.25-.85,1.73-.76,2.22-1.34.18-1.24-1.44-1-1.81-.35-.33-1.38,2.19-1.47,2.8-.7s-.08,2.22.25,3.31c0,.27.47.2.58.42M74,118.18c.59-.2.7-1.18.49-1.83-1.09-.08-1.47,1.55-.49,1.83"/><path class="cls-1" d="M26.09,114.45c.13.4-.56.09-.66.28.7,1.14-.09,2.58-1.82,2.32-1.27.91,1,.72,1.73.92,1,.28,1,1.86.33,2.53-1,1-4.46.75-3.7-1.06.13-.31.44-.27.74-.7-.89-.46-.29-1.42.33-1.76a1.43,1.43,0,0,1,.08-2.74,10,10,0,0,1,1.65,0c.48,0,1.13-.17,1.32.21m-2.31,2.25c1,.08.95-2.36-.08-2-.64.2-.74,2,.08,2m-1,2.68c-.68,2.12,3.78,1.27,1.89-.36-.8-.1-1.67-.35-1.89.36"/><path class="cls-1" d="M30.21,116.49H27.73c-.42,1.31,1.35,2.19,2.39,1.26-.1,1.37-2.35,1.11-3.05.57a2.36,2.36,0,0,1,2.15-4.08,1.89,1.89,0,0,1,1,2.25m-2.56-.56a3.36,3.36,0,0,0,1.48,0c.29-1.64-1.73-1.61-1.48,0"/><path class="cls-1" d="M34.9,118.53a4.31,4.31,0,0,1-1.23.07c-.21-1.17.56-3.67-.74-3.59s-.45,2.43-.66,3.59a4.39,4.39,0,0,1-1.24-.07c.23-1.34-.13-3.1.17-4.22.57,0,1.05,0,1.15.35a2,2,0,0,1,2.14-.21c.93.7-.08,3,.41,4.08"/><path class="cls-1" d="M39.27,114.52c.22.29-.21.54-.16.91-.53-.23-.44-.82-1.07-.84-1.41-.06-1.68,3.31-.17,3.59.55.1.81-.24,1.4-.28,0,.59-.52.78-1,.84-4.07.56-3.14-6.21,1-4.22"/><path class="cls-1" d="M43.64,116.42a19.1,19.1,0,0,1-2.55.07c-.42,1.29,1.35,2.2,2.38,1.26-.09,1.14-1.47,1-2,1-2.48-.3-2.59-5.23,1-4.5a1.86,1.86,0,0,1,1.15,2.18M41,115.93a5.45,5.45,0,0,0,1.32.07c.67-1.66-1.63-1.74-1.32-.07"/><path class="cls-1" d="M63.83,114.31a6,6,0,0,1,1.57-.07c1.73.4,1.86,3.63.41,4.29-3.27,1.48-4.57-3.27-2-4.22m.82,4c1.2,0,1.22-3.92-.16-3.66-1.13.21-1.11,3.71.16,3.66"/><path class="cls-1" d="M71.41,118.6H70.09c-.17-1.1.63-3.53-.57-3.59s-.56,2.37-.74,3.52a4.41,4.41,0,0,1-1.24.07,35,35,0,0,0,0-4.22c.41-.15,1.34-.18,1.24.35a2.11,2.11,0,0,1,1.81-.49c1.31.57.46,3,.82,4.36"/><path class="cls-1" d="M82.79,116.49H80.23a1.41,1.41,0,0,0,2.39,1.26c0,1.11-1.5,1.08-2.06,1-2-.31-2.33-3.89-.25-4.5,2-.29,2.72.85,2.48,2.25m-2.64-.56a3.36,3.36,0,0,0,1.48,0c.29-1.71-1.7-1.53-1.48,0"/><path class="cls-1" d="M94.57,116.42a16.46,16.46,0,0,1-2.47.07,1.26,1.26,0,0,0,1.07,1.69c.57,0,.81-.38,1.32-.35-.35,1.27-2.46,1-3.13.49a2.34,2.34,0,0,1,2-4.08c1,.17,1.38,1.15,1.24,2.18m-2.64-.49a3.41,3.41,0,0,0,1.49,0c.3-1.71-1.72-1.54-1.49,0"/><path class="cls-1" d="M108.83,114.24a2.64,2.64,0,0,1,.66.63c.43-.2.5-.55.9-.63,2.62-.56,1.64,2.87,1.82,4.36a4.36,4.36,0,0,1-1.24-.07c-.23-.71.61-3.46-.58-3.52s-.55,2.4-.74,3.52a4.31,4.31,0,0,1-1.23.07c-.13-.91.59-3.5-.58-3.59s-.53,2.51-.74,3.59h-1.24c0-1.14-.1-3,.08-4.29.59,0,1.15,0,1.24.35a2,2,0,0,1,1.65-.42"/><path class="cls-1" d="M116.41,114.24c2,.86,1.07,6-1.65,4.15-.47.67.11,1.94-.16,2.67-.48-.11-.87,0-1.24-.07.23-2.15-.07-4.62.08-6.68.58,0,1.15,0,1.32.28a2,2,0,0,1,1.65-.35m-.91,3.94c1.06-.1.89-2.74.25-3.31-1.83-.17-1.42,3.42-.25,3.31"/><path class="cls-1" d="M61.61,114.38v4.22H60.37a23,23,0,0,0,0-4.15c.15-.22,1-.18,1.24-.07"/><path class="cls-2" d="M81.63,115.93a3.36,3.36,0,0,1-1.48,0"/><path class="cls-1" d="M45,99.74c0,.25-.25.26-.25.49s.1-.23.33-.14a5.12,5.12,0,0,0,.58.56c0,.39-.29.46-.5.63-.38,0-.37-.29-.66-.34s-.29.31-.57.34a.94.94,0,0,1-.74-.56c.16-.26.3-.53.65-.63-.07-.93.82-1,1.16-.35"/><path class="cls-3" d="M30.77,20.14C25.9,26.6,20.37,33.39,19.15,43A21,21,0,0,0,26,61.59a18.84,18.84,0,0,0,15.65,5.07,22.36,22.36,0,0,0,7.59-2.75,29,29,0,0,0,5.68-4.36c.88,1,1.5,2.24,2.39,3.24a27.78,27.78,0,0,1-7.09,5.06c-3.42,1.8-7.3,3.57-13.26,3.1a21.9,21.9,0,0,1-14.18-7,25.11,25.11,0,0,1-6.51-13.51,28.48,28.48,0,0,1,5.36-20.76,46.3,46.3,0,0,1,9.15-9.57"/><path class="cls-4" d="M87.47,27.74c-1.54.82-3,1.75-4.45,2.6a18.81,18.81,0,0,0-8.41-1.69,18.24,18.24,0,0,0-8.74,2.89,18.58,18.58,0,0,0-8.65,13.58,18,18,0,0,0,1.4,9.08A18.93,18.93,0,0,0,70.41,65a19.83,19.83,0,0,0,10.38.21,27.18,27.18,0,0,0,8.08-3.52c.16.28-.26.49-.42.64C85.2,65.5,80.56,68.75,74,69a17.55,17.55,0,0,1-9-2.32A22.73,22.73,0,0,1,53.26,46.39a20.88,20.88,0,0,1,6.43-14.71c3.46-3.47,8.26-6.94,15-7.39a20.13,20.13,0,0,1,12.78,3.45"/><path class="cls-3" d="M100.57,78.41c7-3.57,14.92-9.88,15.9-18.72a14,14,0,0,0-3.62-10.84,12.48,12.48,0,0,0-7.91-4.36,14.39,14.39,0,0,0-4.45.49,14.56,14.56,0,0,0-.75-3.66,15.15,15.15,0,0,1,5.86-.7c7.51.7,12.55,7.08,13.51,13.51a20.74,20.74,0,0,1-2.31,12.1,11.22,11.22,0,0,0,2.48-3c2.84-4.15,5.16-9.05,4.53-15.84a20.31,20.31,0,0,0-10.14-15.9,21.89,21.89,0,0,0-12.94-2.25,30.81,30.81,0,0,0-12.44,4.57c-10.37,6.2-17.61,15.51-25.63,23.58a22.54,22.54,0,0,1-2.14-3.59A154.77,154.77,0,0,1,77.41,37a62.08,62.08,0,0,1,10.06-7,33.8,33.8,0,0,1,20.43-4.51,21,21,0,0,1,13.19,6.9c4.27,4.7,6.78,10.78,6,19-.67,7.16-4.33,13-8.74,17.45a36.78,36.78,0,0,1-17.8,9.64"/><path class="cls-4" d="M93.56,33.3a22.87,22.87,0,0,1,5.2,12.6,29.13,29.13,0,0,1-2.31,14.71,8.82,8.82,0,0,1-1.73-5.85c.08-.85.35-1.69.41-2.46a23.82,23.82,0,0,0-5.36-17,19.93,19.93,0,0,1,3.79-2"/><path class="cls-3" d="M92.82,46.18c.07,0,.08,0,.08.07a25,25,0,0,1,.34,6.12c-.06.5-.35,1-.42,1.48a11.25,11.25,0,0,0,3.63,9.92,12.5,12.5,0,0,0,7.17,3.52,13.54,13.54,0,0,0,8.65-2c-2.77,2.58-6.26,5.25-11.7,4.5a12.55,12.55,0,0,1-7.83-4.71,14.45,14.45,0,0,1-3.46-10.7,14.71,14.71,0,0,1,1.81-6,25,25,0,0,1,1.73-2.25"/><path class="cls-4" d="M90.35,64.83c.32.18.58.73,1.07,1.41a8.06,8.06,0,0,1,.91,1.26c0,.52-1.45,2-2,2.54-5,5.33-11.93,10.22-20.44,12,8.5-4.29,15.51-9.84,20.44-17.17"/><path class="cls-5" d="M43.93,46.22c0,3-2.73,5.42-6.11,5.42s-6.12-2.43-6.12-5.42,2.74-5.43,6.12-5.43,6.11,2.43,6.11,5.43"/><path class="cls-5" d="M41.29,35.07a3.5,3.5,0,0,1-6.95,0,3.5,3.5,0,0,1,6.95,0"/><rect class="cls-6" x="17.05" y="93.3" width="109.12" height="0.89"/></svg>