<?xml version="1.0" encoding="utf-8"?>
<!-- Generator: Adobe Illustrator 24.1.0, SVG Export Plug-In . SVG Version: 6.00 Build 0)  -->
<svg version="1.1" id="Calque_1" xmlns="http://www.w3.org/2000/svg" xmlns:xlink="http://www.w3.org/1999/xlink" x="0px" y="0px"
	 viewBox="0 0 1270 1000" style="enable-background:new 0 0 1270 1000;" xml:space="preserve">
<style type="text/css">
	.st0{fill-rule:evenodd;clip-rule:evenodd;fill:#56AF31;}
	.st1{fill-rule:evenodd;clip-rule:evenodd;fill:#E52613;}
</style>
<g>
	<g>
		<path class="st0" d="M1061.7,447.5L1061.7,447.5c-5.7,0-10.1,4.3-10.1,9.7c0,5.5,4.4,9.8,10,9.8c5.6,0,9.9-4.3,9.9-9.8
			C1071.6,451.7,1067.2,447.5,1061.7,447.5z M1061.5,449.2L1061.5,449.2c4.6,0,7.8,3.6,7.8,8.1c0,4.4-3.3,8-7.7,8c-4.6,0-8-3.5-8-8
			C1053.7,452.7,1057.1,449.2,1061.5,449.2z M1059.8,462.5v-4.2h1.3c1.4,0,2.1,0.5,2.4,1.6c0.3,1.4,0.5,2.3,0.8,2.7h2
			c-0.2-0.4-0.4-1-0.7-2.6c-0.3-1.3-0.8-2.1-1.7-2.4v-0.1c1.1-0.4,2-1.2,2-2.4c0-0.9-0.4-1.7-1-2.1c-0.7-0.5-1.6-0.8-3.3-0.8
			c-1.4,0-2.5,0.1-3.6,0.3v10.2H1059.8z M1059.8,456.8v-3.2l1.5-0.1c1.8,0,2.4,0.7,2.4,1.7c0,1.2-1.3,1.7-2.7,1.7H1059.8z"/>
		<path class="st0" d="M488.8,520c0-4.5,2.4-8.3,6.4-10.4c22.8-11.8,58.5-11.8,81.2,0c4,2.1,6.3,5.9,6.3,10.4v35.7
			c0,4.4-2.4,8.3-6.3,10.4c-22.8,11.7-58.4,11.7-81.2,0c-4-2.1-6.4-5.9-6.4-10.4V520z M611.4,555.7V520c0-15.1-8.4-28.7-21.8-35.6
			c-31.2-16.1-76.5-16.1-107.7,0c-13.4,6.9-21.8,20.6-21.8,35.6v35.7c0,15,8.4,28.7,21.8,35.6c31.2,16.1,76.5,16.1,107.7,0
			C603,584.4,611.4,570.7,611.4,555.7z"/>
		<path class="st0" d="M660.7,509.6c22.8-11.8,58.5-11.8,81.3,0c4,2.1,6.4,5.9,6.4,10.4v35.7c0,4.4-2.4,8.3-6.4,10.4
			c-22.8,11.7-58.4,11.7-81.3,0c-4-2.1-6.4-5.9-6.4-10.4V520C654.3,515.6,656.7,511.7,660.7,509.6z M625.7,555.7
			c0,15,8.3,28.7,21.8,35.6c31.2,16.1,76.5,16.1,107.8,0c13.4-6.9,21.8-20.6,21.8-35.6V520c0-15-8.3-28.7-21.8-35.6
			c-29-15-70.1-16-100.9-3.2v-32l-0.5-1.3l-1.3-0.5l-0.7,0.1l-24,11.9l-1.1,0.7c-0.6,0.7-1,1.6-1,2.5V555.7z"/>
		<path class="st0" d="M906,463.3c0,2.8-1.6,5.4-4.2,6.7c-5.9,3.1-14.5,3.1-20.4,0c-2.5-1.3-4.1-3.9-4.1-6.7v-6.8
			c0-2.8,1.6-5.4,4.1-6.8c5.9-3.1,14.5-3.1,20.4,0c2.6,1.3,4.2,3.9,4.2,6.8V463.3z"/>
		<path class="st0" d="M820,463.3c0,2.8-1.6,5.4-4.1,6.7c-5.9,3.1-14.5,3.1-20.4,0c-2.6-1.3-4.1-3.9-4.1-6.7v-6.8
			c0-2.8,1.6-5.4,4.1-6.8c6-3.1,14.5-3.1,20.4,0c2.6,1.3,4.1,3.9,4.1,6.8V463.3z"/>
		<path class="st0" d="M863,594.5c0,1-0.8,1.8-1.8,1.8h-25.1c-1,0-1.8-0.8-1.8-1.8V462.8c0-1,0.4-1.9,1-2.5l1.2-0.7l24-11.9l0.7-0.1
			l1.3,0.5l0.5,1.2V594.5z"/>
		<path class="st0" d="M877.3,494.7c0-1,0.4-1.9,1-2.5l1.1-0.8l24-11.9l0.7-0.1l1.3,0.5l0.6,1.3v113.3c0,1-0.8,1.8-1.8,1.8h-25.1
			c-1,0-1.8-0.8-1.8-1.8V494.7z"/>
		<path class="st0" d="M820,494.7c0-1-0.4-1.9-1.1-2.5l-1.1-0.8l-24-11.9l-0.7-0.1l-1.3,0.5l-0.5,1.3v113.3c0,1,0.8,1.8,1.8,1.8
			h25.1c1,0,1.8-0.8,1.8-1.8V494.7z"/>
		<path class="st0" d="M229.2,520c0-4.5,2.4-8.3,6.4-10.4c20.3-10.5,50.7-11.6,73.3-3.4v88.3c0,1,0.8,1.8,1.8,1.8h25.1
			c1,0,1.8-0.8,1.8-1.8v-88.3c22.5-8.2,53-7,73.3,3.4c4,2.1,6.4,5.9,6.4,10.4v74.5c0,1,0.8,1.8,1.8,1.8h25.1c1,0,1.8-0.8,1.8-1.8
			V520c0-15.1-8.4-28.7-21.8-35.6c-29-15-70.1-16-100.8-3.2c-30.7-12.9-71.9-11.8-100.9,3.2c-13.4,6.9-21.8,20.6-21.8,35.6v74.5
			c0,1,0.8,1.8,1.8,1.8h25.1c1,0,1.8-0.8,1.8-1.8V520z"/>
		<path class="st0" d="M920.3,520c0-15.1,8.4-28.7,21.8-35.6c31.2-16.1,76.5-16.1,107.7,0c10.2,5.3,17.4,14.4,20.3,25h-34
			c-22.8-11.5-58.2-11.5-80.8,0.2c-4,2.1-6.4,5.9-6.4,10.4v3.6h120.9c1,0,1.8,0.8,1.8,1.8v30.3c0,15-8.3,28.7-21.8,35.6
			c-31.2,16.1-76.5,16.1-107.7,0c-10.2-5.3-17.5-14.4-20.4-25h34c22.8,11.5,58.2,11.5,80.8-0.2c4-2.1,6.3-5.9,6.3-10.4v-3.7H922.1
			c-1,0-1.8-0.8-1.8-1.8V520z"/>
		<path class="st1" d="M449.1,445.2l-1,1.6c-1.4,0.7-3.5,0.7-4.9,0l-1-1.6v-1.6l1-1.6c1.4-0.7,3.5-0.7,4.9,0l1,1.6V445.2z"/>
		<path class="st1" d="M421.1,445.2l-1,1.6c-1.5,0.7-3.5,0.7-5,0l-1-1.6v-1.6l1-1.6c1.4-0.7,3.5-0.7,5,0l1,1.6V445.2z"/>
		<path class="st1" d="M431.5,445.2l-1,1.6c-1.4,0.7-3.5,0.7-5,0l-1-1.6v-1.6l1-1.6c1.4-0.7,3.5-0.7,5,0l1,1.6V445.2z"/>
		<path class="st1" d="M375.7,445.2l-1,1.6c-1.4,0.7-3.5,0.7-4.9,0l-1-1.6v-1.6l1-1.6c1.4-0.7,3.5-0.7,4.9,0l1,1.6V445.2z"/>
		<path class="st1" d="M386.1,445.2l-1,1.6c-1.4,0.7-3.5,0.7-5,0l-1-1.6v-1.6l1-1.6c1.4-0.7,3.5-0.7,5,0l1,1.6V445.2z"/>
		<path class="st1" d="M485.6,423c0,1.1-0.6,2-1.5,2.5c-5.5,2.9-14.1,2.9-19.6,0c-1-0.5-1.6-1.4-1.6-2.5v-8.6c0-1,0.6-2,1.6-2.5
			c5.5-2.9,14.1-2.9,19.6,0c1,0.5,1.5,1.5,1.5,2.5V423z M529.1,423c0,1.1-0.6,2-1.5,2.5c-5.5,2.9-14.1,2.9-19.6,0
			c-1-0.5-1.6-1.4-1.6-2.5v-8.6c0-1,0.6-2,1.6-2.5c5.5-2.9,14.1-2.9,19.6,0c1,0.5,1.5,1.5,1.5,2.5V423z M492.6,434.2
			c3.7,0.7,7.8,0.3,10.8-1.3l1.5-1.2c7.5,3.8,18.4,3.8,25.8-0.1c3.3-1.7,5.3-5,5.3-8.6v-8.6c0-3.6-2-6.9-5.3-8.6
			c-7-3.6-16.9-3.8-24.4-0.8v-1.7l-0.1-0.3l-0.3-0.1l-0.2,0.1l-5.8,2.9l-0.3,0.2l-0.3,0.6l0,19.7L499,427c-1.7,0.9-4.3,0.9-6,0
			l-0.4-0.8v-11.9c0-3.6-2.1-6.9-5.3-8.6c-7.6-3.9-18.5-3.9-26.1,0c-3.2,1.7-5.2,5-5.2,8.6v8.6c0,3.6,2,6.9,5.2,8.6
			c7,3.6,17,3.9,24.4,0.8v3.5c0,1-0.6,2-1.5,2.5c-5.5,2.8-14.1,2.8-19.6,0.1h-8.2c0.7,2.6,2.5,4.8,4.9,6c7.6,3.9,18.5,3.9,26.1,0
			c3.2-1.7,5.3-5,5.3-8.6V434.2z"/>
		<path class="st1" d="M448.6,404.3h-6.1l-0.4,0.4v19.7l-1.1,1.7c-3.8,2-9.8,2-13.7,0l-1-1.7l0-19.7l-0.4-0.4h-6.1l-0.4,0.4l0,19.7
			l-1.1,1.7c-3.8,2-9.8,2-13.7,0l-1.1-1.7l0-27.5l-0.1-0.3l-0.3-0.1l-0.2,0l-5.8,2.8l-0.3,0.2l-0.2,0.6l0,24.2l-1.1,1.7
			c-3.8,2-9.8,2-13.7,0l-1.1-1.7v-19.7l-0.4-0.4h-6l-0.4,0.4v19.7l-1.1,1.7c-3.8,2-9.8,2-13.6,0l-1.1-1.5l0-20l-0.4-0.4h-6.1
			l-0.4,0.4v19.7l-1.1,1.7c-3.8,2-9.8,2-13.6,0l-1.1-1.7v-19.7l-0.4-0.4H329l-0.4,0.4l0,19.7l-1.1,1.7c-3.8,2-9.8,2-13.6,0l-1.1-1.7
			l0-19.7l-0.4-0.4h-6.1l-0.4,0.4l0,31.2c0,1-0.6,2-1.6,2.5c-5.5,2.8-14.1,2.8-19.6,0h-8.1c0.7,2.6,2.5,4.8,4.9,6.1
			c7.6,3.9,18.5,3.9,26.1,0c3.2-1.7,5.3-5,5.3-8.6l0-2.6c5.8,2,13.2,1.6,18.4-1.1l0.8-0.5l0.8,0.5c6.1,3.1,15,3.1,21.1,0l0.8-0.5
			l0.8,0.5c6.1,3.1,15,3.1,21.1,0l0.8-0.5l0.8,0.5c6.1,3.1,15,3.1,21.1,0l0.8-0.5l0.8,0.5h0c6.1,3.1,15,3.1,21.1,0l0.8-0.5l0.8,0.5
			c6.1,3.1,15,3.1,21.1,0c2.6-1.4,4.3-4.1,4.3-7v-20.5L448.6,404.3z"/>
	</g>
</g>
</svg>
