<svg version="1.2" xmlns="http://www.w3.org/2000/svg" width="273" height="245"><style>.s0,.s1{fill:#fff;stroke:#000;stroke-opacity:.4;stroke-width:1.3}.s1{stroke-width:.3}.s3{fill:#57b24c}.s4,.s5{fill:#fff;stroke:#000;stroke-width:.6}.s5{stroke:#fff;stroke-width:.5}.s6{fill:#e53531;stroke:#e53531;stroke-linecap:round;stroke-linejoin:round;stroke-width:.7}.s13,.s14{stroke:#000;stroke-opacity:.4}.s13{fill:#fff;stroke-width:.6}.s14{stroke-width:1.2}.s14,.s15{fill:#fff}.s16,.s20{fill:#fff;stroke:#fff;stroke-width:.6}.s20{stroke:#000;stroke-opacity:.4;stroke-width:.9}</style><path class="s0" d="M561.7 303.6v.5l-.1 1.5q0 .7-.1 1.2l-.1 1.4v.4l-.2.7q-.1 1-.6 2.8-.5 2.4-1.4 4.6l-.5-.3.4-1.2.2-.9.1-.9.1-2.6.2-3.7q0-2-.6-6.6l-1.3-8.4-.7-5.3q0-1.4.9-3.3l.6-1.1.7-1.3.2.4v2.5l.5 4.4 1.1 8 .4 4.3zM551.8 288l-1.2 5.2h-.6q-.2 0-.4-.2l-.2.4-.2.5.5 3.8q.3 1.7.7 3.9l.4 3.4.2 2.1q0 2.8-1 5.7-1.1 2.9-1.8 3.3-1.3.3-2.4.3h-5.6v-5.7h7.7q.3 0 .9-.2.6-.3.8-.8l-.3-2.7-.8-5.1-.5-4.6-.2-2.3-.2-1.5-.2-.9-2.2-2q-1.2-1.2-1.6-2.9 0-.9.7-3.5.3-1.5.7-2.4.2-.4.4-1 .3-.6.5-1.1l.4.2-.3.8-.2.6-.1 1.3v.4q0 1.8 2.4 3.3z"/><path fill-rule="evenodd" class="s0" d="M541 316.4h-1.5q-2.6 0-5.5-2.6-2-1.6-3.2-3.9v.6q-.1.4-.1.9-.1.6-.2 1-.1.5-.4 1 0 .4-.2.8-.1.6-.4 1.2l-.3.6-.5.6q-.2.4-.8.4h-.4l-2.8-.9-1.4-.5-1.8-.8-2.3-1-1.4-.7-1.4-.7-2.5-1q-1.7 1.8-3.5 3.5-.8.7-1.5 1.1-.7.4-2.3.4h-.3v-5.7h1.9q1.9 0 3.8-1.9l1.8-2.1 1.3-1.7 3.1-3.9q1.6-2 2.6-2.9.9-1 2-1 .6 0 1.3.4.7.3 1.4 1.1l3 3.5q1 1.2 1.7 2 1 1 1.6 1.7l2.8 2.9.9.6 1.1.7q.8.3 1.3.4.5.2 1.1.2h2zm-13.9-7.4q-.3-1.6-1.5-3.7-1.8-2.9-4-3.3-.3 0-1.8 1.2l-1.2 1.2q-.5.6-.9 1.1 0 .4 3.5 2.3 3.5 1.8 5.3 2.4.6-.4.6-1.2z"/><path fill-rule="evenodd" class="s0" d="M507 316.5h-6.3q-.6 1.6-1.3 3.1-.7 1.4-1.6 2.8-1.4 2.3-3.1 4-.7.9-2.1 1.9l-1.3 1-1.6 1.2q-2.9 2-4.4 2.5-.9-.2-2.4-.9-1.2-.5-1.6-.7-.4-.2-1.8-1l-1.7-.8-1.2-.8q-1.4-.7-3.7-2.1l-3.2-2 .3-.3q3.2 1.6 6.2 2.6l1.6.6 1.6.4 1.3.2 1.2.1 1-.1q.6 0 3.8-1.6 3.5-1.9 6.5-4.4 3.6-2.8 4.8-5.9H496.3q-.3 0-.6-.1-.4-.1-.8-.3-1.4-.3-3.2-1.5-1.1-.6-1.7-1.9-.4-1.3-.4-2.9 0-2.8 1.3-6 1.3-3.3 3.1-5.2 1.1-.9 2.6-.9 1.3 0 1.8.7 1.8 1.7 2.7 4.5.4 1.3.8 5.5l.1.6v1.4l-.1.5h5.1zm-7.9-6 .1-.4v-.5q0-1-.2-1.5-.5-2.2-2.1-3.8-1.4-1.2-2.3-1.2h-.1q-1.2.3-2 1.2-.7.9-.7 2.4.1 1.3 2.2 2.4 2 1.1 5.1 1.4zM484.5 297l.3-1.9q1.9-1.4 3-3-3.8-.2-3.8-3.8 0-2.5 1.5-4.9 1.5-2.4 3.5-2.4 3 0 3 3.1 0 1-.4 2.1-2.8-2.3-4.1-2.3-1.9 0-1.9 1.8 0 1.6 2 3 2 1.3 3.6 1.3 1.3 0 3.4-.9v3.1z"/><path class="s0" d="M481.2 305.7q-.2 1.7-.7 3.4-.2 1-.5 1.8-.3.7-.6 1.7-.3.8-.6 1.4-.4.7-1 1.6-1.5 0-3.3-1.1l-3.2-2.6q-1.2 1.3-5.7 2.2l-4.6.7-1.9.1q-1.9 0-1.9-1.3v-.4q-1.3.8-5 1.9-4.9 1.3-8.2 1.3h-2v-5.7h1.8q4.3 0 9.1-1.1 4.7-1.2 6.6-2.7 1.8-1.3 2.9-4.1l1.8-4.7.4.3-1.4 4.5-1.7 5.2v.4q0 .2.3.3h1.1l2.9-.1h1q.4-.1 1.3-.3 3-.5 4.3-2.3l.9-3 1.2-4.4.4.3-.9 4.2q-.8 4.2-.8 4.7.2.6 1.7 1.7.6.4 1.1.7.6.3.9.5l.5.1h.4l.5-.1q.3-.2.4-.6l.1-.8.1-.9q0-1.1-.4-2.6l-1-3.2q.3-.6.7-1.2.4-.6.7-1.2l1-1.4q.4-.6.8-1l.4 3.2.2 3.4v.5z"/><path class="s0" d="M442.5 316.4h-4.1q-2 0-3.3-1.2-.8-.7-1.9-3.2l-1.1 5.7-.7 2.9q-.8-.5-1.8-2.6l-1.9-4.3q-1.1 1.1-4.2 1.9-1.5.3-3.1.5t-3.1.2h-1.4q-1.2 0-1.6-.2-.3-.2-.9-1.2-.9.6-2.4 1.1-1.9.4-3.7.4h-2.6v-5.7h1.7q2.3 0 4.1-.3 3.5-.5 5.2-1.8 1.8-1.3 2.9-4.2l1.9-4.6.5.2-3.1 9.7v.7l.2.1h1.2q3.2 0 5.2-.3 2.9-.6 4.2-2.3l2-7.6.5.4-.9 4.3-.9 4.6.8 1.7.3.6.2.3.7 1q.1.2.4.3.4 0 .5-.6l2.7-11.5.4.4-1.1 6.1q.2 1.4 2.3 2.3 1.3.5 2.7.5h3.2z"/><path fill-rule="evenodd" class="s0" d="M405.7 316.4h-2.5q-.7 0-1.9-.5-1.3-.5-2-1.1-1.6-1.7-2.7-5.2l-.6-2.5q-.1-.4-.3-2-.1-.7-.2-1.3-.3.4-.7 1.1-.5.7-1.5 1.9-1.6 2.3-2.7 3.3l-1.6.3h-5.2q-1.1 0-2-.2-1.9-.4-2.6-1.2 0-.4.3-1t.9-1.6q.4-.7 1-1.4.5-.8 1.5-2.1l1.2-.9q.9-.7 2.3-1.3l2.9-1.1 5.9-2.1v-6l1.5-3.6.5.2q-.1.8-.2 2.3-.1 1.4-.1 3.5 0 4.3.4 7.2.3 2.9 1.4 5.2.6 1.3 2.2 2.9 1.6 1.5 2.9 1.5h1.9zm-10.2-13.5v-.3l-.1-.8v-3.5l-1.4 1.4-1.4 1.4q-.8.7-6.1 2.2-1.9.5-2.1 1.1.1.2 2.1.6l1.9.2 2.1.1h1.4l.5-.1q.6 0 1.1-.3 1.1-.6 2-2zm4.6-24-2.7 4.8-4.9-3.1 2.9-4.7zm-7.3 0-2.6 4.8-4.9-3.1 2.7-4.7z"/><path class="s0" d="M356.7 303.6v.5l-.1 1.5q0 .7-.1 1.2l-.1 1.4v.4l-.2.7q-.1 1-.6 2.8-.5 2.4-1.4 4.6l-.5-.3.4-1.2.2-.9.1-.9.2-2.6.2-3.7q0-2-.7-6.6l-1.3-8.4-.7-5.3q0-1.4.9-3.3l.6-1.1.7-1.3.3.4-.1 1.4v1.1l.5 4.4 1.1 8 .4 4.3zM346.8 288l-1.2 5.2h-.6q-.2 0-.4-.2l-.2.4-.2.5.5 3.8q.3 1.7.7 3.9l.4 3.4.2 2.1q0 2.8-1 5.7-1 2.9-1.8 3.3-1.3.3-2.4.3h-5.6v-5.7h7.7q.3 0 .9-.2.6-.3.8-.8l-.3-2.7-.8-5.1-.5-4.6-.2-2.3-.2-1.5-.2-.9-2.2-2q-1.2-1.2-1.6-2.9 0-.9.7-3.5.3-1.5.7-2.4.2-.4.4-1 .3-.6.5-1.1l.4.2-.3.8-.2.6-.1 1.3v.4q0 1.8 2.4 3.3z"/><path class="s0" d="M336.2 316.4h-3.8q-1.4 0-2.5-.2-1.1-.3-2.2-.8-2.1-1.1-3.1-3.2-.9.9-1.9 1.6-1 .7-2 1.1-3 1.5-7.2 1.5h-2.2v-5.7h1.5q3.8 0 6.6-1t4-3.1q-.5-1.6-2.6-2.8-2-1.1-4.2-1.1h-.7q-.4 0-.8.1v-.3q0-.9.7-3.4 1-3 1.8-3.4l2.7-.4q1.5-.2 2.8-.2h1.1q.7 0 1.2.2.6 0 1 .1l1.2.4q2.1.6 3.3 2.4 1.2 1.6 1.2 3.7 0 1.9-.9 3.7-.9 1.8-2.7 3.2 0 1 2.4 1.5 1.5.4 2.9.4h2.4z"/><path fill-rule="evenodd" class="s0" d="M312.2 316.4h-1.4q-2.6 0-5.5-2.6-2-1.6-3.2-3.9v.6q-.1.4-.1.9-.1.6-.2 1-.1.5-.4 1 0 .4-.2.8-.1.6-.4 1.2l-.3.6-.5.6q-.2.4-.8.4h-.4l-2.8-.9-1.4-.5-1.8-.8-2.3-1-1.4-.7-1.4-.7-2.5-1q-1.7 1.8-3.5 3.5-.8.7-1.5 1.1-.7.4-2.3.4h-.3v-5.7h1.9q1.9 0 3.8-1.9l1.8-2.1 1.3-1.7 3.1-3.9q1.6-2 2.6-2.9.9-1 2-1 .6 0 1.3.4.7.3 1.4 1.1l3 3.5q1 1.2 1.7 2 1 1 1.6 1.7l2.8 2.9.9.6 1.1.7q.8.3 1.3.4.5.2 1.1.2h1.9zm-13.8-7.4q-.3-1.6-1.5-3.7-1.8-2.9-4-3.3-.3 0-1.8 1.2l-1.2 1.2q-.5.6-.9 1.1 0 .4 3.5 2.3 3.5 1.8 5.3 2.4.6-.4.6-1.2z"/><path fill-rule="evenodd" class="s0" d="M278.3 316.5H272q-.6 1.6-1.3 3.1-.7 1.4-1.6 2.8-1.4 2.3-3.1 4-.7.9-2.1 1.9l-1.3 1-1.6 1.2q-2.9 2-4.4 2.5-.9-.2-2.4-.9-1.2-.5-1.6-.7-.4-.2-1.8-1l-1.7-.8-1.2-.8q-1.4-.7-3.7-2.1l-3.2-2 .3-.3q3.2 1.6 6.2 2.6l1.6.6 1.6.4 1.3.2 1.2.1 1-.1q.6 0 3.8-1.6 3.5-1.9 6.5-4.4 3.6-2.8 4.8-5.9H267.6q-.3 0-.6-.1-.4-.1-.8-.3-1.4-.3-3.2-1.5-1.1-.6-1.7-1.9-.4-1.3-.4-2.9 0-2.8 1.3-6 1.3-3.3 3.1-5.2 1.1-.9 2.6-.9 1.3 0 1.8.7 1.8 1.7 2.7 4.5.4 1.3.8 5.5l.1.6v1.4l-.1.5h5.1zm-7.9-6 .1-.4v-.5q0-1-.2-1.5-.5-2.2-2.2-3.8-1.3-1.2-2.2-1.2h-.1q-1.2.3-2 1.2-.7.9-.7 2.4.1 1.3 2.2 2.4 2 1.1 5.1 1.4z"/><path fill-rule="evenodd" class="s0" d="M252.1 308.9q0 .6-.2 1.6-.2.9-.8 2l-1.8 3.8q-.3.4-.8.4h-.4q-2.3-.6-6.2-2.1l-5.7-2.3-2.8-.9q-1 1.9-2.2 3.5-1.3 1.5-2.5 1.5h-1.9v-5.7h1q1.9 0 3.7-1.9 1.1-1.2 3.1-4l3.1-4.3q.7-1.1 1.4-1.9.7-.9 1.2-1.4 1.6-1.4 3.7-1.4h.4q.3 0 .7.2.5.1.9.5 1.6 1.6 3.9 6.2.4.8.7 1.7.3.8.7 1.8.6 1.7.8 2.7zm-4.7-.6q-.3-1.2-1.9-3.2-2.1-2.7-4.3-3.1-.4 0-1.9 1.2l-1.3 1.2-.9 1 4.3 2.2 3.1 1.4 2.3.9.5-.7.1-.4v-.5z"/><path class="s0" d="M227.3 316.4h-2.1q-2.8 0-4.9-1.7-1.2-1-2.1-3-.8 1.5-2.6 3-2.3 1.7-4.2 1.7h-1.6v-5.7h1.6q1 0 2-.2 1.1-.3 2.2-.9 2.3-1.2 2.8-2.6l.8-2 1.2-3 .5.4-.5 1.4q-.4 1.7-.4 2.9.8 1.6 1.6 2.5 1.6 1.5 4.2 1.5h1.5zm-.7 9.5-2.8 4.6-4.8-3.1 2.7-4.6zm-7.2 0-2.7 4.7-4.9-3.2 2.9-4.6z"/><path fill-rule="evenodd" class="s0" d="M210.9 316.4h-2.6q-.6 0-1.9-.5-1.2-.5-1.9-1.1-1.7-1.7-2.7-5.2l-.6-2.5q-.2-.4-.4-2 0-.7-.2-1.3-.2.4-.7 1.1-.4.7-1.4 1.9-1.7 2.3-2.7 3.3l-1.6.3H189q-1.1 0-2-.2-1.9-.4-2.6-1.2 0-.4.3-1 .2-.6.9-1.6.4-.7 1-1.4.5-.8 1.5-2.1l1.2-.9q.9-.7 2.2-1.3l3-1.1 5.9-2.1v-6l1.5-3.6.5.2q-.2.8-.3 2.3v3.5q0 4.3.3 7.2.4 2.9 1.5 5.2.5 1.3 2.1 2.9 1.7 1.5 3 1.5h1.9zm-10.3-13.5v-1.1q0-.7-.1-1v-2.5l-1.3 1.4-1.5 1.4q-.7.7-6 2.2-2 .5-2.1 1.1.1.2 2.1.6l1.9.2 2.1.1h1.4l.5-.1q.6 0 1.1-.3 1.1-.6 1.9-2zm4.7-24-2.8 4.8-4.8-3.1 2.8-4.7zm-7.2 0-2.6 4.8-4.9-3.1 2.6-4.7z"/><path class="s0" d="m162.1 288-1.2 5.2h-.5q-.3 0-.5-.2l-.2.4-.1.5.5 3.8q.2 1.7.6 3.9l.4 3.4.2 2.1q0 2.8-1 5.7-1 2.9-1.8 3.3-1.2.3-2.4.3h-5.6v-5.7h7.7q.3 0 .9-.2.6-.3.8-.8l-.3-2.7-.8-5.1-.4-4.6-.3-2.3-.1-1.5-.2-.9-2.2-2q-1.3-1.2-1.6-2.9 0-.9.6-3.5.3-1.5.8-2.4.1-.4.3-1 .3-.6.5-1.1l.5.2-.4.8-.1.6-.1 1.3v.4q0 1.8 2.3 3.3z"/><path class="s0" d="M151.2 316.4h-.9q-1.3 0-3.1-.7-2.1-1-3.5-2.7-.6-.9-1.2-2.1-.3-1-.6-2.6l-.3 1.3-.2.6-.2.6-.4 1-.9 1.2q-1.3 1.8-2.7 2.7-1.3.7-2.6.7h-1.1v-5.7h.9q.6 0 1-.1t1-.3l1.2-.6.4-.2.6-.4q1-.7 1.9-2.4 1-1.7 1.4-3.9l-.1-2.8-.2-5.2V292.2q0-.5-.1-1l-.2-1.4q0-.6-.2-1.1l-.3-1.7-.2-.9q-.1-.5-.4-.8l2-3.9q.1.1.7 2.4l.4 1.8v.8l.2 1.3.2 3.1.2 3.1v3l.1 3.1v1.6l.1 1.3v.9l.2 1.2.2.6q0 .3.1.7.2.4.3.7.1.3.3.5.6 1.3 1.5 1.8.4.3 1.1.7.5.3.7.4l.9.2 1.1.1h.7z"/><path class="s0" d="m133 291.9-2.7 4.7-4.9-3.2 2.8-4.6zm-7.3 0-2.7 4.7-4.8-3.2 2.8-4.7zm8.7 24.6h-2.5q-2.8 0-4.9-1.8-1.2-1-2.1-3-.8 1.6-2.6 3-2.3 1.8-4.2 1.8h-1.6v-5.8h1.6q1 0 2-.2 1.1-.3 2.2-.9 2.3-1.2 2.8-2.5l.8-2 1.2-3 .5.4-.5 1.3q-.4 1.7-.4 2.9.8 1.7 1.6 2.5 1.6 1.5 4.2 1.5h1.9z"/><path class="s0" d="M117.3 316.4h-.8q-1.4 0-3.2-.7-2.1-1-3.4-2.7-.7-.9-1.3-2.1-.3-1-.5-2.6l-.4 1.3-.2.6q0 .3-.2.6l-.4 1-.9 1.2q-1.2 1.8-2.7 2.7-1.3.7-2.5.7h-1.1v-5.7h.9q.6 0 .9-.1.4-.1 1.1-.3l1.1-.6.5-.2.6-.4q.9-.7 1.8-2.4 1-1.7 1.4-3.9V300l-.2-5.2v-1.4q0-.6-.1-1.2 0-.5-.1-1l-.1-1.4q-.1-.6-.2-1.1l-.4-1.7-.2-.9q-.1-.5-.4-.8l2-3.9q.1.1.7 2.4l.4 1.8v.8l.2 1.3.3 3.1.1 3.1.1 3 .1 3.1V302.9q0 .7.1.9l.2 1.2q.1.3.1.6t.1.7q.2.4.3.7.2.3.3.5.7 1.3 1.5 1.8.4.3 1.1.7.5.3.8.4l.9.2 1 .1h.7z"/><path fill-rule="evenodd" class="s0" d="m93.4 279.5-2.7 4.8-4.9-3.2 2.8-4.6zm6.9 36.9h-2.4q-1.2 0-2-.1-.6 0-1.1-.2-.7 0-.8-.1-.3-.2-.5-.2-2.1-.6-3.9-1.6-1.3.9-4.1 1.7l-2.2.4-1.6.1h-2.4v-5.7h2.2l1.9-.1 1.1-.1q.4 0 .7-.1-.9-1.4-1.3-4.2v-.1q0-.6.8-3.2 1-3.4 2.6-5.7 1.2-1.9 3.3-3.2 1.7-1.2 2.6-1.2.3 0 .4.2 1.5 1.5 2.4 4.3l.4 2.2q.1 1.1.1 2.1 0 .6-.8 3.3-.9 2.6-2.1 4.7.6.3 2.5.8l2.5.3h1.7zM94 305.6q0-1.2-.6-3.4-.9-2.5-2.1-3h-.5l-.8.2q-.4.1-.6.2l-.7.4q-1.4.8-2.2 2.4-.1.1-.1.3 0 .4.7 1.7 1 1.8 2.9 3.2l.4.3.5.3 1.6-1.2z"/><path class="s0" d="M80.1 316.4h-3.8q-.7 0-2-.5l-2.5-1.2-.8.1q0 2.3-.3 3.8-.3 2.3-1.3 4.1-1.1 2.3-5.5 6.3-4.3 4-5.2 4-1.5 0-3.4-.9-1.8-.9-3.9-2.9-3.2-2.8-5.1-5.8l.4-.3q1.6 2.2 3.6 3.8 2.3 1.9 4 1.9.9 0 2.1-.5 1.2-.5 2.7-1.5 2.6-1.6 6.8-6.2 3.9-4.3 3.9-5.2 0-1.1-1.1-3.1l-1.1-2.1-1.7-3q-.3-.6-.4-1-.2-.5-.2-.7l.4-2.5q.4-2.5.9-3l1.4 2.4 1 1.9 1.3 2.4q.5.8 2.7 2.3 2.5 1.7 4.3 1.7h2.8zm-12.2-27.2-2.7 4.8-4.9-3.2 2.8-4.7z"/><path class="s0" d="m52.9 323.3-2.8 4.8-4.9-3.3 2.8-4.6zm-7.2 0-2.7 4.8-4.9-3.3 2.8-4.7zm7.2-20.2q0 2.8-.9 6.6-.2.9-.4 1.7-.3.9-.5 1.6-.3.6-.5 1.2-.2.4-.5.8l-1.1.6q-2.2.9-3.6.9h-8.2v-5.8h8.7q1.6 0 3.1-.2 1.6-.3 1.9-1.4-.2-2.4-.7-4.2-.5-1.9-1.5-3.3l-2.1-2.9.9-2.6.3-.6.3-.6q.1-.4.6-1.1 1.2.8 2.6 3.5 1.6 3.2 1.6 5.8z"/><path fill-rule="evenodd" class="s0" d="M38.2 316.5h-6.3q-.5 1.6-1.3 3.1-.7 1.4-1.6 2.8-1.3 2.3-3.1 4-.7.9-2.1 1.9l-1.3 1-1.6 1.2q-2.9 2-4.4 2.5-.9-.2-2.4-.9-1.2-.5-1.5-.7-.5-.2-1.9-1l-1.7-.8-1.2-.8q-1.3-.7-3.7-2.1l-3.2-2 .3-.3q3.3 1.6 6.2 2.6l1.6.6 1.6.4 1.3.2 1.2.1 1-.1q.7 0 3.8-1.6 3.6-1.9 6.5-4.4 3.6-2.8 4.9-5.9H27.6q-.3 0-.7-.1-.4-.1-.8-.3-1.4-.3-3.1-1.5-1.2-.6-1.7-1.9-.5-1.3-.5-2.9 0-2.8 1.3-6 1.4-3.3 3.1-5.2 1.1-.9 2.7-.9 1.2 0 1.8.7 1.7 1.7 2.6 4.5.4 1.3.8 5.5l.1.6v1.4l-.1.5h5.1zm-7.9-6 .1-.4v-.5q0-1-.2-1.5-.4-2.2-2.1-3.8-1.4-1.2-2.2-1.2h-.2q-1.2.3-2 1.2-.7.9-.7 2.4.2 1.3 2.2 2.4 2 1.1 5.1 1.4z"/><path class="s0" d="m-19.6 288.6-2.8 4.8-4.9-3.3 2.8-4.6zm32 17.1q0 1.4-.2 2.5-.1 1-.4 1.9-.4 2-1.3 3.7-.3.5-1.3 1.3-.9.6-2.8 1.7-4.3 2.5-10.1 4-.3 0-1.4.2-1.1.2-2.2.5l-4 .6q-3.9.5-8.1.5h-3.9l-6.2-.4q-2.6 0-5.6-.5l-3.3-.6q-6.8-1.3-12.7-3.7-4.4-1.8-7.5-4.2l-1.7-1.5-2-1.6q-2.1-1.9-3.4-3.4l1.4-.5 4.5 2.4 4.3 2.2q5.2 2.4 15.6 4.1 2.5.5 5.2 1 2.7.4 4.8.4h3.6q4.9.3 6.1.3 9.9 0 17.3-1.8 6-1.3 10.4-3.7 3.3-1.8 3.5-2.8l.1-.8q0-1.2-.4-2.7-.4-1.5-1.1-3.4l-.9-2.3q-.3-.4-.4-.9-.3-.7-1.1-2.2l.1-.8q0-.4.1-.9.1-.6.4-1.5.5-1.4 1.2-2 .7 1.5 1.7 4.4l1.1 3.1.1.5.1.7.3 1.3.1 2.7v1.2zM-85.5 303.6v.5l-.1 1.5q0 .7-.1 1.2l-.1 1.4v.4l-.2.7q-.1 1-.6 2.8-.5 2.4-1.4 4.6l-.6-.3.5-1.2.2-.9.1-.9.1-2.6.2-3.7q0-2-.6-6.6l-1.3-8.4-.7-5.3q0-1.4.9-3.3l.5-1.1.8-1.3.2.4v2.5l.5 4.4 1.1 8 .4 4.3zM-95.5 288l-1.1 5.2h-.6q-.3 0-.4-.2l-.3.4-.1.5.5 3.8q.2 1.7.6 3.9l.5 3.4.2 2.1q0 2.8-1.1 5.7-1 2.9-1.8 3.3-1.2.3-2.4.3h-5.5v-5.7h7.6q.3 0 1-.2.6-.3.8-.8l-.3-2.7-.8-5.1-.5-4.6-.2-2.3-.2-1.5-.2-.9-2.2-2q-1.3-1.2-1.6-2.9 0-.9.7-3.5.3-1.5.7-2.4.1-.4.4-1 .2-.6.4-1.1l.5.2-.3.8-.2.6-.1 1.3v.4q0 1.8 2.4 3.3z"/><path class="s0" d="m-108.8 302.4-2 5.6-2-.1-1.3-.1-1.4.1h-1.4q.3 1.2 1.4 1.9 1.5.9 4 .9h5.3v5.7h-6q-2.9 0-4.9-1.6-1.3-1-2-3.1l-.3-1.6v-1.9q-.9.1-1.8.3-1 .1-2 .5-1.3.3-2.4 1l-5.8 3.2-1.4.7-1.5.7-2.9 1.1-1.3.2-1.6.4-1.7.1h-8.1v-5.7h6.4q2.4 0 5-.5 1.3-.2 2.6-.6 1.4-.4 2.8-1 5.6-1.8 6-3.2-1-.6-2.3-1.2-1.2-.6-2.4-1l-1.8-.5-1.5-.5-1.4-.2q-.8-.1-1.5-.1l-1 .1q-.4 0-1 .1-1.3.3-2.4.9-1.1.5-1.8 1.2-1.5 1.2-3.2 4.3l-.5-.2q2-5.4 4.8-8.4 3.3-3.4 7.9-3.4 3.1 0 6.4 1.2l6.8 2.8 2.9.9 5.1.7 2.5.2zm-14.7 20.6-2.7 5-4.8-3.3 2.7-4.7z"/><path class="s0" d="M-149.1 316.4h-3.8q-.8 0-2.1-.5l-2.5-1.2-.8.1q0 2.3-.2 3.8-.3 2.3-1.3 4.1-1.2 2.3-5.5 6.3t-5.2 4q-1.6 0-3.4-.9-1.9-.9-4-2.9-3.2-2.8-5.1-5.8l.5-.3q1.6 2.2 3.6 3.8 2.2 1.9 4 1.9.9 0 2.1-.5 1.2-.5 2.6-1.5 2.6-1.6 6.9-6.2 3.9-4.3 3.9-5.2 0-1.1-1.1-3.1l-1.1-2.1-1.7-3-.5-1q-.1-.5-.2-.7l.4-2.5q.5-2.5.9-3l1.5 2.4 1 1.9 1.2 2.4q.6.8 2.7 2.3 2.6 1.7 4.3 1.7h2.9zm-12.2-27.2-2.8 4.8-4.8-3.2 2.7-4.7zM-177 303.6v.5l-.1 1.5q0 .7-.1 1.2l-.1 1.4v.4l-.2.7q0 1-.5 2.8-.6 2.4-1.5 4.6l-.5-.3.4-1.2.2-.9.1-.9.2-2.6.2-3.7q0-2-.7-6.6l-1.3-8.4-.7-5.3q0-1.4.9-3.3l.6-1.1.7-1.3.3.4-.1 1.4v1.1l.5 4.4 1.1 8 .4 4.3zM-186 303.1q0 2.8-.9 6.5-.2.9-.5 1.8-.2.8-.4 1.5-.3.7-.5 1.2t-.4.8l-1.2.7q-2.1.8-3.6.8h-5v-5.7h5.6q1.6 0 3.1-.3t1.9-1.3q-.3-2.4-.8-4.3-.5-1.8-1.4-3.2l-2.1-2.9.8-2.6.3-.6.3-.7q.1-.4.6-1 1.1.8 2.6 3.5 1.6 3.1 1.6 5.8zm-11.5-11.1.3-1.9q1.8-1.4 3-3-3.8-.2-3.8-3.8 0-2.5 1.5-4.9 1.5-2.5 3.5-2.5 3 0 3 3.2 0 1-.4 2.1-2.8-2.3-4.1-2.3-1.9 0-1.9 1.8 0 1.6 2 3 2 1.3 3.6 1.3 1.3 0 3.4-.9v3.1z"/><path class="s0" d="M-197.8 316.4h-3.8q-.7 0-2-.5l-2.5-1.2-.8.1q0 2.3-.2 3.8-.4 2.3-1.4 4.1-1.1 2.3-5.4 6.3-4.3 4-5.3 4-1.5 0-3.4-.9-1.8-.9-3.9-2.9-3.2-2.8-5.1-5.8l.4-.3q1.6 2.2 3.6 3.8 2.3 1.9 4 1.9.9 0 2.1-.5 1.3-.5 2.7-1.5 2.6-1.6 6.9-6.2 3.8-4.3 3.8-5.2 0-1.1-1-3.1l-1.2-2.1-1.6-3q-.4-.6-.5-1-.2-.5-.2-.7l.4-2.5q.5-2.5.9-3l1.4 2.4 1 1.9 1.3 2.4q.5.8 2.7 2.3 2.5 1.7 4.3 1.7h2.8zM-226.1 304.2l.1.4q0 1.6-.7 4.7-.6 3-1.5 4.5-.7 1.1-4 2.9-2.2 1.3-4.5 2.2-2.3.9-5.6 1.9-7.3 1.9-15.6 1.9l-3.9-.1-6.1-.4q-2.7 0-5.7-.4l-3.2-.7q-6.9-1.2-12.7-3.7-4.5-1.8-7.5-4.2l-1.8-1.4-2-1.7q-2.1-1.8-3.3-3.4l1.3-.5 4.5 2.4 4.3 2.3q5.3 2.3 15.6 4 2.5.5 5.2 1 2.7.4 4.9.4 1.4 0 3.5.1 4.9.3 6.1.3 9.6 0 16.8-1.8 2.9-.6 5.3-1.4 1.2-.4 2.2-.9.9-.4 2-1 2.7-1.5 3.1-2.8 0-.6-1.7-1.4l-.5-.2-1.1-.4-2.2-.6q-2.8-.6-5.5-1.8-3.3-1.6-3.6-2.9v-.6q0-.6.1-1.7t.4-2.8q.5-3.3.9-4 1.8-4.8 6.2-7.8 3.7-2.5 7.1-2.5 1.8 0 2.6.8.2.3.5 1.3v2.1q0 2.3-.5 3.1-.5-.3-.9-.5-.1 0-1-.3-.6 0-1-.1h-1.1q-3.9 0-7.6 3.4-2.7 2.7-2.7 3.8v.1q.3 1.5 3.9 2.9l6.6 2.1q3.7 1.4 4.3 3.4zm-15.6 25.4-2.8 4.7-4.8-3.3 2.8-4.7zm-7.3 0-2.7 4.8-4.8-3.4 2.7-4.6z"/><path class="s1" d="M215.3 201.6q-1 1.5-2.3 2.8l-.6.6q-1.6 1.5-3.3 2.9-.1.2-.3 0-.2-.2-.1-.4.9-3.3 2.4-6.7 1.5-3.4 2.9-6.8.7-1.7.6-3.6 0-.2-.2-.3-.1-.1-.3-.2-.4-.3-.8-.4-.3.7-.9 1.2l-.4.4q-.8.7-1.6.7-.6-.1-1.1-.5-.4-.4-.7-1.2-.4-1.3-1-2.7-.5-1.4-.6-2.8 0-.5.2-.8l.4-.2q.6-.3 1.1-.3 2.6 0 4.5 1.8l.2.2q1.9 2 2.8 4.9 1 2.9.8 6-.2 3.1-1.7 5.4z"/><path d="m231.2 119.9-4.5-4 16.8-.1 4.4 4z" style="fill:#fff;stroke:#000;stroke-opacity:.4;stroke-width:.2"/><path class="s1" d="M243 128.8q3.6 2.9 3.9 7.4 0 1.5-1.1 7.2l-.1-.2-4.1-2.8q1-3.4 1.3-5.1c1.2-3.6-2.1-4.4-5.1-5.1-1.9-.3-5.3-.4-8.7-.7l-3-3.8 13.3.9q1.1.4 2 1 1 .6 1.6 1.2z"/><path class="s1" d="M245.9 143q-.1.2-.3.1-.1-.1-.4-.3 0 1.5-.7 3.9c-.4 1.7-.9 3.2-1.3 4.3l-4.1-3.1q2.5-7 2.4-9-.1-1.3-1-2.3-.1-.1-.1-.2l.2.1q.3.1.4.2 1.1 1 2.6 2.6 1.5 1.7 2.3 3.7zM236 135.2q-.5 1.8-1 3.7-.5 1.9-.9 3.7l-3.3-4.1q1.1-4 1.9-7.5z"/><path class="s1" d="m226.5 145.3-3.1-4.7 16.1 5.6 3.8 4.7-4.6-1.7.3.6q1.7 3.6.7 8.1-1.1 4.5-3 7.7-.4.7-1.1 1.1-.7.4-1.5.1-2.3-1.9-3.9-3.5 1.3.2 2.4-1.2 1-1.5 1.8-3.6.7-1.6 1.5-4.5.7-3 .8-5v-.5z"/><path fill-rule="evenodd" class="s1" d="M235.2 166.5q-.1.7-.2 1.3-.2.7-.3 1.3v.1q-.3 1.8-.7 3.7-.4 1.9-.1 3 .4.6.2.9-.1.3-.5.3-.3.1-.6-.1-.5-.2-.9-1-.6-.7-1-1.3-1.7-2.5-1.4-4 .3-1.4.9-3l-.1-.1h.1q0-.2.1-.4v-.4l.2-.8q-3.5-4-5.3-8-1-2.3-.4-3.6.2-.5.7-.8 1.1-.9 2.8-.1.8.4 1.8 1.1 2.3 2.4 3.8 5.4 1.5 3 .9 6.5zm-6.8-7.5q-.1 1 .3 1.8t.8 1.5q.2.4.5.5.2.1.5.1.6 0 1-.3.5-1.3.5-2.9 0-.7-.6-1-.4-.1-.9-.2-1.5-.1-2.1.5z"/><path class="s1" d="M221.1 152q.6 1.1 1.1 2.3.6 1.1 1.2 2.3l-3.6 1.4q-.6-1.1-1.1-2.3-.6-1.2-1.2-2.3zM233.6 174.7q.2.8.7 1.5l1 1.4q1.4 1.8 1.1 3.5-.3 1.5-1.6 3.2-.4.5-2.2 2.5-1.8 2-2.4 2.3-.4.2-.4-.4.3-2.9 1.1-5.8.9-3 1.4-5.9.2-1.1-.3-2.2h.1q-.3-.4 0-.7.4-.6 1.1-.1.4.3.4.7zM223.6 164q.6 1.1 1.1 2.3.6 1.2 1.1 2.3l-3.5 1.4q-.6-1.1-1.1-2.3-.6-1.2-1.2-2.3zM214 174.3q1.9 1.9 2.5 4.1.6 2.2.4 4.1-.1 1.7-.9 3.3-.8 1.5-2.3 3.3l-2.9-4v-.1q1.9-2.4 2.6-3.7.8-1.3 1-2.6-.6-.5-3.7-2.2l-1.1-5.3q2.6 1.2 4.4 3.1zM225.6 186.8l-2.2 3.2q-1 1.6-2.1 3.2l-1.7-5q2.4-3.4 4.3-6.4z"/><path fill-rule="evenodd" class="s3" d="M164.9 59c1.4.7 2.6 1.5 2.7 1.7.2.1-.4 1.4-1.2 2.6-.8 1.3-2.4 4.1-3.6 6.1-1.2 2.1-2.6 3.9-3.1 4.2-1.2.4-15.6 3.4-19.1 4-5.3-3.3-9.1-6-9.8-6.4 1.3-1.5 8.3-5.7 9.1-6.4 1.4-1.3 2.2-2.5 1.1-2.9-6.5-1.1-13.9-1.5-20.5 2.1-.7 1.3.3 2.1 4.5 4.3 1 .5 1.6.9 2.4 1.4l12.1 8c0 .1.2.2.1.2 0 .1.3.8.6 1.6v-.1c-.1.1-.8.3-1.1-.5-.1-.1-.2-.1-.2 0l.1.2s-.3 0-.3.1-.2-.1-.2 0q-.1.1-.1.2c-.1.1-.1.2-.1.3l-.1.1v.1l-.1.1-.2.2q-.1.1-.1.2-.1.2-.2.3c-.1.1-.2.1-.1.3v.2q-.1.2-.1.4h-.1c-.1.1-.2.2-.3.4q-.4.4-.7.9-.1.1-.2.3l-.2.2c-.1.1-.2.2-.4.3.5 1.2-1.2-.2-2.1-.5-1.1-.8-2.7-1.6-4.3-2.4-4.1-2.1-9.2-4-14.6-5.5-1.4-.5-3.7-1.2-6.2-1.9l-7.5-2-1-4.8c-.5-2.6-1-5.1-1-5.5-.1-1.3 9-6 15.5-7.9 5.4-1.6 11.1-2.4 17-2.5 11.1 0 22.8 2.8 33.6 8.3zm-27.3 21.7zm2.7-1c.3.7.5 1.3.5 1.4 0 0-.3-.9-.5-1.4zm-.1-.2.1.2q-.1-.1-.1-.2zm-19.7-1.6c2.6.9 4.9 2 7 3.1-6 2.8-8.9 6-12.4 9.5-4.4 4.5-8.4 10.1-11.2 14.2-3 4.6-4.6 9.9-6.1 18.4-.9 5.2-1.3 11.9 1 19.6 4.2 13.7 11.3 23 20.8 27.2 1.7.7 3.8 1.3 4.6 1.6 1 .2 2.7.6 2.9.6 1.2.4 10.2 0 14.4-1 .5-.1 1.8-.5 3-.7 4.6-1.2 10.7-4.3 14.7-7.6 4.5-3.7 8.2-10.1 9.8-16.8.9-3.6 1.1-12.3.3-15.9-1.4-5.8-4.5-10.5-7.9-11.6-1.6-.5-2.7-.5-7.1.3-9.8 1.8-18.5 2.9-23.9 3.2l-5.3.3-3.2-1.8c-2.2-1.1-4.2-2.7-6.3-4.9-2.8-3-5.2-6.2-4.8-6.5.1-.1 1.5.2 3.2.7 6.5 1.8 12.9 2.5 20 2.2 3.6-.1 7.9-.6 9.5-1 7.8-2 9.4-2.3 13.1-2.3 9.7 0 16.8 4.2 20.3 12.1 2.3 5 2.6 7.6 2.4 16.2-.2 6.2-.5 8.3-1.7 13.1-1.8 7.4-3.1 11.4-5.4 15.9-6.4 12.8-15.5 21.8-25.2 25.1-3.6 1.2-4.1 1.2-10.4 1.4-4.3.1-6.5 0-9-.7-7.2-1.8-10.9-3.6-16.7-8.3-9.5-7.6-16.5-16.7-20.8-26.8-6.9-16.3-4.9-37.6 5-52.9 4.7-7.4 9.4-11.7 14.9-17.3 2.7-2.7 7.1-5.5 10.5-8.6zm18.5.8h.1-.1zm-.7.9h.1s.1-.1 0-.1q0 .1-.1.1zm0 0zm0 .2zm-.8 1.4z"/><path class="s4" d="M237.6 99.7c-.2-7-4-19.1-9.2-29.4-11.9-23.6-32.5-43.2-61.5-58.6L162 9.2l2.5.3q2.7.3 5.8.9 4.3.9 9.5 2.5c4.5 1.5 12.1 5 12.1 5.7 0 .2-.5 1.3-1.2 2.4-.7 1.1-1.1 2.1-1 2.4.2.2 1.6.9 3.3 1.5 5.3 1.9 17.1 8.1 20.1 10.6 1.6 1.3 3.3 2.7 4.1 3.5l1.4 1.4-2.6 2.5c-1.9 1.9-1.9 2-.9 2.7 7.5 5.5 10.4 7.9 14.1 11.6 3.9 3.8 8 9 8 10.1 0 .2-1.3.8-2.9 1.4-1.7.6-3.1 1.2-3.2 1.4-.2.3 1 2.3 2.6 4.5 4 5.7 7.4 11.2 9.8 16 1.9 3.7 3.9 8.7 3.9 9.7 0 .3-2.2.5-4.9.5-4.7 0-4.8-.1-4.9-1.1z"/><path class="s5" d="M237.7 99.7c-.2-7-4-19.1-9.2-29.4-11.9-23.6-32.5-43.2-61.6-58.5l-4.8-2.6 2.4.3q2.8.3 5.8.9 4.4 1 9.5 2.6c4.6 1.4 12.2 4.9 12.2 5.6 0 .3-.6 1.3-1.3 2.4-.6 1.1-1.1 2.1-.9 2.4.1.2 1.6.9 3.3 1.5 5.2 1.9 17 8.1 20 10.6 1.7 1.4 3.3 2.7 4.1 3.5l1.4 1.4-2.6 2.5c-1.9 1.9-1.9 2-.9 2.7 7.5 5.5 10.4 7.9 14.1 11.6 3.9 3.8 8 9 8 10.1 0 .2-1.3.8-2.9 1.4-1.6.6-3.1 1.2-3.2 1.5-.1.2 1.1 2.2 2.6 4.4 4.1 5.7 7.5 11.2 9.9 16 1.9 3.7 3.8 8.8 3.8 9.8 0 .2-2.1.4-4.8.4-4.7 0-4.9-.1-4.9-1.1z"/><path class="s4" d="M27.6 100.7c-2.7 0-4.8-.1-4.8-.4 0-1 1.9-6 3.8-9.7 2.4-4.8 5.8-10.4 9.9-16 1.5-2.3 2.7-4.2 2.6-4.5-.2-.2-1.6-.8-3.2-1.4-1.6-.6-2.9-1.2-2.9-1.4 0-1.1 4.1-6.3 7.9-10.1 3.8-3.7 6.7-6.1 14.2-11.6 1-.7 1-.8-1-2.7l-2.5-2.6L53 39c.8-.8 2.4-2.2 4.1-3.6 3-2.4 14.8-8.7 20-10.5 1.7-.7 3.2-1.3 3.3-1.6.2-.2-.3-1.2-1-2.3-.6-1.1-1.2-2.2-1.2-2.4 0-.7 7.6-4.3 12.2-5.7q5.1-1.6 9.5-2.5 3-.6 5.8-1l2.4-.2-4.8 2.5c-29.1 15.4-49.7 35-61.6 58.5-5.2 10.4-9 22.5-9.2 29.4 0 1.1-.2 1.1-4.9 1.1z"/><path class="s5" d="M27.6 100.8c-2.7 0-4.9-.2-4.9-.5 0-1 2-6 3.9-9.7 2.4-4.8 5.8-10.3 9.9-16 1.5-2.2 2.7-4.2 2.6-4.5-.2-.2-1.6-.8-3.2-1.4-1.6-.6-2.9-1.2-2.9-1.4 0-1.1 4.1-6.3 7.9-10.1 3.8-3.7 6.7-6.1 14.2-11.6.9-.7 1-.8-1-2.7l-2.5-2.6L53 39c.8-.8 2.4-2.2 4.1-3.5 3-2.5 14.8-8.8 20-10.6 1.7-.6 3.2-1.3 3.3-1.5.2-.3-.3-1.3-1-2.4-.6-1.1-1.2-2.2-1.2-2.4 0-.7 7.6-4.2 12.2-5.7q5.1-1.6 9.5-2.5 3-.6 5.8-.9l2.4-.3-4.8 2.5c-29.1 15.4-49.7 35-61.6 58.5-5.2 10.4-9 22.5-9.2 29.5 0 1-.2 1.1-4.9 1.1z"/><path class="s6" d="m147.5 24.2 10.2 10.1-10.2 10.2-10.1-10.2zM124.3 24.2l10.1 10.1-10.1 10.2-10.2-10.2z"/><path d="m136.2 136.2 10.2 10.1-10.2 10.2-10.1-10.2z" style="fill:#57b24c;stroke:#57b24c;stroke-linecap:round;stroke-linejoin:round;stroke-width:.7"/><path fill-rule="evenodd" d="M189.4 49.1c.5.6 1.8 4.6 2.8 8.8 1.5 6.2 1.4 13.3-.2 18.1-1.6 4.7-3.9 8.3-7.9 12.4-3.2 3.4-3.5 3.5-8.6 4.7-.5.1-1.3.3-1.9.5-1.7.4-10.8 1.8-13.6 1.8-5.2.7-15 .8-17.9 1l-11.8.5-14.1-1.5c-1.5 0-4.5-.4-7.4-.9q.1-.1.2-.3-.1.2-.2.3c-2.4-.4-4.8-.8-6.3-1-3.2-.6-3.8-.5-5.5-1-.9-.2-2.2-.2-4.2-1.3-6-3.5-8-6.2-10.9-11.7-1.7-3.1-2.2-8.5-2.4-12.6-.2-5.6.7-9.5 3.1-14l1.7-3 .3 3.5c.5 5.1 1.2 7.8 2.9 11.5 2.7 6 13.7 17.3 21.2 18.3l4.2.5c.9.1 6.9.2 7.1.1 1.7.3 2.3-.2 3.5-.1 5.3.6 23 .9 29.1.3 2.9-.4 5.8-.7 6.4-.8.7 0-1.4 0 2.2-.2q1.6-.1 2.9-.2c1.3-.1 2.6-.1 3.8-.2 3-.3 6-.6 10.3-1.1 2-.3 5.1-4.5 5.4-6.1.3-1.8.3-1.6-1.6-8.8-2.4-9.1-2.6-7.8 2.6-13.2 2.4-2.5 4.5-4.4 4.8-4.3zM161 95.2c1.1-.2-5-.1-1.3.2h.3l1-.2zm-52-1zm-.2.3q-6.1 8.3 0 0zm.2-.3.1.1-.1-.1z" style="fill:#e53531"/><path d="M104.9 82.9h64.8v5.2h-64.8z" style="fill:#e53531;stroke:#e53531;stroke-linecap:round;stroke-linejoin:round;stroke-width:.5"/><path d="M173.2 93.2q-3.3.9-7.8 1.6c-3 .5-6.2.9-9.7 1.2-3.6.3-7.3.5-11.1.6-3.9.1-7.8.1-11.7 0-4-.1-7.9-.3-11.6-.6-3.8-.3-7.4-.6-10.8-1.1-3.4-.5-6.5-1-9.3-1.6q-4.2-.9-7.2-2l40.5-4z" style="fill:#e53531;stroke:#e53531;stroke-linecap:round;stroke-linejoin:round;stroke-width:.8"/><path d="M108.4 83h-.3q-.3-.1-.5-.1-.3 0-.5-.1-.3 0-.6-.1-.2 0-.5-.1-.3 0-.5-.1-.3-.1-.4-.1l-.4-.2" style="fill:none;stroke:#e53531;stroke-linecap:round;stroke-linejoin:round;stroke-width:.5"/><path d="m118.3 214.9 5.5-2.3-7.1 15.2-5.5 2.4z" style="fill:#fff;stroke:#000;stroke-opacity:.4;stroke-width:.7"/><path class="s13" d="m77.3 209.8-5.9 1.1 10.3-13.3 5.9-1.1z"/><path class="s14" d="M107.2 216.5q-1.6 1.4-3.8 2l-2.1-2.7.5-.3q.6.2 1.4.4.8.3 1.6.4 1.5-2.2 3-4.6 1.6-2.4 2.9-4.6l4.4-1.7-5.4 8.4q-1 1.6-2.5 2.7z"/><path class="s14" d="M101.4 222.6h.4q.2-.4-.4-1.2-.8-.9-2-1.9-1.2-1-1.6-1.5-.2-.2.4-.5.9-.6 1.8-1 .9-.5 1.9-1 .7.9 2.4 2.5 1.8 1.5 2.1 2.7.2.7-.7 1.3-.8.5-1.3.7-.8.4-1.7.8l-1.6.6q-1.5.6-2.8.7-1.3.1-2.4 0-1.5-.2-3.6-.8-.7-.2-1.5-.5-.7-.2-1.5-.4-1.2-.2-1.6-.3h-1.5q-.9.4-.9-.4t1.2-1.1q.4-.3.8-.5l.6-.4q.5-.5 1.1-.7.6-.2 1.7 0l1.6.4q.8.2 1.5.4l2 .8q1 .3 2.1.6 1.5.4 3.5.7zM95.2 231.8q-1.1.3-2.1.6-1.1.3-2.1.6l-.6-3.3q1-.3 2.1-.6t2.1-.5z"/><path class="s14" d="M87.3 222.8q-.6 0-1.3.3l-1.4.6q-1.7.9-3.1.3-1.1-.5-2.3-1.9-.4-.4-1.8-2.3t-1.5-2.5q-.1-.3.4-.2 2.4.7 4.7 2 2.3 1.2 4.7 2.2.8.3 1.8.1.4-.1.6.2.4.4-.1 1-.3.2-.7.2zM94.6 214.9q-1.1.3-2.1.6l-2.2.6-.5-3.3q1-.3 2.1-.6t2.1-.6z"/><path class="s13" d="M62.3 200.9q-2.2-1.5-3.6-2.6-1.3-1.1-3.4-1.3-1.5.2-1.2-.9.3-1.1 2-1.1v-.1q1-.3 1.9-.4 2.3-.9 4.3-.3 1.6.5 3 1.7 1.4 1.1 3.1 2.4.7.5 1.5 1.1.9.5 1.9.6-2.5 1.8-4.8 2.2-2.3.4-4.7-1.3zM81.2 188.9q-.7.2-1.4-.1-.7-.4-1.6-.3-.1.7.2 1.4.4.6.5 1.3.1.7-.4 1.2-.3.2-.8.4-1.3.5-2.9.1-1.4-.3-2.3-1.1l-2-1.6 2.2 1q1.2.5 2.3.9.4.1.5 0 .1 0 .1-.1-.1-.5-.3-1-.2-.6-.3-1-.2-1 .4-1.5.7-.6 2.4-.7 3.2-.3 4.4 0 .5.1 1.3.5z"/><path class="s13" d="M56.8 197.3q-1-.2-2 0t-2.1.4q-2.7.7-4.4-.5-1.5-1-2.8-3.3-.4-.7-1.8-3.7-1.3-3-1.3-3.8 0-.5.6-.2 3.1 1.7 6 4.1 2.9 2.4 5.9 4.4 1.1.7 2.5.7v.1q.6-.1.8.3.5.8-.4 1.3-.6.3-1 .2z"/><path class="s14" d="M59.1 178q-.3.1-1 .1t-1.4-.1q-.7-.1-1.3-.2-.6-.1-.6-.3v-1q-.1-.5-.1-.9-.1-.5-.2-.8-.6-1.7-2.8-2.8-1.9-1-2.7-.7-1 .3-.2 3.8.2 1.2.3 2 .1.8 0 1.3-.3 1.3-2.2 2-4.2 1.4-9.1-1.7c-6.9-7.7-10.9-20.6-13.2-31.1-2.6-8.7-1.5-24-.5-25 3.8-5.9 9.6-4.4 12.2 1 5.6 15 6.7 28.2 7.9 33.6.3 1.7.8 3-1.9 1.8-1.8-.7-2.1-1.4-2.1-1.4s-.1-1.7-.9-6.3c-1-5.7-3.3-15.1-4.6-20.8-1.2-5-4.8-6.9-5.2-6.6-4.3 3.6-1.6 17-.7 21.9 0 .6 1.3 7.5 3.3 13.7 1.7 5.4 4.1 10.1 4.4 10.6 1.7 3.9 3.7 6.8 7.3 8.6q.4.3.7.2.3-.2.2-.7-.5-2.4-.8-3.6-.2-1.2-.2-1.3-.1-1.3.4-2.2.5-.9 1.6-1.3 3.7-1.2 8.6.8 4.7 1.9 5.6 4.5.2.4.2.9t-.1.9q-.2.4-.4.7-.2.3-.5.4z"/><path class="s13" d="M25.4 176.9q-.9-1.7-1.9-3.4-.9-1.7-1.9-3.3l5.2.6q2.1 3.7 3.8 6.8z"/><path class="s15" d="m118.3 214.9 5.5-2.3-7 15.3-5.5 2.3z"/><path class="s16" d="M107.3 216.5q-1.6 1.4-3.8 2l-2.2-2.7.6-.3q.6.2 1.4.4.8.3 1.5.4 1.6-2.2 3.1-4.6 1.5-2.4 2.9-4.6l4.3-1.7-5.3 8.4q-1.1 1.6-2.5 2.7z"/><path class="s16" d="M101.4 222.6h.5q.2-.4-.5-1.2-.7-.9-1.9-1.9-1.2-1-1.6-1.5-.2-.2.3-.5.9-.6 1.8-1 .9-.5 1.9-1 .8.9 2.5 2.5 1.7 1.5 2 2.7.2.7-.6 1.2-.9.6-1.3.8-.9.4-1.7.8-.8.3-1.7.6-1.4.6-2.7.7-1.3.1-2.5 0-1.5-.2-3.5-.8-.8-.2-1.5-.5l-1.6-.4q-1.1-.2-1.6-.3h-1.4q-1 .4-.9-.4 0-.8 1.2-1.1.4-.3.7-.5l.6-.4q.6-.5 1.2-.7.6-.2 1.6 0 .9.2 1.6.4.8.2 1.5.4 1.1.4 2.1.8 1 .3 2.1.6 1.4.4 3.4.7zM95.3 231.8l-2.2.6q-1 .3-2.1.6l-.6-3.3 2.2-.6q1-.3 2.1-.5z"/><path class="s16" d="M87.4 222.8q-.7 0-1.4.3t-1.3.6q-1.8.9-3.1.3-1.2-.5-2.4-1.9-.4-.4-1.7-2.3-1.4-1.9-1.5-2.5-.1-.3.4-.2 2.3.7 4.7 1.9 2.3 1.3 4.6 2.3.9.3 1.8.1.4-.1.6.2.5.4-.1 1-.3.2-.6.2zM94.7 214.9l-2.2.6q-1 .3-2.1.6l-.6-3.3 2.2-.6q1-.3 2.1-.6z"/><path d="M59.1 177.9q-.2.1-.9.1h-1.4q-.8-.1-1.3-.3-.6-.1-.6-.2v-.5q0-.2-.1-.4v-.2q0-.4-.1-.9 0-.4-.1-.8-.6-1.6-2.8-2.8-1.9-.9-2.7-.7-1.1.4-.2 3.8.2 1.3.3 2.1v1.2q-.3 1.3-2.3 2-4.1 1.4-9-1.6c-6.9-7.7-11-20.7-13.3-31.1-2.5-8.7-1.4-24.1-.5-25.1 3.8-5.8 9.7-4.3 12.2 1.1 5.7 15 6.7 28.2 8 33.6.3 1.6.8 3-2 1.8-1.7-.8-2-1.5-2-1.5s-.1-1.6-.9-6.2c-1-5.7-3.3-15.2-4.6-20.9-1.2-4.9-4.8-6.9-5.2-6.6-4.4 3.6-1.6 17-.7 22 0 .5 1.3 7.5 3.3 13.7 1.7 5.3 4.1 10.1 4.3 10.6 1.8 3.9 3.8 6.7 7.3 8.5q.5.3.8.2.3-.1.2-.6-.5-2.4-.8-3.7l-.3-1.2q0-1.3.5-2.2.5-.9 1.6-1.3 3.7-1.3 8.6.7 4.7 1.9 5.6 4.5.2.5.2 1 0 .4-.2.8-.1.5-.3.7-.2.3-.6.4z" style="fill:#fff;stroke:#fff;stroke-width:.7"/><path class="s15" d="m77.2 209.9-5.9 1 10.3-13.3 5.8-1zM62.3 200.9q-2.2-1.5-3.6-2.6-1.3-1.1-3.4-1.3-1.5.1-1.2-.9.3-1.1 2-1.2 1-.3 1.9-.5 2.3-.8 4.3-.2 1.6.4 3 1.6 1.4 1.2 3.1 2.5.7.5 1.5 1 .9.6 1.9.7-2.5 1.8-4.8 2.2-2.3.3-4.7-1.3zM81.2 188.9q-.7.2-1.4-.1-.7-.4-1.6-.3-.1.6.2 1.3.4.7.5 1.3.1.8-.4 1.2-.3.3-.8.5-1.3.4-2.9.1-1.4-.4-2.3-1.1-1-.9-2-1.7 1.1.5 2.2 1.1 1.2.5 2.3.9.4.1.5 0 .1 0 .1-.2-.1-.4-.3-1-.2-.5-.3-.9-.2-1 .4-1.6.7-.6 2.4-.7 3.2-.2 4.4 0 .5.1 1.3.5z"/><path class="s15" d="M56.8 197.2q-1-.1-2 .1-1 .1-2.1.4-2.7.7-4.4-.5-1.5-1.1-2.8-3.3-.4-.7-1.8-3.7-1.3-3-1.3-3.8 0-.5.6-.2 3.1 1.7 6 4.1 2.9 2.4 5.9 4.4 1.1.7 2.5.7.6 0 .8.4.5.8-.4 1.3-.6.3-1 .1zM25.5 176.8q-1-1.7-1.9-3.4-1-1.6-1.9-3.3l5.2.7q2 3.7 3.8 6.7z"/><path class="s13" d="M164 229.7c-3-.5-4.4-2-5.1-5.2-.5-2.7-.5-4.4 3.1-7.9 5.7-5.6 12.7-9.3 18.3-13.4 2-1.5 1.7 3.2-1.7 6-8.5 5.8-12 7.3-14.7 11.6-1 1.5 0 2.7.1 2.9.1.6 2.2.9 4.8.5 7.2-1.2 19.3-8.3 24.9-14.5 3-3.4 5.2-8.8 3.4-8.4-1.3.2-2.2-3.8-1.3-5.1.3-.5.8-.9.9-1 .8-.1 2.8 1.3 3.7 2.5 2.7 3.8 1.4 8.3-4.2 14.9-5.7 6.6-13.7 12.3-21.2 14.9-3.7 1.4-9.4 2.5-11 2.2z"/><path class="s15" d="M164.1 229.6c-3.1-.6-4.5-2-5.1-5.3-.5-2.7-.6-4.3 3.1-7.9 5.7-5.6 12.7-9.3 18.2-13.4 2.1-1.5 1.8 3.3-1.7 6-8.5 5.8-12 7.3-14.7 11.6-1 1.6.1 2.8.1 2.9.1.6 2.3 1 4.9.5 7.1-1.2 19.3-8.3 24.8-14.5 3.1-3.4 5.2-8.8 3.4-8.4-1.2.2-2.2-3.7-1.2-5.1.3-.5.7-.9.9-.9.7-.2 2.7 1.2 3.6 2.5 2.7 3.8 1.5 8.2-4.2 14.8-5.6 6.7-13.6 12.3-21.1 15-3.8 1.3-9.5 2.4-11 2.2z"/><path d="M191.9 195.8q-.2 1.2-.4 2.3-.2 1.1-.4 2.3l-3.3-.8q.2-1.1.4-2.3.2-1.1.3-2.3z" style="fill:#fff;stroke:#000;stroke-opacity:.4;stroke-width:.4"/><path class="s15" d="M191.9 195.6q-.2 1.2-.4 2.3-.1 1.2-.3 2.3l-3.4-.8q.2-1.1.4-2.3.2-1.1.4-2.3z"/><path fill-rule="evenodd" class="s3" d="M165.3 59.4c1.4.7 2.6 1.4 2.8 1.6.1.2-.5 1.4-1.3 2.7-.8 1.3-2.4 4-3.6 6.1-1.2 2-2.6 3.9-3.1 4.1-1.2.5-15.5 3.5-19.1 4.1-5.3-3.4-9.1-6.1-9.8-6.4 1.3-1.5 8.3-5.7 9.1-6.4 1.4-1.3 2.3-2.5 1.1-2.9-6.5-1.2-13.9-1.5-20.5 2.1-.6 1.2.3 2.1 4.5 4.2 1 .6 1.6 1 2.4 1.4l12.1 8.1s.2.1.1.2c0 0 .3.8.6 1.5-.1.1-.8.2-1.1-.6h-.2c0 .1.1.2.1.3h-.3c0 .1-.2 0-.2.1q-.1.1-.1.2c0 .1-.1.2-.1.2v.2q-.1 0-.1.1h-.1q-.1.2-.2.3 0 .1-.1.2t-.2.3V81c-.1.2-.1.2-.1.4v.2q-.1.2-.1.3v.1c-.2.1-.3.2-.4.3q-.4.5-.7 1l-.2.2-.2.2v.1c-.1.1-.2.2-.4.3.6 1.2-1.2-.2-2.1-.6-1.1-.7-2.7-1.5-4.3-2.3-4.1-2.1-9.2-4-14.6-5.5-1.4-.6-3.7-1.3-6.2-1.9l-7.5-2-1-4.8c-.5-2.6-1-5.1-1-5.5-.1-1.3 9-6 15.5-7.9 5.4-1.7 11.1-2.5 17-2.5 11.2-.1 22.8 2.8 33.6 8.3zM138 81.1zm2.7-1c.3.6.5 1.3.5 1.3 0 .1-.3-.9-.5-1.3zm-.1-.3q0 .1.1.3-.1-.2-.1-.3zm-19.7-1.6c2.6 1 5 2 7 3.1-6 2.9-8.9 6.1-12.4 9.6-4.4 4.5-8.4 10.1-11.2 14.1-3 4.7-4.6 9.9-6.1 18.4-.9 5.3-1.3 12 1 19.6 4.2 13.8 11.3 23.1 20.9 27.3 1.6.7 3.7 1.3 4.6 1.6.9.2 2.6.5 2.8.6 1.2.4 10.2 0 14.4-1 .5-.2 1.8-.5 3-.8 4.6-1.1 10.7-4.2 14.7-7.5 4.5-3.7 8.2-10.1 9.9-16.8.9-3.7 1-12.4.2-15.9-1.3-5.9-4.5-10.6-7.9-11.7-1.6-.5-2.7-.4-7.1.4-9.8 1.7-18.5 2.9-23.9 3.2l-5.3.2-3.2-1.7c-2.2-1.2-4.2-2.8-6.3-4.9-2.8-3.1-5.2-6.2-4.8-6.5.1-.1 1.5.2 3.2.7 6.6 1.8 13 2.5 20 2.2 3.6-.2 7.9-.6 9.5-1 7.8-2.1 9.4-2.3 13.1-2.4 9.7 0 16.8 4.3 20.4 12.2 2.2 4.9 2.6 7.6 2.3 16.1-.2 6.2-.5 8.3-1.7 13.1-1.8 7.5-3.1 11.5-5.4 15.9-6.4 12.9-15.5 21.9-25.1 25.1-3.7 1.2-4.2 1.3-10.5 1.5-4.3.1-6.5-.1-9-.7-7.2-1.8-10.9-3.7-16.7-8.3-9.4-7.6-16.5-16.8-20.8-26.8-6.9-16.3-4.9-37.7 5-53 4.7-7.4 9.4-11.6 14.9-17.2 2.7-2.8 7.2-5.6 10.5-8.7zm18.5.9h.1-.1zm-.6.9c0-.1.1-.1.1-.1q-.1 0-.1.1zm-.1.2v-.1.1zm-.7 1.4h-.1.1z"/><path d="M139.9 78.1q.4.3.7.7.3.5.5 1t.3 1q.1.5 0 1.1 0 .5-.2 1-.2.4-.5.9-.3.4-.7.7-.4.3-.9.5-.4.2-.9.2-.5.1-1 0t-1-.3q-.4-.2-.8-.6" style="fill:#58b14d"/><path class="s15" d="m231.1 119.8-4.4-4 16.8-.1 4.4 4z"/><path class="s20" d="M-304 414.1V368h22.8v7.8h-16.6V386h15.4v7.8h-15.4v12.6h17.2v7.7zm7.9-48.7 2.9-9.4h6.6l-5.8 9.4zM-268.4 414.1v-38.3h-9.1V368h24.4v7.8h-9.1v38.3z"/><path fill-rule="evenodd" class="s20" d="M-224.5 414.1h-6.7l-2.7-10.5h-12.3l-2.5 10.5h-6.6l11.9-46.1h6.6zm-11.4-18.2-4.3-17.2-4.1 17.2zM-221.1 368h12.3q3.6 0 5.4.5 1.8.4 3.2 1.9 1.5 1.4 2.4 3.8 1 2.4 1 5.4 0 3.3-1.2 6t-3.2 4q2.9 1.2 4.4 4.2 1.5 3 1.5 7 0 3.1-1 6.1-1 2.9-2.7 4.7-1.7 1.8-4.1 2.2-1.6.3-7.5.3h-10.5zm6.2 7.7v10.7h4.1q3.6 0 4.5-.2 1.6-.3 2.5-1.6.9-1.4.9-3.6t-.8-3.5q-.8-1.4-2.3-1.6-.9-.2-5.3-.2zm0 18.3v12.4h5.7q3.4 0 4.3-.3 1.4-.4 2.2-1.8.9-1.5.9-4 0-2-.7-3.5-.6-1.4-1.9-2.1-1.3-.7-5.5-.7z"/><path class="s20" d="M-189.9 414.1v-45.7h6.2v38h15.5v7.7zM-164 414.1V368h6.3v46.1zM-153.4 399.1l6-.9q.6 4.6 2.2 6.7 1.7 2.2 4.6 2.2 3 0 4.5-1.9t1.5-4.5q0-1.6-.6-2.7-.7-1.2-2.3-2.1-1.1-.5-4.9-2-5-1.8-7.1-4.5-2.8-3.8-2.8-9.3 0-3.5 1.3-6.6 1.4-3.1 3.9-4.7t6-1.6q5.8 0 8.8 3.8 2.9 3.8 3 10.2l-6.2.4q-.4-3.6-1.7-5.1-1.3-1.6-3.9-1.6-2.7 0-4.3 1.7-1 1.1-1 2.9 0 1.6 1 2.8 1.1 1.4 5.7 3 4.5 1.6 6.7 3.4 2.2 1.7 3.4 4.7 1.2 2.9 1.2 7.3 0 4-1.5 7.4-1.4 3.5-4.1 5.2-2.7 1.6-6.7 1.6-5.8 0-9-4-3.1-4-3.7-11.8zM-124.7 399.1l6.1-.9q.5 4.6 2.2 6.7 1.6 2.2 4.5 2.2 3 0 4.5-1.9t1.5-4.5q0-1.6-.6-2.7-.6-1.2-2.2-2.1-1.1-.5-5-2-5-1.8-7-4.5-2.9-3.8-2.9-9.3 0-3.5 1.4-6.6 1.3-3.1 3.8-4.7t6.1-1.6q5.8 0 8.7 3.8 2.9 3.8 3.1 10.2l-6.3.4q-.3-3.6-1.7-5.1-1.3-1.6-3.9-1.6-2.7 0-4.2 1.7-1 1.1-1 2.9 0 1.6.9 2.8 1.2 1.4 5.7 3t6.7 3.4q2.2 1.7 3.4 4.7 1.2 2.9 1.2 7.3 0 4-1.4 7.4-1.5 3.5-4.2 5.2-2.7 1.6-6.7 1.6-5.8 0-8.9-4-3.2-4-3.8-11.8zM-94.4 414.1V368h22.8v7.8h-16.6V386h15.5v7.8h-15.5v12.6H-71v7.7zM-65.7 414.1V368h9.3l5.5 31.5 5.6-31.5h9.3v46.1h-5.8v-36.3l-6.1 36.3h-6l-6.1-36.3v36.3zM-29.8 414.1V368H-7v7.8h-16.6V386h15.5v7.8h-15.5v12.6h17.2v7.7zM-1 414.1V368h6l12.6 30.8V368h5.8v46.1h-6.2L4.8 384v30.1zM36.9 414.1v-38.3h-9.1V368h24.5v7.8h-9.1v38.3z"/><path fill-rule="evenodd" class="s20" d="M68.2 414.1V368h10q5.7 0 7.4.7 2.6 1 4.4 4.5 1.8 3.5 1.8 9 0 4.2-1 7.1-1 2.9-2.6 4.6-1.6 1.6-3.2 2.2-2.3.6-6.5.6h-4v17.4zm6.2-38.3v13.1h3.4q3.6 0 4.9-.7 1.2-.8 1.9-2.3.7-1.5.7-3.6 0-2.5-1-4.1-.9-1.7-2.5-2.1-1.1-.3-4.4-.3z"/><path class="s20" d="M96.9 368h6.2v25q0 5.9.3 7.7.4 2.8 1.9 4.6 1.5 1.6 4.1 1.6 2.6 0 4-1.6 1.3-1.6 1.6-4 .3-2.3.3-7.8V368h6.2v24.2q0 8.3-.5 11.8-.5 3.4-1.9 5.7-1.3 2.4-3.6 3.8t-5.9 1.4q-4.4 0-6.7-1.5t-3.6-4q-1.3-2.4-1.8-5.1-.6-4-.6-11.7z"/><path fill-rule="evenodd" class="s20" d="M128.1 368h12.3q3.6 0 5.4.5 1.8.4 3.2 1.9 1.4 1.4 2.4 3.8.9 2.4.9 5.4 0 3.3-1.1 6-1.2 2.7-3.2 4 2.8 1.2 4.3 4.2 1.6 3 1.6 7 0 3.1-1 6.1-1 2.9-2.7 4.7-1.7 1.8-4.2 2.2-1.5.3-7.5.3h-10.4zm6.2 7.7v10.7h4.1q3.6 0 4.5-.2 1.6-.3 2.5-1.6.9-1.4.9-3.6t-.8-3.5q-.8-1.4-2.3-1.6-1-.2-5.4-.2zm0 18.3v12.4h5.8q3.4 0 4.3-.3 1.4-.4 2.2-1.8.9-1.5.9-4 0-2-.7-3.5-.6-1.4-1.9-2.1-1.3-.7-5.5-.7z"/><path class="s20" d="M159.3 414.1v-45.7h6.2v38H181v7.7zM185.2 414.1V368h6.2v46.1zM217 397.2l6.1 2.8q-1.4 7.6-4.7 11.3-3.2 3.6-8.1 3.6-6.2 0-10.1-6.3-4-6.2-4-17.1 0-11.5 4-17.9 4-6.4 10.5-6.4 5.6 0 9.1 5 2.1 3 3.2 8.5l-6.2 2.2q-.5-3.6-2.3-5.6-1.7-2.1-4.2-2.1-3.4 0-5.5 3.7-2.1 3.6-2.1 11.9 0 8.7 2.1 12.4 2.1 3.7 5.4 3.7 2.5 0 4.3-2.3 1.8-2.4 2.5-7.4z"/><path fill-rule="evenodd" class="s20" d="M240.3 368h11.4q3.8 0 5.8.9 2.8 1.2 4.7 4.2 1.9 3.1 2.9 7.5t1 10.9q0 5.7-.9 9.8-1.2 5.1-3.3 8.2-1.6 2.3-4.4 3.6-2 1-5.5 1h-11.7zm6.2 7.8v30.6h4.7q2.6 0 3.7-.5 1.6-.5 2.5-1.9 1-1.3 1.7-4.4.6-3.1.6-8.5 0-5.3-.6-8.2-.7-2.9-1.8-4.5t-2.9-2.1q-1.3-.5-5.1-.5z"/><path class="s20" d="M271.4 414.1V368h22.9v7.8h-16.7V386h15.5v7.8h-15.5v12.6h17.2v7.7zM319 414.1v-38.3h-9.1V368h24.4v7.8h-9.1v38.3zM338.4 414.1V368h22.8v7.8h-16.6V386H360v7.8h-15.4v12.6h17.2v7.7zm7.9-48.7 2.9-9.4h6.6l-5.8 9.4zM367.3 414.1v-45.7h6.2v38h15.4v7.7zM393.4 414.1V368h22.8v7.8h-16.6V386h15.5v7.8h-15.5v12.6h17.2v7.7zm7.9-48.7 2.9-9.4h6.6l-5.8 9.4zM430 414.1 419 368h6.7l7.8 34.1L441 368h6.6l-11 46.1zM450.7 414.1V368h6.2v46.1zM461.2 399.1l6-.9q.6 4.6 2.2 6.7 1.7 2.2 4.6 2.2 3 0 4.5-1.9t1.5-4.5q0-1.6-.6-2.7-.7-1.2-2.3-2.1-1.1-.5-4.9-2-5-1.8-7.1-4.5-2.8-3.8-2.8-9.3 0-3.5 1.3-6.6 1.4-3.1 3.9-4.7t6-1.6q5.8 0 8.8 3.8 2.9 3.8 3 10.2l-6.2.4q-.4-3.6-1.7-5.1-1.3-1.6-3.9-1.6-2.7 0-4.3 1.7-.9 1.1-.9 2.9 0 1.6.9 2.8 1.2 1.4 5.7 3t6.7 3.4q2.2 1.7 3.4 4.7 1.2 2.9 1.2 7.3 0 4-1.4 7.4-1.5 3.5-4.2 5.2-2.7 1.6-6.7 1.6-5.8 0-9-4-3.1-4-3.7-11.8zM491.3 414.1V368h6.2v46.1z"/><path fill-rule="evenodd" class="s20" d="M502.2 391.3q0-7 1.4-11.8 1-3.5 2.8-6.3 1.9-2.8 4-4.2 2.9-1.8 6.7-1.8 6.8 0 10.8 6.3 4.1 6.4 4.1 17.6 0 11.2-4 17.5-4.1 6.3-10.9 6.3-6.8 0-10.9-6.3-4-6.2-4-17.3zm6.4-.3q0 7.9 2.4 11.9t6.1 4q3.7 0 6.1-3.9 2.4-4.1 2.4-12.1 0-7.9-2.3-11.8-2.3-3.9-6.2-3.9-3.8 0-6.2 3.9-2.3 4-2.3 11.9z"/><path class="s20" d="M536.9 414.1V368h6.1l12.6 30.8V368h5.7v46.1h-6.2L542.7 384v30.1z"/><path class="s15" d="M561.7 303.5v.4l-.1 1.6q0 .7-.1 1.2l-.1 1.4v.4l-.2.6q-.1 1.1-.6 2.9-.5 2.4-1.4 4.6l-.5-.3.4-1.2.2-.9.1-.9.1-2.6.3-3.7q0-2-.7-6.6l-1.3-8.4-.7-5.3q0-1.4.9-3.3l.6-1.1.7-1.3.2.4v2.5l.5 4.4 1.1 8 .4 4.3zM551.8 287.9l-1.2 5.2h-.6q-.2 0-.4-.2l-.2.4-.2.5.5 3.8q.3 1.7.7 3.9l.4 3.4.2 2.1q0 2.8-1 5.7-1.1 2.9-1.8 3.3-1.3.3-2.4.3h-5.6v-5.7h7.7q.3 0 .9-.2.6-.3.8-.8l-.3-2.8-.8-5-.5-4.6-.2-2.3-.2-1.5-.2-.9-2.2-2q-1.2-1.2-1.6-2.9 0-.9.7-3.5.3-1.5.7-2.5.2-.3.4-.9.3-.6.5-1.1l.4.2-.3.8-.2.6-.1 1.3v.4q0 1.8 2.4 3.3z"/><path fill-rule="evenodd" class="s15" d="M541 316.3h-1.5q-2.6 0-5.5-2.6-2-1.6-3.2-3.9v.6q-.1.4-.1.9-.1.6-.2 1-.1.5-.4 1 0 .4-.2.8-.1.5-.4 1.2l-.3.6-.5.6q-.2.4-.8.4h-.4l-2.8-.9-1.4-.5-1.8-.8-2.3-1-1.4-.7-1.4-.7-2.5-1q-1.7 1.8-3.5 3.5-.8.7-1.5 1.1-.7.4-2.3.4h-.3v-5.7h1.9q1.9 0 3.8-1.9l1.8-2.1 1.3-1.7 3.1-3.9q1.6-2 2.6-2.9.9-1 2-1 .6 0 1.3.4.7.3 1.4 1.1l3 3.5q1 1.2 1.7 2 1 1 1.6 1.7l2.8 2.9.9.6 1.2.7q.7.3 1.2.4.5.2 1.1.2h2zm-13.9-7.4q-.3-1.6-1.5-3.7-1.8-2.9-4-3.3-.3 0-1.8 1.2l-1.2 1.2q-.5.6-.9 1.1 0 .4 3.5 2.3 3.5 1.8 5.3 2.4.6-.4.6-1.2z"/><path fill-rule="evenodd" class="s15" d="M507 316.4h-6.3q-.6 1.6-1.3 3.1-.7 1.4-1.6 2.8-1.4 2.3-3.1 4-.7.9-2.1 1.9l-1.3 1-1.6 1.2q-2.9 2-4.4 2.5-.9-.2-2.4-.9-1.2-.6-1.6-.7-.4-.2-1.8-1l-1.7-.8-1.2-.8q-1.4-.7-3.7-2.1l-3.2-2 .3-.3q3.2 1.6 6.2 2.6l1.6.6 1.6.4 1.3.2 1.2.1 1-.1q.6 0 3.8-1.6 3.5-1.9 6.5-4.4 3.6-2.8 4.8-5.9H496.3q-.3 0-.6-.1-.4-.1-.8-.3-1.4-.3-3.2-1.5-1.1-.6-1.7-1.9-.4-1.3-.4-2.9 0-2.8 1.3-6 1.3-3.3 3.1-5.2 1.1-.9 2.6-.9 1.3 0 1.8.7 1.8 1.7 2.7 4.5.4 1.3.8 5.5l.1.6v1.4l-.1.5h5.1zm-7.9-6 .1-.4v-.5q0-1-.2-1.5-.5-2.2-2.1-3.8-1.4-1.2-2.3-1.2h-.1q-1.2.3-2 1.2-.7.9-.7 2.4.1 1.3 2.2 2.4 2 1.1 5.1 1.4zm-14.6-13.5.3-1.9q1.9-1.4 3-3-3.8-.2-3.8-3.8 0-2.5 1.5-4.9 1.5-2.4 3.5-2.4 3 0 3 3.1 0 1-.4 2.1-2.8-2.3-4.1-2.3-1.9 0-1.9 1.8 0 1.6 2 3 2 1.3 3.6 1.3 1.3 0 3.4-.9v3.1z"/><path class="s15" d="M481.2 305.6q-.2 1.7-.7 3.4-.2 1-.5 1.8-.3.7-.6 1.7-.3.8-.6 1.4-.4.7-1 1.6-1.5 0-3.3-1.1l-3.2-2.6q-1.2 1.3-5.7 2.2l-4.6.6-1.9.2q-1.9 0-1.9-1.3v-.4q-1.3.8-5 1.9-4.9 1.3-8.2 1.3h-2v-5.7h1.8q4.3 0 9.1-1.2 4.7-1.1 6.6-2.6 1.8-1.3 2.9-4.1l1.8-4.7.4.3-1.4 4.5-1.7 5.2v.4q0 .2.3.3h1.1l2.9-.1h1q.4-.1 1.3-.3 3-.5 4.3-2.3l.9-3 1.2-4.4.4.3-.9 4.2q-.8 4.2-.8 4.7.2.6 1.7 1.7.6.4 1.1.7.6.3.9.5l.5.1h.4l.5-.1q.3-.2.4-.6l.1-.8.1-.9q0-1.1-.4-2.6l-1-3.2q.3-.6.7-1.2.4-.7.7-1.2l1-1.5q.4-.5.8-.9l.4 3.2.2 3.4v.5z"/><path class="s15" d="M442.5 316.3h-4.1q-2 0-3.3-1.2-.8-.7-1.9-3.2l-1.1 5.7-.7 2.9q-.8-.5-1.8-2.7l-1.9-4.2q-1.1 1.1-4.2 1.9-1.5.3-3.1.5t-3.1.2h-1.4q-1.2 0-1.6-.2-.3-.2-.9-1.2-.9.6-2.4 1.1-1.9.4-3.7.4h-2.6v-5.7h1.7q2.3 0 4.1-.3 3.5-.5 5.2-1.8 1.8-1.3 2.9-4.2l1.9-4.6.5.2-3.1 9.7v.7l.2.1h1.2q3.2 0 5.2-.3 2.9-.6 4.2-2.3l2-7.6.5.4-.9 4.3-.9 4.6.8 1.7.3.5.2.4.7 1q.1.2.4.3.4 0 .5-.6l2.7-11.5.4.4-1.1 6.1q.2 1.3 2.3 2.3 1.3.5 2.7.5h3.2z"/><path fill-rule="evenodd" class="s15" d="M405.7 316.3h-2.5q-.7 0-1.9-.5-1.3-.5-2-1.2-1.6-1.6-2.7-5.2l-.6-2.4q-.1-.4-.3-2l-.2-1.4q-.3.5-.7 1.2-.5.7-1.5 1.9-1.6 2.3-2.7 3.3l-1.6.3h-5.2q-1.1 0-2-.2-1.9-.4-2.6-1.2 0-.4.3-1t.9-1.6q.4-.7 1-1.4.5-.8 1.5-2.1l1.2-.9q.9-.7 2.3-1.3l2.9-1.1 5.9-2.1v-6l1.5-3.6.5.2q-.1.8-.2 2.3-.1 1.4-.1 3.5 0 4.3.4 7.2.3 2.9 1.4 5.2.6 1.3 2.2 2.9 1.6 1.5 2.9 1.5h1.9zm-10.2-13.5v-.3l-.1-.8v-3.5l-1.4 1.4-1.4 1.4q-.8.7-6.1 2.2-1.9.5-2.1 1.1.1.2 2.1.6l1.9.2 2.1.1h1.4l.5-.1q.6 0 1.1-.3 1.1-.6 2-2zm4.6-24-2.7 4.8-4.9-3.1 2.9-4.7zm-7.3 0-2.6 4.8-4.9-3.1 2.7-4.7z"/><path class="s15" d="M356.7 303.5v.4l-.1 1.6q0 .7-.1 1.2l-.1 1.4v.4l-.2.6q-.1 1.1-.6 2.9-.5 2.4-1.4 4.6l-.5-.3.4-1.2.2-.9.1-.9.2-2.6.2-3.7q0-2-.7-6.6l-1.3-8.4-.7-5.3q0-1.4.9-3.3l.6-1.1.7-1.3.3.4-.1 1.4v1.1l.5 4.4 1.1 8 .4 4.3zM346.8 287.9l-1.2 5.2h-.6q-.2 0-.4-.2l-.2.4-.2.5.5 3.8q.3 1.7.7 3.9l.4 3.4.2 2.1q0 2.8-1 5.7-1 2.9-1.8 3.3-1.3.3-2.4.3h-5.6v-5.7h7.7q.3 0 .9-.2.6-.3.8-.8l-.3-2.8-.8-5-.5-4.6-.2-2.3-.2-1.5-.2-.9-2.2-2q-1.2-1.2-1.6-2.9 0-.9.7-3.5.3-1.5.7-2.5.2-.3.4-.9.3-.6.5-1.1l.4.2-.3.8-.2.6-.1 1.3v.4q0 1.8 2.4 3.3z"/><path class="s15" d="M336.2 316.3h-3.8q-1.4 0-2.5-.2-1.1-.3-2.2-.8-2.1-1.1-3.1-3.2-.9.9-1.9 1.6-1 .7-2 1.1-3 1.5-7.2 1.5h-2.2v-5.7h1.5q3.8 0 6.6-1t4-3.1q-.5-1.6-2.6-2.8-2-1.1-4.2-1.1h-.7q-.4 0-.8.1v-.3q0-.9.7-3.4 1-3 1.8-3.5l2.7-.3q1.5-.2 2.8-.2h1.1q.7 0 1.2.2.6 0 1 .1l1.2.4q2.1.6 3.3 2.4 1.2 1.6 1.2 3.7 0 1.8-.9 3.7-.9 1.8-2.7 3.2 0 1 2.4 1.5 1.5.4 2.9.4h2.4z"/><path fill-rule="evenodd" class="s15" d="M312.3 316.3h-1.5q-2.6 0-5.5-2.6-2-1.6-3.2-3.9v.6q-.1.4-.1.9-.1.6-.2 1-.1.5-.4 1 0 .4-.2.8-.1.5-.4 1.2l-.3.6-.5.6q-.2.4-.8.4h-.4l-2.8-.9-1.4-.5-1.8-.8-2.3-1-1.4-.7-1.4-.7-2.5-1q-1.7 1.8-3.5 3.5-.8.7-1.5 1.1-.7.4-2.3.4h-.3v-5.7h1.9q1.9 0 3.8-1.9l1.8-2.1 1.3-1.7 3.1-3.9q1.6-2 2.6-2.9.9-1 2-1 .6 0 1.3.4.7.3 1.4 1.1l3 3.5q1 1.2 1.7 2 1 1 1.6 1.7l2.8 2.9.9.6 1.1.7q.8.3 1.3.4.5.2 1.1.2h2zm-13.9-7.4q-.3-1.6-1.5-3.7-1.8-2.9-4-3.3-.3 0-1.8 1.2l-1.2 1.2q-.5.6-.9 1.1 0 .4 3.5 2.3 3.5 1.8 5.3 2.4.6-.4.6-1.2z"/><path fill-rule="evenodd" class="s15" d="M278.3 316.4H272q-.6 1.6-1.3 3.1-.7 1.4-1.6 2.8-1.4 2.3-3.1 4-.7.9-2.1 1.9l-1.3 1-1.6 1.2q-2.9 2-4.4 2.5-.9-.2-2.4-.9-1.2-.6-1.6-.7-.4-.2-1.8-1l-1.7-.8-1.2-.8q-1.4-.7-3.7-2.1l-3.2-2 .3-.3q3.2 1.6 6.2 2.6l1.6.6 1.6.4 1.3.2 1.2.1 1-.1q.6 0 3.8-1.6 3.5-1.9 6.5-4.4 3.6-2.8 4.8-5.9H267.6q-.3 0-.6-.1-.4-.1-.8-.3-1.4-.3-3.2-1.5-1.1-.6-1.7-1.9-.4-1.3-.4-2.9 0-2.8 1.3-6 1.3-3.3 3.1-5.2 1.1-.9 2.6-.9 1.3 0 1.8.7 1.8 1.7 2.7 4.5.4 1.3.8 5.5l.1.6v1.4l-.1.5h5.1zm-7.9-6 .1-.4v-.5q0-1-.2-1.5-.5-2.2-2.1-3.8-1.4-1.2-2.3-1.2h-.1q-1.2.3-2 1.2-.7.9-.7 2.4.1 1.3 2.2 2.4 2 1.1 5.1 1.4z"/><path fill-rule="evenodd" class="s15" d="M252.1 308.8q0 .6-.2 1.6-.2.9-.8 2l-1.8 3.8q-.3.4-.8.4h-.4q-2.3-.6-6.2-2.1l-5.7-2.3-2.8-.9q-1 1.9-2.2 3.5-1.3 1.5-2.5 1.5h-1.9v-5.7h1q1.9 0 3.7-1.9 1.1-1.2 3.1-4l3.1-4.3q.7-1.1 1.4-1.9.7-.9 1.2-1.4 1.6-1.4 3.7-1.4h.4q.3 0 .7.1.5.2.9.6 1.6 1.6 3.9 6.2.4.8.7 1.7.3.8.7 1.8.6 1.7.8 2.7zm-4.7-.6q-.3-1.2-1.9-3.2-2.1-2.7-4.3-3.1-.4 0-1.9 1.2l-1.3 1.2-.9 1 4.3 2.2 3.1 1.4 2.3.9.5-.7.1-.4v-.5z"/><path class="s15" d="M227.3 316.3h-2.1q-2.8 0-4.9-1.7-1.2-1-2.1-3-.8 1.5-2.6 3-2.3 1.7-4.2 1.7h-1.6v-5.7h1.6q1 0 2-.2 1.1-.3 2.2-1 2.3-1.1 2.8-2.5l.8-2 1.2-3 .5.4-.5 1.3q-.4 1.8-.4 3 .8 1.6 1.6 2.5 1.6 1.5 4.2 1.5h1.5zm-.7 9.5-2.8 4.6-4.8-3.1 2.7-4.6zm-7.2 0-2.7 4.7-4.9-3.2 2.9-4.6z"/><path fill-rule="evenodd" class="s15" d="M210.9 316.3h-2.6q-.6 0-1.9-.5-1.2-.5-1.9-1.2-1.7-1.6-2.7-5.2l-.6-2.4q-.1-.4-.4-2 0-.7-.2-1.4-.2.5-.7 1.2-.4.7-1.4 1.9-1.6 2.3-2.7 3.3l-1.6.3H189q-1.1 0-2-.2-1.9-.4-2.6-1.2 0-.4.3-1 .2-.6.9-1.6.4-.7 1-1.4.5-.8 1.5-2.1l1.2-.9q.9-.7 2.2-1.3l3-1.1 5.9-2.1v-6l1.5-3.6.5.2q-.2.8-.3 2.3v3.5q0 4.3.3 7.2.4 2.9 1.5 5.2.5 1.3 2.1 2.9 1.7 1.5 3 1.5h1.9zm-10.3-13.5v-1.1q0-.7-.1-1v-2.5l-1.3 1.4-1.5 1.4q-.7.7-6 2.2-2 .5-2.1 1.1.1.2 2.1.6l1.9.2 2.1.1h1.4l.5-.1q.6 0 1.1-.3 1.1-.6 1.9-2zm4.7-24-2.8 4.8-4.8-3.1 2.8-4.7zm-7.2 0-2.6 4.8-4.9-3.1 2.7-4.7z"/><path class="s15" d="m162.1 287.9-1.2 5.2h-.5q-.3 0-.5-.2l-.2.4-.1.5.5 3.8q.2 1.7.6 3.9l.4 3.4.2 2.1q0 2.8-1 5.7-1 2.9-1.8 3.3-1.2.3-2.4.3h-5.6v-5.7h7.7q.3 0 .9-.2.6-.3.8-.8l-.3-2.8-.8-5-.4-4.6-.3-2.3-.1-1.5-.2-.9-2.2-2q-1.3-1.2-1.6-2.9 0-.9.6-3.5.4-1.5.8-2.5l.3-.9q.3-.6.5-1.1l.5.2-.4.8-.1.6-.1 1.3v.4q0 1.8 2.3 3.3z"/><path class="s15" d="M151.2 316.3h-.9q-1.3 0-3.1-.7-2.1-1-3.5-2.7-.6-.9-1.2-2.1-.3-1-.6-2.6l-.3 1.3-.2.6-.2.6-.4 1-.9 1.2q-1.3 1.8-2.7 2.7-1.3.7-2.6.7h-1.1v-5.7h.9q.6 0 1-.1t1-.3l1.2-.6.4-.2.6-.4q1-.7 1.9-2.4 1-1.7 1.4-3.9l-.1-2.8-.2-5.2V292.1q0-.5-.1-1l-.2-1.4q0-.6-.2-1.1l-.3-1.7-.2-.9q-.1-.5-.4-.8l2-3.9q.1.1.7 2.4l.4 1.8v.8l.2 1.3.2 3.1.2 3.1v3l.1 3.1v1.6l.1 1.3v.9l.2 1.2q.2.3.2.6t.1.7q.2.3.3.6.1.4.3.6.6 1.3 1.5 1.8.4.2 1.1.7.5.3.7.4l.9.2 1.1.1h.7z"/><path class="s15" d="m133 291.8-2.7 4.7-4.9-3.2 2.8-4.6zm-7.3 0-2.7 4.7-4.8-3.2 2.8-4.7zm8.7 24.6h-2.5q-2.8 0-4.9-1.8-1.2-1-2.1-3-.8 1.5-2.6 3-2.3 1.8-4.2 1.8h-1.6v-5.8h1.6q1 0 2-.2 1.1-.3 2.2-.9 2.3-1.2 2.8-2.5l.8-2 1.2-3 .5.4-.5 1.3q-.4 1.7-.4 2.9.8 1.7 1.6 2.5 1.6 1.5 4.2 1.5h1.9z"/><path class="s15" d="M117.3 316.3h-.8q-1.4 0-3.2-.7-2.1-1-3.4-2.7-.7-.9-1.3-2.1-.3-1-.5-2.6l-.4 1.3-.2.6q0 .3-.2.6l-.4 1-.9 1.2q-1.2 1.8-2.7 2.7-1.3.7-2.5.7h-1.1v-5.7h.9q.6 0 .9-.1.4-.1 1.1-.3l1.1-.6.5-.2.6-.4q.9-.7 1.9-2.4.9-1.7 1.3-3.9v-2.8l-.2-5.2v-1.4q0-.7-.1-1.2 0-.5-.1-1l-.1-1.4q-.1-.6-.2-1.1l-.4-1.7-.2-.9q-.1-.5-.4-.8l2-3.9q.1.1.7 2.4l.4 1.8v.8l.2 1.3.3 3.1.1 3.1.1 3 .1 3.1V302.8q0 .7.1.9l.2 1.2q.1.3.1.6t.1.7q.2.3.3.6l.3.6q.7 1.3 1.5 1.8.4.2 1.1.7.5.3.8.4l.9.2 1 .1h.7z"/><path fill-rule="evenodd" class="s15" d="m93.4 279.4-2.7 4.8-4.9-3.2 2.8-4.6zm6.9 36.9h-2.4q-1.2 0-2-.1-.6 0-1.1-.2-.7 0-.8-.1-.3-.2-.5-.2-2.1-.6-3.9-1.6-1.3.9-4.1 1.7l-2.2.4-1.6.1h-2.4v-5.7h2.2l1.9-.1 1.1-.1q.4 0 .7-.1-.9-1.4-1.3-4.2v-.1q0-.6.8-3.2 1-3.4 2.6-5.7 1.2-1.9 3.3-3.2 1.7-1.2 2.6-1.2.3 0 .4.2 1.5 1.5 2.4 4.3l.4 2.2q.1 1.1.1 2 0 .7-.8 3.4-.9 2.6-2.1 4.7.6.3 2.5.8l2.5.3h1.7zM94 305.5q0-1.3-.6-3.4-.9-2.5-2.1-3h-.5l-.8.2q-.4.1-.6.2l-.7.4q-1.4.8-2.2 2.4-.1.1-.1.3 0 .4.7 1.7 1 1.8 2.9 3.2l.4.3.5.3 1.6-1.2z"/><path class="s15" d="M80.1 316.3h-3.8q-.7 0-2-.5l-2.5-1.2-.8.1q0 2.3-.3 3.8-.3 2.3-1.3 4.1-1.1 2.3-5.5 6.3-4.3 4-5.2 4-1.5 0-3.4-.9-1.8-.9-3.9-2.9-3.2-2.8-5.1-5.8l.4-.3q1.6 2.2 3.6 3.8 2.3 1.9 4 1.9.9 0 2.1-.5 1.2-.5 2.7-1.5 2.6-1.6 6.8-6.2 3.9-4.3 3.9-5.2 0-1.1-1.1-3.1l-1.1-2.1-1.7-3q-.3-.6-.4-1-.2-.5-.2-.7l.4-2.5q.4-2.5.9-3l1.4 2.4 1 1.9 1.3 2.4q.5.8 2.7 2.3 2.5 1.7 4.3 1.7h2.8zm-12.2-27.2-2.7 4.8-4.9-3.2 2.8-4.7z"/><path class="s15" d="m52.9 323.2-2.8 4.8-4.9-3.3 2.8-4.6zm-7.2 0L43 328l-4.9-3.3 2.8-4.7zm7.2-20.2q0 2.8-.9 6.6-.2.9-.4 1.7-.2.9-.5 1.5-.3.7-.5 1.3-.2.4-.5.8l-1.1.6q-2.2.9-3.6.9h-8.2v-5.8h8.7q1.6 0 3.1-.2 1.6-.3 1.9-1.4-.2-2.4-.7-4.2-.5-1.9-1.5-3.3l-2.1-2.9.9-2.6.3-.6.3-.6q.1-.4.6-1.1 1.2.8 2.6 3.5 1.6 3.2 1.6 5.8z"/><path fill-rule="evenodd" class="s15" d="M38.2 316.4h-6.3q-.5 1.6-1.3 3.1-.7 1.4-1.6 2.8-1.3 2.3-3.1 4-.7.9-2.1 1.9l-1.3 1-1.6 1.2q-2.9 2-4.4 2.5-.9-.2-2.4-.9-1.2-.6-1.5-.7-.5-.2-1.9-1l-1.7-.8-1.2-.8q-1.3-.7-3.7-2.1l-3.2-2 .3-.3q3.3 1.6 6.2 2.6l1.6.6 1.6.4 1.3.2 1.2.1 1-.1q.7 0 3.8-1.6 3.6-1.9 6.5-4.4 3.6-2.8 4.9-5.9H27.6q-.3 0-.7-.1-.4-.1-.8-.3-1.4-.3-3.1-1.5-1.2-.6-1.7-1.9-.5-1.3-.5-2.9 0-2.8 1.3-6 1.4-3.3 3.1-5.2 1.1-.9 2.7-.9 1.2 0 1.8.7 1.7 1.7 2.6 4.5.4 1.3.8 5.5l.1.6v1.4l-.1.5h5.1zm-7.9-6 .1-.4v-.5q0-1-.2-1.5-.4-2.2-2.1-3.8-1.4-1.2-2.2-1.2h-.2q-1.2.3-2 1.2-.7.9-.7 2.4.2 1.3 2.2 2.4 2 1.1 5.1 1.4z"/><path class="s15" d="m-19.6 288.5-2.8 4.8-4.9-3.3 2.8-4.6zm32 17.1q0 1.4-.2 2.5-.1 1-.4 1.9-.4 2-1.3 3.7-.3.5-1.3 1.3-.9.6-2.8 1.7-4.3 2.5-10.1 4-.3 0-1.4.2-1.1.2-2.2.5l-4 .6q-3.9.5-8.1.5h-3.9l-6.2-.4q-2.6 0-5.6-.5l-3.3-.6q-6.8-1.3-12.7-3.7-4.4-1.8-7.5-4.2l-1.7-1.5-2-1.7q-2.1-1.8-3.4-3.3l1.4-.5 4.5 2.4 4.3 2.2q5.2 2.4 15.6 4.1 2.5.5 5.2 1 2.7.4 4.8.4h3.6q4.9.3 6.1.3 9.9 0 17.3-1.8 6-1.3 10.4-3.7 3.3-1.8 3.5-2.8l.1-.8q0-1.2-.4-2.7-.4-1.5-1.1-3.4l-.9-2.3q-.3-.4-.4-.9-.3-.7-1.1-2.2l.1-.8q0-.4.1-.9.1-.6.4-1.5.5-1.4 1.2-2 .7 1.5 1.7 4.4l1.1 3.1.1.5.1.7.3 1.3.1 2.7v1.2zM-85.5 303.5v.4l-.1 1.6q0 .7-.1 1.2l-.1 1.4v.4l-.2.6q-.1 1.1-.6 2.9-.5 2.4-1.4 4.6l-.6-.3.5-1.2.2-.9.1-.9.1-2.6.2-3.7q0-2-.6-6.6l-1.3-8.4-.7-5.3q0-1.4.9-3.3l.5-1.1.8-1.3.2.4v2.5l.5 4.4 1.1 8 .4 4.3zM-95.5 287.9l-1.1 5.2h-.6q-.3 0-.4-.2l-.3.4-.1.5.5 3.8q.2 1.7.6 3.9l.5 3.4.2 2.1q0 2.8-1.1 5.7-1 2.9-1.8 3.3-1.2.3-2.4.3h-5.5v-5.7h7.6q.3 0 1-.2.6-.3.8-.8l-.3-2.8-.8-5-.5-4.6-.2-2.3-.2-1.5-.2-.9-2.2-2q-1.3-1.2-1.6-2.9 0-.9.7-3.5.3-1.5.7-2.5.1-.3.4-.9.2-.6.4-1.1l.5.2-.3.8-.2.6-.1 1.3v.4q0 1.8 2.4 3.3z"/><path class="s15" d="m-108.8 302.3-2 5.6-2-.1-1.3-.1-1.4.1h-1.4q.3 1.2 1.4 1.9 1.5.9 4.1.9h5.2v5.7h-6q-2.9 0-4.9-1.6-1.3-1-2-3.1l-.3-1.6v-1.9q-.9.1-1.8.3-1 .1-2 .5-1.3.3-2.4 1l-5.8 3.2-1.4.7-1.5.7-2.9 1.1-1.3.2-1.6.4-1.7.1h-8.1v-5.7h6.4q2.4 0 5-.5 1.3-.2 2.6-.6 1.4-.4 2.8-1 5.6-1.8 6-3.2-1-.6-2.3-1.2-1.2-.6-2.4-1l-1.8-.5-1.5-.5-1.4-.2q-.8-.1-1.5-.1l-1 .1q-.4 0-1 .1-1.3.3-2.4.9-1.1.5-1.8 1.2-1.5 1.2-3.2 4.3l-.5-.2q2-5.4 4.8-8.4 3.3-3.4 7.9-3.4 3.1 0 6.4 1.2l6.8 2.8 2.9.9 5.1.7 2.6.2zm-14.8 20.6-2.7 5-4.8-3.3 2.7-4.7z"/><path class="s15" d="M-149.1 316.3h-3.8q-.8 0-2.1-.5l-2.5-1.2-.8.1q0 2.3-.2 3.8-.3 2.3-1.3 4.1-1.2 2.3-5.5 6.3t-5.2 4q-1.6 0-3.4-.9-1.9-.9-4-2.9-3.2-2.8-5.1-5.8l.5-.3q1.6 2.2 3.6 3.8 2.2 1.9 4 1.9.9 0 2.1-.5 1.2-.5 2.6-1.5 2.6-1.6 6.9-6.2 3.9-4.3 3.9-5.2 0-1.1-1.1-3.1l-1.1-2.1-1.7-3-.5-1q-.1-.5-.2-.7l.4-2.5q.5-2.5.9-3l1.5 2.4 1 1.9 1.2 2.4q.6.8 2.7 2.3 2.6 1.7 4.3 1.7h2.9zm-12.2-27.2-2.8 4.8-4.8-3.2 2.7-4.7zM-177 303.5v.4l-.1 1.6q0 .7-.1 1.2l-.1 1.4v.4l-.2.6q0 1.1-.5 2.9-.5 2.4-1.5 4.6l-.5-.3.4-1.2.2-.9.1-.9.2-2.6.2-3.7q0-2-.7-6.6l-1.3-8.4-.7-5.3q0-1.4.9-3.3l.6-1.1.7-1.3.3.4-.1 1.4v1.1l.5 4.4 1.1 8 .4 4.3zM-186 303q0 2.8-.9 6.5-.2.9-.5 1.8-.2.8-.4 1.5-.3.7-.5 1.2t-.4.8l-1.2.7q-2.1.8-3.6.8h-5v-5.7h5.6q1.6 0 3.1-.3t1.9-1.3q-.3-2.4-.8-4.3-.5-1.8-1.4-3.2l-2.1-2.9.8-2.6.3-.6.3-.7q.1-.4.6-1 1.2.8 2.6 3.5 1.6 3.1 1.6 5.8zm-11.5-11.1.3-1.9q1.9-1.4 3-3-3.8-.2-3.8-3.8 0-2.5 1.5-4.9 1.5-2.5 3.5-2.5 3 0 3 3.2 0 1-.4 2.1-2.8-2.3-4.1-2.3-1.9 0-1.9 1.8 0 1.6 2 3 2 1.3 3.6 1.3 1.3 0 3.4-.9v3.1z"/><path class="s15" d="M-197.8 316.3h-3.8q-.7 0-2-.5l-2.5-1.2-.8.1q0 2.3-.2 3.8-.4 2.3-1.4 4.1-1.1 2.3-5.4 6.3-4.3 4-5.3 4-1.5 0-3.4-.9-1.8-.9-3.9-2.9-3.2-2.8-5.1-5.8l.4-.3q1.6 2.2 3.6 3.8 2.3 1.9 4 1.9 1 0 2.1-.5 1.3-.5 2.7-1.5 2.6-1.6 6.9-6.2 3.8-4.3 3.8-5.2 0-1.1-1-3.1l-1.2-2.1-1.6-3q-.4-.6-.5-1-.2-.5-.2-.7l.4-2.5q.5-2.5.9-3l1.4 2.4 1 1.9 1.3 2.4q.5.8 2.7 2.3 2.5 1.7 4.3 1.7h2.8zM-226.1 304.1l.1.4q0 1.6-.7 4.6-.6 3.1-1.5 4.6-.7 1.1-4 2.9-2.2 1.2-4.5 2.2-2.3.9-5.6 1.9-7.3 1.9-15.6 1.9l-3.9-.1-6.1-.4q-2.7 0-5.7-.4l-3.2-.7q-6.9-1.2-12.7-3.7-4.4-1.8-7.5-4.2l-1.8-1.4-2-1.7q-2.1-1.8-3.3-3.4l1.3-.5 4.5 2.4 4.4 2.3q5.2 2.3 15.5 4 2.5.5 5.2 1 2.7.4 4.9.4 1.4 0 3.5.1 4.9.3 6.1.3 9.6 0 16.8-1.8 2.9-.6 5.3-1.4 1.2-.4 2.2-.9.9-.4 2-1 2.7-1.5 3.1-2.8 0-.6-1.7-1.4l-.5-.2-1.1-.4-2.2-.6q-2.8-.6-5.5-1.8-3.2-1.6-3.6-2.9v-.6q0-.6.1-1.7t.4-2.8q.5-3.3.9-4 1.8-4.9 6.2-7.8 3.7-2.6 7.1-2.6 1.8 0 2.6.9.2.3.5 1.3v2.1q0 2.3-.5 3.1-.5-.3-.9-.5-.1 0-1-.3-.6 0-1-.1h-1.1q-3.9 0-7.6 3.4-2.7 2.7-2.7 3.8v.1q.3 1.5 3.9 2.9l6.6 2.1q3.7 1.4 4.3 3.4zm-15.6 25.4-2.8 4.7-4.8-3.3 2.8-4.7zm-7.3 0-2.7 4.8-4.8-3.4 2.7-4.6zM243 128.8q3.6 2.9 3.9 7.4.1 1.6-1.1 7.2l-.1-.1-4.1-2.9q1-3.3 1.4-5c1.1-3.7-2.2-4.4-5.2-5.1-1.9-.4-5.3-.5-8.7-.7l-3-3.8 13.3.8q1.1.5 2.1 1 .9.6 1.5 1.2z"/><path class="s15" d="M245.9 143v.1q-.1.1-.3 0-.1 0-.4-.3 0 1.5-.7 3.9c-.4 1.7-.9 3.2-1.3 4.3l-4.1-3.1q2.5-7 2.4-8.9-.1-1.4-1-2.4-.1-.1-.1-.2l.2.1q.4.1.4.2 1.1 1 2.6 2.7 1.5 1.6 2.3 3.6zM236 135.2q-.5 1.9-1 3.7-.4 1.9-.9 3.7l-3.3-4.1q1.1-4 1.9-7.4z"/><path class="s15" d="m226.5 145.3-3.1-4.7 16.1 5.6 3.8 4.8-4.6-1.8.3.6v.1q1.7 3.5.7 8-1.1 4.5-3 7.7-.4.7-1.1 1.1-.7.5-1.5.1-2.3-1.9-3.9-3.5 1.3.2 2.4-1.2 1.1-1.5 1.8-3.6.7-1.6 1.5-4.5.7-2.9.8-5v-.5z"/><path fill-rule="evenodd" class="s15" d="m235.2 166.5-.2 1.4q-.2.6-.3 1.3-.3 1.8-.7 3.7-.4 1.9-.1 3v.1q.4.6.2.9-.1.2-.5.3-.3 0-.6-.1-.5-.3-.9-1.1-.6-.6-1-1.3-1.7-2.5-1.4-4 .3-1.4.9-3h-.1l.1-.1q0-.2.1-.3v-.5l.2-.8q-3.5-4-5.3-8-1-2.2-.4-3.5.2-.5.7-.9 1.1-.9 2.8-.1.8.4 1.8 1.2 2.3 2.4 3.8 5.4 1.5 3 .9 6.4zm-6.8-7.5q-.1 1 .3 1.8l.8 1.6q.2.3.5.4.2.1.5.1.6 0 1-.3.5-1.2.5-2.9 0-.6-.6-.9-.4-.2-.9-.2-1.5-.1-2.1.4z"/><path class="s15" d="M221.1 152q.6 1.2 1.1 2.3.6 1.2 1.2 2.3l-3.6 1.4q-.6-1.1-1.1-2.3-.6-1.1-1.2-2.3zM233.6 174.7q.2.8.7 1.5l1 1.4q1.4 1.9 1.1 3.5-.3 1.5-1.6 3.2-.4.6-2.2 2.6-1.8 2-2.4 2.2-.4.2-.4-.4.3-2.8 1.1-5.8.9-3 1.4-5.9.2-1.1-.3-2.1h.1q-.3-.4 0-.8.4-.6 1.1 0 .4.3.4.6zM223.6 164q.6 1.2 1.1 2.3.6 1.2 1.2 2.3l-3.6 1.5q-.6-1.2-1.1-2.4-.6-1.1-1.2-2.3zM214 174.2q1.9 1.9 2.5 4.2.5 2.2.4 4.1-.1 1.6-.9 3.2-.9 1.5-2.4 3.4l-2.9-4.1h.1q1.9-2.5 2.6-3.7.7-1.3 1-2.6-.6-.6-3.8-2.3l-1-5.3q2.5 1.2 4.4 3.1zM225.6 186.8l-2.2 3.2q-1.1 1.6-2.1 3.1l-1.8-4.9q2.4-3.5 4.4-6.4z"/><path class="s15" d="M215.3 201.6q-1 1.5-2.3 2.8-.3.3-.6.5-1.6 1.6-3.3 3-.2.1-.3-.1-.2-.1-.2-.3 1-3.4 2.5-6.8 1.4-3.3 2.8-6.7.8-1.8.7-3.7-.1-.1-.2-.3-.1-.1-.3-.2-.4-.2-.8-.3-.4.6-.9 1.2-.2.2-.4.3-.9.8-1.6.7-.7 0-1.1-.4-.4-.5-.7-1.2-.4-1.4-1-2.8-.5-1.3-.6-2.8-.1-.4.2-.7.1-.1.4-.2.6-.3 1.1-.3 2.6 0 4.5 1.8l.2.2q1.9 2 2.8 4.9.9 2.8.7 6-.1 3.1-1.6 5.4z"/></svg>