<svg xmlns="http://www.w3.org/2000/svg" width="1502" height="902"><g transform="translate(-5.445 10.89)"><path style="fill:#fde5d6" d="m343 709.465-18.5.404-9.735-.879c-5.354-.483-13.904-1.584-19-2.446-5.096-.861-14.84-2.948-21.656-4.635l-12.39-3.07-11.11-3.998-11.109-4-15-7.362-15-7.362-10.885-7.11c-5.987-3.91-14.756-10.124-19.487-13.808-4.731-3.685-13.514-11.424-19.516-17.199l-10.915-10.5-8.419-10-8.419-10-8.334-12.5c-4.584-6.875-10.823-17.225-13.864-23-3.042-5.775-7.62-15.62-10.174-21.88-2.553-6.258-5.98-15.708-7.613-21-1.634-5.29-4.045-14.148-5.357-19.683-1.313-5.535-3.14-15.21-4.062-21.5L80.78 476.5l-.503-19-.503-19 1.612-13.88 1.612-13.88 2.502-12.12c1.376-6.666 4.039-17.117 5.917-23.224 1.878-6.108 5.459-16.097 7.958-22.198 2.499-6.101 5.936-13.852 7.638-17.225 1.703-3.372 6.034-11.081 9.626-17.132l6.53-11.002 9.113-12.17 9.112-12.169 14.553-14.557 14.553-14.558 12.643-9.442 12.643-9.443 12.588-7.353 12.587-7.353 10.786-4.813c5.933-2.647 16.009-6.613 22.391-8.814 6.383-2.201 16.36-5.17 22.172-6.597 5.812-1.428 16.558-3.563 23.879-4.746l13.311-2.15 23.5-.065 23.5-.065 11.5 1.764c6.325.97 15.55 2.627 20.5 3.683 4.95 1.055 13.05 3.094 18 4.532 4.95 1.437 14.166 4.633 20.48 7.101 6.313 2.469 16.236 6.88 22.052 9.804 5.815 2.923 14.807 7.933 19.98 11.134 5.175 3.2 13.751 9.09 19.06 13.089 5.307 3.999 14.1 11.274 19.54 16.168l9.888 8.897 8.27 9.492c4.547 5.22 10.774 12.822 13.835 16.892 3.062 4.07 7.553 10.451 9.98 14.181 2.429 3.73 4.415 7.217 4.415 7.75V319h-1.394c-.767 0-8.53-1.084-17.25-2.409-8.72-1.325-19.845-2.923-24.72-3.552-4.876-.63-9.06-.948-9.3-.71-.239.24.226 3.301 1.033 6.803.808 3.503 2.429 11.677 3.603 18.165 1.174 6.489 3.006 20.214 4.07 30.5l1.935 18.703v27l.002 27-1.476 14c-.812 7.7-1.758 15.912-2.103 18.25l-.627 4.25h-2.597l-.67-4.25c-.369-2.338-2.643-12.35-5.054-22.25-2.41-9.9-6.398-24.975-8.86-33.5-2.463-8.525-6.785-22.25-9.605-30.5-2.82-8.25-7.624-21.3-10.675-29-3.051-7.7-9.289-21.763-13.86-31.25L452.139 309H399.786l.511 1.25c.281.687 3.756 8.675 7.722 17.75 3.966 9.075 9.689 22.8 12.716 30.5 3.028 7.7 6.832 17.6 8.454 22 1.622 4.4 4.98 13.85 7.463 21 2.483 7.15 7.159 21.652 10.39 32.227 3.232 10.575 7.907 27.45 10.391 37.5s5.412 22.773 6.508 28.273 2.657 14.05 3.47 19c.811 4.95 2.244 15.525 3.182 23.5l1.707 14.5.032 22.25.033 22.25h36.211l4.102-6.25c2.256-3.438 6.554-10.75 9.55-16.25 2.998-5.5 7.278-14.065 9.512-19.032 2.235-4.968 5.617-13.068 7.516-18 1.9-4.933 4.838-13.468 6.531-18.968 1.694-5.5 4.022-13.725 5.174-18.277 1.153-4.553 2.998-12.653 4.1-18 1.103-5.348 2.919-16.473 4.035-24.723l2.03-15 .548-24.5.55-24.5-1.661-17.368-1.66-17.368.503-.503.504-.504 8.295 1.19c4.562.654 9.31 1.433 10.55 1.73l2.255.542 2.982 9.64c1.64 5.303 4.093 14.591 5.452 20.642 1.359 6.05 3.235 16.625 4.17 23.5l1.698 12.499v40L593.62 484c-.93 6.875-2.843 17.675-4.251 24l-2.56 11.5-4.285 13c-2.357 7.15-6.418 17.852-9.026 23.782l-4.742 10.782-6.985 12.218c-3.842 6.72-9.036 15.143-11.542 18.718-2.506 3.575-7.963 10.775-12.126 16l-7.57 9.5-11.017 11.029-11.017 11.029-8.5 6.774c-4.675 3.726-13 9.826-18.5 13.556-5.5 3.73-14.05 9.046-19 11.811-4.95 2.766-14.243 7.353-20.651 10.193l-11.651 5.164-13.558 4.416-13.559 4.417-12.29 2.512c-6.76 1.382-16.116 2.996-20.79 3.586l-8.5 1.075-18.5.403zM312.107 602h21.885l.254-124.75.254-124.75 25-.61c13.75-.336 27.091-.674 29.647-.75l4.647-.14-6.732-17.25c-3.702-9.488-7.682-19.39-8.843-22.006l-2.112-4.757-73.246.256-73.246.257-4.768 22c-2.623 12.1-4.786 22.331-4.808 22.736l-.039.736 32.25.264 32.25.264.694 23.5c.382 12.925 1.39 58.825 2.24 102 .85 43.175 1.825 88.513 2.167 100.75l.622 22.25h21.884zm576.663 10H885v-1.044c0-.574 1.13-2.261 2.51-3.75l2.51-2.706 2.989-7.176 2.987-7.176 1.608-7.324 1.608-7.324.523-15.09.523-15.092-11.879-.652-11.879-.652-4.472-1.062c-2.46-.584-7.41-2.457-11-4.162l-6.528-3.1-7.614-7.595-7.614-7.595-3.145-6.24-3.145-6.24-1.476-6.26-1.476-6.26-.015-32.198-.015-32.199 2.49-7.88 2.489-7.88 3.852-5.921 3.852-5.922 4.985-4.628c2.742-2.546 6.855-5.809 9.14-7.251l4.155-2.623 7.716-2.59 7.715-2.59h18.212l7.838 2.631 7.839 2.632 5.312 3.526 5.313 3.527 5.296 5.721 5.296 5.722 3.166 5.962 3.166 5.961 1.584 6.144L941 431.79V563.58l-1.522 5.96-1.521 5.96-3.11 6.391-3.111 6.391-6.618 6.68-6.618 6.68-5.5 3.108-5.5 3.107-7.48 2.072-7.48 2.071h-3.77zm1.466-109H900v-67.1l-1.405-2.7c-.773-1.485-2.609-3.825-4.08-5.2l-2.676-2.5H879.16l-2.675 2.5c-1.472 1.375-3.308 3.715-4.081 5.2L871 435.9v56.032l1.567 3.284 1.567 3.284 3.169 2.25 3.169 2.25h9.764zm67.514 105.752-6.75.517v-.726c0-.399 1.585-2.576 3.521-4.839l3.521-4.113 2.397-7.587 2.396-7.586 1.083-7.782 1.082-7.78.015-81.178.016-81.178.799-1.259.799-1.258 54.935.258 54.936.259.5 48.045.5 48.045 1.764 2.691c.97 1.48 2.838 3.395 4.15 4.255l2.387 1.564 6.85.517 6.849.517 3.429-1.817 3.429-1.817 2.07-2.822 2.072-2.822.5-48.178.5-48.178h40v99l-.725 3.25-.725 3.25 7.725-.002 7.725-.002 3.429-1.748 3.429-1.749 2.07-2.822 2.072-2.822.5-48.178.5-48.178h40V454c0 27.225-.225 50.85-.5 52.5l-.5 3h20.472l3.764-3.766 3.764-3.766.5-48.734.5-48.734 20.292-.27 20.291-.272-.291 53.142-.292 53.14 10-.453 10-.454 3.233-1.684 3.233-1.683 1.767-3.233 1.767-3.233.5-97 .5-97h40l.255 97.823.255 97.823-1.493 6.436-1.492 6.436-2.624 5.241c-1.444 2.883-4.405 7.573-6.582 10.423l-3.957 5.182-5.532 4.177-5.531 4.176-6.189 2.806-6.189 2.806-7.96 1.141-7.961 1.142-110.5-.306-110.5-.306-7.102-2.598-7.102-2.599-5.619-3.73-5.619-3.729-5.083-5.561-5.083-5.562-2.553-5.04c-1.405-2.77-3.28-6.87-4.168-9.11l-1.614-4.07-.528-32-.529-32h-28.44l-.339 59.5-.34 59.5-2.078 6.181c-1.143 3.4-3.531 8.721-5.306 11.824l-3.228 5.641-5.135 5.205c-2.824 2.863-7.337 6.647-10.029 8.409-2.692 1.762-7.417 4.165-10.5 5.34l-5.605 2.135-6.75.516zm-229.681-4.778-41.569-.026-6.5-2.224c-3.575-1.223-8.75-3.537-11.5-5.141l-5-2.917-6-6.089-6-6.088-3.628-6.995-3.628-6.994-1.372-5.5-1.372-5.5v-101l20.214-.27 20.214-.271.286 48.77.286 48.771 1.799 3.294 1.798 3.294 3.202 1.952 3.201 1.953h72l3.201-1.953 3.202-1.952 1.478-2.857 1.478-2.858.234-7.937.234-7.936-12.913-.654-12.914-.654-5.548-1.973c-3.052-1.085-7.404-2.92-9.672-4.076l-4.124-2.104-6.25-5.77-6.25-5.769-3.835-5.916-3.835-5.916-2.243-7.084-2.243-7.084v-68l2.243-7.084 2.243-7.084 3.835-5.916 3.836-5.916 6.263-5.782 6.262-5.781 5.66-2.838 5.658-2.838 6.564-1.63 6.564-1.631h12.744l6.564 1.614 6.564 1.614 6 3.092 6 3.093 7.5 7.544 7.5 7.543 3.232 6.692c1.777 3.68 3.679 8.63 4.225 11l.994 4.308.025 68.069.024 68.068-1.595 5.431c-.878 2.988-3.015 8.125-4.75 11.416l-3.155 5.985-6 6.098-6 6.098-6.5 3.581-6.5 3.582-5.431 1.586-5.432 1.586-41.568-.026zm37.734-108.205 8.304-.269-.065-34.5-.066-34.5-1.8-2.438c-.99-1.341-2.958-3.303-4.374-4.36l-2.574-1.922-4.364-.478-4.364-.479-3.408 2.339c-1.874 1.286-4.35 3.607-5.5 5.159l-2.092 2.821-.308 27.993-.309 27.992 2.11 4.357 2.109 4.357 4.199 2.098 4.199 2.099 8.303-.27zm632.443 55.002-20.254.27.254-122.77.254-122.771 19.11-.271 19.11-.271 1.144 1.378 1.144 1.379-.254 121.392-.254 121.393-20.254.27zm-226.317-177.793-5.57.022-5.423-2.75-5.422-2.75-3.139-4.173-3.138-4.172-1.25-5.206-1.248-5.205 1.207-5.395 1.208-5.395 3.191-4.184 3.192-4.184 5.345-2.793 5.346-2.793 5.636.022 5.636.022 4.022 1.827 4.022 1.827 3.267 3.267c1.796 1.796 4.149 4.996 5.228 7.11l1.961 3.845v13.16l-1.961 3.844c-1.08 2.115-3.432 5.315-5.228 7.111l-3.267 3.267-4.022 1.827-4.022 1.827-5.57.022zm55.005.012-5.434-.01-5-2.364-5-2.363-2.691-2.877-2.691-2.876-2.037-4.5-2.037-4.5-.012-5-.012-5 2.364-5 2.363-5 2.877-2.691 2.876-2.691 4.5-2.037 4.5-2.037 4.384-.022 4.384-.022 4.116 1.229 4.116 1.229 5.154 5.02 5.154 5.022 1.09 4c.6 2.2 1.091 5.8 1.091 8s-.481 5.734-1.07 7.854l-1.07 3.855-4.006 4.346-4.006 4.345-4.234 2.05-4.234 2.05-5.434-.01zM725.57 359.967c-1.138-.018-4.462-.859-7.386-1.869l-5.318-1.836-3.52-3.381-3.52-3.381-2.126-4-2.125-4v-13l2.125-4 2.126-4 3.337-3.138c1.836-1.726 4.793-3.871 6.57-4.767l3.234-1.629 4.398-.602 4.4-.603 5.254 1.745 5.254 1.745 4.024 3.625 4.024 3.624 2.003 4.5 2.002 4.5.004 5.59.004 5.59-2.255 4.657-2.254 4.658-4.119 3.525-4.118 3.525-4.975 1.478c-2.737.812-5.906 1.462-7.044 1.444zm54 0c-1.138-.018-4.466-.86-7.396-1.872l-5.328-1.84-3.929-3.837-3.929-3.836-1.993-5.329-1.994-5.328v-5.85l1.994-5.328 1.993-5.329 3.757-3.599c2.066-1.98 5.331-4.42 7.256-5.425l3.5-1.827h13l3.5 1.829c1.925 1.005 5.002 3.24 6.838 4.966l3.337 3.138 1.95 3.783 1.95 3.784.05 6.47.05 6.472-2.176 4.493-2.175 4.493-4.118 3.525-4.119 3.525-4.975 1.478c-2.736.812-5.906 1.462-7.043 1.444zm422.503-36.383-5.572.363-2.547-.833c-1.4-.458-4.336-1.962-6.524-3.343l-3.976-2.51-2.62-3.88c-1.44-2.135-3.172-5.63-3.848-7.769l-1.231-3.887.568-4.794.568-4.794 1.996-3.913 1.996-3.913 3.736-3.28c2.055-1.805 5.217-3.9 7.027-4.656l3.29-1.375 5.783.01 5.782.01 5.117 2.383 5.117 2.382 2.515 3.358c1.383 1.847 3.288 4.885 4.233 6.751l1.718 3.394v11.298l-1.65 3.957-1.651 3.957-3.2 3.338-3.199 3.338-3.928 2.023-3.927 2.023-5.573.363z"/><path style="fill:#faccae" d="m336.006 708.87-19.506-.13-7.5-.866c-4.125-.476-12.502-1.76-18.616-2.854l-11.115-1.989-12.385-3.56c-6.811-1.957-17.559-5.608-23.884-8.111-6.325-2.504-16.675-7.247-23-10.54-6.325-3.294-16.45-9.248-22.5-13.231-6.05-3.983-15.521-10.851-21.048-15.262l-10.047-8.02-10.042-10.042-10.042-10.042-8.348-10.361c-4.592-5.7-11.893-15.762-16.226-22.362l-7.878-12-6.851-14-6.852-14-4.49-12.5-4.492-12.5-3.115-12.692-3.115-12.691-2.101-14.309-2.1-14.308-.045-20.5-.044-20.5 2.165-15 2.165-15 3.434-13.51c1.889-7.43 4.994-17.78 6.9-23 1.908-5.22 5.12-13.315 7.138-17.99 2.019-4.675 5.931-12.683 8.695-17.795 2.763-5.113 8.053-13.888 11.754-19.5 3.7-5.613 10.353-14.705 14.782-20.205l8.054-10 11.374-11.227c6.256-6.176 15.425-14.468 20.375-18.428 4.95-3.96 14.014-10.501 20.143-14.536l11.143-7.337 12.407-6.334c6.823-3.484 17.17-8.175 22.99-10.423 5.822-2.249 15.384-5.487 21.248-7.195 5.865-1.708 14.805-3.97 19.866-5.024 5.062-1.054 14.815-2.61 21.673-3.456l12.47-1.54H356.817l12.341 1.567 12.342 1.567 13.42 3.034 13.42 3.033 13.08 4.448 13.08 4.447 16 7.843 16 7.843 13.5 9.041 13.5 9.041 10.108 8.515 10.109 8.514 10.26 10.804 10.261 10.803 9.303 12.365c5.117 6.8 10.337 14.314 11.6 16.696 1.265 2.383 2.087 4.52 1.829 4.75-.259.23-7.22-.644-15.47-1.943s-19.725-2.982-25.5-3.74c-5.775-.759-10.782-1.218-11.127-1.021l-.626.359 1.91 8.208c1.052 4.514 2.78 13.634 3.842 20.267 1.061 6.632 2.713 18.584 3.67 26.559l1.741 14.5v64l-1.811 14.5-1.81 14.5-.862.917-.861.917-.434-1.417c-.238-.78-2.1-8.842-4.139-17.917-2.037-9.075-5.936-24.375-8.663-34-2.728-9.625-7.211-24.25-9.964-32.5-2.752-8.25-8.197-23.043-12.1-32.873l-7.094-17.873-7.793-15.877L452.086 308h-26.543c-14.599 0-26.543.153-26.543.34 0 .188 2.962 7.05 6.581 15.25 3.62 8.2 9.291 21.66 12.603 29.91 3.311 8.25 8.043 20.4 10.515 27 2.471 6.6 7.38 20.637 10.908 31.192 3.528 10.556 8.833 27.881 11.789 38.5 2.956 10.62 6.983 26.508 8.949 35.308 1.966 8.8 4.472 21.175 5.569 27.5 1.097 6.325 2.764 17.35 3.705 24.5l1.71 13 .24 25.5.242 25.5H508.5l5.72-8.5 5.72-8.5 6.969-14c3.833-7.7 8.744-18.5 10.915-24 2.17-5.5 5.555-14.95 7.522-21 1.967-6.05 4.92-16.4 6.562-23 1.643-6.6 3.874-16.95 4.959-23 1.084-6.05 2.745-17.525 3.69-25.5l1.717-14.5.09-23.5.089-23.5-1.39-14.753c-.764-8.115-1.204-14.938-.976-15.163.227-.225 4.875.34 10.329 1.254l9.915 1.662 2.356 7c1.296 3.85 3.669 12.4 5.274 19 1.604 6.6 3.721 17.175 4.704 23.5l1.786 11.5v50l-1.797 11.5c-.989 6.325-3.079 16.9-4.644 23.5-1.565 6.6-4.266 16.268-6 21.484-1.736 5.216-5.172 14.216-7.638 20-2.465 5.784-6.759 14.791-9.541 20.016-2.783 5.225-8.327 14.45-12.32 20.5-3.993 6.05-10.34 14.825-14.104 19.5-3.763 4.675-11.132 12.934-16.375 18.353-5.243 5.42-13.132 12.9-17.532 16.623-4.4 3.724-12.05 9.66-17 13.192-4.95 3.531-12.051 8.33-15.781 10.662-3.73 2.332-12.12 6.91-18.647 10.174-6.526 3.264-15.4 7.349-19.719 9.077-4.319 1.729-11.903 4.473-16.853 6.1-4.95 1.625-14.92 4.274-22.157 5.886l-13.156 2.93-12.838 1.501L355.512 709l-19.506-.13zm-23.78-106.1 22.274-.27.254-124.597.254-124.596 12.153-.654c6.684-.359 20.006-.653 29.604-.653h17.452l-.59-2.25c-.325-1.238-4.15-11.25-8.5-22.25l-7.909-20-74.109-.256c-40.76-.141-74.109-.047-74.109.209s-1.827 8.921-4.061 19.256-4.318 20.479-4.632 22.541l-.57 3.75H282.882l.799 1.25.799 1.25 1.147 59c.631 32.45 1.691 87.575 2.356 122.5.665 34.925 1.38 64.071 1.589 64.77l.38 1.268 22.274-.269zm579.024 8.624-5.25.675v-1.101c0-.606 1.11-2.557 2.467-4.336 1.357-1.78 3.596-5.787 4.976-8.907l2.508-5.672 2.025-9.934 2.024-9.933v-27.954l-13.25-.454-13.25-.454-6.725-2.608-6.725-2.608-5.915-4.016-5.915-4.017-3.705-4.288c-2.038-2.358-5.018-6.537-6.62-9.287-1.604-2.75-3.878-7.925-5.054-11.5l-2.138-6.5-.46-28-.458-28 1.047-8.55 1.047-8.55 2.078-5.556c1.143-3.055 3.52-7.757 5.284-10.45l3.205-4.894 5.45-5.287 5.45-5.288 8.077-3.966 8.077-3.967 7.83-1.188 7.831-1.188 8.17 1.174 8.169 1.173 8.236 4.06 8.236 4.06 6.279 6.28 6.28 6.278 3.145 5.93c1.73 3.26 3.974 8.629 4.985 11.929l1.839 6v136l-2.325 6.5c-1.28 3.575-3.498 8.525-4.93 11l-2.605 4.5-5.456 5.733-5.456 5.733-4.848 3.11-4.848 3.112-6.766 2.265c-3.721 1.246-9.129 2.57-12.016 2.94zm.053-107.665 8.804-.229-.079-34.45-.078-34.45-1.725-2.946c-.949-1.62-2.974-3.876-4.5-5.014l-2.776-2.069h-10.898l-2.775 2.07-2.776 2.068-2 3.396-2 3.395-.31 26.17-.31 26.17 1.064 3.95 1.063 3.949 2.162 2.748 2.161 2.748 3.085 1.362 3.085 1.362 8.803-.23zm65.947 104.864-5.25.665v-.62c0-.342 1.531-2.627 3.403-5.079l3.403-4.457 1.601-4.822c.881-2.652 2.357-7.963 3.28-11.801l1.679-6.979.368-85.25.37-85.25H1076v93.198l1.623 3.42 1.624 3.421 3.122 2.224 3.122 2.223 7.455.376 7.455.377 3.281-1.767 3.281-1.767 1.769-2.603 1.768-2.602.5-48 .5-48 19.792-.271 19.792-.272-.292 52.522-.292 52.522 8.5-.007 8.5-.007 2.805-1.85c1.543-1.017 3.568-2.926 4.5-4.243l1.695-2.394.5-48 .5-48 19.8-.271 19.8-.272-.3 52.604-.3 52.604 10.672-.333 10.672-.332 2.707-2.5 2.707-2.5 1.37-3.218 1.372-3.218V405H1286.102l-.31 50.75-.311 50.75-.848 1.75-.847 1.75H1305.099l2.7-1.405c1.486-.773 3.826-2.609 5.201-4.08l2.5-2.676.5-97.67.5-97.669h40v197l-1.839 6c-1.011 3.3-3.261 8.7-5 12l-3.161 6-6.611 6.646-6.611 6.645-7.417 3.568-7.417 3.567-4.972 1.062-4.972 1.062-115-.275-115-.275-6-2.4c-3.3-1.319-8.25-3.842-11-5.606l-5-3.207-5.314-5.394-5.314-5.393-3.846-8-3.846-8-1.09-5.3-1.09-5.298V444h-29.913l-.312 60.75-.312 60.75-2.236 5.92c-1.23 3.256-3.332 7.79-4.67 10.074-1.34 2.285-4.508 6.46-7.042 9.278l-4.606 5.124-5.939 3.965-5.938 3.965-6.266 2.051c-3.446 1.128-8.628 2.35-11.516 2.716zm-229.55-4.678-38.2-.085-5.228-1.267-5.228-1.267-6.772-3.315-6.772-3.315-7.03-7.083-7.03-7.083-3.136-6-3.136-6-1.593-6.18-1.594-6.18.26-50.32.259-50.32h39l.5 49 .5 49 1.723 3.148 1.722 3.147 4.343 2.103 4.343 2.102h67.738l4.255-2.06 4.256-2.06 2.06-4.256 2.06-4.255v-14.064l-12.344-.66-12.343-.66-5.407-1.604c-2.973-.882-7.458-2.643-9.965-3.913-2.508-1.27-6.86-4.127-9.672-6.35l-5.113-4.041-4.74-6.642-4.74-6.642-2.57-6.647-2.572-6.646-.327-34.243-.326-34.242 1.572-6.258 1.573-6.257 3.237-6.453 3.237-6.452 6.5-6.551 6.5-6.552 6-3.157c3.3-1.737 8.588-3.905 11.752-4.818l5.751-1.66h17.994l5.751 1.66c3.164.913 8.35 3.039 11.526 4.724l5.774 3.063 5.365 5.155 5.365 5.155 3.462 5.443c1.904 2.994 4.541 8.143 5.86 11.443l2.4 6 .3 66.5.3 66.5-1.113 6.5-1.112 6.5-3.588 7.5-3.587 7.5-7.1 7.1-7.1 7.1-7.5 3.553-7.5 3.553-5.3 1.097-5.298 1.097-38.201-.085zm46.55-107.72.75-.313-.002-33.691-.001-33.691-1.749-3.48-1.748-3.48-3.398-2.27-3.398-2.27h-9.408l-3.398 2.27-3.398 2.27-1.748 3.48-1.749 3.48v56l1.749 3.429 1.748 3.429 2.817 2.07 2.817 2.072 9.683.503c5.326.277 10.02.363 10.433.191zm623.977 54.577-19.273.271-.484-1.271c-.267-.7-.369-55.722-.227-122.272l.257-121 19.754-.271 19.754-.271-.254 122.27-.254 122.272-19.273.272zM1174 372.34l-4.5.53-3-.768c-1.65-.422-4.35-1.48-6-2.35-1.65-.87-4.44-3.082-6.2-4.917l-3.199-3.335-1.55-3.718-1.551-3.718v-11.128l1.375-3.29c.756-1.81 2.851-4.973 4.655-7.028l3.28-3.736 3.595-1.821c1.977-1.002 5.49-2.137 7.808-2.523l4.213-.701 5.287 1.547 5.287 1.547 3.779 3.131 3.779 3.131 2.191 4.154 2.192 4.153v14l-2.177 4.124-2.176 4.124-3.294 2.778c-1.812 1.527-4.644 3.341-6.294 4.03-1.65.69-5.025 1.492-7.5 1.784zm55 .026-4.5.504-3-.768c-1.65-.422-4.36-1.476-6.02-2.342-1.662-.866-4.295-2.848-5.851-4.404-1.557-1.556-3.741-4.616-4.854-6.798l-2.025-3.968v-12.18l2.025-3.968c1.113-2.183 3.3-5.245 4.861-6.806 1.56-1.56 4.419-3.638 6.35-4.617 1.933-.979 5.41-2.095 7.727-2.48l4.213-.702 5.465 1.588 5.465 1.589 4.55 4.55 4.55 4.55 1.522 5.125c.837 2.818 1.522 6.086 1.522 7.261 0 1.175-.662 4.356-1.471 7.068l-1.472 4.932-3.027 3.66-3.028 3.66-4.25 2.022-4.252 2.021-4.5.503zm-504.116-13.388-4.384-.022-4.022-1.827-4.022-1.827-3.38-3.379-3.378-3.379-1.827-4.022-1.827-4.022-.012-5.5-.012-5.5 2.382-5.117 2.383-5.117 3.411-2.602c1.876-1.431 5.06-3.291 7.076-4.133l3.664-1.531 5.282.022 5.282.022 4.022 1.827 4.022 1.827 3.257 3.257c1.792 1.792 3.943 4.584 4.782 6.205l1.524 2.948.583 4.922.583 4.923-1.331 4.774-1.331 4.773-5.056 5.034-5.055 5.034-4.116 1.216-4.116 1.216-4.384-.022zm54.188 0-4.572-.022-4.08-1.853-4.082-1.854-3.63-3.737-3.628-3.737-1.663-4.353-1.662-4.353.43-5.957.431-5.957 2.969-4.801 2.968-4.801 4.83-2.986 4.829-2.986 6.395-.407 6.396-.407 5.399 2.641 5.398 2.641 2.651 3.476c1.458 1.912 3.303 5.036 4.1 6.943l1.449 3.468-.006 4.282c-.003 2.355-.49 6.029-1.083 8.164l-1.078 3.882-4.489 4.798-4.488 4.799-4.606 1.57-4.607 1.569-4.572-.022zm421.482-35.979h-6.054l-4.23-2.094-4.228-2.093-3.146-3.583c-1.73-1.971-3.765-5.064-4.521-6.874l-1.375-3.29.022-5.783.022-5.782 1.853-4.08 1.854-4.082 3.732-3.624 3.732-3.625 5.023-1.668 5.024-1.669 4.8.569 4.801.569 3.819 1.963c2.1 1.08 5.03 3.243 6.51 4.805l2.69 2.842 2.037 4.5 2.037 4.5-.022 4.5-.022 4.5-1.283 3.59c-.706 1.975-2.523 5.215-4.038 7.201l-2.754 3.611-5.115 2.55-5.115 2.548h-6.053z"/><path style="fill:#f9b58a" d="M335.5 708.847c-6.6-.067-16.275-.495-21.5-.95-5.225-.456-12.65-1.331-16.5-1.944-3.85-.614-11.05-2.017-16-3.118-4.95-1.101-14.043-3.549-20.207-5.44-6.164-1.89-16.052-5.467-21.974-7.948-5.922-2.481-15.475-7.003-21.23-10.048-5.753-3.046-14.764-8.319-20.022-11.718-5.259-3.4-14.063-9.76-19.564-14.134-5.502-4.374-14.223-12.024-19.38-17-5.157-4.976-13.16-13.547-17.783-19.047l-8.406-10-8.395-12.5-8.395-12.5-5.526-10.5c-3.04-5.775-6.937-13.875-8.663-18-1.725-4.125-4.667-11.676-6.538-16.78-1.871-5.103-4.748-14.609-6.393-21.124-1.645-6.515-3.996-17.64-5.225-24.721L81.565 478.5l.04-27.5.04-27.5 2.63-14.5 2.63-14.5 3.452-12.5 3.452-12.5 4.302-11c2.366-6.05 7.253-16.85 10.86-24l6.556-13 7.654-11.5c4.21-6.325 10.698-15.325 14.42-20l6.767-8.5 13.077-13 13.077-13 9.989-7.614C186.005 243.7 194.325 237.81 199 234.8c4.675-3.01 12.775-7.765 18-10.566 5.225-2.8 13.65-6.91 18.722-9.13 5.073-2.222 14.073-5.656 20-7.633 5.928-1.976 16.178-4.89 22.778-6.473 6.6-1.585 17.4-3.673 24-4.64l12-1.76 23-.038 23-.037 9 1.286c4.95.708 14.625 2.427 21.5 3.82l12.5 2.535 14.5 4.823 14.5 4.824 11.5 5.27c6.325 2.898 15.775 7.73 21 10.739 5.225 3.008 12.775 7.676 16.777 10.374 4.003 2.698 11.735 8.49 17.184 12.873l9.905 7.968 10.345 10.294 10.344 10.294 7.994 9.94c4.396 5.466 10.626 13.896 13.844 18.733l5.85 8.794-.501.502-.502.502-25.647-3.686c-14.105-2.028-25.856-3.477-26.113-3.22-.257.256.856 6.969 2.473 14.916 1.616 7.947 3.861 21.646 4.989 30.442l2.05 15.992 1.055 20.425 1.056 20.424-1.035 20.057-1.034 20.057-1.46 10.36c-.804 5.698-1.67 10.57-1.926 10.825-.256.256-.697-.356-.98-1.36-.283-1.004-1.501-6.325-2.707-11.825-1.206-5.5-4.152-17.481-6.546-26.625-2.394-9.144-6.365-23.094-8.824-31-2.46-7.906-6.681-20.45-9.381-27.875-2.7-7.425-7.254-19.182-10.118-26.127-2.865-6.945-8.445-19.095-12.4-27L452.5 308.5l-26.75-.266-26.75-.267v.906c0 .498 2.29 6.018 5.088 12.266 2.799 6.249 8.39 19.461 12.426 29.361 4.035 9.9 9.411 23.576 11.946 30.391 2.536 6.815 7.082 19.755 10.104 28.756 3.022 9 8.132 25.495 11.355 36.655 3.223 11.16 7.471 27.47 9.44 36.244 1.969 8.775 4.698 22.352 6.065 30.172s3.245 20.42 4.172 28l1.686 13.782.062 23.75.062 23.75H508.795l5.61-8.66c3.085-4.763 8.489-14.326 12.007-21.25 3.52-6.925 8.083-16.64 10.141-21.59 2.059-4.95 5.501-14.175 7.65-20.5 2.148-6.325 5.443-17.35 7.32-24.5l3.414-13 2.47-14.5c1.359-7.975 3.05-19.45 3.76-25.5l1.29-11-.016-28-.015-28-1.267-10.862c-.697-5.975-1.05-11.081-.783-11.348.267-.266 4.564.073 9.55.754l9.064 1.239.872 1.108c.48.61 1.812 4.034 2.96 7.609 1.15 3.575 3.05 10.325 4.226 15 1.175 4.675 2.967 13.323 3.982 19.217 1.015 5.895 2.381 17.145 3.035 25l1.19 14.283-.665 13.48c-.365 7.415-1.343 18.665-2.172 25-.83 6.336-2.574 16.245-3.876 22.02-1.303 5.775-4.037 15.675-6.075 22-2.039 6.325-5.282 15.325-7.208 20-1.925 4.675-5.297 12.1-7.493 16.5-2.195 4.4-6.827 12.725-10.293 18.5-3.465 5.775-9.377 14.626-13.137 19.668-3.76 5.043-10.767 13.64-15.57 19.104l-8.735 9.936-10.266 9.086c-5.646 4.997-13.19 11.282-16.765 13.967-3.575 2.685-9.875 7.147-14 9.916-4.125 2.768-11.638 7.364-16.696 10.211-5.057 2.848-13.744 7.195-19.304 9.66-5.56 2.465-15.372 6.306-21.804 8.534l-11.696 4.052-12 2.843c-6.6 1.563-15.15 3.342-19 3.952-3.85.61-12.4 1.543-19 2.074l-12 .965-12-.121zM312.14 603h22.852l.254-124.75.254-124.75 29.5-.863c16.225-.475 29.597-.946 29.715-1.048.118-.102-3.772-10.29-8.646-22.637l-8.86-22.452-73.623-.256-73.623-.257-.977 2.257c-.538 1.24-2.974 11.686-5.413 23.212l-4.436 20.956.49.794.491.794H283.736l.663 22.25c.365 12.238 1.312 56.45 2.105 98.25.793 41.8 1.744 87.813 2.113 102.25l.672 26.25h22.852zm577.69 8h-4.067l2.68-3.513c1.473-1.932 3.82-6.095 5.216-9.25l2.537-5.737 1.933-8.5 1.933-8.5.613-15.6.613-15.6-12.894-.526-12.894-.526-7.264-2.528-7.263-2.53-4.85-3.111-4.85-3.113-5.527-5.793-5.526-5.793-3.12-6.183-3.122-6.183-1.489-5.717L831 496.58v-65.16l1.531-5.878 1.531-5.88 3.18-6.08 3.178-6.082 7.04-7 7.041-7 6.5-3.112 6.499-3.113 5.5-1.3 5.5-1.302h14l5.5 1.301 5.5 1.301 6.5 3.113 6.499 3.112 7.121 7 7.121 7 3.14 6.243 3.14 6.243 1.49 5.717L940 431.42l-.012 66.54-.012 66.54-1.451 5.455c-.799 3-2.8 8.175-4.447 11.5l-2.995 6.045-4.554 5.176-4.554 5.175-6.08 4.06-6.08 4.06-7.96 2.515-7.958 2.514h-4.067zm1.404-107H901v-67.369l-2-4.131-2-4.132-3.886-2.184-3.886-2.184h-7.456l-3.886 2.184-3.886 2.184-2 4.132-2 4.131v54.945l2.25 4.388 2.25 4.388 3.484 1.824L881.47 504h9.765zm65.534 104.345-3.731.523-.508-.82-.507-.821 1.625-1.349c.894-.742 2.619-2.93 3.834-4.863 1.214-1.933 2.949-5.765 3.854-8.515.905-2.75 2.177-7.25 2.828-10l1.182-5 .577-86 .578-86 54.75-.259 54.75-.258v94.116l1.405 2.7c.773 1.486 2.46 3.681 3.75 4.88l2.345 2.178 4.781 1.198 4.781 1.198 4.583-.516 4.583-.517 2.636-1.919 2.636-1.918 2.25-4.403 2.25-4.404V405h39.086l-.37 50.75c-.202 27.913-.559 51.65-.792 52.75l-.424 2h18.36l2.82-2.059 2.82-2.058 2.25-4.403 2.25-4.404V405h39.086l-.37 50.75c-.202 27.913-.559 51.65-.792 52.75l-.424 2 8.85.29 8.852.29 4.316-2.089 4.316-2.09 1.833-2.7 1.833-2.701.5-48 .5-48 19.25-.272 19.25-.271.018 1.271c.01.7-.037 23.097-.104 49.772-.067 26.675-.188 49.85-.268 51.5l-.146 3 10.546-.039 10.545-.038 3.455-1.985 3.454-1.984 2.25-4.439 2.25-4.439V306h39v196.58l-1.49 5.717-1.488 5.717-3.144 6.228-3.144 6.228-6.458 6.689-6.457 6.688-6.902 3.627-6.903 3.627-6.757 1.432-6.757 1.432-110.5.003-110.5.003-6.447-1.52-6.447-1.519-6.553-3.216-6.553-3.215-6.536-6.5-6.536-6.5-3.113-6c-1.712-3.3-3.914-8.25-4.893-11l-1.78-5-.571-31-.571-31h-29l-.539 60-.538 60-1.798 5.5c-.989 3.025-3.386 8.367-5.328 11.872l-3.531 6.371L989 592.92l-5.765 5.676-5.868 3.114-5.868 3.113-5.5 1.5c-3.025.825-7.18 1.735-9.232 2.023zM731.5 603.607l-38 .232-5.153-.897c-2.835-.494-7.666-1.838-10.736-2.986l-5.582-2.089-5.998-4.005-5.998-4.005-4.006-4.679c-2.203-2.573-5.375-7.245-7.05-10.381-1.674-3.137-3.792-7.862-4.706-10.5l-1.662-4.797-.355-51.771-.354-51.772 19.8.272 19.8.271.5 49.045.5 49.045 1.804 2.753 1.805 2.752 3.195 1.949 3.196 1.949h72l3.26-1.988 3.258-1.987 1.987-3.259 1.988-3.259.004-8.75L775 536h-20.728l-5.386-1.015-5.386-1.015-7.372-3.493-7.37-3.493-7.202-7.242-7.201-7.242-3.119-6.292-3.119-6.292-1.643-7.386-1.643-7.386.381-32.322.381-32.322 2.553-6.679c1.405-3.673 4.01-8.948 5.79-11.722l3.237-5.044 6.004-5.559 6.005-5.56 5.739-2.896 5.738-2.897 6.065-1.572 6.064-1.571 6.856.015 6.856.015 6.406 1.51 6.407 1.51 6.055 3.225 6.054 3.225 5.773 5.343 5.773 5.343 3.428 5.657 3.428 5.657 2.338 6.5 2.338 6.5v136l-1.84 6c-1.01 3.3-3.26 8.7-5 12l-3.16 6-6.088 6.024-6.088 6.025-5.912 3.13c-3.252 1.722-8.387 3.933-11.412 4.914l-5.5 1.783-38 .231zm35.286-106.693 8.286.086-.286-35.75-.286-35.75-2-2.735-2-2.736-4.066-2.014L762.37 416h-4.738l-4.278 2.071-4.278 2.07-2.037 3.298-2.038 3.297.007 29.882.007 29.882 1.85 2.805c1.017 1.543 2.845 3.503 4.062 4.355 1.217.852 3.419 1.914 4.894 2.359l2.68.81 8.287.085zM1398.504 550H1379V305.957l19.25.271 19.25.272.254 121.75.254 121.75h-19.504zm-226.793-178h-5.352l-5.43-2.75-5.429-2.75-3.193-4.777-3.193-4.778-.658-4.392-.659-4.392.694-4.105.693-4.106 3.158-4.688 3.158-4.689 5.364-2.786 5.364-2.787h10.836l3.718 1.55 3.718 1.551 3.338 3.2 3.337 3.199 2.038 3.955 2.037 3.955v12.18l-2.037 3.955-2.038 3.955-3.337 3.2-3.338 3.199-3.718 1.55-3.718 1.551h-5.353zm54.571-.04-5.782-.038-3-1.31c-1.65-.722-4.527-2.598-6.393-4.17l-3.393-2.86-2.347-5.041-2.347-5.04v-10l2.36-5.072 2.362-5.07 3.685-3.038 3.686-3.038 3.81-1.141 3.809-1.142h9.332l3.29 1.375c1.81.756 5.017 2.89 7.126 4.741l3.834 3.367 1.821 4.009 1.821 4.008v12l-1.856 4-1.856 4-3.372 3.2-3.372 3.199-3.718 1.55-3.718 1.551-5.782-.039zM725.57 358.899c-1.138-.057-3.419-.431-5.069-.833-1.65-.402-4.35-1.44-6-2.308-1.65-.868-4.186-2.856-5.636-4.418-1.45-1.561-3.37-4.294-4.267-6.072l-1.63-3.233-.618-4.502-.617-4.503 1.329-4.765 1.328-4.764 5.056-5.034 5.055-5.034 4.116-1.216 4.116-1.216 3.884.022 3.884.022 4.5 2.037 4.5 2.037 2.842 2.691c1.562 1.48 3.646 4.266 4.63 6.191.983 1.925 2.104 5.396 2.49 7.713l.701 4.213-1.632 5.614-1.631 5.613-4.358 4.357-4.357 4.358-5.274 1.566c-2.9.861-6.205 1.52-7.343 1.464zm54.022 0c-1.15-.057-3.441-.431-5.091-.833-1.65-.402-4.35-1.44-6-2.308-1.65-.868-4.186-2.856-5.636-4.418-1.45-1.561-3.37-4.294-4.267-6.072l-1.63-3.233-.618-4.502-.617-4.503 1.329-4.765 1.328-4.764 5.056-5.034 5.055-5.034 4.116-1.216 4.116-1.216 3.884.022 3.884.022 4.5 2.037 4.5 2.037 2.842 2.691c1.562 1.48 3.781 4.491 4.93 6.691l2.088 4 .026 6.56.026 6.562-2.728 4.655-2.729 4.655-3.432 2.618-3.433 2.619-4.704 1.415c-2.587.779-5.645 1.37-6.795 1.314zm420.793-35.942-3.884-.044-3.648-1.303c-2.006-.717-4.888-2.279-6.405-3.472-1.516-1.193-3.817-3.606-5.113-5.362l-2.355-3.192-.984-3.542c-.541-1.947-.976-5.341-.967-7.541l.016-4 2.04-4.5c1.122-2.475 3.017-5.54 4.21-6.812 1.195-1.272 3.588-3.188 5.32-4.258l3.147-1.946 4.62-.863 4.619-.863 4.535.848 4.536.847 4.252 2.925 4.252 2.926 2.592 4.848 2.591 4.848.676 3.804.676 3.803-1.645 5.697-1.645 5.696-4.667 4.519-4.667 4.519-4.11 1.23-4.108 1.232-3.884-.044z"/><path style="fill:#f8a673" d="M343.608 708.41c-8.86.213-18.133.218-20.608.011-2.475-.207-9.225-.878-15-1.491-5.775-.614-15.779-2.214-22.231-3.556-6.452-1.342-16.31-3.8-21.906-5.463-5.596-1.662-14.492-4.737-19.769-6.832-5.277-2.095-13.869-5.885-19.094-8.423-5.225-2.537-13.441-6.985-18.259-9.884-4.817-2.9-12.832-8.158-17.81-11.686-4.979-3.527-13.942-10.616-19.918-15.752l-10.866-9.339-7.575-8.32c-4.166-4.577-10.082-11.439-13.147-15.248-3.064-3.81-8.87-11.877-12.903-17.927-4.033-6.05-9.295-14.6-11.693-19-2.398-4.4-6.327-12.26-8.732-17.467-2.404-5.206-6.105-14.325-8.223-20.263-2.118-5.938-5.17-16.078-6.78-22.533-1.612-6.455-3.629-16.012-4.482-21.237-.854-5.225-2.016-14.16-2.582-19.856L81 463.788v-24.576l1.041-10.356c.573-5.696 1.916-15.543 2.986-21.884l1.944-11.527 3.493-12.744 3.493-12.744 4.498-11.504c2.474-6.327 7.414-17.23 10.977-24.229l6.48-12.724 6.863-10.5c3.776-5.775 10.583-15.155 15.128-20.845l8.263-10.344 10.322-10.323 10.323-10.322 10.344-8.263c5.69-4.545 15.07-11.353 20.845-15.13l10.5-6.866 13.5-6.832 13.5-6.832 12.471-4.718 12.471-4.718 13.53-3.413 13.528-3.412 14-2.144 14-2.144 22-.031 22-.031 12 1.74c6.6.957 16.763 2.81 22.585 4.117 5.821 1.306 16.307 4.237 23.3 6.513 6.995 2.275 17.603 6.297 23.574 8.936 5.97 2.64 14.804 6.951 19.63 9.581 4.825 2.63 13.979 8.272 20.342 12.537 6.363 4.264 15.845 11.333 21.072 15.709l9.502 7.955 11.226 11.677 11.225 11.677 9.279 12.358c5.103 6.796 10.351 14.267 11.663 16.6l2.385 4.244-3.392-.628c-1.865-.345-12.616-1.98-23.891-3.635-11.275-1.654-21.789-3.009-23.363-3.01l-2.864-.003.48 2.75c.264 1.512 1.879 10.175 3.588 19.25 1.71 9.075 3.844 22.575 4.744 30l1.636 13.5.506 28.557.506 28.556-1.68 18.107c-.924 9.958-2.033 19.383-2.466 20.943l-.787 2.837-1.213-6c-.668-3.3-3.434-14.864-6.148-25.697-2.714-10.834-7.166-27.034-9.892-36-2.726-8.967-6.775-21.378-8.996-27.581-2.221-6.204-6.317-17.004-9.102-24-2.785-6.997-8.939-20.71-13.676-30.472L452.66 308H398v.529c0 .29 1.299 3.103 2.887 6.25 1.587 3.146 6.025 13.146 9.862 22.221 3.837 9.075 10.239 25.04 14.227 35.478 3.987 10.438 10.087 27.538 13.554 38 3.468 10.462 8.129 25.322 10.359 33.022 2.23 7.7 5.834 21.2 8.008 30 2.175 8.8 5.09 21.85 6.478 29 1.389 7.15 3.518 19.975 4.733 28.5l2.207 15.5.377 27.5.376 27.5 18.974.272 18.975.271 5.37-8.271c2.954-4.55 7.426-12.097 9.938-16.772 2.512-4.675 6.821-13.565 9.575-19.756 2.754-6.192 7.082-17.217 9.618-24.5 2.535-7.284 6.134-19.094 7.997-26.244 1.863-7.15 4.28-17.725 5.374-23.5 1.093-5.775 2.786-16.125 3.763-23l1.775-12.5-.002-33.5-.002-33.5-1.205-8.423c-.663-4.633-1.01-8.62-.77-8.86.24-.24 4.589.274 9.663 1.142l9.226 1.58.662.78c.364.43 1.869 4.831 3.343 9.781 1.475 4.95 3.785 13.95 5.134 20 1.349 6.05 3.176 16.4 4.06 23l1.607 12 .009 20 .009 20-1.626 12c-.893 6.6-2.303 15.375-3.133 19.5-.83 4.125-2.877 12.45-4.55 18.5l-3.04 11-4.98 12.737c-2.739 7.006-7.467 17.567-10.507 23.47-3.04 5.902-8.14 14.889-11.334 19.97-3.194 5.08-9.11 13.626-13.149 18.99l-7.342 9.752-12.498 12.92-12.5 12.92-10 8.058C494 655.749 484.1 662.912 477.5 667.235l-12 7.86-11.5 5.84c-6.325 3.213-16.675 7.863-23 10.335-6.325 2.473-15.55 5.67-20.5 7.108-4.95 1.436-13.05 3.493-18 4.57-4.95 1.078-14.351 2.66-20.892 3.517l-11.892 1.559-16.108.387zM311.996 603h22.996l.254-124.75.254-124.75 29.324-.658c16.129-.361 29.558-.89 29.843-1.176l.52-.52-8.88-22.323-8.88-22.323H228.59l-4.738 22c-2.606 12.1-4.764 22.788-4.795 23.75L219 354H283.063l.419 1.25c.23.688 1.133 37.925 2.006 82.75.873 44.825 2.008 99.95 2.52 122.5.513 22.55.946 41.337.962 41.75l.03.75h22.996zm577.19 8c-1.202 0-2.186-.268-2.186-.596 0-.327.924-1.893 2.053-3.479 1.13-1.586 3.328-5.705 4.886-9.154l2.832-6.271 1.838-8 1.838-8 .027-16 .026-16-14-.597-14-.598-5.646-2.185c-3.105-1.202-8.284-3.89-11.508-5.975l-5.863-3.789-4.204-4.776c-2.312-2.627-5.378-6.78-6.812-9.227-1.434-2.447-3.565-7.015-4.735-10.151l-2.127-5.702-.374-33.248-.375-33.247 2.077-8.212 2.077-8.212 3.245-5.487 3.245-5.488 6.09-6.162 6.09-6.161 6.455-3.178c3.55-1.748 8.91-3.831 11.91-4.63l5.455-1.451h16l5.455 1.451c3 .799 8.175 2.8 11.5 4.447l6.045 2.995 5.14 4.523 5.142 4.524 3.818 5.753 3.819 5.753 2.54 6.515 2.541 6.515.29 67.173.29 67.174-1.558 6.713-1.557 6.713-3.58 6.813-3.58 6.814-5.838 5.892-5.837 5.892-6.815 3.543-6.815 3.544-6.564 1.614c-3.61.888-7.548 1.615-8.75 1.615zm3.314-106.275 8-.225.26-34.5.262-34.5-1.863-3.5-1.862-3.5-3.296-2.25-3.297-2.25h-10.408l-3.297 2.25-3.296 2.25-1.851 3.484L870 435.47v56.595l1.362 3.218c.75 1.77 2.294 4.048 3.434 5.063 1.14 1.015 3.789 2.466 5.888 3.225l3.816 1.38 8-.225zM956.312 608h-3.325l2.974-4.105 2.974-4.105 2.04-5.451c1.121-2.998 2.77-9.138 3.664-13.645l1.624-8.194.448-83.759.447-83.758 54.171.258 54.171.259v94l2.288 3.679 2.287 3.68 4.278 2.07 4.278 2.071h12.073l3.306-2.25c1.818-1.238 4.248-3.52 5.398-5.072l2.092-2.822.5-47.678.5-47.678h38v96l-.811 4.75-.811 4.75h17.826l3.306-2.25c1.818-1.238 4.247-3.52 5.398-5.072l2.092-2.822.5-47.678.5-47.678h38v97l-.838 4.25-.838 4.25 9.838-.002 9.838-.002 3.429-1.748 3.429-1.749 2.07-2.822 2.072-2.823.5-48.177.5-48.178 19.314-.272 19.313-.272-.313 53.123-.314 53.122 11.183-.355 11.184-.356 2.755-2.057c1.515-1.13 3.682-3.299 4.816-4.818l2.062-2.76.5-97.178.5-97.177h38v199l-2.312 6.69-2.311 6.691-3.765 5.825-3.765 5.825-5.776 5.147-5.775 5.148-6.373 3.137-6.373 3.138-7.842 1.479-7.842 1.479-110.933-.29-110.933-.29-5.5-1.85c-3.025-1.017-7.3-2.751-9.5-3.853-2.2-1.102-6.332-3.784-9.182-5.96l-5.182-3.954-4.246-5.624-4.247-5.624-3.071-7.057-3.072-7.056-.5-32.5-.5-32.5h-31l-.5 61.5-.5 61.5-1.734 4.33c-.953 2.38-3.141 6.97-4.862 10.199l-3.129 5.87-6.173 5.928-6.174 5.928-5.964 3.01c-3.28 1.656-8.408 3.736-11.396 4.623L959.637 608h-3.325zM728 602.899l-40.5-.078-4.5-1.267c-2.475-.696-6.183-1.981-8.239-2.854-2.056-.874-5.662-2.912-8.012-4.529-2.35-1.617-6.293-5.018-8.761-7.558l-4.488-4.618-3.644-6.003-3.643-6.002-1.857-7.245-1.856-7.245v-99l19.25-.272 19.25-.271.006 46.771.006 46.772.985 3.544.984 3.545 3.26 3.114 3.26 3.115 4 1.085 4 1.086 30.807.006 30.807.006 4.431-1.116 4.431-1.116 3.429-3.795 3.429-3.795.662-5.34c.365-2.936.515-7.138.333-9.338l-.33-4-13-.612-13-.612-7.101-2.486-7.102-2.487-5.398-3.591c-2.97-1.976-7.057-5.306-9.086-7.402-2.028-2.096-5.307-6.511-7.287-9.811l-3.599-6-1.963-6.355-1.964-6.356.026-34.644.026-34.645 2.235-6.558 2.236-6.558 3.488-5.799 3.489-5.799 5.25-4.82 5.251-4.82 5.42-3.101 5.42-3.101 8.303-2.1 8.302-2.1 7.527.525 7.527.524 6.5 2.196 6.5 2.196 6.722 4.466 6.722 4.465 4.017 4.692c2.21 2.58 5.358 7.204 6.997 10.273l2.98 5.582 1.53 5.879L814 423.42l-.012 67.04-.012 67.04-1.429 5.369c-.786 2.952-2.683 7.902-4.216 11l-2.787 5.631-7.522 7.525-7.522 7.525-6 2.88c-3.3 1.584-8.25 3.48-11 4.213l-5 1.333-40.5-.077zm38-106.21 9.5-.189v-69l-2.056-3.5-2.055-3.499-3.945-2.292-3.944-2.293-4.622.383-4.622.383-3.245 2.31-3.244 2.31-1.862 4.1-1.861 4.098v54l1.861 4.099 1.862 4.099 2.866 2.008c1.577 1.105 3.542 2.27 4.367 2.59l1.5.581 9.5-.188zM1398 550h-19.008l.254-121.75.254-121.75h37l.254 121.75.254 121.75H1398zm-226.616-178.044-3.884-.044-3.664-1.308c-2.015-.72-4.986-2.388-6.603-3.707-1.616-1.318-3.892-3.833-5.057-5.589l-2.118-3.191-1.169-4.644-1.17-4.643 1.24-5.539 1.24-5.539 5.15-5.28 5.151-5.28 4-1.09c2.2-.6 5.8-1.089 8-1.087l4 .004 5.04 2.348 5.042 2.347 2.86 3.393c1.574 1.866 3.468 4.84 4.21 6.61l1.348 3.219v11.432l-2.088 4.313-2.088 4.313-3.904 3.343-3.905 3.342-3.873 1.16-3.874 1.16-3.884-.043zm54.98.022-5.136.022-5.364-2.787-5.364-2.786-3.193-4.741-3.193-4.74-.658-4.393-.659-4.392.676-4.003.677-4.002 2.847-4.49 2.848-4.49 4.53-2.656 4.53-2.655 5.404-.557 5.403-.558 3.565 1.176c1.96.648 5.434 2.53 7.718 4.185l4.152 3.008 2.417 5.19 2.417 5.191v10l-2.358 5-2.358 5-2.383 2.188c-1.31 1.203-4.407 3.106-6.882 4.228l-4.5 2.04-5.136.022zM725.79 357.972l-6.29-.028-4.5-2.297-4.5-2.297-3.173-4.152-3.173-4.152-1.198-5.352-1.198-5.351 1.63-5.605 1.63-5.605 2.596-3.086 2.597-3.086 4.144-2.385 4.145-2.384 4.213-.678 4.213-.677 5.287 1.547 5.287 1.547 3.626 3.005 3.626 3.005 2.124 4.519 2.124 4.518-.022 5.761-.022 5.76-1.931 4.255-1.931 4.254-2.797 2.599c-1.538 1.43-4.467 3.452-6.507 4.496L732.08 358l-6.29-.028zm54.21-.01-6.5-.018-4.5-2.297-4.5-2.297-3.173-4.152-3.173-4.152-1.198-5.351-1.198-5.352 1.671-5.748 1.671-5.748 4.374-4.373 4.373-4.373 5.748-1.671 5.748-1.671 5.351 1.197 5.352 1.198 4.152 3.173 4.152 3.173 2.297 4.5 2.297 4.5.018 6.5.02 6.5-3.004 5.237-3.004 5.238-5.237 3.003-5.237 3.004-6.5-.02zm422.855-35.514-5.355.49-2.506-.817c-1.379-.45-3.854-1.52-5.5-2.38-1.647-.859-4.18-2.84-5.63-4.401-1.45-1.562-3.324-4.205-4.164-5.874-.84-1.67-1.84-4.695-2.22-6.723l-.692-3.689 1.201-5.008 1.202-5.009 2.813-3.883 2.813-3.883 5.288-2.636 5.288-2.635 5.553.022 5.554.022 4 1.856 4 1.856 3.2 3.372 3.199 3.372 1.55 3.718 1.551 3.718v11.131l-2.485 4.905-2.486 4.904-3.264 2.437c-1.796 1.34-4.23 2.933-5.41 3.54l-2.145 1.105-5.355.49z"/><path style="fill:#f68f4e" d="m336.29 707.892-19.79-.109-10.792-1.306c-5.936-.718-15.386-2.288-21-3.488-5.615-1.2-15.383-3.75-21.708-5.664-6.325-1.915-16.45-5.501-22.5-7.969-6.05-2.467-15.725-6.976-21.5-10.018-5.775-3.042-15-8.47-20.5-12.062-5.5-3.592-13.825-9.492-18.5-13.111l-8.5-6.58-12.36-12.043-12.36-12.042-8.077-10c-4.443-5.5-11.591-15.364-15.886-21.92l-7.807-11.92-6.918-14.08c-3.805-7.744-8.558-18.517-10.562-23.94-2.005-5.423-5.158-15.38-7.008-22.128l-3.362-12.269-2.107-12.371-2.106-12.372-1.162-15.41-1.162-15.41 1.193-15.59 1.192-15.59 2.017-12c1.11-6.6 3.382-17.13 5.05-23.4 1.667-6.27 4.852-16.395 7.077-22.5l4.046-11.1 6.368-13 6.369-13 6.435-10.213c3.539-5.618 9.697-14.554 13.684-19.859l7.25-9.645 11.598-12.032L164.5 261.72l9.5-7.968 9.5-7.967 13.207-8.782 13.207-8.781 14.293-7.033 14.293-7.034 12.5-4.485 12.5-4.485 12.5-3.063c6.875-1.686 17.45-3.861 23.5-4.836l11-1.771 27.5-.007 27.5-.007 10.827 1.824c5.955 1.003 16.08 3.112 22.5 4.688 6.42 1.575 17.073 4.715 23.673 6.979l12 4.115 16 7.842 16 7.842 12 8.02c6.6 4.41 15.825 11.076 20.5 14.813 4.675 3.737 13.484 11.763 19.576 17.836l11.077 11.041 8.345 10.5c4.59 5.775 10.518 13.82 13.174 17.878 2.655 4.058 4.828 7.729 4.828 8.157v.778l-1.75-.43c-.962-.236-12.541-1.98-25.73-3.876l-23.98-3.446-.737.736-.735.735 1.43 5.484c.788 3.016 2.558 12.009 3.934 19.984 1.377 7.975 3.29 21.25 4.253 29.5l1.75 15-.037 32.5-.037 32.5-1.716 12.952c-.944 7.124-1.866 13.102-2.05 13.286-.182.183-1.319-4.07-2.524-9.453-1.206-5.382-4.39-18.11-7.074-28.285-2.685-10.175-6.99-25.25-9.567-33.5s-7.38-22.2-10.672-31c-3.293-8.8-8.87-22.525-12.393-30.5-3.523-7.975-8.551-18.55-11.173-23.5l-4.767-9H398.5l.159 1.5c.087.825 2.936 7.8 6.33 15.5 3.395 7.7 8.201 18.95 10.68 25 2.48 6.05 8.015 20.45 12.3 32 4.287 11.55 9.84 27.3 12.34 35 2.5 7.7 6.356 20.3 8.567 28 2.211 7.7 5.588 20.3 7.504 28 1.916 7.7 4.87 21.105 6.565 29.788 1.694 8.684 4.066 23.084 5.27 32l2.19 16.212.047 25.75.048 25.75 1 .025c.55.014 9.267.034 19.372.045 10.105.01 18.49-.113 18.633-.275.144-.162 2.843-4.272 5.998-9.132l5.737-8.837 6.803-13.663c3.741-7.515 8.584-18.163 10.76-23.663 2.177-5.5 5.552-14.95 7.501-21 1.949-6.05 4.896-16.4 6.55-23 1.654-6.6 3.922-17.175 5.04-23.5 1.12-6.325 2.786-17.8 3.705-25.5l1.67-14-.054-26-.054-26-1.382-11.814-1.382-11.813.552-.322c.303-.176 4.68.363 9.725 1.199l9.174 1.52 2.561 8.214c1.41 4.518 3.664 12.895 5.012 18.616 1.348 5.72 3.263 15.575 4.257 21.9l1.806 11.5-.037 26-.037 26-2.23 13c-1.227 7.15-3.783 18.922-5.68 26.16-1.897 7.237-5.1 17.587-7.118 23-2.018 5.412-6.04 14.884-8.936 21.048-2.897 6.164-8.329 16.29-12.07 22.5l-6.803 11.292-9.025 12-9.024 12-12.512 12.566c-6.882 6.91-15.887 15.277-20.012 18.59-4.125 3.315-10.65 8.25-14.5 10.97-3.85 2.718-10.052 6.856-13.781 9.194-3.73 2.338-12.11 6.915-18.623 10.172-6.513 3.258-16.286 7.687-21.719 9.843-5.432 2.156-13.702 5.072-18.377 6.48-4.675 1.408-11.65 3.289-15.5 4.179-3.85.89-10.375 2.247-14.5 3.016-4.125.769-11.87 1.868-17.21 2.444L356.078 708l-19.79-.108zM311.911 604h22.874l.615-1.602.614-1.602-.028-123.148-.028-123.148 5.77-.574c3.174-.316 16.121-.68 28.771-.81l23-.235.91-.9.91-.9-8.84-22.547-8.84-22.547-74.524.257-74.525.256-1.29 5.5c-.71 3.025-3.023 13.375-5.142 23-2.118 9.625-3.67 17.838-3.446 18.25l.405.75h63.76l.495 4.25c.272 2.338.974 30.125 1.56 61.75.587 31.625 1.548 84.95 2.136 118.5.589 33.55 1.272 62.013 1.52 63.25l.45 2.25h22.873zm579.338 6.428-4.25.596v-.579c0-.318 1.11-2.034 2.467-3.813 1.357-1.78 3.596-5.787 4.976-8.907l2.508-5.672 2.025-9.934 2.024-9.933v-28.959l-13.75-.448-13.75-.448-6.76-2.624-6.76-2.625-4.74-3.254c-2.607-1.789-6.82-5.418-9.364-8.065l-4.623-4.812-3.038-5.725c-1.67-3.15-3.865-8.426-4.876-11.726l-1.839-6v-67l1.838-5.957c1.011-3.277 2.93-8.113 4.266-10.748l2.428-4.791 6.492-6.883 6.493-6.882 6.845-3.597 6.844-3.597 6.397-1.508 6.397-1.507h12l6.26 1.476 6.26 1.476 5.795 2.924 5.794 2.925 4.407 3.682c2.424 2.026 6.265 6.075 8.536 8.999l4.128 5.316 2.238 5.203 2.239 5.204 1.468 7.042 1.468 7.043-.327 65.09-.328 65.09-1.812 5.5c-.997 3.025-3.211 7.975-4.92 11l-3.109 5.5-4.978 5.287-4.979 5.287-5.57 3.375-5.57 3.376-6.5 2.003c-3.575 1.102-8.412 2.272-10.75 2.6zm.5-105.467L901 505v-70.1l-1.464-2.83c-.805-1.558-2.798-3.954-4.429-5.326l-2.964-2.495-3.634-.681-3.634-.682-3.687 1.18-3.688 1.18-2.345 2.127c-1.29 1.17-3.09 3.477-4 5.127l-1.655 3v55l.75 2.673.75 2.673 2.7 3.21 2.7 3.209 3.05 1.328 3.05 1.329 9.25.039zm65.91 102.614-4.84.68 3.58-4.692 3.582-4.692 2.03-6.686c1.117-3.677 2.535-9.16 3.153-12.185l1.122-5.5.409-84.259.408-84.258 54.198.258 54.198.259-.296 46-.296 46 2.296 3.906 2.296 3.906 2.823 2.094 2.822 2.094 8.178.333 8.177.332 3.398-2.332 3.399-2.333 1.851-3.484 1.852-3.485V406h38.1l-.3 52.5-.3 52.5h18.204l3.297-2.25 3.296-2.25 1.851-3.484 1.852-3.485v-93.574l19.038.271 19.039.272-.057 48.44-.057 48.438-.624 3.9-.624 3.901 11.59-.34 11.589-.339 3.562-3.456 3.563-3.455.985-3.545.984-3.544.01-45.25.01-45.25H1285.111l-.362 50.25-.362 50.25-.806 2.25-.806 2.25h22.461l3.636-2.068 3.636-2.067 2-2.683 2-2.682.265-97.25.264-97.25h39.045l-.306 98.75-.306 98.75-1.826 5.5c-1.005 3.025-3.246 8.2-4.981 11.5l-3.155 6-6 6-6 6-6.081 3.219-6.082 3.219-5.878 1.53-5.879 1.532h-225.481l-5.3-1.125-5.299-1.125-6.5-3.125-6.499-3.125-7.12-7-7.122-7-3.138-6.24-3.14-6.24-1.475-6.26-1.476-6.26-.015-29.275-.015-29.276-15.75.276-15.75.275-.515 61-.514 61-2.24 5.92c-1.232 3.256-3.318 7.756-4.635 10-1.317 2.244-4.253 6.19-6.525 8.767l-4.13 4.687-5.954 3.976-5.955 3.976-6.266 2.035c-3.446 1.119-8.444 2.34-11.107 2.714zm-229.96-4.658-38.2-.084-5.866-1.42-5.866-1.42-6.134-3.22-6.134-3.22-6.527-6.526-6.526-6.527-3.14-6-3.139-6-1.584-6.144L643 556.21V456h38l.016 48.25.017 48.25 2.238 4 2.237 4 4.458 2.25 4.458 2.25h68.152l4.462-2.25 4.462-2.25 2.25-4.462 2.25-4.462V536.31l-12.75-.622-12.75-.621-5.5-1.643c-3.025-.904-7.3-2.545-9.5-3.647-2.2-1.102-6.42-3.852-9.38-6.112l-5.38-4.107-4.88-6.951-4.882-6.95-2.489-7.88-2.489-7.88v-66.793l2.476-7.801 2.476-7.802 3.706-5.481c2.039-3.015 5.885-7.57 8.548-10.124l4.843-4.642 5.725-3.038 5.726-3.038 5.95-1.717 5.95-1.718 9.05.056 9.05.057 6.572 2.058 6.572 2.057 6.022 3.893c3.312 2.14 7.71 5.58 9.772 7.641 2.062 2.063 5.215 6.055 7.006 8.873 1.792 2.818 4.337 7.823 5.657 11.123l2.399 6 .29 67.675.289 67.674-1.56 6.722-1.558 6.723-3.195 6.103-3.195 6.103-6.698 6.67-6.697 6.67-7.338 3.483-7.338 3.483-5.3 1.097-5.298 1.097-38.201-.083zM765.697 497h10.4l-.298-35.428-.298-35.429-2.092-2.821c-1.15-1.552-3.58-3.835-5.398-5.072l-3.306-2.25h-9.408l-3.306 2.25c-1.818 1.238-4.247 3.52-5.398 5.073l-2.092 2.824v60.706l2.092 2.824c1.15 1.552 3.58 3.835 5.398 5.073l3.306 2.25h10.4zm632.97 53h-18.333l-.666-.667-.667-.666V307h38v243h-18.333zm-227.575-178.086c-1.425-.047-3.719-.429-5.097-.848-1.379-.42-3.9-1.483-5.602-2.363l-3.095-1.6-3.043-3.466-3.042-3.465-1.216-3.685-1.216-3.685.406-6.38.406-6.38 2.991-4.257 2.991-4.255 3.364-2.267 3.364-2.267 4.099-1.128 4.099-1.129 5.5 1.125 5.5 1.124 3.957 2.773 3.956 2.773 2.794 5.347 2.793 5.347v10.38l-2.603 5.224-2.604 5.224-3.351 2.556-3.352 2.557-4.704 1.415c-2.587.779-5.87 1.377-7.295 1.33zm54.978 0c-1.413-.047-3.697-.429-5.075-.848-1.379-.42-3.854-1.466-5.5-2.325-1.647-.86-4.18-2.84-5.63-4.402-1.45-1.561-3.418-4.388-4.375-6.281l-1.739-3.442V342.41l2.033-3.955 2.034-3.955 2.841-2.636c1.563-1.45 4.257-3.35 5.987-4.221 1.73-.872 4.936-1.872 7.124-2.222l3.979-.636 5.376 1.563 5.376 1.564 4.209 4.294 4.208 4.294 1.542 4.376 1.541 4.375V351.644l-1.582 4.642-1.582 4.642-4.03 4.03-4.03 4.031-5.07 1.506c-2.788.828-6.225 1.466-7.637 1.42zM725.76 357.978l-5.261-.022-4-1.856-4-1.856-3.2-3.372-3.199-3.372-1.55-3.718-1.551-3.718v-10.836l2.793-5.364 2.794-5.364 5.412-3.25 5.413-3.25 6.044.022 6.044.022 4 1.822 4 1.821 3.683 4.086 3.684 4.085 1.06 3.821c.584 2.102 1.062 5.396 1.062 7.321 0 1.925-.446 5.104-.99 7.065l-.991 3.566-3.477 4.061-3.476 4.062-4.517 2.123-4.516 2.123-5.261-.022zm54.173 0-5.434-.022-4-1.822-4-1.821-3.63-4.026-3.629-4.026-1.233-3.736-1.233-3.737.42-5.817.421-5.816 2.958-4.783 2.957-4.784 5.349-2.794 5.348-2.794 5.636.022 5.636.022 4 1.856 4 1.856 3.2 3.372 3.199 3.372 1.55 3.718 1.551 3.718-.006 4.282c-.003 2.355-.483 6.001-1.067 8.103l-1.06 3.82-3.498 3.871-3.497 3.871-4.252 2.059-4.252 2.058-5.434-.022zm420.856-35.979h-6.29l-4.248-2.103-4.249-2.103-2.653-3.147c-1.46-1.73-3.26-4.594-4.001-6.364l-1.349-3.218.022-5.782.022-5.782 1.842-4.056 1.842-4.056 4.129-3.533 4.128-3.534 3.874-1.16 3.873-1.161 3.884.01 3.884.01 5.041 2.347 5.04 2.348 2.612 3.103 2.611 3.103 1.737 4.548 1.737 4.548-.555 5.38-.555 5.378-1.491 2.884c-.82 1.586-2.765 4.156-4.32 5.713-1.557 1.556-4.506 3.684-6.554 4.729l-3.723 1.9-6.29-.001z"/><path style="fill:#f58138" d="m336 707.882-13.5-.112-13-1.313-13-1.312-12.5-2.65-12.5-2.648-15-4.967-15-4.967-16-7.84-16-7.84-12.605-8.433c-6.933-4.64-16.158-11.3-20.5-14.801l-7.895-6.367L156 632.05l-12.5-12.58-7.613-9.986c-4.187-5.492-10.104-13.81-13.148-18.485-3.045-4.675-8.042-13.237-11.105-19.026-3.064-5.79-7.598-15.367-10.077-21.284-2.48-5.918-6.091-15.758-8.026-21.87-1.935-6.11-4.657-16.505-6.05-23.099-1.392-6.594-3.195-17.664-4.006-24.599L82 468.512v-32.165l1.074-10.923c.59-6.008 2.124-16.356 3.408-22.995 1.284-6.638 3.75-16.988 5.48-23 1.729-6.01 5.189-16.104 7.688-22.429 2.5-6.325 7.343-16.9 10.763-23.5 3.42-6.6 9.148-16.5 12.727-22 3.58-5.5 10.247-14.725 14.818-20.5l8.311-10.5 11.116-11.003c6.113-6.05 14.94-14.077 19.615-17.836 4.675-3.758 13.9-10.43 20.5-14.828l12-7.995 15-7.328 15-7.329 11.107-4.04c6.109-2.221 16.605-5.427 23.326-7.124s18.148-4.062 25.393-5.255l13.174-2.17 25-.022 25-.02 11.5 1.796c6.325.989 16.9 3.085 23.5 4.659 6.6 1.573 17.263 4.684 23.696 6.913 6.432 2.228 16.187 6.043 21.676 8.477 5.49 2.434 14.852 7.23 20.805 10.657 5.953 3.427 14.004 8.377 17.893 10.999 3.888 2.622 10.638 7.58 15 11.016 4.361 3.438 13.04 11.241 19.287 17.341l11.357 11.092 8.235 10c4.53 5.5 10.98 14.038 14.336 18.974 3.356 4.935 5.971 9.103 5.813 9.261-.159.159-11.838-1.362-25.954-3.38l-25.666-3.667-.547.548-.548.548 3.037 14.858c1.671 8.172 3.932 21.841 5.024 30.377l1.987 15.518 1.127 18.482 1.128 18.481-.648 17c-.357 9.35-1.317 23.506-2.135 31.458-.817 7.952-1.653 14.625-1.857 14.83-.204.204-.893-2.253-1.531-5.459-.638-3.206-3.344-14.379-6.014-24.829-2.67-10.45-6.954-25.94-9.52-34.423s-7.365-22.847-10.665-31.92c-3.3-9.072-7.974-21.12-10.389-26.774-2.414-5.653-6.793-15.364-9.73-21.58-2.936-6.217-6.55-13.216-8.03-15.553l-2.692-4.25H398v1.267c0 .696 3.077 8.234 6.838 16.75 3.76 8.516 9.813 22.932 13.45 32.036 3.636 9.104 9.348 24.133 12.694 33.398 3.346 9.265 8.502 24.541 11.458 33.947 2.955 9.406 6.989 22.952 8.963 30.102 1.974 7.15 5.171 19.908 7.104 28.35 1.934 8.443 4.607 21.718 5.942 29.5 1.335 7.783 3.196 20.45 4.135 28.15l1.709 14 .103 24 .104 24 19.254.272 19.254.271 6.115-9.271 6.114-9.272 8.3-17 8.301-17 4.588-12.753c2.523-7.014 5.903-17.364 7.511-23 1.608-5.636 4.115-15.633 5.571-22.215 1.457-6.583 3.51-17.833 4.563-25 1.054-7.168 2.425-20.232 3.047-29.032l1.132-16-.59-19c-.324-10.45-1.085-23.433-1.69-28.85l-1.102-9.851.535-.535.535-.535 8.716 1.385 8.715 1.386 1.888 5.464c1.038 3.005 3.17 10.435 4.737 16.511l2.848 11.049 2.288 14.488 2.288 14.488v46L591.13 489l-2.287 14.5-3.368 13.154-3.369 13.154-5.05 13.24-5.05 13.239-6.861 13.21-6.86 13.212-6.75 10.237c-3.713 5.63-9.867 14.133-13.677 18.896-3.81 4.762-11.974 13.764-18.143 20.004L508.5 643.192l-10 8.092c-5.5 4.45-15.34 11.588-21.866 15.863l-11.866 7.772-13.134 6.439c-7.224 3.541-17.388 8.097-22.588 10.124-5.2 2.026-15.1 5.235-22 7.13-6.9 1.896-17.496 4.316-23.546 5.38-6.05 1.062-16.175 2.398-22.5 2.967l-11.5 1.034-13.5-.111zm-23.68-104.114 23.18-.268.254-124.75.254-124.75 9.746-.135c5.36-.075 18.746-.412 29.746-.75l20-.615-.322-1.871c-.177-1.03-4.062-11.321-8.634-22.87l-8.312-20.998-1.366-.865-1.366-.865h-145l-1.24.788-1.241.787-5.036 23.372-5.035 23.372 1.276.81 1.276.81 31.133.015 31.133.015.65 21.75c.356 11.962 1.295 54.825 2.086 95.25.79 40.425 1.73 86.325 2.087 102 .358 15.675.853 28.846 1.1 29.268l.452.768 23.18-.268zM890.547 610h-2.665l.723-1.25c.398-.688 1.586-2.496 2.64-4.02 1.056-1.523 3.01-5.553 4.343-8.955l2.425-6.186 1.64-8.545 1.641-8.544.103-14.5.103-14.5-13-.649-13-.649-6.572-2.086-6.572-2.086-5.928-3.835-5.928-3.835-4.842-5.39-4.841-5.39-2.92-5.783-2.919-5.783-1.489-5.717L832 496.58v-65.16l1.531-5.878 1.531-5.88 3.17-5.946 3.17-5.946 4.312-4.796 4.312-4.797 5.635-3.74 5.635-3.74 7.102-2.493 7.102-2.493 10-.024 10-.024 7.102 2.517 7.102 2.517 5.635 3.74 5.635 3.74 4.605 5.122 4.604 5.121 2.92 5.783 2.919 5.783 1.489 5.717L939 431.42v133.16l-1.531 5.878-1.531 5.88-3.204 6.01-3.204 6.01-6.086 6.086-6.085 6.086-5.93 3.15-5.929 3.152-6.144 1.584c-3.38.871-7.344 1.584-8.81 1.584zm.953-105.312 10-.188.263-34.068.263-34.069-2.338-4.431-2.338-4.432-3.925-2.234-3.925-2.233-3.912-.016-3.912-.017-4.242 2.486-4.242 2.486-2.096 4.33-2.096 4.33.022 27.434.022 27.434 1.862 4.099 1.861 4.099 2.867 2.008c1.576 1.105 3.541 2.27 4.366 2.59l1.5.58 10-.188zm65.75 102.697-3.25.565v-.82c0-.451.85-1.589 1.887-2.528l1.887-1.708 2.659-5.923 2.658-5.924 1.631-7.274 1.63-7.273.366-85.25.366-85.25H1075v93.131l1.12 2.185c.616 1.201 2.488 3.63 4.16 5.396l3.04 3.212 5.459 1.134 5.46 1.133 4.59-.688 4.592-.689 3.68-3.68 3.68-3.68 1.104-3.977 1.104-3.977.01-44.75.01-44.75h37l-.024 48.25-.024 48.25-.921 3.972c-.507 2.184-.697 4.196-.423 4.47.275.274 3.522.67 7.217.878l6.718.38 4.137-1.114 4.137-1.114 3.037-3.459 3.036-3.458 1.05-3.778 1.048-3.777.01-44.75.01-44.75h37l-.024 48.25-.024 48.25-.921 3.975-.922 3.974 1.196.76 1.195.76 8.538.016 8.538.015 4.458-2.25 4.458-2.25 2.237-4 2.238-4 .016-46.772.016-46.772 18.75.272 18.75.272v46c0 25.3-.225 48.925-.5 52.5l-.5 6.5 11-.087 11-.087 3.003-1.56c1.65-.859 3.831-2.478 4.845-3.597 1.013-1.12 2.455-3.754 3.203-5.853l1.361-3.816.044-94.75.044-94.75h37v195.58l-1.531 5.96c-.843 3.278-2.755 8.423-4.25 11.433l-2.719 5.474-6.258 6.657-6.259 6.657-6.854 3.602-6.855 3.602-6.649 1.542-6.648 1.542-113.755-.274-113.738-.275-6.88-2.673-6.878-2.673-5.436-3.743-5.436-3.744-4.256-5.083c-2.341-2.796-5.246-6.813-6.455-8.925-1.21-2.113-3.184-6.613-4.389-10l-2.189-6.159-.376-31.25-.377-31.25H1005l-.017 57.25-.017 57.25-1.448 6.835-1.448 6.835-2.562 5.595-2.562 5.595-3.54 4.32c-1.947 2.377-5.198 5.89-7.223 7.807l-3.682 3.485-5.5 2.926-5.5 2.925-5.5 1.498c-3.025.824-6.963 1.753-8.75 2.064zm-229.832-4.502-34.918-.117-5.5-.88-5.5-.88-8.173-4.014-8.174-4.013-5.826-5.74-5.827-5.741-3.8-7.242-3.801-7.241-1.432-6.758-1.432-6.757-.018-48.207-.017-48.208 18.586-.292c10.222-.161 18.772-.105 19 .124.227.229.414 22.1.414 48.602v48.185l2.25 3.306c1.237 1.818 3.52 4.247 5.073 5.398l2.824 2.092h74.706l2.762-2.062c1.519-1.134 3.69-3.304 4.823-4.821l2.062-2.76.354-9.055.354-9.055-1.354-.858-1.354-.858-10.54-.016-10.54-.015-5.717-1.49-5.717-1.488-5.783-2.92-5.783-2.919-5.39-4.841-5.39-4.842-3.758-5.81-3.759-5.81-2.311-6.69-2.312-6.69v-70l2.312-6.69 2.311-6.69 3.759-5.81 3.758-5.81 5.39-4.842 5.39-4.841 5.783-2.92 5.783-2.919 5.717-1.489L752.42 378h15.16l5.878 1.531 5.88 1.531 6.003 3.2 6.004 3.2 5.231 4.781 5.231 4.782 3.192 4.974 3.192 4.974 2.654 7.263 2.655 7.264.298 64.436.298 64.436-1.056 7.064-1.057 7.064-4.009 8.187-4.009 8.188-6.082 6.082-6.082 6.082-8.15 3.885-8.151 3.884-6.582 1.096-6.582 1.096-34.918-.117zM767 497.725l8.5-.225.263-34.764.263-34.765-1.982-3.885-1.982-3.884-3.71-2.294-3.71-2.293-4.571.017-4.571.016-3.171 1.661-3.171 1.66-2.33 3.266-2.328 3.265-.305 28.5-.304 28.5.562 3.046.561 3.047 2.743 3.25 2.743 3.252 4 1.427 4 1.427 8.5-.224zM1398.5 549H1380V307h37v242h-18.5zm-227-178.103-6-.06-2.534-1.168c-1.394-.643-3.943-2.185-5.664-3.426l-3.13-2.257-2.586-5.19-2.586-5.189v-10.214l2.549-5.115 2.549-5.115 3.2-2.365c1.762-1.301 4.46-2.913 6-3.582l2.796-1.216 5.703.022 5.703.022 4.056 1.842 4.056 1.842 3.65 4.264 3.65 4.265 1.075 5.178 1.075 5.18-1.09 5.081-1.09 5.082-3.635 4.247-3.635 4.247-4.056 1.842-4.056 1.842-6-.06zm54.782.102h-5.782l-4.248-2.103-4.249-2.103-2.653-3.147c-1.46-1.73-3.312-4.72-4.118-6.643l-1.465-3.497.483-6.752.483-6.752 2.642-3.992 2.642-3.993 4.131-2.734 4.131-2.733 6.65-.376 6.652-.376 3.46 1.45c1.902.797 4.986 2.736 6.851 4.31l3.393 2.86 1.835 4.04 1.836 4.042v12l-1.852 4-1.852 4-2.876 2.697-2.876 2.697-3.718 1.553-3.718 1.553h-5.782zM727.89 357.53l-5.389.415-2.506-.821c-1.379-.451-3.854-1.521-5.5-2.377-1.647-.856-3.979-2.612-5.182-3.902-1.203-1.29-3.106-4.37-4.228-6.845l-2.04-4.5-.022-3.884-.022-3.884 1.222-4.116 1.223-4.116 4.527-4.528 4.528-4.527 4.116-1.223 4.116-1.222 3.884.022 3.884.022 4.5 2.04c2.475 1.122 5.556 3.025 6.847 4.228 1.291 1.204 3.302 3.988 4.468 6.188l2.12 4-.023 6.668-.022 6.667-2.972 4.806-2.97 4.806-4.585 2.835-4.585 2.834-5.389.414zm54 0-5.389.415-2.506-.821c-1.379-.451-3.854-1.521-5.5-2.377-1.647-.856-3.954-2.612-5.127-3.902-1.173-1.29-2.868-3.8-3.767-5.578l-1.634-3.233-.617-4.502-.617-4.503 1.333-4.761 1.333-4.761 4.551-4.531 4.551-4.531 4.116-1.223 4.116-1.222 3.884.022 3.884.022 4.5 2.04c2.475 1.122 5.556 3.025 6.847 4.228 1.291 1.204 3.3 3.988 4.463 6.188l2.116 4 .037 6.579.037 6.578-3.026 4.895-3.027 4.895-4.584 2.835-4.585 2.834-5.389.414zm417.995-35.552-4.384-.022-4-1.822-4-1.821-3.683-4.086-3.684-4.085-1.06-3.821c-.584-2.102-1.064-5.344-1.067-7.205 0-1.861.547-5.236 1.224-7.5l1.23-4.116 4.193-4.2 4.194-4.2 5.576-1.62 5.577-1.622 5.404 1.122 5.405 1.122 3.485 2.699c1.917 1.484 4.411 4.049 5.543 5.699l2.057 3 1.08 4.85 1.08 4.85-.663 3.65c-.364 2.007-1.487 5.294-2.497 7.303l-1.836 3.654-3.585 2.955-3.585 2.955-3.81 1.142-3.81 1.141-4.384-.022z"/><path style="fill:#f37220" d="M335.5 707.8c-4.95-.094-11.475-.32-14.5-.505-3.025-.184-11.965-1.244-19.867-2.356l-14.366-2.02-13.277-3.404c-7.302-1.871-17.712-5.029-23.133-7.017l-9.857-3.614-15-7.352-15-7.351-8.69-5.485c-4.78-3.017-13.088-8.795-18.464-12.84l-9.774-7.356-13.37-12.958-13.37-12.958-7.579-9.423c-4.168-5.182-10.768-14.2-14.667-20.042l-7.09-10.619-7.135-14-7.136-14-4.675-12.382-4.676-12.382-3.342-13.118c-1.838-7.215-4.045-17.393-4.904-22.618-.86-5.225-2.085-15.35-2.722-22.5l-1.16-13 .628-15.5.628-15.5L84.44 417c.791-5.775 2.152-13.875 3.025-18 .873-4.125 2.924-12.24 4.557-18.031 1.633-5.793 4.932-15.693 7.33-22 2.397-6.308 6.499-15.744 9.114-20.969 2.616-5.225 7.035-13.325 9.82-18 2.786-4.675 7.103-11.425 9.596-15 2.492-3.575 7.224-9.875 10.515-14 3.292-4.125 10.736-12.386 16.544-18.358l10.559-10.858 10-8.192c5.5-4.506 12.925-10.229 16.5-12.717 3.575-2.488 10.325-6.803 15-9.589 4.675-2.785 12.55-7.079 17.5-9.542 4.95-2.462 13.275-6.182 18.5-8.266 5.225-2.084 14.303-5.265 20.173-7.07 5.87-1.805 16.22-4.408 23-5.784 6.78-1.376 16.827-3.067 22.327-3.758l10-1.256 20.5.077 20.5.076 14.101 2.066 14.102 2.066 12.335 3.115 12.336 3.114 12.24 4.437c6.731 2.44 16.592 6.457 21.914 8.927 5.32 2.47 14.916 7.597 21.323 11.395 6.407 3.798 16.158 10.274 21.67 14.392 5.511 4.117 14.347 11.338 19.634 16.046 5.288 4.707 13.164 12.524 17.503 17.369 4.339 4.846 10.611 12.41 13.938 16.81 3.327 4.4 7.929 10.788 10.227 14.195 2.297 3.407 4.177 6.475 4.177 6.818v.622l-1.75-.552c-.963-.303-11.14-1.909-22.619-3.567-11.477-1.659-22.39-3.016-24.25-3.016H503v1.92c0 1.056 1.098 7.019 2.44 13.25 1.342 6.231 3.343 17.855 4.447 25.83 1.104 7.975 2.543 21.241 3.198 29.48l1.19 14.981-.649 28.02-.649 28.019-1.29 9.5-1.289 9.5-1.291-6c-.71-3.3-2.64-11.4-4.287-18-1.647-6.6-4.561-17.625-6.475-24.5-1.914-6.875-6.193-20.6-9.508-30.5-3.315-9.9-8.418-24.075-11.34-31.5-2.923-7.425-7.876-19.095-11.006-25.934-3.13-6.839-7.385-15.614-9.455-19.5l-3.765-7.066-28.135-.266L397 306.97v1.055c0 .58.959 2.935 2.13 5.231 1.172 2.297 4.372 9.366 7.11 15.71 2.74 6.344 6.544 15.36 8.455 20.035 1.91 4.675 6.314 15.925 9.785 25 3.472 9.075 9.243 25.275 12.825 36 3.582 10.725 8.325 25.8 10.54 33.5 2.215 7.7 5.38 19.4 7.035 26 1.655 6.6 3.94 16.275 5.079 21.5 1.139 5.225 2.952 14.675 4.03 21 1.077 6.325 2.702 16.45 3.61 22.5l1.652 11 .356 28.5.356 28.5 19.91.27 19.908.27 5.328-8.27c2.931-4.548 8.115-13.67 11.521-20.27 3.406-6.6 8.088-16.46 10.405-21.91 2.316-5.45 5.984-15.125 8.15-21.5 2.165-6.374 5.494-17.44 7.397-24.59l3.46-13 2.914-17 2.913-17 1.207-14.366 1.207-14.367-.656-27.133-.657-27.134-.844-6c-.465-3.3-.77-6.101-.677-6.225.092-.124 3.87.364 8.393 1.084l8.226 1.309.842.916c.463.504 1.778 3.841 2.922 7.416 1.144 3.575 2.975 10.1 4.07 14.5 1.093 4.4 3.016 13.625 4.272 20.5l2.284 12.5v58l-2.284 12.5c-1.256 6.875-3.173 16.1-4.261 20.5-1.088 4.4-4.086 14.3-6.662 22l-4.683 14-7.757 15.671-7.758 15.672-8.969 13.328-8.97 13.329-8.515 10.123-8.516 10.123-10.292 9.724-10.291 9.723-11 8.335c-6.05 4.584-15.05 10.873-20 13.975-4.95 3.102-15.3 8.713-23 12.468l-14 6.828-12 4.168c-6.6 2.293-17.094 5.474-23.319 7.07-6.225 1.596-15.962 3.59-21.638 4.434-5.675.842-15.656 1.974-22.18 2.515l-11.863.982-9-.169zM312.1 604H336V354l18.75-.005c10.313-.002 23.813-.296 30-.653l11.25-.648-.005-1.097c-.003-.603-4.028-11.222-8.944-23.597l-8.94-22.5-74.427-.256-74.429-.257-.972 1.257-.973 1.256-4.666 22c-2.567 12.1-4.662 22.788-4.656 23.75L218 355h64.725l.659 38.25c.362 21.038.869 44.55 1.126 52.25.256 7.7.934 41 1.506 74 .571 33 1.297 65.513 1.612 72.25l.573 12.25h23.9zm580.407 5.481-4.994.715 1.671-1.848c.92-1.016 3.055-4.638 4.747-8.049l3.076-6.2 2.088-8.3 2.088-8.299.54-16.86.539-16.86-1.381-.875-1.381-.874-11.04-.016-11.04-.015-5.96-1.55-5.96-1.549-5.483-3.09c-3.015-1.7-7.231-4.49-9.368-6.2l-3.886-3.111-4.212-6c-2.317-3.3-5.149-8.25-6.293-11-1.144-2.75-2.57-7.67-3.17-10.934L832 492.633l.017-29.067.018-29.066 1.432-6.757 1.432-6.758 3.67-6.984 3.67-6.984 6.809-6.423 6.809-6.423 6.321-2.98 6.322-2.98 5.3-1.106 5.299-1.105h12.803l5.299 1.13c2.914.622 7.55 2.133 10.3 3.358l5 2.227 5.5 4.14 5.5 4.14 4.72 6.237 4.72 6.236 2.78 7.016 2.78 7.016.299 66 .3 66-1.113 6.5-1.112 6.5-3.459 7.216-3.458 7.216-5.375 5.784-5.375 5.784-5.422 3.262c-2.982 1.794-7.866 4.104-10.854 5.133-2.987 1.03-7.679 2.193-10.425 2.586zm-.007-103.734 9-.247.262-35.584.263-35.583-2.286-3.393-2.287-3.392-3.374-2.274-3.374-2.274h-10.408l-3.306 2.25c-1.818 1.238-4.247 3.52-5.398 5.071l-2.092 2.821-.305 28.18-.305 28.178.595 3.22.595 3.221 2.668 3.172 2.67 3.172 4.04 1.854 4.042 1.854 9-.246zM956.82 607h-1.76l2.426-3.575c1.335-1.966 3.35-6.041 4.477-9.056 1.128-3.014 2.791-9.168 3.696-13.675l1.645-8.194.41-83.25.41-83.25h107.196l-.587 45.25-.587 45.25 1.342 3.845 1.341 3.845 2.236 2.38 2.236 2.38 4.306 1.644 4.306 1.645 6.336-.404 6.336-.403 3.23-2.3 3.23-2.3 1.978-3.876 1.977-3.876v-93.125l18.25.272 18.25.273v94l-.834 5.843-.833 5.844 10.333-.344 10.334-.343 3.366-2.401 3.367-2.401 1.862-4.1 1.861-4.098.022-46.273.022-46.272 18.25.272 18.25.273v95l-.844 5.25-.844 5.25h21.287l2.832-1.464c1.557-.805 4.01-2.865 5.45-4.577 1.441-1.712 2.861-4.091 3.156-5.286.295-1.195.633-22.873.75-48.173l.213-46 18.293-.273 18.293-.272-.369 50.772c-.203 27.925-.56 51.673-.793 52.773l-.424 2 9.5.302 9.5.303 3.271-.602 3.272-.602 3.53-3.099c1.94-1.704 4.181-4.36 4.978-5.9l1.45-2.803V308h37l-.016 96.25-.015 96.25-1.52 6.447-1.52 6.447-3.214 6.553-3.215 6.553-6.118 6.136-6.118 6.136-8.383 4.125-8.382 4.125-8 1.038-8 1.038-109.5-.302-109.5-.303-6.572-2.232-6.573-2.231-5.927-3.857-5.928-3.856-4.57-4.923c-2.514-2.708-5.735-6.942-7.159-9.409-1.424-2.467-3.41-6.735-4.415-9.485l-1.827-5-.515-32.5-.514-32.5h-33l-.5 62-.5 62-2.283 5.646c-1.256 3.105-3.996 8.296-6.09 11.534l-3.805 5.889-4.911 4.204c-2.701 2.313-7.423 5.546-10.493 7.185l-5.581 2.98-5.879 1.53c-3.233.843-6.67 1.532-7.638 1.532zm-228.78-5.066-39.54-.066-5.294-1.425c-2.912-.783-7.732-2.618-10.711-4.077l-5.417-2.652-5.43-4.84-5.432-4.841-3.763-5.669-3.762-5.669-2.319-7.301-2.318-7.301-.277-50.547L643.5 457h18.25L680 457l.022 47.25.022 47.25 1.9 4.184 1.9 4.184 4.255 2.816 4.256 2.816H764.5l3.7-2.3 3.7-2.3 2.29-3.7 2.291-3.7.01-9 .01-9-13-.62-13-.62-4.5-1.222c-2.475-.673-7.65-2.869-11.499-4.88l-6.999-3.658-5.549-5.632-5.548-5.631-3.107-5.869c-1.71-3.227-3.825-8.312-4.703-11.3L707 490.638v-68.274l1.61-5.431c.886-2.988 2.512-7.232 3.614-9.432 1.102-2.2 3.836-6.399 6.074-9.33l4.07-5.331 6.35-4.532 6.35-4.531 6.716-2.335 6.716-2.335 6.574-.673 6.574-.673 7.274 1.227 7.273 1.227 7.843 3.925 7.842 3.925 5.93 5.985 5.93 5.986 3.099 5.814 3.099 5.814 1.53 5.879L813 423.42v134.727l-2.54 7.568-2.54 7.568-3.549 5.345-3.548 5.346-5.122 4.605-5.121 4.604-5.783 2.92-5.783 2.919-5.717 1.489L767.58 602l-39.54-.066zm38.46-104.206 10-.228.276-33.5.276-33.5-1.59-4.203-1.592-4.204-3.414-2.997-3.413-2.997-3.522-.661-3.521-.66-3.56.667-3.56.668-3.92 3.542-3.92 3.542-1.015 3.651-1.014 3.652-.006 26.007-.006 26.006.98 3.418.98 3.418 2.77 2.948 2.77 2.947 3 1.356 3 1.357 10-.229zm632 51.272H1380V308h37v241h-18.5zm-225.25-178.415-5.75.396-3.97-1.514-3.97-1.515-2.872-2.726c-1.58-1.5-3.822-4.526-4.984-6.726l-2.114-4v-12l2.176-4.153 2.176-4.154 3.635-2.996 3.636-2.997 4.408-1.234 4.408-1.234 4.654.638 4.655.638 4.353 2.551 4.354 2.552 2.727 4.12 2.728 4.12v16.287l-2.728 4.126-2.727 4.125-4.522 2.65-4.522 2.65-5.75.396zm52.757.371-3.507-.044-4-1.416-4-1.415-4.16-4.388-4.162-4.388-1.083-3.902c-.596-2.147-1.084-5.253-1.084-6.903 0-1.65.482-4.735 1.07-6.855l1.07-3.854 4.002-4.34 4-4.341 5.055-1.679 5.054-1.679 4.815.57 4.816.571 2.824 1.46c1.554.804 4.117 2.74 5.697 4.304l2.872 2.843 1.835 4 1.835 4 .022 5.054.022 5.053-2.533 5.084-2.533 5.083-3.804 2.636c-2.092 1.45-5.337 3.076-7.21 3.613-1.874.537-4.985.957-6.913.933zM725.79 356.958l-6.29-.042-3.062-1.708c-1.685-.94-3.953-2.383-5.041-3.208-1.089-.825-2.946-2.882-4.128-4.57l-2.15-3.072-1.168-4.64-1.169-4.64 1.204-5.02 1.205-5.021 2.814-3.886 2.815-3.886 4.612-2.232 4.613-2.233 5.727.014 5.728.014 2.639 1.019c1.451.56 4.29 2.469 6.309 4.241l3.67 3.223 1.94 3.804L748 328.92v11.144l-1.553 3.718-1.553 3.718-2.697 2.841c-1.483 1.563-4.367 3.7-6.407 4.75L732.08 357l-6.29-.042zm54 0-6.29-.042-3.062-1.708c-1.685-.94-3.953-2.383-5.041-3.208-1.089-.825-2.978-2.926-4.198-4.67l-2.22-3.168-.95-5.013-.951-5.013 1.265-4.878 1.265-4.878 2.777-3.64 2.776-3.64 4.402-2.13 4.403-2.132 6.006.029 6.006.029 3.468 1.645c1.908.906 4.658 2.836 6.112 4.29 1.454 1.453 3.498 4.318 4.543 6.366L802 328.92v11.144l-1.553 3.718-1.553 3.718-2.697 2.842c-1.483 1.562-4.367 3.7-6.407 4.75L786.08 357l-6.29-.042zm420.278-35.044c-1.412-.047-3.696-.429-5.075-.848-1.378-.42-3.853-1.463-5.5-2.32-1.646-.855-3.953-2.611-5.126-3.901-1.173-1.29-2.808-3.695-3.632-5.345-.824-1.65-1.803-4.834-2.175-7.075l-.677-4.076 1.175-4.666 1.175-4.666 3.902-4.433 3.902-4.433 4.488-1.714 4.488-1.714 6.06.55 6.06.55 3.925 2.597 3.925 2.597 2.701 4.082 2.701 4.082.43 5.944.43 5.944-1.725 4.517-1.725 4.516-3.56 3.459-3.562 3.459-5.018 1.49c-2.76.82-6.174 1.451-7.587 1.404z"/></g></svg>