<svg version="1.2" xmlns="http://www.w3.org/2000/svg" width="400" height="147"><style>.s0{fill:#e20915}.s1{fill:#e20a15}</style><path class="s0" d="M110.8 43.2c-11.4 2.3-22.1 4.5-30.9 11.5-3.4 2.7-6.2 6-6.4 10.6-.2 4.3 2.6 6.5 6.8 5.3.8-.3 1.5-.8 2.3-1.2 1.3-.7 2.7-1.1 3.8.1 1.3 1.2.4 2.5-.3 3.7C80.4 83.6 65 87 55.5 79.9c-4.2-3.2-5.9-10.1-4.1-16.9C54.5 51.7 62.6 44.7 72 39c14.8-8.8 31.1-12.6 48.1-13.7.9-.1 1.8-.2 2.6-.1 7.9.9 15-1.1 22.2-4.2 6.8-3 14.1-4.5 21.7-3.3 5.1.8 8.5 3.2 10.5 7.6-6.3.3-12.6.4-18.4 4.3 2.5 1.2 4.7 2.2 6.8 3.4 5.8 3.3 11.1 7.2 13.8 13.5 4.4 10.5-1.9 23-14.1 27.9-2.7 1.1-3.3 1.7-2 4.8 4.4 9.7 3.1 19.5-2.4 28.1-11 17.1-35.1 25-53 15.1-2.4-1.3-4.5-2.9-6.3-4.8-4.2-4.7-4.5-11.2-.8-16.3 5.5-7.7 16.4-11.6 25.5-9.2 1.2.3 2.6.4 2.7 2.1.1 1.5-1.3 1.7-2.3 2.1-2.3 1.2-4.7 2.3-6.5 4.4-2.2 2.8-1.8 5.8 1.2 7.7q2.1 1.4 4.6 1.6c10.2.9 22.3-10.6 21.8-20.7-.3-6-2.3-8.1-8.2-8.8q-5.8-.6-11.6-1.5c-3.5-.4-5.8-2.4-6.7-5.7-.9-3.3.8-5.6 3.3-7.5 2.9-2.2 6.3-2.8 10-2.8 4.2.1 8.5 0 12.8 0 4.3.1 7.5-1.7 9.5-5.5 2.1-3.7 1.3-7.2-.9-10.6-5.1-7.8-12.8-9.1-19.7-2.9-8.4 7.6-14.8 16.7-20.7 26.3q-8 13-16.2 25.9c-12 19.1-29.5 28-52 27.3-9.3-.3-18.6-1.1-27.9-1.5-2.2-.1-2.9-.5-1.7-2.8 2-3.9 4-7.8 5.6-11.9 1.1-2.6 2.6-3.4 5.5-3.2 8.4.6 16.8.7 25.2 1.2 7.2.5 12.9-2.6 18.1-7 4.1-3.4 7.6-7.4 10.5-11.8C91.8 72.7 100.9 58.8 110 45c.2-.3.3-.7.8-1.8z"/><path fill-rule="evenodd" class="s1" d="M199 117.1c.9-2 1.6-3.6 2.7-6.2-3.1 2-5.4 3.6-7.7 5-4.6 2.7-9.4 4.6-15 3.1-5.4-1.4-7-4.2-5-9.4 2-5.4 4-10.9 6.1-16.3.7-1.8.8-3.5-.9-4.6-1.9-1.3-3.3 0-4.5 1.3-1.7 1.8-3.5 4.6-6.2 2.2-2.3-2-.7-4.7.9-6.7 5.2-6.4 11.6-11.2 19.7-13 3.2-.8 6.8-.9 9.2 1.9 2.5 2.8 1.6 6.1.4 9.2-1.5 4-4.3 7.4-5.3 11.7-.5 2.4-1.6 5.1 1.3 6.7 2.9 1.6 5-.4 6.7-2.5 5.5-6.6 8.7-14.4 12.5-21.9 1.2-2.4 2.6-3.7 5.3-3.8 3-.1 6-.5 9-.8 1.2-.1 2.7-.1 3.1.8 1.4 3.7 3.6 1.9 5.6 1.1 3.7-1.3 7.4-2.3 11.4-2.2 4 .1 7.4 1.4 9.5 5 1.5 2.6 3.2 2.3 5.3.9 4.8-3.2 10-5.2 15.7-6 7.4-1.1 11.8 3.7 9.6 10.8-1.2 3.9-2.8 7.6-4.2 11.3-.5 1.6-1 3.1-1.3 4.7-.2 1.2 0 2.4 1.2 2.9s2.2.1 3.1-.8c1.8-2 3.5-3.8 3.9-6.9 2.9-20 23.9-31.5 41.7-23 10.8 5.2 14.2 15.6 9.2 27.8-7.9 19-34.8 24.1-47.7 9.6-2.6-3-4.7-2.4-7.9 1.5-5.3 6.2-12 8.2-19.6 5.7-4.4-1.4-6.2-4.7-4.7-9 1.4-3.9 2.8-7.8 4.1-11.7 1-2.8-.7-4.8-3.6-4.2-2.5.5-4.6 1.7-6.1 4-3.8 5.7-5.9 12.2-8.4 18.5-.9 2.4-2 3.6-4.8 3.4-4-.3-8-.2-12.1 0-2.5.1-3-.5-2-2.9 2.6-5.7 4.9-11.6 7.3-17.3.7-1.6 1.3-3.2-.2-4.6-1.4-1.3-3-.7-4.6-.2-3.8 1.3-5.9 4.5-7.6 7.9q-3.7 7.3-6.9 14.7c-.8 1.7-1.7 2.4-3.7 2.4-4.6-.2-9.3-.1-14.5-.1zm128.6-25.2c-.1-3.8-.9-6.7-4.1-8.4-3.4-1.7-6.4-.9-9.2 1.2-2.9 2.2-4.9 5-6 8.5-1.4 4-.4 7.6 2.9 10 3.9 2.8 7.2 2.8 10.9-.2s5.1-7.1 5.5-11.1z"/><path class="s0" d="M362.6 117.1h-16.2c-2.1.1-3.2 0-2-2.6 2.2-4.3 4.2-8.8 6.1-13.3.7-1.6 1.6-2.2 3.4-2.2q16 .1 32 0c2.4 0 2.8.6 2 2.8-1.5 4.1-2.8 8.3-4.6 12.3-1 2.2-2.4 3.2-4.9 3.1-5.3-.2-10.6-.1-15.8-.1z"/><path class="s1" d="M189.8 57.4c.2-7.2 9-15.9 16.2-16 5.6-.1 10.5 5.2 10.1 10.9-.5 6.7-6.8 14-13.5 15.6-6.7 1.5-12.9-3.5-12.8-10.5z"/></svg>