<?xml version="1.0" encoding="UTF-8" standalone="no"?>
<!-- Generator: Adobe Illustrator 16.0.0, SVG Export Plug-In . SVG Version: 6.00 Build 0)  -->

<svg
   xmlns:dc="http://purl.org/dc/elements/1.1/"
   xmlns:cc="http://creativecommons.org/ns#"
   xmlns:rdf="http://www.w3.org/1999/02/22-rdf-syntax-ns#"
   xmlns:svg="http://www.w3.org/2000/svg"
   xmlns="http://www.w3.org/2000/svg"
   xmlns:sodipodi="http://sodipodi.sourceforge.net/DTD/sodipodi-0.dtd"
   xmlns:inkscape="http://www.inkscape.org/namespaces/inkscape"
   version="1.1"
   id="Calque_1"
   x="0px"
   y="0px"
   width="2081.336px"
   height="2088.168px"
   viewBox="0 0 260.167 261.021"
   enable-background="new 0 0 260.167 261.021"
   xml:space="preserve"
   inkscape:version="0.48.4 r9939"
   sodipodi:docname="Ooredoo.svg"><title
   id="title3002">Ooredoo</title><metadata
   id="metadata25"><rdf:RDF><cc:Work
       rdf:about=""><dc:format>image/svg+xml</dc:format><dc:type
         rdf:resource="http://purl.org/dc/dcmitype/StillImage" /><dc:title>Ooredoo</dc:title></cc:Work></rdf:RDF></metadata><defs
   id="defs23" /><sodipodi:namedview
   pagecolor="#ffffff"
   bordercolor="#666666"
   borderopacity="1"
   objecttolerance="10"
   gridtolerance="10"
   guidetolerance="10"
   inkscape:pageopacity="0"
   inkscape:pageshadow="2"
   inkscape:window-width="640"
   inkscape:window-height="480"
   id="namedview21"
   showgrid="false"
   inkscape:zoom="0.11301773"
   inkscape:cx="1040.668"
   inkscape:cy="1044.084"
   inkscape:window-x="0"
   inkscape:window-y="0"
   inkscape:window-maximized="0"
   inkscape:current-layer="Calque_1" />
<path
   fill="#DF0327"
   d="M258.25,129.697c0-17.91-10.25-33.43-25.2-41c14.95-7.58,25.2-23.09,25.2-41  c0-25.37-20.55-45.93-45.91-45.93c-17.91,0-33.43,10.27-41,25.24c-7.561-14.97-23.08-25.24-41-25.24c-17.91,0-33.43,10.27-41,25.24  c-7.56-14.97-23.08-25.24-41-25.24c-25.35,0-45.91,20.56-45.91,45.93c0,17.91,10.25,33.42,25.2,41c-14.95,7.57-25.2,23.09-25.2,41  c0,17.91,10.25,33.42,25.2,41c-14.95,7.57-25.2,23.09-25.2,41c0,25.36,20.56,45.92,45.91,45.92c17.92,0,33.44-10.27,41-25.24  c7.57,14.971,23.09,25.24,41,25.24c17.92,0,33.439-10.27,41-25.24c7.57,14.971,23.09,25.24,41,25.24  c25.36,0,45.91-20.56,45.91-45.92c0-17.91-10.25-33.43-25.2-41C248,163.117,258.25,147.607,258.25,129.697z M89.34,68.377  c4.42,8.75,11.55,15.89,20.29,20.32c-8.74,4.42-15.87,11.56-20.29,20.31c-4.42-8.75-11.55-15.89-20.29-20.31  C77.79,84.268,84.92,77.127,89.34,68.377z M89.34,191.008c-4.42-8.75-11.55-15.891-20.29-20.311c8.74-4.43,15.87-11.57,20.29-20.32  c4.42,8.75,11.55,15.891,20.29,20.32C100.89,175.117,93.76,182.258,89.34,191.008z M171.34,191.008  c-4.42-8.75-11.55-15.891-20.29-20.311c8.74-4.43,15.87-11.57,20.29-20.32c4.42,8.75,11.551,15.891,20.29,20.32  C182.891,175.117,175.76,182.258,171.34,191.008z M171.34,109.007c-4.42-8.75-11.55-15.89-20.29-20.31  c8.74-4.43,15.87-11.57,20.29-20.32c4.42,8.75,11.551,15.89,20.29,20.32C182.891,93.118,175.76,100.257,171.34,109.007z"
   id="path3" />
<g
   id="g5">
	<path
   fill="#FFFFFF"
   d="M130.5,144.018c-5.9,0-10.96-3.66-13.01-8.83c-0.64-1.6-0.99-3.34-0.99-5.17c0-0.11,0-0.22,0.01-0.33h37.32   c-0.09-12.99-10.54-23.5-23.41-23.5c-12.94,0-23.42,10.6-23.42,23.67c0,13.07,10.48,23.66,23.42,23.66   c11.12,0,20.42-7.83,22.801-18.33h-9.711C141.46,140.357,136.4,144.018,130.5,144.018z M130.5,116.018   c4.561,0,8.609,2.18,11.16,5.55h-22.32C121.89,118.197,125.94,116.018,130.5,116.018z"
   id="path7" />
	<path
   fill="#FFFFFF"
   d="M48.42,188.188c-12.94,0-23.42,10.6-23.42,23.67s10.48,23.66,23.42,23.66c12.93,0,23.41-10.59,23.41-23.66   S61.35,188.188,48.42,188.188z M48.5,226.018c-7.73,0-14-6.27-14-14s6.27-14,14-14s14,6.27,14,14S56.23,226.018,48.5,226.018z"
   id="path9" />
	<path
   fill="#FFFFFF"
   d="M130.42,188.188c-12.94,0-23.42,10.6-23.42,23.67s10.48,23.66,23.42,23.66c12.93,0,23.41-10.59,23.41-23.66   S143.35,188.188,130.42,188.188z M130.5,226.018c-7.73,0-14-6.27-14-14s6.27-14,14-14c7.73,0,14,6.27,14,14   S138.23,226.018,130.5,226.018z"
   id="path11" />
	<path
   fill="#FFFFFF"
   d="M130.42,24.188c-12.94,0-23.42,10.6-23.42,23.67c0,13.07,10.48,23.66,23.42,23.66   c12.93,0,23.41-10.59,23.41-23.66C153.83,34.788,143.35,24.188,130.42,24.188z M130.5,62.018c-7.73,0-14-6.27-14-14s6.27-14,14-14   c7.73,0,14,6.27,14,14S138.23,62.018,130.5,62.018z"
   id="path13" />
	<path
   fill="#FFFFFF"
   d="M212.42,24.188c-12.939,0-23.42,10.6-23.42,23.67c0,13.07,10.48,23.66,23.42,23.66   c12.93,0,23.41-10.59,23.41-23.66C235.83,34.788,225.35,24.188,212.42,24.188z M212.5,62.018c-7.73,0-14-6.27-14-14s6.27-14,14-14   s14,6.27,14,14S220.23,62.018,212.5,62.018z"
   id="path15" />
	<path
   fill="#FFFFFF"
   d="M233.05,88.697c0.13-0.07,0.271-0.14,0.4-0.21c-3.61,1.75-7.57,2.82-7.57,2.82v19.19   c-3.81-2.72-8.45-4.31-13.46-4.31c-12.939,0-23.42,10.6-23.42,23.67c0,13.07,10.48,23.66,23.42,23.66   c12.93,0,23.41-10.59,23.41-23.66v-39.63C234.92,89.688,233.99,89.178,233.05,88.697z M212.189,143.438   c-7.56,0-13.689-6.21-13.689-13.87c0-7.67,6.13-13.88,13.689-13.88c7.561,0,13.69,6.21,13.69,13.88   C225.88,137.228,219.75,143.438,212.189,143.438z"
   id="path17" />
	<path
   fill="#FFFFFF"
   d="M71.64,126.857h-9.5c-1.43-6.21-7-10.84-13.64-10.84c-7.73,0-14,6.27-14,14v21.67H25v-21.83   c0-13.07,10.48-23.67,23.42-23.67C60.34,106.188,70.18,115.197,71.64,126.857z"
   id="path19" />
</g>
</svg>