<svg xmlns="http://www.w3.org/2000/svg" xml:space="preserve" width="377.953" height="377.953"><defs><clipPath clipPathUnits="userSpaceOnUse" id="a"><path d="M0 283.465h283.465V0H0Z"/></clipPath></defs><path d="M0 0h283.465v283.465H0Z" style="fill:#fff;fill-opacity:1;fill-rule:nonzero;stroke:none" transform="matrix(1.33333 0 0 -1.33333 0 377.953)"/><path d="M0 .333h283v283.132H0Z" style="fill:#4fa02a;fill-opacity:1;fill-rule:nonzero;stroke:none" transform="matrix(1.33333 0 0 -1.33333 0 377.953)"/><g clip-path="url(#a)" transform="matrix(1.33333 0 0 -1.33333 0 377.953)"><path d="M0 0c-18.11-9.548-38.243-6.685-38.243-6.685-39.392 5.446-27.358 40.716-27.358 40.716 15.607 42.027 77.375 38.821 77.375 38.821-7.899 3.959-7.261 18.459-7.261 18.459-41.486-11.624-80.662 0-80.662 0 1.824-17.749-2.947-20.794-2.947-20.794 12.448 6.113 49.614 3.598 49.614 3.598-21.059-4.476-37.972-26.083-37.972-26.083s-40.379-61.877 30.379-67.52c0 0 26.342-.247 35.842 17.876L0 0" style="fill:#fff;fill-opacity:1;fill-rule:evenodd;stroke:none" transform="translate(171.773 144.964)"/><path d="M0 0h60.968v5.259h-12.13c.434 12.683 13.297 14.638 13.297 14.638 4.754 1.811 8.226 5.494 8.226 5.494V-5.445H9.164C3.857-1.251 0 0 0 0m61.046 9.597v4.759s-4.759.168-4.759-4.759h4.759" style="fill:#fff;fill-opacity:1;fill-rule:evenodd;stroke:none" transform="translate(110.805 186.648)"/><path d="M0 0h102.61v26.45s-8.862-8.346-12.424-9.862v-1.33h4.007v-7.9H-7.581S0 2.816 0 0" style="fill:#fff;fill-opacity:1;fill-rule:evenodd;stroke:none" transform="translate(93.098 158.73)"/><path d="M0 0c0-2.437-2.021-4.362-4.482-4.362-2.425 0-4.453 1.925-4.453 4.362 0 2.401 2.028 4.38 4.453 4.38C-2.021 4.38 0 2.401 0 0" style="fill:#fff;fill-opacity:1;fill-rule:evenodd;stroke:none" transform="translate(150.57 199.025)"/><path d="M0 0c0-2.425-1.979-4.369-4.471-4.369-2.478 0-4.488 1.944-4.488 4.369 0 2.437 2.01 4.344 4.488 4.344C-1.979 4.344 0 2.437 0 0" style="fill:#fff;fill-opacity:1;fill-rule:evenodd;stroke:none" transform="translate(189.355 152.208)"/><path d="M0 0v68.068h23.429c11.179 0 18.688-4.729 18.688-17.719 0-6.12-1.829-11.047-6.878-13.858v-.181c9.032-1.286 12.853-7.904 12.853-17.339C48.092 4.688 36.816 0 25.246 0Zm16.395 41.714h1.83c4.367 0 8.857.831 8.857 6.595 0 6.221-5.079 6.583-9.525 6.583h-1.162zm0-23.777h2.124c4.826 0 13.021-.29 13.021 7.207 0 8.201-8.111 7.388-13.466 7.388h-1.679V17.937" style="fill:#fff;fill-opacity:1;fill-rule:evenodd;stroke:none" transform="translate(45.981 47.534)"/><path d="M0 0h16.853L47.73-41.637h.164V0h16.895v-68.063H47.894L17.027-26.391h-.174v-41.672H0Z" style="fill:#fff;fill-opacity:1;fill-rule:evenodd;stroke:none" transform="translate(100.355 115.603)"/><path d="m0 0-4.344-11.804h-17.292L2.486 56.271h17.846l23.646-68.075H26.595L22.479 0Zm11.408 35.235h-.174l-6.703-21.66h13.545z" style="fill:#fff;fill-opacity:1;fill-rule:evenodd;stroke:none" transform="translate(193.042 59.332)"/></g></svg>