<svg xmlns="http://www.w3.org/2000/svg" width="1028.948" height="500.975" viewBox="-21.958 -28.25 1028.948 500.975" xml:space="preserve"><path fill="#F0B41E" d="M1006.99-28.25v500.976H-21.958V-28.25z"/><path fill="#002866" d="M748.36 146.24c0 109.6-78.398 133.989-131.802 133.989H355.86l31.101-99.392H600.86c4.239 0 15.18-6.88 14.239-25.31-.631-12.49-8.438-22.5-14.239-22.99h-198.8l37.7-120.4h176.799C696.67 12.13 748.36 51.64 748.36 146.24zM197.67 179.54l-32.21 99.602H57.07l30.8-99.602z"/><path fill="#002866" d="m416.26 12.13-95.2 296.2-11.1 34.5-12.4 38.601c-13.399 30.291-20.3 39.392-39.7 40.689h-245l39.3-127.1h136l89.7-282.9h138.4v.01z"/><g fill="#002866"><path d="M972.29 12.13c7.25 2.76 7.311 10.72 7.25 14.66-.1 5.05-2.25 16.23-8.711 18.24H737.25c-13.201-16.45-22.81-25.03-47.671-32.9H972.29zM953.329 70.83c6.461 2.19 7.801 10.29 7.729 14.37-.1 5.01-2.211 15.63-8.551 18.13H765.139c-2.397-12.1-5.969-22.9-10.59-32.5h198.78zM933.85 131.64c7.42 2.32 7.859 11.88 7.38 15.99-.609 5.06-2.068 15.4-9.158 18.21h-163.75c.479-6.3.67-12.8.67-19.6 0-5-.103-9.9-.48-14.6H933.85zM912.92 189.14c5 0 7.17 14.17 6.949 19.29-.183 3.88.01 10.84-6.541 14.11H757.61c3.68-9.8 6.608-21 8.68-33.4h146.63zM895.829 242.53c4.9 1.43 6.891 14.147 6.479 19.199-.43 5.209-1.58 15.039-9.801 18.5H692.719c21.052-1.602 40.511-14.102 54.472-37.699h148.638z"/></g><g fill="#002866"><path d="m926.67 408.938-5 21.892h-96.511l39.201-122.5h35.099l-32.188 101.21zM807.469 308.33l-95.198 84.5-6.812-.7 18.699-57.1 20.399-.5 9.199-26.2h-74.199l-8.6 26.2h17.6l-31.6 96.3h56.809l13.302-17.101 47.102.398-5.399 16.7h36.301l39.709-122.5-37.312.003zm-24.299 82.01-24.9-.108 29.601-31-4.701 31.108zM616.26 334.54l-9.59 31.898h40.799l-7.41 22.5H599.87l-12.711 41.892h-37.7l13.711-41.892 7.401-22.5 10.388-31.898 8.612-26.21h76.898l-8.599 26.21zM536.059 308.33l-85.29 80 23.9-80h-35.9l-22.5 71.601-32.1-71.601h-30.7l-39.2 122.5h37l20.7-64.392 30.7 64.392h40.6l23.802-20.802 39.2.802-7.302 20h35.302l40.198-122.5h-38.41zm-22.5 80.608h-23.1l28.41-26.209-5.31 26.209z"/></g></svg>