<svg version="1.2" xmlns="http://www.w3.org/2000/svg" width="326" height="117"><defs><clipPath clipPathUnits="userSpaceOnUse" id="cp1"><path d="M-234-502h793.71V620.52H-234z"/></clipPath></defs><style>.s0{fill:#ee4c24}.s2{fill:#ebebeb}.s4{fill:#f6f6f6}.s7{fill:#f5f4f4}.s12{fill:#b0b3b5}.s16{fill:#9ba0a3}.s20{fill:#aaaeb0}.s38{fill:#b8bbba}.s39{fill:#f3f3f3}.s40{fill:#f1f0f0}.s41{fill:#fff}.s42{fill:#eee}.s58{fill:#c0c0c1}.s65{fill:#f7f7f7}.s66{fill:#f1f1f1}.s67{fill:#f4f4f4}</style><g clip-path="url(#cp1)"><path class="s0" d="M102.1 2.7c0-.7 0-1.4.5-1.9h1.6q109.9.1 219.7 0c1.5 0 1.8.4 1.8 2v100.5c0 1.4-.1 2.8-.4 4.1-1.6 6.5-6.3 10.3-12.6 10.3H62c-.3 0-.8.3-1-.3q.4-.3.9-.6c14.7-9.1 25.5-22.1 32.6-38.8 6.1-14.3 8.7-29.4 9.4-45q.6-13-.8-26c-.8-1.3-.6-2.9-1-4.3z"/><path d="M102.1 2.1c-.1 1.6 0 3.1 0 4.7 0 1.7.1 3.4 0 5.2-.1.5.1 1.4-.9 1.3-.2-.3-.3-.8-.3-1.2 0-1.3-.5-1.7-1.7-1.5-1.1.2-2.2.1-3.2.1H6.8c-1.4 0-2.8 0-4.2.1-.6.1-1.3.1-1.7-.6-.1-.9.4-1.5.8-2.2C4.3 3 8.4.8 13.4.8h86.7c.5 0 1.1-.2 1.6.3.3.2.5.6.4 1z" style="fill:#e8e8e8"/><path class="s2" d="M101.1 17.8c-5 .1-10.1.1-15.1-.3-3.1-.2-6.2.4-9.3.3-8.2-.1-16.4 0-24.6-.2-14.1-.3-28.1-.1-42.2 0-2.5 0-5.1.4-7.6.2-.7 0-1.4.1-2-.4-.2-1.5-.3-3.1 0-4.6 0-.9 0-1.8.6-2.6 1.1.6 2.2 0 3.3 0h93.7c1.1 0 2.3-.9 3.1-.1.8.8.2 2.2.4 3.4.5 1.5.9 2.9-.3 4.3z"/><path d="M1.2 48.1c-.3 1.2.1 1.6 1.1 1.8.5.1 1.1.1 1.6.1q6-.1 12 0c.7 0 1.6-.2 2.1.6.3.5.3 1.1.3 1.7v15c0 .7 0 1.3-.3 1.9-.4.5-1 .5-1.5.5-4.3 0-8.6.2-12.9 0-1.3-.1-2.6-.4-3.6.9V45.9c1.4.4 1.6.8 1.2 2.2z" style="fill:#faf9f9"/><path class="s4" d="M0 26.4q.3-.1.5.2c.3.6.2 1.3.2 2 .1 1.3 0 2.7.1 4 0 2.7.3 3.1 2.8 3.1 4.4-.1 8.8.1 13.2-.1.4-.1.9-.1 1.2.3.2.4.3.8.3 1.3q.1 5.9 0 11.8c0 .5-.1 1.1-.5 1.4H4.6c-.9 0-1.8.1-2.7 0-1.2-.1-1.9-1.3-1.3-2 1.1-1.3.2-1.9-.6-2.5V26.4z"/><path d="M.5 84.9c.8-.4 1.6-.3 2.3-.3h65.9c1 0 2.1 0 3.1.3.9.3.4.8.1 1.3-1 .9-1.7 2.3-3 2.8h-.5q-1.9-.1-3.9-.1H12.3c-3.2 0-6.3.2-9.5-.1-1-.1-2-.1-2.1 1.4 0 .7.1 1.4 0 2v14.1c-.1.5.1 1.1-.7 1.3V87.8c.5-.9-.3-2.1.5-2.9z" style="fill:#e6e4e5"/><path d="M27.1 116.5c1.2-.5 2.3-.9 3.4-1.4 1-.4 2-.7 3-1.3.8-.5 1.9-.7 2.7-1.3 1-.6 2.2-.9 3.2-1.6q1-.5 1.9-1c1.1-.5 2.1-1.3 3.2-1.9.8-.4 1.5-1 2.2-1.4.5-.2.9-.4 1.4-.4.6-.1 1.2.1 1.7.4 2.6 1 5.2 1.6 7.9 2.1 1 .1 2-.1 2.8.8-2.8 2.3-6 3.9-9 5.8-2.7 1.7-5.5 2.6-8.7 2.2-1.3-.1-2.6 0-3.9 0-3.5-.1-7.1-.2-10.7.1h-2.3c0-.9.7-.9 1.2-1.1z" style="fill:#516267"/><path class="s7" d="M18 74.7c-1.1.9-2.4.9-3.7.9-3.9-.1-7.9.1-11.8-.1-1.5-.1-1.7.1-1.8 1.8v.8q0 .4-.2.8-.2.2-.5.1v-8.4c.3-1.9 1.3-2 2.7-1.5.6.2 1.2.2 1.9.2h13.2c.9 1.7.6 3.6.2 5.4z"/><path d="M.3 117.6c-.2-.9-.3-1.8.1-2.7.4-.3.8-.4 1.3-.4h27c.7 0 1.5.1 2 .9-1.5 1-3.3 1.1-4.8 2.2H.3z" style="fill:#a8a2aa"/><path d="M0 116.1v-8.5c.4-.4.3-.9.3-1.4 1.1-.3 2.2.2 3.4.2 13.7-.1 27.4 0 41.1-.1.7 0 1.4 0 1.9.6-.6.6-1.3 1.1-2.1 1.3-1.3.8-2.7.5-4.2.5H3.3c-.6 0-1.1 0-1.6.1s-.9.2-.9.8c-.1.4 0 .8-.1 1.2 0 .8.1 1.5 0 2.3 0 .7.1 1.4-.4 1.9v2.6c-.5-.4-.3-1-.3-1.5z" style="fill:#bfbabe"/><path d="M87.2 80.3c-.7 1.7-1.9 3-3.2 4.3-.2.3-.5.6-.8.8-.5.1-.8.7-1.1 1.1-3.6 2-7 4.4-11 5.1-1.7.2-3.3.6-5.1.5-.2-1 .5-1.3 1.1-1.7 2.4-.2 4.7-.8 6.9-1.7 5-2.1 9.5-5.1 12.6-10 2.3-2.2 3.4-5.1 4.4-8.1q.1-.2.1-.4c1-1.9 1.3-4 1.6-6.1.2-1.4.6-2.7.1-4.1.1-2.6.5-5.1-.4-7.6.2-.8.2-1.9 1.3-2 .5 1.3.7 2.6.9 3.9.3 1.9-.1 3.8.1 5.6.3 2.6-.1 5-1 7.3-.2.6-.3 1.1-.1 1.7-1.6 3.8-3.4 7.4-5.6 10.8-.4 0-.7.2-.8.6z" style="fill:#bcbcbd"/><path d="M101.7 3.4c0-.5-.4-1.2.2-1.6.4.4.3.9.4 1.3q.1 1 .3 1.9c.3 1.9-.1 3.7.2 5.6.2 7 .4 14-.3 21-.6.1-.9-.4-1.1-.9-.5-1-1.2-1.9-1.8-2.9-.3-1 0-2 .3-3.1.3-1.3.5-2.7.5-4.1 0-1 0-2.1.7-2.9.4-1.4.2-2.8.3-4.2.5-3.4.1-6.7.3-10.1z" style="fill:#526267"/><path class="s12" d="M78.3 91.7c-4.4 2.2-9 3.4-13.8 3.4-.5 0-1 .1-1.3-.5.1-1.2 1-1.6 1.9-1.9 1.8.2 3.4-.4 5.1-.7 4.5-.9 8.7-2.7 12.4-5.7.4-.3.7-.8 1.3-.5-.8 2.1-2.3 3.6-3.6 5.2-.8 0-1.4.4-2 .7z"/><path d="M65 92.5c.3-.3.5-.7 1-.5.8.4 1.2-.6 2-.6 2.6 0 5.1-.5 7.4-1.7 2.3-1.1 4.4-2.4 6.6-3.6.3-.5.8-.6 1.2-.9q.2-.5.6-.7c.4-.2.9-.4.9.4q-.4.4-.8.9c-1.2.9-2.3 2-3.6 2.7-1.8.9-3.5 1.9-5.5 2.6-1.7.6-3.4 1-5.2 1.4-1.5.4-3 .9-4.5.4q-.1-.2-.1-.4z" style="fill:#b6b9b9"/><path d="M63.1 104.5c-3.3.3-6.4-.8-9.5-1.6-.5-1.1.6-1.2.9-1.8q.3-.2.6-.2c2.6.8 5.2 1.4 7.9 1.2 1.6-.2 3.2-.1 4.8 0 .5 0 1.2-.4 1.4.6-.5.5-1.1 1.1-1.8 1.5-1.4.7-2.9.1-4.3.3z" style="fill:#7b858a"/><path d="M93.8 49.3c.7-.2 1 .4 1.1 1 1 4.2 1.6 8.5.7 12.8-.1.2-.1.4 0 .6-.4 1.9-1.6 3.4-2 5.2-.4-.6-.5-1.1-.2-1.8 1.4-3.6.9-7.5.9-11.2.1-1.9-.5-3.7-.7-5.5q-.4-.7.2-1.1z" style="fill:#b7bab9"/><path class="s12" d="M94.9 47c.7 0 .8.6.9 1.1.9 3.6 1.8 7.3 1.4 11.1q-.8 2.3-1.6 4.5c-.6-1.8.1-3.7 0-5.6-.3-2-.2-4.2-.8-6.2-.2-.8.3-2-.9-2.4-.3-1.2 0-2.1 1-2.5z"/><path class="s16" d="M66.9 99c-2.6.4-5.2.3-7.7-.7q-.2-.2-.1-.5c.2-.6.8-.8 1.3-1 .8-.1 1.5 0 2.3.2 2.1.3 4.2.1 6.3-.3 2.2-.6 4.4-.8 6.6-1.6.3-.1.8-.3.8.5-.5.7-1.1 1.4-1.8 1.9-2.6.4-5.1 1-7.7 1.5z"/><path d="M74.9 95.1c-2.8 1.1-5.8 1.4-8.7 2-1.7.3-3.4 0-5-.5-.1-.4 0-.7.2-.9q.4-.4.9-.5c5.4 0 10.8-.7 15.8-3.3.4-.2.9-.4 1.3.1-.5.8-.9 1.7-1.8 2.2-1 .1-1.8.6-2.7.9z" style="fill:#a6aaac"/><path d="M65.4 105.9c-4 .2-8-.7-11.9-1.6-.6-.2-1-.6-1-1.4.2-.5.5-.5.9-.3 2.9.4 5.6 1.6 8.5 1.5 1.8-.1 3.7.1 5.5.1q-1 .9-2 1.7z" style="fill:#727d82"/><path d="M66.5 101.8c-2.6.3-5.1-.1-7.7-.3-.9 0-1.8-.2-2.4-1.1 0-.4.1-.6.4-.8q.2-.2.5-.2c1.4.1 2.9.1 4.4.4 2.7.3 5.3 0 7.9-.2 1-.1 2-1.1 3-.1-.5.7-1.1 1.4-1.9 1.8-1.4.3-2.8.4-4.2.5z" style="fill:#8a9296"/><path class="s20" d="M62.9 94.5q.2-.1.4 0c1.7.3 3.3.2 4.9-.1q5.9-.8 11.2-3.6c.5-.3.7-.3.9.2q-.4.5-.9 1c-1.3 0-2.3.9-3.5 1.4-4.4 1.8-9.1 2.3-13.8 2.1-.1-.7.4-.8.8-1z"/><path d="M69.2 102.7c-2.1-.5-4.3-.3-6.5-.2-2.7.1-5.2-.3-7.7-1.3.3-.7.7-1.1 1.4-.8 2.6 1.3 5.4.6 8 1.3.1 0 .3 0 .5-.1 1.7-.7 3.6.3 5.3-.6.1-.1.3.2.5.3-.5.4-.8 1.1-1.5 1.4z" style="fill:#848d92"/><path class="s16" d="M98.3 52.5c-.5-3.1-1.6-6.1-2.6-9.1-.1-.6.1-1.2.3-1.8.3-.4.3-1 1-.9 1.4 2.7 2.6 5.5 2.8 8.7q-.4 2-.9 3.9c-.5 0-.5-.4-.6-.8z"/><path d="M98.1 56.3c-.7-.1-.7-.7-.8-1.2-.4-3.4-1.3-6.6-2.3-9.8 0-.8 0-1.8 1-2 1.4 3.2 2.2 6.6 2.9 10l-.8 3z" style="fill:#a4a9ab"/><path d="M58.4 98.5c1.8.4 3.6.5 5.4.6 2.7.2 5.2-.4 7.8-.9.6-.1 1.4-.5 1.8.5-.3.2-.4.7-.8.8-2.3.4-4.7.9-7.1.9-2.8 0-5.6-.3-8.4-.6 0-1 .7-1.1 1.3-1.3z" style="fill:#91989b"/><path d="M59.1 98.1c4.8 1.2 9.4.6 14-1 .2-.1 1.3-.8 1.5.4-.3.5-.7 1-1.2 1.2-1.7-.5-3.3.4-4.9.5-3.5.3-6.9.4-10.2-.4-.1-.7.3-.8.8-.7z" style="fill:#969c9f"/><path d="M76.4 95.6c-.1-.3-.3-.3-.6-.2-2.3 1.2-4.8 1.3-7.2 1.8-2.6.6-5.5.6-8.3 0 0-.7.3-1 .9-.7 1.1.1 2.2 0 3.4.3 1.1.3 2.2-.5 3.2-.5 2.2-.1 4.2-.9 6.3-1.4 1.1-.2 2.2-1.4 3.5-.7-.4.5-.6 1.1-1.2 1.4z" style="fill:#a2a6a8"/><path d="M51.4 106.5c-.7-.2-1.4-.5-1.8-1.2q-.1-.2 0-.4c.3-.4.7-.5 1.1-.6 3.8 1 7.5 1.9 11.4 2.3.5 0 1.1.1 1.2.9q-.6.5-1.2.9c-3.6-.3-7.2-1-10.7-1.9z" style="fill:#607075"/><path d="M99.8 45.9c-.3-1.6-.9-3-1.6-4.5-.4-.9-.9-1.7-1-2.8.1-.8 0-1.7.8-2.2 2.1 1.6 2.6 4 3 6.6.2 1.3-.6 2.5-.6 3.8-.6 0-.6-.5-.6-.9z" style="fill:#889094"/><path d="M99.8 49.4c-.7-3-2-5.8-2.9-8.7-.4-.9-.3-1.6.6-2 .9 2.7 2.5 5.2 2.9 8.1 0 .9-.7 1.7-.6 2.6z" style="fill:#92999c"/><path class="s20" d="M97.2 59.2c-.3-.3-.3-.7-.3-1.1.2-3.5-.8-6.9-1.5-10.3-.1-.4-.3-.6-.6-.6-.4-.8-.2-1.4.4-2 1 1.7 1.2 3.6 1.7 5.4l1.2 5.7q-.3 1.5-.9 2.9z"/><path d="M51.7 103.7c1 .1 1.9.6 2.8.8 3 .7 5.9 1.4 9 1.3.3 0 1.1-.1 1 .8q-.6.4-1.2.9c-.5-.6-1.2-.5-1.8-.6-3.7-.3-7.3-1.2-11-2.3.1-.8.7-.8 1.2-.9z" style="fill:#68747a"/><path d="M61.5 108.8c-.4.1-.7.4-1.1.3-2.5-.5-5.1-.6-7.5-1.5-1.4-.5-2.9-.6-4.2-1.6 0-.8.4-.8.9-.7.6.3 1.3.7 1.9.8 3.4.7 6.7 1.9 10.3 1.7.2 0 .3.4.3.6l-.6.4z" style="fill:#5b6b70"/><path d="M51.9 103.2c.2-.2.4-.4.7-.2.3.5.6 1 1.2 1 .7 0 1.4.2 2 .4 1.6.5 3.2.8 4.8 1 1.6.2 3.2-.1 4.8.5l-.9.7c-.5-.5-1-.5-1.6-.5-3.9-.1-7.6-.7-11.3-2.2 0-.3.1-.5.3-.7z" style="fill:#6c787e"/><path d="m60.5 109.5-5.1-.9c-2.6-.3-5-1.7-7.7-2.1.2-.6.4-.9 1-.6q2 .6 3.9 1.2c2.9 1 5.9 1.3 8.9 1.7-.3.4-.6.6-1 .7z" style="fill:#56666c"/><path d="M101.2 38c-.9-1.7-2.4-3-2.6-5.1 0-.4 0-.8.1-1.3q.2-.3.5-.5c1.7.9 2.1 2.8 3 4.4q-.2 1.3-.3 2.6c-.3.2-.6.2-.7-.1z" style="fill:#6e7a7f"/><path d="M101.6 40c-.7.4-1-.3-1.3-.7-.8-1.3-1.6-2.7-2.2-4.2.1-.9 0-1.8.8-2.3.5 2.1 1.7 3.7 3 5.3q-.2 1-.3 1.9z" style="fill:#788387"/><path d="M101 43c-.9-2.2-1.4-4.7-2.9-6.6-.3-.5-.5-1 .3-1.2.3.6.7 1.2 1.1 1.9.5 1 .9 2.3 2.1 2.9-.2 1-.1 2-.6 3z" style="fill:#7e888d"/><path d="M99.4 29.7c.7-.4.9.3 1.2.7.6.7 1.2 1.5 1.9 2.2q-.2 1.4-.3 2.9c-1.3-1.1-1.7-3-2.9-4.2-.4-.6-.4-1.1.1-1.6z" style="fill:#627176"/><path d="M99.9 28c.4 0 .5.4.7.7.9.8.9 2.2 1.9 2.9v1c-.4.3-.6 0-.9-.3-.6-.9-1.3-1.8-2-2.6-.5-.7-.4-1.2.3-1.7z" style="fill:#5c6c72"/><path class="s38" d="M87.1 79.9c.1-.4.5-.8.9-.2-1.2 1.6-1.9 3.7-3.3 5.2-.2-.4-.5-.4-.9-.4 1-1.6 2.7-2.6 3.3-4.6z"/><path class="s39" d="M0 14.5c0-.6-.2-1.2.3-1.7v4.5c.9 1.8.3 3.7.4 5.5-.1 1.2.4 2.5-.4 3.6H0V14.5z"/><path class="s40" d="M.7 81.9c0 1.1.3 2.3-.4 3.3-.1.8.3 1.8-.3 2.6V79h.3c.7.9.4 1.9.4 2.9z"/><path class="s41" d="M270.5 69.5c2.2-1.1 4.3-2.6 6.5-3.9 4.2-2.6 8.4-1 9.4 3.6.4 1.9.1 3.7-.5 5.5-2.4 7.1-6.7 12-13.1 14.8-6.9 3-14.1 3.1-21.3 2.3-1.2-.1-2.2 0-3.3.6-6.4 3.8-13.1 6.7-20.5 7.2-4.1.2-7.9-.6-11.3-3.2-2.2-1.8-3.7-4.2-4.9-7-2 3.1-4.1 5.8-6.5 8.3-3.3 3.4-6.8 6.3-11.3 7.4-2.8.6-5.7 1-8.5 1.4-.5.1-1.2.7-1.6-.4-.5-1.1.5-1.1.9-1.4 7.1-5.2 14.1-10.6 20.5-16.8 3.1-3.1 5.6-6.4 6.7-11 1.4-6 4.1-11.4 8.3-15.8.4-.4.6-.8 1.2-.3s.4.8.1 1.4c-1.4 3.1-2.5 6.4-2.7 10-.3 4.8 1.2 8.6 5 10.6 4.7 2.5 9.6 2.9 14.7 1.6 1.1-.3 1.7-.9 2.2-1.9 4.2-7.8 8.8-15.1 15.1-21.1 1.7-1.8 3.7-3 6.2-2.9 1.5 0 2.5 1.1 3.8 2.1 1-11.7 2-23.1 3.4-34.5.6-5.1 2.1-9.8 4.7-14.1.6-1.1 1.5-2 2.7-2.4 1.4-.4 1.8-.1 1.8 1.5-.1 1 0 2-.2 3.1-.7 3.5-1.4 7-1.6 10.6-.5 7.5-.5 14.9-1.5 22.3-1 7.9-2 15.7-5.8 22.7.5.4.9-.1 1.4-.3zM153.5 85.9c10.3-2.3 19.9-6.5 29.3-11.5 2-1.1 2.5-2.1 2.4-4.5-.1-1.1-.3-1.6-1.4-.9q-2.4 1.4-5 1.9c-4.7 1-7.1-1.6-6.2-6.9.9-5.7 3.7-10.4 7.4-14.4 3.9-4.2 7.9-3.5 10.9 1.5 2.1 3.5 2.5 7.5 2.1 11.5-.5 5.4-3 10.1-5.1 14.9-1.1 2.5-2.6 4.7-4.4 6.7-4.6 5.2-10.4 8.3-16.5 10.7-9.6 3.6-19.4 5.8-29.4 6.3-5.7.3-11.3 0-16.6-2.4-5.4-2.4-7.8-6.7-7.4-12.9.5-7.3 2.6-14.1 5.6-20.6.2-.4.2-1.2 1-.8.7.4.5.9.2 1.5-.7 1.9-1.4 3.9-1.7 6-.9 5.9.1 9.4 5.3 12 5.2 2.6 10.7 3.6 16.6 3.5 4.3.1 8.6-.6 12.9-1.6zM289.5 100.4c1.3-6.5 1.9-13 2-19.6.1-10.8.5-21.5 1.5-32.2.7-7 2.2-13.6 6-19.4 1.1-1.7 2.2-3.6 3.5-5.2.4-.4.7-1.1 1.4-.7.5.4.2 1 .1 1.5 0 .2-.1.4-.1.6-1.6 7.2-3.4 14.3-3.6 21.8-.3 10.3-.8 20.7-1.9 31-.7 6.2-2.1 12.3-4.8 17.9-.9 2.1-2.2 4-4.1 5.6v-1.3zM198.7 79.6c1.3-5.3 2-10.7 1.8-16.2-.3-10.8.1-21.6 2.2-32.2 1.2-5.9 3.8-11.2 7.9-15.5.6-.7 1.5-1.8 2.5-1 .9.8.2 2-.2 3-1.3 3.3-2.8 6.7-3.1 10.4-.7 10.8-1.1 21.5-2.3 32.3-.6 5.4-1.7 10.6-4.2 15.3-1.2 2.3-2.7 4.2-5.1 5.7.2-.8.3-1.3.5-1.8z"/><path class="s41" d="M168.4 36.9c.6.6.4 1 .2 1.6q-3 6.8-5.9 13.7c-.4.9-.7 1-1.3.3q-2.9-2.9-5.9-5.7c-2.3-2.1-2.3-2.1-1.2-5.2 1.5-4.5 3.2-9 4.8-13.7 3.2 3.1 6.3 6.1 9.3 9zM219 47.9c.7-1.4 1.4-2.6 2.8-3.1 1-.3 1.5.1 1.5 1.1-.1.9-.3 1.7-.5 2.6 1.4-.5 1.7-1.8 1.5-3-.4-1.8.6-2.6 1.7-3.4.8-.6 1.3-.5 1.4.7 0 1.7.1 3.4-.1 5.2-.2 3.3-3.2 5.8-6.1 5.3-.4 0-.6-.1-1 .2-.7.6-1.7.7-2.6.9-1.6.4-2.5-.1-3.1-1.8-.5-1.5-.7-3-.1-4.4.4-1.2.5-2.4.6-3.7 0-.5-.3-1.3.3-1.6.6-.3 1.3 0 1.9.4.9.7 1.1 1.6 1 2.7 0 1.2-.4 2.3-.3 3.5.9-.2.9-1 1.1-1.6z"/><path class="s42" d="M9.2 17.1c16.3 0 32.5-.3 48.8.2 7.7.2 15.5.3 23.3-.3 5-.3 10.1.6 15.2.3 1.3-.1 2.7.4 4-.4.7-.4.5.5.6.8q-.2 1.4-.3 2.9c-1 .6-2 .2-2.9.1-2.6 0-5.3.3-7.9-.2-.4-.2-.4-.6-.4-1-.1-.3-.3-.4-.6-.4h-8c-.3 0-.6.1-.8.3-.7 1.5-.8 3.1-1.4 4.6-.2.5-.3 1.3-1.1 1.2-.7-.3-1.4-.8-2.1-.7-5 .3-9.9.1-14.8.1-.9 0-1.7.3-2.4.8-.9.2-.8-.7-1-1.2-.6-1.5-.8-3.2-1.6-4.7-.6-.6-1.3-.4-2-.4H7.6c-.5 0-1-.1-1.5.2-.4.5-.3 1.2-.6 1.7-.1.2-.2.5-.3.7-.8 2.1-3.3 2.7-4.9 1.2v-5.6c3-.1 5.9-.2 8.9-.2z"/><path d="M80.2 18.8h9.1c.4 0 .8-.1.8.5q-.1.5-.3 1c.1 1.5-.7 2.8-1 4.2-.8 2.6-1.6 5.2-2.3 7.8-1.1 3.3-2.2 6.6-3.2 10l-.4 1.4q-.3.8-.6 1.8c-.8 2.8-1.7 5.6-2.5 8.4-1.3 3.5-2.3 7.2-3.4 10.8q-1 2.9-1.8 5.8c-.4 1.3-.9 2.5-1.2 3.7q-.7 2.1-1.3 4.2c-.6 1.9-.8 2-2.7 2q-3.4.1-6.9 0c-2 0-2.3-.2-2.9-2.4-.5-1.4-.8-2.8-1.3-4.2-.5-1.6-1-3.3-1.5-4.9-1.6-5.5-3.5-11-5.1-16.5-.8-3.4-1.9-6.8-3-10.2l-6-19.8c.4 1.2.2 2.5.2 3.8 0 2-.3 2.3-2.1 2.3h-8c-.6 0-1.3-.1-1.8.4-.4.7-.3 1.5-.3 2.2v47.5q0 1.8-1.6 1.8-5 .2-10.1 0c-.9 0-1.6-.5-1.6-1.6.1-1.4-.3-2.8.4-4v-39c-.5-.6-.4-1.4-.4-2.1-.1-1.6.1-3.1-.2-4.7-.3-.7-1-.5-1.5-.5H6.8c-1 0-1.8-.3-1.9-1.5 0-2.1-.2-4.1.4-6.1q0-1 .1-1.9c.7-.5 1.5-.2 2.3-.2h47c.6 0 1.3-.3 1.8.5q.6 3.2 1.8 6.1c1.2 2.2 1.5 4.8 2.3 7.2.9 2.7 1.5 5.4 2.4 8.1 1.8 5.9 3.3 11.8 5.1 17.6 1.5-5.6 3.3-11.1 4.8-16.7 1-3.4 2-6.9 2.9-10.3.4-1 .6-2 .9-2.9.5-1 .3-2.3 1.2-3.2q1.1-3 1.8-6.1c.1-.2.3-.3.5-.3z" style="fill:#34429e"/><path class="s39" d="M15.9 36.1q-6.8.1-13.6.1c-1.4-.1-2-.7-2-2.3v-5.5c.5-.5 1-.3 1.6-.3 1.7.1 3.4.4 5.2.2 3-.2 6.1 0 9.1-.1.6 0 1.1.1 1.6.5v7.1c-.6.1-1.3.3-1.9.3z"/><path d="M.3 26.4v-3.5c1.2.5 2.3.3 3.6 0 1.1-.2.6-1.4 1.1-1.9.1-.1.2-.1.3-.1 0 2 .1 3.9 0 5.8 0 1.1.3 1.4 1.3 1.4q5-.1 10 0c.4 0 1.3-.6 1.2.6-3.2-.6-6.5-.5-9.7-.2-2.7.2-5.2.3-7.8-.1v-2z" style="fill:#efefef"/><path d="M3 81.4h69.2c.7 0 1.4-.1 2.2.1.3.2.8.4.5.8-.8 1.1-1.1 2.6-2.7 2.9H.3v-3.3c.8-.7 1.8-.5 2.7-.5z" style="fill:#e9e8e9"/><path d="M66.7 90.6c-.5.3-1.1.3-1.6.3H2.3c-.7 0-1.4 0-2-.5-.2-1.5.1-2.3 1.8-2.2 1.1 0 2.1.2 3.2.2h61.6c.7 0 1.4-.1 2.1.3-.1 1.6-1.3 1.7-2.3 1.9z" style="fill:#e3e0e1"/><path d="M67.3 90.5q0 .1-.1.2-.8.4-1.2 1.3-.5.3-.9.6c-.5.2-1 .2-1.5.2H2.1c-.6 0-1.3 0-1.8-.5v-1.9h66.9l.1.1z" style="fill:#dfddde"/><path d="M65.1 92.9c-.8.4-1.4.9-1.8 1.6q-.1.1-.3.1c-.6 0-1.2.2-1.8.2H2.3c-.7 0-1.4 0-2-.6v-1.9h62.8c.6 0 1.4-.1 2 .3v.3z" style="fill:#dcdadb"/><path d="M49.1 103.9q-7.1-.1-14.2 0-15.9 0-31.7-.1c-1 0-2.1.2-2.9-.8v-1.9c.6-.7 1.3-.8 2-.7 1.3.2 2.6.1 3.9.1 15.5 0 31 .1 46.5 0 .8 0 1.6 0 2 .9-.2.6-1 .7-1.3 1.2-.3.1-.6 0-.8.4q-.3.2-.6.3c-.9.5-1.9.6-2.9.6z" style="fill:#cac7ca"/><path d="M.3 99.4c.5-.9 1.3-.7 2.1-.8 15.2-.1 30.3 0 45.5 0 2.5 0 5 .4 7.5.4.6 0 1.3-.1 1.4.8l-.4.6-1.4.8q-.2.1-.3.2c-1-.7-2-.3-3.1-.3q-23.8-.1-47.7 0c-1.2 0-2.4-.5-3.6 0v-1.7z" style="fill:#cecccf"/><path d="m62.1 95.5-.6.4c-.7.4-1.6.5-2.4.5h-55c-1.3 0-2.6 0-3.8-.5v-1.7H61c.7 0 1.4-.1 2 .4q-.4.5-.9.9z" style="fill:#d9d6d8"/><path d="M61.2 96.5q-.6.1-.9.7-.5.3-1.1.6c-1.5.6-3 .2-4.4.2H3c-.9 0-1.9.2-2.7-.5v-1.6c1.2-.7 2.4 0 3.6 0h57.6q-.1.3-.3.6z" style="fill:#d6d3d5"/><path d="M59.1 98.1q-.4.4-.8.7l-1.2 1h-.3c-2-.8-4.2-.6-6.2-.6-15.5-.2-31-.1-46.5-.1-1.3.1-2.6-.3-3.8.3v-1.9h55.2c1.3 0 2.5-.1 3.7.3q0 .2-.1.3z" style="fill:#d2cfd2"/><path d="M46.7 106.9H3.3c-1.1 0-2.1-.1-3-.7v-1.6c.6-.3 1.3-.2 1.9-.2q22.4.1 44.8 0c.9 0 1.9-.2 2.7.6q0 .1-.1.3-.4.3-.9.6c-.4.1-.7.3-1 .6l-1 .4z" style="fill:#c2bec3"/><path d="M.3 103c.8.3 1.6.3 2.5.3q23.4 0 46.9.1c.8 0 1.6-.4 2.3-.1l-.4.6c-.4.1-.8.4-1.1.7l-.8.4h-4.1c-14 0-27.9 0-41.8-.1-1.2 0-2.4.4-3.5-.3V103z" style="fill:#c7c4c7"/><path d="M72.6 85.4c2.9-.9 5.3-2.8 7.7-4.6 1.5-1.1 2.7-2.5 3.8-4q3.5-4.9 5.1-10.8c.7-2.6.6-5.2.5-7.8.1-.7.3-1.3.7-1.8.4-.8.4-2 1.5-2.1.6.6.7 1.3.7 2.1.2 1.4-.1 2.9-.1 4.3 0 3.5-.9 6.8-2 10.1-1.5 4.6-4.5 8.1-7.7 11.4-3.4 3.5-7.5 5.6-12 6.7-.5.1-1.1.3-1.6-.2q1.1-1.5 2.4-2.6c.4-.2.6-.6 1-.7z" style="fill:#c6c6c6"/><path d="M72.2 85.2c1.1-.9 1.8-2.2 2.7-3.3q.1-.2.3-.2c.6-.1 1-.3 1.4-.6 2.5-1.7 4.7-3.7 6.4-6.2 2.5-3.5 4.1-7.5 4.5-11.9.3-1.6 1.3-2.8 1.8-4.2.1-.3.3-.7.8-.6.1 1.2.1 2.5.1 3.7 0 3-1.3 5.7-2 8.5-.5 1.8-1.8 3.1-2.6 4.7-1.8 3.8-5 6.2-8.3 8.4-1.7 1.2-3.5 2.4-5.7 2.6q.3-.5.6-.9z" style="fill:#cbcbcb"/><path class="s58" d="M92.3 52.3q.2-.1.4.1c0 1.1.6 2 .7 3 .2 1.7-.6 3.2-.4 4.8.2 3.6-.7 7-1.8 10.4-1.1 2.9-2.3 5.8-4.4 8.1.1.6-.3 1.1-.7 1.5a30.5 30.5 0 0 1-4.4 4.4c-4.4 3.4-9.1 5.7-14.5 6.1v-.3c.9-.2 1.3-1 1.8-1.7h.2c1.2.1 2.2-.7 3.3-.9 3.8-.5 6.7-2.9 9.5-5.4 2-1.8 3.5-4.1 5.2-6.2 1.7-2 2.5-4.3 3.3-6.7.6-2 1.2-4.1 1.4-6.3.3-2.9.7-5.9-.1-8.9-.4-.8 0-1.4.5-2z"/><path d="M2.9 110.3h33c.7 0 1.5 0 2.2.1.6.1 1.1.2 1.5.7-1 .8-2.1 1.3-3.3 1.7-1.7.8-3.6.4-5.4.4-10 .1-20.1-.2-30.1.2q-.3-.1-.5-.3v-2.3c.8-.6 1.7-.5 2.6-.5z" style="fill:#b4adb4"/><path d="M41.3 110.2c-1.9.2-3.9.1-5.9.1h-32c-1.1 0-2.1.1-3.1-.5-.2-1.4.5-1.6 1.6-1.6h39.4c1.1 0 2.2.4 3.3 0-1 .8-2.1 1.5-3.3 2z" style="fill:#bab5ba"/><path d="M4 113.2c9.4.1 18.7 0 28 0 .7.1 1.2.2 1.6.9-.9.6-1.9 1-2.9 1.3-.7-.3-1.5-.4-2.2-.4H.3v-1.9h.3c1.1.8 2.3.1 3.4.1z" style="fill:#aca7ad"/><path d="M39.6 111.1c-1.4-.2-2.7-.3-4-.3H.3v-1c.9-.3 1.8 0 2.6 0h36.7c.6 0 1.2-.2 1.7.4-.5.4-1.1.7-1.7.9z" style="fill:#b8b1b7"/><path d="M3.1 112.7c9 .1 18.1 0 27.2 0q3 0 6 .1c-.8.7-1.8.8-2.7 1.3-.9-.5-1.8-.4-2.8-.4-9.8.2-19.7-.3-29.5.3-.7 0-.7-.4-.7-.9.8-.1 1.6-.4 2.5-.4z" style="fill:#b0aab1"/><path d="M.3 81.9V78.3c.4-.3.9-.2 1.4-.2q7.4.2 14.7 0c.5 0 1.1-.1 1.4.6-.1.9.2 1.3 1.2 1.3 3.2-.1 6.4-.1 9.7 0 1.3.1 1.8-.3 1.8-1.9-.1-16.1-.1-32.2-.1-48.3 0-.5-.2-1.1.2-1.6.5.5.5 1.1.5 1.8v45.8c0 2.3 0 2.4 2.3 2.4 8.8-.2 17.6.5 26.3-.5.4 1.9 1.5 2.5 3.3 2.3 1.9-.2 4-.2 6 0 1.5.1 2.6-.2 2.9-2 1.8.4 3.7 0 5.5.5.4.2.3.6.1.8-.7.9-1.2 2.1-2.3 2.6H.3z" style="fill:#ededed"/><path class="s40" d="M.3 76.1c0-.8.1-1 .9-1.1 1.1-.2 2.1.2 3.2.1 4.5-.1 8.9.3 13.4-.3v3.9c-.3-.1-.6-.3-.8-.3-5.6.5-11.1.5-16.7-.1v-2.2z"/><path class="s65" d="M83.5 52.5c-1 0-2 .1-2.8 1-.3.4-.8.6-1.3.2q1.3-4.2 2.7-8.5c.3-.4.5-1 .5-1.6 0-.5.1-.9.4-1.3.3-.6.9-.7 1.5-.8 3.6-.6 7.3-.2 10.9-.3.4 0 .7.2 1 .5-.1.5-.5 1-.4 1.6-.6.5-.5 1.3-.8 1.9l-.4 2c-.5.6-.7 1.5-.9 2.3-.3.2-.3.5-.3.9q-.7.9-.9 2h-.2c-3 .3-6 .1-9 .1z"/><path class="s58" d="M93.4 60.3c-.1 3.6-.4 7.1-2.2 10.3.5-2.3.9-4.6 1.4-6.8.3-1.2-.2-2.5.4-3.6.2 0 .4.1.4.1zM91.1 71.7c-.7 1.7-1.4 3.5-2.4 5.1-.5.8-.8 1.8-1.9 1.9 1.4-2.7 3.1-5.2 4.2-8 0-.1.2-.1.2-.1 0 .3.1.7-.1 1.1z"/><path class="s38" d="M82 86.1c.5-.2 1-.4 1.2-.9-.6-.1-1.1.1-1.2.9z"/><path class="s66" d="M91 23.7c2.7-.1 5.5.1 8.2-.2.9 0 1.3.3 1 1.4-.2 1-.4 2.1-.3 3.1-.3.5-.4 1.1-.3 1.7-.4.4-.3 1-.3 1.6l-.3.3q-.3.2-.6.2c-4-.4-8-1-11.9.6-.1.1-.3-.1-.4-.2l2.4-7.7c.7-.7 1.6-.8 2.5-.8z"/><path class="s42" d="M89.8 20.3c3.7.1 7.3-.4 11 .3q0 2.2-.6 4.3c-.1-.5 0-1.1-.8-1-3.6.6-7.3-.1-10.9.6q.7-2.1 1.3-4.2z"/><path class="s67" d="M98.9 32.8c-.3.8-.5 1.5-.5 2.4-.4.3-.3.8-.3 1.2q-.6 1.1-.6 2.3c-.4.6-.6 1.3-.6 2q-.3.5-.5 1c-4.5.2-9-.6-13.4.6q1.5-5 3.1-10.1c.7.1 1.1-.7 1.8-.9 2.5-.6 5.1-.2 7.7-.3 1.1-.1 2.3-.1 3.4.6q-.1.6-.1 1.2z"/><path class="s0" d="M262 77.2c.1-.2.3-.5.6-.3 2.3 1.1 4.2-.3 6.1-1.2 2.3-1.1 4.5-2.4 6.9-3 1.3-.4 2.6-.8 4-.3 1 .5 1.5 1.2 1.6 2.3.2 1.1 0 1.9-.9 2.5-2.2 1.6-4.3 3.2-6.7 4.5-5.6 3.2-11.4 5.3-18.2 4.4 2.4-3 4.6-5.9 6.6-8.9z"/><path d="M252.5 70.8c1.1-1.2 2.4-2.3 4-2.9 1.2-.5 2.2-.4 2.9.9.9 1.7.9 3.7 0 4.6-3.6 3.3-7.7 5.5-12.5 7 1.5-3.7 3.1-6.9 5.6-9.6z" style="fill:#ee4d24"/><path class="s66" d="M64.4 31.4c-1.5 0-2.9.2-4.1 1.2q-1.2-3.5-2-7.2c.1-1.2.9-1.3 1.8-1.3q5.9.1 11.8 0c1 0 2.1.2 3.1-.1 1.3-.3 2.2.2 2.9 1.2q-.7 3.2-1.8 6.2c-3.9.1-7.8.1-11.7 0z"/><path class="s2" d="M7.8 18.7q23.6-.1 47.1 0c.5 0 1.3-.5 1.6.6-.5-.6-1.1-.4-1.7-.4H19.3q-7 0-13.9.1c.7-1.1 1.6-.3 2.4-.3zM80.4 18.6c3.2 0 6.4 0 9.6-.1.6 0 .4.4.1.8-.1-.1-.2-.3-.3-.3-3.4 0-6.7-.2-10.1.1.1-.4.4-.5.7-.5z"/><path d="M32.9 50.9h14.4c1.7 0 3.3.5 4.7 1.5 1.9 5.4 3.6 10.9 5.1 16.5-.1 1.2-.9 1-1.5 1-7.8.4-15.6.1-23.4.2-.6 0-1.1-.1-1.5-.5V51.4c.6-.7 1.5-.5 2.2-.5z" style="fill:#f9f9f9"/><path d="M41.3 28.1c1 0 1.4-.3 1.3-1.4-.1-1.7 0-3.4 0-5 1 2.3 1.7 4.6 2.4 7 1.3 4.5 2.9 9 4 13.6-.3.4-.8.4-1.2.2-1.3-.4-2.6-.3-4-.3h-11c-.8 0-1.6.1-2.1-.8q-.1-6.6-.1-13.2c3.6-.1 7.1-.2 10.7-.1z" style="fill:#f4f3f3"/><path d="M52 52.4c-.5 0-1.1.1-1.5-.2-1-.9-2.1-.8-3.3-.8H30.7v-10c.6.4 1.2.2 1.9.3 5.4.3 11-.7 16.4.6 1.2 3.3 2.3 6.6 3 10.1z" style="fill:#f8f8f8"/><path d="M91.8 54.3q-1.1 1.8-1.7 3.9-1.2 2.5-2.4 4.9c-.4 1.8-1.4 3.1-2.7 4.2-2 .3-4 .1-6 .1-2.5.1-2.5 0-2.9-2.8.9-3.7 2.1-7.3 3.3-10.9.4 0 .9 0 1.1-.5.5-1.3 1.6-1.2 2.6-1.1 2.6 0 5.2-.1 7.8 0 .6 0 1.1-.2 1.6.3q-.3 1-.7 1.9z" style="fill:#fafafa"/><path class="s7" d="M58.6 73.8c-.3 1.7-1.7 1.5-2.7 1.5H32.6c-.7 0-1.4.1-1.9-.5v-5.2c7.6 0 15.3 0 23-.1 1.1 0 2.4.5 3.4-.6q1 2.3 1.5 4.9z"/><path class="s67" d="M73.2 41.8c-2.9-1.3-5.9-1-9-.8-.5.1-1 .1-1.5-.3q-1.4-4-2.4-8.1c.3-1.4 1.3-1.6 2.4-1.6h12.1c.5 0 1-.2 1.3.4-.8 3.5-1.8 7-2.9 10.4z"/><path class="s66" d="M59.7 77.7c-.1.3-.3.6-.6.6-1.1.1-2.3.3-3.4.4H34c-3.5 0-3.5 0-3.3-3.9h25.5c.9 0 1.8 0 2.4-1 .5 1.2.9 2.5 1.1 3.9z"/><path class="s4" d="m68.3 59.2-.4-.1-5.2-18.4c2.5-.4 5-.4 7.5-.3 1.1 0 2.2.3 3 1.4q-2.5 8.7-4.9 17.4z"/><path class="s65" d="M82.6 71.3c-2.6-.1-5.3-.3-7.9-.4-.2 0-.4-.2-.5-.4q.7-3 1.9-5.9c0 .6 1.1.3.7 1.1-.7 1.3.1 1.3.8 1.3h7.7c-.2 1.9-1.2 3.3-2.7 4.3z"/><path class="s67" d="M79.8 75.5c-1.8.2-3.7.1-5.6 0-.7 0-1.5-.1-1.1-1.4.2-1.2.6-2.4 1.1-3.6 2.9-.1 5.8.2 8.7.4-.4 2-1.4 3.6-3.1 4.6z"/><path d="M77.6 78.7h-2.5c-1.1-.1-2.3.2-3.2-.7.3-1.3.7-2.6 1.2-3.9-.1 1 .5 1 1.2 1h5.9c-.4 1.6-1.3 2.8-2.6 3.6z" style="fill:#f0f0f0"/><path class="s67" d="M82.1 45.2c.6-.3 1-.8.5-1.6-.3.5-.4 1.1-.5 1.6z"/><path d="M82.9 70.9q1.4-1.8 2.4-3.9 1.2-2 2.4-3.9c.1.2.3.4.2.5-.3 2.9-1.3 5.6-2.5 8.2-1.8 3.8-4.6 6.7-7.8 9-.7.5-1.3 1.7-2.4 1.1l2.4-3.2 2.6-3.6q1.4-2.1 2.7-4.2z" style="fill:#d0cfd0"/></g></svg>