<?xml version="1.0" encoding="utf-8"?>
<!-- Generator: Adobe Illustrator 16.0.0, SVG Export Plug-In . SVG Version: 6.00 Build 0)  -->
<!DOCTYPE svg PUBLIC "-//W3C//DTD SVG 1.1//EN" "http://www.w3.org/Graphics/SVG/1.1/DTD/svg11.dtd">
<svg version="1.1"
	 id="Calque_1" xmlns:dc="http://purl.org/dc/elements/1.1/" xmlns:cc="http://creativecommons.org/ns#" xmlns:rdf="http://www.w3.org/1999/02/22-rdf-syntax-ns#" xmlns:svg="http://www.w3.org/2000/svg" xmlns:sodipodi="http://sodipodi.sourceforge.net/DTD/sodipodi-0.dtd" xmlns:inkscape="http://www.inkscape.org/namespaces/inkscape" sodipodi:docname="Finale.svg" inkscape:version="0.48.4 r9939"
	 xmlns="http://www.w3.org/2000/svg" xmlns:xlink="http://www.w3.org/1999/xlink" x="0px" y="0px" width="1293.998px"
	 height="718.5px" viewBox="0 0 1293.998 718.5" enable-background="new 0 0 1293.998 718.5" xml:space="preserve">
<title  id="title3030">Algerie Telecom</title>
<sodipodi:namedview  id="namedview49" inkscape:window-maximized="1" inkscape:cy="119.75" inkscape:cx="215.6665" guidetolerance="10" gridtolerance="10" inkscape:zoom="0.81375641" objecttolerance="10" borderopacity="1" showgrid="false" bordercolor="#666666" pagecolor="#ffffff" inkscape:current-layer="Calque_1" inkscape:window-y="-8" inkscape:window-x="-8" inkscape:window-height="514" inkscape:window-width="1024" inkscape:pageshadow="2" inkscape:pageopacity="0">
	</sodipodi:namedview>
<path id="path3" fill="#1F235A" d="M644.139,643.8c-0.51,0.57-1.08,1.144-1.65,1.71c-108.359,108.36-323.49,68.971-480.479-88.02
	c-16.68-16.684-32.04-34.021-46.021-51.813V463.5h-30.09c-58.89-91.35-83.399-190.23-69.09-272.37c3.96,4.38,12.36,8.43,15.93,11.13
	c14.101,10.53,36.99,37.71,48.9,50.67c3.6,3.96,10.5,12.12,14.04,16.14c1.26,1.41,2.22,4.32,2.07,6.18c-0.12,1.65-1.471,4.05-3,4.68
	c-2.82,1.2-9.271,0.51-12.181-0.36c-1.439-0.42-3.84-2.34-5.25-2.82c-1.5-0.51-5.04-0.87-6.39,0c-0.63,0.39-0.93,2.07-0.93,2.82
	c0.029,1.02,1.08,2.91,1.68,3.75c4.77,6.48,27.18,19.98,24,21.36c-2.82,1.23-23.22-13.29-31.32-17.04c-2.04-0.96-7.71-0.96-9,0.93
	c-0.96,1.44,1.29,5.25,2.46,6.57c108.42,124.32,248.19,258.87,425.04,340.5c21.48,9.9,92.64,19.11,92.64,19.11
	S610.661,650.79,644.139,643.8z"/>
<path id="path5" fill="none" d="M702.942,504.45c0.66-8.88,0.837-17.913,0.63-27.09c0,0,0,0,0-0.03c-0.33-0.33-0.689-0.63-1.08-0.87
	c-8.13-4.293-19.62-2.13-30.239-2.88c0-4.683-0.75-10.533-0.75-14.82c11.01-0.66,21.869-1.35,31.17,0.45
	c-2.761-34.98-11.218-71.521-25.197-108.123c-0.391,1.56-0.87,2.85-1.47,3.66c-0.424,0.63-1.891,1.29-2.641,1.5
	c-3.66,1.11-11.58,0.42-15.359,1.11c-7.021,1.32-20.73,5.61-27.36,8.28c-17.73,7.053-51.66,24.75-68.13,34.35
	c-0.99,0.567-2.01,1.201-3.061,1.83c-1.05,0.631-2.1,1.291-3.18,1.978c-1.11,0.663-2.22,1.38-3.33,2.101
	c-1.95,1.26-3.99,2.609-6.06,3.989c-0.931,0.63-1.891,1.29-2.851,1.95c-1.8,1.23-3.659,2.52-5.55,3.811
	c-4.109,2.879-8.4,5.909-12.78,9.029c-2.01,1.44-4.02,2.88-6.06,4.351c-2.49,1.803-5.01,3.6-7.53,5.433
	c-1.859,1.317-3.72,2.67-5.58,3.99c-14.489,10.437-29.279,20.937-42.63,29.457c-7.439,4.739-14.43,8.88-20.729,12.032
	c-1.08,0.54-2.13,1.077-3.181,1.561c-3.989,1.86-12.66,4.11-16.979,5.01c-4.95,1.021-14.97,2.521-20.01,2.49
	c-6.181-0.061-18.511-1.95-24.511-3.51c-16.319-4.2-48.12-16.021-63-24c-57.359-30.69-210.72-150.061-214.439-152.97
	c1.95,1.08,65.07,36.12,78.33,40.98c4.14,1.53,15.6,1.14,17.61,0c2.729-1.53,1.77-7.74-0.48-12.51c-3.06-6.45-14.25-19.2-16.5-25.98
	c-1.8-5.37-5.4-12.45-2.25-19.77c0.24-0.57,0.54-1.11,0.9-1.71c0.029-0.06,0.029-0.09,0.09-0.12c0.149-0.271,0.33-0.54,0.54-0.81
	c0.39-0.57,0.81-1.11,1.26-1.68c1.86-2.22,4.35-4.5,7.14-6.69c0.33-0.27,0.69-0.54,1.051-0.81c4.859-3.69,10.47-7.08,15.239-9.48
	c0.75-0.39,1.5-0.75,2.19-1.05c0.72-0.33,1.38-0.63,2.04-0.9c0.63-0.27,1.26-0.51,1.83-0.72c92.46-33.27,191.46-24.27,287.1-82.26
	c9.78-5.97,22.2-27.51,30.99-44.73c-2.37-2.13-4.74-4.2-7.141-6.24c-8.609,8.43-20.88,19.05-33.239,24.96
	c-16.11,7.68-109.681,6.36-133.5,8.25c-21.75,1.71-65.311-5.13-87-7.5c-30.63-3.36-91.62-12.21-122.25-15.39
	c-23.58-2.43-70.92-4.68-94.5-7.11c-3.66-0.39-9.45-2.34-15.271-5.04c-8.31,17.49-14.25,36.33-17.909,56.16
	c-0.211,0.9-0.36,1.83-0.511,2.76c3.96,4.38,12.36,8.43,15.931,11.13c14.1,10.53,36.989,37.71,48.899,50.67
	c3.601,3.96,10.5,12.12,14.04,16.14c1.26,1.41,2.22,4.32,2.07,6.18c-0.12,1.65-1.47,4.05-3,4.68c-2.82,1.2-9.271,0.51-12.18-0.36
	c-1.44-0.42-3.841-2.34-5.25-2.82c-1.5-0.51-5.04-0.87-6.391,0c-0.63,0.39-0.93,2.07-0.93,2.82c0.03,1.02,1.08,2.91,1.68,3.75
	c4.771,6.48,27.18,19.98,24,21.36c-2.82,1.23-23.22-13.29-31.32-17.04c-2.039-0.96-7.71-0.96-9,0.93
	c-0.96,1.44,1.29,5.25,2.461,6.57c108.42,124.32,248.189,258.87,425.039,340.5c21.48,9.9,92.641,19.11,92.641,19.11
	s35.159-3.96,68.64-10.95c12.688-12.957,23.283-27.447,31.86-43.106c9.359-17.134,16.29-35.764,20.88-55.44h-9.811v-15.57h12.9
	c0.06-0.3,0.087-0.566,0.15-0.87c0.42-2.43,0.779-4.89,1.079-7.347c-11.553,0-23.069-0.063-34.652-0.153h-0.181
	c-3.33-0.029-10.109,0.033-10.109,0.033s-0.48,4.8-1.5,7.65c-0.63,1.74-1.317,3.3-2.13,4.71c-4.74,8.457-12.811,11.49-24.96,10.197
	l-0.181-0.721v-12.81c0,0,0.36-0.18,0.96-0.51c0,0,0.03-0.03,0.061-0.03c1.229-1.44,3.12-2.7,5.88-3.783
	c1.05-0.837,2.31-2.066,3.24-3.87c0.12-0.27,0.239-0.54,0.359-0.837c0.9-2.163,1.471-4.649,1.561-6.63
	c0.479-10.979,0.359-21.96,0.33-32.97h-0.03v-3.63c-0.03-1.83-0.03-3.69-0.03-5.521c0-1.59,0-3,0.03-4.293v-10.8h15.9
	c0.566,0.06,1.173,0.09,1.8,0.15v46.803H702.942z M571.362,446.07h0.12l5.521-0.21l-1.32-2.7l-0.54-2.16v-3.09l1.29-3.18l3.09-2.07
	h10.98v6.75h-7.23l-2.04,2.07v1.109l1.2,3l8.07,0.75v6.087h-15.57l-2.34-1.77l-0.811-1.438l-0.42-0.72l-0.51-1.53l-0.03-0.063
	L571.362,446.07z M592.932,520.32h-36.18v1.14c-0.961,0.3-1.891,0.688-2.7,1.29c-1.351,1.35-2.88,3.18-3.9,5.13
	c-0.149,0.33-0.3,0.69-0.45,1.05c0,0.063-0.029,0.12-0.06,0.184c-4.5,12-13.771,16.05-26.31,13.89v-13.74
	c5.729-1.68,9.119-4.8,10.979-8.937c1.65-3.63,2.16-8.043,2.04-12.934c-0.03-0.93-0.03-1.859-0.03-2.816
	c0-0.543-0.03-1.11-0.03-1.684c0-0.566-0.029-1.17-0.029-1.8c-0.03-1.71-0.03-3.569-0.061-5.52c-0.149-16.351-0.06-38.25-0.06-38.25
	h20.61v47.25h17.819v-47.25h18.36V520.32z M624.248,520.5h-18.239v-92.82h18.239V520.5z M642.189,445.05v-14.49h15.81v14.49H642.189
	z"/>
<path id="path7" fill="#1F235A" d="M520.991,134.04c-8.609,8.43-20.88,19.05-33.239,24.96c-16.11,7.68-109.681,6.36-133.5,8.25
	c-21.75,1.71-65.311-5.13-87-7.5c-30.63-3.36-91.62-12.21-122.25-15.39c-23.58-2.43-70.92-4.68-94.5-7.11
	c-3.66-0.39-9.45-2.34-15.271-5.04c2.4-5.1,5.04-10.11,7.86-14.97c8.46-14.61,18.75-28.08,30.9-40.23
	c97.47-97.47,281.31-75.39,431.52,44.25C510.732,125.4,515.889,129.69,520.991,134.04z"/>
<path id="path9" fill="#088141" d="M677.472,351.09c-0.39,1.56-0.87,2.85-1.47,3.66c-0.424,0.63-1.891,1.29-2.641,1.5
	c-3.66,1.11-11.58,0.42-15.359,1.11c-7.021,1.32-20.73,5.611-27.36,8.281c-17.73,7.053-51.66,24.75-68.13,34.35
	c-0.99,0.566-2.01,1.199-3.061,1.83c-1.05,0.63-2.1,1.289-3.18,1.977c-1.11,0.663-2.22,1.38-3.33,2.1
	c-1.95,1.261-3.99,2.61-6.06,3.99c-0.931,0.631-1.891,1.29-2.851,1.95c-1.8,1.229-3.66,2.521-5.55,3.81
	c-4.11,2.881-8.4,5.91-12.78,9.03c-2.01,1.44-4.02,2.88-6.06,4.351c-2.49,1.803-5.01,3.6-7.53,5.433
	c-1.859,1.317-3.72,2.67-5.58,3.99c-14.49,10.437-29.279,20.937-42.63,29.457c-7.439,4.74-14.43,8.88-20.729,12.033
	c-1.08,0.539-2.131,1.076-3.181,1.56c-3.989,1.86-12.66,4.11-16.979,5.01c-4.95,1.021-14.971,2.521-20.01,2.49
	c-6.181-0.06-18.511-1.95-24.511-3.51c-16.319-4.2-48.12-16.021-63-24c-57.359-30.69-210.72-150.06-214.439-152.97
	c1.95,1.08,65.07,36.12,78.33,40.98c4.14,1.53,15.6,1.14,17.61,0c2.729-1.53,1.77-7.74-0.48-12.51c-3.06-6.45-14.25-19.2-16.5-25.98
	c-1.8-5.37-5.4-12.45-2.25-19.77c0.24-0.57,0.54-1.11,0.9-1.71c0.029-0.06,0.029-0.09,0.09-0.12c0.149-0.27,0.33-0.54,0.54-0.81
	c0.39-0.57,0.81-1.11,1.26-1.68c1.86-2.22,4.35-4.5,7.14-6.69c0.33-0.27,0.69-0.54,1.05-0.81c4.86-3.69,10.471-7.08,15.24-9.48
	c0.75-0.39,1.5-0.72,2.19-1.05c0.72-0.33,1.38-0.63,2.04-0.9c0.63-0.27,1.26-0.51,1.83-0.72c92.46-33.27,191.46-24.27,287.1-82.26
	c9.78-5.97,22.2-27.51,30.99-44.729c8.939,7.89,17.729,16.14,26.34,24.75c25.68,25.68,48.21,52.92,67.47,81l0.24,0.36
	c5.91,8.64,11.52,17.34,16.8,26.13C654.578,298.38,667.451,324.75,677.472,351.09z"/>
<g id="g11">
	<path id="path13" fill="#1F235A" d="M1045.179,426.96v93.36h-72.181v-15.57h18.24c0-24.27-0.063-52.62-0.063-77.58h18.449
		c0,25.08,0.24,52.2,0.24,77.58h17.13c0.03-24.54,0.181-53.52,0.181-77.79H1045.179z"/>
	<path id="path15" fill="#1F235A" d="M592.932,457.32v63h-36.18c0,0-1.23,0.957-2.7,2.43c-1.53,1.05-2.82,2.67-3.9,5.13
		c-0.149,0.33-0.3,0.69-0.45,1.05c0,0.063-0.029,0.12-0.06,0.184c-4.5,12-13.771,16.05-26.31,13.89v-13.74
		c5.729-1.68,9.119-4.8,10.979-8.937c1.65-3.63,2.16-8.043,2.04-12.934c-0.03-0.93-0.03-1.859-0.03-2.816
		c0-0.543-0.03-1.11-0.03-1.684c0-0.566-0.029-1.17-0.029-1.8c-0.03-1.71-0.03-3.569-0.061-5.52
		c-0.149-16.351-0.06-38.25-0.06-38.25h20.61v47.25h17.819v-47.25h18.36V457.32z"/>
	<path id="path17" fill="#1F235A" d="M554.052,522.75c-1.351,1.35-2.88,3.18-3.9,5.13C551.232,525.42,552.519,523.8,554.052,522.75z
		"/>
	<rect id="rect19" x="1243.037" y="444" fill="#1F235A" width="13.591" height="13.593"/>
	<rect id="rect21" x="1224.852" y="444" fill="#1F235A" width="13.77" height="13.593"/>
	<path id="path23" fill="#1F235A" d="M909.998,430.377c5.658,0,10.326,0,15.747,0c0,5.28,0,10.092,0,15.876
		c-4.691,0-9.642,0-15.747,0C909.998,441.57,909.998,436.509,909.998,430.377z"/>
	<path id="path25" fill="#1F235A" d="M1280.498,426.78v93.689h-16.89v-22.293c0-19.89,0.03-39.81,0.03-59.697V426.78H1280.498z"/>
	<path id="path27" fill="#1F235A" d="M1231.809,466.56l-0.117,38.25l-30.359-0.06c0-8.91,0.27-18.18,0-26.13
		c-0.211-6.063-6.211-17.76-14.49-19.05c-22.38-3.514-47.61-2.163-69.75-2.163c0,1.683,0,3.33,0.029,4.95v42.566h-9.18v-25.05
		h-17.939v16.14c0,1.261-0.061,2.46-0.211,3.57v5.337h-15.779v-77.25h-18.54v92.793h194.16V466.5L1231.809,466.56z M1182.429,503.94
		h-45.987v-29.61c12.75,0,25.348-0.6,37.857,0.447c2.939,0.239,6.989,5.64,7.772,9.303
		C1183.362,490.11,1182.429,496.65,1182.429,503.94z"/>
	<path id="path29" fill="#1F235A" d="M885.248,430.377c5.658,0,10.326,0,15.747,0c0,5.28,0,10.092,0,15.876
		c-4.691,0-9.642,0-15.747,0C885.248,441.57,885.248,436.509,885.248,430.377z"/>
	<path id="path31" fill="#1F235A" d="M761.442,427.26v94.17h-14.553c-15.24,0-30.447,0.033-45.688,0.033
		c-11.553,0-23.069-0.063-34.652-0.153h-0.181c-3.33-0.029-10.109,0.033-10.109,0.033s-0.48,4.8-1.5,7.65
		c-0.63,1.74-1.317,3.3-2.13,4.71c-4.74,8.457-12.811,11.49-24.961,10.197l-0.18-0.721v-12.81c0,0,0.36-0.18,0.96-0.51
		c0,0,0.03-0.03,0.061-0.03c1.38-0.75,3.899-2.19,5.88-3.783c1.05-0.837,2.31-2.066,3.24-3.87c0.119-0.27,0.239-0.54,0.359-0.837
		c0.9-2.163,1.471-4.649,1.561-6.63c0.479-10.979,0.359-21.96,0.33-32.97c-0.03-1.2-0.03-2.434-0.03-3.63V457.5h15.9
		c0.566,0.06,1.173,0.09,1.8,0.15v46.803h49.95c-1.08-9.36,0.96-22.173-3.931-27.09c0,0,0,0,0-0.03c-0.33-0.33-0.689-0.63-1.08-0.87
		c-8.13-4.293-19.62-2.13-30.239-2.88c0-4.683-0.75-10.533-0.75-14.82c11.01-0.66,21.869-1.35,31.17,0.45
		c16.229,3.15,27.72,13.89,27.09,45.78h13.74v-77.73h17.942V427.26z"/>
	<path id="path33" fill="#1F235A" d="M962.559,457.14v63c-3.811,0.304-7.077,0.813-10.347,0.813
		c-26.341,0.06-52.71,0.149-79.054-0.033c-20.1-0.12-30.12-9.93-30.779-29.67c-0.03-0.6-0.03-1.23-0.03-1.86
		c0-8.31,0.18-16.649-0.063-24.96v-6.93h17.913v18.33c0,4.197,0.12,8.37,0.391,12.54c0.779,11.34,6.06,15.99,17.279,16.02
		c22.17,0.03,44.311,0,68.07,0v-47.25H962.559L962.559,457.14z"/>
	<path id="path35" fill="#1F235A" d="M790.373,520.533c-7.707,0-13.418,0-20.072,0c0-30.889,0-61.314,0-92.28
		c6.731,0,13.125,0,20.072,0C790.373,459.123,790.373,489.6,790.373,520.533z"/>
	<rect id="rect37" x="642.189" y="430.56" fill="#1F235A" width="15.81" height="14.49"/>
	<rect id="rect39" x="606.009" y="427.68" fill="#1F235A" width="18.239" height="92.82"/>
	<rect id="rect41" x="687.072" y="529.68" fill="#1F235A" width="15.75" height="15.57"/>
	<polygon id="polygon43" fill="#1F235A" points="581.232,441.48 581.232,442.59 582.432,445.59 590.498,446.34 590.498,452.43 
		574.932,452.43 572.589,450.66 571.779,449.22 571.362,448.5 570.852,446.97 570.819,446.91 571.362,446.07 571.482,446.07 
		576.998,445.86 575.682,443.16 575.139,441 575.139,437.91 576.432,434.73 579.519,432.66 590.498,432.66 590.498,439.41 
		583.269,439.41 	"/>
</g>
<rect id="rect45" x="63.492" y="463.5" fill="#088141" width="52.5" height="47.49"/>
<rect id="rect47" x="63.492" y="560.01" fill="#088141" width="52.5" height="47.49"/>
</svg>
