<svg xmlns="http://www.w3.org/2000/svg" width="344" height="312"><rect style="fill:#dadc12;fill-opacity:1;stroke:#73baa9;stroke-width:0;stroke-linecap:round;stroke-linejoin:miter;stroke-miterlimit:4;stroke-opacity:0;stroke-dasharray:none;stroke-dashoffset:0" width="323.715" height="298.11" x="11.583" y="7.183" rx="35.605" ry="34.995"/><rect style="fill:#024eac;fill-opacity:1;stroke:#73baa9;stroke-width:0;stroke-linecap:round;stroke-linejoin:miter;stroke-miterlimit:4;stroke-opacity:0;stroke-dasharray:none;stroke-dashoffset:0" width="312.132" height="285.918" x="17.375" y="13.585" rx="35.605" ry="34.995"/><path d="M114.962 23.98 80.907 56.31s16.669 16.094 26.296 22.417c7.358 4.833 15.337 8.914 23.709 11.639 14.287 4.65 29.404 8.668 44.4 7.759 21.28-1.29 42.767-7.848 61.213-18.536 9.06-5.25 22.847-21.554 22.847-21.554l-31.9-33.193s-21.513 19.13-34.916 22.847c-14.412 3.996-30.612 2.905-44.832-1.724-12.506-4.071-32.762-21.985-32.762-21.985zM296.442 95.279l-33.525-32.88s-15.488 17.232-21.464 27.079c-4.567 7.526-8.36 15.646-10.785 24.11-4.138 14.443-7.613 29.693-6.17 44.649 2.048 21.22 9.369 42.459 20.709 60.512 5.569 8.866 22.355 22.063 22.355 22.063l32.033-33.063s-19.886-20.818-24.078-34.08c-4.508-14.26-3.996-30.488.123-44.865 3.623-12.643 20.802-33.525 20.802-33.525zM47.368 206.72l33.574 32.83s15.462-17.255 21.423-27.11c4.557-7.534 8.338-15.659 10.75-24.126 4.117-14.45 7.57-29.705 6.105-44.658-1.134-11.566-3.98-23.168-7.897-34.188-3.27-9.2-7.73-18.09-12.901-26.294-5.582-8.858-22.388-22.03-22.388-22.03L44.05 94.253s19.917 20.788 24.129 34.044c4.529 14.253 4.04 30.483-.057 44.866-3.604 12.648-20.753 33.555-20.753 33.555z" style="fill:#f8c603;fill-opacity:1;stroke:#000;stroke-width:0;stroke-linecap:butt;stroke-linejoin:miter;stroke-miterlimit:4;stroke-opacity:1;stroke-dasharray:none"/><path transform="matrix(1.14737 0 0 1.08247 154.89 -36.659)" d="M55.178 174.487a40.952 41.814 0 1 1-81.905 0 40.952 41.814 0 1 1 81.905 0z" style="fill:#f8c603;fill-opacity:1;stroke:#000;stroke-width:0;stroke-linecap:round;stroke-linejoin:miter;stroke-miterlimit:4;stroke-opacity:1;stroke-dasharray:none;stroke-dashoffset:0"/><path d="m119.387 279.239-34.055-32.331s16.668-16.093 26.295-22.416c7.359-4.833 15.338-8.914 23.71-11.64 14.286-4.65 29.403-8.667 44.4-7.759 12.471.756 25.085 3.37 36.972 7.467a102.79 102.79 0 0 1 24.241 12.147c8.454 5.755 22.847 20.477 22.847 20.477l-31.9 33.192s-21.513-19.13-34.917-22.847c-14.411-3.996-30.611-2.905-44.832 1.725-12.505 4.07-32.761 21.985-32.761 21.985z" style="fill:#f8c603;fill-opacity:1;stroke:#000;stroke-width:0;stroke-linecap:butt;stroke-linejoin:miter;stroke-miterlimit:4;stroke-opacity:1;stroke-dasharray:none"/></svg>