<svg id="Calque_1" data-name="Calque 1" xmlns="http://www.w3.org/2000/svg" viewBox="0 0 566.93 566.93"><defs><style>.cls-1{fill:#b1b1b3;}.cls-2{fill:#f2b636;}.cls-3{fill:#362515;}</style></defs><path class="cls-1" d="M533.38,433.68c-30.63-21.05-64.21-92.15-10.89-183.61,24-44.71,52.42-108.54,3.27-116-53.05-10.72-395.71,89.65-511.59,245,50.45-6,160.3-100.94,208.66-119.11,109-55.13,330.18-158.6,297-60.17-27.6,67-108.45,187.51,13.52,233.91"/><path class="cls-2" d="M533.38,433.68c-30.63-21.05-64.21-92.15-10.89-183.61,24-44.71,52.41-108.54,3.27-116-53.05-10.72-395.71,89.65-511.59,245,50.45-6,160.3-100.94,208.66-119.11,109-55.13,330.18-158.6,297-60.17-27.6,67-108.45,187.51,13.52,233.91"/><path class="cls-3" d="M460.5,338.07A42.19,42.19,0,0,0,465.33,358H416.45a33.37,33.37,0,0,1-1.88-7.1,49.07,49.07,0,0,1-.53-7.09l-.54-.24q-4.58,9.94-13.69,13.95a51,51,0,0,1-20.41,4q-21,0-30.22-10.09t-9.26-29.76q0-11.19,2.68-18.66a33.67,33.67,0,0,1,7.25-12.21,31.57,31.57,0,0,1,11-7.34,80,80,0,0,1,13.7-4.12l24.17-5.23q8.06-1.74,11.27-4.6t3.23-9.34q0-5-2.82-7.72a9.75,9.75,0,0,0-7.11-2.73,14,14,0,0,0-6.59,1.36,10.47,10.47,0,0,0-3.9,3.49,12.26,12.26,0,0,0-1.73,4.86,39,39,0,0,0-.4,5.72H344.75q0-22.91,13.73-34.11t45-11.21q17.74,0,28.92,3.12t17.5,8.47a26.16,26.16,0,0,1,8.49,12.45,51.21,51.21,0,0,1,2.15,14.81Zm-47.27-45.32a28.93,28.93,0,0,1-5.5,2.62c-2.07.73-4.53,1.61-7.39,2.61-4.3,1.49-7,3.72-8.2,6.72a29,29,0,0,0-1.74,10.46,16.91,16.91,0,0,0,2.55,9.72c1.71,2.5,4.35,3.73,7.92,3.73a11.73,11.73,0,0,0,6.18-1.49,10.64,10.64,0,0,0,3.76-3.87,16.49,16.49,0,0,0,1.88-5.22,30.64,30.64,0,0,0,.54-5.86Z"/><path class="cls-3" d="M126.15,314.67c.35,2.82.67,5.32.94,7.47a16.11,16.11,0,0,0,1.75,5.72,9.28,9.28,0,0,0,3.89,3.86,15.23,15.23,0,0,0,7.12,1.37,10.38,10.38,0,0,0,5.5-1.24,10.66,10.66,0,0,0,3.22-3,9.85,9.85,0,0,0,1.61-3.49,12.93,12.93,0,0,0,.41-2.74,14.45,14.45,0,0,0-.54-4.23A7.37,7.37,0,0,0,147.5,315a25,25,0,0,0-6-3.23q-4-1.62-11.28-3.85-12.63-4-21.76-7.72a63.09,63.09,0,0,1-15.16-8.48,28.72,28.72,0,0,1-8.87-11.08,38.2,38.2,0,0,1-2.82-15.56,50.82,50.82,0,0,1,3.23-18.54,35.84,35.84,0,0,1,10.07-14.33,46.93,46.93,0,0,1,17.72-9.2q10.88-3.24,25.92-3.25,21.75,0,33.56,4.73T189.26,236a28.11,28.11,0,0,1,6.31,13.82,92.19,92.19,0,0,1,.94,11.81h-44a33.47,33.47,0,0,0-.41-5.34,9.09,9.09,0,0,0-1.74-4.35c-1.79-2.51-5.28-3.75-10.47-3.75a16.59,16.59,0,0,0-7.52,1.74q-3.5,1.76-3.49,7.48a6.71,6.71,0,0,0,1.48,4.35c1,1.24,2.9,2.57,5.77,4a93.1,93.1,0,0,0,11.82,4.59q7.51,2.51,19.33,6.24,5.37,1.74,11.15,4.23a38.43,38.43,0,0,1,10.47,6.72,31.38,31.38,0,0,1,7.65,11.21c2,4.65,3,10.54,3,17.67q0,12.48-4.84,21a40,40,0,0,1-12.89,13.95,55,55,0,0,1-18.94,7.73,108.07,108.07,0,0,1-23,2.36,141.42,141.42,0,0,1-25.12-2,46.67,46.67,0,0,1-18.4-7.23A33.55,33.55,0,0,1,84.8,338q-4-9.09-4.31-23.28Z"/><path class="cls-3" d="M330,338.07A42.08,42.08,0,0,0,334.81,358H285.93a32.79,32.79,0,0,1-1.88-7.1,47.72,47.72,0,0,1-.54-7.09l-.53-.24q-4.59,9.94-13.7,13.95a51,51,0,0,1-20.41,4q-21,0-30.21-10.09t-9.26-29.76q0-11.19,2.68-18.66a33.65,33.65,0,0,1,7.24-12.21,31.52,31.52,0,0,1,11-7.34A80.13,80.13,0,0,1,244,279.3l24.18-5.23q8.06-1.74,11.27-4.6t3.23-9.34q0-5-2.82-7.72a9.79,9.79,0,0,0-7.12-2.73,13.92,13.92,0,0,0-6.58,1.36,10.39,10.39,0,0,0-3.9,3.49,12.43,12.43,0,0,0-1.74,4.86,39,39,0,0,0-.4,5.72H214.23q0-22.91,13.72-34.11t45-11.21q17.76,0,28.93,3.12t17.5,8.47a26.14,26.14,0,0,1,8.48,12.45A50.87,50.87,0,0,1,330,258.64Zm-47.26-45.32a29.52,29.52,0,0,1-5.5,2.62c-2.07.73-4.53,1.61-7.4,2.61-4.29,1.49-7,3.72-8.18,6.72a28.55,28.55,0,0,0-1.75,10.46,17,17,0,0,0,2.55,9.72c1.7,2.5,4.34,3.73,7.92,3.73a11.67,11.67,0,0,0,6.17-1.49,10.66,10.66,0,0,0,3.77-3.87,16.73,16.73,0,0,0,1.88-5.22,31.46,31.46,0,0,0,.54-5.86Z"/><path class="cls-3" d="M96.68,415.72,93,431H80.77l15.91-59.5h15.44L128.26,431H115.6l-4-15.27Zm13.2-10.07L106.64,393c-.92-3.54-1.86-7.95-2.62-11.47h-.16c-.78,3.52-1.55,8-2.39,11.47l-3.09,12.62Z"/><path class="cls-3" d="M134.52,419.24a20.82,20.82,0,0,0,10.12,3.28c3.55,0,5-1.43,5-3.62s-1.16-3.26-5.57-4.95c-7.79-3-10.8-7.86-10.72-13,0-8,6-14.13,15.36-14.13a22.78,22.78,0,0,1,10.66,2.48l-2.09,9.27a16.78,16.78,0,0,0-8.18-2.47c-2.86,0-4.47,1.32-4.47,3.53,0,2,1.45,3.09,6.09,4.93,7.18,2.84,10.19,7,10.27,13.35,0,8-5.56,13.94-16.36,13.94a24,24,0,0,1-12.2-3Z"/><path class="cls-3" d="M168,419.24a20.78,20.78,0,0,0,10.11,3.28c3.55,0,5-1.43,5-3.62s-1.16-3.26-5.57-4.95c-7.78-3-10.8-7.86-10.73-13,0-8,6-14.13,15.37-14.13a22.7,22.7,0,0,1,10.65,2.48l-2.08,9.27a16.78,16.78,0,0,0-8.18-2.47c-2.86,0-4.48,1.32-4.48,3.53,0,2,1.46,3.09,6.1,4.93,7.18,2.84,10.19,7,10.27,13.35,0,8-5.57,13.94-16.37,13.94a24,24,0,0,1-12.2-3Z"/><path class="cls-3" d="M237.21,417.13c0,5.65.15,10.23.31,13.86h-10.2l-.53-6.1h-.24A13.18,13.18,0,0,1,214.73,432c-7.63,0-13.27-5.47-13.27-18.81V387.82h11.81V411c0,6.28,1.78,10.06,5.87,10.06,3.25,0,5.09-2.55,5.86-4.68a8.33,8.33,0,0,0,.39-2.89v-25.7h11.82Z"/><path class="cls-3" d="M246.63,402c0-6.34-.16-10.5-.31-14.2h10.11l.39,7.95h.31c1.93-6.28,6.56-8.93,10.19-8.93a9.88,9.88,0,0,1,2.47.19v12.62a14.59,14.59,0,0,0-3.17-.35,7.76,7.76,0,0,0-8,6.79,17.54,17.54,0,0,0-.24,3V431H246.63Z"/><path class="cls-3" d="M296.59,431l-.69-4.33h-.23a12.92,12.92,0,0,1-10.82,5.3c-7.64,0-12.2-6.35-12.2-13.24,0-11.22,8.8-16.6,22.15-16.5v-.63c0-2.29-1.07-5.56-6.86-5.56a19.26,19.26,0,0,0-10.43,3.27l-2.16-8.66a28.05,28.05,0,0,1,14.67-3.8c12.58,0,16.6,8.48,16.6,18.64v15a77.37,77.37,0,0,0,.54,10.51Zm-1.39-20.4c-6.18-.09-11,1.59-11,6.8,0,3.45,2,5.13,4.65,5.13a6.55,6.55,0,0,0,6.09-5,11.07,11.07,0,0,0,.24-2.28Z"/><path class="cls-3" d="M315.89,401.59c0-5.38-.15-10-.31-13.77h10.2l.53,5.92h.24a13.49,13.49,0,0,1,11.65-6.9c7.71,0,13.51,5.84,13.51,18.54V431H340V407.07c0-5.57-1.7-9.36-6-9.36-3.24,0-5.17,2.55-5.95,5a10.73,10.73,0,0,0-.45,3.35V431H315.89Z"/><path class="cls-3" d="M389.46,429.93c-2.07,1.06-6,1.94-10.48,1.94-12.21,0-20-8.48-20-22.06,0-12.63,7.56-23,21.61-23a24.27,24.27,0,0,1,9,1.68l-1.85,10a14.25,14.25,0,0,0-6.57-1.33c-6.18,0-10.19,5-10.1,12.09,0,7.94,4.62,12.1,10.34,12.1a15.9,15.9,0,0,0,6.7-1.33Z"/><path class="cls-3" d="M404.13,413.69c.4,5.55,5.19,8.2,10.67,8.2a29.19,29.19,0,0,0,10.43-1.77l1.54,9.11a33.24,33.24,0,0,1-13.67,2.64c-12.82,0-20.15-8.48-20.15-22,0-11,5.94-23.05,19.07-23.05,12.2,0,16.83,10.87,16.83,21.55a38.89,38.89,0,0,1-.38,5.3ZM418,404.5c0-3.25-1.23-8.73-6.65-8.73-4.94,0-6.95,5.13-7.24,8.73Z"/><path class="cls-3" d="M435.8,419.24a20.89,20.89,0,0,0,10.12,3.28c3.55,0,5-1.43,5-3.62s-1.17-3.26-5.56-4.95c-7.8-3-10.82-7.86-10.73-13,0-8,6-14.13,15.36-14.13a22.75,22.75,0,0,1,10.66,2.48l-2.09,9.27a16.78,16.78,0,0,0-8.19-2.47c-2.85,0-4.47,1.32-4.47,3.53,0,2,1.47,3.09,6.1,4.93,7.18,2.84,10.18,7,10.27,13.35,0,8-5.56,13.94-16.37,13.94a24.07,24.07,0,0,1-12.21-3Z"/></svg>